<?xml version="1.0" encoding="utf-8" standalone="no"?>
<!DOCTYPE svg PUBLIC "-//W3C//DTD SVG 1.1//EN"
  "http://www.w3.org/Graphics/SVG/1.1/DTD/svg11.dtd">
<svg height="266.575003pt" version="1.1" viewBox="0 0 609.67 266.575003" width="609.67pt" xmlns="http://www.w3.org/2000/svg" xmlns:xlink="http://www.w3.org/1999/xlink">
 <metadata>
  <rdf:RDF xmlns:cc="http://creativecommons.org/ns#" xmlns:dc="http://purl.org/dc/elements/1.1/" xmlns:rdf="http://www.w3.org/1999/02/22-rdf-syntax-ns#">
   <cc:Work>
    <dc:type rdf:resource="http://purl.org/dc/dcmitype/StillImage"/>
    <dc:date>2021-11-04T14:43:27.730950</dc:date>
    <dc:format>image/svg+xml</dc:format>
    <dc:creator>
     <cc:Agent>
      <dc:title>Matplotlib v3.4.2, https://matplotlib.org/</dc:title>
     </cc:Agent>
    </dc:creator>
   </cc:Work>
  </rdf:RDF>
 </metadata>
 <defs>
  <style type="text/css">*{stroke-linecap:butt;stroke-linejoin:round;}</style>
 </defs>
 <g id="figure_1">
  <g id="patch_1">
   <path d="M 0 266.575003 
L 609.67 266.575003 
L 609.67 0 
L 0 0 
z
" style="fill:#ffffff;"/>
  </g>
  <g id="axes_1">
   <g id="patch_2">
    <path d="M 45.716875 227.083128 
L 492.116875 227.083128 
L 492.116875 9.643128 
L 45.716875 9.643128 
z
" style="fill:#e5e5e5;"/>
   </g>
   <g id="matplotlib.axis_1">
    <g id="xtick_1">
     <g id="line2d_1">
      <path clip-path="url(#p65e68f3917)" d="M 61.908611 227.083128 
L 61.908611 9.643128 
" style="fill:none;stroke:#ffffff;stroke-linecap:square;stroke-width:0.8;"/>
     </g>
     <g id="line2d_2">
      <defs>
       <path d="M 0 0 
L 0 3.5 
" id="m1667f13b34" style="stroke:#555555;stroke-width:0.8;"/>
      </defs>
      <g>
       <use style="fill:#555555;stroke:#555555;stroke-width:0.8;" x="61.908611" xlink:href="#m1667f13b34" y="227.083128"/>
      </g>
     </g>
     <g id="text_1">
      <!-- 0 -->
      <g style="fill:#555555;" transform="translate(58.727361 241.681566)scale(0.1 -0.1)">
       <defs>
        <path d="M 2034 4250 
Q 1547 4250 1301 3770 
Q 1056 3291 1056 2328 
Q 1056 1369 1301 889 
Q 1547 409 2034 409 
Q 2525 409 2770 889 
Q 3016 1369 3016 2328 
Q 3016 3291 2770 3770 
Q 2525 4250 2034 4250 
z
M 2034 4750 
Q 2819 4750 3233 4129 
Q 3647 3509 3647 2328 
Q 3647 1150 3233 529 
Q 2819 -91 2034 -91 
Q 1250 -91 836 529 
Q 422 1150 422 2328 
Q 422 3509 836 4129 
Q 1250 4750 2034 4750 
z
" id="DejaVuSans-30" transform="scale(0.015625)"/>
       </defs>
       <use xlink:href="#DejaVuSans-30"/>
      </g>
     </g>
    </g>
    <g id="xtick_2">
     <g id="line2d_3">
      <path clip-path="url(#p65e68f3917)" d="M 143.892082 227.083128 
L 143.892082 9.643128 
" style="fill:none;stroke:#ffffff;stroke-linecap:square;stroke-width:0.8;"/>
     </g>
     <g id="line2d_4">
      <g>
       <use style="fill:#555555;stroke:#555555;stroke-width:0.8;" x="143.892082" xlink:href="#m1667f13b34" y="227.083128"/>
      </g>
     </g>
     <g id="text_2">
      <!-- 20 -->
      <g style="fill:#555555;" transform="translate(137.529582 241.681566)scale(0.1 -0.1)">
       <defs>
        <path d="M 1228 531 
L 3431 531 
L 3431 0 
L 469 0 
L 469 531 
Q 828 903 1448 1529 
Q 2069 2156 2228 2338 
Q 2531 2678 2651 2914 
Q 2772 3150 2772 3378 
Q 2772 3750 2511 3984 
Q 2250 4219 1831 4219 
Q 1534 4219 1204 4116 
Q 875 4013 500 3803 
L 500 4441 
Q 881 4594 1212 4672 
Q 1544 4750 1819 4750 
Q 2544 4750 2975 4387 
Q 3406 4025 3406 3419 
Q 3406 3131 3298 2873 
Q 3191 2616 2906 2266 
Q 2828 2175 2409 1742 
Q 1991 1309 1228 531 
z
" id="DejaVuSans-32" transform="scale(0.015625)"/>
       </defs>
       <use xlink:href="#DejaVuSans-32"/>
       <use x="63.623047" xlink:href="#DejaVuSans-30"/>
      </g>
     </g>
    </g>
    <g id="xtick_3">
     <g id="line2d_5">
      <path clip-path="url(#p65e68f3917)" d="M 225.875553 227.083128 
L 225.875553 9.643128 
" style="fill:none;stroke:#ffffff;stroke-linecap:square;stroke-width:0.8;"/>
     </g>
     <g id="line2d_6">
      <g>
       <use style="fill:#555555;stroke:#555555;stroke-width:0.8;" x="225.875553" xlink:href="#m1667f13b34" y="227.083128"/>
      </g>
     </g>
     <g id="text_3">
      <!-- 40 -->
      <g style="fill:#555555;" transform="translate(219.513053 241.681566)scale(0.1 -0.1)">
       <defs>
        <path d="M 2419 4116 
L 825 1625 
L 2419 1625 
L 2419 4116 
z
M 2253 4666 
L 3047 4666 
L 3047 1625 
L 3713 1625 
L 3713 1100 
L 3047 1100 
L 3047 0 
L 2419 0 
L 2419 1100 
L 313 1100 
L 313 1709 
L 2253 4666 
z
" id="DejaVuSans-34" transform="scale(0.015625)"/>
       </defs>
       <use xlink:href="#DejaVuSans-34"/>
       <use x="63.623047" xlink:href="#DejaVuSans-30"/>
      </g>
     </g>
    </g>
    <g id="xtick_4">
     <g id="line2d_7">
      <path clip-path="url(#p65e68f3917)" d="M 307.859024 227.083128 
L 307.859024 9.643128 
" style="fill:none;stroke:#ffffff;stroke-linecap:square;stroke-width:0.8;"/>
     </g>
     <g id="line2d_8">
      <g>
       <use style="fill:#555555;stroke:#555555;stroke-width:0.8;" x="307.859024" xlink:href="#m1667f13b34" y="227.083128"/>
      </g>
     </g>
     <g id="text_4">
      <!-- 60 -->
      <g style="fill:#555555;" transform="translate(301.496524 241.681566)scale(0.1 -0.1)">
       <defs>
        <path d="M 2113 2584 
Q 1688 2584 1439 2293 
Q 1191 2003 1191 1497 
Q 1191 994 1439 701 
Q 1688 409 2113 409 
Q 2538 409 2786 701 
Q 3034 994 3034 1497 
Q 3034 2003 2786 2293 
Q 2538 2584 2113 2584 
z
M 3366 4563 
L 3366 3988 
Q 3128 4100 2886 4159 
Q 2644 4219 2406 4219 
Q 1781 4219 1451 3797 
Q 1122 3375 1075 2522 
Q 1259 2794 1537 2939 
Q 1816 3084 2150 3084 
Q 2853 3084 3261 2657 
Q 3669 2231 3669 1497 
Q 3669 778 3244 343 
Q 2819 -91 2113 -91 
Q 1303 -91 875 529 
Q 447 1150 447 2328 
Q 447 3434 972 4092 
Q 1497 4750 2381 4750 
Q 2619 4750 2861 4703 
Q 3103 4656 3366 4563 
z
" id="DejaVuSans-36" transform="scale(0.015625)"/>
       </defs>
       <use xlink:href="#DejaVuSans-36"/>
       <use x="63.623047" xlink:href="#DejaVuSans-30"/>
      </g>
     </g>
    </g>
    <g id="xtick_5">
     <g id="line2d_9">
      <path clip-path="url(#p65e68f3917)" d="M 389.842495 227.083128 
L 389.842495 9.643128 
" style="fill:none;stroke:#ffffff;stroke-linecap:square;stroke-width:0.8;"/>
     </g>
     <g id="line2d_10">
      <g>
       <use style="fill:#555555;stroke:#555555;stroke-width:0.8;" x="389.842495" xlink:href="#m1667f13b34" y="227.083128"/>
      </g>
     </g>
     <g id="text_5">
      <!-- 80 -->
      <g style="fill:#555555;" transform="translate(383.479995 241.681566)scale(0.1 -0.1)">
       <defs>
        <path d="M 2034 2216 
Q 1584 2216 1326 1975 
Q 1069 1734 1069 1313 
Q 1069 891 1326 650 
Q 1584 409 2034 409 
Q 2484 409 2743 651 
Q 3003 894 3003 1313 
Q 3003 1734 2745 1975 
Q 2488 2216 2034 2216 
z
M 1403 2484 
Q 997 2584 770 2862 
Q 544 3141 544 3541 
Q 544 4100 942 4425 
Q 1341 4750 2034 4750 
Q 2731 4750 3128 4425 
Q 3525 4100 3525 3541 
Q 3525 3141 3298 2862 
Q 3072 2584 2669 2484 
Q 3125 2378 3379 2068 
Q 3634 1759 3634 1313 
Q 3634 634 3220 271 
Q 2806 -91 2034 -91 
Q 1263 -91 848 271 
Q 434 634 434 1313 
Q 434 1759 690 2068 
Q 947 2378 1403 2484 
z
M 1172 3481 
Q 1172 3119 1398 2916 
Q 1625 2713 2034 2713 
Q 2441 2713 2670 2916 
Q 2900 3119 2900 3481 
Q 2900 3844 2670 4047 
Q 2441 4250 2034 4250 
Q 1625 4250 1398 4047 
Q 1172 3844 1172 3481 
z
" id="DejaVuSans-38" transform="scale(0.015625)"/>
       </defs>
       <use xlink:href="#DejaVuSans-38"/>
       <use x="63.623047" xlink:href="#DejaVuSans-30"/>
      </g>
     </g>
    </g>
    <g id="xtick_6">
     <g id="line2d_11">
      <path clip-path="url(#p65e68f3917)" d="M 471.825966 227.083128 
L 471.825966 9.643128 
" style="fill:none;stroke:#ffffff;stroke-linecap:square;stroke-width:0.8;"/>
     </g>
     <g id="line2d_12">
      <g>
       <use style="fill:#555555;stroke:#555555;stroke-width:0.8;" x="471.825966" xlink:href="#m1667f13b34" y="227.083128"/>
      </g>
     </g>
     <g id="text_6">
      <!-- 100 -->
      <g style="fill:#555555;" transform="translate(462.282216 241.681566)scale(0.1 -0.1)">
       <defs>
        <path d="M 794 531 
L 1825 531 
L 1825 4091 
L 703 3866 
L 703 4441 
L 1819 4666 
L 2450 4666 
L 2450 531 
L 3481 531 
L 3481 0 
L 794 0 
L 794 531 
z
" id="DejaVuSans-31" transform="scale(0.015625)"/>
       </defs>
       <use xlink:href="#DejaVuSans-31"/>
       <use x="63.623047" xlink:href="#DejaVuSans-30"/>
       <use x="127.246094" xlink:href="#DejaVuSans-30"/>
      </g>
     </g>
    </g>
    <g id="text_7">
     <!-- Epoch number -->
     <g style="fill:#555555;" transform="translate(225.22 256.879378)scale(0.12 -0.12)">
      <defs>
       <path d="M 628 4666 
L 3578 4666 
L 3578 4134 
L 1259 4134 
L 1259 2753 
L 3481 2753 
L 3481 2222 
L 1259 2222 
L 1259 531 
L 3634 531 
L 3634 0 
L 628 0 
L 628 4666 
z
" id="DejaVuSans-45" transform="scale(0.015625)"/>
       <path d="M 1159 525 
L 1159 -1331 
L 581 -1331 
L 581 3500 
L 1159 3500 
L 1159 2969 
Q 1341 3281 1617 3432 
Q 1894 3584 2278 3584 
Q 2916 3584 3314 3078 
Q 3713 2572 3713 1747 
Q 3713 922 3314 415 
Q 2916 -91 2278 -91 
Q 1894 -91 1617 61 
Q 1341 213 1159 525 
z
M 3116 1747 
Q 3116 2381 2855 2742 
Q 2594 3103 2138 3103 
Q 1681 3103 1420 2742 
Q 1159 2381 1159 1747 
Q 1159 1113 1420 752 
Q 1681 391 2138 391 
Q 2594 391 2855 752 
Q 3116 1113 3116 1747 
z
" id="DejaVuSans-70" transform="scale(0.015625)"/>
       <path d="M 1959 3097 
Q 1497 3097 1228 2736 
Q 959 2375 959 1747 
Q 959 1119 1226 758 
Q 1494 397 1959 397 
Q 2419 397 2687 759 
Q 2956 1122 2956 1747 
Q 2956 2369 2687 2733 
Q 2419 3097 1959 3097 
z
M 1959 3584 
Q 2709 3584 3137 3096 
Q 3566 2609 3566 1747 
Q 3566 888 3137 398 
Q 2709 -91 1959 -91 
Q 1206 -91 779 398 
Q 353 888 353 1747 
Q 353 2609 779 3096 
Q 1206 3584 1959 3584 
z
" id="DejaVuSans-6f" transform="scale(0.015625)"/>
       <path d="M 3122 3366 
L 3122 2828 
Q 2878 2963 2633 3030 
Q 2388 3097 2138 3097 
Q 1578 3097 1268 2742 
Q 959 2388 959 1747 
Q 959 1106 1268 751 
Q 1578 397 2138 397 
Q 2388 397 2633 464 
Q 2878 531 3122 666 
L 3122 134 
Q 2881 22 2623 -34 
Q 2366 -91 2075 -91 
Q 1284 -91 818 406 
Q 353 903 353 1747 
Q 353 2603 823 3093 
Q 1294 3584 2113 3584 
Q 2378 3584 2631 3529 
Q 2884 3475 3122 3366 
z
" id="DejaVuSans-63" transform="scale(0.015625)"/>
       <path d="M 3513 2113 
L 3513 0 
L 2938 0 
L 2938 2094 
Q 2938 2591 2744 2837 
Q 2550 3084 2163 3084 
Q 1697 3084 1428 2787 
Q 1159 2491 1159 1978 
L 1159 0 
L 581 0 
L 581 4863 
L 1159 4863 
L 1159 2956 
Q 1366 3272 1645 3428 
Q 1925 3584 2291 3584 
Q 2894 3584 3203 3211 
Q 3513 2838 3513 2113 
z
" id="DejaVuSans-68" transform="scale(0.015625)"/>
       <path id="DejaVuSans-20" transform="scale(0.015625)"/>
       <path d="M 3513 2113 
L 3513 0 
L 2938 0 
L 2938 2094 
Q 2938 2591 2744 2837 
Q 2550 3084 2163 3084 
Q 1697 3084 1428 2787 
Q 1159 2491 1159 1978 
L 1159 0 
L 581 0 
L 581 3500 
L 1159 3500 
L 1159 2956 
Q 1366 3272 1645 3428 
Q 1925 3584 2291 3584 
Q 2894 3584 3203 3211 
Q 3513 2838 3513 2113 
z
" id="DejaVuSans-6e" transform="scale(0.015625)"/>
       <path d="M 544 1381 
L 544 3500 
L 1119 3500 
L 1119 1403 
Q 1119 906 1312 657 
Q 1506 409 1894 409 
Q 2359 409 2629 706 
Q 2900 1003 2900 1516 
L 2900 3500 
L 3475 3500 
L 3475 0 
L 2900 0 
L 2900 538 
Q 2691 219 2414 64 
Q 2138 -91 1772 -91 
Q 1169 -91 856 284 
Q 544 659 544 1381 
z
M 1991 3584 
L 1991 3584 
z
" id="DejaVuSans-75" transform="scale(0.015625)"/>
       <path d="M 3328 2828 
Q 3544 3216 3844 3400 
Q 4144 3584 4550 3584 
Q 5097 3584 5394 3201 
Q 5691 2819 5691 2113 
L 5691 0 
L 5113 0 
L 5113 2094 
Q 5113 2597 4934 2840 
Q 4756 3084 4391 3084 
Q 3944 3084 3684 2787 
Q 3425 2491 3425 1978 
L 3425 0 
L 2847 0 
L 2847 2094 
Q 2847 2600 2669 2842 
Q 2491 3084 2119 3084 
Q 1678 3084 1418 2786 
Q 1159 2488 1159 1978 
L 1159 0 
L 581 0 
L 581 3500 
L 1159 3500 
L 1159 2956 
Q 1356 3278 1631 3431 
Q 1906 3584 2284 3584 
Q 2666 3584 2933 3390 
Q 3200 3197 3328 2828 
z
" id="DejaVuSans-6d" transform="scale(0.015625)"/>
       <path d="M 3116 1747 
Q 3116 2381 2855 2742 
Q 2594 3103 2138 3103 
Q 1681 3103 1420 2742 
Q 1159 2381 1159 1747 
Q 1159 1113 1420 752 
Q 1681 391 2138 391 
Q 2594 391 2855 752 
Q 3116 1113 3116 1747 
z
M 1159 2969 
Q 1341 3281 1617 3432 
Q 1894 3584 2278 3584 
Q 2916 3584 3314 3078 
Q 3713 2572 3713 1747 
Q 3713 922 3314 415 
Q 2916 -91 2278 -91 
Q 1894 -91 1617 61 
Q 1341 213 1159 525 
L 1159 0 
L 581 0 
L 581 4863 
L 1159 4863 
L 1159 2969 
z
" id="DejaVuSans-62" transform="scale(0.015625)"/>
       <path d="M 3597 1894 
L 3597 1613 
L 953 1613 
Q 991 1019 1311 708 
Q 1631 397 2203 397 
Q 2534 397 2845 478 
Q 3156 559 3463 722 
L 3463 178 
Q 3153 47 2828 -22 
Q 2503 -91 2169 -91 
Q 1331 -91 842 396 
Q 353 884 353 1716 
Q 353 2575 817 3079 
Q 1281 3584 2069 3584 
Q 2775 3584 3186 3129 
Q 3597 2675 3597 1894 
z
M 3022 2063 
Q 3016 2534 2758 2815 
Q 2500 3097 2075 3097 
Q 1594 3097 1305 2825 
Q 1016 2553 972 2059 
L 3022 2063 
z
" id="DejaVuSans-65" transform="scale(0.015625)"/>
       <path d="M 2631 2963 
Q 2534 3019 2420 3045 
Q 2306 3072 2169 3072 
Q 1681 3072 1420 2755 
Q 1159 2438 1159 1844 
L 1159 0 
L 581 0 
L 581 3500 
L 1159 3500 
L 1159 2956 
Q 1341 3275 1631 3429 
Q 1922 3584 2338 3584 
Q 2397 3584 2469 3576 
Q 2541 3569 2628 3553 
L 2631 2963 
z
" id="DejaVuSans-72" transform="scale(0.015625)"/>
      </defs>
      <use xlink:href="#DejaVuSans-45"/>
      <use x="63.183594" xlink:href="#DejaVuSans-70"/>
      <use x="126.660156" xlink:href="#DejaVuSans-6f"/>
      <use x="187.841797" xlink:href="#DejaVuSans-63"/>
      <use x="242.822266" xlink:href="#DejaVuSans-68"/>
      <use x="306.201172" xlink:href="#DejaVuSans-20"/>
      <use x="337.988281" xlink:href="#DejaVuSans-6e"/>
      <use x="401.367188" xlink:href="#DejaVuSans-75"/>
      <use x="464.746094" xlink:href="#DejaVuSans-6d"/>
      <use x="562.158203" xlink:href="#DejaVuSans-62"/>
      <use x="625.634766" xlink:href="#DejaVuSans-65"/>
      <use x="687.158203" xlink:href="#DejaVuSans-72"/>
     </g>
    </g>
   </g>
   <g id="matplotlib.axis_2">
    <g id="ytick_1">
     <g id="line2d_13">
      <path clip-path="url(#p65e68f3917)" d="M 45.716875 210.695548 
L 492.116875 210.695548 
" style="fill:none;stroke:#ffffff;stroke-linecap:square;stroke-width:0.8;"/>
     </g>
     <g id="line2d_14">
      <defs>
       <path d="M 0 0 
L -3.5 0 
" id="mea8abe7a1d" style="stroke:#555555;stroke-width:0.8;"/>
      </defs>
      <g>
       <use style="fill:#555555;stroke:#555555;stroke-width:0.8;" x="45.716875" xlink:href="#mea8abe7a1d" y="210.695548"/>
      </g>
     </g>
     <g id="text_8">
      <!-- 0.5 -->
      <g style="fill:#555555;" transform="translate(22.81375 214.494767)scale(0.1 -0.1)">
       <defs>
        <path d="M 684 794 
L 1344 794 
L 1344 0 
L 684 0 
L 684 794 
z
" id="DejaVuSans-2e" transform="scale(0.015625)"/>
        <path d="M 691 4666 
L 3169 4666 
L 3169 4134 
L 1269 4134 
L 1269 2991 
Q 1406 3038 1543 3061 
Q 1681 3084 1819 3084 
Q 2600 3084 3056 2656 
Q 3513 2228 3513 1497 
Q 3513 744 3044 326 
Q 2575 -91 1722 -91 
Q 1428 -91 1123 -41 
Q 819 9 494 109 
L 494 744 
Q 775 591 1075 516 
Q 1375 441 1709 441 
Q 2250 441 2565 725 
Q 2881 1009 2881 1497 
Q 2881 1984 2565 2268 
Q 2250 2553 1709 2553 
Q 1456 2553 1204 2497 
Q 953 2441 691 2322 
L 691 4666 
z
" id="DejaVuSans-35" transform="scale(0.015625)"/>
       </defs>
       <use xlink:href="#DejaVuSans-30"/>
       <use x="63.623047" xlink:href="#DejaVuSans-2e"/>
       <use x="95.410156" xlink:href="#DejaVuSans-35"/>
      </g>
     </g>
    </g>
    <g id="ytick_2">
     <g id="line2d_15">
      <path clip-path="url(#p65e68f3917)" d="M 45.716875 182.167501 
L 492.116875 182.167501 
" style="fill:none;stroke:#ffffff;stroke-linecap:square;stroke-width:0.8;"/>
     </g>
     <g id="line2d_16">
      <g>
       <use style="fill:#555555;stroke:#555555;stroke-width:0.8;" x="45.716875" xlink:href="#mea8abe7a1d" y="182.167501"/>
      </g>
     </g>
     <g id="text_9">
      <!-- 1.0 -->
      <g style="fill:#555555;" transform="translate(22.81375 185.96672)scale(0.1 -0.1)">
       <use xlink:href="#DejaVuSans-31"/>
       <use x="63.623047" xlink:href="#DejaVuSans-2e"/>
       <use x="95.410156" xlink:href="#DejaVuSans-30"/>
      </g>
     </g>
    </g>
    <g id="ytick_3">
     <g id="line2d_17">
      <path clip-path="url(#p65e68f3917)" d="M 45.716875 153.639454 
L 492.116875 153.639454 
" style="fill:none;stroke:#ffffff;stroke-linecap:square;stroke-width:0.8;"/>
     </g>
     <g id="line2d_18">
      <g>
       <use style="fill:#555555;stroke:#555555;stroke-width:0.8;" x="45.716875" xlink:href="#mea8abe7a1d" y="153.639454"/>
      </g>
     </g>
     <g id="text_10">
      <!-- 1.5 -->
      <g style="fill:#555555;" transform="translate(22.81375 157.438673)scale(0.1 -0.1)">
       <use xlink:href="#DejaVuSans-31"/>
       <use x="63.623047" xlink:href="#DejaVuSans-2e"/>
       <use x="95.410156" xlink:href="#DejaVuSans-35"/>
      </g>
     </g>
    </g>
    <g id="ytick_4">
     <g id="line2d_19">
      <path clip-path="url(#p65e68f3917)" d="M 45.716875 125.111407 
L 492.116875 125.111407 
" style="fill:none;stroke:#ffffff;stroke-linecap:square;stroke-width:0.8;"/>
     </g>
     <g id="line2d_20">
      <g>
       <use style="fill:#555555;stroke:#555555;stroke-width:0.8;" x="45.716875" xlink:href="#mea8abe7a1d" y="125.111407"/>
      </g>
     </g>
     <g id="text_11">
      <!-- 2.0 -->
      <g style="fill:#555555;" transform="translate(22.81375 128.910626)scale(0.1 -0.1)">
       <use xlink:href="#DejaVuSans-32"/>
       <use x="63.623047" xlink:href="#DejaVuSans-2e"/>
       <use x="95.410156" xlink:href="#DejaVuSans-30"/>
      </g>
     </g>
    </g>
    <g id="ytick_5">
     <g id="line2d_21">
      <path clip-path="url(#p65e68f3917)" d="M 45.716875 96.58336 
L 492.116875 96.58336 
" style="fill:none;stroke:#ffffff;stroke-linecap:square;stroke-width:0.8;"/>
     </g>
     <g id="line2d_22">
      <g>
       <use style="fill:#555555;stroke:#555555;stroke-width:0.8;" x="45.716875" xlink:href="#mea8abe7a1d" y="96.58336"/>
      </g>
     </g>
     <g id="text_12">
      <!-- 2.5 -->
      <g style="fill:#555555;" transform="translate(22.81375 100.382579)scale(0.1 -0.1)">
       <use xlink:href="#DejaVuSans-32"/>
       <use x="63.623047" xlink:href="#DejaVuSans-2e"/>
       <use x="95.410156" xlink:href="#DejaVuSans-35"/>
      </g>
     </g>
    </g>
    <g id="ytick_6">
     <g id="line2d_23">
      <path clip-path="url(#p65e68f3917)" d="M 45.716875 68.055313 
L 492.116875 68.055313 
" style="fill:none;stroke:#ffffff;stroke-linecap:square;stroke-width:0.8;"/>
     </g>
     <g id="line2d_24">
      <g>
       <use style="fill:#555555;stroke:#555555;stroke-width:0.8;" x="45.716875" xlink:href="#mea8abe7a1d" y="68.055313"/>
      </g>
     </g>
     <g id="text_13">
      <!-- 3.0 -->
      <g style="fill:#555555;" transform="translate(22.81375 71.854532)scale(0.1 -0.1)">
       <defs>
        <path d="M 2597 2516 
Q 3050 2419 3304 2112 
Q 3559 1806 3559 1356 
Q 3559 666 3084 287 
Q 2609 -91 1734 -91 
Q 1441 -91 1130 -33 
Q 819 25 488 141 
L 488 750 
Q 750 597 1062 519 
Q 1375 441 1716 441 
Q 2309 441 2620 675 
Q 2931 909 2931 1356 
Q 2931 1769 2642 2001 
Q 2353 2234 1838 2234 
L 1294 2234 
L 1294 2753 
L 1863 2753 
Q 2328 2753 2575 2939 
Q 2822 3125 2822 3475 
Q 2822 3834 2567 4026 
Q 2313 4219 1838 4219 
Q 1578 4219 1281 4162 
Q 984 4106 628 3988 
L 628 4550 
Q 988 4650 1302 4700 
Q 1616 4750 1894 4750 
Q 2613 4750 3031 4423 
Q 3450 4097 3450 3541 
Q 3450 3153 3228 2886 
Q 3006 2619 2597 2516 
z
" id="DejaVuSans-33" transform="scale(0.015625)"/>
       </defs>
       <use xlink:href="#DejaVuSans-33"/>
       <use x="63.623047" xlink:href="#DejaVuSans-2e"/>
       <use x="95.410156" xlink:href="#DejaVuSans-30"/>
      </g>
     </g>
    </g>
    <g id="ytick_7">
     <g id="line2d_25">
      <path clip-path="url(#p65e68f3917)" d="M 45.716875 39.527266 
L 492.116875 39.527266 
" style="fill:none;stroke:#ffffff;stroke-linecap:square;stroke-width:0.8;"/>
     </g>
     <g id="line2d_26">
      <g>
       <use style="fill:#555555;stroke:#555555;stroke-width:0.8;" x="45.716875" xlink:href="#mea8abe7a1d" y="39.527266"/>
      </g>
     </g>
     <g id="text_14">
      <!-- 3.5 -->
      <g style="fill:#555555;" transform="translate(22.81375 43.326485)scale(0.1 -0.1)">
       <use xlink:href="#DejaVuSans-33"/>
       <use x="63.623047" xlink:href="#DejaVuSans-2e"/>
       <use x="95.410156" xlink:href="#DejaVuSans-35"/>
      </g>
     </g>
    </g>
    <g id="ytick_8">
     <g id="line2d_27">
      <path clip-path="url(#p65e68f3917)" d="M 45.716875 10.999219 
L 492.116875 10.999219 
" style="fill:none;stroke:#ffffff;stroke-linecap:square;stroke-width:0.8;"/>
     </g>
     <g id="line2d_28">
      <g>
       <use style="fill:#555555;stroke:#555555;stroke-width:0.8;" x="45.716875" xlink:href="#mea8abe7a1d" y="10.999219"/>
      </g>
     </g>
     <g id="text_15">
      <!-- 4.0 -->
      <g style="fill:#555555;" transform="translate(22.81375 14.798438)scale(0.1 -0.1)">
       <use xlink:href="#DejaVuSans-34"/>
       <use x="63.623047" xlink:href="#DejaVuSans-2e"/>
       <use x="95.410156" xlink:href="#DejaVuSans-30"/>
      </g>
     </g>
    </g>
    <g id="text_16">
     <!-- Error -->
     <g style="fill:#555555;" transform="translate(16.318125 132.985316)rotate(-90)scale(0.12 -0.12)">
      <use xlink:href="#DejaVuSans-45"/>
      <use x="63.183594" xlink:href="#DejaVuSans-72"/>
      <use x="102.546875" xlink:href="#DejaVuSans-72"/>
      <use x="141.410156" xlink:href="#DejaVuSans-6f"/>
      <use x="202.591797" xlink:href="#DejaVuSans-72"/>
     </g>
    </g>
   </g>
   <g id="line2d_29">
    <path clip-path="url(#p65e68f3917)" d="M 66.007784 19.548984 
L 70.106958 19.550035 
L 74.206131 19.550572 
L 78.305305 19.550962 
L 82.404478 19.551262 
L 86.503652 19.551509 
L 90.602825 19.551667 
L 94.701999 19.551807 
L 98.801173 19.551901 
L 102.900346 19.551978 
L 106.99952 19.552029 
L 111.098693 19.552064 
L 115.197867 19.552092 
L 119.29704 19.552107 
L 123.396214 19.552126 
L 127.495387 19.552136 
L 131.594561 19.552144 
L 135.693735 19.552147 
L 139.792908 19.552155 
L 143.892082 19.552157 
L 147.991255 19.552159 
L 152.090429 19.55216 
L 156.189602 19.552162 
L 160.288776 19.552162 
L 164.387949 19.552164 
L 168.487123 19.552165 
L 172.586296 19.552165 
L 176.68547 19.552165 
L 180.784644 19.552166 
L 184.883817 19.552166 
L 188.982991 19.552166 
L 193.082164 19.552167 
L 197.181338 19.552164 
L 201.280511 19.552166 
L 205.379685 19.552167 
L 209.478858 19.552167 
L 213.578032 19.552166 
L 217.677206 19.552167 
L 221.776379 19.552166 
L 225.875553 19.552167 
L 229.974726 19.552168 
L 234.0739 19.552168 
L 238.173073 19.552167 
L 242.272247 19.552167 
L 246.37142 19.552168 
L 250.470594 19.552166 
L 254.569768 19.552167 
L 258.668941 19.552167 
L 262.768115 19.552167 
L 266.867288 19.552168 
L 270.966462 19.552167 
L 275.065635 19.552167 
L 279.164809 19.552167 
L 283.263982 19.552168 
L 287.363156 19.552167 
L 291.46233 19.552167 
L 295.561503 19.552168 
L 299.660677 19.552166 
L 303.75985 19.552167 
L 307.859024 19.552167 
L 311.958197 19.552166 
L 316.057371 19.552167 
L 320.156544 19.552168 
L 324.255718 19.552167 
L 328.354892 19.552167 
L 332.454065 19.552168 
L 336.553239 19.552168 
L 340.652412 19.552168 
L 344.751586 19.552168 
L 348.850759 19.552167 
L 352.949933 19.552167 
L 357.049106 19.552168 
L 361.14828 19.552168 
L 365.247454 19.552168 
L 369.346627 19.552168 
L 373.445801 19.552167 
L 377.544974 19.552167 
L 381.644148 19.552167 
L 385.743321 19.552167 
L 389.842495 19.552166 
L 393.941668 19.552168 
L 398.040842 19.552168 
L 402.140015 19.552167 
L 406.239189 19.552166 
L 410.338363 19.552168 
L 414.437536 19.552168 
L 418.53671 19.552168 
L 422.635883 19.552168 
L 426.735057 19.552167 
L 430.83423 19.552167 
L 434.933404 19.552167 
L 439.032577 19.552167 
L 443.131751 19.552168 
L 447.230925 19.552167 
L 451.330098 19.552167 
L 455.429272 19.552168 
L 459.528445 19.552167 
L 463.627619 19.552168 
L 467.726792 19.552168 
L 471.825966 19.552168 
" style="fill:none;stroke:#ff0000;stroke-linecap:square;stroke-width:1.5;"/>
   </g>
   <g id="line2d_30">
    <path clip-path="url(#p65e68f3917)" d="M 66.007784 140.519628 
L 70.106958 150.113908 
L 74.206131 153.806452 
L 78.305305 156.389232 
L 82.404478 158.448446 
L 86.503652 160.296588 
L 90.602825 161.553526 
L 94.701999 163.085213 
L 98.801173 164.416869 
L 102.900346 165.565442 
L 106.99952 166.35194 
L 111.098693 167.093084 
L 115.197867 167.911779 
L 119.29704 168.948091 
L 123.396214 169.607987 
L 127.495387 170.132481 
L 131.594561 170.801813 
L 135.693735 171.451369 
L 139.792908 172.040843 
L 143.892082 172.745804 
L 147.991255 173.286642 
L 152.090429 173.699197 
L 156.189602 174.375858 
L 160.288776 174.758327 
L 164.387949 175.107547 
L 168.487123 175.744749 
L 172.586296 176.231794 
L 176.68547 176.583003 
L 180.784644 176.983392 
L 184.883817 177.337212 
L 188.982991 177.826822 
L 193.082164 178.28696 
L 197.181338 178.486403 
L 201.280511 178.99568 
L 205.379685 179.218453 
L 209.478858 179.589633 
L 213.578032 179.887011 
L 217.677206 180.203883 
L 221.776379 180.446295 
L 225.875553 180.81397 
L 229.974726 181.138498 
L 234.0739 181.361449 
L 238.173073 181.579001 
L 242.272247 181.901465 
L 246.37142 182.212749 
L 250.470594 182.257654 
L 254.569768 182.478934 
L 258.668941 182.625295 
L 262.768115 182.927935 
L 266.867288 182.784433 
L 270.966462 183.212345 
L 275.065635 183.430414 
L 279.164809 183.624808 
L 283.263982 183.779544 
L 287.363156 183.79823 
L 291.46233 184.112374 
L 295.561503 184.135368 
L 299.660677 184.385823 
L 303.75985 184.494693 
L 307.859024 184.56365 
L 311.958197 184.810993 
L 316.057371 184.971714 
L 320.156544 185.054481 
L 324.255718 185.169827 
L 328.354892 185.34316 
L 332.454065 185.470919 
L 336.553239 185.577773 
L 340.652412 185.63752 
L 344.751586 185.796679 
L 348.850759 186.106931 
L 352.949933 186.095485 
L 357.049106 186.177052 
L 361.14828 186.39714 
L 365.247454 186.469635 
L 369.346627 186.614953 
L 373.445801 186.719829 
L 377.544974 186.7766 
L 381.644148 186.803749 
L 385.743321 187.074699 
L 389.842495 187.019054 
L 393.941668 187.010037 
L 398.040842 187.170976 
L 402.140015 187.312347 
L 406.239189 187.469364 
L 410.338363 187.498385 
L 414.437536 187.407378 
L 418.53671 187.698654 
L 422.635883 187.607946 
L 426.735057 187.8152 
L 430.83423 187.941093 
L 434.933404 187.947348 
L 439.032577 187.998163 
L 443.131751 188.192943 
L 447.230925 188.049561 
L 451.330098 188.175805 
L 455.429272 188.281409 
L 459.528445 188.384534 
L 463.627619 188.464852 
L 467.726792 188.489543 
L 471.825966 188.516221 
" style="fill:none;stroke:#0000ff;stroke-linecap:square;stroke-width:1.5;"/>
   </g>
   <g id="line2d_31">
    <path clip-path="url(#p65e68f3917)" d="M 66.007784 160.927408 
L 70.106958 174.425573 
L 74.206131 181.986589 
L 78.305305 186.640523 
L 82.404478 190.046296 
L 86.503652 192.871965 
L 90.602825 195.221494 
L 94.701999 197.33641 
L 98.801173 198.565343 
L 102.900346 200.145817 
L 106.99952 201.080539 
L 111.098693 202.234955 
L 115.197867 203.212988 
L 119.29704 203.762484 
L 123.396214 204.619412 
L 127.495387 205.238048 
L 131.594561 205.665576 
L 135.693735 206.456279 
L 139.792908 206.45563 
L 143.892082 207.212759 
L 147.991255 207.526257 
L 152.090429 207.882794 
L 156.189602 208.334803 
L 160.288776 208.909467 
L 164.387949 208.944871 
L 168.487123 209.358873 
L 172.586296 209.631032 
L 176.68547 209.851169 
L 180.784644 210.350496 
L 184.883817 210.176096 
L 188.982991 210.684847 
L 193.082164 211.07549 
L 197.181338 211.289987 
L 201.280511 211.401418 
L 205.379685 211.644529 
L 209.478858 211.779923 
L 213.578032 211.895009 
L 217.677206 212.079121 
L 221.776379 212.330836 
L 225.875553 212.58367 
L 229.974726 212.842338 
L 234.0739 212.592442 
L 238.173073 212.775375 
L 242.272247 213.046753 
L 246.37142 213.442279 
L 250.470594 213.467009 
L 254.569768 213.415491 
L 258.668941 213.553374 
L 262.768115 213.766541 
L 266.867288 213.675531 
L 270.966462 214.063552 
L 275.065635 214.188006 
L 279.164809 214.263437 
L 283.263982 214.309703 
L 287.363156 214.197856 
L 291.46233 214.504262 
L 295.561503 214.358574 
L 299.660677 214.56275 
L 303.75985 214.851232 
L 307.859024 214.72509 
L 311.958197 214.809522 
L 316.057371 215.038785 
L 320.156544 215.208754 
L 324.255718 215.253057 
L 328.354892 215.335532 
L 332.454065 215.42797 
L 336.553239 215.216033 
L 340.652412 215.281251 
L 344.751586 215.545629 
L 348.850759 215.549474 
L 352.949933 215.785687 
L 357.049106 215.824546 
L 361.14828 215.736611 
L 365.247454 216.002736 
L 369.346627 216.008763 
L 373.445801 215.99571 
L 377.544974 216.225546 
L 381.644148 216.358382 
L 385.743321 216.232535 
L 389.842495 216.089254 
L 393.941668 216.292185 
L 398.040842 216.099751 
L 402.140015 216.654099 
L 406.239189 216.597922 
L 410.338363 216.706159 
L 414.437536 216.505418 
L 418.53671 216.739912 
L 422.635883 216.64704 
L 426.735057 216.787742 
L 430.83423 216.932159 
L 434.933404 216.950011 
L 439.032577 216.768933 
L 443.131751 216.811661 
L 447.230925 216.992638 
L 451.330098 216.99359 
L 455.429272 217.140849 
L 459.528445 217.199492 
L 463.627619 216.97297 
L 467.726792 217.169112 
L 471.825966 217.170203 
" style="fill:none;stroke:#800080;stroke-linecap:square;stroke-width:1.5;"/>
   </g>
   <g id="line2d_32">
    <path clip-path="url(#p65e68f3917)" d="M 66.007784 19.547313 
L 70.106958 19.544722 
L 74.206131 19.542567 
L 78.305305 19.54077 
L 82.404478 19.539185 
L 86.503652 19.537716 
L 90.602825 19.536547 
L 94.701999 19.535186 
L 98.801173 19.533949 
L 102.900346 19.532923 
L 106.99952 19.532017 
L 111.098693 19.531568 
L 115.197867 19.53096 
L 119.29704 19.530307 
L 123.396214 19.530066 
L 127.495387 19.529575 
L 131.594561 19.529416 
L 135.693735 19.529141 
L 139.792908 19.528849 
L 143.892082 19.528852 
L 147.991255 19.528698 
L 152.090429 19.528275 
L 156.189602 19.528204 
L 160.288776 19.528406 
L 164.387949 19.528064 
L 168.487123 19.527983 
L 172.586296 19.527898 
L 176.68547 19.527845 
L 180.784644 19.52772 
L 184.883817 19.527603 
L 188.982991 19.527598 
L 193.082164 19.527565 
L 197.181338 19.527534 
L 201.280511 19.527333 
L 205.379685 19.527353 
L 209.478858 19.52743 
L 213.578032 19.527433 
L 217.677206 19.527435 
L 221.776379 19.52717 
L 225.875553 19.527232 
L 229.974726 19.527276 
L 234.0739 19.527179 
L 238.173073 19.526815 
L 242.272247 19.527054 
L 246.37142 19.526998 
L 250.470594 19.527137 
L 254.569768 19.527067 
L 258.668941 19.527113 
L 262.768115 19.527192 
L 266.867288 19.527039 
L 270.966462 19.527265 
L 275.065635 19.527178 
L 279.164809 19.527109 
L 283.263982 19.527179 
L 287.363156 19.526844 
L 291.46233 19.527038 
L 295.561503 19.526948 
L 299.660677 19.526772 
L 303.75985 19.527023 
L 307.859024 19.526974 
L 311.958197 19.526765 
L 316.057371 19.52688 
L 320.156544 19.527043 
L 324.255718 19.527053 
L 328.354892 19.527137 
L 332.454065 19.527135 
L 336.553239 19.52719 
L 340.652412 19.527335 
L 344.751586 19.527269 
L 348.850759 19.527334 
L 352.949933 19.52742 
L 357.049106 19.527257 
L 361.14828 19.526948 
L 365.247454 19.52713 
L 369.346627 19.527184 
L 373.445801 19.527065 
L 377.544974 19.527037 
L 381.644148 19.527014 
L 385.743321 19.526965 
L 389.842495 19.527006 
L 393.941668 19.527027 
L 398.040842 19.527021 
L 402.140015 19.527273 
L 406.239189 19.527105 
L 410.338363 19.527333 
L 414.437536 19.527204 
L 418.53671 19.527201 
L 422.635883 19.527142 
L 426.735057 19.52701 
L 430.83423 19.527004 
L 434.933404 19.527056 
L 439.032577 19.527106 
L 443.131751 19.52696 
L 447.230925 19.527058 
L 451.330098 19.527003 
L 455.429272 19.527141 
L 459.528445 19.526989 
L 463.627619 19.527133 
L 467.726792 19.527048 
L 471.825966 19.527052 
" style="fill:none;stroke:#808080;stroke-dasharray:5.55,2.4;stroke-dashoffset:0;stroke-width:1.5;"/>
   </g>
   <g id="line2d_33">
    <path clip-path="url(#p65e68f3917)" d="M 66.007784 140.602818 
L 70.106958 150.011348 
L 74.206131 153.559695 
L 78.305305 156.128186 
L 82.404478 158.125892 
L 86.503652 159.894802 
L 90.602825 161.082837 
L 94.701999 162.573955 
L 98.801173 163.916094 
L 102.900346 164.971432 
L 106.99952 165.808327 
L 111.098693 166.503861 
L 115.197867 167.31169 
L 119.29704 168.375431 
L 123.396214 168.837086 
L 127.495387 169.475076 
L 131.594561 170.129581 
L 135.693735 170.675065 
L 139.792908 171.237865 
L 143.892082 172.024201 
L 147.991255 172.509545 
L 152.090429 172.995346 
L 156.189602 173.598611 
L 160.288776 174.077861 
L 164.387949 174.42151 
L 168.487123 175.011258 
L 172.586296 175.507327 
L 176.68547 175.894783 
L 180.784644 176.250974 
L 184.883817 176.571145 
L 188.982991 177.109617 
L 193.082164 177.655065 
L 197.181338 177.809291 
L 201.280511 178.316814 
L 205.379685 178.568276 
L 209.478858 178.972616 
L 213.578032 179.218897 
L 217.677206 179.554436 
L 221.776379 179.917949 
L 225.875553 180.212254 
L 229.974726 180.655518 
L 234.0739 180.808978 
L 238.173073 181.04741 
L 242.272247 181.382473 
L 246.37142 181.711034 
L 250.470594 181.800029 
L 254.569768 182.072336 
L 258.668941 182.134481 
L 262.768115 182.466158 
L 266.867288 182.273606 
L 270.966462 182.774294 
L 275.065635 182.90959 
L 279.164809 183.199284 
L 283.263982 183.362247 
L 287.363156 183.333765 
L 291.46233 183.613013 
L 295.561503 183.638992 
L 299.660677 183.878209 
L 303.75985 184.051538 
L 307.859024 184.098339 
L 311.958197 184.294816 
L 316.057371 184.468469 
L 320.156544 184.51457 
L 324.255718 184.63487 
L 328.354892 184.897916 
L 332.454065 185.019997 
L 336.553239 185.113276 
L 340.652412 185.105729 
L 344.751586 185.345364 
L 348.850759 185.61922 
L 352.949933 185.655866 
L 357.049106 185.75765 
L 361.14828 185.950186 
L 365.247454 185.966638 
L 369.346627 186.13657 
L 373.445801 186.250387 
L 377.544974 186.241623 
L 381.644148 186.291961 
L 385.743321 186.63646 
L 389.842495 186.527083 
L 393.941668 186.593704 
L 398.040842 186.679644 
L 402.140015 186.917039 
L 406.239189 187.026628 
L 410.338363 187.038654 
L 414.437536 186.945671 
L 418.53671 187.211434 
L 422.635883 187.129963 
L 426.735057 187.36557 
L 430.83423 187.486423 
L 434.933404 187.496438 
L 439.032577 187.490013 
L 443.131751 187.713486 
L 447.230925 187.593124 
L 451.330098 187.746045 
L 455.429272 187.85996 
L 459.528445 187.897163 
L 463.627619 188.051626 
L 467.726792 188.021052 
L 471.825966 188.05565 
" style="fill:none;stroke:#ffff00;stroke-dasharray:5.55,2.4;stroke-dashoffset:0;stroke-width:1.5;"/>
   </g>
   <g id="line2d_34">
    <path clip-path="url(#p65e68f3917)" d="M 66.007784 160.985246 
L 70.106958 174.090633 
L 74.206131 181.700759 
L 78.305305 185.963466 
L 82.404478 189.31925 
L 86.503652 192.057755 
L 90.602825 194.245694 
L 94.701999 196.200091 
L 98.801173 197.353022 
L 102.900346 198.797575 
L 106.99952 199.765745 
L 111.098693 200.854142 
L 115.197867 201.693571 
L 119.29704 202.230922 
L 123.396214 202.982997 
L 127.495387 203.564694 
L 131.594561 203.807399 
L 135.693735 204.668391 
L 139.792908 204.483706 
L 143.892082 205.322219 
L 147.991255 205.469609 
L 152.090429 205.895216 
L 156.189602 206.184349 
L 160.288776 206.767662 
L 164.387949 206.667636 
L 168.487123 207.003637 
L 172.586296 207.203639 
L 176.68547 207.468803 
L 180.784644 207.89555 
L 184.883817 207.578737 
L 188.982991 208.1674 
L 193.082164 208.411867 
L 197.181338 208.777561 
L 201.280511 208.798483 
L 205.379685 208.902743 
L 209.478858 209.097803 
L 213.578032 209.040639 
L 217.677206 209.11752 
L 221.776379 209.526411 
L 225.875553 209.595729 
L 229.974726 209.935416 
L 234.0739 209.696553 
L 238.173073 209.712617 
L 242.272247 210.025877 
L 246.37142 210.287712 
L 250.470594 210.428929 
L 254.569768 210.204251 
L 258.668941 210.341993 
L 262.768115 210.593707 
L 266.867288 210.351348 
L 270.966462 210.769404 
L 275.065635 210.981443 
L 279.164809 211.004928 
L 283.263982 210.89098 
L 287.363156 210.767919 
L 291.46233 211.134946 
L 295.561503 210.905932 
L 299.660677 211.120095 
L 303.75985 211.399987 
L 307.859024 211.267788 
L 311.958197 211.121337 
L 316.057371 211.580659 
L 320.156544 211.699565 
L 324.255718 211.656887 
L 328.354892 211.69593 
L 332.454065 211.792329 
L 336.553239 211.552845 
L 340.652412 211.465755 
L 344.751586 211.676536 
L 348.850759 211.762794 
L 352.949933 211.940024 
L 357.049106 212.044711 
L 361.14828 211.843917 
L 365.247454 212.216875 
L 369.346627 212.095453 
L 373.445801 212.086936 
L 377.544974 212.293476 
L 381.644148 212.448898 
L 385.743321 212.12334 
L 389.842495 212.076344 
L 393.941668 212.250721 
L 398.040842 212.130419 
L 402.140015 212.515254 
L 406.239189 212.49941 
L 410.338363 212.486014 
L 414.437536 212.355545 
L 418.53671 212.587363 
L 422.635883 212.408501 
L 426.735057 212.531775 
L 430.83423 212.597277 
L 434.933404 212.71861 
L 439.032577 212.437881 
L 443.131751 212.452478 
L 447.230925 212.568245 
L 451.330098 212.602369 
L 455.429272 212.793088 
L 459.528445 212.754927 
L 463.627619 212.549828 
L 467.726792 212.754277 
L 471.825966 212.734512 
" style="fill:none;stroke:#008000;stroke-dasharray:5.55,2.4;stroke-dashoffset:0;stroke-width:1.5;"/>
   </g>
   <g id="patch_3">
    <path d="M 45.716875 227.083128 
L 45.716875 9.643128 
" style="fill:none;stroke:#ffffff;stroke-linecap:square;stroke-linejoin:miter;"/>
   </g>
   <g id="patch_4">
    <path d="M 492.116875 227.083128 
L 492.116875 9.643128 
" style="fill:none;stroke:#ffffff;stroke-linecap:square;stroke-linejoin:miter;"/>
   </g>
   <g id="patch_5">
    <path d="M 45.716875 227.083128 
L 492.116875 227.083128 
" style="fill:none;stroke:#ffffff;stroke-linecap:square;stroke-linejoin:miter;"/>
   </g>
   <g id="patch_6">
    <path d="M 45.716875 9.643128 
L 492.116875 9.643128 
" style="fill:none;stroke:#ffffff;stroke-linecap:square;stroke-linejoin:miter;"/>
   </g>
   <g id="legend_1">
    <g id="patch_7">
     <path d="M 499.116875 105.711878 
L 600.47 105.711878 
Q 602.47 105.711878 602.47 103.711878 
L 602.47 16.643128 
Q 602.47 14.643128 600.47 14.643128 
L 499.116875 14.643128 
Q 497.116875 14.643128 497.116875 16.643128 
L 497.116875 103.711878 
Q 497.116875 105.711878 499.116875 105.711878 
z
" style="fill:#e5e5e5;opacity:0.8;stroke:#cccccc;stroke-linejoin:miter;stroke-width:0.5;"/>
    </g>
    <g id="line2d_35">
     <path d="M 501.116875 22.741566 
L 521.116875 22.741566 
" style="fill:none;stroke:#ff0000;stroke-linecap:square;stroke-width:1.5;"/>
    </g>
    <g id="line2d_36"/>
    <g id="text_17">
     <!-- L1 1e-1(train) -->
     <g transform="translate(529.116875 26.241566)scale(0.1 -0.1)">
      <defs>
       <path d="M 628 4666 
L 1259 4666 
L 1259 531 
L 3531 531 
L 3531 0 
L 628 0 
L 628 4666 
z
" id="DejaVuSans-4c" transform="scale(0.015625)"/>
       <path d="M 313 2009 
L 1997 2009 
L 1997 1497 
L 313 1497 
L 313 2009 
z
" id="DejaVuSans-2d" transform="scale(0.015625)"/>
       <path d="M 1984 4856 
Q 1566 4138 1362 3434 
Q 1159 2731 1159 2009 
Q 1159 1288 1364 580 
Q 1569 -128 1984 -844 
L 1484 -844 
Q 1016 -109 783 600 
Q 550 1309 550 2009 
Q 550 2706 781 3412 
Q 1013 4119 1484 4856 
L 1984 4856 
z
" id="DejaVuSans-28" transform="scale(0.015625)"/>
       <path d="M 1172 4494 
L 1172 3500 
L 2356 3500 
L 2356 3053 
L 1172 3053 
L 1172 1153 
Q 1172 725 1289 603 
Q 1406 481 1766 481 
L 2356 481 
L 2356 0 
L 1766 0 
Q 1100 0 847 248 
Q 594 497 594 1153 
L 594 3053 
L 172 3053 
L 172 3500 
L 594 3500 
L 594 4494 
L 1172 4494 
z
" id="DejaVuSans-74" transform="scale(0.015625)"/>
       <path d="M 2194 1759 
Q 1497 1759 1228 1600 
Q 959 1441 959 1056 
Q 959 750 1161 570 
Q 1363 391 1709 391 
Q 2188 391 2477 730 
Q 2766 1069 2766 1631 
L 2766 1759 
L 2194 1759 
z
M 3341 1997 
L 3341 0 
L 2766 0 
L 2766 531 
Q 2569 213 2275 61 
Q 1981 -91 1556 -91 
Q 1019 -91 701 211 
Q 384 513 384 1019 
Q 384 1609 779 1909 
Q 1175 2209 1959 2209 
L 2766 2209 
L 2766 2266 
Q 2766 2663 2505 2880 
Q 2244 3097 1772 3097 
Q 1472 3097 1187 3025 
Q 903 2953 641 2809 
L 641 3341 
Q 956 3463 1253 3523 
Q 1550 3584 1831 3584 
Q 2591 3584 2966 3190 
Q 3341 2797 3341 1997 
z
" id="DejaVuSans-61" transform="scale(0.015625)"/>
       <path d="M 603 3500 
L 1178 3500 
L 1178 0 
L 603 0 
L 603 3500 
z
M 603 4863 
L 1178 4863 
L 1178 4134 
L 603 4134 
L 603 4863 
z
" id="DejaVuSans-69" transform="scale(0.015625)"/>
       <path d="M 513 4856 
L 1013 4856 
Q 1481 4119 1714 3412 
Q 1947 2706 1947 2009 
Q 1947 1309 1714 600 
Q 1481 -109 1013 -844 
L 513 -844 
Q 928 -128 1133 580 
Q 1338 1288 1338 2009 
Q 1338 2731 1133 3434 
Q 928 4138 513 4856 
z
" id="DejaVuSans-29" transform="scale(0.015625)"/>
      </defs>
      <use xlink:href="#DejaVuSans-4c"/>
      <use x="55.712891" xlink:href="#DejaVuSans-31"/>
      <use x="119.335938" xlink:href="#DejaVuSans-20"/>
      <use x="151.123047" xlink:href="#DejaVuSans-31"/>
      <use x="214.746094" xlink:href="#DejaVuSans-65"/>
      <use x="276.269531" xlink:href="#DejaVuSans-2d"/>
      <use x="312.353516" xlink:href="#DejaVuSans-31"/>
      <use x="375.976562" xlink:href="#DejaVuSans-28"/>
      <use x="414.990234" xlink:href="#DejaVuSans-74"/>
      <use x="454.199219" xlink:href="#DejaVuSans-72"/>
      <use x="495.3125" xlink:href="#DejaVuSans-61"/>
      <use x="556.591797" xlink:href="#DejaVuSans-69"/>
      <use x="584.375" xlink:href="#DejaVuSans-6e"/>
      <use x="647.753906" xlink:href="#DejaVuSans-29"/>
     </g>
    </g>
    <g id="line2d_37">
     <path d="M 501.116875 37.419691 
L 521.116875 37.419691 
" style="fill:none;stroke:#0000ff;stroke-linecap:square;stroke-width:1.5;"/>
    </g>
    <g id="line2d_38"/>
    <g id="text_18">
     <!-- L1 1e-3(train) -->
     <g transform="translate(529.116875 40.919691)scale(0.1 -0.1)">
      <use xlink:href="#DejaVuSans-4c"/>
      <use x="55.712891" xlink:href="#DejaVuSans-31"/>
      <use x="119.335938" xlink:href="#DejaVuSans-20"/>
      <use x="151.123047" xlink:href="#DejaVuSans-31"/>
      <use x="214.746094" xlink:href="#DejaVuSans-65"/>
      <use x="276.269531" xlink:href="#DejaVuSans-2d"/>
      <use x="312.353516" xlink:href="#DejaVuSans-33"/>
      <use x="375.976562" xlink:href="#DejaVuSans-28"/>
      <use x="414.990234" xlink:href="#DejaVuSans-74"/>
      <use x="454.199219" xlink:href="#DejaVuSans-72"/>
      <use x="495.3125" xlink:href="#DejaVuSans-61"/>
      <use x="556.591797" xlink:href="#DejaVuSans-69"/>
      <use x="584.375" xlink:href="#DejaVuSans-6e"/>
      <use x="647.753906" xlink:href="#DejaVuSans-29"/>
     </g>
    </g>
    <g id="line2d_39">
     <path d="M 501.116875 52.097816 
L 521.116875 52.097816 
" style="fill:none;stroke:#800080;stroke-linecap:square;stroke-width:1.5;"/>
    </g>
    <g id="line2d_40"/>
    <g id="text_19">
     <!-- L1 1e-4(train) -->
     <g transform="translate(529.116875 55.597816)scale(0.1 -0.1)">
      <use xlink:href="#DejaVuSans-4c"/>
      <use x="55.712891" xlink:href="#DejaVuSans-31"/>
      <use x="119.335938" xlink:href="#DejaVuSans-20"/>
      <use x="151.123047" xlink:href="#DejaVuSans-31"/>
      <use x="214.746094" xlink:href="#DejaVuSans-65"/>
      <use x="276.269531" xlink:href="#DejaVuSans-2d"/>
      <use x="312.353516" xlink:href="#DejaVuSans-34"/>
      <use x="375.976562" xlink:href="#DejaVuSans-28"/>
      <use x="414.990234" xlink:href="#DejaVuSans-74"/>
      <use x="454.199219" xlink:href="#DejaVuSans-72"/>
      <use x="495.3125" xlink:href="#DejaVuSans-61"/>
      <use x="556.591797" xlink:href="#DejaVuSans-69"/>
      <use x="584.375" xlink:href="#DejaVuSans-6e"/>
      <use x="647.753906" xlink:href="#DejaVuSans-29"/>
     </g>
    </g>
    <g id="line2d_41">
     <path d="M 501.116875 66.775941 
L 521.116875 66.775941 
" style="fill:none;stroke:#808080;stroke-dasharray:5.55,2.4;stroke-dashoffset:0;stroke-width:1.5;"/>
    </g>
    <g id="line2d_42"/>
    <g id="text_20">
     <!-- L1 1e-1(valid) -->
     <g transform="translate(529.116875 70.275941)scale(0.1 -0.1)">
      <defs>
       <path d="M 191 3500 
L 800 3500 
L 1894 563 
L 2988 3500 
L 3597 3500 
L 2284 0 
L 1503 0 
L 191 3500 
z
" id="DejaVuSans-76" transform="scale(0.015625)"/>
       <path d="M 603 4863 
L 1178 4863 
L 1178 0 
L 603 0 
L 603 4863 
z
" id="DejaVuSans-6c" transform="scale(0.015625)"/>
       <path d="M 2906 2969 
L 2906 4863 
L 3481 4863 
L 3481 0 
L 2906 0 
L 2906 525 
Q 2725 213 2448 61 
Q 2172 -91 1784 -91 
Q 1150 -91 751 415 
Q 353 922 353 1747 
Q 353 2572 751 3078 
Q 1150 3584 1784 3584 
Q 2172 3584 2448 3432 
Q 2725 3281 2906 2969 
z
M 947 1747 
Q 947 1113 1208 752 
Q 1469 391 1925 391 
Q 2381 391 2643 752 
Q 2906 1113 2906 1747 
Q 2906 2381 2643 2742 
Q 2381 3103 1925 3103 
Q 1469 3103 1208 2742 
Q 947 2381 947 1747 
z
" id="DejaVuSans-64" transform="scale(0.015625)"/>
      </defs>
      <use xlink:href="#DejaVuSans-4c"/>
      <use x="55.712891" xlink:href="#DejaVuSans-31"/>
      <use x="119.335938" xlink:href="#DejaVuSans-20"/>
      <use x="151.123047" xlink:href="#DejaVuSans-31"/>
      <use x="214.746094" xlink:href="#DejaVuSans-65"/>
      <use x="276.269531" xlink:href="#DejaVuSans-2d"/>
      <use x="312.353516" xlink:href="#DejaVuSans-31"/>
      <use x="375.976562" xlink:href="#DejaVuSans-28"/>
      <use x="414.990234" xlink:href="#DejaVuSans-76"/>
      <use x="474.169922" xlink:href="#DejaVuSans-61"/>
      <use x="535.449219" xlink:href="#DejaVuSans-6c"/>
      <use x="563.232422" xlink:href="#DejaVuSans-69"/>
      <use x="591.015625" xlink:href="#DejaVuSans-64"/>
      <use x="654.492188" xlink:href="#DejaVuSans-29"/>
     </g>
    </g>
    <g id="line2d_43">
     <path d="M 501.116875 81.454066 
L 521.116875 81.454066 
" style="fill:none;stroke:#ffff00;stroke-dasharray:5.55,2.4;stroke-dashoffset:0;stroke-width:1.5;"/>
    </g>
    <g id="line2d_44"/>
    <g id="text_21">
     <!-- L1 1e-3(valid) -->
     <g transform="translate(529.116875 84.954066)scale(0.1 -0.1)">
      <use xlink:href="#DejaVuSans-4c"/>
      <use x="55.712891" xlink:href="#DejaVuSans-31"/>
      <use x="119.335938" xlink:href="#DejaVuSans-20"/>
      <use x="151.123047" xlink:href="#DejaVuSans-31"/>
      <use x="214.746094" xlink:href="#DejaVuSans-65"/>
      <use x="276.269531" xlink:href="#DejaVuSans-2d"/>
      <use x="312.353516" xlink:href="#DejaVuSans-33"/>
      <use x="375.976562" xlink:href="#DejaVuSans-28"/>
      <use x="414.990234" xlink:href="#DejaVuSans-76"/>
      <use x="474.169922" xlink:href="#DejaVuSans-61"/>
      <use x="535.449219" xlink:href="#DejaVuSans-6c"/>
      <use x="563.232422" xlink:href="#DejaVuSans-69"/>
      <use x="591.015625" xlink:href="#DejaVuSans-64"/>
      <use x="654.492188" xlink:href="#DejaVuSans-29"/>
     </g>
    </g>
    <g id="line2d_45">
     <path d="M 501.116875 96.132191 
L 521.116875 96.132191 
" style="fill:none;stroke:#008000;stroke-dasharray:5.55,2.4;stroke-dashoffset:0;stroke-width:1.5;"/>
    </g>
    <g id="line2d_46"/>
    <g id="text_22">
     <!-- L1 1e-4(valid) -->
     <g transform="translate(529.116875 99.632191)scale(0.1 -0.1)">
      <use xlink:href="#DejaVuSans-4c"/>
      <use x="55.712891" xlink:href="#DejaVuSans-31"/>
      <use x="119.335938" xlink:href="#DejaVuSans-20"/>
      <use x="151.123047" xlink:href="#DejaVuSans-31"/>
      <use x="214.746094" xlink:href="#DejaVuSans-65"/>
      <use x="276.269531" xlink:href="#DejaVuSans-2d"/>
      <use x="312.353516" xlink:href="#DejaVuSans-34"/>
      <use x="375.976562" xlink:href="#DejaVuSans-28"/>
      <use x="414.990234" xlink:href="#DejaVuSans-76"/>
      <use x="474.169922" xlink:href="#DejaVuSans-61"/>
      <use x="535.449219" xlink:href="#DejaVuSans-6c"/>
      <use x="563.232422" xlink:href="#DejaVuSans-69"/>
      <use x="591.015625" xlink:href="#DejaVuSans-64"/>
      <use x="654.492188" xlink:href="#DejaVuSans-29"/>
     </g>
    </g>
   </g>
  </g>
 </g>
 <defs>
  <clipPath id="p65e68f3917">
   <rect height="217.44" width="446.4" x="45.716875" y="9.643128"/>
  </clipPath>
 </defs>
</svg>
