<?xml version="1.0" encoding="utf-8" standalone="no"?>
<!DOCTYPE svg PUBLIC "-//W3C//DTD SVG 1.1//EN"
  "http://www.w3.org/Graphics/SVG/1.1/DTD/svg11.dtd">
<svg height="264.131875pt" version="1.1" viewBox="0 0 609.67 264.131875" width="609.67pt" xmlns="http://www.w3.org/2000/svg" xmlns:xlink="http://www.w3.org/1999/xlink">
 <metadata>
  <rdf:RDF xmlns:cc="http://creativecommons.org/ns#" xmlns:dc="http://purl.org/dc/elements/1.1/" xmlns:rdf="http://www.w3.org/1999/02/22-rdf-syntax-ns#">
   <cc:Work>
    <dc:type rdf:resource="http://purl.org/dc/dcmitype/StillImage"/>
    <dc:date>2021-11-04T14:43:27.668009</dc:date>
    <dc:format>image/svg+xml</dc:format>
    <dc:creator>
     <cc:Agent>
      <dc:title>Matplotlib v3.4.2, https://matplotlib.org/</dc:title>
     </cc:Agent>
    </dc:creator>
   </cc:Work>
  </rdf:RDF>
 </metadata>
 <defs>
  <style type="text/css">*{stroke-linecap:butt;stroke-linejoin:round;}</style>
 </defs>
 <g id="figure_1">
  <g id="patch_1">
   <path d="M 0 264.131875 
L 609.67 264.131875 
L 609.67 0 
L 0 0 
z
" style="fill:#ffffff;"/>
  </g>
  <g id="axes_1">
   <g id="patch_2">
    <path d="M 45.716875 224.64 
L 492.116875 224.64 
L 492.116875 7.2 
L 45.716875 7.2 
z
" style="fill:#e5e5e5;"/>
   </g>
   <g id="matplotlib.axis_1">
    <g id="xtick_1">
     <g id="line2d_1">
      <path clip-path="url(#pbf5d4f4392)" d="M 61.908611 224.64 
L 61.908611 7.2 
" style="fill:none;stroke:#ffffff;stroke-linecap:square;stroke-width:0.8;"/>
     </g>
     <g id="line2d_2">
      <defs>
       <path d="M 0 0 
L 0 3.5 
" id="mb54b81a0ea" style="stroke:#555555;stroke-width:0.8;"/>
      </defs>
      <g>
       <use style="fill:#555555;stroke:#555555;stroke-width:0.8;" x="61.908611" xlink:href="#mb54b81a0ea" y="224.64"/>
      </g>
     </g>
     <g id="text_1">
      <!-- 0 -->
      <g style="fill:#555555;" transform="translate(58.727361 239.238437)scale(0.1 -0.1)">
       <defs>
        <path d="M 2034 4250 
Q 1547 4250 1301 3770 
Q 1056 3291 1056 2328 
Q 1056 1369 1301 889 
Q 1547 409 2034 409 
Q 2525 409 2770 889 
Q 3016 1369 3016 2328 
Q 3016 3291 2770 3770 
Q 2525 4250 2034 4250 
z
M 2034 4750 
Q 2819 4750 3233 4129 
Q 3647 3509 3647 2328 
Q 3647 1150 3233 529 
Q 2819 -91 2034 -91 
Q 1250 -91 836 529 
Q 422 1150 422 2328 
Q 422 3509 836 4129 
Q 1250 4750 2034 4750 
z
" id="DejaVuSans-30" transform="scale(0.015625)"/>
       </defs>
       <use xlink:href="#DejaVuSans-30"/>
      </g>
     </g>
    </g>
    <g id="xtick_2">
     <g id="line2d_3">
      <path clip-path="url(#pbf5d4f4392)" d="M 143.892082 224.64 
L 143.892082 7.2 
" style="fill:none;stroke:#ffffff;stroke-linecap:square;stroke-width:0.8;"/>
     </g>
     <g id="line2d_4">
      <g>
       <use style="fill:#555555;stroke:#555555;stroke-width:0.8;" x="143.892082" xlink:href="#mb54b81a0ea" y="224.64"/>
      </g>
     </g>
     <g id="text_2">
      <!-- 20 -->
      <g style="fill:#555555;" transform="translate(137.529582 239.238437)scale(0.1 -0.1)">
       <defs>
        <path d="M 1228 531 
L 3431 531 
L 3431 0 
L 469 0 
L 469 531 
Q 828 903 1448 1529 
Q 2069 2156 2228 2338 
Q 2531 2678 2651 2914 
Q 2772 3150 2772 3378 
Q 2772 3750 2511 3984 
Q 2250 4219 1831 4219 
Q 1534 4219 1204 4116 
Q 875 4013 500 3803 
L 500 4441 
Q 881 4594 1212 4672 
Q 1544 4750 1819 4750 
Q 2544 4750 2975 4387 
Q 3406 4025 3406 3419 
Q 3406 3131 3298 2873 
Q 3191 2616 2906 2266 
Q 2828 2175 2409 1742 
Q 1991 1309 1228 531 
z
" id="DejaVuSans-32" transform="scale(0.015625)"/>
       </defs>
       <use xlink:href="#DejaVuSans-32"/>
       <use x="63.623047" xlink:href="#DejaVuSans-30"/>
      </g>
     </g>
    </g>
    <g id="xtick_3">
     <g id="line2d_5">
      <path clip-path="url(#pbf5d4f4392)" d="M 225.875553 224.64 
L 225.875553 7.2 
" style="fill:none;stroke:#ffffff;stroke-linecap:square;stroke-width:0.8;"/>
     </g>
     <g id="line2d_6">
      <g>
       <use style="fill:#555555;stroke:#555555;stroke-width:0.8;" x="225.875553" xlink:href="#mb54b81a0ea" y="224.64"/>
      </g>
     </g>
     <g id="text_3">
      <!-- 40 -->
      <g style="fill:#555555;" transform="translate(219.513053 239.238437)scale(0.1 -0.1)">
       <defs>
        <path d="M 2419 4116 
L 825 1625 
L 2419 1625 
L 2419 4116 
z
M 2253 4666 
L 3047 4666 
L 3047 1625 
L 3713 1625 
L 3713 1100 
L 3047 1100 
L 3047 0 
L 2419 0 
L 2419 1100 
L 313 1100 
L 313 1709 
L 2253 4666 
z
" id="DejaVuSans-34" transform="scale(0.015625)"/>
       </defs>
       <use xlink:href="#DejaVuSans-34"/>
       <use x="63.623047" xlink:href="#DejaVuSans-30"/>
      </g>
     </g>
    </g>
    <g id="xtick_4">
     <g id="line2d_7">
      <path clip-path="url(#pbf5d4f4392)" d="M 307.859024 224.64 
L 307.859024 7.2 
" style="fill:none;stroke:#ffffff;stroke-linecap:square;stroke-width:0.8;"/>
     </g>
     <g id="line2d_8">
      <g>
       <use style="fill:#555555;stroke:#555555;stroke-width:0.8;" x="307.859024" xlink:href="#mb54b81a0ea" y="224.64"/>
      </g>
     </g>
     <g id="text_4">
      <!-- 60 -->
      <g style="fill:#555555;" transform="translate(301.496524 239.238437)scale(0.1 -0.1)">
       <defs>
        <path d="M 2113 2584 
Q 1688 2584 1439 2293 
Q 1191 2003 1191 1497 
Q 1191 994 1439 701 
Q 1688 409 2113 409 
Q 2538 409 2786 701 
Q 3034 994 3034 1497 
Q 3034 2003 2786 2293 
Q 2538 2584 2113 2584 
z
M 3366 4563 
L 3366 3988 
Q 3128 4100 2886 4159 
Q 2644 4219 2406 4219 
Q 1781 4219 1451 3797 
Q 1122 3375 1075 2522 
Q 1259 2794 1537 2939 
Q 1816 3084 2150 3084 
Q 2853 3084 3261 2657 
Q 3669 2231 3669 1497 
Q 3669 778 3244 343 
Q 2819 -91 2113 -91 
Q 1303 -91 875 529 
Q 447 1150 447 2328 
Q 447 3434 972 4092 
Q 1497 4750 2381 4750 
Q 2619 4750 2861 4703 
Q 3103 4656 3366 4563 
z
" id="DejaVuSans-36" transform="scale(0.015625)"/>
       </defs>
       <use xlink:href="#DejaVuSans-36"/>
       <use x="63.623047" xlink:href="#DejaVuSans-30"/>
      </g>
     </g>
    </g>
    <g id="xtick_5">
     <g id="line2d_9">
      <path clip-path="url(#pbf5d4f4392)" d="M 389.842495 224.64 
L 389.842495 7.2 
" style="fill:none;stroke:#ffffff;stroke-linecap:square;stroke-width:0.8;"/>
     </g>
     <g id="line2d_10">
      <g>
       <use style="fill:#555555;stroke:#555555;stroke-width:0.8;" x="389.842495" xlink:href="#mb54b81a0ea" y="224.64"/>
      </g>
     </g>
     <g id="text_5">
      <!-- 80 -->
      <g style="fill:#555555;" transform="translate(383.479995 239.238437)scale(0.1 -0.1)">
       <defs>
        <path d="M 2034 2216 
Q 1584 2216 1326 1975 
Q 1069 1734 1069 1313 
Q 1069 891 1326 650 
Q 1584 409 2034 409 
Q 2484 409 2743 651 
Q 3003 894 3003 1313 
Q 3003 1734 2745 1975 
Q 2488 2216 2034 2216 
z
M 1403 2484 
Q 997 2584 770 2862 
Q 544 3141 544 3541 
Q 544 4100 942 4425 
Q 1341 4750 2034 4750 
Q 2731 4750 3128 4425 
Q 3525 4100 3525 3541 
Q 3525 3141 3298 2862 
Q 3072 2584 2669 2484 
Q 3125 2378 3379 2068 
Q 3634 1759 3634 1313 
Q 3634 634 3220 271 
Q 2806 -91 2034 -91 
Q 1263 -91 848 271 
Q 434 634 434 1313 
Q 434 1759 690 2068 
Q 947 2378 1403 2484 
z
M 1172 3481 
Q 1172 3119 1398 2916 
Q 1625 2713 2034 2713 
Q 2441 2713 2670 2916 
Q 2900 3119 2900 3481 
Q 2900 3844 2670 4047 
Q 2441 4250 2034 4250 
Q 1625 4250 1398 4047 
Q 1172 3844 1172 3481 
z
" id="DejaVuSans-38" transform="scale(0.015625)"/>
       </defs>
       <use xlink:href="#DejaVuSans-38"/>
       <use x="63.623047" xlink:href="#DejaVuSans-30"/>
      </g>
     </g>
    </g>
    <g id="xtick_6">
     <g id="line2d_11">
      <path clip-path="url(#pbf5d4f4392)" d="M 471.825966 224.64 
L 471.825966 7.2 
" style="fill:none;stroke:#ffffff;stroke-linecap:square;stroke-width:0.8;"/>
     </g>
     <g id="line2d_12">
      <g>
       <use style="fill:#555555;stroke:#555555;stroke-width:0.8;" x="471.825966" xlink:href="#mb54b81a0ea" y="224.64"/>
      </g>
     </g>
     <g id="text_6">
      <!-- 100 -->
      <g style="fill:#555555;" transform="translate(462.282216 239.238437)scale(0.1 -0.1)">
       <defs>
        <path d="M 794 531 
L 1825 531 
L 1825 4091 
L 703 3866 
L 703 4441 
L 1819 4666 
L 2450 4666 
L 2450 531 
L 3481 531 
L 3481 0 
L 794 0 
L 794 531 
z
" id="DejaVuSans-31" transform="scale(0.015625)"/>
       </defs>
       <use xlink:href="#DejaVuSans-31"/>
       <use x="63.623047" xlink:href="#DejaVuSans-30"/>
       <use x="127.246094" xlink:href="#DejaVuSans-30"/>
      </g>
     </g>
    </g>
    <g id="text_7">
     <!-- Epoch number -->
     <g style="fill:#555555;" transform="translate(225.22 254.43625)scale(0.12 -0.12)">
      <defs>
       <path d="M 628 4666 
L 3578 4666 
L 3578 4134 
L 1259 4134 
L 1259 2753 
L 3481 2753 
L 3481 2222 
L 1259 2222 
L 1259 531 
L 3634 531 
L 3634 0 
L 628 0 
L 628 4666 
z
" id="DejaVuSans-45" transform="scale(0.015625)"/>
       <path d="M 1159 525 
L 1159 -1331 
L 581 -1331 
L 581 3500 
L 1159 3500 
L 1159 2969 
Q 1341 3281 1617 3432 
Q 1894 3584 2278 3584 
Q 2916 3584 3314 3078 
Q 3713 2572 3713 1747 
Q 3713 922 3314 415 
Q 2916 -91 2278 -91 
Q 1894 -91 1617 61 
Q 1341 213 1159 525 
z
M 3116 1747 
Q 3116 2381 2855 2742 
Q 2594 3103 2138 3103 
Q 1681 3103 1420 2742 
Q 1159 2381 1159 1747 
Q 1159 1113 1420 752 
Q 1681 391 2138 391 
Q 2594 391 2855 752 
Q 3116 1113 3116 1747 
z
" id="DejaVuSans-70" transform="scale(0.015625)"/>
       <path d="M 1959 3097 
Q 1497 3097 1228 2736 
Q 959 2375 959 1747 
Q 959 1119 1226 758 
Q 1494 397 1959 397 
Q 2419 397 2687 759 
Q 2956 1122 2956 1747 
Q 2956 2369 2687 2733 
Q 2419 3097 1959 3097 
z
M 1959 3584 
Q 2709 3584 3137 3096 
Q 3566 2609 3566 1747 
Q 3566 888 3137 398 
Q 2709 -91 1959 -91 
Q 1206 -91 779 398 
Q 353 888 353 1747 
Q 353 2609 779 3096 
Q 1206 3584 1959 3584 
z
" id="DejaVuSans-6f" transform="scale(0.015625)"/>
       <path d="M 3122 3366 
L 3122 2828 
Q 2878 2963 2633 3030 
Q 2388 3097 2138 3097 
Q 1578 3097 1268 2742 
Q 959 2388 959 1747 
Q 959 1106 1268 751 
Q 1578 397 2138 397 
Q 2388 397 2633 464 
Q 2878 531 3122 666 
L 3122 134 
Q 2881 22 2623 -34 
Q 2366 -91 2075 -91 
Q 1284 -91 818 406 
Q 353 903 353 1747 
Q 353 2603 823 3093 
Q 1294 3584 2113 3584 
Q 2378 3584 2631 3529 
Q 2884 3475 3122 3366 
z
" id="DejaVuSans-63" transform="scale(0.015625)"/>
       <path d="M 3513 2113 
L 3513 0 
L 2938 0 
L 2938 2094 
Q 2938 2591 2744 2837 
Q 2550 3084 2163 3084 
Q 1697 3084 1428 2787 
Q 1159 2491 1159 1978 
L 1159 0 
L 581 0 
L 581 4863 
L 1159 4863 
L 1159 2956 
Q 1366 3272 1645 3428 
Q 1925 3584 2291 3584 
Q 2894 3584 3203 3211 
Q 3513 2838 3513 2113 
z
" id="DejaVuSans-68" transform="scale(0.015625)"/>
       <path id="DejaVuSans-20" transform="scale(0.015625)"/>
       <path d="M 3513 2113 
L 3513 0 
L 2938 0 
L 2938 2094 
Q 2938 2591 2744 2837 
Q 2550 3084 2163 3084 
Q 1697 3084 1428 2787 
Q 1159 2491 1159 1978 
L 1159 0 
L 581 0 
L 581 3500 
L 1159 3500 
L 1159 2956 
Q 1366 3272 1645 3428 
Q 1925 3584 2291 3584 
Q 2894 3584 3203 3211 
Q 3513 2838 3513 2113 
z
" id="DejaVuSans-6e" transform="scale(0.015625)"/>
       <path d="M 544 1381 
L 544 3500 
L 1119 3500 
L 1119 1403 
Q 1119 906 1312 657 
Q 1506 409 1894 409 
Q 2359 409 2629 706 
Q 2900 1003 2900 1516 
L 2900 3500 
L 3475 3500 
L 3475 0 
L 2900 0 
L 2900 538 
Q 2691 219 2414 64 
Q 2138 -91 1772 -91 
Q 1169 -91 856 284 
Q 544 659 544 1381 
z
M 1991 3584 
L 1991 3584 
z
" id="DejaVuSans-75" transform="scale(0.015625)"/>
       <path d="M 3328 2828 
Q 3544 3216 3844 3400 
Q 4144 3584 4550 3584 
Q 5097 3584 5394 3201 
Q 5691 2819 5691 2113 
L 5691 0 
L 5113 0 
L 5113 2094 
Q 5113 2597 4934 2840 
Q 4756 3084 4391 3084 
Q 3944 3084 3684 2787 
Q 3425 2491 3425 1978 
L 3425 0 
L 2847 0 
L 2847 2094 
Q 2847 2600 2669 2842 
Q 2491 3084 2119 3084 
Q 1678 3084 1418 2786 
Q 1159 2488 1159 1978 
L 1159 0 
L 581 0 
L 581 3500 
L 1159 3500 
L 1159 2956 
Q 1356 3278 1631 3431 
Q 1906 3584 2284 3584 
Q 2666 3584 2933 3390 
Q 3200 3197 3328 2828 
z
" id="DejaVuSans-6d" transform="scale(0.015625)"/>
       <path d="M 3116 1747 
Q 3116 2381 2855 2742 
Q 2594 3103 2138 3103 
Q 1681 3103 1420 2742 
Q 1159 2381 1159 1747 
Q 1159 1113 1420 752 
Q 1681 391 2138 391 
Q 2594 391 2855 752 
Q 3116 1113 3116 1747 
z
M 1159 2969 
Q 1341 3281 1617 3432 
Q 1894 3584 2278 3584 
Q 2916 3584 3314 3078 
Q 3713 2572 3713 1747 
Q 3713 922 3314 415 
Q 2916 -91 2278 -91 
Q 1894 -91 1617 61 
Q 1341 213 1159 525 
L 1159 0 
L 581 0 
L 581 4863 
L 1159 4863 
L 1159 2969 
z
" id="DejaVuSans-62" transform="scale(0.015625)"/>
       <path d="M 3597 1894 
L 3597 1613 
L 953 1613 
Q 991 1019 1311 708 
Q 1631 397 2203 397 
Q 2534 397 2845 478 
Q 3156 559 3463 722 
L 3463 178 
Q 3153 47 2828 -22 
Q 2503 -91 2169 -91 
Q 1331 -91 842 396 
Q 353 884 353 1716 
Q 353 2575 817 3079 
Q 1281 3584 2069 3584 
Q 2775 3584 3186 3129 
Q 3597 2675 3597 1894 
z
M 3022 2063 
Q 3016 2534 2758 2815 
Q 2500 3097 2075 3097 
Q 1594 3097 1305 2825 
Q 1016 2553 972 2059 
L 3022 2063 
z
" id="DejaVuSans-65" transform="scale(0.015625)"/>
       <path d="M 2631 2963 
Q 2534 3019 2420 3045 
Q 2306 3072 2169 3072 
Q 1681 3072 1420 2755 
Q 1159 2438 1159 1844 
L 1159 0 
L 581 0 
L 581 3500 
L 1159 3500 
L 1159 2956 
Q 1341 3275 1631 3429 
Q 1922 3584 2338 3584 
Q 2397 3584 2469 3576 
Q 2541 3569 2628 3553 
L 2631 2963 
z
" id="DejaVuSans-72" transform="scale(0.015625)"/>
      </defs>
      <use xlink:href="#DejaVuSans-45"/>
      <use x="63.183594" xlink:href="#DejaVuSans-70"/>
      <use x="126.660156" xlink:href="#DejaVuSans-6f"/>
      <use x="187.841797" xlink:href="#DejaVuSans-63"/>
      <use x="242.822266" xlink:href="#DejaVuSans-68"/>
      <use x="306.201172" xlink:href="#DejaVuSans-20"/>
      <use x="337.988281" xlink:href="#DejaVuSans-6e"/>
      <use x="401.367188" xlink:href="#DejaVuSans-75"/>
      <use x="464.746094" xlink:href="#DejaVuSans-6d"/>
      <use x="562.158203" xlink:href="#DejaVuSans-62"/>
      <use x="625.634766" xlink:href="#DejaVuSans-65"/>
      <use x="687.158203" xlink:href="#DejaVuSans-72"/>
     </g>
    </g>
   </g>
   <g id="matplotlib.axis_2">
    <g id="ytick_1">
     <g id="line2d_13">
      <path clip-path="url(#pbf5d4f4392)" d="M 45.716875 219.307076 
L 492.116875 219.307076 
" style="fill:none;stroke:#ffffff;stroke-linecap:square;stroke-width:0.8;"/>
     </g>
     <g id="line2d_14">
      <defs>
       <path d="M 0 0 
L -3.5 0 
" id="m35009e403c" style="stroke:#555555;stroke-width:0.8;"/>
      </defs>
      <g>
       <use style="fill:#555555;stroke:#555555;stroke-width:0.8;" x="45.716875" xlink:href="#m35009e403c" y="219.307076"/>
      </g>
     </g>
     <g id="text_8">
      <!-- 0.0 -->
      <g style="fill:#555555;" transform="translate(22.81375 223.106295)scale(0.1 -0.1)">
       <defs>
        <path d="M 684 794 
L 1344 794 
L 1344 0 
L 684 0 
L 684 794 
z
" id="DejaVuSans-2e" transform="scale(0.015625)"/>
       </defs>
       <use xlink:href="#DejaVuSans-30"/>
       <use x="63.623047" xlink:href="#DejaVuSans-2e"/>
       <use x="95.410156" xlink:href="#DejaVuSans-30"/>
      </g>
     </g>
    </g>
    <g id="ytick_2">
     <g id="line2d_15">
      <path clip-path="url(#pbf5d4f4392)" d="M 45.716875 172.919169 
L 492.116875 172.919169 
" style="fill:none;stroke:#ffffff;stroke-linecap:square;stroke-width:0.8;"/>
     </g>
     <g id="line2d_16">
      <g>
       <use style="fill:#555555;stroke:#555555;stroke-width:0.8;" x="45.716875" xlink:href="#m35009e403c" y="172.919169"/>
      </g>
     </g>
     <g id="text_9">
      <!-- 0.2 -->
      <g style="fill:#555555;" transform="translate(22.81375 176.718388)scale(0.1 -0.1)">
       <use xlink:href="#DejaVuSans-30"/>
       <use x="63.623047" xlink:href="#DejaVuSans-2e"/>
       <use x="95.410156" xlink:href="#DejaVuSans-32"/>
      </g>
     </g>
    </g>
    <g id="ytick_3">
     <g id="line2d_17">
      <path clip-path="url(#pbf5d4f4392)" d="M 45.716875 126.531263 
L 492.116875 126.531263 
" style="fill:none;stroke:#ffffff;stroke-linecap:square;stroke-width:0.8;"/>
     </g>
     <g id="line2d_18">
      <g>
       <use style="fill:#555555;stroke:#555555;stroke-width:0.8;" x="45.716875" xlink:href="#m35009e403c" y="126.531263"/>
      </g>
     </g>
     <g id="text_10">
      <!-- 0.4 -->
      <g style="fill:#555555;" transform="translate(22.81375 130.330482)scale(0.1 -0.1)">
       <use xlink:href="#DejaVuSans-30"/>
       <use x="63.623047" xlink:href="#DejaVuSans-2e"/>
       <use x="95.410156" xlink:href="#DejaVuSans-34"/>
      </g>
     </g>
    </g>
    <g id="ytick_4">
     <g id="line2d_19">
      <path clip-path="url(#pbf5d4f4392)" d="M 45.716875 80.143356 
L 492.116875 80.143356 
" style="fill:none;stroke:#ffffff;stroke-linecap:square;stroke-width:0.8;"/>
     </g>
     <g id="line2d_20">
      <g>
       <use style="fill:#555555;stroke:#555555;stroke-width:0.8;" x="45.716875" xlink:href="#m35009e403c" y="80.143356"/>
      </g>
     </g>
     <g id="text_11">
      <!-- 0.6 -->
      <g style="fill:#555555;" transform="translate(22.81375 83.942575)scale(0.1 -0.1)">
       <use xlink:href="#DejaVuSans-30"/>
       <use x="63.623047" xlink:href="#DejaVuSans-2e"/>
       <use x="95.410156" xlink:href="#DejaVuSans-36"/>
      </g>
     </g>
    </g>
    <g id="ytick_5">
     <g id="line2d_21">
      <path clip-path="url(#pbf5d4f4392)" d="M 45.716875 33.75545 
L 492.116875 33.75545 
" style="fill:none;stroke:#ffffff;stroke-linecap:square;stroke-width:0.8;"/>
     </g>
     <g id="line2d_22">
      <g>
       <use style="fill:#555555;stroke:#555555;stroke-width:0.8;" x="45.716875" xlink:href="#m35009e403c" y="33.75545"/>
      </g>
     </g>
     <g id="text_12">
      <!-- 0.8 -->
      <g style="fill:#555555;" transform="translate(22.81375 37.554669)scale(0.1 -0.1)">
       <use xlink:href="#DejaVuSans-30"/>
       <use x="63.623047" xlink:href="#DejaVuSans-2e"/>
       <use x="95.410156" xlink:href="#DejaVuSans-38"/>
      </g>
     </g>
    </g>
    <g id="text_13">
     <!-- Accuracy -->
     <g style="fill:#555555;" transform="translate(16.318125 143.31375)rotate(-90)scale(0.12 -0.12)">
      <defs>
       <path d="M 2188 4044 
L 1331 1722 
L 3047 1722 
L 2188 4044 
z
M 1831 4666 
L 2547 4666 
L 4325 0 
L 3669 0 
L 3244 1197 
L 1141 1197 
L 716 0 
L 50 0 
L 1831 4666 
z
" id="DejaVuSans-41" transform="scale(0.015625)"/>
       <path d="M 2194 1759 
Q 1497 1759 1228 1600 
Q 959 1441 959 1056 
Q 959 750 1161 570 
Q 1363 391 1709 391 
Q 2188 391 2477 730 
Q 2766 1069 2766 1631 
L 2766 1759 
L 2194 1759 
z
M 3341 1997 
L 3341 0 
L 2766 0 
L 2766 531 
Q 2569 213 2275 61 
Q 1981 -91 1556 -91 
Q 1019 -91 701 211 
Q 384 513 384 1019 
Q 384 1609 779 1909 
Q 1175 2209 1959 2209 
L 2766 2209 
L 2766 2266 
Q 2766 2663 2505 2880 
Q 2244 3097 1772 3097 
Q 1472 3097 1187 3025 
Q 903 2953 641 2809 
L 641 3341 
Q 956 3463 1253 3523 
Q 1550 3584 1831 3584 
Q 2591 3584 2966 3190 
Q 3341 2797 3341 1997 
z
" id="DejaVuSans-61" transform="scale(0.015625)"/>
       <path d="M 2059 -325 
Q 1816 -950 1584 -1140 
Q 1353 -1331 966 -1331 
L 506 -1331 
L 506 -850 
L 844 -850 
Q 1081 -850 1212 -737 
Q 1344 -625 1503 -206 
L 1606 56 
L 191 3500 
L 800 3500 
L 1894 763 
L 2988 3500 
L 3597 3500 
L 2059 -325 
z
" id="DejaVuSans-79" transform="scale(0.015625)"/>
      </defs>
      <use xlink:href="#DejaVuSans-41"/>
      <use x="66.658203" xlink:href="#DejaVuSans-63"/>
      <use x="121.638672" xlink:href="#DejaVuSans-63"/>
      <use x="176.619141" xlink:href="#DejaVuSans-75"/>
      <use x="239.998047" xlink:href="#DejaVuSans-72"/>
      <use x="281.111328" xlink:href="#DejaVuSans-61"/>
      <use x="342.390625" xlink:href="#DejaVuSans-63"/>
      <use x="397.371094" xlink:href="#DejaVuSans-79"/>
     </g>
    </g>
   </g>
   <g id="line2d_23">
    <path clip-path="url(#pbf5d4f4392)" d="M 66.007784 214.345889 
L 70.106958 214.334292 
L 74.206131 214.334292 
L 78.305305 214.26703 
L 82.404478 214.26703 
L 86.503652 214.26703 
L 90.602825 214.26703 
L 94.701999 214.262391 
L 98.801173 214.26703 
L 102.900346 214.262391 
L 106.99952 214.262391 
L 111.098693 214.262391 
L 115.197867 214.262391 
L 119.29704 214.262391 
L 123.396214 214.262391 
L 127.495387 214.262391 
L 131.594561 214.262391 
L 135.693735 214.26703 
L 139.792908 214.262391 
L 143.892082 214.264711 
L 147.991255 214.264711 
L 152.090429 214.264711 
L 156.189602 214.264711 
L 160.288776 214.264711 
L 164.387949 214.264711 
L 168.487123 214.264711 
L 172.586296 214.264711 
L 176.68547 214.264711 
L 180.784644 214.264711 
L 184.883817 214.262391 
L 188.982991 214.264711 
L 193.082164 214.264711 
L 197.181338 214.264711 
L 201.280511 214.262391 
L 205.379685 214.264711 
L 209.478858 214.262391 
L 213.578032 214.264711 
L 217.677206 214.262391 
L 221.776379 214.262391 
L 225.875553 214.264711 
L 229.974726 214.264711 
L 234.0739 214.262391 
L 238.173073 214.264711 
L 242.272247 214.262391 
L 246.37142 214.264711 
L 250.470594 214.262391 
L 254.569768 214.262391 
L 258.668941 214.262391 
L 262.768115 214.264711 
L 266.867288 214.262391 
L 270.966462 214.262391 
L 275.065635 214.264711 
L 279.164809 214.264711 
L 283.263982 214.264711 
L 287.363156 214.264711 
L 291.46233 214.264711 
L 295.561503 214.264711 
L 299.660677 214.262391 
L 303.75985 214.262391 
L 307.859024 214.262391 
L 311.958197 214.264711 
L 316.057371 214.264711 
L 320.156544 214.262391 
L 324.255718 214.264711 
L 328.354892 214.264711 
L 332.454065 214.264711 
L 336.553239 214.264711 
L 340.652412 214.264711 
L 344.751586 214.262391 
L 348.850759 214.264711 
L 352.949933 214.262391 
L 357.049106 214.262391 
L 361.14828 214.262391 
L 365.247454 214.262391 
L 369.346627 214.262391 
L 373.445801 214.262391 
L 377.544974 214.262391 
L 381.644148 214.262391 
L 385.743321 214.262391 
L 389.842495 214.262391 
L 393.941668 214.262391 
L 398.040842 214.262391 
L 402.140015 214.262391 
L 406.239189 214.262391 
L 410.338363 214.262391 
L 414.437536 214.262391 
L 418.53671 214.262391 
L 422.635883 214.262391 
L 426.735057 214.262391 
L 430.83423 214.262391 
L 434.933404 214.262391 
L 439.032577 214.262391 
L 443.131751 214.262391 
L 447.230925 214.262391 
L 451.330098 214.262391 
L 455.429272 214.264711 
L 459.528445 214.262391 
L 463.627619 214.262391 
L 467.726792 214.262391 
L 471.825966 214.262391 
" style="fill:none;stroke:#ff0000;stroke-linecap:square;stroke-width:1.5;"/>
   </g>
   <g id="line2d_24">
    <path clip-path="url(#pbf5d4f4392)" d="M 66.007784 92.728396 
L 70.106958 84.257964 
L 74.206131 79.816322 
L 78.305305 77.912098 
L 82.404478 75.968445 
L 86.503652 74.022472 
L 90.602825 73.14806 
L 94.701999 71.879351 
L 98.801173 70.418132 
L 102.900346 68.945316 
L 106.99952 68.404897 
L 111.098693 68.133527 
L 115.197867 67.688204 
L 119.29704 66.266414 
L 123.396214 65.865159 
L 127.495387 65.415196 
L 131.594561 65.129911 
L 135.693735 64.350594 
L 139.792908 63.916867 
L 143.892082 63.030858 
L 147.991255 62.842987 
L 152.090429 62.235305 
L 156.189602 61.660095 
L 160.288776 61.330741 
L 164.387949 60.878459 
L 168.487123 60.171043 
L 172.586296 59.91359 
L 176.68547 59.440434 
L 180.784644 59.452031 
L 184.883817 58.960319 
L 188.982991 58.401345 
L 193.082164 57.923549 
L 197.181338 58.030241 
L 201.280511 57.489822 
L 205.379685 57.206856 
L 209.478858 57.162788 
L 213.578032 56.552787 
L 217.677206 55.982215 
L 221.776379 55.824496 
L 225.875553 55.62039 
L 229.974726 55.62039 
L 234.0739 55.093887 
L 238.173073 54.674076 
L 242.272247 54.646244 
L 246.37142 54.210197 
L 250.470594 54.138296 
L 254.569768 53.871566 
L 258.668941 53.950425 
L 262.768115 53.577002 
L 266.867288 53.488865 
L 270.966462 53.294036 
L 275.065635 53.013389 
L 279.164809 53.078332 
L 283.263982 52.888142 
L 287.363156 53.015709 
L 291.46233 52.317571 
L 295.561503 52.377875 
L 299.660677 51.988217 
L 303.75985 52.106506 
L 307.859024 52.148255 
L 311.958197 51.78179 
L 316.057371 51.661182 
L 320.156544 51.951106 
L 324.255718 51.236733 
L 328.354892 51.313273 
L 332.454065 50.981599 
L 336.553239 50.86331 
L 340.652412 51.157873 
L 344.751586 50.960724 
L 348.850759 50.531636 
L 352.949933 50.726466 
L 357.049106 50.946808 
L 361.14828 50.190685 
L 365.247454 50.360001 
L 369.346627 49.912358 
L 373.445801 49.965704 
L 377.544974 50.109506 
L 381.644148 50.035286 
L 385.743321 49.736084 
L 389.842495 49.928594 
L 393.941668 49.543574 
L 398.040842 49.485589 
L 402.140015 49.358022 
L 406.239189 48.938212 
L 410.338363 49.197984 
L 414.437536 49.418327 
L 418.53671 48.917337 
L 422.635883 49.362661 
L 426.735057 48.973003 
L 430.83423 48.880227 
L 434.933404 48.469694 
L 439.032577 48.787451 
L 443.131751 48.536956 
L 447.230925 48.887185 
L 451.330098 48.764257 
L 455.429272 48.307336 
L 459.528445 48.460416 
L 463.627619 48.13802 
L 467.726792 48.193686 
L 471.825966 48.226157 
" style="fill:none;stroke:#0000ff;stroke-linecap:square;stroke-width:1.5;"/>
   </g>
   <g id="line2d_25">
    <path clip-path="url(#pbf5d4f4392)" d="M 66.007784 75.458178 
L 70.106958 62.337359 
L 74.206131 53.864607 
L 78.305305 49.534296 
L 82.404478 46.062162 
L 86.503652 43.155959 
L 90.602825 40.379643 
L 94.701999 37.82135 
L 98.801173 36.810094 
L 102.900346 35.267696 
L 106.99952 34.567238 
L 111.098693 32.848566 
L 115.197867 31.786283 
L 119.29704 31.482443 
L 123.396214 30.575559 
L 127.495387 29.951642 
L 131.594561 29.374112 
L 135.693735 28.648141 
L 139.792908 28.682932 
L 143.892082 27.892019 
L 147.991255 27.404946 
L 152.090429 26.827416 
L 156.189602 27.059356 
L 160.288776 25.901977 
L 164.387949 26.052738 
L 168.487123 25.588859 
L 172.586296 25.380113 
L 176.68547 25.3546 
L 180.784644 24.405967 
L 184.883817 25.145855 
L 188.982991 24.176347 
L 193.082164 23.867868 
L 197.181338 23.724065 
L 201.280511 23.134939 
L 205.379685 23.308893 
L 209.478858 23.109425 
L 213.578032 23.044482 
L 217.677206 22.930832 
L 221.776379 22.392732 
L 225.875553 22.332428 
L 229.974726 22.058739 
L 234.0739 22.520299 
L 238.173073 22.223416 
L 242.272247 21.959005 
L 246.37142 21.409309 
L 250.470594 21.170411 
L 254.569768 21.539195 
L 258.668941 21.430183 
L 262.768115 20.729726 
L 266.867288 21.383795 
L 270.966462 20.845696 
L 275.065635 20.701893 
L 279.164809 20.182349 
L 283.263982 20.340067 
L 287.363156 20.592881 
L 291.46233 20.309915 
L 295.561503 20.590562 
L 299.660677 20.173071 
L 303.75985 19.586264 
L 307.859024 20.059421 
L 311.958197 20.105808 
L 316.057371 19.695275 
L 320.156544 19.168773 
L 324.255718 19.454058 
L 328.354892 19.261549 
L 332.454065 19.085275 
L 336.553239 19.6025 
L 340.652412 19.398393 
L 344.751586 18.941472 
L 348.850759 19.038887 
L 352.949933 18.721129 
L 357.049106 18.428886 
L 361.14828 18.964666 
L 365.247454 18.428886 
L 369.346627 18.514703 
L 373.445801 18.595882 
L 377.544974 18.301319 
L 381.644148 18.048505 
L 385.743321 18.201585 
L 389.842495 18.465996 
L 393.941668 18.099532 
L 398.040842 18.521661 
L 402.140015 17.461698 
L 406.239189 17.818885 
L 410.338363 17.56839 
L 414.437536 18.120406 
L 418.53671 17.538238 
L 422.635883 17.923257 
L 426.735057 17.663485 
L 430.83423 17.482572 
L 434.933404 17.283104 
L 439.032577 17.628694 
L 443.131751 17.851356 
L 447.230925 17.459378 
L 451.330098 17.661166 
L 455.429272 17.127705 
L 459.528445 17.30166 
L 463.627619 17.49185 
L 467.726792 17.199606 
L 471.825966 17.083636 
" style="fill:none;stroke:#800080;stroke-linecap:square;stroke-width:1.5;"/>
   </g>
   <g id="line2d_26">
    <path clip-path="url(#pbf5d4f4392)" d="M 66.007784 214.41873 
L 70.106958 214.139816 
L 74.206131 214.139816 
L 78.305305 214.756364 
L 82.404478 214.756364 
L 86.503652 214.756364 
L 90.602825 214.756364 
L 94.701999 214.712324 
L 98.801173 214.756364 
L 102.900346 214.712324 
L 106.99952 214.712324 
L 111.098693 214.712324 
L 115.197867 214.712324 
L 119.29704 214.712324 
L 123.396214 214.712324 
L 127.495387 214.712324 
L 131.594561 214.712324 
L 135.693735 214.756364 
L 139.792908 214.712324 
L 143.892082 214.638926 
L 147.991255 214.638926 
L 152.090429 214.638926 
L 156.189602 214.638926 
L 160.288776 214.638926 
L 164.387949 214.638926 
L 168.487123 214.638926 
L 172.586296 214.638926 
L 176.68547 214.638926 
L 180.784644 214.638926 
L 184.883817 214.712324 
L 188.982991 214.638926 
L 193.082164 214.638926 
L 197.181338 214.638926 
L 201.280511 214.712324 
L 205.379685 214.638926 
L 209.478858 214.712324 
L 213.578032 214.638926 
L 217.677206 214.712324 
L 221.776379 214.712324 
L 225.875553 214.638926 
L 229.974726 214.638926 
L 234.0739 214.712324 
L 238.173073 214.638926 
L 242.272247 214.712324 
L 246.37142 214.638926 
L 250.470594 214.712324 
L 254.569768 214.712324 
L 258.668941 214.712324 
L 262.768115 214.638926 
L 266.867288 214.712324 
L 270.966462 214.712324 
L 275.065635 214.638926 
L 279.164809 214.638926 
L 283.263982 214.638926 
L 287.363156 214.638926 
L 291.46233 214.638926 
L 295.561503 214.638926 
L 299.660677 214.712324 
L 303.75985 214.712324 
L 307.859024 214.712324 
L 311.958197 214.638926 
L 316.057371 214.638926 
L 320.156544 214.712324 
L 324.255718 214.638926 
L 328.354892 214.638926 
L 332.454065 214.638926 
L 336.553239 214.638926 
L 340.652412 214.638926 
L 344.751586 214.712324 
L 348.850759 214.638926 
L 352.949933 214.712324 
L 357.049106 214.712324 
L 361.14828 214.712324 
L 365.247454 214.712324 
L 369.346627 214.712324 
L 373.445801 214.712324 
L 377.544974 214.712324 
L 381.644148 214.712324 
L 385.743321 214.712324 
L 389.842495 214.712324 
L 393.941668 214.712324 
L 398.040842 214.712324 
L 402.140015 214.712324 
L 406.239189 214.712324 
L 410.338363 214.712324 
L 414.437536 214.712324 
L 418.53671 214.712324 
L 422.635883 214.712324 
L 426.735057 214.712324 
L 430.83423 214.712324 
L 434.933404 214.712324 
L 439.032577 214.712324 
L 443.131751 214.712324 
L 447.230925 214.712324 
L 451.330098 214.712324 
L 455.429272 214.638926 
L 459.528445 214.712324 
L 463.627619 214.712324 
L 467.726792 214.712324 
L 471.825966 214.712324 
" style="fill:none;stroke:#808080;stroke-dasharray:5.55,2.4;stroke-dashoffset:0;stroke-width:1.5;"/>
   </g>
   <g id="line2d_27">
    <path clip-path="url(#pbf5d4f4392)" d="M 66.007784 93.281703 
L 70.106958 85.031702 
L 74.206131 81.435172 
L 78.305305 78.880901 
L 82.404478 77.456968 
L 86.503652 75.357769 
L 90.602825 74.24211 
L 94.701999 73.317288 
L 98.801173 71.952074 
L 102.900346 69.632679 
L 106.99952 69.162928 
L 111.098693 69.251006 
L 115.197867 68.693177 
L 119.29704 67.063728 
L 123.396214 67.137127 
L 127.495387 66.535259 
L 131.594561 65.669155 
L 135.693735 65.595757 
L 139.792908 64.729653 
L 143.892082 64.025027 
L 147.991255 63.731433 
L 152.090429 63.775472 
L 156.189602 62.175383 
L 160.288776 62.703852 
L 164.387949 61.720311 
L 168.487123 61.338639 
L 172.586296 60.854208 
L 176.68547 59.988105 
L 180.784644 60.560614 
L 184.883817 60.634012 
L 188.982991 59.591752 
L 193.082164 59.092642 
L 197.181338 58.989884 
L 201.280511 58.799048 
L 205.379685 58.402695 
L 209.478858 58.402695 
L 213.578032 57.668709 
L 217.677206 56.846645 
L 221.776379 56.905364 
L 225.875553 56.61177 
L 229.974726 56.420933 
L 234.0739 56.112659 
L 238.173073 56.039261 
L 242.272247 55.833745 
L 246.37142 55.437392 
L 250.470594 55.56951 
L 254.569768 54.820844 
L 258.668941 55.275915 
L 262.768115 54.307054 
L 266.867288 54.424492 
L 270.966462 54.174937 
L 275.065635 54.218976 
L 279.164809 53.661147 
L 283.263982 53.881342 
L 287.363156 54.028139 
L 291.46233 53.47031 
L 295.561503 53.191396 
L 299.660677 53.382232 
L 303.75985 52.721645 
L 307.859024 53.440951 
L 311.958197 52.94184 
L 316.057371 52.736324 
L 320.156544 53.073958 
L 324.255718 52.369331 
L 328.354892 52.692285 
L 332.454065 52.061057 
L 336.553239 51.708744 
L 340.652412 52.163815 
L 344.751586 52.031698 
L 348.850759 51.371111 
L 352.949933 51.679385 
L 357.049106 51.796822 
L 361.14828 51.062837 
L 365.247454 51.547267 
L 369.346627 51.283032 
L 373.445801 51.165595 
L 377.544974 51.194954 
L 381.644148 51.033477 
L 385.743321 50.505007 
L 389.842495 50.783922 
L 393.941668 50.549046 
L 398.040842 50.182054 
L 402.140015 49.947178 
L 406.239189 49.8591 
L 410.338363 50.255452 
L 414.437536 50.167374 
L 418.53671 49.741662 
L 422.635883 50.182054 
L 426.735057 49.506787 
L 430.83423 49.565505 
L 434.933404 49.404029 
L 439.032577 50.328851 
L 443.131751 49.33063 
L 447.230925 49.84442 
L 451.330098 49.081075 
L 455.429272 48.640683 
L 459.528445 49.389349 
L 463.627619 49.125114 
L 467.726792 48.992996 
L 471.825966 49.536146 
" style="fill:none;stroke:#ffff00;stroke-dasharray:5.55,2.4;stroke-dashoffset:0;stroke-width:1.5;"/>
   </g>
   <g id="line2d_28">
    <path clip-path="url(#pbf5d4f4392)" d="M 66.007784 75.915598 
L 70.106958 62.703852 
L 74.206131 55.129118 
L 78.305305 50.813281 
L 82.404478 47.055274 
L 86.503652 44.339526 
L 90.602825 41.961412 
L 94.701999 39.128226 
L 98.801173 38.482319 
L 102.900346 36.529917 
L 106.99952 36.016126 
L 111.098693 34.694952 
L 115.197867 34.019685 
L 119.29704 33.491215 
L 123.396214 32.390236 
L 127.495387 31.568172 
L 131.594561 31.949845 
L 135.693735 31.230539 
L 139.792908 30.496553 
L 143.892082 29.747887 
L 147.991255 30.188279 
L 152.090429 29.468973 
L 156.189602 30.026802 
L 160.288776 28.426713 
L 164.387949 29.366215 
L 168.487123 28.837745 
L 172.586296 28.749666 
L 176.68547 28.588189 
L 180.784644 27.399132 
L 184.883817 28.646908 
L 188.982991 27.134897 
L 193.082164 27.090858 
L 197.181338 26.811944 
L 201.280511 26.635787 
L 205.379685 26.767905 
L 209.478858 26.885342 
L 213.578032 26.709186 
L 217.677206 26.811944 
L 221.776379 25.755004 
L 225.875553 25.96052 
L 229.974726 25.887122 
L 234.0739 26.224755 
L 238.173073 26.298154 
L 242.272247 25.520129 
L 246.37142 25.285253 
L 250.470594 25.065057 
L 254.569768 25.534808 
L 258.668941 25.696285 
L 262.768115 25.138456 
L 266.867288 25.593527 
L 270.966462 25.065057 
L 275.065635 24.962299 
L 279.164809 24.654025 
L 283.263982 25.109097 
L 287.363156 25.138456 
L 291.46233 24.698064 
L 295.561503 25.182495 
L 299.660677 24.595306 
L 303.75985 24.228313 
L 307.859024 24.859541 
L 311.958197 24.800822 
L 316.057371 24.521908 
L 320.156544 23.611765 
L 324.255718 23.553046 
L 328.354892 23.90536 
L 332.454065 24.110876 
L 336.553239 24.287032 
L 340.652412 24.507228 
L 344.751586 23.920039 
L 348.850759 24.052157 
L 352.949933 23.846641 
L 357.049106 23.876 
L 361.14828 24.037477 
L 365.247454 23.582406 
L 369.346627 23.861321 
L 373.445801 24.008118 
L 377.544974 23.685164 
L 381.644148 23.626445 
L 385.743321 23.743883 
L 389.842495 23.787922 
L 393.941668 23.494328 
L 398.040842 24.184274 
L 402.140015 23.142014 
L 406.239189 23.332851 
L 410.338363 23.230093 
L 414.437536 23.773242 
L 418.53671 23.420929 
L 422.635883 23.714523 
L 426.735057 23.112655 
L 430.83423 22.995217 
L 434.933404 23.097975 
L 439.032577 23.611765 
L 443.131751 23.773242 
L 447.230925 23.039256 
L 451.330098 23.332851 
L 455.429272 23.186054 
L 459.528445 23.259452 
L 463.627619 23.112655 
L 467.726792 22.760342 
L 471.825966 23.083296 
" style="fill:none;stroke:#008000;stroke-dasharray:5.55,2.4;stroke-dashoffset:0;stroke-width:1.5;"/>
   </g>
   <g id="patch_3">
    <path d="M 45.716875 224.64 
L 45.716875 7.2 
" style="fill:none;stroke:#ffffff;stroke-linecap:square;stroke-linejoin:miter;"/>
   </g>
   <g id="patch_4">
    <path d="M 492.116875 224.64 
L 492.116875 7.2 
" style="fill:none;stroke:#ffffff;stroke-linecap:square;stroke-linejoin:miter;"/>
   </g>
   <g id="patch_5">
    <path d="M 45.716875 224.64 
L 492.116875 224.64 
" style="fill:none;stroke:#ffffff;stroke-linecap:square;stroke-linejoin:miter;"/>
   </g>
   <g id="patch_6">
    <path d="M 45.716875 7.2 
L 492.116875 7.2 
" style="fill:none;stroke:#ffffff;stroke-linecap:square;stroke-linejoin:miter;"/>
   </g>
   <g id="legend_1">
    <g id="patch_7">
     <path d="M 499.116875 103.26875 
L 600.47 103.26875 
Q 602.47 103.26875 602.47 101.26875 
L 602.47 14.2 
Q 602.47 12.2 600.47 12.2 
L 499.116875 12.2 
Q 497.116875 12.2 497.116875 14.2 
L 497.116875 101.26875 
Q 497.116875 103.26875 499.116875 103.26875 
z
" style="fill:#e5e5e5;opacity:0.8;stroke:#cccccc;stroke-linejoin:miter;stroke-width:0.5;"/>
    </g>
    <g id="line2d_29">
     <path d="M 501.116875 20.298437 
L 521.116875 20.298437 
" style="fill:none;stroke:#ff0000;stroke-linecap:square;stroke-width:1.5;"/>
    </g>
    <g id="line2d_30"/>
    <g id="text_14">
     <!-- L1 1e-1(train) -->
     <g transform="translate(529.116875 23.798437)scale(0.1 -0.1)">
      <defs>
       <path d="M 628 4666 
L 1259 4666 
L 1259 531 
L 3531 531 
L 3531 0 
L 628 0 
L 628 4666 
z
" id="DejaVuSans-4c" transform="scale(0.015625)"/>
       <path d="M 313 2009 
L 1997 2009 
L 1997 1497 
L 313 1497 
L 313 2009 
z
" id="DejaVuSans-2d" transform="scale(0.015625)"/>
       <path d="M 1984 4856 
Q 1566 4138 1362 3434 
Q 1159 2731 1159 2009 
Q 1159 1288 1364 580 
Q 1569 -128 1984 -844 
L 1484 -844 
Q 1016 -109 783 600 
Q 550 1309 550 2009 
Q 550 2706 781 3412 
Q 1013 4119 1484 4856 
L 1984 4856 
z
" id="DejaVuSans-28" transform="scale(0.015625)"/>
       <path d="M 1172 4494 
L 1172 3500 
L 2356 3500 
L 2356 3053 
L 1172 3053 
L 1172 1153 
Q 1172 725 1289 603 
Q 1406 481 1766 481 
L 2356 481 
L 2356 0 
L 1766 0 
Q 1100 0 847 248 
Q 594 497 594 1153 
L 594 3053 
L 172 3053 
L 172 3500 
L 594 3500 
L 594 4494 
L 1172 4494 
z
" id="DejaVuSans-74" transform="scale(0.015625)"/>
       <path d="M 603 3500 
L 1178 3500 
L 1178 0 
L 603 0 
L 603 3500 
z
M 603 4863 
L 1178 4863 
L 1178 4134 
L 603 4134 
L 603 4863 
z
" id="DejaVuSans-69" transform="scale(0.015625)"/>
       <path d="M 513 4856 
L 1013 4856 
Q 1481 4119 1714 3412 
Q 1947 2706 1947 2009 
Q 1947 1309 1714 600 
Q 1481 -109 1013 -844 
L 513 -844 
Q 928 -128 1133 580 
Q 1338 1288 1338 2009 
Q 1338 2731 1133 3434 
Q 928 4138 513 4856 
z
" id="DejaVuSans-29" transform="scale(0.015625)"/>
      </defs>
      <use xlink:href="#DejaVuSans-4c"/>
      <use x="55.712891" xlink:href="#DejaVuSans-31"/>
      <use x="119.335938" xlink:href="#DejaVuSans-20"/>
      <use x="151.123047" xlink:href="#DejaVuSans-31"/>
      <use x="214.746094" xlink:href="#DejaVuSans-65"/>
      <use x="276.269531" xlink:href="#DejaVuSans-2d"/>
      <use x="312.353516" xlink:href="#DejaVuSans-31"/>
      <use x="375.976562" xlink:href="#DejaVuSans-28"/>
      <use x="414.990234" xlink:href="#DejaVuSans-74"/>
      <use x="454.199219" xlink:href="#DejaVuSans-72"/>
      <use x="495.3125" xlink:href="#DejaVuSans-61"/>
      <use x="556.591797" xlink:href="#DejaVuSans-69"/>
      <use x="584.375" xlink:href="#DejaVuSans-6e"/>
      <use x="647.753906" xlink:href="#DejaVuSans-29"/>
     </g>
    </g>
    <g id="line2d_31">
     <path d="M 501.116875 34.976562 
L 521.116875 34.976562 
" style="fill:none;stroke:#0000ff;stroke-linecap:square;stroke-width:1.5;"/>
    </g>
    <g id="line2d_32"/>
    <g id="text_15">
     <!-- L1 1e-3(train) -->
     <g transform="translate(529.116875 38.476562)scale(0.1 -0.1)">
      <defs>
       <path d="M 2597 2516 
Q 3050 2419 3304 2112 
Q 3559 1806 3559 1356 
Q 3559 666 3084 287 
Q 2609 -91 1734 -91 
Q 1441 -91 1130 -33 
Q 819 25 488 141 
L 488 750 
Q 750 597 1062 519 
Q 1375 441 1716 441 
Q 2309 441 2620 675 
Q 2931 909 2931 1356 
Q 2931 1769 2642 2001 
Q 2353 2234 1838 2234 
L 1294 2234 
L 1294 2753 
L 1863 2753 
Q 2328 2753 2575 2939 
Q 2822 3125 2822 3475 
Q 2822 3834 2567 4026 
Q 2313 4219 1838 4219 
Q 1578 4219 1281 4162 
Q 984 4106 628 3988 
L 628 4550 
Q 988 4650 1302 4700 
Q 1616 4750 1894 4750 
Q 2613 4750 3031 4423 
Q 3450 4097 3450 3541 
Q 3450 3153 3228 2886 
Q 3006 2619 2597 2516 
z
" id="DejaVuSans-33" transform="scale(0.015625)"/>
      </defs>
      <use xlink:href="#DejaVuSans-4c"/>
      <use x="55.712891" xlink:href="#DejaVuSans-31"/>
      <use x="119.335938" xlink:href="#DejaVuSans-20"/>
      <use x="151.123047" xlink:href="#DejaVuSans-31"/>
      <use x="214.746094" xlink:href="#DejaVuSans-65"/>
      <use x="276.269531" xlink:href="#DejaVuSans-2d"/>
      <use x="312.353516" xlink:href="#DejaVuSans-33"/>
      <use x="375.976562" xlink:href="#DejaVuSans-28"/>
      <use x="414.990234" xlink:href="#DejaVuSans-74"/>
      <use x="454.199219" xlink:href="#DejaVuSans-72"/>
      <use x="495.3125" xlink:href="#DejaVuSans-61"/>
      <use x="556.591797" xlink:href="#DejaVuSans-69"/>
      <use x="584.375" xlink:href="#DejaVuSans-6e"/>
      <use x="647.753906" xlink:href="#DejaVuSans-29"/>
     </g>
    </g>
    <g id="line2d_33">
     <path d="M 501.116875 49.654687 
L 521.116875 49.654687 
" style="fill:none;stroke:#800080;stroke-linecap:square;stroke-width:1.5;"/>
    </g>
    <g id="line2d_34"/>
    <g id="text_16">
     <!-- L1 1e-4(train) -->
     <g transform="translate(529.116875 53.154687)scale(0.1 -0.1)">
      <use xlink:href="#DejaVuSans-4c"/>
      <use x="55.712891" xlink:href="#DejaVuSans-31"/>
      <use x="119.335938" xlink:href="#DejaVuSans-20"/>
      <use x="151.123047" xlink:href="#DejaVuSans-31"/>
      <use x="214.746094" xlink:href="#DejaVuSans-65"/>
      <use x="276.269531" xlink:href="#DejaVuSans-2d"/>
      <use x="312.353516" xlink:href="#DejaVuSans-34"/>
      <use x="375.976562" xlink:href="#DejaVuSans-28"/>
      <use x="414.990234" xlink:href="#DejaVuSans-74"/>
      <use x="454.199219" xlink:href="#DejaVuSans-72"/>
      <use x="495.3125" xlink:href="#DejaVuSans-61"/>
      <use x="556.591797" xlink:href="#DejaVuSans-69"/>
      <use x="584.375" xlink:href="#DejaVuSans-6e"/>
      <use x="647.753906" xlink:href="#DejaVuSans-29"/>
     </g>
    </g>
    <g id="line2d_35">
     <path d="M 501.116875 64.332812 
L 521.116875 64.332812 
" style="fill:none;stroke:#808080;stroke-dasharray:5.55,2.4;stroke-dashoffset:0;stroke-width:1.5;"/>
    </g>
    <g id="line2d_36"/>
    <g id="text_17">
     <!-- L1 1e-1(valid) -->
     <g transform="translate(529.116875 67.832812)scale(0.1 -0.1)">
      <defs>
       <path d="M 191 3500 
L 800 3500 
L 1894 563 
L 2988 3500 
L 3597 3500 
L 2284 0 
L 1503 0 
L 191 3500 
z
" id="DejaVuSans-76" transform="scale(0.015625)"/>
       <path d="M 603 4863 
L 1178 4863 
L 1178 0 
L 603 0 
L 603 4863 
z
" id="DejaVuSans-6c" transform="scale(0.015625)"/>
       <path d="M 2906 2969 
L 2906 4863 
L 3481 4863 
L 3481 0 
L 2906 0 
L 2906 525 
Q 2725 213 2448 61 
Q 2172 -91 1784 -91 
Q 1150 -91 751 415 
Q 353 922 353 1747 
Q 353 2572 751 3078 
Q 1150 3584 1784 3584 
Q 2172 3584 2448 3432 
Q 2725 3281 2906 2969 
z
M 947 1747 
Q 947 1113 1208 752 
Q 1469 391 1925 391 
Q 2381 391 2643 752 
Q 2906 1113 2906 1747 
Q 2906 2381 2643 2742 
Q 2381 3103 1925 3103 
Q 1469 3103 1208 2742 
Q 947 2381 947 1747 
z
" id="DejaVuSans-64" transform="scale(0.015625)"/>
      </defs>
      <use xlink:href="#DejaVuSans-4c"/>
      <use x="55.712891" xlink:href="#DejaVuSans-31"/>
      <use x="119.335938" xlink:href="#DejaVuSans-20"/>
      <use x="151.123047" xlink:href="#DejaVuSans-31"/>
      <use x="214.746094" xlink:href="#DejaVuSans-65"/>
      <use x="276.269531" xlink:href="#DejaVuSans-2d"/>
      <use x="312.353516" xlink:href="#DejaVuSans-31"/>
      <use x="375.976562" xlink:href="#DejaVuSans-28"/>
      <use x="414.990234" xlink:href="#DejaVuSans-76"/>
      <use x="474.169922" xlink:href="#DejaVuSans-61"/>
      <use x="535.449219" xlink:href="#DejaVuSans-6c"/>
      <use x="563.232422" xlink:href="#DejaVuSans-69"/>
      <use x="591.015625" xlink:href="#DejaVuSans-64"/>
      <use x="654.492188" xlink:href="#DejaVuSans-29"/>
     </g>
    </g>
    <g id="line2d_37">
     <path d="M 501.116875 79.010937 
L 521.116875 79.010937 
" style="fill:none;stroke:#ffff00;stroke-dasharray:5.55,2.4;stroke-dashoffset:0;stroke-width:1.5;"/>
    </g>
    <g id="line2d_38"/>
    <g id="text_18">
     <!-- L1 1e-3(valid) -->
     <g transform="translate(529.116875 82.510937)scale(0.1 -0.1)">
      <use xlink:href="#DejaVuSans-4c"/>
      <use x="55.712891" xlink:href="#DejaVuSans-31"/>
      <use x="119.335938" xlink:href="#DejaVuSans-20"/>
      <use x="151.123047" xlink:href="#DejaVuSans-31"/>
      <use x="214.746094" xlink:href="#DejaVuSans-65"/>
      <use x="276.269531" xlink:href="#DejaVuSans-2d"/>
      <use x="312.353516" xlink:href="#DejaVuSans-33"/>
      <use x="375.976562" xlink:href="#DejaVuSans-28"/>
      <use x="414.990234" xlink:href="#DejaVuSans-76"/>
      <use x="474.169922" xlink:href="#DejaVuSans-61"/>
      <use x="535.449219" xlink:href="#DejaVuSans-6c"/>
      <use x="563.232422" xlink:href="#DejaVuSans-69"/>
      <use x="591.015625" xlink:href="#DejaVuSans-64"/>
      <use x="654.492188" xlink:href="#DejaVuSans-29"/>
     </g>
    </g>
    <g id="line2d_39">
     <path d="M 501.116875 93.689062 
L 521.116875 93.689062 
" style="fill:none;stroke:#008000;stroke-dasharray:5.55,2.4;stroke-dashoffset:0;stroke-width:1.5;"/>
    </g>
    <g id="line2d_40"/>
    <g id="text_19">
     <!-- L1 1e-4(valid) -->
     <g transform="translate(529.116875 97.189062)scale(0.1 -0.1)">
      <use xlink:href="#DejaVuSans-4c"/>
      <use x="55.712891" xlink:href="#DejaVuSans-31"/>
      <use x="119.335938" xlink:href="#DejaVuSans-20"/>
      <use x="151.123047" xlink:href="#DejaVuSans-31"/>
      <use x="214.746094" xlink:href="#DejaVuSans-65"/>
      <use x="276.269531" xlink:href="#DejaVuSans-2d"/>
      <use x="312.353516" xlink:href="#DejaVuSans-34"/>
      <use x="375.976562" xlink:href="#DejaVuSans-28"/>
      <use x="414.990234" xlink:href="#DejaVuSans-76"/>
      <use x="474.169922" xlink:href="#DejaVuSans-61"/>
      <use x="535.449219" xlink:href="#DejaVuSans-6c"/>
      <use x="563.232422" xlink:href="#DejaVuSans-69"/>
      <use x="591.015625" xlink:href="#DejaVuSans-64"/>
      <use x="654.492188" xlink:href="#DejaVuSans-29"/>
     </g>
    </g>
   </g>
  </g>
 </g>
 <defs>
  <clipPath id="pbf5d4f4392">
   <rect height="217.44" width="446.4" x="45.716875" y="7.2"/>
  </clipPath>
 </defs>
</svg>
