<?xml version="1.0" encoding="utf-8" standalone="no"?>
<!DOCTYPE svg PUBLIC "-//W3C//DTD SVG 1.1//EN"
  "http://www.w3.org/Graphics/SVG/1.1/DTD/svg11.dtd">
<svg height="264.131875pt" version="1.1" viewBox="0 0 609.67 264.131875" width="609.67pt" xmlns="http://www.w3.org/2000/svg" xmlns:xlink="http://www.w3.org/1999/xlink">
 <metadata>
  <rdf:RDF xmlns:cc="http://creativecommons.org/ns#" xmlns:dc="http://purl.org/dc/elements/1.1/" xmlns:rdf="http://www.w3.org/1999/02/22-rdf-syntax-ns#">
   <cc:Work>
    <dc:type rdf:resource="http://purl.org/dc/dcmitype/StillImage"/>
    <dc:date>2021-11-04T18:07:23.315618</dc:date>
    <dc:format>image/svg+xml</dc:format>
    <dc:creator>
     <cc:Agent>
      <dc:title>Matplotlib v3.4.2, https://matplotlib.org/</dc:title>
     </cc:Agent>
    </dc:creator>
   </cc:Work>
  </rdf:RDF>
 </metadata>
 <defs>
  <style type="text/css">*{stroke-linecap:butt;stroke-linejoin:round;}</style>
 </defs>
 <g id="figure_1">
  <g id="patch_1">
   <path d="M 0 264.131875 
L 609.67 264.131875 
L 609.67 0 
L 0 0 
z
" style="fill:#ffffff;"/>
  </g>
  <g id="axes_1">
   <g id="patch_2">
    <path d="M 45.716875 224.64 
L 492.116875 224.64 
L 492.116875 7.2 
L 45.716875 7.2 
z
" style="fill:#e5e5e5;"/>
   </g>
   <g id="matplotlib.axis_1">
    <g id="xtick_1">
     <g id="line2d_1">
      <path clip-path="url(#p7e1532735e)" d="M 61.908611 224.64 
L 61.908611 7.2 
" style="fill:none;stroke:#ffffff;stroke-linecap:square;stroke-width:0.8;"/>
     </g>
     <g id="line2d_2">
      <defs>
       <path d="M 0 0 
L 0 3.5 
" id="m0700eea926" style="stroke:#555555;stroke-width:0.8;"/>
      </defs>
      <g>
       <use style="fill:#555555;stroke:#555555;stroke-width:0.8;" x="61.908611" xlink:href="#m0700eea926" y="224.64"/>
      </g>
     </g>
     <g id="text_1">
      <!-- 0 -->
      <g style="fill:#555555;" transform="translate(58.727361 239.238437)scale(0.1 -0.1)">
       <defs>
        <path d="M 2034 4250 
Q 1547 4250 1301 3770 
Q 1056 3291 1056 2328 
Q 1056 1369 1301 889 
Q 1547 409 2034 409 
Q 2525 409 2770 889 
Q 3016 1369 3016 2328 
Q 3016 3291 2770 3770 
Q 2525 4250 2034 4250 
z
M 2034 4750 
Q 2819 4750 3233 4129 
Q 3647 3509 3647 2328 
Q 3647 1150 3233 529 
Q 2819 -91 2034 -91 
Q 1250 -91 836 529 
Q 422 1150 422 2328 
Q 422 3509 836 4129 
Q 1250 4750 2034 4750 
z
" id="DejaVuSans-30" transform="scale(0.015625)"/>
       </defs>
       <use xlink:href="#DejaVuSans-30"/>
      </g>
     </g>
    </g>
    <g id="xtick_2">
     <g id="line2d_3">
      <path clip-path="url(#p7e1532735e)" d="M 143.892082 224.64 
L 143.892082 7.2 
" style="fill:none;stroke:#ffffff;stroke-linecap:square;stroke-width:0.8;"/>
     </g>
     <g id="line2d_4">
      <g>
       <use style="fill:#555555;stroke:#555555;stroke-width:0.8;" x="143.892082" xlink:href="#m0700eea926" y="224.64"/>
      </g>
     </g>
     <g id="text_2">
      <!-- 20 -->
      <g style="fill:#555555;" transform="translate(137.529582 239.238437)scale(0.1 -0.1)">
       <defs>
        <path d="M 1228 531 
L 3431 531 
L 3431 0 
L 469 0 
L 469 531 
Q 828 903 1448 1529 
Q 2069 2156 2228 2338 
Q 2531 2678 2651 2914 
Q 2772 3150 2772 3378 
Q 2772 3750 2511 3984 
Q 2250 4219 1831 4219 
Q 1534 4219 1204 4116 
Q 875 4013 500 3803 
L 500 4441 
Q 881 4594 1212 4672 
Q 1544 4750 1819 4750 
Q 2544 4750 2975 4387 
Q 3406 4025 3406 3419 
Q 3406 3131 3298 2873 
Q 3191 2616 2906 2266 
Q 2828 2175 2409 1742 
Q 1991 1309 1228 531 
z
" id="DejaVuSans-32" transform="scale(0.015625)"/>
       </defs>
       <use xlink:href="#DejaVuSans-32"/>
       <use x="63.623047" xlink:href="#DejaVuSans-30"/>
      </g>
     </g>
    </g>
    <g id="xtick_3">
     <g id="line2d_5">
      <path clip-path="url(#p7e1532735e)" d="M 225.875553 224.64 
L 225.875553 7.2 
" style="fill:none;stroke:#ffffff;stroke-linecap:square;stroke-width:0.8;"/>
     </g>
     <g id="line2d_6">
      <g>
       <use style="fill:#555555;stroke:#555555;stroke-width:0.8;" x="225.875553" xlink:href="#m0700eea926" y="224.64"/>
      </g>
     </g>
     <g id="text_3">
      <!-- 40 -->
      <g style="fill:#555555;" transform="translate(219.513053 239.238437)scale(0.1 -0.1)">
       <defs>
        <path d="M 2419 4116 
L 825 1625 
L 2419 1625 
L 2419 4116 
z
M 2253 4666 
L 3047 4666 
L 3047 1625 
L 3713 1625 
L 3713 1100 
L 3047 1100 
L 3047 0 
L 2419 0 
L 2419 1100 
L 313 1100 
L 313 1709 
L 2253 4666 
z
" id="DejaVuSans-34" transform="scale(0.015625)"/>
       </defs>
       <use xlink:href="#DejaVuSans-34"/>
       <use x="63.623047" xlink:href="#DejaVuSans-30"/>
      </g>
     </g>
    </g>
    <g id="xtick_4">
     <g id="line2d_7">
      <path clip-path="url(#p7e1532735e)" d="M 307.859024 224.64 
L 307.859024 7.2 
" style="fill:none;stroke:#ffffff;stroke-linecap:square;stroke-width:0.8;"/>
     </g>
     <g id="line2d_8">
      <g>
       <use style="fill:#555555;stroke:#555555;stroke-width:0.8;" x="307.859024" xlink:href="#m0700eea926" y="224.64"/>
      </g>
     </g>
     <g id="text_4">
      <!-- 60 -->
      <g style="fill:#555555;" transform="translate(301.496524 239.238437)scale(0.1 -0.1)">
       <defs>
        <path d="M 2113 2584 
Q 1688 2584 1439 2293 
Q 1191 2003 1191 1497 
Q 1191 994 1439 701 
Q 1688 409 2113 409 
Q 2538 409 2786 701 
Q 3034 994 3034 1497 
Q 3034 2003 2786 2293 
Q 2538 2584 2113 2584 
z
M 3366 4563 
L 3366 3988 
Q 3128 4100 2886 4159 
Q 2644 4219 2406 4219 
Q 1781 4219 1451 3797 
Q 1122 3375 1075 2522 
Q 1259 2794 1537 2939 
Q 1816 3084 2150 3084 
Q 2853 3084 3261 2657 
Q 3669 2231 3669 1497 
Q 3669 778 3244 343 
Q 2819 -91 2113 -91 
Q 1303 -91 875 529 
Q 447 1150 447 2328 
Q 447 3434 972 4092 
Q 1497 4750 2381 4750 
Q 2619 4750 2861 4703 
Q 3103 4656 3366 4563 
z
" id="DejaVuSans-36" transform="scale(0.015625)"/>
       </defs>
       <use xlink:href="#DejaVuSans-36"/>
       <use x="63.623047" xlink:href="#DejaVuSans-30"/>
      </g>
     </g>
    </g>
    <g id="xtick_5">
     <g id="line2d_9">
      <path clip-path="url(#p7e1532735e)" d="M 389.842495 224.64 
L 389.842495 7.2 
" style="fill:none;stroke:#ffffff;stroke-linecap:square;stroke-width:0.8;"/>
     </g>
     <g id="line2d_10">
      <g>
       <use style="fill:#555555;stroke:#555555;stroke-width:0.8;" x="389.842495" xlink:href="#m0700eea926" y="224.64"/>
      </g>
     </g>
     <g id="text_5">
      <!-- 80 -->
      <g style="fill:#555555;" transform="translate(383.479995 239.238437)scale(0.1 -0.1)">
       <defs>
        <path d="M 2034 2216 
Q 1584 2216 1326 1975 
Q 1069 1734 1069 1313 
Q 1069 891 1326 650 
Q 1584 409 2034 409 
Q 2484 409 2743 651 
Q 3003 894 3003 1313 
Q 3003 1734 2745 1975 
Q 2488 2216 2034 2216 
z
M 1403 2484 
Q 997 2584 770 2862 
Q 544 3141 544 3541 
Q 544 4100 942 4425 
Q 1341 4750 2034 4750 
Q 2731 4750 3128 4425 
Q 3525 4100 3525 3541 
Q 3525 3141 3298 2862 
Q 3072 2584 2669 2484 
Q 3125 2378 3379 2068 
Q 3634 1759 3634 1313 
Q 3634 634 3220 271 
Q 2806 -91 2034 -91 
Q 1263 -91 848 271 
Q 434 634 434 1313 
Q 434 1759 690 2068 
Q 947 2378 1403 2484 
z
M 1172 3481 
Q 1172 3119 1398 2916 
Q 1625 2713 2034 2713 
Q 2441 2713 2670 2916 
Q 2900 3119 2900 3481 
Q 2900 3844 2670 4047 
Q 2441 4250 2034 4250 
Q 1625 4250 1398 4047 
Q 1172 3844 1172 3481 
z
" id="DejaVuSans-38" transform="scale(0.015625)"/>
       </defs>
       <use xlink:href="#DejaVuSans-38"/>
       <use x="63.623047" xlink:href="#DejaVuSans-30"/>
      </g>
     </g>
    </g>
    <g id="xtick_6">
     <g id="line2d_11">
      <path clip-path="url(#p7e1532735e)" d="M 471.825966 224.64 
L 471.825966 7.2 
" style="fill:none;stroke:#ffffff;stroke-linecap:square;stroke-width:0.8;"/>
     </g>
     <g id="line2d_12">
      <g>
       <use style="fill:#555555;stroke:#555555;stroke-width:0.8;" x="471.825966" xlink:href="#m0700eea926" y="224.64"/>
      </g>
     </g>
     <g id="text_6">
      <!-- 100 -->
      <g style="fill:#555555;" transform="translate(462.282216 239.238437)scale(0.1 -0.1)">
       <defs>
        <path d="M 794 531 
L 1825 531 
L 1825 4091 
L 703 3866 
L 703 4441 
L 1819 4666 
L 2450 4666 
L 2450 531 
L 3481 531 
L 3481 0 
L 794 0 
L 794 531 
z
" id="DejaVuSans-31" transform="scale(0.015625)"/>
       </defs>
       <use xlink:href="#DejaVuSans-31"/>
       <use x="63.623047" xlink:href="#DejaVuSans-30"/>
       <use x="127.246094" xlink:href="#DejaVuSans-30"/>
      </g>
     </g>
    </g>
    <g id="text_7">
     <!-- Epoch number -->
     <g style="fill:#555555;" transform="translate(225.22 254.43625)scale(0.12 -0.12)">
      <defs>
       <path d="M 628 4666 
L 3578 4666 
L 3578 4134 
L 1259 4134 
L 1259 2753 
L 3481 2753 
L 3481 2222 
L 1259 2222 
L 1259 531 
L 3634 531 
L 3634 0 
L 628 0 
L 628 4666 
z
" id="DejaVuSans-45" transform="scale(0.015625)"/>
       <path d="M 1159 525 
L 1159 -1331 
L 581 -1331 
L 581 3500 
L 1159 3500 
L 1159 2969 
Q 1341 3281 1617 3432 
Q 1894 3584 2278 3584 
Q 2916 3584 3314 3078 
Q 3713 2572 3713 1747 
Q 3713 922 3314 415 
Q 2916 -91 2278 -91 
Q 1894 -91 1617 61 
Q 1341 213 1159 525 
z
M 3116 1747 
Q 3116 2381 2855 2742 
Q 2594 3103 2138 3103 
Q 1681 3103 1420 2742 
Q 1159 2381 1159 1747 
Q 1159 1113 1420 752 
Q 1681 391 2138 391 
Q 2594 391 2855 752 
Q 3116 1113 3116 1747 
z
" id="DejaVuSans-70" transform="scale(0.015625)"/>
       <path d="M 1959 3097 
Q 1497 3097 1228 2736 
Q 959 2375 959 1747 
Q 959 1119 1226 758 
Q 1494 397 1959 397 
Q 2419 397 2687 759 
Q 2956 1122 2956 1747 
Q 2956 2369 2687 2733 
Q 2419 3097 1959 3097 
z
M 1959 3584 
Q 2709 3584 3137 3096 
Q 3566 2609 3566 1747 
Q 3566 888 3137 398 
Q 2709 -91 1959 -91 
Q 1206 -91 779 398 
Q 353 888 353 1747 
Q 353 2609 779 3096 
Q 1206 3584 1959 3584 
z
" id="DejaVuSans-6f" transform="scale(0.015625)"/>
       <path d="M 3122 3366 
L 3122 2828 
Q 2878 2963 2633 3030 
Q 2388 3097 2138 3097 
Q 1578 3097 1268 2742 
Q 959 2388 959 1747 
Q 959 1106 1268 751 
Q 1578 397 2138 397 
Q 2388 397 2633 464 
Q 2878 531 3122 666 
L 3122 134 
Q 2881 22 2623 -34 
Q 2366 -91 2075 -91 
Q 1284 -91 818 406 
Q 353 903 353 1747 
Q 353 2603 823 3093 
Q 1294 3584 2113 3584 
Q 2378 3584 2631 3529 
Q 2884 3475 3122 3366 
z
" id="DejaVuSans-63" transform="scale(0.015625)"/>
       <path d="M 3513 2113 
L 3513 0 
L 2938 0 
L 2938 2094 
Q 2938 2591 2744 2837 
Q 2550 3084 2163 3084 
Q 1697 3084 1428 2787 
Q 1159 2491 1159 1978 
L 1159 0 
L 581 0 
L 581 4863 
L 1159 4863 
L 1159 2956 
Q 1366 3272 1645 3428 
Q 1925 3584 2291 3584 
Q 2894 3584 3203 3211 
Q 3513 2838 3513 2113 
z
" id="DejaVuSans-68" transform="scale(0.015625)"/>
       <path id="DejaVuSans-20" transform="scale(0.015625)"/>
       <path d="M 3513 2113 
L 3513 0 
L 2938 0 
L 2938 2094 
Q 2938 2591 2744 2837 
Q 2550 3084 2163 3084 
Q 1697 3084 1428 2787 
Q 1159 2491 1159 1978 
L 1159 0 
L 581 0 
L 581 3500 
L 1159 3500 
L 1159 2956 
Q 1366 3272 1645 3428 
Q 1925 3584 2291 3584 
Q 2894 3584 3203 3211 
Q 3513 2838 3513 2113 
z
" id="DejaVuSans-6e" transform="scale(0.015625)"/>
       <path d="M 544 1381 
L 544 3500 
L 1119 3500 
L 1119 1403 
Q 1119 906 1312 657 
Q 1506 409 1894 409 
Q 2359 409 2629 706 
Q 2900 1003 2900 1516 
L 2900 3500 
L 3475 3500 
L 3475 0 
L 2900 0 
L 2900 538 
Q 2691 219 2414 64 
Q 2138 -91 1772 -91 
Q 1169 -91 856 284 
Q 544 659 544 1381 
z
M 1991 3584 
L 1991 3584 
z
" id="DejaVuSans-75" transform="scale(0.015625)"/>
       <path d="M 3328 2828 
Q 3544 3216 3844 3400 
Q 4144 3584 4550 3584 
Q 5097 3584 5394 3201 
Q 5691 2819 5691 2113 
L 5691 0 
L 5113 0 
L 5113 2094 
Q 5113 2597 4934 2840 
Q 4756 3084 4391 3084 
Q 3944 3084 3684 2787 
Q 3425 2491 3425 1978 
L 3425 0 
L 2847 0 
L 2847 2094 
Q 2847 2600 2669 2842 
Q 2491 3084 2119 3084 
Q 1678 3084 1418 2786 
Q 1159 2488 1159 1978 
L 1159 0 
L 581 0 
L 581 3500 
L 1159 3500 
L 1159 2956 
Q 1356 3278 1631 3431 
Q 1906 3584 2284 3584 
Q 2666 3584 2933 3390 
Q 3200 3197 3328 2828 
z
" id="DejaVuSans-6d" transform="scale(0.015625)"/>
       <path d="M 3116 1747 
Q 3116 2381 2855 2742 
Q 2594 3103 2138 3103 
Q 1681 3103 1420 2742 
Q 1159 2381 1159 1747 
Q 1159 1113 1420 752 
Q 1681 391 2138 391 
Q 2594 391 2855 752 
Q 3116 1113 3116 1747 
z
M 1159 2969 
Q 1341 3281 1617 3432 
Q 1894 3584 2278 3584 
Q 2916 3584 3314 3078 
Q 3713 2572 3713 1747 
Q 3713 922 3314 415 
Q 2916 -91 2278 -91 
Q 1894 -91 1617 61 
Q 1341 213 1159 525 
L 1159 0 
L 581 0 
L 581 4863 
L 1159 4863 
L 1159 2969 
z
" id="DejaVuSans-62" transform="scale(0.015625)"/>
       <path d="M 3597 1894 
L 3597 1613 
L 953 1613 
Q 991 1019 1311 708 
Q 1631 397 2203 397 
Q 2534 397 2845 478 
Q 3156 559 3463 722 
L 3463 178 
Q 3153 47 2828 -22 
Q 2503 -91 2169 -91 
Q 1331 -91 842 396 
Q 353 884 353 1716 
Q 353 2575 817 3079 
Q 1281 3584 2069 3584 
Q 2775 3584 3186 3129 
Q 3597 2675 3597 1894 
z
M 3022 2063 
Q 3016 2534 2758 2815 
Q 2500 3097 2075 3097 
Q 1594 3097 1305 2825 
Q 1016 2553 972 2059 
L 3022 2063 
z
" id="DejaVuSans-65" transform="scale(0.015625)"/>
       <path d="M 2631 2963 
Q 2534 3019 2420 3045 
Q 2306 3072 2169 3072 
Q 1681 3072 1420 2755 
Q 1159 2438 1159 1844 
L 1159 0 
L 581 0 
L 581 3500 
L 1159 3500 
L 1159 2956 
Q 1341 3275 1631 3429 
Q 1922 3584 2338 3584 
Q 2397 3584 2469 3576 
Q 2541 3569 2628 3553 
L 2631 2963 
z
" id="DejaVuSans-72" transform="scale(0.015625)"/>
      </defs>
      <use xlink:href="#DejaVuSans-45"/>
      <use x="63.183594" xlink:href="#DejaVuSans-70"/>
      <use x="126.660156" xlink:href="#DejaVuSans-6f"/>
      <use x="187.841797" xlink:href="#DejaVuSans-63"/>
      <use x="242.822266" xlink:href="#DejaVuSans-68"/>
      <use x="306.201172" xlink:href="#DejaVuSans-20"/>
      <use x="337.988281" xlink:href="#DejaVuSans-6e"/>
      <use x="401.367188" xlink:href="#DejaVuSans-75"/>
      <use x="464.746094" xlink:href="#DejaVuSans-6d"/>
      <use x="562.158203" xlink:href="#DejaVuSans-62"/>
      <use x="625.634766" xlink:href="#DejaVuSans-65"/>
      <use x="687.158203" xlink:href="#DejaVuSans-72"/>
     </g>
    </g>
   </g>
   <g id="matplotlib.axis_2">
    <g id="ytick_1">
     <g id="line2d_13">
      <path clip-path="url(#p7e1532735e)" d="M 45.716875 197.21431 
L 492.116875 197.21431 
" style="fill:none;stroke:#ffffff;stroke-linecap:square;stroke-width:0.8;"/>
     </g>
     <g id="line2d_14">
      <defs>
       <path d="M 0 0 
L -3.5 0 
" id="m914eeb95ef" style="stroke:#555555;stroke-width:0.8;"/>
      </defs>
      <g>
       <use style="fill:#555555;stroke:#555555;stroke-width:0.8;" x="45.716875" xlink:href="#m914eeb95ef" y="197.21431"/>
      </g>
     </g>
     <g id="text_8">
      <!-- 0.5 -->
      <g style="fill:#555555;" transform="translate(22.81375 201.013529)scale(0.1 -0.1)">
       <defs>
        <path d="M 684 794 
L 1344 794 
L 1344 0 
L 684 0 
L 684 794 
z
" id="DejaVuSans-2e" transform="scale(0.015625)"/>
        <path d="M 691 4666 
L 3169 4666 
L 3169 4134 
L 1269 4134 
L 1269 2991 
Q 1406 3038 1543 3061 
Q 1681 3084 1819 3084 
Q 2600 3084 3056 2656 
Q 3513 2228 3513 1497 
Q 3513 744 3044 326 
Q 2575 -91 1722 -91 
Q 1428 -91 1123 -41 
Q 819 9 494 109 
L 494 744 
Q 775 591 1075 516 
Q 1375 441 1709 441 
Q 2250 441 2565 725 
Q 2881 1009 2881 1497 
Q 2881 1984 2565 2268 
Q 2250 2553 1709 2553 
Q 1456 2553 1204 2497 
Q 953 2441 691 2322 
L 691 4666 
z
" id="DejaVuSans-35" transform="scale(0.015625)"/>
       </defs>
       <use xlink:href="#DejaVuSans-30"/>
       <use x="63.623047" xlink:href="#DejaVuSans-2e"/>
       <use x="95.410156" xlink:href="#DejaVuSans-35"/>
      </g>
     </g>
    </g>
    <g id="ytick_2">
     <g id="line2d_15">
      <path clip-path="url(#p7e1532735e)" d="M 45.716875 160.152263 
L 492.116875 160.152263 
" style="fill:none;stroke:#ffffff;stroke-linecap:square;stroke-width:0.8;"/>
     </g>
     <g id="line2d_16">
      <g>
       <use style="fill:#555555;stroke:#555555;stroke-width:0.8;" x="45.716875" xlink:href="#m914eeb95ef" y="160.152263"/>
      </g>
     </g>
     <g id="text_9">
      <!-- 1.0 -->
      <g style="fill:#555555;" transform="translate(22.81375 163.951481)scale(0.1 -0.1)">
       <use xlink:href="#DejaVuSans-31"/>
       <use x="63.623047" xlink:href="#DejaVuSans-2e"/>
       <use x="95.410156" xlink:href="#DejaVuSans-30"/>
      </g>
     </g>
    </g>
    <g id="ytick_3">
     <g id="line2d_17">
      <path clip-path="url(#p7e1532735e)" d="M 45.716875 123.090215 
L 492.116875 123.090215 
" style="fill:none;stroke:#ffffff;stroke-linecap:square;stroke-width:0.8;"/>
     </g>
     <g id="line2d_18">
      <g>
       <use style="fill:#555555;stroke:#555555;stroke-width:0.8;" x="45.716875" xlink:href="#m914eeb95ef" y="123.090215"/>
      </g>
     </g>
     <g id="text_10">
      <!-- 1.5 -->
      <g style="fill:#555555;" transform="translate(22.81375 126.889434)scale(0.1 -0.1)">
       <use xlink:href="#DejaVuSans-31"/>
       <use x="63.623047" xlink:href="#DejaVuSans-2e"/>
       <use x="95.410156" xlink:href="#DejaVuSans-35"/>
      </g>
     </g>
    </g>
    <g id="ytick_4">
     <g id="line2d_19">
      <path clip-path="url(#p7e1532735e)" d="M 45.716875 86.028167 
L 492.116875 86.028167 
" style="fill:none;stroke:#ffffff;stroke-linecap:square;stroke-width:0.8;"/>
     </g>
     <g id="line2d_20">
      <g>
       <use style="fill:#555555;stroke:#555555;stroke-width:0.8;" x="45.716875" xlink:href="#m914eeb95ef" y="86.028167"/>
      </g>
     </g>
     <g id="text_11">
      <!-- 2.0 -->
      <g style="fill:#555555;" transform="translate(22.81375 89.827386)scale(0.1 -0.1)">
       <use xlink:href="#DejaVuSans-32"/>
       <use x="63.623047" xlink:href="#DejaVuSans-2e"/>
       <use x="95.410156" xlink:href="#DejaVuSans-30"/>
      </g>
     </g>
    </g>
    <g id="ytick_5">
     <g id="line2d_21">
      <path clip-path="url(#p7e1532735e)" d="M 45.716875 48.96612 
L 492.116875 48.96612 
" style="fill:none;stroke:#ffffff;stroke-linecap:square;stroke-width:0.8;"/>
     </g>
     <g id="line2d_22">
      <g>
       <use style="fill:#555555;stroke:#555555;stroke-width:0.8;" x="45.716875" xlink:href="#m914eeb95ef" y="48.96612"/>
      </g>
     </g>
     <g id="text_12">
      <!-- 2.5 -->
      <g style="fill:#555555;" transform="translate(22.81375 52.765339)scale(0.1 -0.1)">
       <use xlink:href="#DejaVuSans-32"/>
       <use x="63.623047" xlink:href="#DejaVuSans-2e"/>
       <use x="95.410156" xlink:href="#DejaVuSans-35"/>
      </g>
     </g>
    </g>
    <g id="ytick_6">
     <g id="line2d_23">
      <path clip-path="url(#p7e1532735e)" d="M 45.716875 11.904072 
L 492.116875 11.904072 
" style="fill:none;stroke:#ffffff;stroke-linecap:square;stroke-width:0.8;"/>
     </g>
     <g id="line2d_24">
      <g>
       <use style="fill:#555555;stroke:#555555;stroke-width:0.8;" x="45.716875" xlink:href="#m914eeb95ef" y="11.904072"/>
      </g>
     </g>
     <g id="text_13">
      <!-- 3.0 -->
      <g style="fill:#555555;" transform="translate(22.81375 15.703291)scale(0.1 -0.1)">
       <defs>
        <path d="M 2597 2516 
Q 3050 2419 3304 2112 
Q 3559 1806 3559 1356 
Q 3559 666 3084 287 
Q 2609 -91 1734 -91 
Q 1441 -91 1130 -33 
Q 819 25 488 141 
L 488 750 
Q 750 597 1062 519 
Q 1375 441 1716 441 
Q 2309 441 2620 675 
Q 2931 909 2931 1356 
Q 2931 1769 2642 2001 
Q 2353 2234 1838 2234 
L 1294 2234 
L 1294 2753 
L 1863 2753 
Q 2328 2753 2575 2939 
Q 2822 3125 2822 3475 
Q 2822 3834 2567 4026 
Q 2313 4219 1838 4219 
Q 1578 4219 1281 4162 
Q 984 4106 628 3988 
L 628 4550 
Q 988 4650 1302 4700 
Q 1616 4750 1894 4750 
Q 2613 4750 3031 4423 
Q 3450 4097 3450 3541 
Q 3450 3153 3228 2886 
Q 3006 2619 2597 2516 
z
" id="DejaVuSans-33" transform="scale(0.015625)"/>
       </defs>
       <use xlink:href="#DejaVuSans-33"/>
       <use x="63.623047" xlink:href="#DejaVuSans-2e"/>
       <use x="95.410156" xlink:href="#DejaVuSans-30"/>
      </g>
     </g>
    </g>
    <g id="text_14">
     <!-- Error -->
     <g style="fill:#555555;" transform="translate(16.318125 130.542187)rotate(-90)scale(0.12 -0.12)">
      <use xlink:href="#DejaVuSans-45"/>
      <use x="63.183594" xlink:href="#DejaVuSans-72"/>
      <use x="102.546875" xlink:href="#DejaVuSans-72"/>
      <use x="141.410156" xlink:href="#DejaVuSans-6f"/>
      <use x="202.591797" xlink:href="#DejaVuSans-72"/>
     </g>
    </g>
   </g>
   <g id="line2d_25">
    <path clip-path="url(#p7e1532735e)" d="M 66.007784 17.14698 
L 70.106958 20.827474 
L 74.206131 21.708067 
L 78.305305 21.714366 
L 82.404478 22.745062 
L 86.503652 23.866018 
L 90.602825 24.825677 
L 94.701999 23.254945 
L 98.801173 25.325597 
L 102.900346 24.828402 
L 106.99952 24.0857 
L 111.098693 23.999675 
L 115.197867 25.120306 
L 119.29704 24.27265 
L 123.396214 24.471651 
L 127.495387 24.382419 
L 131.594561 24.400712 
L 135.693735 25.34573 
L 139.792908 25.015376 
L 143.892082 24.672498 
L 147.991255 24.864333 
L 152.090429 24.881678 
L 156.189602 23.962549 
L 160.288776 25.68063 
L 164.387949 25.211373 
L 168.487123 25.471585 
L 172.586296 25.416094 
L 176.68547 25.101055 
L 180.784644 25.427081 
L 184.883817 25.315715 
L 188.982991 25.319882 
L 193.082164 24.844013 
L 197.181338 25.128311 
L 201.280511 24.350952 
L 205.379685 25.083456 
L 209.478858 26.055662 
L 213.578032 25.595354 
L 217.677206 25.336454 
L 221.776379 25.517704 
L 225.875553 26.228242 
L 229.974726 26.092188 
L 234.0739 25.141483 
L 238.173073 24.780289 
L 242.272247 25.647877 
L 246.37142 24.802629 
L 250.470594 25.814522 
L 254.569768 25.076595 
L 258.668941 26.353852 
L 262.768115 25.308047 
L 266.867288 25.725799 
L 270.966462 25.983407 
L 275.065635 25.677906 
L 279.164809 25.881669 
L 283.263982 25.801325 
L 287.363156 25.452656 
L 291.46233 25.76733 
L 295.561503 25.740986 
L 299.660677 25.635268 
L 303.75985 25.838475 
L 307.859024 25.951907 
L 311.958197 26.116376 
L 316.057371 25.541251 
L 320.156544 25.560682 
L 324.255718 26.000612 
L 328.354892 26.354254 
L 332.454065 25.791618 
L 336.553239 26.242388 
L 340.652412 25.804059 
L 344.751586 26.157661 
L 348.850759 25.601994 
L 352.949933 25.781152 
L 357.049106 26.439959 
L 361.14828 26.43043 
L 365.247454 26.015709 
L 369.346627 25.702109 
L 373.445801 25.963309 
L 377.544974 25.829706 
L 381.644148 26.008549 
L 385.743321 26.433813 
L 389.842495 26.40832 
L 393.941668 26.508365 
L 398.040842 25.911605 
L 402.140015 26.188226 
L 406.239189 26.367947 
L 410.338363 26.227733 
L 414.437536 26.555079 
L 418.53671 26.534656 
L 422.635883 26.123285 
L 426.735057 26.058672 
L 430.83423 26.263294 
L 434.933404 25.924101 
L 439.032577 25.733284 
L 443.131751 26.314266 
L 447.230925 26.577716 
L 451.330098 25.993089 
L 455.429272 26.114364 
L 459.528445 26.263549 
L 463.627619 26.130366 
L 467.726792 25.787782 
L 471.825966 26.094705 
" style="fill:none;stroke:#ff0000;stroke-linecap:square;stroke-width:1.5;"/>
   </g>
   <g id="line2d_26">
    <path clip-path="url(#p7e1532735e)" d="M 66.007784 166.535945 
L 70.106958 177.734344 
L 74.206131 182.999729 
L 78.305305 187.218143 
L 82.404478 188.302198 
L 86.503652 190.602303 
L 90.602825 191.329501 
L 94.701999 191.993049 
L 98.801173 192.590106 
L 102.900346 193.567421 
L 106.99952 194.438996 
L 111.098693 194.188706 
L 115.197867 194.254886 
L 119.29704 194.383962 
L 123.396214 195.412858 
L 127.495387 195.162504 
L 131.594561 195.805347 
L 135.693735 196.243056 
L 139.792908 196.326266 
L 143.892082 196.461967 
L 147.991255 196.415452 
L 152.090429 196.315905 
L 156.189602 196.317768 
L 160.288776 197.016471 
L 164.387949 196.740291 
L 168.487123 196.966865 
L 172.586296 197.323124 
L 176.68547 196.87883 
L 180.784644 196.741084 
L 184.883817 197.438421 
L 188.982991 197.229991 
L 193.082164 197.232306 
L 197.181338 196.816576 
L 201.280511 197.329129 
L 205.379685 197.413264 
L 209.478858 197.272567 
L 213.578032 197.134799 
L 217.677206 197.407104 
L 221.776379 197.455473 
L 225.875553 196.713264 
L 229.974726 197.13489 
L 234.0739 197.745071 
L 238.173073 197.54223 
L 242.272247 197.863082 
L 246.37142 197.920002 
L 250.470594 197.749724 
L 254.569768 198.049289 
L 258.668941 197.840032 
L 262.768115 197.807523 
L 266.867288 197.757146 
L 270.966462 197.919363 
L 275.065635 197.794779 
L 279.164809 197.176128 
L 283.263982 197.680117 
L 287.363156 198.617858 
L 291.46233 197.346909 
L 295.561503 197.956864 
L 299.660677 198.239232 
L 303.75985 198.119316 
L 307.859024 197.919886 
L 311.958197 197.963829 
L 316.057371 197.929099 
L 320.156544 198.289103 
L 324.255718 198.605005 
L 328.354892 197.92206 
L 332.454065 197.406734 
L 336.553239 198.093999 
L 340.652412 198.083685 
L 344.751586 198.031391 
L 348.850759 197.880286 
L 352.949933 197.941069 
L 357.049106 198.127484 
L 361.14828 198.751079 
L 365.247454 197.733964 
L 369.346627 198.095037 
L 373.445801 198.146215 
L 377.544974 197.835802 
L 381.644148 197.796088 
L 385.743321 198.409493 
L 389.842495 198.498201 
L 393.941668 197.24533 
L 398.040842 198.414624 
L 402.140015 198.106596 
L 406.239189 198.079047 
L 410.338363 198.281867 
L 414.437536 198.299074 
L 418.53671 198.272063 
L 422.635883 198.113348 
L 426.735057 198.167161 
L 430.83423 198.624386 
L 434.933404 198.115209 
L 439.032577 198.132505 
L 443.131751 198.465421 
L 447.230925 197.983248 
L 451.330098 198.397517 
L 455.429272 198.763168 
L 459.528445 198.203962 
L 463.627619 198.074017 
L 467.726792 198.240013 
L 471.825966 197.993078 
" style="fill:none;stroke:#0000ff;stroke-linecap:square;stroke-width:1.5;"/>
   </g>
   <g id="line2d_27">
    <path clip-path="url(#p7e1532735e)" d="M 66.007784 167.610779 
L 70.106958 181.83435 
L 74.206131 189.044276 
L 78.305305 192.764579 
L 82.404478 195.985875 
L 86.503652 198.170514 
L 90.602825 198.770182 
L 94.701999 200.24819 
L 98.801173 201.171985 
L 102.900346 202.553171 
L 106.99952 203.506884 
L 111.098693 204.002911 
L 115.197867 204.74893 
L 119.29704 204.884976 
L 123.396214 204.620587 
L 127.495387 206.431815 
L 131.594561 205.930587 
L 135.693735 206.714272 
L 139.792908 207.005668 
L 143.892082 207.637516 
L 147.991255 207.164004 
L 152.090429 208.372951 
L 156.189602 208.37741 
L 160.288776 208.824939 
L 164.387949 208.937425 
L 168.487123 208.728876 
L 172.586296 209.37429 
L 176.68547 209.932301 
L 180.784644 209.124644 
L 184.883817 209.969236 
L 188.982991 209.905185 
L 193.082164 210.42979 
L 197.181338 210.045598 
L 201.280511 211.051693 
L 205.379685 209.981653 
L 209.478858 210.589563 
L 213.578032 210.508863 
L 217.677206 211.182037 
L 221.776379 210.472848 
L 225.875553 211.715261 
L 229.974726 211.506925 
L 234.0739 211.716828 
L 238.173073 211.606535 
L 242.272247 211.501746 
L 246.37142 211.416244 
L 250.470594 211.774482 
L 254.569768 211.810967 
L 258.668941 212.162578 
L 262.768115 212.311006 
L 266.867288 211.847602 
L 270.966462 212.202565 
L 275.065635 212.766671 
L 279.164809 212.534877 
L 283.263982 212.741689 
L 287.363156 212.45466 
L 291.46233 212.711288 
L 295.561503 212.382605 
L 299.660677 212.645994 
L 303.75985 213.067266 
L 307.859024 213.012659 
L 311.958197 213.195383 
L 316.057371 212.72207 
L 320.156544 213.286393 
L 324.255718 212.76681 
L 328.354892 212.553423 
L 332.454065 213.133594 
L 336.553239 213.367526 
L 340.652412 213.682379 
L 344.751586 212.859714 
L 348.850759 212.653609 
L 352.949933 213.25018 
L 357.049106 212.668938 
L 361.14828 213.330213 
L 365.247454 213.542634 
L 369.346627 213.576645 
L 373.445801 213.567753 
L 377.544974 213.644733 
L 381.644148 212.887417 
L 385.743321 212.875573 
L 389.842495 213.487182 
L 393.941668 213.583109 
L 398.040842 213.910346 
L 402.140015 213.429644 
L 406.239189 213.646143 
L 410.338363 213.851399 
L 414.437536 213.546108 
L 418.53671 213.371134 
L 422.635883 214.756364 
L 426.735057 213.996766 
L 430.83423 213.66225 
L 434.933404 213.716178 
L 439.032577 214.048296 
L 443.131751 214.308004 
L 447.230925 214.555962 
L 451.330098 214.50006 
L 455.429272 213.717334 
L 459.528445 213.882117 
L 463.627619 213.339083 
L 467.726792 213.951643 
L 471.825966 214.004085 
" style="fill:none;stroke:#800080;stroke-linecap:square;stroke-width:1.5;"/>
   </g>
   <g id="line2d_28">
    <path clip-path="url(#p7e1532735e)" d="M 66.007784 17.083636 
L 70.106958 20.783744 
L 74.206131 21.47741 
L 78.305305 21.717934 
L 82.404478 22.711373 
L 86.503652 23.701833 
L 90.602825 24.714741 
L 94.701999 23.220023 
L 98.801173 25.378181 
L 102.900346 24.677941 
L 106.99952 24.166727 
L 111.098693 23.954099 
L 115.197867 25.205144 
L 119.29704 24.276731 
L 123.396214 24.338604 
L 127.495387 24.272497 
L 131.594561 24.4329 
L 135.693735 25.23517 
L 139.792908 24.941948 
L 143.892082 24.583266 
L 147.991255 24.763672 
L 152.090429 24.888904 
L 156.189602 24.03859 
L 160.288776 25.629692 
L 164.387949 25.194227 
L 168.487123 25.522687 
L 172.586296 25.263673 
L 176.68547 25.230215 
L 180.784644 25.529489 
L 184.883817 25.36694 
L 188.982991 25.191429 
L 193.082164 24.922831 
L 197.181338 25.185994 
L 201.280511 24.30438 
L 205.379685 25.071295 
L 209.478858 26.150769 
L 213.578032 25.632409 
L 217.677206 25.29841 
L 221.776379 25.404533 
L 225.875553 26.202166 
L 229.974726 26.098603 
L 234.0739 25.075105 
L 238.173073 24.872487 
L 242.272247 25.487713 
L 246.37142 24.738317 
L 250.470594 25.737489 
L 254.569768 25.149098 
L 258.668941 26.395073 
L 262.768115 25.154162 
L 266.867288 25.661132 
L 270.966462 26.123105 
L 275.065635 25.684524 
L 279.164809 25.739207 
L 283.263982 25.650449 
L 287.363156 25.53478 
L 291.46233 25.85342 
L 295.561503 25.716581 
L 299.660677 25.710969 
L 303.75985 25.686169 
L 307.859024 25.944206 
L 311.958197 26.130222 
L 316.057371 25.533232 
L 320.156544 25.513372 
L 324.255718 25.954197 
L 328.354892 26.283472 
L 332.454065 25.720425 
L 336.553239 26.057959 
L 340.652412 25.755699 
L 344.751586 26.146494 
L 348.850759 25.581144 
L 352.949933 25.810489 
L 357.049106 26.415745 
L 361.14828 26.28989 
L 365.247454 26.073239 
L 369.346627 25.591218 
L 373.445801 25.972583 
L 377.544974 25.710697 
L 381.644148 25.984389 
L 385.743321 26.280915 
L 389.842495 26.45475 
L 393.941668 26.391141 
L 398.040842 25.818072 
L 402.140015 26.177684 
L 406.239189 26.27355 
L 410.338363 26.154198 
L 414.437536 26.50311 
L 418.53671 26.445207 
L 422.635883 26.056171 
L 426.735057 26.134869 
L 430.83423 26.269984 
L 434.933404 25.748745 
L 439.032577 25.828212 
L 443.131751 26.212168 
L 447.230925 26.456566 
L 451.330098 25.857992 
L 455.429272 26.171607 
L 459.528445 26.256057 
L 463.627619 26.184592 
L 467.726792 25.79625 
L 471.825966 26.060378 
" style="fill:none;stroke:#808080;stroke-dasharray:5.55,2.4;stroke-dashoffset:0;stroke-width:1.5;"/>
   </g>
   <g id="line2d_29">
    <path clip-path="url(#p7e1532735e)" d="M 66.007784 165.49389 
L 70.106958 175.767497 
L 74.206131 180.876725 
L 78.305305 184.859928 
L 82.404478 185.917106 
L 86.503652 188.231467 
L 90.602825 188.594821 
L 94.701999 189.19686 
L 98.801173 189.62454 
L 102.900346 190.761267 
L 106.99952 191.625059 
L 111.098693 191.400294 
L 115.197867 191.392752 
L 119.29704 191.697935 
L 123.396214 192.436041 
L 127.495387 192.0811 
L 131.594561 192.69417 
L 135.693735 193.347053 
L 139.792908 193.341507 
L 143.892082 193.408053 
L 147.991255 193.322878 
L 152.090429 193.086388 
L 156.189602 193.187429 
L 160.288776 193.876479 
L 164.387949 193.534524 
L 168.487123 193.861956 
L 172.586296 194.369562 
L 176.68547 193.782451 
L 180.784644 193.618333 
L 184.883817 194.222217 
L 188.982991 194.075251 
L 193.082164 194.042711 
L 197.181338 193.704972 
L 201.280511 194.123392 
L 205.379685 194.329095 
L 209.478858 194.516357 
L 213.578032 194.247854 
L 217.677206 194.638417 
L 221.776379 194.206434 
L 225.875553 193.708049 
L 229.974726 193.967143 
L 234.0739 194.578377 
L 238.173073 194.263744 
L 242.272247 194.802216 
L 246.37142 194.769017 
L 250.470594 194.665424 
L 254.569768 195.025256 
L 258.668941 194.787607 
L 262.768115 194.880186 
L 266.867288 194.454172 
L 270.966462 194.931987 
L 275.065635 194.75217 
L 279.164809 193.951806 
L 283.263982 194.716345 
L 287.363156 195.693262 
L 291.46233 194.254269 
L 295.561503 194.903347 
L 299.660677 195.332605 
L 303.75985 195.091524 
L 307.859024 194.959497 
L 311.958197 194.749116 
L 316.057371 194.975056 
L 320.156544 195.214055 
L 324.255718 195.458156 
L 328.354892 194.866002 
L 332.454065 194.380107 
L 336.553239 195.078215 
L 340.652412 194.850137 
L 344.751586 194.790486 
L 348.850759 194.918617 
L 352.949933 195.023403 
L 357.049106 194.890314 
L 361.14828 195.736589 
L 365.247454 194.70507 
L 369.346627 195.208588 
L 373.445801 195.226787 
L 377.544974 194.723168 
L 381.644148 194.660482 
L 385.743321 195.285888 
L 389.842495 195.353336 
L 393.941668 193.865511 
L 398.040842 195.261553 
L 402.140015 194.870482 
L 406.239189 195.120706 
L 410.338363 195.037327 
L 414.437536 195.072524 
L 418.53671 195.125695 
L 422.635883 195.050825 
L 426.735057 195.190674 
L 430.83423 195.564974 
L 434.933404 195.235952 
L 439.032577 195.012184 
L 443.131751 195.47923 
L 447.230925 194.778274 
L 451.330098 195.482803 
L 455.429272 195.855885 
L 459.528445 194.958182 
L 463.627619 194.913513 
L 467.726792 195.156487 
L 471.825966 195.051347 
" style="fill:none;stroke:#ffff00;stroke-dasharray:5.55,2.4;stroke-dashoffset:0;stroke-width:1.5;"/>
   </g>
   <g id="line2d_30">
    <path clip-path="url(#p7e1532735e)" d="M 66.007784 166.154321 
L 70.106958 179.491639 
L 74.206131 185.521638 
L 78.305305 188.925606 
L 82.404478 191.365661 
L 86.503652 192.819925 
L 90.602825 192.723325 
L 94.701999 193.639508 
L 98.801173 194.267144 
L 102.900346 195.745299 
L 106.99952 195.974121 
L 111.098693 196.052471 
L 115.197867 196.506462 
L 119.29704 196.027822 
L 123.396214 195.599138 
L 127.495387 196.901481 
L 131.594561 196.032443 
L 135.693735 196.778336 
L 139.792908 196.470344 
L 143.892082 197.157389 
L 147.991255 196.285875 
L 152.090429 197.263271 
L 156.189602 196.859226 
L 160.288776 197.080936 
L 164.387949 197.053591 
L 168.487123 196.709305 
L 172.586296 197.109733 
L 176.68547 197.658127 
L 180.784644 196.647655 
L 184.883817 197.174086 
L 188.982991 197.019629 
L 193.082164 197.563021 
L 197.181338 196.734825 
L 201.280511 197.882273 
L 205.379685 196.700343 
L 209.478858 197.09248 
L 213.578032 196.649805 
L 217.677206 197.44117 
L 221.776379 196.666868 
L 225.875553 197.646587 
L 229.974726 197.35702 
L 234.0739 197.19467 
L 238.173073 197.39305 
L 242.272247 197.114226 
L 246.37142 196.992617 
L 250.470594 197.047813 
L 254.569768 196.75939 
L 258.668941 197.391227 
L 262.768115 197.57467 
L 266.867288 196.593445 
L 270.966462 196.860217 
L 275.065635 197.335949 
L 279.164809 197.135177 
L 283.263982 196.763379 
L 287.363156 196.734248 
L 291.46233 196.665865 
L 295.561503 196.77578 
L 299.660677 196.402596 
L 303.75985 196.949419 
L 307.859024 196.924147 
L 311.958197 196.836927 
L 316.057371 196.337727 
L 320.156544 197.332336 
L 324.255718 196.518086 
L 328.354892 195.919469 
L 332.454065 196.514334 
L 336.553239 196.95016 
L 340.652412 196.9468 
L 344.751586 195.984989 
L 348.850759 195.802829 
L 352.949933 196.637908 
L 357.049106 195.638009 
L 361.14828 196.42259 
L 365.247454 196.366691 
L 369.346627 196.327629 
L 373.445801 196.355805 
L 377.544974 196.658292 
L 381.644148 195.967641 
L 385.743321 196.085482 
L 389.842495 196.273388 
L 393.941668 196.108791 
L 398.040842 196.495572 
L 402.140015 196.164386 
L 406.239189 195.786317 
L 410.338363 196.236058 
L 414.437536 196.169166 
L 418.53671 195.706301 
L 422.635883 196.953106 
L 426.735057 196.177482 
L 430.83423 196.240891 
L 434.933404 196.183729 
L 439.032577 196.578885 
L 443.131751 196.748284 
L 447.230925 196.679643 
L 451.330098 196.627245 
L 455.429272 196.062376 
L 459.528445 195.933575 
L 463.627619 195.438643 
L 467.726792 196.20616 
L 471.825966 196.049745 
" style="fill:none;stroke:#008000;stroke-dasharray:5.55,2.4;stroke-dashoffset:0;stroke-width:1.5;"/>
   </g>
   <g id="patch_3">
    <path d="M 45.716875 224.64 
L 45.716875 7.2 
" style="fill:none;stroke:#ffffff;stroke-linecap:square;stroke-linejoin:miter;"/>
   </g>
   <g id="patch_4">
    <path d="M 492.116875 224.64 
L 492.116875 7.2 
" style="fill:none;stroke:#ffffff;stroke-linecap:square;stroke-linejoin:miter;"/>
   </g>
   <g id="patch_5">
    <path d="M 45.716875 224.64 
L 492.116875 224.64 
" style="fill:none;stroke:#ffffff;stroke-linecap:square;stroke-linejoin:miter;"/>
   </g>
   <g id="patch_6">
    <path d="M 45.716875 7.2 
L 492.116875 7.2 
" style="fill:none;stroke:#ffffff;stroke-linecap:square;stroke-linejoin:miter;"/>
   </g>
   <g id="legend_1">
    <g id="patch_7">
     <path d="M 499.116875 103.26875 
L 600.47 103.26875 
Q 602.47 103.26875 602.47 101.26875 
L 602.47 14.2 
Q 602.47 12.2 600.47 12.2 
L 499.116875 12.2 
Q 497.116875 12.2 497.116875 14.2 
L 497.116875 101.26875 
Q 497.116875 103.26875 499.116875 103.26875 
z
" style="fill:#e5e5e5;opacity:0.8;stroke:#cccccc;stroke-linejoin:miter;stroke-width:0.5;"/>
    </g>
    <g id="line2d_31">
     <path d="M 501.116875 20.298437 
L 521.116875 20.298437 
" style="fill:none;stroke:#ff0000;stroke-linecap:square;stroke-width:1.5;"/>
    </g>
    <g id="line2d_32"/>
    <g id="text_15">
     <!-- L2 1e-1(train) -->
     <g transform="translate(529.116875 23.798437)scale(0.1 -0.1)">
      <defs>
       <path d="M 628 4666 
L 1259 4666 
L 1259 531 
L 3531 531 
L 3531 0 
L 628 0 
L 628 4666 
z
" id="DejaVuSans-4c" transform="scale(0.015625)"/>
       <path d="M 313 2009 
L 1997 2009 
L 1997 1497 
L 313 1497 
L 313 2009 
z
" id="DejaVuSans-2d" transform="scale(0.015625)"/>
       <path d="M 1984 4856 
Q 1566 4138 1362 3434 
Q 1159 2731 1159 2009 
Q 1159 1288 1364 580 
Q 1569 -128 1984 -844 
L 1484 -844 
Q 1016 -109 783 600 
Q 550 1309 550 2009 
Q 550 2706 781 3412 
Q 1013 4119 1484 4856 
L 1984 4856 
z
" id="DejaVuSans-28" transform="scale(0.015625)"/>
       <path d="M 1172 4494 
L 1172 3500 
L 2356 3500 
L 2356 3053 
L 1172 3053 
L 1172 1153 
Q 1172 725 1289 603 
Q 1406 481 1766 481 
L 2356 481 
L 2356 0 
L 1766 0 
Q 1100 0 847 248 
Q 594 497 594 1153 
L 594 3053 
L 172 3053 
L 172 3500 
L 594 3500 
L 594 4494 
L 1172 4494 
z
" id="DejaVuSans-74" transform="scale(0.015625)"/>
       <path d="M 2194 1759 
Q 1497 1759 1228 1600 
Q 959 1441 959 1056 
Q 959 750 1161 570 
Q 1363 391 1709 391 
Q 2188 391 2477 730 
Q 2766 1069 2766 1631 
L 2766 1759 
L 2194 1759 
z
M 3341 1997 
L 3341 0 
L 2766 0 
L 2766 531 
Q 2569 213 2275 61 
Q 1981 -91 1556 -91 
Q 1019 -91 701 211 
Q 384 513 384 1019 
Q 384 1609 779 1909 
Q 1175 2209 1959 2209 
L 2766 2209 
L 2766 2266 
Q 2766 2663 2505 2880 
Q 2244 3097 1772 3097 
Q 1472 3097 1187 3025 
Q 903 2953 641 2809 
L 641 3341 
Q 956 3463 1253 3523 
Q 1550 3584 1831 3584 
Q 2591 3584 2966 3190 
Q 3341 2797 3341 1997 
z
" id="DejaVuSans-61" transform="scale(0.015625)"/>
       <path d="M 603 3500 
L 1178 3500 
L 1178 0 
L 603 0 
L 603 3500 
z
M 603 4863 
L 1178 4863 
L 1178 4134 
L 603 4134 
L 603 4863 
z
" id="DejaVuSans-69" transform="scale(0.015625)"/>
       <path d="M 513 4856 
L 1013 4856 
Q 1481 4119 1714 3412 
Q 1947 2706 1947 2009 
Q 1947 1309 1714 600 
Q 1481 -109 1013 -844 
L 513 -844 
Q 928 -128 1133 580 
Q 1338 1288 1338 2009 
Q 1338 2731 1133 3434 
Q 928 4138 513 4856 
z
" id="DejaVuSans-29" transform="scale(0.015625)"/>
      </defs>
      <use xlink:href="#DejaVuSans-4c"/>
      <use x="55.712891" xlink:href="#DejaVuSans-32"/>
      <use x="119.335938" xlink:href="#DejaVuSans-20"/>
      <use x="151.123047" xlink:href="#DejaVuSans-31"/>
      <use x="214.746094" xlink:href="#DejaVuSans-65"/>
      <use x="276.269531" xlink:href="#DejaVuSans-2d"/>
      <use x="312.353516" xlink:href="#DejaVuSans-31"/>
      <use x="375.976562" xlink:href="#DejaVuSans-28"/>
      <use x="414.990234" xlink:href="#DejaVuSans-74"/>
      <use x="454.199219" xlink:href="#DejaVuSans-72"/>
      <use x="495.3125" xlink:href="#DejaVuSans-61"/>
      <use x="556.591797" xlink:href="#DejaVuSans-69"/>
      <use x="584.375" xlink:href="#DejaVuSans-6e"/>
      <use x="647.753906" xlink:href="#DejaVuSans-29"/>
     </g>
    </g>
    <g id="line2d_33">
     <path d="M 501.116875 34.976562 
L 521.116875 34.976562 
" style="fill:none;stroke:#0000ff;stroke-linecap:square;stroke-width:1.5;"/>
    </g>
    <g id="line2d_34"/>
    <g id="text_16">
     <!-- L2 1e-3(train) -->
     <g transform="translate(529.116875 38.476562)scale(0.1 -0.1)">
      <use xlink:href="#DejaVuSans-4c"/>
      <use x="55.712891" xlink:href="#DejaVuSans-32"/>
      <use x="119.335938" xlink:href="#DejaVuSans-20"/>
      <use x="151.123047" xlink:href="#DejaVuSans-31"/>
      <use x="214.746094" xlink:href="#DejaVuSans-65"/>
      <use x="276.269531" xlink:href="#DejaVuSans-2d"/>
      <use x="312.353516" xlink:href="#DejaVuSans-33"/>
      <use x="375.976562" xlink:href="#DejaVuSans-28"/>
      <use x="414.990234" xlink:href="#DejaVuSans-74"/>
      <use x="454.199219" xlink:href="#DejaVuSans-72"/>
      <use x="495.3125" xlink:href="#DejaVuSans-61"/>
      <use x="556.591797" xlink:href="#DejaVuSans-69"/>
      <use x="584.375" xlink:href="#DejaVuSans-6e"/>
      <use x="647.753906" xlink:href="#DejaVuSans-29"/>
     </g>
    </g>
    <g id="line2d_35">
     <path d="M 501.116875 49.654687 
L 521.116875 49.654687 
" style="fill:none;stroke:#800080;stroke-linecap:square;stroke-width:1.5;"/>
    </g>
    <g id="line2d_36"/>
    <g id="text_17">
     <!-- L2 1e-4(train) -->
     <g transform="translate(529.116875 53.154687)scale(0.1 -0.1)">
      <use xlink:href="#DejaVuSans-4c"/>
      <use x="55.712891" xlink:href="#DejaVuSans-32"/>
      <use x="119.335938" xlink:href="#DejaVuSans-20"/>
      <use x="151.123047" xlink:href="#DejaVuSans-31"/>
      <use x="214.746094" xlink:href="#DejaVuSans-65"/>
      <use x="276.269531" xlink:href="#DejaVuSans-2d"/>
      <use x="312.353516" xlink:href="#DejaVuSans-34"/>
      <use x="375.976562" xlink:href="#DejaVuSans-28"/>
      <use x="414.990234" xlink:href="#DejaVuSans-74"/>
      <use x="454.199219" xlink:href="#DejaVuSans-72"/>
      <use x="495.3125" xlink:href="#DejaVuSans-61"/>
      <use x="556.591797" xlink:href="#DejaVuSans-69"/>
      <use x="584.375" xlink:href="#DejaVuSans-6e"/>
      <use x="647.753906" xlink:href="#DejaVuSans-29"/>
     </g>
    </g>
    <g id="line2d_37">
     <path d="M 501.116875 64.332812 
L 521.116875 64.332812 
" style="fill:none;stroke:#808080;stroke-dasharray:5.55,2.4;stroke-dashoffset:0;stroke-width:1.5;"/>
    </g>
    <g id="line2d_38"/>
    <g id="text_18">
     <!-- L2 1e-1(valid) -->
     <g transform="translate(529.116875 67.832812)scale(0.1 -0.1)">
      <defs>
       <path d="M 191 3500 
L 800 3500 
L 1894 563 
L 2988 3500 
L 3597 3500 
L 2284 0 
L 1503 0 
L 191 3500 
z
" id="DejaVuSans-76" transform="scale(0.015625)"/>
       <path d="M 603 4863 
L 1178 4863 
L 1178 0 
L 603 0 
L 603 4863 
z
" id="DejaVuSans-6c" transform="scale(0.015625)"/>
       <path d="M 2906 2969 
L 2906 4863 
L 3481 4863 
L 3481 0 
L 2906 0 
L 2906 525 
Q 2725 213 2448 61 
Q 2172 -91 1784 -91 
Q 1150 -91 751 415 
Q 353 922 353 1747 
Q 353 2572 751 3078 
Q 1150 3584 1784 3584 
Q 2172 3584 2448 3432 
Q 2725 3281 2906 2969 
z
M 947 1747 
Q 947 1113 1208 752 
Q 1469 391 1925 391 
Q 2381 391 2643 752 
Q 2906 1113 2906 1747 
Q 2906 2381 2643 2742 
Q 2381 3103 1925 3103 
Q 1469 3103 1208 2742 
Q 947 2381 947 1747 
z
" id="DejaVuSans-64" transform="scale(0.015625)"/>
      </defs>
      <use xlink:href="#DejaVuSans-4c"/>
      <use x="55.712891" xlink:href="#DejaVuSans-32"/>
      <use x="119.335938" xlink:href="#DejaVuSans-20"/>
      <use x="151.123047" xlink:href="#DejaVuSans-31"/>
      <use x="214.746094" xlink:href="#DejaVuSans-65"/>
      <use x="276.269531" xlink:href="#DejaVuSans-2d"/>
      <use x="312.353516" xlink:href="#DejaVuSans-31"/>
      <use x="375.976562" xlink:href="#DejaVuSans-28"/>
      <use x="414.990234" xlink:href="#DejaVuSans-76"/>
      <use x="474.169922" xlink:href="#DejaVuSans-61"/>
      <use x="535.449219" xlink:href="#DejaVuSans-6c"/>
      <use x="563.232422" xlink:href="#DejaVuSans-69"/>
      <use x="591.015625" xlink:href="#DejaVuSans-64"/>
      <use x="654.492188" xlink:href="#DejaVuSans-29"/>
     </g>
    </g>
    <g id="line2d_39">
     <path d="M 501.116875 79.010937 
L 521.116875 79.010937 
" style="fill:none;stroke:#ffff00;stroke-dasharray:5.55,2.4;stroke-dashoffset:0;stroke-width:1.5;"/>
    </g>
    <g id="line2d_40"/>
    <g id="text_19">
     <!-- L2 1e-3(valid) -->
     <g transform="translate(529.116875 82.510937)scale(0.1 -0.1)">
      <use xlink:href="#DejaVuSans-4c"/>
      <use x="55.712891" xlink:href="#DejaVuSans-32"/>
      <use x="119.335938" xlink:href="#DejaVuSans-20"/>
      <use x="151.123047" xlink:href="#DejaVuSans-31"/>
      <use x="214.746094" xlink:href="#DejaVuSans-65"/>
      <use x="276.269531" xlink:href="#DejaVuSans-2d"/>
      <use x="312.353516" xlink:href="#DejaVuSans-33"/>
      <use x="375.976562" xlink:href="#DejaVuSans-28"/>
      <use x="414.990234" xlink:href="#DejaVuSans-76"/>
      <use x="474.169922" xlink:href="#DejaVuSans-61"/>
      <use x="535.449219" xlink:href="#DejaVuSans-6c"/>
      <use x="563.232422" xlink:href="#DejaVuSans-69"/>
      <use x="591.015625" xlink:href="#DejaVuSans-64"/>
      <use x="654.492188" xlink:href="#DejaVuSans-29"/>
     </g>
    </g>
    <g id="line2d_41">
     <path d="M 501.116875 93.689062 
L 521.116875 93.689062 
" style="fill:none;stroke:#008000;stroke-dasharray:5.55,2.4;stroke-dashoffset:0;stroke-width:1.5;"/>
    </g>
    <g id="line2d_42"/>
    <g id="text_20">
     <!-- L2 1e-4(valid) -->
     <g transform="translate(529.116875 97.189062)scale(0.1 -0.1)">
      <use xlink:href="#DejaVuSans-4c"/>
      <use x="55.712891" xlink:href="#DejaVuSans-32"/>
      <use x="119.335938" xlink:href="#DejaVuSans-20"/>
      <use x="151.123047" xlink:href="#DejaVuSans-31"/>
      <use x="214.746094" xlink:href="#DejaVuSans-65"/>
      <use x="276.269531" xlink:href="#DejaVuSans-2d"/>
      <use x="312.353516" xlink:href="#DejaVuSans-34"/>
      <use x="375.976562" xlink:href="#DejaVuSans-28"/>
      <use x="414.990234" xlink:href="#DejaVuSans-76"/>
      <use x="474.169922" xlink:href="#DejaVuSans-61"/>
      <use x="535.449219" xlink:href="#DejaVuSans-6c"/>
      <use x="563.232422" xlink:href="#DejaVuSans-69"/>
      <use x="591.015625" xlink:href="#DejaVuSans-64"/>
      <use x="654.492188" xlink:href="#DejaVuSans-29"/>
     </g>
    </g>
   </g>
  </g>
 </g>
 <defs>
  <clipPath id="p7e1532735e">
   <rect height="217.44" width="446.4" x="45.716875" y="7.2"/>
  </clipPath>
 </defs>
</svg>
