<?xml version="1.0" encoding="utf-8" standalone="no"?>
<!DOCTYPE svg PUBLIC "-//W3C//DTD SVG 1.1//EN"
  "http://www.w3.org/Graphics/SVG/1.1/DTD/svg11.dtd">
<svg height="264.131875pt" version="1.1" viewBox="0 0 609.67 264.131875" width="609.67pt" xmlns="http://www.w3.org/2000/svg" xmlns:xlink="http://www.w3.org/1999/xlink">
 <metadata>
  <rdf:RDF xmlns:cc="http://creativecommons.org/ns#" xmlns:dc="http://purl.org/dc/elements/1.1/" xmlns:rdf="http://www.w3.org/1999/02/22-rdf-syntax-ns#">
   <cc:Work>
    <dc:type rdf:resource="http://purl.org/dc/dcmitype/StillImage"/>
    <dc:date>2021-11-04T18:07:23.255003</dc:date>
    <dc:format>image/svg+xml</dc:format>
    <dc:creator>
     <cc:Agent>
      <dc:title>Matplotlib v3.4.2, https://matplotlib.org/</dc:title>
     </cc:Agent>
    </dc:creator>
   </cc:Work>
  </rdf:RDF>
 </metadata>
 <defs>
  <style type="text/css">*{stroke-linecap:butt;stroke-linejoin:round;}</style>
 </defs>
 <g id="figure_1">
  <g id="patch_1">
   <path d="M 0 264.131875 
L 609.67 264.131875 
L 609.67 0 
L 0 0 
z
" style="fill:#ffffff;"/>
  </g>
  <g id="axes_1">
   <g id="patch_2">
    <path d="M 45.716875 224.64 
L 492.116875 224.64 
L 492.116875 7.2 
L 45.716875 7.2 
z
" style="fill:#e5e5e5;"/>
   </g>
   <g id="matplotlib.axis_1">
    <g id="xtick_1">
     <g id="line2d_1">
      <path clip-path="url(#pb49386913d)" d="M 61.908611 224.64 
L 61.908611 7.2 
" style="fill:none;stroke:#ffffff;stroke-linecap:square;stroke-width:0.8;"/>
     </g>
     <g id="line2d_2">
      <defs>
       <path d="M 0 0 
L 0 3.5 
" id="m4d92d08c47" style="stroke:#555555;stroke-width:0.8;"/>
      </defs>
      <g>
       <use style="fill:#555555;stroke:#555555;stroke-width:0.8;" x="61.908611" xlink:href="#m4d92d08c47" y="224.64"/>
      </g>
     </g>
     <g id="text_1">
      <!-- 0 -->
      <g style="fill:#555555;" transform="translate(58.727361 239.238437)scale(0.1 -0.1)">
       <defs>
        <path d="M 2034 4250 
Q 1547 4250 1301 3770 
Q 1056 3291 1056 2328 
Q 1056 1369 1301 889 
Q 1547 409 2034 409 
Q 2525 409 2770 889 
Q 3016 1369 3016 2328 
Q 3016 3291 2770 3770 
Q 2525 4250 2034 4250 
z
M 2034 4750 
Q 2819 4750 3233 4129 
Q 3647 3509 3647 2328 
Q 3647 1150 3233 529 
Q 2819 -91 2034 -91 
Q 1250 -91 836 529 
Q 422 1150 422 2328 
Q 422 3509 836 4129 
Q 1250 4750 2034 4750 
z
" id="DejaVuSans-30" transform="scale(0.015625)"/>
       </defs>
       <use xlink:href="#DejaVuSans-30"/>
      </g>
     </g>
    </g>
    <g id="xtick_2">
     <g id="line2d_3">
      <path clip-path="url(#pb49386913d)" d="M 143.892082 224.64 
L 143.892082 7.2 
" style="fill:none;stroke:#ffffff;stroke-linecap:square;stroke-width:0.8;"/>
     </g>
     <g id="line2d_4">
      <g>
       <use style="fill:#555555;stroke:#555555;stroke-width:0.8;" x="143.892082" xlink:href="#m4d92d08c47" y="224.64"/>
      </g>
     </g>
     <g id="text_2">
      <!-- 20 -->
      <g style="fill:#555555;" transform="translate(137.529582 239.238437)scale(0.1 -0.1)">
       <defs>
        <path d="M 1228 531 
L 3431 531 
L 3431 0 
L 469 0 
L 469 531 
Q 828 903 1448 1529 
Q 2069 2156 2228 2338 
Q 2531 2678 2651 2914 
Q 2772 3150 2772 3378 
Q 2772 3750 2511 3984 
Q 2250 4219 1831 4219 
Q 1534 4219 1204 4116 
Q 875 4013 500 3803 
L 500 4441 
Q 881 4594 1212 4672 
Q 1544 4750 1819 4750 
Q 2544 4750 2975 4387 
Q 3406 4025 3406 3419 
Q 3406 3131 3298 2873 
Q 3191 2616 2906 2266 
Q 2828 2175 2409 1742 
Q 1991 1309 1228 531 
z
" id="DejaVuSans-32" transform="scale(0.015625)"/>
       </defs>
       <use xlink:href="#DejaVuSans-32"/>
       <use x="63.623047" xlink:href="#DejaVuSans-30"/>
      </g>
     </g>
    </g>
    <g id="xtick_3">
     <g id="line2d_5">
      <path clip-path="url(#pb49386913d)" d="M 225.875553 224.64 
L 225.875553 7.2 
" style="fill:none;stroke:#ffffff;stroke-linecap:square;stroke-width:0.8;"/>
     </g>
     <g id="line2d_6">
      <g>
       <use style="fill:#555555;stroke:#555555;stroke-width:0.8;" x="225.875553" xlink:href="#m4d92d08c47" y="224.64"/>
      </g>
     </g>
     <g id="text_3">
      <!-- 40 -->
      <g style="fill:#555555;" transform="translate(219.513053 239.238437)scale(0.1 -0.1)">
       <defs>
        <path d="M 2419 4116 
L 825 1625 
L 2419 1625 
L 2419 4116 
z
M 2253 4666 
L 3047 4666 
L 3047 1625 
L 3713 1625 
L 3713 1100 
L 3047 1100 
L 3047 0 
L 2419 0 
L 2419 1100 
L 313 1100 
L 313 1709 
L 2253 4666 
z
" id="DejaVuSans-34" transform="scale(0.015625)"/>
       </defs>
       <use xlink:href="#DejaVuSans-34"/>
       <use x="63.623047" xlink:href="#DejaVuSans-30"/>
      </g>
     </g>
    </g>
    <g id="xtick_4">
     <g id="line2d_7">
      <path clip-path="url(#pb49386913d)" d="M 307.859024 224.64 
L 307.859024 7.2 
" style="fill:none;stroke:#ffffff;stroke-linecap:square;stroke-width:0.8;"/>
     </g>
     <g id="line2d_8">
      <g>
       <use style="fill:#555555;stroke:#555555;stroke-width:0.8;" x="307.859024" xlink:href="#m4d92d08c47" y="224.64"/>
      </g>
     </g>
     <g id="text_4">
      <!-- 60 -->
      <g style="fill:#555555;" transform="translate(301.496524 239.238437)scale(0.1 -0.1)">
       <defs>
        <path d="M 2113 2584 
Q 1688 2584 1439 2293 
Q 1191 2003 1191 1497 
Q 1191 994 1439 701 
Q 1688 409 2113 409 
Q 2538 409 2786 701 
Q 3034 994 3034 1497 
Q 3034 2003 2786 2293 
Q 2538 2584 2113 2584 
z
M 3366 4563 
L 3366 3988 
Q 3128 4100 2886 4159 
Q 2644 4219 2406 4219 
Q 1781 4219 1451 3797 
Q 1122 3375 1075 2522 
Q 1259 2794 1537 2939 
Q 1816 3084 2150 3084 
Q 2853 3084 3261 2657 
Q 3669 2231 3669 1497 
Q 3669 778 3244 343 
Q 2819 -91 2113 -91 
Q 1303 -91 875 529 
Q 447 1150 447 2328 
Q 447 3434 972 4092 
Q 1497 4750 2381 4750 
Q 2619 4750 2861 4703 
Q 3103 4656 3366 4563 
z
" id="DejaVuSans-36" transform="scale(0.015625)"/>
       </defs>
       <use xlink:href="#DejaVuSans-36"/>
       <use x="63.623047" xlink:href="#DejaVuSans-30"/>
      </g>
     </g>
    </g>
    <g id="xtick_5">
     <g id="line2d_9">
      <path clip-path="url(#pb49386913d)" d="M 389.842495 224.64 
L 389.842495 7.2 
" style="fill:none;stroke:#ffffff;stroke-linecap:square;stroke-width:0.8;"/>
     </g>
     <g id="line2d_10">
      <g>
       <use style="fill:#555555;stroke:#555555;stroke-width:0.8;" x="389.842495" xlink:href="#m4d92d08c47" y="224.64"/>
      </g>
     </g>
     <g id="text_5">
      <!-- 80 -->
      <g style="fill:#555555;" transform="translate(383.479995 239.238437)scale(0.1 -0.1)">
       <defs>
        <path d="M 2034 2216 
Q 1584 2216 1326 1975 
Q 1069 1734 1069 1313 
Q 1069 891 1326 650 
Q 1584 409 2034 409 
Q 2484 409 2743 651 
Q 3003 894 3003 1313 
Q 3003 1734 2745 1975 
Q 2488 2216 2034 2216 
z
M 1403 2484 
Q 997 2584 770 2862 
Q 544 3141 544 3541 
Q 544 4100 942 4425 
Q 1341 4750 2034 4750 
Q 2731 4750 3128 4425 
Q 3525 4100 3525 3541 
Q 3525 3141 3298 2862 
Q 3072 2584 2669 2484 
Q 3125 2378 3379 2068 
Q 3634 1759 3634 1313 
Q 3634 634 3220 271 
Q 2806 -91 2034 -91 
Q 1263 -91 848 271 
Q 434 634 434 1313 
Q 434 1759 690 2068 
Q 947 2378 1403 2484 
z
M 1172 3481 
Q 1172 3119 1398 2916 
Q 1625 2713 2034 2713 
Q 2441 2713 2670 2916 
Q 2900 3119 2900 3481 
Q 2900 3844 2670 4047 
Q 2441 4250 2034 4250 
Q 1625 4250 1398 4047 
Q 1172 3844 1172 3481 
z
" id="DejaVuSans-38" transform="scale(0.015625)"/>
       </defs>
       <use xlink:href="#DejaVuSans-38"/>
       <use x="63.623047" xlink:href="#DejaVuSans-30"/>
      </g>
     </g>
    </g>
    <g id="xtick_6">
     <g id="line2d_11">
      <path clip-path="url(#pb49386913d)" d="M 471.825966 224.64 
L 471.825966 7.2 
" style="fill:none;stroke:#ffffff;stroke-linecap:square;stroke-width:0.8;"/>
     </g>
     <g id="line2d_12">
      <g>
       <use style="fill:#555555;stroke:#555555;stroke-width:0.8;" x="471.825966" xlink:href="#m4d92d08c47" y="224.64"/>
      </g>
     </g>
     <g id="text_6">
      <!-- 100 -->
      <g style="fill:#555555;" transform="translate(462.282216 239.238437)scale(0.1 -0.1)">
       <defs>
        <path d="M 794 531 
L 1825 531 
L 1825 4091 
L 703 3866 
L 703 4441 
L 1819 4666 
L 2450 4666 
L 2450 531 
L 3481 531 
L 3481 0 
L 794 0 
L 794 531 
z
" id="DejaVuSans-31" transform="scale(0.015625)"/>
       </defs>
       <use xlink:href="#DejaVuSans-31"/>
       <use x="63.623047" xlink:href="#DejaVuSans-30"/>
       <use x="127.246094" xlink:href="#DejaVuSans-30"/>
      </g>
     </g>
    </g>
    <g id="text_7">
     <!-- Epoch number -->
     <g style="fill:#555555;" transform="translate(225.22 254.43625)scale(0.12 -0.12)">
      <defs>
       <path d="M 628 4666 
L 3578 4666 
L 3578 4134 
L 1259 4134 
L 1259 2753 
L 3481 2753 
L 3481 2222 
L 1259 2222 
L 1259 531 
L 3634 531 
L 3634 0 
L 628 0 
L 628 4666 
z
" id="DejaVuSans-45" transform="scale(0.015625)"/>
       <path d="M 1159 525 
L 1159 -1331 
L 581 -1331 
L 581 3500 
L 1159 3500 
L 1159 2969 
Q 1341 3281 1617 3432 
Q 1894 3584 2278 3584 
Q 2916 3584 3314 3078 
Q 3713 2572 3713 1747 
Q 3713 922 3314 415 
Q 2916 -91 2278 -91 
Q 1894 -91 1617 61 
Q 1341 213 1159 525 
z
M 3116 1747 
Q 3116 2381 2855 2742 
Q 2594 3103 2138 3103 
Q 1681 3103 1420 2742 
Q 1159 2381 1159 1747 
Q 1159 1113 1420 752 
Q 1681 391 2138 391 
Q 2594 391 2855 752 
Q 3116 1113 3116 1747 
z
" id="DejaVuSans-70" transform="scale(0.015625)"/>
       <path d="M 1959 3097 
Q 1497 3097 1228 2736 
Q 959 2375 959 1747 
Q 959 1119 1226 758 
Q 1494 397 1959 397 
Q 2419 397 2687 759 
Q 2956 1122 2956 1747 
Q 2956 2369 2687 2733 
Q 2419 3097 1959 3097 
z
M 1959 3584 
Q 2709 3584 3137 3096 
Q 3566 2609 3566 1747 
Q 3566 888 3137 398 
Q 2709 -91 1959 -91 
Q 1206 -91 779 398 
Q 353 888 353 1747 
Q 353 2609 779 3096 
Q 1206 3584 1959 3584 
z
" id="DejaVuSans-6f" transform="scale(0.015625)"/>
       <path d="M 3122 3366 
L 3122 2828 
Q 2878 2963 2633 3030 
Q 2388 3097 2138 3097 
Q 1578 3097 1268 2742 
Q 959 2388 959 1747 
Q 959 1106 1268 751 
Q 1578 397 2138 397 
Q 2388 397 2633 464 
Q 2878 531 3122 666 
L 3122 134 
Q 2881 22 2623 -34 
Q 2366 -91 2075 -91 
Q 1284 -91 818 406 
Q 353 903 353 1747 
Q 353 2603 823 3093 
Q 1294 3584 2113 3584 
Q 2378 3584 2631 3529 
Q 2884 3475 3122 3366 
z
" id="DejaVuSans-63" transform="scale(0.015625)"/>
       <path d="M 3513 2113 
L 3513 0 
L 2938 0 
L 2938 2094 
Q 2938 2591 2744 2837 
Q 2550 3084 2163 3084 
Q 1697 3084 1428 2787 
Q 1159 2491 1159 1978 
L 1159 0 
L 581 0 
L 581 4863 
L 1159 4863 
L 1159 2956 
Q 1366 3272 1645 3428 
Q 1925 3584 2291 3584 
Q 2894 3584 3203 3211 
Q 3513 2838 3513 2113 
z
" id="DejaVuSans-68" transform="scale(0.015625)"/>
       <path id="DejaVuSans-20" transform="scale(0.015625)"/>
       <path d="M 3513 2113 
L 3513 0 
L 2938 0 
L 2938 2094 
Q 2938 2591 2744 2837 
Q 2550 3084 2163 3084 
Q 1697 3084 1428 2787 
Q 1159 2491 1159 1978 
L 1159 0 
L 581 0 
L 581 3500 
L 1159 3500 
L 1159 2956 
Q 1366 3272 1645 3428 
Q 1925 3584 2291 3584 
Q 2894 3584 3203 3211 
Q 3513 2838 3513 2113 
z
" id="DejaVuSans-6e" transform="scale(0.015625)"/>
       <path d="M 544 1381 
L 544 3500 
L 1119 3500 
L 1119 1403 
Q 1119 906 1312 657 
Q 1506 409 1894 409 
Q 2359 409 2629 706 
Q 2900 1003 2900 1516 
L 2900 3500 
L 3475 3500 
L 3475 0 
L 2900 0 
L 2900 538 
Q 2691 219 2414 64 
Q 2138 -91 1772 -91 
Q 1169 -91 856 284 
Q 544 659 544 1381 
z
M 1991 3584 
L 1991 3584 
z
" id="DejaVuSans-75" transform="scale(0.015625)"/>
       <path d="M 3328 2828 
Q 3544 3216 3844 3400 
Q 4144 3584 4550 3584 
Q 5097 3584 5394 3201 
Q 5691 2819 5691 2113 
L 5691 0 
L 5113 0 
L 5113 2094 
Q 5113 2597 4934 2840 
Q 4756 3084 4391 3084 
Q 3944 3084 3684 2787 
Q 3425 2491 3425 1978 
L 3425 0 
L 2847 0 
L 2847 2094 
Q 2847 2600 2669 2842 
Q 2491 3084 2119 3084 
Q 1678 3084 1418 2786 
Q 1159 2488 1159 1978 
L 1159 0 
L 581 0 
L 581 3500 
L 1159 3500 
L 1159 2956 
Q 1356 3278 1631 3431 
Q 1906 3584 2284 3584 
Q 2666 3584 2933 3390 
Q 3200 3197 3328 2828 
z
" id="DejaVuSans-6d" transform="scale(0.015625)"/>
       <path d="M 3116 1747 
Q 3116 2381 2855 2742 
Q 2594 3103 2138 3103 
Q 1681 3103 1420 2742 
Q 1159 2381 1159 1747 
Q 1159 1113 1420 752 
Q 1681 391 2138 391 
Q 2594 391 2855 752 
Q 3116 1113 3116 1747 
z
M 1159 2969 
Q 1341 3281 1617 3432 
Q 1894 3584 2278 3584 
Q 2916 3584 3314 3078 
Q 3713 2572 3713 1747 
Q 3713 922 3314 415 
Q 2916 -91 2278 -91 
Q 1894 -91 1617 61 
Q 1341 213 1159 525 
L 1159 0 
L 581 0 
L 581 4863 
L 1159 4863 
L 1159 2969 
z
" id="DejaVuSans-62" transform="scale(0.015625)"/>
       <path d="M 3597 1894 
L 3597 1613 
L 953 1613 
Q 991 1019 1311 708 
Q 1631 397 2203 397 
Q 2534 397 2845 478 
Q 3156 559 3463 722 
L 3463 178 
Q 3153 47 2828 -22 
Q 2503 -91 2169 -91 
Q 1331 -91 842 396 
Q 353 884 353 1716 
Q 353 2575 817 3079 
Q 1281 3584 2069 3584 
Q 2775 3584 3186 3129 
Q 3597 2675 3597 1894 
z
M 3022 2063 
Q 3016 2534 2758 2815 
Q 2500 3097 2075 3097 
Q 1594 3097 1305 2825 
Q 1016 2553 972 2059 
L 3022 2063 
z
" id="DejaVuSans-65" transform="scale(0.015625)"/>
       <path d="M 2631 2963 
Q 2534 3019 2420 3045 
Q 2306 3072 2169 3072 
Q 1681 3072 1420 2755 
Q 1159 2438 1159 1844 
L 1159 0 
L 581 0 
L 581 3500 
L 1159 3500 
L 1159 2956 
Q 1341 3275 1631 3429 
Q 1922 3584 2338 3584 
Q 2397 3584 2469 3576 
Q 2541 3569 2628 3553 
L 2631 2963 
z
" id="DejaVuSans-72" transform="scale(0.015625)"/>
      </defs>
      <use xlink:href="#DejaVuSans-45"/>
      <use x="63.183594" xlink:href="#DejaVuSans-70"/>
      <use x="126.660156" xlink:href="#DejaVuSans-6f"/>
      <use x="187.841797" xlink:href="#DejaVuSans-63"/>
      <use x="242.822266" xlink:href="#DejaVuSans-68"/>
      <use x="306.201172" xlink:href="#DejaVuSans-20"/>
      <use x="337.988281" xlink:href="#DejaVuSans-6e"/>
      <use x="401.367188" xlink:href="#DejaVuSans-75"/>
      <use x="464.746094" xlink:href="#DejaVuSans-6d"/>
      <use x="562.158203" xlink:href="#DejaVuSans-62"/>
      <use x="625.634766" xlink:href="#DejaVuSans-65"/>
      <use x="687.158203" xlink:href="#DejaVuSans-72"/>
     </g>
    </g>
   </g>
   <g id="matplotlib.axis_2">
    <g id="ytick_1">
     <g id="line2d_13">
      <path clip-path="url(#pb49386913d)" d="M 45.716875 221.24261 
L 492.116875 221.24261 
" style="fill:none;stroke:#ffffff;stroke-linecap:square;stroke-width:0.8;"/>
     </g>
     <g id="line2d_14">
      <defs>
       <path d="M 0 0 
L -3.5 0 
" id="m98248963a9" style="stroke:#555555;stroke-width:0.8;"/>
      </defs>
      <g>
       <use style="fill:#555555;stroke:#555555;stroke-width:0.8;" x="45.716875" xlink:href="#m98248963a9" y="221.24261"/>
      </g>
     </g>
     <g id="text_8">
      <!-- 0.3 -->
      <g style="fill:#555555;" transform="translate(22.81375 225.041829)scale(0.1 -0.1)">
       <defs>
        <path d="M 684 794 
L 1344 794 
L 1344 0 
L 684 0 
L 684 794 
z
" id="DejaVuSans-2e" transform="scale(0.015625)"/>
        <path d="M 2597 2516 
Q 3050 2419 3304 2112 
Q 3559 1806 3559 1356 
Q 3559 666 3084 287 
Q 2609 -91 1734 -91 
Q 1441 -91 1130 -33 
Q 819 25 488 141 
L 488 750 
Q 750 597 1062 519 
Q 1375 441 1716 441 
Q 2309 441 2620 675 
Q 2931 909 2931 1356 
Q 2931 1769 2642 2001 
Q 2353 2234 1838 2234 
L 1294 2234 
L 1294 2753 
L 1863 2753 
Q 2328 2753 2575 2939 
Q 2822 3125 2822 3475 
Q 2822 3834 2567 4026 
Q 2313 4219 1838 4219 
Q 1578 4219 1281 4162 
Q 984 4106 628 3988 
L 628 4550 
Q 988 4650 1302 4700 
Q 1616 4750 1894 4750 
Q 2613 4750 3031 4423 
Q 3450 4097 3450 3541 
Q 3450 3153 3228 2886 
Q 3006 2619 2597 2516 
z
" id="DejaVuSans-33" transform="scale(0.015625)"/>
       </defs>
       <use xlink:href="#DejaVuSans-30"/>
       <use x="63.623047" xlink:href="#DejaVuSans-2e"/>
       <use x="95.410156" xlink:href="#DejaVuSans-33"/>
      </g>
     </g>
    </g>
    <g id="ytick_2">
     <g id="line2d_15">
      <path clip-path="url(#pb49386913d)" d="M 45.716875 187.641726 
L 492.116875 187.641726 
" style="fill:none;stroke:#ffffff;stroke-linecap:square;stroke-width:0.8;"/>
     </g>
     <g id="line2d_16">
      <g>
       <use style="fill:#555555;stroke:#555555;stroke-width:0.8;" x="45.716875" xlink:href="#m98248963a9" y="187.641726"/>
      </g>
     </g>
     <g id="text_9">
      <!-- 0.4 -->
      <g style="fill:#555555;" transform="translate(22.81375 191.440945)scale(0.1 -0.1)">
       <use xlink:href="#DejaVuSans-30"/>
       <use x="63.623047" xlink:href="#DejaVuSans-2e"/>
       <use x="95.410156" xlink:href="#DejaVuSans-34"/>
      </g>
     </g>
    </g>
    <g id="ytick_3">
     <g id="line2d_17">
      <path clip-path="url(#pb49386913d)" d="M 45.716875 154.040841 
L 492.116875 154.040841 
" style="fill:none;stroke:#ffffff;stroke-linecap:square;stroke-width:0.8;"/>
     </g>
     <g id="line2d_18">
      <g>
       <use style="fill:#555555;stroke:#555555;stroke-width:0.8;" x="45.716875" xlink:href="#m98248963a9" y="154.040841"/>
      </g>
     </g>
     <g id="text_10">
      <!-- 0.5 -->
      <g style="fill:#555555;" transform="translate(22.81375 157.84006)scale(0.1 -0.1)">
       <defs>
        <path d="M 691 4666 
L 3169 4666 
L 3169 4134 
L 1269 4134 
L 1269 2991 
Q 1406 3038 1543 3061 
Q 1681 3084 1819 3084 
Q 2600 3084 3056 2656 
Q 3513 2228 3513 1497 
Q 3513 744 3044 326 
Q 2575 -91 1722 -91 
Q 1428 -91 1123 -41 
Q 819 9 494 109 
L 494 744 
Q 775 591 1075 516 
Q 1375 441 1709 441 
Q 2250 441 2565 725 
Q 2881 1009 2881 1497 
Q 2881 1984 2565 2268 
Q 2250 2553 1709 2553 
Q 1456 2553 1204 2497 
Q 953 2441 691 2322 
L 691 4666 
z
" id="DejaVuSans-35" transform="scale(0.015625)"/>
       </defs>
       <use xlink:href="#DejaVuSans-30"/>
       <use x="63.623047" xlink:href="#DejaVuSans-2e"/>
       <use x="95.410156" xlink:href="#DejaVuSans-35"/>
      </g>
     </g>
    </g>
    <g id="ytick_4">
     <g id="line2d_19">
      <path clip-path="url(#pb49386913d)" d="M 45.716875 120.439957 
L 492.116875 120.439957 
" style="fill:none;stroke:#ffffff;stroke-linecap:square;stroke-width:0.8;"/>
     </g>
     <g id="line2d_20">
      <g>
       <use style="fill:#555555;stroke:#555555;stroke-width:0.8;" x="45.716875" xlink:href="#m98248963a9" y="120.439957"/>
      </g>
     </g>
     <g id="text_11">
      <!-- 0.6 -->
      <g style="fill:#555555;" transform="translate(22.81375 124.239176)scale(0.1 -0.1)">
       <use xlink:href="#DejaVuSans-30"/>
       <use x="63.623047" xlink:href="#DejaVuSans-2e"/>
       <use x="95.410156" xlink:href="#DejaVuSans-36"/>
      </g>
     </g>
    </g>
    <g id="ytick_5">
     <g id="line2d_21">
      <path clip-path="url(#pb49386913d)" d="M 45.716875 86.839072 
L 492.116875 86.839072 
" style="fill:none;stroke:#ffffff;stroke-linecap:square;stroke-width:0.8;"/>
     </g>
     <g id="line2d_22">
      <g>
       <use style="fill:#555555;stroke:#555555;stroke-width:0.8;" x="45.716875" xlink:href="#m98248963a9" y="86.839072"/>
      </g>
     </g>
     <g id="text_12">
      <!-- 0.7 -->
      <g style="fill:#555555;" transform="translate(22.81375 90.638291)scale(0.1 -0.1)">
       <defs>
        <path d="M 525 4666 
L 3525 4666 
L 3525 4397 
L 1831 0 
L 1172 0 
L 2766 4134 
L 525 4134 
L 525 4666 
z
" id="DejaVuSans-37" transform="scale(0.015625)"/>
       </defs>
       <use xlink:href="#DejaVuSans-30"/>
       <use x="63.623047" xlink:href="#DejaVuSans-2e"/>
       <use x="95.410156" xlink:href="#DejaVuSans-37"/>
      </g>
     </g>
    </g>
    <g id="ytick_6">
     <g id="line2d_23">
      <path clip-path="url(#pb49386913d)" d="M 45.716875 53.238188 
L 492.116875 53.238188 
" style="fill:none;stroke:#ffffff;stroke-linecap:square;stroke-width:0.8;"/>
     </g>
     <g id="line2d_24">
      <g>
       <use style="fill:#555555;stroke:#555555;stroke-width:0.8;" x="45.716875" xlink:href="#m98248963a9" y="53.238188"/>
      </g>
     </g>
     <g id="text_13">
      <!-- 0.8 -->
      <g style="fill:#555555;" transform="translate(22.81375 57.037407)scale(0.1 -0.1)">
       <use xlink:href="#DejaVuSans-30"/>
       <use x="63.623047" xlink:href="#DejaVuSans-2e"/>
       <use x="95.410156" xlink:href="#DejaVuSans-38"/>
      </g>
     </g>
    </g>
    <g id="ytick_7">
     <g id="line2d_25">
      <path clip-path="url(#pb49386913d)" d="M 45.716875 19.637304 
L 492.116875 19.637304 
" style="fill:none;stroke:#ffffff;stroke-linecap:square;stroke-width:0.8;"/>
     </g>
     <g id="line2d_26">
      <g>
       <use style="fill:#555555;stroke:#555555;stroke-width:0.8;" x="45.716875" xlink:href="#m98248963a9" y="19.637304"/>
      </g>
     </g>
     <g id="text_14">
      <!-- 0.9 -->
      <g style="fill:#555555;" transform="translate(22.81375 23.436522)scale(0.1 -0.1)">
       <defs>
        <path d="M 703 97 
L 703 672 
Q 941 559 1184 500 
Q 1428 441 1663 441 
Q 2288 441 2617 861 
Q 2947 1281 2994 2138 
Q 2813 1869 2534 1725 
Q 2256 1581 1919 1581 
Q 1219 1581 811 2004 
Q 403 2428 403 3163 
Q 403 3881 828 4315 
Q 1253 4750 1959 4750 
Q 2769 4750 3195 4129 
Q 3622 3509 3622 2328 
Q 3622 1225 3098 567 
Q 2575 -91 1691 -91 
Q 1453 -91 1209 -44 
Q 966 3 703 97 
z
M 1959 2075 
Q 2384 2075 2632 2365 
Q 2881 2656 2881 3163 
Q 2881 3666 2632 3958 
Q 2384 4250 1959 4250 
Q 1534 4250 1286 3958 
Q 1038 3666 1038 3163 
Q 1038 2656 1286 2365 
Q 1534 2075 1959 2075 
z
" id="DejaVuSans-39" transform="scale(0.015625)"/>
       </defs>
       <use xlink:href="#DejaVuSans-30"/>
       <use x="63.623047" xlink:href="#DejaVuSans-2e"/>
       <use x="95.410156" xlink:href="#DejaVuSans-39"/>
      </g>
     </g>
    </g>
    <g id="text_15">
     <!-- Accuracy -->
     <g style="fill:#555555;" transform="translate(16.318125 143.31375)rotate(-90)scale(0.12 -0.12)">
      <defs>
       <path d="M 2188 4044 
L 1331 1722 
L 3047 1722 
L 2188 4044 
z
M 1831 4666 
L 2547 4666 
L 4325 0 
L 3669 0 
L 3244 1197 
L 1141 1197 
L 716 0 
L 50 0 
L 1831 4666 
z
" id="DejaVuSans-41" transform="scale(0.015625)"/>
       <path d="M 2194 1759 
Q 1497 1759 1228 1600 
Q 959 1441 959 1056 
Q 959 750 1161 570 
Q 1363 391 1709 391 
Q 2188 391 2477 730 
Q 2766 1069 2766 1631 
L 2766 1759 
L 2194 1759 
z
M 3341 1997 
L 3341 0 
L 2766 0 
L 2766 531 
Q 2569 213 2275 61 
Q 1981 -91 1556 -91 
Q 1019 -91 701 211 
Q 384 513 384 1019 
Q 384 1609 779 1909 
Q 1175 2209 1959 2209 
L 2766 2209 
L 2766 2266 
Q 2766 2663 2505 2880 
Q 2244 3097 1772 3097 
Q 1472 3097 1187 3025 
Q 903 2953 641 2809 
L 641 3341 
Q 956 3463 1253 3523 
Q 1550 3584 1831 3584 
Q 2591 3584 2966 3190 
Q 3341 2797 3341 1997 
z
" id="DejaVuSans-61" transform="scale(0.015625)"/>
       <path d="M 2059 -325 
Q 1816 -950 1584 -1140 
Q 1353 -1331 966 -1331 
L 506 -1331 
L 506 -850 
L 844 -850 
Q 1081 -850 1212 -737 
Q 1344 -625 1503 -206 
L 1606 56 
L 191 3500 
L 800 3500 
L 1894 763 
L 2988 3500 
L 3597 3500 
L 2059 -325 
z
" id="DejaVuSans-79" transform="scale(0.015625)"/>
      </defs>
      <use xlink:href="#DejaVuSans-41"/>
      <use x="66.658203" xlink:href="#DejaVuSans-63"/>
      <use x="121.638672" xlink:href="#DejaVuSans-63"/>
      <use x="176.619141" xlink:href="#DejaVuSans-75"/>
      <use x="239.998047" xlink:href="#DejaVuSans-72"/>
      <use x="281.111328" xlink:href="#DejaVuSans-61"/>
      <use x="342.390625" xlink:href="#DejaVuSans-63"/>
      <use x="397.371094" xlink:href="#DejaVuSans-79"/>
     </g>
    </g>
   </g>
   <g id="line2d_27">
    <path clip-path="url(#pb49386913d)" d="M 66.007784 205.917247 
L 70.106958 205.708921 
L 74.206131 213.500967 
L 78.305305 204.237203 
L 82.404478 206.80431 
L 86.503652 196.643403 
L 90.602825 200.426862 
L 94.701999 198.145362 
L 98.801173 195.692498 
L 102.900346 197.869835 
L 106.99952 196.767726 
L 111.098693 201.817939 
L 115.197867 198.884582 
L 119.29704 199.109708 
L 123.396214 198.293206 
L 127.495387 199.348274 
L 131.594561 193.629403 
L 135.693735 198.82746 
L 139.792908 206.989115 
L 143.892082 199.788446 
L 147.991255 207.899699 
L 152.090429 192.258487 
L 156.189602 206.485102 
L 160.288776 194.664311 
L 164.387949 192.900264 
L 168.487123 192.73226 
L 172.586296 193.595803 
L 176.68547 196.969331 
L 180.784644 202.500037 
L 184.883817 191.677192 
L 188.982991 202.547078 
L 193.082164 201.586093 
L 197.181338 205.342672 
L 201.280511 208.29619 
L 205.379685 198.296566 
L 209.478858 200.447023 
L 213.578032 198.034479 
L 217.677206 197.389342 
L 221.776379 195.984825 
L 225.875553 196.243552 
L 229.974726 190.393638 
L 234.0739 193.86797 
L 238.173073 196.787887 
L 242.272247 200.33278 
L 246.37142 190.544842 
L 250.470594 195.262406 
L 254.569768 198.780419 
L 258.668941 192.409691 
L 262.768115 195.517773 
L 266.867288 197.963918 
L 270.966462 198.42425 
L 275.065635 193.226193 
L 279.164809 194.083015 
L 283.263982 193.602523 
L 287.363156 198.911463 
L 291.46233 197.036533 
L 295.561503 204.089359 
L 299.660677 196.508999 
L 303.75985 195.998266 
L 307.859024 197.261659 
L 311.958197 191.260541 
L 316.057371 193.622683 
L 320.156544 193.169071 
L 324.255718 202.167388 
L 328.354892 196.17299 
L 332.454065 194.220779 
L 336.553239 194.146857 
L 340.652412 185.682794 
L 344.751586 195.521133 
L 348.850759 203.592066 
L 352.949933 194.835675 
L 357.049106 195.826901 
L 361.14828 194.953278 
L 365.247454 196.125949 
L 369.346627 197.060054 
L 373.445801 192.026641 
L 377.544974 205.803004 
L 381.644148 197.349021 
L 385.743321 195.890743 
L 389.842495 194.570228 
L 393.941668 196.623242 
L 398.040842 201.962423 
L 402.140015 193.353876 
L 406.239189 193.87133 
L 410.338363 195.507693 
L 414.437536 198.0748 
L 418.53671 192.466813 
L 422.635883 194.573588 
L 426.735057 190.403719 
L 430.83423 188.720314 
L 434.933404 194.832315 
L 439.032577 195.107842 
L 443.131751 198.007599 
L 447.230925 196.213311 
L 451.330098 198.350328 
L 455.429272 194.550068 
L 459.528445 191.529348 
L 463.627619 194.089736 
L 467.726792 199.660762 
L 471.825966 191.774635 
" style="fill:none;stroke:#ff0000;stroke-linecap:square;stroke-width:1.5;"/>
   </g>
   <g id="line2d_28">
    <path clip-path="url(#pb49386913d)" d="M 66.007784 73.721287 
L 70.106958 62.246585 
L 74.206131 56.006901 
L 78.305305 49.673134 
L 82.404478 49.928501 
L 86.503652 46.121521 
L 90.602825 45.251258 
L 94.701999 46.353367 
L 98.801173 44.098747 
L 102.900346 42.28094 
L 106.99952 41.397236 
L 111.098693 41.5518 
L 115.197867 41.776926 
L 119.29704 42.022213 
L 123.396214 40.432891 
L 127.495387 40.718498 
L 131.594561 39.922158 
L 135.693735 38.910771 
L 139.792908 38.443719 
L 143.892082 38.719246 
L 147.991255 39.387903 
L 152.090429 38.914131 
L 156.189602 39.277021 
L 160.288776 37.640657 
L 164.387949 38.329476 
L 168.487123 38.10435 
L 172.586296 37.610417 
L 176.68547 38.830129 
L 180.784644 38.779727 
L 184.883817 37.331529 
L 188.982991 37.71794 
L 193.082164 39.129177 
L 197.181338 38.467239 
L 201.280511 37.822102 
L 205.379685 37.36513 
L 209.478858 38.252194 
L 213.578032 37.852343 
L 217.677206 38.10435 
L 221.776379 38.043868 
L 225.875553 39.216539 
L 229.974726 37.600336 
L 234.0739 37.217286 
L 238.173073 37.049282 
L 242.272247 36.948479 
L 246.37142 36.864477 
L 250.470594 37.432332 
L 254.569768 36.790555 
L 258.668941 38.238753 
L 262.768115 36.898078 
L 266.867288 37.311369 
L 270.966462 36.874557 
L 275.065635 36.972 
L 279.164809 37.875864 
L 283.263982 37.805302 
L 287.363156 36.004294 
L 291.46233 37.828822 
L 295.561503 37.187046 
L 299.660677 36.441106 
L 303.75985 36.652791 
L 307.859024 37.062722 
L 311.958197 37.072803 
L 316.057371 37.36849 
L 320.156544 36.656152 
L 324.255718 35.85309 
L 328.354892 37.119844 
L 332.454065 37.838903 
L 336.553239 37.129924 
L 340.652412 36.646071 
L 344.751586 37.153445 
L 348.850759 37.570096 
L 352.949933 37.324809 
L 357.049106 36.948479 
L 361.14828 35.44316 
L 365.247454 36.904798 
L 369.346627 36.501587 
L 373.445801 35.984134 
L 377.544974 36.847677 
L 381.644148 37.875864 
L 385.743321 36.236141 
L 389.842495 35.675006 
L 393.941668 38.016987 
L 398.040842 36.148778 
L 402.140015 36.239501 
L 406.239189 37.163525 
L 410.338363 36.562069 
L 414.437536 36.777115 
L 418.53671 36.619191 
L 422.635883 36.840956 
L 426.735057 36.373904 
L 430.83423 35.597724 
L 434.933404 37.459213 
L 439.032577 37.076163 
L 443.131751 35.876611 
L 447.230925 37.627217 
L 451.330098 36.528468 
L 455.429272 35.382678 
L 459.528445 36.642711 
L 463.627619 37.543215 
L 467.726792 37.590256 
L 471.825966 37.156805 
" style="fill:none;stroke:#0000ff;stroke-linecap:square;stroke-width:1.5;"/>
   </g>
   <g id="line2d_29">
    <path clip-path="url(#pb49386913d)" d="M 66.007784 73.422239 
L 70.106958 57.411418 
L 74.206131 49.437928 
L 78.305305 45.34534 
L 82.404478 41.860929 
L 86.503652 38.762927 
L 90.602825 38.920851 
L 94.701999 37.052642 
L 98.801173 35.772448 
L 102.900346 33.598471 
L 106.99952 32.341798 
L 111.098693 31.562257 
L 115.197867 30.91376 
L 119.29704 31.256489 
L 123.396214 32.580364 
L 127.495387 29.072432 
L 131.594561 29.448762 
L 135.693735 28.974989 
L 139.792908 28.763304 
L 143.892082 27.163902 
L 147.991255 28.712902 
L 152.090429 26.401162 
L 156.189602 26.454923 
L 160.288776 25.420016 
L 164.387949 25.752665 
L 168.487123 26.105474 
L 172.586296 24.600154 
L 176.68547 23.891176 
L 180.784644 25.57458 
L 184.883817 24.183503 
L 188.982991 24.07598 
L 193.082164 23.283 
L 197.181338 25.245291 
L 201.280511 22.459778 
L 205.379685 24.0659 
L 209.478858 23.877735 
L 213.578032 23.723171 
L 217.677206 22.701704 
L 221.776379 23.813894 
L 225.875553 21.599595 
L 229.974726 21.78104 
L 234.0739 21.532393 
L 238.173073 21.922164 
L 242.272247 22.362335 
L 246.37142 22.449698 
L 250.470594 22.14393 
L 254.569768 21.875122 
L 258.668941 21.03174 
L 262.768115 20.584849 
L 266.867288 21.955765 
L 270.966462 20.998139 
L 275.065635 19.87251 
L 279.164809 20.497486 
L 283.263982 20.416844 
L 287.363156 20.534447 
L 291.46233 20.137957 
L 295.561503 21.088862 
L 299.660677 20.63189 
L 303.75985 19.701145 
L 307.859024 19.966592 
L 311.958197 19.754907 
L 316.057371 20.826775 
L 320.156544 19.284494 
L 324.255718 20.514287 
L 328.354892 20.816695 
L 332.454065 20.047234 
L 336.553239 19.49282 
L 340.652412 18.881284 
L 344.751586 21.092222 
L 348.850759 21.357669 
L 352.949933 20.235399 
L 357.049106 20.904057 
L 361.14828 19.617143 
L 365.247454 19.341616 
L 369.346627 19.187052 
L 373.445801 19.395377 
L 377.544974 19.435698 
L 381.644148 20.893977 
L 385.743321 20.403404 
L 389.842495 19.375217 
L 393.941668 19.576822 
L 398.040842 18.847683 
L 402.140015 19.4861 
L 406.239189 18.709919 
L 410.338363 18.595676 
L 414.437536 19.422258 
L 418.53671 19.89939 
L 422.635883 17.083636 
L 426.735057 18.804002 
L 430.83423 18.7368 
L 434.933404 19.015687 
L 439.032577 18.703199 
L 443.131751 18.266387 
L 447.230925 17.463326 
L 451.330098 17.433086 
L 455.429272 19.180332 
L 459.528445 19.274414 
L 463.627619 20.154757 
L 467.726792 18.662878 
L 471.825966 19.14001 
" style="fill:none;stroke:#800080;stroke-linecap:square;stroke-width:1.5;"/>
   </g>
   <g id="line2d_30">
    <path clip-path="url(#pb49386913d)" d="M 66.007784 206.972868 
L 70.106958 204.633566 
L 74.206131 214.756364 
L 78.305305 205.399155 
L 82.404478 206.696405 
L 86.503652 198.721511 
L 90.602825 200.997014 
L 94.701999 199.125572 
L 98.801173 197.041467 
L 102.900346 198.934175 
L 106.99952 197.466795 
L 111.098693 201.720071 
L 115.197867 198.742778 
L 119.29704 200.635486 
L 123.396214 199.508367 
L 127.495387 199.253171 
L 131.594561 194.170505 
L 135.693735 198.764044 
L 139.792908 208.355182 
L 143.892082 199.210638 
L 147.991255 210.184091 
L 152.090429 191.916269 
L 156.189602 206.100946 
L 160.288776 194.127973 
L 164.387949 193.702645 
L 168.487123 193.234784 
L 172.586296 194.808497 
L 176.68547 196.828803 
L 180.784644 200.571686 
L 184.883817 193.277317 
L 188.982991 203.01732 
L 193.082164 201.039547 
L 197.181338 205.271557 
L 201.280511 208.121252 
L 205.379685 197.445528 
L 209.478858 200.678018 
L 213.578032 198.827843 
L 217.677206 197.998454 
L 221.776379 197.062733 
L 225.875553 197.488061 
L 229.974726 191.639806 
L 234.0739 192.469195 
L 238.173073 197.78579 
L 242.272247 201.188412 
L 246.37142 190.002294 
L 250.470594 196.212078 
L 254.569768 199.125572 
L 258.668941 191.746138 
L 262.768115 195.935615 
L 266.867288 198.912909 
L 270.966462 198.31745 
L 275.065635 192.873256 
L 279.164809 194.872296 
L 283.263982 194.468235 
L 287.363156 197.296664 
L 291.46233 199.104306 
L 295.561503 204.101906 
L 299.660677 196.935135 
L 303.75985 197.126532 
L 307.859024 197.636926 
L 311.958197 190.980548 
L 316.057371 194.31937 
L 320.156544 194.191772 
L 324.255718 203.208718 
L 328.354892 197.381729 
L 332.454065 195.021161 
L 336.553239 196.275877 
L 340.652412 186.791071 
L 344.751586 196.127013 
L 348.850759 204.01684 
L 352.949933 196.339676 
L 357.049106 195.616619 
L 361.14828 196.488541 
L 365.247454 195.659152 
L 369.346627 197.55186 
L 373.445801 191.937535 
L 377.544974 206.738937 
L 381.644148 197.445528 
L 385.743321 196.78627 
L 389.842495 194.744698 
L 393.941668 197.424262 
L 398.040842 201.78387 
L 402.140015 192.745658 
L 406.239189 194.659632 
L 410.338363 195.510287 
L 414.437536 199.146839 
L 418.53671 194.106706 
L 422.635883 194.85103 
L 426.735057 189.85343 
L 430.83423 187.535394 
L 434.933404 196.297144 
L 439.032577 193.894042 
L 443.131751 198.019721 
L 447.230925 197.169065 
L 451.330098 199.572166 
L 455.429272 194.638366 
L 459.528445 193.362383 
L 463.627619 193.383649 
L 467.726792 197.828323 
L 471.825966 191.78867 
" style="fill:none;stroke:#808080;stroke-dasharray:5.55,2.4;stroke-dashoffset:0;stroke-width:1.5;"/>
   </g>
   <g id="line2d_31">
    <path clip-path="url(#pb49386913d)" d="M 66.007784 75.716754 
L 70.106958 65.849153 
L 74.206131 59.8095 
L 78.305305 53.642249 
L 82.404478 53.004258 
L 86.503652 49.8781 
L 90.602825 49.176309 
L 94.701999 49.8781 
L 98.801173 47.985392 
L 102.900346 46.794474 
L 106.99952 45.454692 
L 111.098693 45.901286 
L 115.197867 46.028884 
L 119.29704 46.007618 
L 123.396214 44.412639 
L 127.495387 44.604037 
L 131.594561 44.540238 
L 135.693735 43.242988 
L 139.792908 43.434386 
L 143.892082 44.199975 
L 147.991255 43.923512 
L 152.090429 43.966045 
L 156.189602 43.561984 
L 160.288776 42.243468 
L 164.387949 43.009058 
L 168.487123 42.392333 
L 172.586296 42.817661 
L 176.68547 42.817661 
L 180.784644 43.434386 
L 184.883817 41.690542 
L 188.982991 42.3498 
L 193.082164 43.689582 
L 197.181338 43.200455 
L 201.280511 42.817661 
L 205.379685 41.64801 
L 209.478858 43.264255 
L 213.578032 41.988272 
L 217.677206 42.264735 
L 221.776379 42.753861 
L 225.875553 43.370587 
L 229.974726 42.200935 
L 234.0739 41.690542 
L 238.173073 41.945739 
L 242.272247 41.35028 
L 246.37142 41.456612 
L 250.470594 42.498665 
L 254.569768 40.733555 
L 258.668941 42.541198 
L 262.768115 41.669276 
L 266.867288 42.413599 
L 270.966462 41.58421 
L 275.065635 41.329014 
L 279.164809 43.370587 
L 283.263982 42.626263 
L 287.363156 40.11683 
L 291.46233 42.541198 
L 295.561503 42.3498 
L 299.660677 40.839887 
L 303.75985 41.435346 
L 307.859024 42.477398 
L 311.958197 42.030804 
L 316.057371 41.924473 
L 320.156544 41.626743 
L 324.255718 40.712289 
L 328.354892 41.988272 
L 332.454065 42.094604 
L 336.553239 42.030804 
L 340.652412 41.243948 
L 344.751586 42.541198 
L 348.850759 41.967005 
L 352.949933 41.201416 
L 357.049106 41.733075 
L 361.14828 40.308227 
L 365.247454 42.052071 
L 369.346627 40.839887 
L 373.445801 40.499625 
L 377.544974 42.307267 
L 381.644148 42.732595 
L 385.743321 41.201416 
L 389.842495 40.776088 
L 393.941668 43.221722 
L 398.040842 40.967485 
L 402.140015 41.329014 
L 406.239189 41.58421 
L 410.338363 41.626743 
L 414.437536 41.818141 
L 418.53671 41.414079 
L 422.635883 42.286001 
L 426.735057 41.669276 
L 430.83423 39.925433 
L 434.933404 42.307267 
L 439.032577 41.052551 
L 443.131751 40.180629 
L 447.230925 42.222202 
L 451.330098 40.776088 
L 455.429272 39.670236 
L 459.528445 41.562944 
L 463.627619 41.754341 
L 467.726792 42.434866 
L 471.825966 41.58421 
" style="fill:none;stroke:#ffff00;stroke-dasharray:5.55,2.4;stroke-dashoffset:0;stroke-width:1.5;"/>
   </g>
   <g id="line2d_32">
    <path clip-path="url(#pb49386913d)" d="M 66.007784 75.482824 
L 70.106958 59.362906 
L 74.206131 53.429585 
L 78.305305 49.729235 
L 82.404478 47.070937 
L 86.503652 44.816701 
L 90.602825 46.560544 
L 94.701999 45.858753 
L 98.801173 44.795434 
L 102.900346 41.265215 
L 106.99952 41.690542 
L 111.098693 40.988752 
L 115.197867 41.180149 
L 119.29704 41.477878 
L 123.396214 43.370587 
L 127.495387 40.712289 
L 131.594561 41.775608 
L 135.693735 40.861153 
L 139.792908 41.477878 
L 143.892082 39.776568 
L 147.991255 41.137616 
L 152.090429 40.627223 
L 156.189602 40.35076 
L 160.288776 40.478358 
L 164.387949 40.435826 
L 168.487123 40.818621 
L 172.586296 39.691502 
L 176.68547 38.862113 
L 180.784644 41.307747 
L 184.883817 40.58469 
L 188.982991 39.925433 
L 193.082164 38.989712 
L 197.181338 41.456612 
L 201.280511 39.712769 
L 205.379685 40.58469 
L 209.478858 39.734035 
L 213.578032 40.499625 
L 217.677206 39.64897 
L 221.776379 41.605477 
L 225.875553 39.436306 
L 229.974726 39.542638 
L 234.0739 40.35076 
L 238.173073 39.053511 
L 242.272247 40.64849 
L 246.37142 39.755301 
L 250.470594 40.58469 
L 254.569768 39.797834 
L 258.668941 38.88338 
L 262.768115 39.329974 
L 266.867288 40.435826 
L 270.966462 40.201896 
L 275.065635 39.500105 
L 279.164809 39.925433 
L 283.263982 39.64897 
L 287.363156 40.308227 
L 291.46233 39.542638 
L 295.561503 40.159363 
L 299.660677 40.223162 
L 303.75985 40.563424 
L 307.859024 40.478358 
L 311.958197 39.415039 
L 316.057371 41.158883 
L 320.156544 39.478839 
L 324.255718 40.457092 
L 328.354892 40.754821 
L 332.454065 41.669276 
L 336.553239 39.627703 
L 340.652412 39.691502 
L 344.751586 41.88194 
L 348.850759 41.477878 
L 352.949933 41.286481 
L 357.049106 41.775608 
L 361.14828 41.158883 
L 365.247454 41.265215 
L 369.346627 40.754821 
L 373.445801 40.095564 
L 377.544974 40.988752 
L 381.644148 41.031284 
L 385.743321 41.35028 
L 389.842495 40.542158 
L 393.941668 41.477878 
L 398.040842 41.64801 
L 402.140015 39.946699 
L 406.239189 40.35076 
L 410.338363 41.286481 
L 414.437536 42.052071 
L 418.53671 41.903206 
L 422.635883 40.244428 
L 426.735057 41.58421 
L 430.83423 40.839887 
L 434.933404 41.095084 
L 439.032577 40.414559 
L 443.131751 39.64897 
L 447.230925 39.436306 
L 451.330098 40.095564 
L 455.429272 41.605477 
L 459.528445 40.818621 
L 463.627619 42.307267 
L 467.726792 39.755301 
L 471.825966 41.626743 
" style="fill:none;stroke:#008000;stroke-dasharray:5.55,2.4;stroke-dashoffset:0;stroke-width:1.5;"/>
   </g>
   <g id="patch_3">
    <path d="M 45.716875 224.64 
L 45.716875 7.2 
" style="fill:none;stroke:#ffffff;stroke-linecap:square;stroke-linejoin:miter;"/>
   </g>
   <g id="patch_4">
    <path d="M 492.116875 224.64 
L 492.116875 7.2 
" style="fill:none;stroke:#ffffff;stroke-linecap:square;stroke-linejoin:miter;"/>
   </g>
   <g id="patch_5">
    <path d="M 45.716875 224.64 
L 492.116875 224.64 
" style="fill:none;stroke:#ffffff;stroke-linecap:square;stroke-linejoin:miter;"/>
   </g>
   <g id="patch_6">
    <path d="M 45.716875 7.2 
L 492.116875 7.2 
" style="fill:none;stroke:#ffffff;stroke-linecap:square;stroke-linejoin:miter;"/>
   </g>
   <g id="legend_1">
    <g id="patch_7">
     <path d="M 499.116875 103.26875 
L 600.47 103.26875 
Q 602.47 103.26875 602.47 101.26875 
L 602.47 14.2 
Q 602.47 12.2 600.47 12.2 
L 499.116875 12.2 
Q 497.116875 12.2 497.116875 14.2 
L 497.116875 101.26875 
Q 497.116875 103.26875 499.116875 103.26875 
z
" style="fill:#e5e5e5;opacity:0.8;stroke:#cccccc;stroke-linejoin:miter;stroke-width:0.5;"/>
    </g>
    <g id="line2d_33">
     <path d="M 501.116875 20.298437 
L 521.116875 20.298437 
" style="fill:none;stroke:#ff0000;stroke-linecap:square;stroke-width:1.5;"/>
    </g>
    <g id="line2d_34"/>
    <g id="text_16">
     <!-- L2 1e-1(train) -->
     <g transform="translate(529.116875 23.798437)scale(0.1 -0.1)">
      <defs>
       <path d="M 628 4666 
L 1259 4666 
L 1259 531 
L 3531 531 
L 3531 0 
L 628 0 
L 628 4666 
z
" id="DejaVuSans-4c" transform="scale(0.015625)"/>
       <path d="M 313 2009 
L 1997 2009 
L 1997 1497 
L 313 1497 
L 313 2009 
z
" id="DejaVuSans-2d" transform="scale(0.015625)"/>
       <path d="M 1984 4856 
Q 1566 4138 1362 3434 
Q 1159 2731 1159 2009 
Q 1159 1288 1364 580 
Q 1569 -128 1984 -844 
L 1484 -844 
Q 1016 -109 783 600 
Q 550 1309 550 2009 
Q 550 2706 781 3412 
Q 1013 4119 1484 4856 
L 1984 4856 
z
" id="DejaVuSans-28" transform="scale(0.015625)"/>
       <path d="M 1172 4494 
L 1172 3500 
L 2356 3500 
L 2356 3053 
L 1172 3053 
L 1172 1153 
Q 1172 725 1289 603 
Q 1406 481 1766 481 
L 2356 481 
L 2356 0 
L 1766 0 
Q 1100 0 847 248 
Q 594 497 594 1153 
L 594 3053 
L 172 3053 
L 172 3500 
L 594 3500 
L 594 4494 
L 1172 4494 
z
" id="DejaVuSans-74" transform="scale(0.015625)"/>
       <path d="M 603 3500 
L 1178 3500 
L 1178 0 
L 603 0 
L 603 3500 
z
M 603 4863 
L 1178 4863 
L 1178 4134 
L 603 4134 
L 603 4863 
z
" id="DejaVuSans-69" transform="scale(0.015625)"/>
       <path d="M 513 4856 
L 1013 4856 
Q 1481 4119 1714 3412 
Q 1947 2706 1947 2009 
Q 1947 1309 1714 600 
Q 1481 -109 1013 -844 
L 513 -844 
Q 928 -128 1133 580 
Q 1338 1288 1338 2009 
Q 1338 2731 1133 3434 
Q 928 4138 513 4856 
z
" id="DejaVuSans-29" transform="scale(0.015625)"/>
      </defs>
      <use xlink:href="#DejaVuSans-4c"/>
      <use x="55.712891" xlink:href="#DejaVuSans-32"/>
      <use x="119.335938" xlink:href="#DejaVuSans-20"/>
      <use x="151.123047" xlink:href="#DejaVuSans-31"/>
      <use x="214.746094" xlink:href="#DejaVuSans-65"/>
      <use x="276.269531" xlink:href="#DejaVuSans-2d"/>
      <use x="312.353516" xlink:href="#DejaVuSans-31"/>
      <use x="375.976562" xlink:href="#DejaVuSans-28"/>
      <use x="414.990234" xlink:href="#DejaVuSans-74"/>
      <use x="454.199219" xlink:href="#DejaVuSans-72"/>
      <use x="495.3125" xlink:href="#DejaVuSans-61"/>
      <use x="556.591797" xlink:href="#DejaVuSans-69"/>
      <use x="584.375" xlink:href="#DejaVuSans-6e"/>
      <use x="647.753906" xlink:href="#DejaVuSans-29"/>
     </g>
    </g>
    <g id="line2d_35">
     <path d="M 501.116875 34.976562 
L 521.116875 34.976562 
" style="fill:none;stroke:#0000ff;stroke-linecap:square;stroke-width:1.5;"/>
    </g>
    <g id="line2d_36"/>
    <g id="text_17">
     <!-- L2 1e-3(train) -->
     <g transform="translate(529.116875 38.476562)scale(0.1 -0.1)">
      <use xlink:href="#DejaVuSans-4c"/>
      <use x="55.712891" xlink:href="#DejaVuSans-32"/>
      <use x="119.335938" xlink:href="#DejaVuSans-20"/>
      <use x="151.123047" xlink:href="#DejaVuSans-31"/>
      <use x="214.746094" xlink:href="#DejaVuSans-65"/>
      <use x="276.269531" xlink:href="#DejaVuSans-2d"/>
      <use x="312.353516" xlink:href="#DejaVuSans-33"/>
      <use x="375.976562" xlink:href="#DejaVuSans-28"/>
      <use x="414.990234" xlink:href="#DejaVuSans-74"/>
      <use x="454.199219" xlink:href="#DejaVuSans-72"/>
      <use x="495.3125" xlink:href="#DejaVuSans-61"/>
      <use x="556.591797" xlink:href="#DejaVuSans-69"/>
      <use x="584.375" xlink:href="#DejaVuSans-6e"/>
      <use x="647.753906" xlink:href="#DejaVuSans-29"/>
     </g>
    </g>
    <g id="line2d_37">
     <path d="M 501.116875 49.654687 
L 521.116875 49.654687 
" style="fill:none;stroke:#800080;stroke-linecap:square;stroke-width:1.5;"/>
    </g>
    <g id="line2d_38"/>
    <g id="text_18">
     <!-- L2 1e-4(train) -->
     <g transform="translate(529.116875 53.154687)scale(0.1 -0.1)">
      <use xlink:href="#DejaVuSans-4c"/>
      <use x="55.712891" xlink:href="#DejaVuSans-32"/>
      <use x="119.335938" xlink:href="#DejaVuSans-20"/>
      <use x="151.123047" xlink:href="#DejaVuSans-31"/>
      <use x="214.746094" xlink:href="#DejaVuSans-65"/>
      <use x="276.269531" xlink:href="#DejaVuSans-2d"/>
      <use x="312.353516" xlink:href="#DejaVuSans-34"/>
      <use x="375.976562" xlink:href="#DejaVuSans-28"/>
      <use x="414.990234" xlink:href="#DejaVuSans-74"/>
      <use x="454.199219" xlink:href="#DejaVuSans-72"/>
      <use x="495.3125" xlink:href="#DejaVuSans-61"/>
      <use x="556.591797" xlink:href="#DejaVuSans-69"/>
      <use x="584.375" xlink:href="#DejaVuSans-6e"/>
      <use x="647.753906" xlink:href="#DejaVuSans-29"/>
     </g>
    </g>
    <g id="line2d_39">
     <path d="M 501.116875 64.332812 
L 521.116875 64.332812 
" style="fill:none;stroke:#808080;stroke-dasharray:5.55,2.4;stroke-dashoffset:0;stroke-width:1.5;"/>
    </g>
    <g id="line2d_40"/>
    <g id="text_19">
     <!-- L2 1e-1(valid) -->
     <g transform="translate(529.116875 67.832812)scale(0.1 -0.1)">
      <defs>
       <path d="M 191 3500 
L 800 3500 
L 1894 563 
L 2988 3500 
L 3597 3500 
L 2284 0 
L 1503 0 
L 191 3500 
z
" id="DejaVuSans-76" transform="scale(0.015625)"/>
       <path d="M 603 4863 
L 1178 4863 
L 1178 0 
L 603 0 
L 603 4863 
z
" id="DejaVuSans-6c" transform="scale(0.015625)"/>
       <path d="M 2906 2969 
L 2906 4863 
L 3481 4863 
L 3481 0 
L 2906 0 
L 2906 525 
Q 2725 213 2448 61 
Q 2172 -91 1784 -91 
Q 1150 -91 751 415 
Q 353 922 353 1747 
Q 353 2572 751 3078 
Q 1150 3584 1784 3584 
Q 2172 3584 2448 3432 
Q 2725 3281 2906 2969 
z
M 947 1747 
Q 947 1113 1208 752 
Q 1469 391 1925 391 
Q 2381 391 2643 752 
Q 2906 1113 2906 1747 
Q 2906 2381 2643 2742 
Q 2381 3103 1925 3103 
Q 1469 3103 1208 2742 
Q 947 2381 947 1747 
z
" id="DejaVuSans-64" transform="scale(0.015625)"/>
      </defs>
      <use xlink:href="#DejaVuSans-4c"/>
      <use x="55.712891" xlink:href="#DejaVuSans-32"/>
      <use x="119.335938" xlink:href="#DejaVuSans-20"/>
      <use x="151.123047" xlink:href="#DejaVuSans-31"/>
      <use x="214.746094" xlink:href="#DejaVuSans-65"/>
      <use x="276.269531" xlink:href="#DejaVuSans-2d"/>
      <use x="312.353516" xlink:href="#DejaVuSans-31"/>
      <use x="375.976562" xlink:href="#DejaVuSans-28"/>
      <use x="414.990234" xlink:href="#DejaVuSans-76"/>
      <use x="474.169922" xlink:href="#DejaVuSans-61"/>
      <use x="535.449219" xlink:href="#DejaVuSans-6c"/>
      <use x="563.232422" xlink:href="#DejaVuSans-69"/>
      <use x="591.015625" xlink:href="#DejaVuSans-64"/>
      <use x="654.492188" xlink:href="#DejaVuSans-29"/>
     </g>
    </g>
    <g id="line2d_41">
     <path d="M 501.116875 79.010937 
L 521.116875 79.010937 
" style="fill:none;stroke:#ffff00;stroke-dasharray:5.55,2.4;stroke-dashoffset:0;stroke-width:1.5;"/>
    </g>
    <g id="line2d_42"/>
    <g id="text_20">
     <!-- L2 1e-3(valid) -->
     <g transform="translate(529.116875 82.510937)scale(0.1 -0.1)">
      <use xlink:href="#DejaVuSans-4c"/>
      <use x="55.712891" xlink:href="#DejaVuSans-32"/>
      <use x="119.335938" xlink:href="#DejaVuSans-20"/>
      <use x="151.123047" xlink:href="#DejaVuSans-31"/>
      <use x="214.746094" xlink:href="#DejaVuSans-65"/>
      <use x="276.269531" xlink:href="#DejaVuSans-2d"/>
      <use x="312.353516" xlink:href="#DejaVuSans-33"/>
      <use x="375.976562" xlink:href="#DejaVuSans-28"/>
      <use x="414.990234" xlink:href="#DejaVuSans-76"/>
      <use x="474.169922" xlink:href="#DejaVuSans-61"/>
      <use x="535.449219" xlink:href="#DejaVuSans-6c"/>
      <use x="563.232422" xlink:href="#DejaVuSans-69"/>
      <use x="591.015625" xlink:href="#DejaVuSans-64"/>
      <use x="654.492188" xlink:href="#DejaVuSans-29"/>
     </g>
    </g>
    <g id="line2d_43">
     <path d="M 501.116875 93.689062 
L 521.116875 93.689062 
" style="fill:none;stroke:#008000;stroke-dasharray:5.55,2.4;stroke-dashoffset:0;stroke-width:1.5;"/>
    </g>
    <g id="line2d_44"/>
    <g id="text_21">
     <!-- L2 1e-4(valid) -->
     <g transform="translate(529.116875 97.189062)scale(0.1 -0.1)">
      <use xlink:href="#DejaVuSans-4c"/>
      <use x="55.712891" xlink:href="#DejaVuSans-32"/>
      <use x="119.335938" xlink:href="#DejaVuSans-20"/>
      <use x="151.123047" xlink:href="#DejaVuSans-31"/>
      <use x="214.746094" xlink:href="#DejaVuSans-65"/>
      <use x="276.269531" xlink:href="#DejaVuSans-2d"/>
      <use x="312.353516" xlink:href="#DejaVuSans-34"/>
      <use x="375.976562" xlink:href="#DejaVuSans-28"/>
      <use x="414.990234" xlink:href="#DejaVuSans-76"/>
      <use x="474.169922" xlink:href="#DejaVuSans-61"/>
      <use x="535.449219" xlink:href="#DejaVuSans-6c"/>
      <use x="563.232422" xlink:href="#DejaVuSans-69"/>
      <use x="591.015625" xlink:href="#DejaVuSans-64"/>
      <use x="654.492188" xlink:href="#DejaVuSans-29"/>
     </g>
    </g>
   </g>
  </g>
 </g>
 <defs>
  <clipPath id="pb49386913d">
   <rect height="217.44" width="446.4" x="45.716875" y="7.2"/>
  </clipPath>
 </defs>
</svg>
