<?xml version="1.0" encoding="utf-8" standalone="no"?>
<!DOCTYPE svg PUBLIC "-//W3C//DTD SVG 1.1//EN"
  "http://www.w3.org/Graphics/SVG/1.1/DTD/svg11.dtd">
<svg height="264.131875pt" version="1.1" viewBox="0 0 636.593437 264.131875" width="636.593437pt" xmlns="http://www.w3.org/2000/svg" xmlns:xlink="http://www.w3.org/1999/xlink">
 <metadata>
  <rdf:RDF xmlns:cc="http://creativecommons.org/ns#" xmlns:dc="http://purl.org/dc/elements/1.1/" xmlns:rdf="http://www.w3.org/1999/02/22-rdf-syntax-ns#">
   <cc:Work>
    <dc:type rdf:resource="http://purl.org/dc/dcmitype/StillImage"/>
    <dc:date>2021-11-04T14:42:10.152110</dc:date>
    <dc:format>image/svg+xml</dc:format>
    <dc:creator>
     <cc:Agent>
      <dc:title>Matplotlib v3.4.2, https://matplotlib.org/</dc:title>
     </cc:Agent>
    </dc:creator>
   </cc:Work>
  </rdf:RDF>
 </metadata>
 <defs>
  <style type="text/css">*{stroke-linecap:butt;stroke-linejoin:round;}</style>
 </defs>
 <g id="figure_1">
  <g id="patch_1">
   <path d="M 0 264.131875 
L 636.593437 264.131875 
L 636.593437 0 
L 0 0 
z
" style="fill:#ffffff;"/>
  </g>
  <g id="axes_1">
   <g id="patch_2">
    <path d="M 45.716875 224.64 
L 492.116875 224.64 
L 492.116875 7.2 
L 45.716875 7.2 
z
" style="fill:#e5e5e5;"/>
   </g>
   <g id="matplotlib.axis_1">
    <g id="xtick_1">
     <g id="line2d_1">
      <path clip-path="url(#p73b8983d9b)" d="M 61.908611 224.64 
L 61.908611 7.2 
" style="fill:none;stroke:#ffffff;stroke-linecap:square;stroke-width:0.8;"/>
     </g>
     <g id="line2d_2">
      <defs>
       <path d="M 0 0 
L 0 3.5 
" id="m3c6f23a401" style="stroke:#555555;stroke-width:0.8;"/>
      </defs>
      <g>
       <use style="fill:#555555;stroke:#555555;stroke-width:0.8;" x="61.908611" xlink:href="#m3c6f23a401" y="224.64"/>
      </g>
     </g>
     <g id="text_1">
      <!-- 0 -->
      <g style="fill:#555555;" transform="translate(58.727361 239.238437)scale(0.1 -0.1)">
       <defs>
        <path d="M 2034 4250 
Q 1547 4250 1301 3770 
Q 1056 3291 1056 2328 
Q 1056 1369 1301 889 
Q 1547 409 2034 409 
Q 2525 409 2770 889 
Q 3016 1369 3016 2328 
Q 3016 3291 2770 3770 
Q 2525 4250 2034 4250 
z
M 2034 4750 
Q 2819 4750 3233 4129 
Q 3647 3509 3647 2328 
Q 3647 1150 3233 529 
Q 2819 -91 2034 -91 
Q 1250 -91 836 529 
Q 422 1150 422 2328 
Q 422 3509 836 4129 
Q 1250 4750 2034 4750 
z
" id="DejaVuSans-30" transform="scale(0.015625)"/>
       </defs>
       <use xlink:href="#DejaVuSans-30"/>
      </g>
     </g>
    </g>
    <g id="xtick_2">
     <g id="line2d_3">
      <path clip-path="url(#p73b8983d9b)" d="M 143.892082 224.64 
L 143.892082 7.2 
" style="fill:none;stroke:#ffffff;stroke-linecap:square;stroke-width:0.8;"/>
     </g>
     <g id="line2d_4">
      <g>
       <use style="fill:#555555;stroke:#555555;stroke-width:0.8;" x="143.892082" xlink:href="#m3c6f23a401" y="224.64"/>
      </g>
     </g>
     <g id="text_2">
      <!-- 20 -->
      <g style="fill:#555555;" transform="translate(137.529582 239.238437)scale(0.1 -0.1)">
       <defs>
        <path d="M 1228 531 
L 3431 531 
L 3431 0 
L 469 0 
L 469 531 
Q 828 903 1448 1529 
Q 2069 2156 2228 2338 
Q 2531 2678 2651 2914 
Q 2772 3150 2772 3378 
Q 2772 3750 2511 3984 
Q 2250 4219 1831 4219 
Q 1534 4219 1204 4116 
Q 875 4013 500 3803 
L 500 4441 
Q 881 4594 1212 4672 
Q 1544 4750 1819 4750 
Q 2544 4750 2975 4387 
Q 3406 4025 3406 3419 
Q 3406 3131 3298 2873 
Q 3191 2616 2906 2266 
Q 2828 2175 2409 1742 
Q 1991 1309 1228 531 
z
" id="DejaVuSans-32" transform="scale(0.015625)"/>
       </defs>
       <use xlink:href="#DejaVuSans-32"/>
       <use x="63.623047" xlink:href="#DejaVuSans-30"/>
      </g>
     </g>
    </g>
    <g id="xtick_3">
     <g id="line2d_5">
      <path clip-path="url(#p73b8983d9b)" d="M 225.875553 224.64 
L 225.875553 7.2 
" style="fill:none;stroke:#ffffff;stroke-linecap:square;stroke-width:0.8;"/>
     </g>
     <g id="line2d_6">
      <g>
       <use style="fill:#555555;stroke:#555555;stroke-width:0.8;" x="225.875553" xlink:href="#m3c6f23a401" y="224.64"/>
      </g>
     </g>
     <g id="text_3">
      <!-- 40 -->
      <g style="fill:#555555;" transform="translate(219.513053 239.238437)scale(0.1 -0.1)">
       <defs>
        <path d="M 2419 4116 
L 825 1625 
L 2419 1625 
L 2419 4116 
z
M 2253 4666 
L 3047 4666 
L 3047 1625 
L 3713 1625 
L 3713 1100 
L 3047 1100 
L 3047 0 
L 2419 0 
L 2419 1100 
L 313 1100 
L 313 1709 
L 2253 4666 
z
" id="DejaVuSans-34" transform="scale(0.015625)"/>
       </defs>
       <use xlink:href="#DejaVuSans-34"/>
       <use x="63.623047" xlink:href="#DejaVuSans-30"/>
      </g>
     </g>
    </g>
    <g id="xtick_4">
     <g id="line2d_7">
      <path clip-path="url(#p73b8983d9b)" d="M 307.859024 224.64 
L 307.859024 7.2 
" style="fill:none;stroke:#ffffff;stroke-linecap:square;stroke-width:0.8;"/>
     </g>
     <g id="line2d_8">
      <g>
       <use style="fill:#555555;stroke:#555555;stroke-width:0.8;" x="307.859024" xlink:href="#m3c6f23a401" y="224.64"/>
      </g>
     </g>
     <g id="text_4">
      <!-- 60 -->
      <g style="fill:#555555;" transform="translate(301.496524 239.238437)scale(0.1 -0.1)">
       <defs>
        <path d="M 2113 2584 
Q 1688 2584 1439 2293 
Q 1191 2003 1191 1497 
Q 1191 994 1439 701 
Q 1688 409 2113 409 
Q 2538 409 2786 701 
Q 3034 994 3034 1497 
Q 3034 2003 2786 2293 
Q 2538 2584 2113 2584 
z
M 3366 4563 
L 3366 3988 
Q 3128 4100 2886 4159 
Q 2644 4219 2406 4219 
Q 1781 4219 1451 3797 
Q 1122 3375 1075 2522 
Q 1259 2794 1537 2939 
Q 1816 3084 2150 3084 
Q 2853 3084 3261 2657 
Q 3669 2231 3669 1497 
Q 3669 778 3244 343 
Q 2819 -91 2113 -91 
Q 1303 -91 875 529 
Q 447 1150 447 2328 
Q 447 3434 972 4092 
Q 1497 4750 2381 4750 
Q 2619 4750 2861 4703 
Q 3103 4656 3366 4563 
z
" id="DejaVuSans-36" transform="scale(0.015625)"/>
       </defs>
       <use xlink:href="#DejaVuSans-36"/>
       <use x="63.623047" xlink:href="#DejaVuSans-30"/>
      </g>
     </g>
    </g>
    <g id="xtick_5">
     <g id="line2d_9">
      <path clip-path="url(#p73b8983d9b)" d="M 389.842495 224.64 
L 389.842495 7.2 
" style="fill:none;stroke:#ffffff;stroke-linecap:square;stroke-width:0.8;"/>
     </g>
     <g id="line2d_10">
      <g>
       <use style="fill:#555555;stroke:#555555;stroke-width:0.8;" x="389.842495" xlink:href="#m3c6f23a401" y="224.64"/>
      </g>
     </g>
     <g id="text_5">
      <!-- 80 -->
      <g style="fill:#555555;" transform="translate(383.479995 239.238437)scale(0.1 -0.1)">
       <defs>
        <path d="M 2034 2216 
Q 1584 2216 1326 1975 
Q 1069 1734 1069 1313 
Q 1069 891 1326 650 
Q 1584 409 2034 409 
Q 2484 409 2743 651 
Q 3003 894 3003 1313 
Q 3003 1734 2745 1975 
Q 2488 2216 2034 2216 
z
M 1403 2484 
Q 997 2584 770 2862 
Q 544 3141 544 3541 
Q 544 4100 942 4425 
Q 1341 4750 2034 4750 
Q 2731 4750 3128 4425 
Q 3525 4100 3525 3541 
Q 3525 3141 3298 2862 
Q 3072 2584 2669 2484 
Q 3125 2378 3379 2068 
Q 3634 1759 3634 1313 
Q 3634 634 3220 271 
Q 2806 -91 2034 -91 
Q 1263 -91 848 271 
Q 434 634 434 1313 
Q 434 1759 690 2068 
Q 947 2378 1403 2484 
z
M 1172 3481 
Q 1172 3119 1398 2916 
Q 1625 2713 2034 2713 
Q 2441 2713 2670 2916 
Q 2900 3119 2900 3481 
Q 2900 3844 2670 4047 
Q 2441 4250 2034 4250 
Q 1625 4250 1398 4047 
Q 1172 3844 1172 3481 
z
" id="DejaVuSans-38" transform="scale(0.015625)"/>
       </defs>
       <use xlink:href="#DejaVuSans-38"/>
       <use x="63.623047" xlink:href="#DejaVuSans-30"/>
      </g>
     </g>
    </g>
    <g id="xtick_6">
     <g id="line2d_11">
      <path clip-path="url(#p73b8983d9b)" d="M 471.825966 224.64 
L 471.825966 7.2 
" style="fill:none;stroke:#ffffff;stroke-linecap:square;stroke-width:0.8;"/>
     </g>
     <g id="line2d_12">
      <g>
       <use style="fill:#555555;stroke:#555555;stroke-width:0.8;" x="471.825966" xlink:href="#m3c6f23a401" y="224.64"/>
      </g>
     </g>
     <g id="text_6">
      <!-- 100 -->
      <g style="fill:#555555;" transform="translate(462.282216 239.238437)scale(0.1 -0.1)">
       <defs>
        <path d="M 794 531 
L 1825 531 
L 1825 4091 
L 703 3866 
L 703 4441 
L 1819 4666 
L 2450 4666 
L 2450 531 
L 3481 531 
L 3481 0 
L 794 0 
L 794 531 
z
" id="DejaVuSans-31" transform="scale(0.015625)"/>
       </defs>
       <use xlink:href="#DejaVuSans-31"/>
       <use x="63.623047" xlink:href="#DejaVuSans-30"/>
       <use x="127.246094" xlink:href="#DejaVuSans-30"/>
      </g>
     </g>
    </g>
    <g id="text_7">
     <!-- Epoch number -->
     <g style="fill:#555555;" transform="translate(225.22 254.43625)scale(0.12 -0.12)">
      <defs>
       <path d="M 628 4666 
L 3578 4666 
L 3578 4134 
L 1259 4134 
L 1259 2753 
L 3481 2753 
L 3481 2222 
L 1259 2222 
L 1259 531 
L 3634 531 
L 3634 0 
L 628 0 
L 628 4666 
z
" id="DejaVuSans-45" transform="scale(0.015625)"/>
       <path d="M 1159 525 
L 1159 -1331 
L 581 -1331 
L 581 3500 
L 1159 3500 
L 1159 2969 
Q 1341 3281 1617 3432 
Q 1894 3584 2278 3584 
Q 2916 3584 3314 3078 
Q 3713 2572 3713 1747 
Q 3713 922 3314 415 
Q 2916 -91 2278 -91 
Q 1894 -91 1617 61 
Q 1341 213 1159 525 
z
M 3116 1747 
Q 3116 2381 2855 2742 
Q 2594 3103 2138 3103 
Q 1681 3103 1420 2742 
Q 1159 2381 1159 1747 
Q 1159 1113 1420 752 
Q 1681 391 2138 391 
Q 2594 391 2855 752 
Q 3116 1113 3116 1747 
z
" id="DejaVuSans-70" transform="scale(0.015625)"/>
       <path d="M 1959 3097 
Q 1497 3097 1228 2736 
Q 959 2375 959 1747 
Q 959 1119 1226 758 
Q 1494 397 1959 397 
Q 2419 397 2687 759 
Q 2956 1122 2956 1747 
Q 2956 2369 2687 2733 
Q 2419 3097 1959 3097 
z
M 1959 3584 
Q 2709 3584 3137 3096 
Q 3566 2609 3566 1747 
Q 3566 888 3137 398 
Q 2709 -91 1959 -91 
Q 1206 -91 779 398 
Q 353 888 353 1747 
Q 353 2609 779 3096 
Q 1206 3584 1959 3584 
z
" id="DejaVuSans-6f" transform="scale(0.015625)"/>
       <path d="M 3122 3366 
L 3122 2828 
Q 2878 2963 2633 3030 
Q 2388 3097 2138 3097 
Q 1578 3097 1268 2742 
Q 959 2388 959 1747 
Q 959 1106 1268 751 
Q 1578 397 2138 397 
Q 2388 397 2633 464 
Q 2878 531 3122 666 
L 3122 134 
Q 2881 22 2623 -34 
Q 2366 -91 2075 -91 
Q 1284 -91 818 406 
Q 353 903 353 1747 
Q 353 2603 823 3093 
Q 1294 3584 2113 3584 
Q 2378 3584 2631 3529 
Q 2884 3475 3122 3366 
z
" id="DejaVuSans-63" transform="scale(0.015625)"/>
       <path d="M 3513 2113 
L 3513 0 
L 2938 0 
L 2938 2094 
Q 2938 2591 2744 2837 
Q 2550 3084 2163 3084 
Q 1697 3084 1428 2787 
Q 1159 2491 1159 1978 
L 1159 0 
L 581 0 
L 581 4863 
L 1159 4863 
L 1159 2956 
Q 1366 3272 1645 3428 
Q 1925 3584 2291 3584 
Q 2894 3584 3203 3211 
Q 3513 2838 3513 2113 
z
" id="DejaVuSans-68" transform="scale(0.015625)"/>
       <path id="DejaVuSans-20" transform="scale(0.015625)"/>
       <path d="M 3513 2113 
L 3513 0 
L 2938 0 
L 2938 2094 
Q 2938 2591 2744 2837 
Q 2550 3084 2163 3084 
Q 1697 3084 1428 2787 
Q 1159 2491 1159 1978 
L 1159 0 
L 581 0 
L 581 3500 
L 1159 3500 
L 1159 2956 
Q 1366 3272 1645 3428 
Q 1925 3584 2291 3584 
Q 2894 3584 3203 3211 
Q 3513 2838 3513 2113 
z
" id="DejaVuSans-6e" transform="scale(0.015625)"/>
       <path d="M 544 1381 
L 544 3500 
L 1119 3500 
L 1119 1403 
Q 1119 906 1312 657 
Q 1506 409 1894 409 
Q 2359 409 2629 706 
Q 2900 1003 2900 1516 
L 2900 3500 
L 3475 3500 
L 3475 0 
L 2900 0 
L 2900 538 
Q 2691 219 2414 64 
Q 2138 -91 1772 -91 
Q 1169 -91 856 284 
Q 544 659 544 1381 
z
M 1991 3584 
L 1991 3584 
z
" id="DejaVuSans-75" transform="scale(0.015625)"/>
       <path d="M 3328 2828 
Q 3544 3216 3844 3400 
Q 4144 3584 4550 3584 
Q 5097 3584 5394 3201 
Q 5691 2819 5691 2113 
L 5691 0 
L 5113 0 
L 5113 2094 
Q 5113 2597 4934 2840 
Q 4756 3084 4391 3084 
Q 3944 3084 3684 2787 
Q 3425 2491 3425 1978 
L 3425 0 
L 2847 0 
L 2847 2094 
Q 2847 2600 2669 2842 
Q 2491 3084 2119 3084 
Q 1678 3084 1418 2786 
Q 1159 2488 1159 1978 
L 1159 0 
L 581 0 
L 581 3500 
L 1159 3500 
L 1159 2956 
Q 1356 3278 1631 3431 
Q 1906 3584 2284 3584 
Q 2666 3584 2933 3390 
Q 3200 3197 3328 2828 
z
" id="DejaVuSans-6d" transform="scale(0.015625)"/>
       <path d="M 3116 1747 
Q 3116 2381 2855 2742 
Q 2594 3103 2138 3103 
Q 1681 3103 1420 2742 
Q 1159 2381 1159 1747 
Q 1159 1113 1420 752 
Q 1681 391 2138 391 
Q 2594 391 2855 752 
Q 3116 1113 3116 1747 
z
M 1159 2969 
Q 1341 3281 1617 3432 
Q 1894 3584 2278 3584 
Q 2916 3584 3314 3078 
Q 3713 2572 3713 1747 
Q 3713 922 3314 415 
Q 2916 -91 2278 -91 
Q 1894 -91 1617 61 
Q 1341 213 1159 525 
L 1159 0 
L 581 0 
L 581 4863 
L 1159 4863 
L 1159 2969 
z
" id="DejaVuSans-62" transform="scale(0.015625)"/>
       <path d="M 3597 1894 
L 3597 1613 
L 953 1613 
Q 991 1019 1311 708 
Q 1631 397 2203 397 
Q 2534 397 2845 478 
Q 3156 559 3463 722 
L 3463 178 
Q 3153 47 2828 -22 
Q 2503 -91 2169 -91 
Q 1331 -91 842 396 
Q 353 884 353 1716 
Q 353 2575 817 3079 
Q 1281 3584 2069 3584 
Q 2775 3584 3186 3129 
Q 3597 2675 3597 1894 
z
M 3022 2063 
Q 3016 2534 2758 2815 
Q 2500 3097 2075 3097 
Q 1594 3097 1305 2825 
Q 1016 2553 972 2059 
L 3022 2063 
z
" id="DejaVuSans-65" transform="scale(0.015625)"/>
       <path d="M 2631 2963 
Q 2534 3019 2420 3045 
Q 2306 3072 2169 3072 
Q 1681 3072 1420 2755 
Q 1159 2438 1159 1844 
L 1159 0 
L 581 0 
L 581 3500 
L 1159 3500 
L 1159 2956 
Q 1341 3275 1631 3429 
Q 1922 3584 2338 3584 
Q 2397 3584 2469 3576 
Q 2541 3569 2628 3553 
L 2631 2963 
z
" id="DejaVuSans-72" transform="scale(0.015625)"/>
      </defs>
      <use xlink:href="#DejaVuSans-45"/>
      <use x="63.183594" xlink:href="#DejaVuSans-70"/>
      <use x="126.660156" xlink:href="#DejaVuSans-6f"/>
      <use x="187.841797" xlink:href="#DejaVuSans-63"/>
      <use x="242.822266" xlink:href="#DejaVuSans-68"/>
      <use x="306.201172" xlink:href="#DejaVuSans-20"/>
      <use x="337.988281" xlink:href="#DejaVuSans-6e"/>
      <use x="401.367188" xlink:href="#DejaVuSans-75"/>
      <use x="464.746094" xlink:href="#DejaVuSans-6d"/>
      <use x="562.158203" xlink:href="#DejaVuSans-62"/>
      <use x="625.634766" xlink:href="#DejaVuSans-65"/>
      <use x="687.158203" xlink:href="#DejaVuSans-72"/>
     </g>
    </g>
   </g>
   <g id="matplotlib.axis_2">
    <g id="ytick_1">
     <g id="line2d_13">
      <path clip-path="url(#p73b8983d9b)" d="M 45.716875 203.846769 
L 492.116875 203.846769 
" style="fill:none;stroke:#ffffff;stroke-linecap:square;stroke-width:0.8;"/>
     </g>
     <g id="line2d_14">
      <defs>
       <path d="M 0 0 
L -3.5 0 
" id="ma6a4d4608b" style="stroke:#555555;stroke-width:0.8;"/>
      </defs>
      <g>
       <use style="fill:#555555;stroke:#555555;stroke-width:0.8;" x="45.716875" xlink:href="#ma6a4d4608b" y="203.846769"/>
      </g>
     </g>
     <g id="text_8">
      <!-- 0.4 -->
      <g style="fill:#555555;" transform="translate(22.81375 207.645988)scale(0.1 -0.1)">
       <defs>
        <path d="M 684 794 
L 1344 794 
L 1344 0 
L 684 0 
L 684 794 
z
" id="DejaVuSans-2e" transform="scale(0.015625)"/>
       </defs>
       <use xlink:href="#DejaVuSans-30"/>
       <use x="63.623047" xlink:href="#DejaVuSans-2e"/>
       <use x="95.410156" xlink:href="#DejaVuSans-34"/>
      </g>
     </g>
    </g>
    <g id="ytick_2">
     <g id="line2d_15">
      <path clip-path="url(#p73b8983d9b)" d="M 45.716875 166.697719 
L 492.116875 166.697719 
" style="fill:none;stroke:#ffffff;stroke-linecap:square;stroke-width:0.8;"/>
     </g>
     <g id="line2d_16">
      <g>
       <use style="fill:#555555;stroke:#555555;stroke-width:0.8;" x="45.716875" xlink:href="#ma6a4d4608b" y="166.697719"/>
      </g>
     </g>
     <g id="text_9">
      <!-- 0.5 -->
      <g style="fill:#555555;" transform="translate(22.81375 170.496938)scale(0.1 -0.1)">
       <defs>
        <path d="M 691 4666 
L 3169 4666 
L 3169 4134 
L 1269 4134 
L 1269 2991 
Q 1406 3038 1543 3061 
Q 1681 3084 1819 3084 
Q 2600 3084 3056 2656 
Q 3513 2228 3513 1497 
Q 3513 744 3044 326 
Q 2575 -91 1722 -91 
Q 1428 -91 1123 -41 
Q 819 9 494 109 
L 494 744 
Q 775 591 1075 516 
Q 1375 441 1709 441 
Q 2250 441 2565 725 
Q 2881 1009 2881 1497 
Q 2881 1984 2565 2268 
Q 2250 2553 1709 2553 
Q 1456 2553 1204 2497 
Q 953 2441 691 2322 
L 691 4666 
z
" id="DejaVuSans-35" transform="scale(0.015625)"/>
       </defs>
       <use xlink:href="#DejaVuSans-30"/>
       <use x="63.623047" xlink:href="#DejaVuSans-2e"/>
       <use x="95.410156" xlink:href="#DejaVuSans-35"/>
      </g>
     </g>
    </g>
    <g id="ytick_3">
     <g id="line2d_17">
      <path clip-path="url(#p73b8983d9b)" d="M 45.716875 129.54867 
L 492.116875 129.54867 
" style="fill:none;stroke:#ffffff;stroke-linecap:square;stroke-width:0.8;"/>
     </g>
     <g id="line2d_18">
      <g>
       <use style="fill:#555555;stroke:#555555;stroke-width:0.8;" x="45.716875" xlink:href="#ma6a4d4608b" y="129.54867"/>
      </g>
     </g>
     <g id="text_10">
      <!-- 0.6 -->
      <g style="fill:#555555;" transform="translate(22.81375 133.347888)scale(0.1 -0.1)">
       <use xlink:href="#DejaVuSans-30"/>
       <use x="63.623047" xlink:href="#DejaVuSans-2e"/>
       <use x="95.410156" xlink:href="#DejaVuSans-36"/>
      </g>
     </g>
    </g>
    <g id="ytick_4">
     <g id="line2d_19">
      <path clip-path="url(#p73b8983d9b)" d="M 45.716875 92.39962 
L 492.116875 92.39962 
" style="fill:none;stroke:#ffffff;stroke-linecap:square;stroke-width:0.8;"/>
     </g>
     <g id="line2d_20">
      <g>
       <use style="fill:#555555;stroke:#555555;stroke-width:0.8;" x="45.716875" xlink:href="#ma6a4d4608b" y="92.39962"/>
      </g>
     </g>
     <g id="text_11">
      <!-- 0.7 -->
      <g style="fill:#555555;" transform="translate(22.81375 96.198839)scale(0.1 -0.1)">
       <defs>
        <path d="M 525 4666 
L 3525 4666 
L 3525 4397 
L 1831 0 
L 1172 0 
L 2766 4134 
L 525 4134 
L 525 4666 
z
" id="DejaVuSans-37" transform="scale(0.015625)"/>
       </defs>
       <use xlink:href="#DejaVuSans-30"/>
       <use x="63.623047" xlink:href="#DejaVuSans-2e"/>
       <use x="95.410156" xlink:href="#DejaVuSans-37"/>
      </g>
     </g>
    </g>
    <g id="ytick_5">
     <g id="line2d_21">
      <path clip-path="url(#p73b8983d9b)" d="M 45.716875 55.25057 
L 492.116875 55.25057 
" style="fill:none;stroke:#ffffff;stroke-linecap:square;stroke-width:0.8;"/>
     </g>
     <g id="line2d_22">
      <g>
       <use style="fill:#555555;stroke:#555555;stroke-width:0.8;" x="45.716875" xlink:href="#ma6a4d4608b" y="55.25057"/>
      </g>
     </g>
     <g id="text_12">
      <!-- 0.8 -->
      <g style="fill:#555555;" transform="translate(22.81375 59.049789)scale(0.1 -0.1)">
       <use xlink:href="#DejaVuSans-30"/>
       <use x="63.623047" xlink:href="#DejaVuSans-2e"/>
       <use x="95.410156" xlink:href="#DejaVuSans-38"/>
      </g>
     </g>
    </g>
    <g id="ytick_6">
     <g id="line2d_23">
      <path clip-path="url(#p73b8983d9b)" d="M 45.716875 18.10152 
L 492.116875 18.10152 
" style="fill:none;stroke:#ffffff;stroke-linecap:square;stroke-width:0.8;"/>
     </g>
     <g id="line2d_24">
      <g>
       <use style="fill:#555555;stroke:#555555;stroke-width:0.8;" x="45.716875" xlink:href="#ma6a4d4608b" y="18.10152"/>
      </g>
     </g>
     <g id="text_13">
      <!-- 0.9 -->
      <g style="fill:#555555;" transform="translate(22.81375 21.900739)scale(0.1 -0.1)">
       <defs>
        <path d="M 703 97 
L 703 672 
Q 941 559 1184 500 
Q 1428 441 1663 441 
Q 2288 441 2617 861 
Q 2947 1281 2994 2138 
Q 2813 1869 2534 1725 
Q 2256 1581 1919 1581 
Q 1219 1581 811 2004 
Q 403 2428 403 3163 
Q 403 3881 828 4315 
Q 1253 4750 1959 4750 
Q 2769 4750 3195 4129 
Q 3622 3509 3622 2328 
Q 3622 1225 3098 567 
Q 2575 -91 1691 -91 
Q 1453 -91 1209 -44 
Q 966 3 703 97 
z
M 1959 2075 
Q 2384 2075 2632 2365 
Q 2881 2656 2881 3163 
Q 2881 3666 2632 3958 
Q 2384 4250 1959 4250 
Q 1534 4250 1286 3958 
Q 1038 3666 1038 3163 
Q 1038 2656 1286 2365 
Q 1534 2075 1959 2075 
z
" id="DejaVuSans-39" transform="scale(0.015625)"/>
       </defs>
       <use xlink:href="#DejaVuSans-30"/>
       <use x="63.623047" xlink:href="#DejaVuSans-2e"/>
       <use x="95.410156" xlink:href="#DejaVuSans-39"/>
      </g>
     </g>
    </g>
    <g id="text_14">
     <!-- Accuracy -->
     <g style="fill:#555555;" transform="translate(16.318125 143.31375)rotate(-90)scale(0.12 -0.12)">
      <defs>
       <path d="M 2188 4044 
L 1331 1722 
L 3047 1722 
L 2188 4044 
z
M 1831 4666 
L 2547 4666 
L 4325 0 
L 3669 0 
L 3244 1197 
L 1141 1197 
L 716 0 
L 50 0 
L 1831 4666 
z
" id="DejaVuSans-41" transform="scale(0.015625)"/>
       <path d="M 2194 1759 
Q 1497 1759 1228 1600 
Q 959 1441 959 1056 
Q 959 750 1161 570 
Q 1363 391 1709 391 
Q 2188 391 2477 730 
Q 2766 1069 2766 1631 
L 2766 1759 
L 2194 1759 
z
M 3341 1997 
L 3341 0 
L 2766 0 
L 2766 531 
Q 2569 213 2275 61 
Q 1981 -91 1556 -91 
Q 1019 -91 701 211 
Q 384 513 384 1019 
Q 384 1609 779 1909 
Q 1175 2209 1959 2209 
L 2766 2209 
L 2766 2266 
Q 2766 2663 2505 2880 
Q 2244 3097 1772 3097 
Q 1472 3097 1187 3025 
Q 903 2953 641 2809 
L 641 3341 
Q 956 3463 1253 3523 
Q 1550 3584 1831 3584 
Q 2591 3584 2966 3190 
Q 3341 2797 3341 1997 
z
" id="DejaVuSans-61" transform="scale(0.015625)"/>
       <path d="M 2059 -325 
Q 1816 -950 1584 -1140 
Q 1353 -1331 966 -1331 
L 506 -1331 
L 506 -850 
L 844 -850 
Q 1081 -850 1212 -737 
Q 1344 -625 1503 -206 
L 1606 56 
L 191 3500 
L 800 3500 
L 1894 763 
L 2988 3500 
L 3597 3500 
L 2059 -325 
z
" id="DejaVuSans-79" transform="scale(0.015625)"/>
      </defs>
      <use xlink:href="#DejaVuSans-41"/>
      <use x="66.658203" xlink:href="#DejaVuSans-63"/>
      <use x="121.638672" xlink:href="#DejaVuSans-63"/>
      <use x="176.619141" xlink:href="#DejaVuSans-75"/>
      <use x="239.998047" xlink:href="#DejaVuSans-72"/>
      <use x="281.111328" xlink:href="#DejaVuSans-61"/>
      <use x="342.390625" xlink:href="#DejaVuSans-63"/>
      <use x="397.371094" xlink:href="#DejaVuSans-79"/>
     </g>
    </g>
   </g>
   <g id="line2d_25">
    <path clip-path="url(#p73b8983d9b)" d="M 66.007784 212.773686 
L 70.106958 164.190159 
L 74.206131 143.557576 
L 78.305305 134.530357 
L 82.404478 126.123527 
L 86.503652 119.97536 
L 90.602825 113.30339 
L 94.701999 107.64559 
L 98.801173 103.098546 
L 102.900346 99.030725 
L 106.99952 95.880486 
L 111.098693 93.443508 
L 115.197867 90.865364 
L 119.29704 86.678666 
L 123.396214 85.203849 
L 127.495387 82.963761 
L 131.594561 81.384927 
L 135.693735 79.468036 
L 139.792908 77.369114 
L 143.892082 77.049633 
L 147.991255 74.352612 
L 152.090429 73.995981 
L 156.189602 72.06423 
L 160.288776 71.064921 
L 164.387949 70.596843 
L 168.487123 69.865006 
L 172.586296 68.92885 
L 176.68547 67.275718 
L 180.784644 66.859648 
L 184.883817 66.294983 
L 188.982991 65.511138 
L 193.082164 64.43753 
L 197.181338 63.579387 
L 201.280511 63.323059 
L 205.379685 63.003577 
L 209.478858 62.164008 
L 213.578032 61.253857 
L 217.677206 60.941805 
L 221.776379 60.057657 
L 225.875553 59.834763 
L 229.974726 59.277527 
L 234.0739 58.57541 
L 238.173073 57.843574 
L 242.272247 58.099902 
L 246.37142 57.806425 
L 250.470594 56.547072 
L 254.569768 55.971262 
L 258.668941 56.573076 
L 262.768115 55.800376 
L 266.867288 55.633205 
L 270.966462 55.057395 
L 275.065635 54.117524 
L 279.164809 54.503874 
L 283.263982 53.913204 
L 287.363156 53.404262 
L 291.46233 53.196228 
L 295.561503 53.482275 
L 299.660677 52.835882 
L 303.75985 52.52383 
L 307.859024 51.695406 
L 311.958197 52.189488 
L 316.057371 51.803138 
L 320.156544 51.513376 
L 324.255718 51.078732 
L 328.354892 50.918991 
L 332.454065 50.844693 
L 336.553239 50.406334 
L 340.652412 50.079422 
L 344.751586 50.135146 
L 348.850759 50.001409 
L 352.949933 49.488752 
L 357.049106 49.080113 
L 361.14828 48.931517 
L 365.247454 48.912942 
L 369.346627 48.485728 
L 373.445801 48.526592 
L 377.544974 48.545167 
L 381.644148 48.318557 
L 385.743321 47.999076 
L 389.842495 48.091948 
L 393.941668 47.883914 
L 398.040842 47.82076 
L 402.140015 47.794756 
L 406.239189 47.44184 
L 410.338363 47.289529 
L 414.437536 47.315533 
L 418.53671 47.070349 
L 422.635883 46.862315 
L 426.735057 46.583697 
L 430.83423 46.386807 
L 434.933404 46.620846 
L 439.032577 45.810997 
L 443.131751 45.829571 
L 447.230925 46.082185 
L 451.330098 45.85929 
L 455.429272 45.970737 
L 459.528445 45.658685 
L 463.627619 45.588102 
L 467.726792 45.562098 
L 471.825966 45.740413 
" style="fill:none;stroke:#ff0000;stroke-linecap:square;stroke-width:1.5;"/>
   </g>
   <g id="line2d_26">
    <path clip-path="url(#p73b8983d9b)" d="M 66.007784 146.358615 
L 70.106958 117.649829 
L 74.206131 103.930685 
L 78.305305 92.99029 
L 82.404478 85.196419 
L 86.503652 79.590628 
L 90.602825 74.341467 
L 94.701999 70.199348 
L 98.801173 66.971095 
L 102.900346 63.85429 
L 106.99952 61.142409 
L 111.098693 58.664568 
L 115.197867 56.755107 
L 119.29704 55.209706 
L 123.396214 53.582578 
L 127.495387 52.364089 
L 131.594561 50.56979 
L 135.693735 49.481323 
L 139.792908 48.59346 
L 143.892082 47.267239 
L 147.991255 46.323653 
L 152.090429 45.29091 
L 156.189602 44.447626 
L 160.288776 44.235877 
L 164.387949 43.232853 
L 168.487123 42.233543 
L 172.586296 41.928921 
L 176.68547 41.197085 
L 180.784644 40.257214 
L 184.883817 39.692548 
L 188.982991 39.057299 
L 193.082164 38.674664 
L 197.181338 38.158292 
L 201.280511 37.478465 
L 205.379685 37.259285 
L 209.478858 36.965808 
L 213.578032 36.375138 
L 217.677206 36.334274 
L 221.776379 35.260666 
L 225.875553 35.279241 
L 229.974726 35.130645 
L 234.0739 34.15734 
L 238.173073 34.042178 
L 242.272247 33.585244 
L 246.37142 34.049607 
L 250.470594 33.16546 
L 254.569768 32.760535 
L 258.668941 32.686237 
L 262.768115 32.548786 
L 266.867288 31.946971 
L 270.966462 31.586625 
L 275.065635 31.850384 
L 279.164809 31.360016 
L 283.263982 31.047964 
L 287.363156 31.077683 
L 291.46233 31.02196 
L 295.561503 30.721053 
L 299.660677 30.61332 
L 303.75985 30.197251 
L 307.859024 29.896344 
L 311.958197 29.625156 
L 316.057371 29.450555 
L 320.156544 29.443125 
L 324.255718 28.570123 
L 328.354892 29.008481 
L 332.454065 28.495824 
L 336.553239 28.588697 
L 340.652412 27.960878 
L 344.751586 28.057466 
L 348.850759 27.756558 
L 352.949933 27.730554 
L 357.049106 27.600532 
L 361.14828 27.678545 
L 365.247454 27.206752 
L 369.346627 26.708955 
L 373.445801 27.061871 
L 377.544974 26.452627 
L 381.644148 26.671806 
L 385.743321 26.638372 
L 389.842495 26.166579 
L 393.941668 26.047702 
L 398.040842 25.891676 
L 402.140015 26.021698 
L 406.239189 25.847097 
L 410.338363 24.929516 
L 414.437536 25.806233 
L 418.53671 25.386449 
L 422.635883 24.676902 
L 426.735057 25.100401 
L 430.83423 24.717766 
L 434.933404 24.951805 
L 439.032577 24.866362 
L 443.131751 24.506017 
L 447.230925 24.156815 
L 451.330098 24.056513 
L 455.429272 23.989645 
L 459.528445 23.982215 
L 463.627619 23.725886 
L 467.726792 23.878198 
L 471.825966 23.343251 
" style="fill:none;stroke:#0000ff;stroke-linecap:square;stroke-width:1.5;"/>
   </g>
   <g id="line2d_27">
    <path clip-path="url(#p73b8983d9b)" d="M 66.007784 133.891394 
L 70.106958 105.353494 
L 74.206131 92.459058 
L 78.305305 82.573696 
L 82.404478 74.660949 
L 86.503652 70.006173 
L 90.602825 64.953902 
L 94.701999 61.123835 
L 98.801173 58.894892 
L 102.900346 55.570052 
L 106.99952 52.943614 
L 111.098693 51.13817 
L 115.197867 49.429314 
L 119.29704 48.489443 
L 123.396214 46.698859 
L 127.495387 45.539809 
L 131.594561 43.797518 
L 135.693735 42.501016 
L 139.792908 42.092377 
L 143.892082 41.204514 
L 147.991255 40.316652 
L 152.090429 39.354492 
L 156.189602 38.355182 
L 160.288776 37.968832 
L 164.387949 37.077255 
L 168.487123 36.508874 
L 172.586296 35.446412 
L 176.68547 34.926325 
L 180.784644 34.696001 
L 184.883817 34.090471 
L 188.982991 33.55924 
L 193.082164 32.745676 
L 197.181338 32.689952 
L 201.280511 32.522781 
L 205.379685 31.478893 
L 209.478858 31.360016 
L 213.578032 30.787921 
L 217.677206 30.230685 
L 221.776379 30.059799 
L 225.875553 29.443125 
L 229.974726 29.543428 
L 234.0739 28.867315 
L 238.173073 28.228351 
L 242.272247 28.269215 
L 246.37142 27.897725 
L 250.470594 27.563383 
L 254.569768 26.935564 
L 258.668941 27.076731 
L 262.768115 26.619797 
L 266.867288 26.668091 
L 270.966462 25.817378 
L 275.065635 25.74308 
L 279.164809 25.572194 
L 283.263982 24.832928 
L 287.363156 25.037248 
L 291.46233 24.922086 
L 295.561503 24.650898 
L 299.660677 24.36485 
L 303.75985 23.855908 
L 307.859024 23.777895 
L 311.958197 23.974785 
L 316.057371 23.517852 
L 320.156544 23.242949 
L 324.255718 22.938327 
L 328.354892 22.927182 
L 332.454065 22.466534 
L 336.553239 22.496253 
L 340.652412 22.072754 
L 344.751586 22.22135 
L 348.850759 21.887009 
L 352.949933 21.63068 
L 357.049106 21.489514 
L 361.14828 21.318628 
L 365.247454 21.036295 
L 369.346627 21.210896 
L 373.445801 20.601651 
L 377.544974 20.356468 
L 381.644148 20.278455 
L 385.743321 20.181867 
L 389.842495 20.293314 
L 393.941668 20.155863 
L 398.040842 19.476035 
L 402.140015 19.717504 
L 406.239189 19.383163 
L 410.338363 19.160268 
L 414.437536 19.059966 
L 418.53671 18.993098 
L 422.635883 18.822212 
L 426.735057 18.447006 
L 430.83423 18.718195 
L 434.933404 18.543594 
L 439.032577 18.588173 
L 443.131751 18.250117 
L 447.230925 18.120095 
L 451.330098 17.652017 
L 455.429272 17.774609 
L 459.528445 17.269382 
L 463.627619 17.648302 
L 467.726792 17.083636 
L 471.825966 17.507136 
" style="fill:none;stroke:#800080;stroke-linecap:square;stroke-width:1.5;"/>
   </g>
   <g id="line2d_28">
    <path clip-path="url(#p73b8983d9b)" d="M 66.007784 214.756364 
L 70.106958 165.733725 
L 74.206131 145.889549 
L 78.305305 135.826389 
L 82.404478 127.126928 
L 86.503652 122.001299 
L 90.602825 114.406905 
L 94.701999 108.811036 
L 98.801173 103.897016 
L 102.900346 99.14758 
L 106.99952 96.114525 
L 111.098693 93.128494 
L 115.197867 91.059433 
L 119.29704 87.814769 
L 123.396214 86.615654 
L 127.495387 83.935279 
L 131.594561 82.171875 
L 135.693735 79.93823 
L 139.792908 78.45697 
L 143.892082 77.892681 
L 147.991255 76.011716 
L 152.090429 75.82362 
L 156.189602 73.190269 
L 160.288776 72.484908 
L 164.387949 72.061691 
L 168.487123 70.345311 
L 172.586296 71.02716 
L 176.68547 68.911075 
L 180.784644 69.028635 
L 184.883817 68.722979 
L 188.982991 67.617912 
L 193.082164 66.79499 
L 197.181338 64.937538 
L 201.280511 64.796465 
L 205.379685 64.984562 
L 209.478858 64.749441 
L 213.578032 63.385742 
L 217.677206 63.268181 
L 221.776379 62.374723 
L 225.875553 62.092579 
L 229.974726 61.739898 
L 234.0739 61.058048 
L 238.173073 60.000006 
L 242.272247 60.376199 
L 246.37142 59.788397 
L 250.470594 58.706842 
L 254.569768 57.860408 
L 258.668941 59.083035 
L 262.768115 57.625288 
L 266.867288 58.283625 
L 270.966462 57.037486 
L 275.065635 56.379149 
L 279.164809 56.990462 
L 283.263982 56.144028 
L 287.363156 55.791347 
L 291.46233 55.321106 
L 295.561503 56.002956 
L 299.660677 55.838372 
L 303.75985 54.968425 
L 307.859024 54.56872 
L 311.958197 54.968425 
L 316.057371 54.3336 
L 320.156544 54.310088 
L 324.255718 53.487166 
L 328.354892 53.957407 
L 332.454065 53.628238 
L 336.553239 53.463654 
L 340.652412 52.687756 
L 344.751586 52.993413 
L 348.850759 52.335075 
L 352.949933 52.194003 
L 357.049106 52.146979 
L 361.14828 52.170491 
L 365.247454 51.93537 
L 369.346627 51.300545 
L 373.445801 51.629713 
L 377.544974 51.112448 
L 381.644148 51.418105 
L 385.743321 50.830303 
L 389.842495 50.877328 
L 393.941668 50.736255 
L 398.040842 50.971376 
L 402.140015 50.971376 
L 406.239189 50.548159 
L 410.338363 50.195478 
L 414.437536 50.21899 
L 418.53671 49.960357 
L 422.635883 49.725237 
L 426.735057 49.631189 
L 430.83423 49.113923 
L 434.933404 49.443092 
L 439.032577 49.137435 
L 443.131751 48.902315 
L 447.230925 48.972851 
L 451.330098 49.137435 
L 455.429272 49.184459 
L 459.528445 48.972851 
L 463.627619 48.784754 
L 467.726792 49.066899 
L 471.825966 49.019875 
" style="fill:none;stroke:#808080;stroke-dasharray:5.55,2.4;stroke-dashoffset:0;stroke-width:1.5;"/>
   </g>
   <g id="line2d_29">
    <path clip-path="url(#p73b8983d9b)" d="M 66.007784 146.853544 
L 70.106958 117.722105 
L 74.206131 105.895541 
L 78.305305 94.515705 
L 82.404478 86.098389 
L 86.503652 80.126326 
L 90.602825 75.212306 
L 94.701999 71.356329 
L 98.801173 67.900057 
L 102.900346 65.290218 
L 106.99952 62.351211 
L 111.098693 60.799416 
L 115.197867 58.377674 
L 119.29704 57.108023 
L 123.396214 55.626763 
L 127.495387 53.980919 
L 131.594561 52.993413 
L 135.693735 52.099955 
L 139.792908 51.25352 
L 143.892082 50.007381 
L 147.991255 49.019875 
L 152.090429 48.596658 
L 156.189602 47.209447 
L 160.288776 47.444567 
L 164.387949 45.728187 
L 168.487123 46.010332 
L 172.586296 45.728187 
L 176.68547 44.811217 
L 180.784644 44.693657 
L 184.883817 43.729662 
L 188.982991 43.47103 
L 193.082164 43.141861 
L 197.181338 42.812692 
L 201.280511 41.942746 
L 205.379685 42.318939 
L 209.478858 41.919234 
L 213.578032 41.401969 
L 217.677206 41.378457 
L 221.776379 40.837679 
L 225.875553 41.566553 
L 229.974726 40.673095 
L 234.0739 40.367438 
L 238.173073 40.061781 
L 242.272247 39.756125 
L 246.37142 40.743631 
L 250.470594 39.685588 
L 254.569768 39.238859 
L 258.668941 39.403444 
L 262.768115 39.050763 
L 266.867288 38.627546 
L 270.966462 38.604034 
L 275.065635 38.486474 
L 279.164809 38.651058 
L 283.263982 38.368913 
L 287.363156 37.828136 
L 291.46233 38.274865 
L 295.561503 37.569503 
L 299.660677 38.345401 
L 303.75985 37.922184 
L 307.859024 38.063257 
L 311.958197 37.498967 
L 316.057371 37.07575 
L 320.156544 37.475455 
L 324.255718 36.699557 
L 328.354892 36.111756 
L 332.454065 36.346876 
L 336.553239 36.746581 
L 340.652412 36.393901 
L 344.751586 36.15878 
L 348.850759 35.970684 
L 352.949933 35.829611 
L 357.049106 35.853123 
L 361.14828 36.252828 
L 365.247454 36.04122 
L 369.346627 35.806099 
L 373.445801 35.806099 
L 377.544974 36.135268 
L 381.644148 35.570979 
L 385.743321 35.970684 
L 389.842495 35.077225 
L 393.941668 36.04122 
L 398.040842 35.124249 
L 402.140015 35.382882 
L 406.239189 35.053713 
L 410.338363 34.630496 
L 414.437536 34.795081 
L 418.53671 34.701032 
L 422.635883 34.724545 
L 426.735057 34.771569 
L 430.83423 34.395376 
L 434.933404 34.771569 
L 439.032577 34.912641 
L 443.131751 34.230791 
L 447.230925 34.818593 
L 451.330098 34.583472 
L 455.429272 34.959665 
L 459.528445 34.277815 
L 463.627619 34.630496 
L 467.726792 34.4424 
L 471.825966 33.784062 
" style="fill:none;stroke:#ffff00;stroke-dasharray:5.55,2.4;stroke-dashoffset:0;stroke-width:1.5;"/>
   </g>
   <g id="line2d_30">
    <path clip-path="url(#p73b8983d9b)" d="M 66.007784 133.968936 
L 70.106958 107.094655 
L 74.206131 93.716295 
L 78.305305 84.334984 
L 82.404478 76.552494 
L 86.503652 71.309305 
L 90.602825 67.124159 
L 94.701999 62.703892 
L 98.801173 60.893464 
L 102.900346 57.437191 
L 106.99952 54.756817 
L 111.098693 53.816335 
L 115.197867 52.358587 
L 119.29704 50.524647 
L 123.396214 49.936845 
L 127.495387 48.361537 
L 131.594561 46.927302 
L 135.693735 46.198428 
L 139.792908 45.399018 
L 143.892082 44.576096 
L 147.991255 43.729662 
L 152.090429 42.765668 
L 156.189602 43.329957 
L 160.288776 43.094837 
L 164.387949 41.825186 
L 168.487123 41.825186 
L 172.586296 41.166848 
L 176.68547 41.025776 
L 180.784644 40.39095 
L 184.883817 39.544516 
L 188.982991 39.850173 
L 193.082164 39.168323 
L 197.181338 39.097787 
L 201.280511 38.580522 
L 205.379685 38.580522 
L 209.478858 38.204329 
L 213.578032 37.87516 
L 217.677206 37.028726 
L 221.776379 36.864142 
L 225.875553 37.287359 
L 229.974726 37.710576 
L 234.0739 35.806099 
L 238.173073 36.581997 
L 242.272247 35.970684 
L 246.37142 36.652533 
L 250.470594 36.15878 
L 254.569768 35.429906 
L 258.668941 35.453418 
L 262.768115 34.630496 
L 266.867288 35.288834 
L 270.966462 35.265322 
L 275.065635 35.124249 
L 279.164809 34.512936 
L 283.263982 34.724545 
L 287.363156 34.583472 
L 291.46233 34.489424 
L 295.561503 34.606984 
L 299.660677 34.55996 
L 303.75985 34.371864 
L 307.859024 34.606984 
L 311.958197 34.113231 
L 316.057371 34.371864 
L 320.156544 33.831086 
L 324.255718 34.019183 
L 328.354892 33.854598 
L 332.454065 33.431381 
L 336.553239 33.548942 
L 340.652412 34.113231 
L 344.751586 34.089719 
L 348.850759 33.690014 
L 352.949933 33.807574 
L 357.049106 33.76055 
L 361.14828 33.87811 
L 365.247454 32.773044 
L 369.346627 32.749532 
L 373.445801 33.52543 
L 377.544974 33.031676 
L 381.644148 32.820068 
L 385.743321 33.149237 
L 389.842495 33.384357 
L 393.941668 33.149237 
L 398.040842 32.890604 
L 402.140015 32.396851 
L 406.239189 32.867092 
L 410.338363 32.490899 
L 414.437536 32.702508 
L 418.53671 32.232266 
L 422.635883 32.984652 
L 426.735057 32.443875 
L 430.83423 31.92661 
L 434.933404 33.078701 
L 439.032577 32.420363 
L 443.131751 32.208754 
L 447.230925 32.84358 
L 451.330098 32.279291 
L 455.429272 32.04417 
L 459.528445 31.832562 
L 463.627619 32.279291 
L 467.726792 31.456369 
L 471.825966 32.396851 
" style="fill:none;stroke:#008000;stroke-dasharray:5.55,2.4;stroke-dashoffset:0;stroke-width:1.5;"/>
   </g>
   <g id="patch_3">
    <path d="M 45.716875 224.64 
L 45.716875 7.2 
" style="fill:none;stroke:#ffffff;stroke-linecap:square;stroke-linejoin:miter;"/>
   </g>
   <g id="patch_4">
    <path d="M 492.116875 224.64 
L 492.116875 7.2 
" style="fill:none;stroke:#ffffff;stroke-linecap:square;stroke-linejoin:miter;"/>
   </g>
   <g id="patch_5">
    <path d="M 45.716875 224.64 
L 492.116875 224.64 
" style="fill:none;stroke:#ffffff;stroke-linecap:square;stroke-linejoin:miter;"/>
   </g>
   <g id="patch_6">
    <path d="M 45.716875 7.2 
L 492.116875 7.2 
" style="fill:none;stroke:#ffffff;stroke-linecap:square;stroke-linejoin:miter;"/>
   </g>
   <g id="legend_1">
    <g id="patch_7">
     <path d="M 499.116875 103.26875 
L 627.393438 103.26875 
Q 629.393438 103.26875 629.393438 101.26875 
L 629.393438 14.2 
Q 629.393438 12.2 627.393438 12.2 
L 499.116875 12.2 
Q 497.116875 12.2 497.116875 14.2 
L 497.116875 101.26875 
Q 497.116875 103.26875 499.116875 103.26875 
z
" style="fill:#e5e5e5;opacity:0.8;stroke:#cccccc;stroke-linejoin:miter;stroke-width:0.5;"/>
    </g>
    <g id="line2d_31">
     <path d="M 501.116875 20.298437 
L 521.116875 20.298437 
" style="fill:none;stroke:#ff0000;stroke-linecap:square;stroke-width:1.5;"/>
    </g>
    <g id="line2d_32"/>
    <g id="text_15">
     <!-- dropout 0.7(train) -->
     <g transform="translate(529.116875 23.798437)scale(0.1 -0.1)">
      <defs>
       <path d="M 2906 2969 
L 2906 4863 
L 3481 4863 
L 3481 0 
L 2906 0 
L 2906 525 
Q 2725 213 2448 61 
Q 2172 -91 1784 -91 
Q 1150 -91 751 415 
Q 353 922 353 1747 
Q 353 2572 751 3078 
Q 1150 3584 1784 3584 
Q 2172 3584 2448 3432 
Q 2725 3281 2906 2969 
z
M 947 1747 
Q 947 1113 1208 752 
Q 1469 391 1925 391 
Q 2381 391 2643 752 
Q 2906 1113 2906 1747 
Q 2906 2381 2643 2742 
Q 2381 3103 1925 3103 
Q 1469 3103 1208 2742 
Q 947 2381 947 1747 
z
" id="DejaVuSans-64" transform="scale(0.015625)"/>
       <path d="M 1172 4494 
L 1172 3500 
L 2356 3500 
L 2356 3053 
L 1172 3053 
L 1172 1153 
Q 1172 725 1289 603 
Q 1406 481 1766 481 
L 2356 481 
L 2356 0 
L 1766 0 
Q 1100 0 847 248 
Q 594 497 594 1153 
L 594 3053 
L 172 3053 
L 172 3500 
L 594 3500 
L 594 4494 
L 1172 4494 
z
" id="DejaVuSans-74" transform="scale(0.015625)"/>
       <path d="M 1984 4856 
Q 1566 4138 1362 3434 
Q 1159 2731 1159 2009 
Q 1159 1288 1364 580 
Q 1569 -128 1984 -844 
L 1484 -844 
Q 1016 -109 783 600 
Q 550 1309 550 2009 
Q 550 2706 781 3412 
Q 1013 4119 1484 4856 
L 1984 4856 
z
" id="DejaVuSans-28" transform="scale(0.015625)"/>
       <path d="M 603 3500 
L 1178 3500 
L 1178 0 
L 603 0 
L 603 3500 
z
M 603 4863 
L 1178 4863 
L 1178 4134 
L 603 4134 
L 603 4863 
z
" id="DejaVuSans-69" transform="scale(0.015625)"/>
       <path d="M 513 4856 
L 1013 4856 
Q 1481 4119 1714 3412 
Q 1947 2706 1947 2009 
Q 1947 1309 1714 600 
Q 1481 -109 1013 -844 
L 513 -844 
Q 928 -128 1133 580 
Q 1338 1288 1338 2009 
Q 1338 2731 1133 3434 
Q 928 4138 513 4856 
z
" id="DejaVuSans-29" transform="scale(0.015625)"/>
      </defs>
      <use xlink:href="#DejaVuSans-64"/>
      <use x="63.476562" xlink:href="#DejaVuSans-72"/>
      <use x="102.339844" xlink:href="#DejaVuSans-6f"/>
      <use x="163.521484" xlink:href="#DejaVuSans-70"/>
      <use x="226.998047" xlink:href="#DejaVuSans-6f"/>
      <use x="288.179688" xlink:href="#DejaVuSans-75"/>
      <use x="351.558594" xlink:href="#DejaVuSans-74"/>
      <use x="390.767578" xlink:href="#DejaVuSans-20"/>
      <use x="422.554688" xlink:href="#DejaVuSans-30"/>
      <use x="486.177734" xlink:href="#DejaVuSans-2e"/>
      <use x="517.964844" xlink:href="#DejaVuSans-37"/>
      <use x="581.587891" xlink:href="#DejaVuSans-28"/>
      <use x="620.601562" xlink:href="#DejaVuSans-74"/>
      <use x="659.810547" xlink:href="#DejaVuSans-72"/>
      <use x="700.923828" xlink:href="#DejaVuSans-61"/>
      <use x="762.203125" xlink:href="#DejaVuSans-69"/>
      <use x="789.986328" xlink:href="#DejaVuSans-6e"/>
      <use x="853.365234" xlink:href="#DejaVuSans-29"/>
     </g>
    </g>
    <g id="line2d_33">
     <path d="M 501.116875 34.976562 
L 521.116875 34.976562 
" style="fill:none;stroke:#0000ff;stroke-linecap:square;stroke-width:1.5;"/>
    </g>
    <g id="line2d_34"/>
    <g id="text_16">
     <!-- dropout 0.9(train) -->
     <g transform="translate(529.116875 38.476562)scale(0.1 -0.1)">
      <use xlink:href="#DejaVuSans-64"/>
      <use x="63.476562" xlink:href="#DejaVuSans-72"/>
      <use x="102.339844" xlink:href="#DejaVuSans-6f"/>
      <use x="163.521484" xlink:href="#DejaVuSans-70"/>
      <use x="226.998047" xlink:href="#DejaVuSans-6f"/>
      <use x="288.179688" xlink:href="#DejaVuSans-75"/>
      <use x="351.558594" xlink:href="#DejaVuSans-74"/>
      <use x="390.767578" xlink:href="#DejaVuSans-20"/>
      <use x="422.554688" xlink:href="#DejaVuSans-30"/>
      <use x="486.177734" xlink:href="#DejaVuSans-2e"/>
      <use x="517.964844" xlink:href="#DejaVuSans-39"/>
      <use x="581.587891" xlink:href="#DejaVuSans-28"/>
      <use x="620.601562" xlink:href="#DejaVuSans-74"/>
      <use x="659.810547" xlink:href="#DejaVuSans-72"/>
      <use x="700.923828" xlink:href="#DejaVuSans-61"/>
      <use x="762.203125" xlink:href="#DejaVuSans-69"/>
      <use x="789.986328" xlink:href="#DejaVuSans-6e"/>
      <use x="853.365234" xlink:href="#DejaVuSans-29"/>
     </g>
    </g>
    <g id="line2d_35">
     <path d="M 501.116875 49.654687 
L 521.116875 49.654687 
" style="fill:none;stroke:#800080;stroke-linecap:square;stroke-width:1.5;"/>
    </g>
    <g id="line2d_36"/>
    <g id="text_17">
     <!-- dropout 0.95(train) -->
     <g transform="translate(529.116875 53.154687)scale(0.1 -0.1)">
      <use xlink:href="#DejaVuSans-64"/>
      <use x="63.476562" xlink:href="#DejaVuSans-72"/>
      <use x="102.339844" xlink:href="#DejaVuSans-6f"/>
      <use x="163.521484" xlink:href="#DejaVuSans-70"/>
      <use x="226.998047" xlink:href="#DejaVuSans-6f"/>
      <use x="288.179688" xlink:href="#DejaVuSans-75"/>
      <use x="351.558594" xlink:href="#DejaVuSans-74"/>
      <use x="390.767578" xlink:href="#DejaVuSans-20"/>
      <use x="422.554688" xlink:href="#DejaVuSans-30"/>
      <use x="486.177734" xlink:href="#DejaVuSans-2e"/>
      <use x="517.964844" xlink:href="#DejaVuSans-39"/>
      <use x="581.587891" xlink:href="#DejaVuSans-35"/>
      <use x="645.210938" xlink:href="#DejaVuSans-28"/>
      <use x="684.224609" xlink:href="#DejaVuSans-74"/>
      <use x="723.433594" xlink:href="#DejaVuSans-72"/>
      <use x="764.546875" xlink:href="#DejaVuSans-61"/>
      <use x="825.826172" xlink:href="#DejaVuSans-69"/>
      <use x="853.609375" xlink:href="#DejaVuSans-6e"/>
      <use x="916.988281" xlink:href="#DejaVuSans-29"/>
     </g>
    </g>
    <g id="line2d_37">
     <path d="M 501.116875 64.332812 
L 521.116875 64.332812 
" style="fill:none;stroke:#808080;stroke-dasharray:5.55,2.4;stroke-dashoffset:0;stroke-width:1.5;"/>
    </g>
    <g id="line2d_38"/>
    <g id="text_18">
     <!-- dropout 0.7(valid) -->
     <g transform="translate(529.116875 67.832812)scale(0.1 -0.1)">
      <defs>
       <path d="M 191 3500 
L 800 3500 
L 1894 563 
L 2988 3500 
L 3597 3500 
L 2284 0 
L 1503 0 
L 191 3500 
z
" id="DejaVuSans-76" transform="scale(0.015625)"/>
       <path d="M 603 4863 
L 1178 4863 
L 1178 0 
L 603 0 
L 603 4863 
z
" id="DejaVuSans-6c" transform="scale(0.015625)"/>
      </defs>
      <use xlink:href="#DejaVuSans-64"/>
      <use x="63.476562" xlink:href="#DejaVuSans-72"/>
      <use x="102.339844" xlink:href="#DejaVuSans-6f"/>
      <use x="163.521484" xlink:href="#DejaVuSans-70"/>
      <use x="226.998047" xlink:href="#DejaVuSans-6f"/>
      <use x="288.179688" xlink:href="#DejaVuSans-75"/>
      <use x="351.558594" xlink:href="#DejaVuSans-74"/>
      <use x="390.767578" xlink:href="#DejaVuSans-20"/>
      <use x="422.554688" xlink:href="#DejaVuSans-30"/>
      <use x="486.177734" xlink:href="#DejaVuSans-2e"/>
      <use x="517.964844" xlink:href="#DejaVuSans-37"/>
      <use x="581.587891" xlink:href="#DejaVuSans-28"/>
      <use x="620.601562" xlink:href="#DejaVuSans-76"/>
      <use x="679.78125" xlink:href="#DejaVuSans-61"/>
      <use x="741.060547" xlink:href="#DejaVuSans-6c"/>
      <use x="768.84375" xlink:href="#DejaVuSans-69"/>
      <use x="796.626953" xlink:href="#DejaVuSans-64"/>
      <use x="860.103516" xlink:href="#DejaVuSans-29"/>
     </g>
    </g>
    <g id="line2d_39">
     <path d="M 501.116875 79.010937 
L 521.116875 79.010937 
" style="fill:none;stroke:#ffff00;stroke-dasharray:5.55,2.4;stroke-dashoffset:0;stroke-width:1.5;"/>
    </g>
    <g id="line2d_40"/>
    <g id="text_19">
     <!-- dropout 0.9(valid) -->
     <g transform="translate(529.116875 82.510937)scale(0.1 -0.1)">
      <use xlink:href="#DejaVuSans-64"/>
      <use x="63.476562" xlink:href="#DejaVuSans-72"/>
      <use x="102.339844" xlink:href="#DejaVuSans-6f"/>
      <use x="163.521484" xlink:href="#DejaVuSans-70"/>
      <use x="226.998047" xlink:href="#DejaVuSans-6f"/>
      <use x="288.179688" xlink:href="#DejaVuSans-75"/>
      <use x="351.558594" xlink:href="#DejaVuSans-74"/>
      <use x="390.767578" xlink:href="#DejaVuSans-20"/>
      <use x="422.554688" xlink:href="#DejaVuSans-30"/>
      <use x="486.177734" xlink:href="#DejaVuSans-2e"/>
      <use x="517.964844" xlink:href="#DejaVuSans-39"/>
      <use x="581.587891" xlink:href="#DejaVuSans-28"/>
      <use x="620.601562" xlink:href="#DejaVuSans-76"/>
      <use x="679.78125" xlink:href="#DejaVuSans-61"/>
      <use x="741.060547" xlink:href="#DejaVuSans-6c"/>
      <use x="768.84375" xlink:href="#DejaVuSans-69"/>
      <use x="796.626953" xlink:href="#DejaVuSans-64"/>
      <use x="860.103516" xlink:href="#DejaVuSans-29"/>
     </g>
    </g>
    <g id="line2d_41">
     <path d="M 501.116875 93.689062 
L 521.116875 93.689062 
" style="fill:none;stroke:#008000;stroke-dasharray:5.55,2.4;stroke-dashoffset:0;stroke-width:1.5;"/>
    </g>
    <g id="line2d_42"/>
    <g id="text_20">
     <!-- dropout 0.95(valid) -->
     <g transform="translate(529.116875 97.189062)scale(0.1 -0.1)">
      <use xlink:href="#DejaVuSans-64"/>
      <use x="63.476562" xlink:href="#DejaVuSans-72"/>
      <use x="102.339844" xlink:href="#DejaVuSans-6f"/>
      <use x="163.521484" xlink:href="#DejaVuSans-70"/>
      <use x="226.998047" xlink:href="#DejaVuSans-6f"/>
      <use x="288.179688" xlink:href="#DejaVuSans-75"/>
      <use x="351.558594" xlink:href="#DejaVuSans-74"/>
      <use x="390.767578" xlink:href="#DejaVuSans-20"/>
      <use x="422.554688" xlink:href="#DejaVuSans-30"/>
      <use x="486.177734" xlink:href="#DejaVuSans-2e"/>
      <use x="517.964844" xlink:href="#DejaVuSans-39"/>
      <use x="581.587891" xlink:href="#DejaVuSans-35"/>
      <use x="645.210938" xlink:href="#DejaVuSans-28"/>
      <use x="684.224609" xlink:href="#DejaVuSans-76"/>
      <use x="743.404297" xlink:href="#DejaVuSans-61"/>
      <use x="804.683594" xlink:href="#DejaVuSans-6c"/>
      <use x="832.466797" xlink:href="#DejaVuSans-69"/>
      <use x="860.25" xlink:href="#DejaVuSans-64"/>
      <use x="923.726562" xlink:href="#DejaVuSans-29"/>
     </g>
    </g>
   </g>
  </g>
 </g>
 <defs>
  <clipPath id="p73b8983d9b">
   <rect height="217.44" width="446.4" x="45.716875" y="7.2"/>
  </clipPath>
 </defs>
</svg>
