<?xml version="1.0" encoding="utf-8" standalone="no"?>
<!DOCTYPE svg PUBLIC "-//W3C//DTD SVG 1.1//EN"
  "http://www.w3.org/Graphics/SVG/1.1/DTD/svg11.dtd">
<svg height="264.131875pt" version="1.1" viewBox="0 0 621.899687 264.131875" width="621.899687pt" xmlns="http://www.w3.org/2000/svg" xmlns:xlink="http://www.w3.org/1999/xlink">
 <metadata>
  <rdf:RDF xmlns:cc="http://creativecommons.org/ns#" xmlns:dc="http://purl.org/dc/elements/1.1/" xmlns:rdf="http://www.w3.org/1999/02/22-rdf-syntax-ns#">
   <cc:Work>
    <dc:type rdf:resource="http://purl.org/dc/dcmitype/StillImage"/>
    <dc:date>2021-11-04T11:08:42.693033</dc:date>
    <dc:format>image/svg+xml</dc:format>
    <dc:creator>
     <cc:Agent>
      <dc:title>Matplotlib v3.4.2, https://matplotlib.org/</dc:title>
     </cc:Agent>
    </dc:creator>
   </cc:Work>
  </rdf:RDF>
 </metadata>
 <defs>
  <style type="text/css">*{stroke-linecap:butt;stroke-linejoin:round;}</style>
 </defs>
 <g id="figure_1">
  <g id="patch_1">
   <path d="M 0 264.131875 
L 621.899687 264.131875 
L 621.899687 0 
L 0 0 
z
" style="fill:#ffffff;"/>
  </g>
  <g id="axes_1">
   <g id="patch_2">
    <path d="M 45.716875 224.64 
L 492.116875 224.64 
L 492.116875 7.2 
L 45.716875 7.2 
z
" style="fill:#e5e5e5;"/>
   </g>
   <g id="matplotlib.axis_1">
    <g id="xtick_1">
     <g id="line2d_1">
      <path clip-path="url(#p55795b4d4b)" d="M 61.908611 224.64 
L 61.908611 7.2 
" style="fill:none;stroke:#ffffff;stroke-linecap:square;stroke-width:0.8;"/>
     </g>
     <g id="line2d_2">
      <defs>
       <path d="M 0 0 
L 0 3.5 
" id="m796a42bd2d" style="stroke:#555555;stroke-width:0.8;"/>
      </defs>
      <g>
       <use style="fill:#555555;stroke:#555555;stroke-width:0.8;" x="61.908611" xlink:href="#m796a42bd2d" y="224.64"/>
      </g>
     </g>
     <g id="text_1">
      <!-- 0 -->
      <g style="fill:#555555;" transform="translate(58.727361 239.238437)scale(0.1 -0.1)">
       <defs>
        <path d="M 2034 4250 
Q 1547 4250 1301 3770 
Q 1056 3291 1056 2328 
Q 1056 1369 1301 889 
Q 1547 409 2034 409 
Q 2525 409 2770 889 
Q 3016 1369 3016 2328 
Q 3016 3291 2770 3770 
Q 2525 4250 2034 4250 
z
M 2034 4750 
Q 2819 4750 3233 4129 
Q 3647 3509 3647 2328 
Q 3647 1150 3233 529 
Q 2819 -91 2034 -91 
Q 1250 -91 836 529 
Q 422 1150 422 2328 
Q 422 3509 836 4129 
Q 1250 4750 2034 4750 
z
" id="DejaVuSans-30" transform="scale(0.015625)"/>
       </defs>
       <use xlink:href="#DejaVuSans-30"/>
      </g>
     </g>
    </g>
    <g id="xtick_2">
     <g id="line2d_3">
      <path clip-path="url(#p55795b4d4b)" d="M 143.892082 224.64 
L 143.892082 7.2 
" style="fill:none;stroke:#ffffff;stroke-linecap:square;stroke-width:0.8;"/>
     </g>
     <g id="line2d_4">
      <g>
       <use style="fill:#555555;stroke:#555555;stroke-width:0.8;" x="143.892082" xlink:href="#m796a42bd2d" y="224.64"/>
      </g>
     </g>
     <g id="text_2">
      <!-- 20 -->
      <g style="fill:#555555;" transform="translate(137.529582 239.238437)scale(0.1 -0.1)">
       <defs>
        <path d="M 1228 531 
L 3431 531 
L 3431 0 
L 469 0 
L 469 531 
Q 828 903 1448 1529 
Q 2069 2156 2228 2338 
Q 2531 2678 2651 2914 
Q 2772 3150 2772 3378 
Q 2772 3750 2511 3984 
Q 2250 4219 1831 4219 
Q 1534 4219 1204 4116 
Q 875 4013 500 3803 
L 500 4441 
Q 881 4594 1212 4672 
Q 1544 4750 1819 4750 
Q 2544 4750 2975 4387 
Q 3406 4025 3406 3419 
Q 3406 3131 3298 2873 
Q 3191 2616 2906 2266 
Q 2828 2175 2409 1742 
Q 1991 1309 1228 531 
z
" id="DejaVuSans-32" transform="scale(0.015625)"/>
       </defs>
       <use xlink:href="#DejaVuSans-32"/>
       <use x="63.623047" xlink:href="#DejaVuSans-30"/>
      </g>
     </g>
    </g>
    <g id="xtick_3">
     <g id="line2d_5">
      <path clip-path="url(#p55795b4d4b)" d="M 225.875553 224.64 
L 225.875553 7.2 
" style="fill:none;stroke:#ffffff;stroke-linecap:square;stroke-width:0.8;"/>
     </g>
     <g id="line2d_6">
      <g>
       <use style="fill:#555555;stroke:#555555;stroke-width:0.8;" x="225.875553" xlink:href="#m796a42bd2d" y="224.64"/>
      </g>
     </g>
     <g id="text_3">
      <!-- 40 -->
      <g style="fill:#555555;" transform="translate(219.513053 239.238437)scale(0.1 -0.1)">
       <defs>
        <path d="M 2419 4116 
L 825 1625 
L 2419 1625 
L 2419 4116 
z
M 2253 4666 
L 3047 4666 
L 3047 1625 
L 3713 1625 
L 3713 1100 
L 3047 1100 
L 3047 0 
L 2419 0 
L 2419 1100 
L 313 1100 
L 313 1709 
L 2253 4666 
z
" id="DejaVuSans-34" transform="scale(0.015625)"/>
       </defs>
       <use xlink:href="#DejaVuSans-34"/>
       <use x="63.623047" xlink:href="#DejaVuSans-30"/>
      </g>
     </g>
    </g>
    <g id="xtick_4">
     <g id="line2d_7">
      <path clip-path="url(#p55795b4d4b)" d="M 307.859024 224.64 
L 307.859024 7.2 
" style="fill:none;stroke:#ffffff;stroke-linecap:square;stroke-width:0.8;"/>
     </g>
     <g id="line2d_8">
      <g>
       <use style="fill:#555555;stroke:#555555;stroke-width:0.8;" x="307.859024" xlink:href="#m796a42bd2d" y="224.64"/>
      </g>
     </g>
     <g id="text_4">
      <!-- 60 -->
      <g style="fill:#555555;" transform="translate(301.496524 239.238437)scale(0.1 -0.1)">
       <defs>
        <path d="M 2113 2584 
Q 1688 2584 1439 2293 
Q 1191 2003 1191 1497 
Q 1191 994 1439 701 
Q 1688 409 2113 409 
Q 2538 409 2786 701 
Q 3034 994 3034 1497 
Q 3034 2003 2786 2293 
Q 2538 2584 2113 2584 
z
M 3366 4563 
L 3366 3988 
Q 3128 4100 2886 4159 
Q 2644 4219 2406 4219 
Q 1781 4219 1451 3797 
Q 1122 3375 1075 2522 
Q 1259 2794 1537 2939 
Q 1816 3084 2150 3084 
Q 2853 3084 3261 2657 
Q 3669 2231 3669 1497 
Q 3669 778 3244 343 
Q 2819 -91 2113 -91 
Q 1303 -91 875 529 
Q 447 1150 447 2328 
Q 447 3434 972 4092 
Q 1497 4750 2381 4750 
Q 2619 4750 2861 4703 
Q 3103 4656 3366 4563 
z
" id="DejaVuSans-36" transform="scale(0.015625)"/>
       </defs>
       <use xlink:href="#DejaVuSans-36"/>
       <use x="63.623047" xlink:href="#DejaVuSans-30"/>
      </g>
     </g>
    </g>
    <g id="xtick_5">
     <g id="line2d_9">
      <path clip-path="url(#p55795b4d4b)" d="M 389.842495 224.64 
L 389.842495 7.2 
" style="fill:none;stroke:#ffffff;stroke-linecap:square;stroke-width:0.8;"/>
     </g>
     <g id="line2d_10">
      <g>
       <use style="fill:#555555;stroke:#555555;stroke-width:0.8;" x="389.842495" xlink:href="#m796a42bd2d" y="224.64"/>
      </g>
     </g>
     <g id="text_5">
      <!-- 80 -->
      <g style="fill:#555555;" transform="translate(383.479995 239.238437)scale(0.1 -0.1)">
       <defs>
        <path d="M 2034 2216 
Q 1584 2216 1326 1975 
Q 1069 1734 1069 1313 
Q 1069 891 1326 650 
Q 1584 409 2034 409 
Q 2484 409 2743 651 
Q 3003 894 3003 1313 
Q 3003 1734 2745 1975 
Q 2488 2216 2034 2216 
z
M 1403 2484 
Q 997 2584 770 2862 
Q 544 3141 544 3541 
Q 544 4100 942 4425 
Q 1341 4750 2034 4750 
Q 2731 4750 3128 4425 
Q 3525 4100 3525 3541 
Q 3525 3141 3298 2862 
Q 3072 2584 2669 2484 
Q 3125 2378 3379 2068 
Q 3634 1759 3634 1313 
Q 3634 634 3220 271 
Q 2806 -91 2034 -91 
Q 1263 -91 848 271 
Q 434 634 434 1313 
Q 434 1759 690 2068 
Q 947 2378 1403 2484 
z
M 1172 3481 
Q 1172 3119 1398 2916 
Q 1625 2713 2034 2713 
Q 2441 2713 2670 2916 
Q 2900 3119 2900 3481 
Q 2900 3844 2670 4047 
Q 2441 4250 2034 4250 
Q 1625 4250 1398 4047 
Q 1172 3844 1172 3481 
z
" id="DejaVuSans-38" transform="scale(0.015625)"/>
       </defs>
       <use xlink:href="#DejaVuSans-38"/>
       <use x="63.623047" xlink:href="#DejaVuSans-30"/>
      </g>
     </g>
    </g>
    <g id="xtick_6">
     <g id="line2d_11">
      <path clip-path="url(#p55795b4d4b)" d="M 471.825966 224.64 
L 471.825966 7.2 
" style="fill:none;stroke:#ffffff;stroke-linecap:square;stroke-width:0.8;"/>
     </g>
     <g id="line2d_12">
      <g>
       <use style="fill:#555555;stroke:#555555;stroke-width:0.8;" x="471.825966" xlink:href="#m796a42bd2d" y="224.64"/>
      </g>
     </g>
     <g id="text_6">
      <!-- 100 -->
      <g style="fill:#555555;" transform="translate(462.282216 239.238437)scale(0.1 -0.1)">
       <defs>
        <path d="M 794 531 
L 1825 531 
L 1825 4091 
L 703 3866 
L 703 4441 
L 1819 4666 
L 2450 4666 
L 2450 531 
L 3481 531 
L 3481 0 
L 794 0 
L 794 531 
z
" id="DejaVuSans-31" transform="scale(0.015625)"/>
       </defs>
       <use xlink:href="#DejaVuSans-31"/>
       <use x="63.623047" xlink:href="#DejaVuSans-30"/>
       <use x="127.246094" xlink:href="#DejaVuSans-30"/>
      </g>
     </g>
    </g>
    <g id="text_7">
     <!-- Epoch number -->
     <g style="fill:#555555;" transform="translate(225.22 254.43625)scale(0.12 -0.12)">
      <defs>
       <path d="M 628 4666 
L 3578 4666 
L 3578 4134 
L 1259 4134 
L 1259 2753 
L 3481 2753 
L 3481 2222 
L 1259 2222 
L 1259 531 
L 3634 531 
L 3634 0 
L 628 0 
L 628 4666 
z
" id="DejaVuSans-45" transform="scale(0.015625)"/>
       <path d="M 1159 525 
L 1159 -1331 
L 581 -1331 
L 581 3500 
L 1159 3500 
L 1159 2969 
Q 1341 3281 1617 3432 
Q 1894 3584 2278 3584 
Q 2916 3584 3314 3078 
Q 3713 2572 3713 1747 
Q 3713 922 3314 415 
Q 2916 -91 2278 -91 
Q 1894 -91 1617 61 
Q 1341 213 1159 525 
z
M 3116 1747 
Q 3116 2381 2855 2742 
Q 2594 3103 2138 3103 
Q 1681 3103 1420 2742 
Q 1159 2381 1159 1747 
Q 1159 1113 1420 752 
Q 1681 391 2138 391 
Q 2594 391 2855 752 
Q 3116 1113 3116 1747 
z
" id="DejaVuSans-70" transform="scale(0.015625)"/>
       <path d="M 1959 3097 
Q 1497 3097 1228 2736 
Q 959 2375 959 1747 
Q 959 1119 1226 758 
Q 1494 397 1959 397 
Q 2419 397 2687 759 
Q 2956 1122 2956 1747 
Q 2956 2369 2687 2733 
Q 2419 3097 1959 3097 
z
M 1959 3584 
Q 2709 3584 3137 3096 
Q 3566 2609 3566 1747 
Q 3566 888 3137 398 
Q 2709 -91 1959 -91 
Q 1206 -91 779 398 
Q 353 888 353 1747 
Q 353 2609 779 3096 
Q 1206 3584 1959 3584 
z
" id="DejaVuSans-6f" transform="scale(0.015625)"/>
       <path d="M 3122 3366 
L 3122 2828 
Q 2878 2963 2633 3030 
Q 2388 3097 2138 3097 
Q 1578 3097 1268 2742 
Q 959 2388 959 1747 
Q 959 1106 1268 751 
Q 1578 397 2138 397 
Q 2388 397 2633 464 
Q 2878 531 3122 666 
L 3122 134 
Q 2881 22 2623 -34 
Q 2366 -91 2075 -91 
Q 1284 -91 818 406 
Q 353 903 353 1747 
Q 353 2603 823 3093 
Q 1294 3584 2113 3584 
Q 2378 3584 2631 3529 
Q 2884 3475 3122 3366 
z
" id="DejaVuSans-63" transform="scale(0.015625)"/>
       <path d="M 3513 2113 
L 3513 0 
L 2938 0 
L 2938 2094 
Q 2938 2591 2744 2837 
Q 2550 3084 2163 3084 
Q 1697 3084 1428 2787 
Q 1159 2491 1159 1978 
L 1159 0 
L 581 0 
L 581 4863 
L 1159 4863 
L 1159 2956 
Q 1366 3272 1645 3428 
Q 1925 3584 2291 3584 
Q 2894 3584 3203 3211 
Q 3513 2838 3513 2113 
z
" id="DejaVuSans-68" transform="scale(0.015625)"/>
       <path id="DejaVuSans-20" transform="scale(0.015625)"/>
       <path d="M 3513 2113 
L 3513 0 
L 2938 0 
L 2938 2094 
Q 2938 2591 2744 2837 
Q 2550 3084 2163 3084 
Q 1697 3084 1428 2787 
Q 1159 2491 1159 1978 
L 1159 0 
L 581 0 
L 581 3500 
L 1159 3500 
L 1159 2956 
Q 1366 3272 1645 3428 
Q 1925 3584 2291 3584 
Q 2894 3584 3203 3211 
Q 3513 2838 3513 2113 
z
" id="DejaVuSans-6e" transform="scale(0.015625)"/>
       <path d="M 544 1381 
L 544 3500 
L 1119 3500 
L 1119 1403 
Q 1119 906 1312 657 
Q 1506 409 1894 409 
Q 2359 409 2629 706 
Q 2900 1003 2900 1516 
L 2900 3500 
L 3475 3500 
L 3475 0 
L 2900 0 
L 2900 538 
Q 2691 219 2414 64 
Q 2138 -91 1772 -91 
Q 1169 -91 856 284 
Q 544 659 544 1381 
z
M 1991 3584 
L 1991 3584 
z
" id="DejaVuSans-75" transform="scale(0.015625)"/>
       <path d="M 3328 2828 
Q 3544 3216 3844 3400 
Q 4144 3584 4550 3584 
Q 5097 3584 5394 3201 
Q 5691 2819 5691 2113 
L 5691 0 
L 5113 0 
L 5113 2094 
Q 5113 2597 4934 2840 
Q 4756 3084 4391 3084 
Q 3944 3084 3684 2787 
Q 3425 2491 3425 1978 
L 3425 0 
L 2847 0 
L 2847 2094 
Q 2847 2600 2669 2842 
Q 2491 3084 2119 3084 
Q 1678 3084 1418 2786 
Q 1159 2488 1159 1978 
L 1159 0 
L 581 0 
L 581 3500 
L 1159 3500 
L 1159 2956 
Q 1356 3278 1631 3431 
Q 1906 3584 2284 3584 
Q 2666 3584 2933 3390 
Q 3200 3197 3328 2828 
z
" id="DejaVuSans-6d" transform="scale(0.015625)"/>
       <path d="M 3116 1747 
Q 3116 2381 2855 2742 
Q 2594 3103 2138 3103 
Q 1681 3103 1420 2742 
Q 1159 2381 1159 1747 
Q 1159 1113 1420 752 
Q 1681 391 2138 391 
Q 2594 391 2855 752 
Q 3116 1113 3116 1747 
z
M 1159 2969 
Q 1341 3281 1617 3432 
Q 1894 3584 2278 3584 
Q 2916 3584 3314 3078 
Q 3713 2572 3713 1747 
Q 3713 922 3314 415 
Q 2916 -91 2278 -91 
Q 1894 -91 1617 61 
Q 1341 213 1159 525 
L 1159 0 
L 581 0 
L 581 4863 
L 1159 4863 
L 1159 2969 
z
" id="DejaVuSans-62" transform="scale(0.015625)"/>
       <path d="M 3597 1894 
L 3597 1613 
L 953 1613 
Q 991 1019 1311 708 
Q 1631 397 2203 397 
Q 2534 397 2845 478 
Q 3156 559 3463 722 
L 3463 178 
Q 3153 47 2828 -22 
Q 2503 -91 2169 -91 
Q 1331 -91 842 396 
Q 353 884 353 1716 
Q 353 2575 817 3079 
Q 1281 3584 2069 3584 
Q 2775 3584 3186 3129 
Q 3597 2675 3597 1894 
z
M 3022 2063 
Q 3016 2534 2758 2815 
Q 2500 3097 2075 3097 
Q 1594 3097 1305 2825 
Q 1016 2553 972 2059 
L 3022 2063 
z
" id="DejaVuSans-65" transform="scale(0.015625)"/>
       <path d="M 2631 2963 
Q 2534 3019 2420 3045 
Q 2306 3072 2169 3072 
Q 1681 3072 1420 2755 
Q 1159 2438 1159 1844 
L 1159 0 
L 581 0 
L 581 3500 
L 1159 3500 
L 1159 2956 
Q 1341 3275 1631 3429 
Q 1922 3584 2338 3584 
Q 2397 3584 2469 3576 
Q 2541 3569 2628 3553 
L 2631 2963 
z
" id="DejaVuSans-72" transform="scale(0.015625)"/>
      </defs>
      <use xlink:href="#DejaVuSans-45"/>
      <use x="63.183594" xlink:href="#DejaVuSans-70"/>
      <use x="126.660156" xlink:href="#DejaVuSans-6f"/>
      <use x="187.841797" xlink:href="#DejaVuSans-63"/>
      <use x="242.822266" xlink:href="#DejaVuSans-68"/>
      <use x="306.201172" xlink:href="#DejaVuSans-20"/>
      <use x="337.988281" xlink:href="#DejaVuSans-6e"/>
      <use x="401.367188" xlink:href="#DejaVuSans-75"/>
      <use x="464.746094" xlink:href="#DejaVuSans-6d"/>
      <use x="562.158203" xlink:href="#DejaVuSans-62"/>
      <use x="625.634766" xlink:href="#DejaVuSans-65"/>
      <use x="687.158203" xlink:href="#DejaVuSans-72"/>
     </g>
    </g>
   </g>
   <g id="matplotlib.axis_2">
    <g id="ytick_1">
     <g id="line2d_13">
      <path clip-path="url(#p55795b4d4b)" d="M 45.716875 205.472721 
L 492.116875 205.472721 
" style="fill:none;stroke:#ffffff;stroke-linecap:square;stroke-width:0.8;"/>
     </g>
     <g id="line2d_14">
      <defs>
       <path d="M 0 0 
L -3.5 0 
" id="m68ebda6c74" style="stroke:#555555;stroke-width:0.8;"/>
      </defs>
      <g>
       <use style="fill:#555555;stroke:#555555;stroke-width:0.8;" x="45.716875" xlink:href="#m68ebda6c74" y="205.472721"/>
      </g>
     </g>
     <g id="text_8">
      <!-- 0.2 -->
      <g style="fill:#555555;" transform="translate(22.81375 209.27194)scale(0.1 -0.1)">
       <defs>
        <path d="M 684 794 
L 1344 794 
L 1344 0 
L 684 0 
L 684 794 
z
" id="DejaVuSans-2e" transform="scale(0.015625)"/>
       </defs>
       <use xlink:href="#DejaVuSans-30"/>
       <use x="63.623047" xlink:href="#DejaVuSans-2e"/>
       <use x="95.410156" xlink:href="#DejaVuSans-32"/>
      </g>
     </g>
    </g>
    <g id="ytick_2">
     <g id="line2d_15">
      <path clip-path="url(#p55795b4d4b)" d="M 45.716875 168.410696 
L 492.116875 168.410696 
" style="fill:none;stroke:#ffffff;stroke-linecap:square;stroke-width:0.8;"/>
     </g>
     <g id="line2d_16">
      <g>
       <use style="fill:#555555;stroke:#555555;stroke-width:0.8;" x="45.716875" xlink:href="#m68ebda6c74" y="168.410696"/>
      </g>
     </g>
     <g id="text_9">
      <!-- 0.4 -->
      <g style="fill:#555555;" transform="translate(22.81375 172.209915)scale(0.1 -0.1)">
       <use xlink:href="#DejaVuSans-30"/>
       <use x="63.623047" xlink:href="#DejaVuSans-2e"/>
       <use x="95.410156" xlink:href="#DejaVuSans-34"/>
      </g>
     </g>
    </g>
    <g id="ytick_3">
     <g id="line2d_17">
      <path clip-path="url(#p55795b4d4b)" d="M 45.716875 131.348672 
L 492.116875 131.348672 
" style="fill:none;stroke:#ffffff;stroke-linecap:square;stroke-width:0.8;"/>
     </g>
     <g id="line2d_18">
      <g>
       <use style="fill:#555555;stroke:#555555;stroke-width:0.8;" x="45.716875" xlink:href="#m68ebda6c74" y="131.348672"/>
      </g>
     </g>
     <g id="text_10">
      <!-- 0.6 -->
      <g style="fill:#555555;" transform="translate(22.81375 135.14789)scale(0.1 -0.1)">
       <use xlink:href="#DejaVuSans-30"/>
       <use x="63.623047" xlink:href="#DejaVuSans-2e"/>
       <use x="95.410156" xlink:href="#DejaVuSans-36"/>
      </g>
     </g>
    </g>
    <g id="ytick_4">
     <g id="line2d_19">
      <path clip-path="url(#p55795b4d4b)" d="M 45.716875 94.286647 
L 492.116875 94.286647 
" style="fill:none;stroke:#ffffff;stroke-linecap:square;stroke-width:0.8;"/>
     </g>
     <g id="line2d_20">
      <g>
       <use style="fill:#555555;stroke:#555555;stroke-width:0.8;" x="45.716875" xlink:href="#m68ebda6c74" y="94.286647"/>
      </g>
     </g>
     <g id="text_11">
      <!-- 0.8 -->
      <g style="fill:#555555;" transform="translate(22.81375 98.085866)scale(0.1 -0.1)">
       <use xlink:href="#DejaVuSans-30"/>
       <use x="63.623047" xlink:href="#DejaVuSans-2e"/>
       <use x="95.410156" xlink:href="#DejaVuSans-38"/>
      </g>
     </g>
    </g>
    <g id="ytick_5">
     <g id="line2d_21">
      <path clip-path="url(#p55795b4d4b)" d="M 45.716875 57.224622 
L 492.116875 57.224622 
" style="fill:none;stroke:#ffffff;stroke-linecap:square;stroke-width:0.8;"/>
     </g>
     <g id="line2d_22">
      <g>
       <use style="fill:#555555;stroke:#555555;stroke-width:0.8;" x="45.716875" xlink:href="#m68ebda6c74" y="57.224622"/>
      </g>
     </g>
     <g id="text_12">
      <!-- 1.0 -->
      <g style="fill:#555555;" transform="translate(22.81375 61.023841)scale(0.1 -0.1)">
       <use xlink:href="#DejaVuSans-31"/>
       <use x="63.623047" xlink:href="#DejaVuSans-2e"/>
       <use x="95.410156" xlink:href="#DejaVuSans-30"/>
      </g>
     </g>
    </g>
    <g id="ytick_6">
     <g id="line2d_23">
      <path clip-path="url(#p55795b4d4b)" d="M 45.716875 20.162597 
L 492.116875 20.162597 
" style="fill:none;stroke:#ffffff;stroke-linecap:square;stroke-width:0.8;"/>
     </g>
     <g id="line2d_24">
      <g>
       <use style="fill:#555555;stroke:#555555;stroke-width:0.8;" x="45.716875" xlink:href="#m68ebda6c74" y="20.162597"/>
      </g>
     </g>
     <g id="text_13">
      <!-- 1.2 -->
      <g style="fill:#555555;" transform="translate(22.81375 23.961816)scale(0.1 -0.1)">
       <use xlink:href="#DejaVuSans-31"/>
       <use x="63.623047" xlink:href="#DejaVuSans-2e"/>
       <use x="95.410156" xlink:href="#DejaVuSans-32"/>
      </g>
     </g>
    </g>
    <g id="text_14">
     <!-- Error -->
     <g style="fill:#555555;" transform="translate(16.318125 130.542187)rotate(-90)scale(0.12 -0.12)">
      <use xlink:href="#DejaVuSans-45"/>
      <use x="63.183594" xlink:href="#DejaVuSans-72"/>
      <use x="102.546875" xlink:href="#DejaVuSans-72"/>
      <use x="141.410156" xlink:href="#DejaVuSans-6f"/>
      <use x="202.591797" xlink:href="#DejaVuSans-72"/>
     </g>
    </g>
   </g>
   <g id="line2d_25">
    <path clip-path="url(#p55795b4d4b)" d="M 66.007784 17.759134 
L 70.106958 42.293245 
L 74.206131 57.672053 
L 78.305305 64.563959 
L 82.404478 74.296742 
L 86.503652 77.701083 
L 90.602825 82.473503 
L 94.701999 87.215543 
L 98.801173 90.063715 
L 102.900346 92.692547 
L 106.99952 95.629296 
L 111.098693 96.090958 
L 115.197867 100.267379 
L 119.29704 101.401946 
L 123.396214 102.198753 
L 127.495387 104.982257 
L 131.594561 106.037706 
L 135.693735 108.419152 
L 139.792908 110.105775 
L 143.892082 108.87505 
L 147.991255 112.479851 
L 152.090429 111.571359 
L 156.189602 113.69677 
L 160.288776 114.937161 
L 164.387949 116.33855 
L 168.487123 116.983246 
L 172.586296 117.158756 
L 176.68547 118.747568 
L 180.784644 117.873178 
L 184.883817 119.130442 
L 188.982991 119.647336 
L 193.082164 118.308723 
L 197.181338 120.765689 
L 201.280511 119.98556 
L 205.379685 120.693428 
L 209.478858 121.990013 
L 213.578032 123.032184 
L 217.677206 122.731873 
L 221.776379 123.318562 
L 225.875553 122.215275 
L 229.974726 123.107087 
L 234.0739 123.448113 
L 238.173073 123.908702 
L 242.272247 125.099511 
L 246.37142 125.198275 
L 250.470594 125.099074 
L 254.569768 126.157067 
L 258.668941 126.035542 
L 262.768115 126.126242 
L 266.867288 128.117058 
L 270.966462 127.726953 
L 275.065635 125.670179 
L 279.164809 127.273565 
L 283.263982 126.996575 
L 287.363156 128.70886 
L 291.46233 128.813934 
L 295.561503 129.393212 
L 299.660677 128.661006 
L 303.75985 128.160521 
L 307.859024 128.85759 
L 311.958197 128.714882 
L 316.057371 130.408127 
L 320.156544 130.067936 
L 324.255718 129.569367 
L 328.354892 129.863774 
L 332.454065 130.805768 
L 336.553239 129.930486 
L 340.652412 130.972398 
L 344.751586 131.898428 
L 348.850759 130.897247 
L 352.949933 130.403414 
L 357.049106 131.829318 
L 361.14828 132.408157 
L 365.247454 132.170885 
L 369.346627 130.895985 
L 373.445801 130.994435 
L 377.544974 131.33312 
L 381.644148 132.177323 
L 385.743321 132.464588 
L 389.842495 131.920117 
L 393.941668 132.417448 
L 398.040842 133.31315 
L 402.140015 133.64062 
L 406.239189 132.782536 
L 410.338363 133.656197 
L 414.437536 133.293409 
L 418.53671 133.355534 
L 422.635883 133.837266 
L 426.735057 132.793768 
L 430.83423 133.630544 
L 434.933404 134.667946 
L 439.032577 133.570947 
L 443.131751 134.281989 
L 447.230925 133.403837 
L 451.330098 135.298891 
L 455.429272 132.9736 
L 459.528445 134.84728 
L 463.627619 134.498323 
L 467.726792 134.138152 
L 471.825966 134.320964 
" style="fill:none;stroke:#ff0000;stroke-linecap:square;stroke-width:1.5;"/>
   </g>
   <g id="line2d_26">
    <path clip-path="url(#p55795b4d4b)" d="M 66.007784 42.681234 
L 70.106958 76.903252 
L 74.206131 93.701373 
L 78.305305 104.853775 
L 82.404478 114.161943 
L 86.503652 120.499669 
L 90.602825 126.176208 
L 94.701999 130.72292 
L 98.801173 134.821544 
L 102.900346 137.925652 
L 106.99952 139.817237 
L 111.098693 142.130147 
L 115.197867 144.273803 
L 119.29704 144.894878 
L 123.396214 146.795642 
L 127.495387 148.892336 
L 131.594561 148.96933 
L 135.693735 151.529264 
L 139.792908 151.202181 
L 143.892082 153.156908 
L 147.991255 154.3852 
L 152.090429 155.743691 
L 156.189602 156.643212 
L 160.288776 157.511636 
L 164.387949 157.411987 
L 168.487123 159.111228 
L 172.586296 159.32876 
L 176.68547 160.478632 
L 180.784644 161.697951 
L 184.883817 161.900472 
L 188.982991 163.53844 
L 193.082164 163.02653 
L 197.181338 163.539579 
L 201.280511 164.586343 
L 205.379685 165.01002 
L 209.478858 165.233835 
L 213.578032 164.903024 
L 217.677206 167.466413 
L 221.776379 166.021864 
L 225.875553 164.918295 
L 229.974726 167.821326 
L 234.0739 168.103361 
L 238.173073 168.782813 
L 242.272247 169.083406 
L 246.37142 169.159307 
L 250.470594 170.010174 
L 254.569768 169.765834 
L 258.668941 170.363766 
L 262.768115 169.620478 
L 266.867288 170.684661 
L 270.966462 170.956708 
L 275.065635 171.228131 
L 279.164809 170.976366 
L 283.263982 171.599454 
L 287.363156 172.52773 
L 291.46233 173.079963 
L 295.561503 172.488957 
L 299.660677 173.359559 
L 303.75985 172.565749 
L 307.859024 175.014843 
L 311.958197 173.023763 
L 316.057371 174.838107 
L 320.156544 173.912275 
L 324.255718 174.756183 
L 328.354892 173.320975 
L 332.454065 174.494449 
L 336.553239 174.710694 
L 340.652412 175.642246 
L 344.751586 174.679593 
L 348.850759 175.413949 
L 352.949933 175.646884 
L 357.049106 176.006873 
L 361.14828 174.187355 
L 365.247454 176.320615 
L 369.346627 176.787201 
L 373.445801 177.802829 
L 377.544974 176.040156 
L 381.644148 176.829317 
L 385.743321 177.79521 
L 389.842495 178.395857 
L 393.941668 177.034856 
L 398.040842 177.31721 
L 402.140015 178.404599 
L 406.239189 178.958686 
L 410.338363 178.863289 
L 414.437536 178.223775 
L 418.53671 178.811587 
L 422.635883 178.380293 
L 426.735057 178.808554 
L 430.83423 178.359237 
L 434.933404 179.543909 
L 439.032577 178.545953 
L 443.131751 178.793773 
L 447.230925 179.610489 
L 451.330098 180.026008 
L 455.429272 179.833777 
L 459.528445 181.440794 
L 463.627619 179.132019 
L 467.726792 180.703954 
L 471.825966 180.114 
" style="fill:none;stroke:#0000ff;stroke-linecap:square;stroke-width:1.5;"/>
   </g>
   <g id="line2d_27">
    <path clip-path="url(#p55795b4d4b)" d="M 66.007784 71.304052 
L 70.106958 112.163699 
L 74.206131 129.267992 
L 78.305305 139.501707 
L 82.404478 146.625044 
L 86.503652 152.371071 
L 90.602825 156.695997 
L 94.701999 160.933712 
L 98.801173 163.750343 
L 102.900346 167.852668 
L 106.99952 168.474384 
L 111.098693 170.748103 
L 115.197867 173.175383 
L 119.29704 173.622202 
L 123.396214 175.017392 
L 127.495387 176.804226 
L 131.594561 178.826663 
L 135.693735 179.949831 
L 139.792908 182.761951 
L 143.892082 183.29046 
L 147.991255 184.091259 
L 152.090429 184.492285 
L 156.189602 183.749655 
L 160.288776 185.857686 
L 164.387949 186.899389 
L 168.487123 186.648249 
L 172.586296 188.742134 
L 176.68547 190.238906 
L 180.784644 190.545764 
L 184.883817 191.352621 
L 188.982991 191.61642 
L 193.082164 191.333636 
L 197.181338 191.761681 
L 201.280511 192.293852 
L 205.379685 193.133302 
L 209.478858 194.665699 
L 213.578032 195.217542 
L 217.677206 194.973593 
L 221.776379 195.702416 
L 225.875553 195.314553 
L 229.974726 196.451675 
L 234.0739 196.74695 
L 238.173073 197.218713 
L 242.272247 198.042013 
L 246.37142 198.937929 
L 250.470594 197.654661 
L 254.569768 199.96528 
L 258.668941 198.501085 
L 262.768115 200.63832 
L 266.867288 201.785544 
L 270.966462 201.096969 
L 275.065635 201.843097 
L 279.164809 202.106523 
L 283.263982 202.442032 
L 287.363156 202.980108 
L 291.46233 202.972991 
L 295.561503 202.080314 
L 299.660677 203.572201 
L 303.75985 203.341559 
L 307.859024 204.189522 
L 311.958197 204.032348 
L 316.057371 204.449948 
L 320.156544 204.3934 
L 324.255718 206.279584 
L 328.354892 202.997891 
L 332.454065 206.312085 
L 336.553239 205.708639 
L 340.652412 206.464347 
L 344.751586 205.947628 
L 348.850759 207.00187 
L 352.949933 205.939748 
L 357.049106 206.670303 
L 361.14828 208.448016 
L 365.247454 207.751443 
L 369.346627 209.128884 
L 373.445801 209.333546 
L 377.544974 207.878175 
L 381.644148 208.802994 
L 385.743321 209.447979 
L 389.842495 209.062131 
L 393.941668 209.549512 
L 398.040842 207.115907 
L 402.140015 209.412648 
L 406.239189 209.151905 
L 410.338363 208.200388 
L 414.437536 210.716842 
L 418.53671 210.489303 
L 422.635883 211.12287 
L 426.735057 210.268304 
L 430.83423 211.838726 
L 434.933404 211.422458 
L 439.032577 213.29844 
L 443.131751 212.400177 
L 447.230925 212.519271 
L 451.330098 210.765055 
L 455.429272 211.98503 
L 459.528445 211.722878 
L 463.627619 212.268457 
L 467.726792 212.222149 
L 471.825966 214.756364 
" style="fill:none;stroke:#800080;stroke-linecap:square;stroke-width:1.5;"/>
   </g>
   <g id="line2d_28">
    <path clip-path="url(#p55795b4d4b)" d="M 66.007784 17.083636 
L 70.106958 39.539964 
L 74.206131 53.214593 
L 78.305305 59.371837 
L 82.404478 68.149196 
L 86.503652 70.36718 
L 90.602825 75.496616 
L 94.701999 79.304656 
L 98.801173 81.926443 
L 102.900346 83.153092 
L 106.99952 85.495547 
L 111.098693 85.917708 
L 115.197867 89.810708 
L 119.29704 90.526525 
L 123.396214 91.103847 
L 127.495387 92.737098 
L 131.594561 93.913691 
L 135.693735 95.582682 
L 139.792908 97.239888 
L 143.892082 95.94074 
L 147.991255 99.361158 
L 152.090429 97.734522 
L 156.189602 99.554379 
L 160.288776 100.418888 
L 164.387949 101.678075 
L 168.487123 102.139201 
L 172.586296 101.743772 
L 176.68547 102.92468 
L 180.784644 102.097061 
L 184.883817 102.809468 
L 188.982991 102.792599 
L 193.082164 101.639129 
L 197.181338 103.878166 
L 201.280511 102.849468 
L 205.379685 103.75307 
L 209.478858 104.053864 
L 213.578032 105.119101 
L 217.677206 105.384955 
L 221.776379 105.436922 
L 225.875553 103.722567 
L 229.974726 104.649609 
L 234.0739 105.103594 
L 238.173073 105.38001 
L 242.272247 106.366987 
L 246.37142 105.767635 
L 250.470594 106.515048 
L 254.569768 106.689318 
L 258.668941 106.302974 
L 262.768115 106.189232 
L 266.867288 108.16998 
L 270.966462 107.814793 
L 275.065635 105.742087 
L 279.164809 106.867192 
L 283.263982 105.838649 
L 287.363156 108.045862 
L 291.46233 107.799233 
L 295.561503 108.43847 
L 299.660677 106.726622 
L 303.75985 106.292514 
L 307.859024 106.630816 
L 311.958197 107.031957 
L 316.057371 109.163005 
L 320.156544 107.755606 
L 324.255718 107.332308 
L 328.354892 107.419817 
L 332.454065 108.376078 
L 336.553239 106.118978 
L 340.652412 107.948372 
L 344.751586 108.62412 
L 348.850759 107.313011 
L 352.949933 106.638325 
L 357.049106 108.584605 
L 361.14828 108.312097 
L 365.247454 108.154266 
L 369.346627 106.296522 
L 373.445801 106.479285 
L 377.544974 106.951727 
L 381.644148 107.684868 
L 385.743321 108.404424 
L 389.842495 106.909327 
L 393.941668 107.503056 
L 398.040842 107.744554 
L 402.140015 108.544515 
L 406.239189 106.918579 
L 410.338363 107.940679 
L 414.437536 107.149231 
L 418.53671 107.208146 
L 422.635883 107.913196 
L 426.735057 105.656209 
L 430.83423 107.408815 
L 434.933404 108.128078 
L 439.032577 106.453291 
L 443.131751 107.106407 
L 447.230925 106.293939 
L 451.330098 108.729773 
L 455.429272 105.659884 
L 459.528445 108.316639 
L 463.627619 106.703465 
L 467.726792 107.380609 
L 471.825966 106.826031 
" style="fill:none;stroke:#808080;stroke-dasharray:5.55,2.4;stroke-dashoffset:0;stroke-width:1.5;"/>
   </g>
   <g id="line2d_29">
    <path clip-path="url(#p55795b4d4b)" d="M 66.007784 40.648655 
L 70.106958 72.529043 
L 74.206131 87.740037 
L 78.305305 97.509471 
L 82.404478 105.329596 
L 86.503652 110.09813 
L 90.602825 114.49753 
L 94.701999 118.263592 
L 98.801173 121.642275 
L 102.900346 124.081442 
L 106.99952 124.97102 
L 111.098693 126.516825 
L 115.197867 127.18043 
L 119.29704 127.447828 
L 123.396214 129.037513 
L 127.495387 130.422456 
L 131.594561 129.761846 
L 135.693735 131.348229 
L 139.792908 129.724279 
L 143.892082 131.611504 
L 147.991255 132.10356 
L 152.090429 132.675343 
L 156.189602 132.598829 
L 160.288776 133.183262 
L 164.387949 131.99559 
L 168.487123 132.625022 
L 172.586296 131.595751 
L 176.68547 133.145801 
L 180.784644 133.148141 
L 184.883817 133.929569 
L 188.982991 134.378826 
L 193.082164 132.712656 
L 197.181338 131.840947 
L 201.280511 133.288256 
L 205.379685 133.000656 
L 209.478858 132.653575 
L 213.578032 131.394031 
L 217.677206 134.472286 
L 221.776379 130.932546 
L 225.875553 129.969009 
L 229.974726 132.154394 
L 234.0739 132.415046 
L 238.173073 131.626651 
L 242.272247 132.267136 
L 246.37142 131.13791 
L 250.470594 131.949766 
L 254.569768 131.341738 
L 258.668941 130.993431 
L 262.768115 130.208504 
L 266.867288 129.637046 
L 270.966462 130.071554 
L 275.065635 128.989895 
L 279.164809 128.969638 
L 283.263982 128.830718 
L 287.363156 129.821065 
L 291.46233 128.900306 
L 295.561503 128.298223 
L 299.660677 129.672454 
L 303.75985 126.960618 
L 307.859024 129.329608 
L 311.958197 126.216394 
L 316.057371 127.986718 
L 320.156544 127.0174 
L 324.255718 127.860286 
L 328.354892 124.236997 
L 332.454065 126.469904 
L 336.553239 126.03541 
L 340.652412 126.47091 
L 344.751586 124.583864 
L 348.850759 124.9007 
L 352.949933 124.282275 
L 357.049106 124.237643 
L 361.14828 122.519349 
L 365.247454 125.089785 
L 369.346627 123.905306 
L 373.445801 125.305831 
L 377.544974 122.887455 
L 381.644148 122.357403 
L 385.743321 123.044083 
L 389.842495 123.081555 
L 393.941668 121.581157 
L 398.040842 121.175141 
L 402.140015 121.901141 
L 406.239189 122.619697 
L 410.338363 121.386954 
L 414.437536 120.274815 
L 418.53671 121.620747 
L 422.635883 120.4657 
L 426.735057 120.32867 
L 430.83423 119.297707 
L 434.933404 118.827949 
L 439.032577 117.517505 
L 443.131751 118.184434 
L 447.230925 119.120363 
L 451.330098 117.984339 
L 455.429272 117.599426 
L 459.528445 119.034148 
L 463.627619 116.964987 
L 467.726792 117.662495 
L 471.825966 116.388836 
" style="fill:none;stroke:#ffff00;stroke-dasharray:5.55,2.4;stroke-dashoffset:0;stroke-width:1.5;"/>
   </g>
   <g id="line2d_30">
    <path clip-path="url(#p55795b4d4b)" d="M 66.007784 67.320692 
L 70.106958 105.809017 
L 74.206131 120.241413 
L 78.305305 128.865366 
L 82.404478 134.277259 
L 86.503652 137.52675 
L 90.602825 139.664255 
L 94.701999 142.271115 
L 98.801173 143.421338 
L 102.900346 145.155334 
L 106.99952 143.601737 
L 111.098693 143.985955 
L 115.197867 144.232733 
L 119.29704 143.810747 
L 123.396214 143.025504 
L 127.495387 143.49968 
L 131.594561 143.282013 
L 135.693735 142.728118 
L 139.792908 144.601243 
L 143.892082 143.815101 
L 147.991255 143.887438 
L 152.090429 141.943451 
L 156.189602 139.900638 
L 160.288776 139.575418 
L 164.387949 138.631883 
L 168.487123 136.600815 
L 172.586296 137.852497 
L 176.68547 138.48938 
L 180.784644 137.242973 
L 184.883817 136.863008 
L 188.982991 135.665585 
L 193.082164 133.575767 
L 197.181338 132.915973 
L 201.280511 130.996163 
L 205.379685 130.121803 
L 209.478858 131.116669 
L 213.578032 131.684978 
L 217.677206 128.478981 
L 221.776379 127.037347 
L 225.875553 125.185065 
L 229.974726 126.288725 
L 234.0739 124.359412 
L 238.173073 123.857005 
L 242.272247 123.307281 
L 246.37142 123.25088 
L 250.470594 120.08949 
L 254.569768 120.372284 
L 258.668941 117.763888 
L 262.768115 118.550888 
L 266.867288 119.77569 
L 270.966462 117.722269 
L 275.065635 117.226922 
L 279.164809 115.398664 
L 283.263982 113.511086 
L 287.363156 112.32812 
L 291.46233 111.718622 
L 295.561503 107.87175 
L 299.660677 111.401711 
L 303.75985 110.454979 
L 307.859024 108.237432 
L 311.958197 105.166055 
L 316.057371 106.183696 
L 320.156544 103.975543 
L 324.255718 104.903182 
L 328.354892 100.104959 
L 332.454065 101.60519 
L 336.553239 98.513175 
L 340.652412 99.437772 
L 344.751586 98.139609 
L 348.850759 97.035659 
L 352.949933 95.290154 
L 357.049106 93.473711 
L 361.14828 94.0986 
L 365.247454 93.048612 
L 369.346627 91.832841 
L 373.445801 91.338013 
L 377.544974 89.080007 
L 381.644148 87.332664 
L 385.743321 87.264755 
L 389.842495 85.41604 
L 393.941668 84.086757 
L 398.040842 80.894187 
L 402.140015 83.507648 
L 406.239189 80.382644 
L 410.338363 78.791978 
L 414.437536 79.832441 
L 418.53671 78.413016 
L 422.635883 76.900301 
L 426.735057 76.853004 
L 430.83423 77.030828 
L 434.933404 73.899819 
L 439.032577 75.320473 
L 443.131751 71.545595 
L 447.230925 70.38215 
L 451.330098 66.74392 
L 455.429272 68.459755 
L 459.528445 66.682886 
L 463.627619 63.625828 
L 467.726792 62.06846 
L 471.825966 66.032129 
" style="fill:none;stroke:#008000;stroke-dasharray:5.55,2.4;stroke-dashoffset:0;stroke-width:1.5;"/>
   </g>
   <g id="patch_3">
    <path d="M 45.716875 224.64 
L 45.716875 7.2 
" style="fill:none;stroke:#ffffff;stroke-linecap:square;stroke-linejoin:miter;"/>
   </g>
   <g id="patch_4">
    <path d="M 492.116875 224.64 
L 492.116875 7.2 
" style="fill:none;stroke:#ffffff;stroke-linecap:square;stroke-linejoin:miter;"/>
   </g>
   <g id="patch_5">
    <path d="M 45.716875 224.64 
L 492.116875 224.64 
" style="fill:none;stroke:#ffffff;stroke-linecap:square;stroke-linejoin:miter;"/>
   </g>
   <g id="patch_6">
    <path d="M 45.716875 7.2 
L 492.116875 7.2 
" style="fill:none;stroke:#ffffff;stroke-linecap:square;stroke-linejoin:miter;"/>
   </g>
   <g id="legend_1">
    <g id="patch_7">
     <path d="M 499.116875 103.26875 
L 612.699687 103.26875 
Q 614.699687 103.26875 614.699687 101.26875 
L 614.699687 14.2 
Q 614.699687 12.2 612.699687 12.2 
L 499.116875 12.2 
Q 497.116875 12.2 497.116875 14.2 
L 497.116875 101.26875 
Q 497.116875 103.26875 499.116875 103.26875 
z
" style="fill:#e5e5e5;opacity:0.8;stroke:#cccccc;stroke-linejoin:miter;stroke-width:0.5;"/>
    </g>
    <g id="line2d_31">
     <path d="M 501.116875 20.298437 
L 521.116875 20.298437 
" style="fill:none;stroke:#ff0000;stroke-linecap:square;stroke-width:1.5;"/>
    </g>
    <g id="line2d_32"/>
    <g id="text_15">
     <!-- width 32(train) -->
     <g transform="translate(529.116875 23.798437)scale(0.1 -0.1)">
      <defs>
       <path d="M 269 3500 
L 844 3500 
L 1563 769 
L 2278 3500 
L 2956 3500 
L 3675 769 
L 4391 3500 
L 4966 3500 
L 4050 0 
L 3372 0 
L 2619 2869 
L 1863 0 
L 1184 0 
L 269 3500 
z
" id="DejaVuSans-77" transform="scale(0.015625)"/>
       <path d="M 603 3500 
L 1178 3500 
L 1178 0 
L 603 0 
L 603 3500 
z
M 603 4863 
L 1178 4863 
L 1178 4134 
L 603 4134 
L 603 4863 
z
" id="DejaVuSans-69" transform="scale(0.015625)"/>
       <path d="M 2906 2969 
L 2906 4863 
L 3481 4863 
L 3481 0 
L 2906 0 
L 2906 525 
Q 2725 213 2448 61 
Q 2172 -91 1784 -91 
Q 1150 -91 751 415 
Q 353 922 353 1747 
Q 353 2572 751 3078 
Q 1150 3584 1784 3584 
Q 2172 3584 2448 3432 
Q 2725 3281 2906 2969 
z
M 947 1747 
Q 947 1113 1208 752 
Q 1469 391 1925 391 
Q 2381 391 2643 752 
Q 2906 1113 2906 1747 
Q 2906 2381 2643 2742 
Q 2381 3103 1925 3103 
Q 1469 3103 1208 2742 
Q 947 2381 947 1747 
z
" id="DejaVuSans-64" transform="scale(0.015625)"/>
       <path d="M 1172 4494 
L 1172 3500 
L 2356 3500 
L 2356 3053 
L 1172 3053 
L 1172 1153 
Q 1172 725 1289 603 
Q 1406 481 1766 481 
L 2356 481 
L 2356 0 
L 1766 0 
Q 1100 0 847 248 
Q 594 497 594 1153 
L 594 3053 
L 172 3053 
L 172 3500 
L 594 3500 
L 594 4494 
L 1172 4494 
z
" id="DejaVuSans-74" transform="scale(0.015625)"/>
       <path d="M 2597 2516 
Q 3050 2419 3304 2112 
Q 3559 1806 3559 1356 
Q 3559 666 3084 287 
Q 2609 -91 1734 -91 
Q 1441 -91 1130 -33 
Q 819 25 488 141 
L 488 750 
Q 750 597 1062 519 
Q 1375 441 1716 441 
Q 2309 441 2620 675 
Q 2931 909 2931 1356 
Q 2931 1769 2642 2001 
Q 2353 2234 1838 2234 
L 1294 2234 
L 1294 2753 
L 1863 2753 
Q 2328 2753 2575 2939 
Q 2822 3125 2822 3475 
Q 2822 3834 2567 4026 
Q 2313 4219 1838 4219 
Q 1578 4219 1281 4162 
Q 984 4106 628 3988 
L 628 4550 
Q 988 4650 1302 4700 
Q 1616 4750 1894 4750 
Q 2613 4750 3031 4423 
Q 3450 4097 3450 3541 
Q 3450 3153 3228 2886 
Q 3006 2619 2597 2516 
z
" id="DejaVuSans-33" transform="scale(0.015625)"/>
       <path d="M 1984 4856 
Q 1566 4138 1362 3434 
Q 1159 2731 1159 2009 
Q 1159 1288 1364 580 
Q 1569 -128 1984 -844 
L 1484 -844 
Q 1016 -109 783 600 
Q 550 1309 550 2009 
Q 550 2706 781 3412 
Q 1013 4119 1484 4856 
L 1984 4856 
z
" id="DejaVuSans-28" transform="scale(0.015625)"/>
       <path d="M 2194 1759 
Q 1497 1759 1228 1600 
Q 959 1441 959 1056 
Q 959 750 1161 570 
Q 1363 391 1709 391 
Q 2188 391 2477 730 
Q 2766 1069 2766 1631 
L 2766 1759 
L 2194 1759 
z
M 3341 1997 
L 3341 0 
L 2766 0 
L 2766 531 
Q 2569 213 2275 61 
Q 1981 -91 1556 -91 
Q 1019 -91 701 211 
Q 384 513 384 1019 
Q 384 1609 779 1909 
Q 1175 2209 1959 2209 
L 2766 2209 
L 2766 2266 
Q 2766 2663 2505 2880 
Q 2244 3097 1772 3097 
Q 1472 3097 1187 3025 
Q 903 2953 641 2809 
L 641 3341 
Q 956 3463 1253 3523 
Q 1550 3584 1831 3584 
Q 2591 3584 2966 3190 
Q 3341 2797 3341 1997 
z
" id="DejaVuSans-61" transform="scale(0.015625)"/>
       <path d="M 513 4856 
L 1013 4856 
Q 1481 4119 1714 3412 
Q 1947 2706 1947 2009 
Q 1947 1309 1714 600 
Q 1481 -109 1013 -844 
L 513 -844 
Q 928 -128 1133 580 
Q 1338 1288 1338 2009 
Q 1338 2731 1133 3434 
Q 928 4138 513 4856 
z
" id="DejaVuSans-29" transform="scale(0.015625)"/>
      </defs>
      <use xlink:href="#DejaVuSans-77"/>
      <use x="81.787109" xlink:href="#DejaVuSans-69"/>
      <use x="109.570312" xlink:href="#DejaVuSans-64"/>
      <use x="173.046875" xlink:href="#DejaVuSans-74"/>
      <use x="212.255859" xlink:href="#DejaVuSans-68"/>
      <use x="275.634766" xlink:href="#DejaVuSans-20"/>
      <use x="307.421875" xlink:href="#DejaVuSans-33"/>
      <use x="371.044922" xlink:href="#DejaVuSans-32"/>
      <use x="434.667969" xlink:href="#DejaVuSans-28"/>
      <use x="473.681641" xlink:href="#DejaVuSans-74"/>
      <use x="512.890625" xlink:href="#DejaVuSans-72"/>
      <use x="554.003906" xlink:href="#DejaVuSans-61"/>
      <use x="615.283203" xlink:href="#DejaVuSans-69"/>
      <use x="643.066406" xlink:href="#DejaVuSans-6e"/>
      <use x="706.445312" xlink:href="#DejaVuSans-29"/>
     </g>
    </g>
    <g id="line2d_33">
     <path d="M 501.116875 34.976562 
L 521.116875 34.976562 
" style="fill:none;stroke:#0000ff;stroke-linecap:square;stroke-width:1.5;"/>
    </g>
    <g id="line2d_34"/>
    <g id="text_16">
     <!-- width 64(train) -->
     <g transform="translate(529.116875 38.476562)scale(0.1 -0.1)">
      <use xlink:href="#DejaVuSans-77"/>
      <use x="81.787109" xlink:href="#DejaVuSans-69"/>
      <use x="109.570312" xlink:href="#DejaVuSans-64"/>
      <use x="173.046875" xlink:href="#DejaVuSans-74"/>
      <use x="212.255859" xlink:href="#DejaVuSans-68"/>
      <use x="275.634766" xlink:href="#DejaVuSans-20"/>
      <use x="307.421875" xlink:href="#DejaVuSans-36"/>
      <use x="371.044922" xlink:href="#DejaVuSans-34"/>
      <use x="434.667969" xlink:href="#DejaVuSans-28"/>
      <use x="473.681641" xlink:href="#DejaVuSans-74"/>
      <use x="512.890625" xlink:href="#DejaVuSans-72"/>
      <use x="554.003906" xlink:href="#DejaVuSans-61"/>
      <use x="615.283203" xlink:href="#DejaVuSans-69"/>
      <use x="643.066406" xlink:href="#DejaVuSans-6e"/>
      <use x="706.445312" xlink:href="#DejaVuSans-29"/>
     </g>
    </g>
    <g id="line2d_35">
     <path d="M 501.116875 49.654687 
L 521.116875 49.654687 
" style="fill:none;stroke:#800080;stroke-linecap:square;stroke-width:1.5;"/>
    </g>
    <g id="line2d_36"/>
    <g id="text_17">
     <!-- width 128(train) -->
     <g transform="translate(529.116875 53.154687)scale(0.1 -0.1)">
      <use xlink:href="#DejaVuSans-77"/>
      <use x="81.787109" xlink:href="#DejaVuSans-69"/>
      <use x="109.570312" xlink:href="#DejaVuSans-64"/>
      <use x="173.046875" xlink:href="#DejaVuSans-74"/>
      <use x="212.255859" xlink:href="#DejaVuSans-68"/>
      <use x="275.634766" xlink:href="#DejaVuSans-20"/>
      <use x="307.421875" xlink:href="#DejaVuSans-31"/>
      <use x="371.044922" xlink:href="#DejaVuSans-32"/>
      <use x="434.667969" xlink:href="#DejaVuSans-38"/>
      <use x="498.291016" xlink:href="#DejaVuSans-28"/>
      <use x="537.304688" xlink:href="#DejaVuSans-74"/>
      <use x="576.513672" xlink:href="#DejaVuSans-72"/>
      <use x="617.626953" xlink:href="#DejaVuSans-61"/>
      <use x="678.90625" xlink:href="#DejaVuSans-69"/>
      <use x="706.689453" xlink:href="#DejaVuSans-6e"/>
      <use x="770.068359" xlink:href="#DejaVuSans-29"/>
     </g>
    </g>
    <g id="line2d_37">
     <path d="M 501.116875 64.332812 
L 521.116875 64.332812 
" style="fill:none;stroke:#808080;stroke-dasharray:5.55,2.4;stroke-dashoffset:0;stroke-width:1.5;"/>
    </g>
    <g id="line2d_38"/>
    <g id="text_18">
     <!-- width 32(valid) -->
     <g transform="translate(529.116875 67.832812)scale(0.1 -0.1)">
      <defs>
       <path d="M 191 3500 
L 800 3500 
L 1894 563 
L 2988 3500 
L 3597 3500 
L 2284 0 
L 1503 0 
L 191 3500 
z
" id="DejaVuSans-76" transform="scale(0.015625)"/>
       <path d="M 603 4863 
L 1178 4863 
L 1178 0 
L 603 0 
L 603 4863 
z
" id="DejaVuSans-6c" transform="scale(0.015625)"/>
      </defs>
      <use xlink:href="#DejaVuSans-77"/>
      <use x="81.787109" xlink:href="#DejaVuSans-69"/>
      <use x="109.570312" xlink:href="#DejaVuSans-64"/>
      <use x="173.046875" xlink:href="#DejaVuSans-74"/>
      <use x="212.255859" xlink:href="#DejaVuSans-68"/>
      <use x="275.634766" xlink:href="#DejaVuSans-20"/>
      <use x="307.421875" xlink:href="#DejaVuSans-33"/>
      <use x="371.044922" xlink:href="#DejaVuSans-32"/>
      <use x="434.667969" xlink:href="#DejaVuSans-28"/>
      <use x="473.681641" xlink:href="#DejaVuSans-76"/>
      <use x="532.861328" xlink:href="#DejaVuSans-61"/>
      <use x="594.140625" xlink:href="#DejaVuSans-6c"/>
      <use x="621.923828" xlink:href="#DejaVuSans-69"/>
      <use x="649.707031" xlink:href="#DejaVuSans-64"/>
      <use x="713.183594" xlink:href="#DejaVuSans-29"/>
     </g>
    </g>
    <g id="line2d_39">
     <path d="M 501.116875 79.010937 
L 521.116875 79.010937 
" style="fill:none;stroke:#ffff00;stroke-dasharray:5.55,2.4;stroke-dashoffset:0;stroke-width:1.5;"/>
    </g>
    <g id="line2d_40"/>
    <g id="text_19">
     <!-- width 64(valid) -->
     <g transform="translate(529.116875 82.510937)scale(0.1 -0.1)">
      <use xlink:href="#DejaVuSans-77"/>
      <use x="81.787109" xlink:href="#DejaVuSans-69"/>
      <use x="109.570312" xlink:href="#DejaVuSans-64"/>
      <use x="173.046875" xlink:href="#DejaVuSans-74"/>
      <use x="212.255859" xlink:href="#DejaVuSans-68"/>
      <use x="275.634766" xlink:href="#DejaVuSans-20"/>
      <use x="307.421875" xlink:href="#DejaVuSans-36"/>
      <use x="371.044922" xlink:href="#DejaVuSans-34"/>
      <use x="434.667969" xlink:href="#DejaVuSans-28"/>
      <use x="473.681641" xlink:href="#DejaVuSans-76"/>
      <use x="532.861328" xlink:href="#DejaVuSans-61"/>
      <use x="594.140625" xlink:href="#DejaVuSans-6c"/>
      <use x="621.923828" xlink:href="#DejaVuSans-69"/>
      <use x="649.707031" xlink:href="#DejaVuSans-64"/>
      <use x="713.183594" xlink:href="#DejaVuSans-29"/>
     </g>
    </g>
    <g id="line2d_41">
     <path d="M 501.116875 93.689062 
L 521.116875 93.689062 
" style="fill:none;stroke:#008000;stroke-dasharray:5.55,2.4;stroke-dashoffset:0;stroke-width:1.5;"/>
    </g>
    <g id="line2d_42"/>
    <g id="text_20">
     <!-- width 128(valid) -->
     <g transform="translate(529.116875 97.189062)scale(0.1 -0.1)">
      <use xlink:href="#DejaVuSans-77"/>
      <use x="81.787109" xlink:href="#DejaVuSans-69"/>
      <use x="109.570312" xlink:href="#DejaVuSans-64"/>
      <use x="173.046875" xlink:href="#DejaVuSans-74"/>
      <use x="212.255859" xlink:href="#DejaVuSans-68"/>
      <use x="275.634766" xlink:href="#DejaVuSans-20"/>
      <use x="307.421875" xlink:href="#DejaVuSans-31"/>
      <use x="371.044922" xlink:href="#DejaVuSans-32"/>
      <use x="434.667969" xlink:href="#DejaVuSans-38"/>
      <use x="498.291016" xlink:href="#DejaVuSans-28"/>
      <use x="537.304688" xlink:href="#DejaVuSans-76"/>
      <use x="596.484375" xlink:href="#DejaVuSans-61"/>
      <use x="657.763672" xlink:href="#DejaVuSans-6c"/>
      <use x="685.546875" xlink:href="#DejaVuSans-69"/>
      <use x="713.330078" xlink:href="#DejaVuSans-64"/>
      <use x="776.806641" xlink:href="#DejaVuSans-29"/>
     </g>
    </g>
   </g>
  </g>
 </g>
 <defs>
  <clipPath id="p55795b4d4b">
   <rect height="217.44" width="446.4" x="45.716875" y="7.2"/>
  </clipPath>
 </defs>
</svg>
