<?xml version="1.0" encoding="utf-8" standalone="no"?>
<!DOCTYPE svg PUBLIC "-//W3C//DTD SVG 1.1//EN"
  "http://www.w3.org/Graphics/SVG/1.1/DTD/svg11.dtd">
<svg height="264.131875pt" version="1.1" viewBox="0 0 610.72 264.131875" width="610.72pt" xmlns="http://www.w3.org/2000/svg" xmlns:xlink="http://www.w3.org/1999/xlink">
 <metadata>
  <rdf:RDF xmlns:cc="http://creativecommons.org/ns#" xmlns:dc="http://purl.org/dc/elements/1.1/" xmlns:rdf="http://www.w3.org/1999/02/22-rdf-syntax-ns#">
   <cc:Work>
    <dc:type rdf:resource="http://purl.org/dc/dcmitype/StillImage"/>
    <dc:date>2021-11-04T00:00:30.827486</dc:date>
    <dc:format>image/svg+xml</dc:format>
    <dc:creator>
     <cc:Agent>
      <dc:title>Matplotlib v3.4.2, https://matplotlib.org/</dc:title>
     </cc:Agent>
    </dc:creator>
   </cc:Work>
  </rdf:RDF>
 </metadata>
 <defs>
  <style type="text/css">*{stroke-linecap:butt;stroke-linejoin:round;}</style>
 </defs>
 <g id="figure_1">
  <g id="patch_1">
   <path d="M 0 264.131875 
L 610.72 264.131875 
L 610.72 0 
L 0 0 
z
" style="fill:#ffffff;"/>
  </g>
  <g id="axes_1">
   <g id="patch_2">
    <path d="M 45.716875 224.64 
L 492.116875 224.64 
L 492.116875 7.2 
L 45.716875 7.2 
z
" style="fill:#e5e5e5;"/>
   </g>
   <g id="matplotlib.axis_1">
    <g id="xtick_1">
     <g id="line2d_1">
      <path clip-path="url(#p4bb2839d7d)" d="M 61.908611 224.64 
L 61.908611 7.2 
" style="fill:none;stroke:#ffffff;stroke-linecap:square;stroke-width:0.8;"/>
     </g>
     <g id="line2d_2">
      <defs>
       <path d="M 0 0 
L 0 3.5 
" id="m09a434cec2" style="stroke:#555555;stroke-width:0.8;"/>
      </defs>
      <g>
       <use style="fill:#555555;stroke:#555555;stroke-width:0.8;" x="61.908611" xlink:href="#m09a434cec2" y="224.64"/>
      </g>
     </g>
     <g id="text_1">
      <!-- 0 -->
      <g style="fill:#555555;" transform="translate(58.727361 239.238437)scale(0.1 -0.1)">
       <defs>
        <path d="M 2034 4250 
Q 1547 4250 1301 3770 
Q 1056 3291 1056 2328 
Q 1056 1369 1301 889 
Q 1547 409 2034 409 
Q 2525 409 2770 889 
Q 3016 1369 3016 2328 
Q 3016 3291 2770 3770 
Q 2525 4250 2034 4250 
z
M 2034 4750 
Q 2819 4750 3233 4129 
Q 3647 3509 3647 2328 
Q 3647 1150 3233 529 
Q 2819 -91 2034 -91 
Q 1250 -91 836 529 
Q 422 1150 422 2328 
Q 422 3509 836 4129 
Q 1250 4750 2034 4750 
z
" id="DejaVuSans-30" transform="scale(0.015625)"/>
       </defs>
       <use xlink:href="#DejaVuSans-30"/>
      </g>
     </g>
    </g>
    <g id="xtick_2">
     <g id="line2d_3">
      <path clip-path="url(#p4bb2839d7d)" d="M 143.892082 224.64 
L 143.892082 7.2 
" style="fill:none;stroke:#ffffff;stroke-linecap:square;stroke-width:0.8;"/>
     </g>
     <g id="line2d_4">
      <g>
       <use style="fill:#555555;stroke:#555555;stroke-width:0.8;" x="143.892082" xlink:href="#m09a434cec2" y="224.64"/>
      </g>
     </g>
     <g id="text_2">
      <!-- 20 -->
      <g style="fill:#555555;" transform="translate(137.529582 239.238437)scale(0.1 -0.1)">
       <defs>
        <path d="M 1228 531 
L 3431 531 
L 3431 0 
L 469 0 
L 469 531 
Q 828 903 1448 1529 
Q 2069 2156 2228 2338 
Q 2531 2678 2651 2914 
Q 2772 3150 2772 3378 
Q 2772 3750 2511 3984 
Q 2250 4219 1831 4219 
Q 1534 4219 1204 4116 
Q 875 4013 500 3803 
L 500 4441 
Q 881 4594 1212 4672 
Q 1544 4750 1819 4750 
Q 2544 4750 2975 4387 
Q 3406 4025 3406 3419 
Q 3406 3131 3298 2873 
Q 3191 2616 2906 2266 
Q 2828 2175 2409 1742 
Q 1991 1309 1228 531 
z
" id="DejaVuSans-32" transform="scale(0.015625)"/>
       </defs>
       <use xlink:href="#DejaVuSans-32"/>
       <use x="63.623047" xlink:href="#DejaVuSans-30"/>
      </g>
     </g>
    </g>
    <g id="xtick_3">
     <g id="line2d_5">
      <path clip-path="url(#p4bb2839d7d)" d="M 225.875553 224.64 
L 225.875553 7.2 
" style="fill:none;stroke:#ffffff;stroke-linecap:square;stroke-width:0.8;"/>
     </g>
     <g id="line2d_6">
      <g>
       <use style="fill:#555555;stroke:#555555;stroke-width:0.8;" x="225.875553" xlink:href="#m09a434cec2" y="224.64"/>
      </g>
     </g>
     <g id="text_3">
      <!-- 40 -->
      <g style="fill:#555555;" transform="translate(219.513053 239.238437)scale(0.1 -0.1)">
       <defs>
        <path d="M 2419 4116 
L 825 1625 
L 2419 1625 
L 2419 4116 
z
M 2253 4666 
L 3047 4666 
L 3047 1625 
L 3713 1625 
L 3713 1100 
L 3047 1100 
L 3047 0 
L 2419 0 
L 2419 1100 
L 313 1100 
L 313 1709 
L 2253 4666 
z
" id="DejaVuSans-34" transform="scale(0.015625)"/>
       </defs>
       <use xlink:href="#DejaVuSans-34"/>
       <use x="63.623047" xlink:href="#DejaVuSans-30"/>
      </g>
     </g>
    </g>
    <g id="xtick_4">
     <g id="line2d_7">
      <path clip-path="url(#p4bb2839d7d)" d="M 307.859024 224.64 
L 307.859024 7.2 
" style="fill:none;stroke:#ffffff;stroke-linecap:square;stroke-width:0.8;"/>
     </g>
     <g id="line2d_8">
      <g>
       <use style="fill:#555555;stroke:#555555;stroke-width:0.8;" x="307.859024" xlink:href="#m09a434cec2" y="224.64"/>
      </g>
     </g>
     <g id="text_4">
      <!-- 60 -->
      <g style="fill:#555555;" transform="translate(301.496524 239.238437)scale(0.1 -0.1)">
       <defs>
        <path d="M 2113 2584 
Q 1688 2584 1439 2293 
Q 1191 2003 1191 1497 
Q 1191 994 1439 701 
Q 1688 409 2113 409 
Q 2538 409 2786 701 
Q 3034 994 3034 1497 
Q 3034 2003 2786 2293 
Q 2538 2584 2113 2584 
z
M 3366 4563 
L 3366 3988 
Q 3128 4100 2886 4159 
Q 2644 4219 2406 4219 
Q 1781 4219 1451 3797 
Q 1122 3375 1075 2522 
Q 1259 2794 1537 2939 
Q 1816 3084 2150 3084 
Q 2853 3084 3261 2657 
Q 3669 2231 3669 1497 
Q 3669 778 3244 343 
Q 2819 -91 2113 -91 
Q 1303 -91 875 529 
Q 447 1150 447 2328 
Q 447 3434 972 4092 
Q 1497 4750 2381 4750 
Q 2619 4750 2861 4703 
Q 3103 4656 3366 4563 
z
" id="DejaVuSans-36" transform="scale(0.015625)"/>
       </defs>
       <use xlink:href="#DejaVuSans-36"/>
       <use x="63.623047" xlink:href="#DejaVuSans-30"/>
      </g>
     </g>
    </g>
    <g id="xtick_5">
     <g id="line2d_9">
      <path clip-path="url(#p4bb2839d7d)" d="M 389.842495 224.64 
L 389.842495 7.2 
" style="fill:none;stroke:#ffffff;stroke-linecap:square;stroke-width:0.8;"/>
     </g>
     <g id="line2d_10">
      <g>
       <use style="fill:#555555;stroke:#555555;stroke-width:0.8;" x="389.842495" xlink:href="#m09a434cec2" y="224.64"/>
      </g>
     </g>
     <g id="text_5">
      <!-- 80 -->
      <g style="fill:#555555;" transform="translate(383.479995 239.238437)scale(0.1 -0.1)">
       <defs>
        <path d="M 2034 2216 
Q 1584 2216 1326 1975 
Q 1069 1734 1069 1313 
Q 1069 891 1326 650 
Q 1584 409 2034 409 
Q 2484 409 2743 651 
Q 3003 894 3003 1313 
Q 3003 1734 2745 1975 
Q 2488 2216 2034 2216 
z
M 1403 2484 
Q 997 2584 770 2862 
Q 544 3141 544 3541 
Q 544 4100 942 4425 
Q 1341 4750 2034 4750 
Q 2731 4750 3128 4425 
Q 3525 4100 3525 3541 
Q 3525 3141 3298 2862 
Q 3072 2584 2669 2484 
Q 3125 2378 3379 2068 
Q 3634 1759 3634 1313 
Q 3634 634 3220 271 
Q 2806 -91 2034 -91 
Q 1263 -91 848 271 
Q 434 634 434 1313 
Q 434 1759 690 2068 
Q 947 2378 1403 2484 
z
M 1172 3481 
Q 1172 3119 1398 2916 
Q 1625 2713 2034 2713 
Q 2441 2713 2670 2916 
Q 2900 3119 2900 3481 
Q 2900 3844 2670 4047 
Q 2441 4250 2034 4250 
Q 1625 4250 1398 4047 
Q 1172 3844 1172 3481 
z
" id="DejaVuSans-38" transform="scale(0.015625)"/>
       </defs>
       <use xlink:href="#DejaVuSans-38"/>
       <use x="63.623047" xlink:href="#DejaVuSans-30"/>
      </g>
     </g>
    </g>
    <g id="xtick_6">
     <g id="line2d_11">
      <path clip-path="url(#p4bb2839d7d)" d="M 471.825966 224.64 
L 471.825966 7.2 
" style="fill:none;stroke:#ffffff;stroke-linecap:square;stroke-width:0.8;"/>
     </g>
     <g id="line2d_12">
      <g>
       <use style="fill:#555555;stroke:#555555;stroke-width:0.8;" x="471.825966" xlink:href="#m09a434cec2" y="224.64"/>
      </g>
     </g>
     <g id="text_6">
      <!-- 100 -->
      <g style="fill:#555555;" transform="translate(462.282216 239.238437)scale(0.1 -0.1)">
       <defs>
        <path d="M 794 531 
L 1825 531 
L 1825 4091 
L 703 3866 
L 703 4441 
L 1819 4666 
L 2450 4666 
L 2450 531 
L 3481 531 
L 3481 0 
L 794 0 
L 794 531 
z
" id="DejaVuSans-31" transform="scale(0.015625)"/>
       </defs>
       <use xlink:href="#DejaVuSans-31"/>
       <use x="63.623047" xlink:href="#DejaVuSans-30"/>
       <use x="127.246094" xlink:href="#DejaVuSans-30"/>
      </g>
     </g>
    </g>
    <g id="text_7">
     <!-- Epoch number -->
     <g style="fill:#555555;" transform="translate(225.22 254.43625)scale(0.12 -0.12)">
      <defs>
       <path d="M 628 4666 
L 3578 4666 
L 3578 4134 
L 1259 4134 
L 1259 2753 
L 3481 2753 
L 3481 2222 
L 1259 2222 
L 1259 531 
L 3634 531 
L 3634 0 
L 628 0 
L 628 4666 
z
" id="DejaVuSans-45" transform="scale(0.015625)"/>
       <path d="M 1159 525 
L 1159 -1331 
L 581 -1331 
L 581 3500 
L 1159 3500 
L 1159 2969 
Q 1341 3281 1617 3432 
Q 1894 3584 2278 3584 
Q 2916 3584 3314 3078 
Q 3713 2572 3713 1747 
Q 3713 922 3314 415 
Q 2916 -91 2278 -91 
Q 1894 -91 1617 61 
Q 1341 213 1159 525 
z
M 3116 1747 
Q 3116 2381 2855 2742 
Q 2594 3103 2138 3103 
Q 1681 3103 1420 2742 
Q 1159 2381 1159 1747 
Q 1159 1113 1420 752 
Q 1681 391 2138 391 
Q 2594 391 2855 752 
Q 3116 1113 3116 1747 
z
" id="DejaVuSans-70" transform="scale(0.015625)"/>
       <path d="M 1959 3097 
Q 1497 3097 1228 2736 
Q 959 2375 959 1747 
Q 959 1119 1226 758 
Q 1494 397 1959 397 
Q 2419 397 2687 759 
Q 2956 1122 2956 1747 
Q 2956 2369 2687 2733 
Q 2419 3097 1959 3097 
z
M 1959 3584 
Q 2709 3584 3137 3096 
Q 3566 2609 3566 1747 
Q 3566 888 3137 398 
Q 2709 -91 1959 -91 
Q 1206 -91 779 398 
Q 353 888 353 1747 
Q 353 2609 779 3096 
Q 1206 3584 1959 3584 
z
" id="DejaVuSans-6f" transform="scale(0.015625)"/>
       <path d="M 3122 3366 
L 3122 2828 
Q 2878 2963 2633 3030 
Q 2388 3097 2138 3097 
Q 1578 3097 1268 2742 
Q 959 2388 959 1747 
Q 959 1106 1268 751 
Q 1578 397 2138 397 
Q 2388 397 2633 464 
Q 2878 531 3122 666 
L 3122 134 
Q 2881 22 2623 -34 
Q 2366 -91 2075 -91 
Q 1284 -91 818 406 
Q 353 903 353 1747 
Q 353 2603 823 3093 
Q 1294 3584 2113 3584 
Q 2378 3584 2631 3529 
Q 2884 3475 3122 3366 
z
" id="DejaVuSans-63" transform="scale(0.015625)"/>
       <path d="M 3513 2113 
L 3513 0 
L 2938 0 
L 2938 2094 
Q 2938 2591 2744 2837 
Q 2550 3084 2163 3084 
Q 1697 3084 1428 2787 
Q 1159 2491 1159 1978 
L 1159 0 
L 581 0 
L 581 4863 
L 1159 4863 
L 1159 2956 
Q 1366 3272 1645 3428 
Q 1925 3584 2291 3584 
Q 2894 3584 3203 3211 
Q 3513 2838 3513 2113 
z
" id="DejaVuSans-68" transform="scale(0.015625)"/>
       <path id="DejaVuSans-20" transform="scale(0.015625)"/>
       <path d="M 3513 2113 
L 3513 0 
L 2938 0 
L 2938 2094 
Q 2938 2591 2744 2837 
Q 2550 3084 2163 3084 
Q 1697 3084 1428 2787 
Q 1159 2491 1159 1978 
L 1159 0 
L 581 0 
L 581 3500 
L 1159 3500 
L 1159 2956 
Q 1366 3272 1645 3428 
Q 1925 3584 2291 3584 
Q 2894 3584 3203 3211 
Q 3513 2838 3513 2113 
z
" id="DejaVuSans-6e" transform="scale(0.015625)"/>
       <path d="M 544 1381 
L 544 3500 
L 1119 3500 
L 1119 1403 
Q 1119 906 1312 657 
Q 1506 409 1894 409 
Q 2359 409 2629 706 
Q 2900 1003 2900 1516 
L 2900 3500 
L 3475 3500 
L 3475 0 
L 2900 0 
L 2900 538 
Q 2691 219 2414 64 
Q 2138 -91 1772 -91 
Q 1169 -91 856 284 
Q 544 659 544 1381 
z
M 1991 3584 
L 1991 3584 
z
" id="DejaVuSans-75" transform="scale(0.015625)"/>
       <path d="M 3328 2828 
Q 3544 3216 3844 3400 
Q 4144 3584 4550 3584 
Q 5097 3584 5394 3201 
Q 5691 2819 5691 2113 
L 5691 0 
L 5113 0 
L 5113 2094 
Q 5113 2597 4934 2840 
Q 4756 3084 4391 3084 
Q 3944 3084 3684 2787 
Q 3425 2491 3425 1978 
L 3425 0 
L 2847 0 
L 2847 2094 
Q 2847 2600 2669 2842 
Q 2491 3084 2119 3084 
Q 1678 3084 1418 2786 
Q 1159 2488 1159 1978 
L 1159 0 
L 581 0 
L 581 3500 
L 1159 3500 
L 1159 2956 
Q 1356 3278 1631 3431 
Q 1906 3584 2284 3584 
Q 2666 3584 2933 3390 
Q 3200 3197 3328 2828 
z
" id="DejaVuSans-6d" transform="scale(0.015625)"/>
       <path d="M 3116 1747 
Q 3116 2381 2855 2742 
Q 2594 3103 2138 3103 
Q 1681 3103 1420 2742 
Q 1159 2381 1159 1747 
Q 1159 1113 1420 752 
Q 1681 391 2138 391 
Q 2594 391 2855 752 
Q 3116 1113 3116 1747 
z
M 1159 2969 
Q 1341 3281 1617 3432 
Q 1894 3584 2278 3584 
Q 2916 3584 3314 3078 
Q 3713 2572 3713 1747 
Q 3713 922 3314 415 
Q 2916 -91 2278 -91 
Q 1894 -91 1617 61 
Q 1341 213 1159 525 
L 1159 0 
L 581 0 
L 581 4863 
L 1159 4863 
L 1159 2969 
z
" id="DejaVuSans-62" transform="scale(0.015625)"/>
       <path d="M 3597 1894 
L 3597 1613 
L 953 1613 
Q 991 1019 1311 708 
Q 1631 397 2203 397 
Q 2534 397 2845 478 
Q 3156 559 3463 722 
L 3463 178 
Q 3153 47 2828 -22 
Q 2503 -91 2169 -91 
Q 1331 -91 842 396 
Q 353 884 353 1716 
Q 353 2575 817 3079 
Q 1281 3584 2069 3584 
Q 2775 3584 3186 3129 
Q 3597 2675 3597 1894 
z
M 3022 2063 
Q 3016 2534 2758 2815 
Q 2500 3097 2075 3097 
Q 1594 3097 1305 2825 
Q 1016 2553 972 2059 
L 3022 2063 
z
" id="DejaVuSans-65" transform="scale(0.015625)"/>
       <path d="M 2631 2963 
Q 2534 3019 2420 3045 
Q 2306 3072 2169 3072 
Q 1681 3072 1420 2755 
Q 1159 2438 1159 1844 
L 1159 0 
L 581 0 
L 581 3500 
L 1159 3500 
L 1159 2956 
Q 1341 3275 1631 3429 
Q 1922 3584 2338 3584 
Q 2397 3584 2469 3576 
Q 2541 3569 2628 3553 
L 2631 2963 
z
" id="DejaVuSans-72" transform="scale(0.015625)"/>
      </defs>
      <use xlink:href="#DejaVuSans-45"/>
      <use x="63.183594" xlink:href="#DejaVuSans-70"/>
      <use x="126.660156" xlink:href="#DejaVuSans-6f"/>
      <use x="187.841797" xlink:href="#DejaVuSans-63"/>
      <use x="242.822266" xlink:href="#DejaVuSans-68"/>
      <use x="306.201172" xlink:href="#DejaVuSans-20"/>
      <use x="337.988281" xlink:href="#DejaVuSans-6e"/>
      <use x="401.367188" xlink:href="#DejaVuSans-75"/>
      <use x="464.746094" xlink:href="#DejaVuSans-6d"/>
      <use x="562.158203" xlink:href="#DejaVuSans-62"/>
      <use x="625.634766" xlink:href="#DejaVuSans-65"/>
      <use x="687.158203" xlink:href="#DejaVuSans-72"/>
     </g>
    </g>
   </g>
   <g id="matplotlib.axis_2">
    <g id="ytick_1">
     <g id="line2d_13">
      <path clip-path="url(#p4bb2839d7d)" d="M 45.716875 201.364453 
L 492.116875 201.364453 
" style="fill:none;stroke:#ffffff;stroke-linecap:square;stroke-width:0.8;"/>
     </g>
     <g id="line2d_14">
      <defs>
       <path d="M 0 0 
L -3.5 0 
" id="mb63853ba62" style="stroke:#555555;stroke-width:0.8;"/>
      </defs>
      <g>
       <use style="fill:#555555;stroke:#555555;stroke-width:0.8;" x="45.716875" xlink:href="#mb63853ba62" y="201.364453"/>
      </g>
     </g>
     <g id="text_8">
      <!-- 0.2 -->
      <g style="fill:#555555;" transform="translate(22.81375 205.163672)scale(0.1 -0.1)">
       <defs>
        <path d="M 684 794 
L 1344 794 
L 1344 0 
L 684 0 
L 684 794 
z
" id="DejaVuSans-2e" transform="scale(0.015625)"/>
       </defs>
       <use xlink:href="#DejaVuSans-30"/>
       <use x="63.623047" xlink:href="#DejaVuSans-2e"/>
       <use x="95.410156" xlink:href="#DejaVuSans-32"/>
      </g>
     </g>
    </g>
    <g id="ytick_2">
     <g id="line2d_15">
      <path clip-path="url(#p4bb2839d7d)" d="M 45.716875 176.941093 
L 492.116875 176.941093 
" style="fill:none;stroke:#ffffff;stroke-linecap:square;stroke-width:0.8;"/>
     </g>
     <g id="line2d_16">
      <g>
       <use style="fill:#555555;stroke:#555555;stroke-width:0.8;" x="45.716875" xlink:href="#mb63853ba62" y="176.941093"/>
      </g>
     </g>
     <g id="text_9">
      <!-- 0.4 -->
      <g style="fill:#555555;" transform="translate(22.81375 180.740312)scale(0.1 -0.1)">
       <use xlink:href="#DejaVuSans-30"/>
       <use x="63.623047" xlink:href="#DejaVuSans-2e"/>
       <use x="95.410156" xlink:href="#DejaVuSans-34"/>
      </g>
     </g>
    </g>
    <g id="ytick_3">
     <g id="line2d_17">
      <path clip-path="url(#p4bb2839d7d)" d="M 45.716875 152.517732 
L 492.116875 152.517732 
" style="fill:none;stroke:#ffffff;stroke-linecap:square;stroke-width:0.8;"/>
     </g>
     <g id="line2d_18">
      <g>
       <use style="fill:#555555;stroke:#555555;stroke-width:0.8;" x="45.716875" xlink:href="#mb63853ba62" y="152.517732"/>
      </g>
     </g>
     <g id="text_10">
      <!-- 0.6 -->
      <g style="fill:#555555;" transform="translate(22.81375 156.316951)scale(0.1 -0.1)">
       <use xlink:href="#DejaVuSans-30"/>
       <use x="63.623047" xlink:href="#DejaVuSans-2e"/>
       <use x="95.410156" xlink:href="#DejaVuSans-36"/>
      </g>
     </g>
    </g>
    <g id="ytick_4">
     <g id="line2d_19">
      <path clip-path="url(#p4bb2839d7d)" d="M 45.716875 128.094372 
L 492.116875 128.094372 
" style="fill:none;stroke:#ffffff;stroke-linecap:square;stroke-width:0.8;"/>
     </g>
     <g id="line2d_20">
      <g>
       <use style="fill:#555555;stroke:#555555;stroke-width:0.8;" x="45.716875" xlink:href="#mb63853ba62" y="128.094372"/>
      </g>
     </g>
     <g id="text_11">
      <!-- 0.8 -->
      <g style="fill:#555555;" transform="translate(22.81375 131.893591)scale(0.1 -0.1)">
       <use xlink:href="#DejaVuSans-30"/>
       <use x="63.623047" xlink:href="#DejaVuSans-2e"/>
       <use x="95.410156" xlink:href="#DejaVuSans-38"/>
      </g>
     </g>
    </g>
    <g id="ytick_5">
     <g id="line2d_21">
      <path clip-path="url(#p4bb2839d7d)" d="M 45.716875 103.671012 
L 492.116875 103.671012 
" style="fill:none;stroke:#ffffff;stroke-linecap:square;stroke-width:0.8;"/>
     </g>
     <g id="line2d_22">
      <g>
       <use style="fill:#555555;stroke:#555555;stroke-width:0.8;" x="45.716875" xlink:href="#mb63853ba62" y="103.671012"/>
      </g>
     </g>
     <g id="text_12">
      <!-- 1.0 -->
      <g style="fill:#555555;" transform="translate(22.81375 107.47023)scale(0.1 -0.1)">
       <use xlink:href="#DejaVuSans-31"/>
       <use x="63.623047" xlink:href="#DejaVuSans-2e"/>
       <use x="95.410156" xlink:href="#DejaVuSans-30"/>
      </g>
     </g>
    </g>
    <g id="ytick_6">
     <g id="line2d_23">
      <path clip-path="url(#p4bb2839d7d)" d="M 45.716875 79.247651 
L 492.116875 79.247651 
" style="fill:none;stroke:#ffffff;stroke-linecap:square;stroke-width:0.8;"/>
     </g>
     <g id="line2d_24">
      <g>
       <use style="fill:#555555;stroke:#555555;stroke-width:0.8;" x="45.716875" xlink:href="#mb63853ba62" y="79.247651"/>
      </g>
     </g>
     <g id="text_13">
      <!-- 1.2 -->
      <g style="fill:#555555;" transform="translate(22.81375 83.04687)scale(0.1 -0.1)">
       <use xlink:href="#DejaVuSans-31"/>
       <use x="63.623047" xlink:href="#DejaVuSans-2e"/>
       <use x="95.410156" xlink:href="#DejaVuSans-32"/>
      </g>
     </g>
    </g>
    <g id="ytick_7">
     <g id="line2d_25">
      <path clip-path="url(#p4bb2839d7d)" d="M 45.716875 54.824291 
L 492.116875 54.824291 
" style="fill:none;stroke:#ffffff;stroke-linecap:square;stroke-width:0.8;"/>
     </g>
     <g id="line2d_26">
      <g>
       <use style="fill:#555555;stroke:#555555;stroke-width:0.8;" x="45.716875" xlink:href="#mb63853ba62" y="54.824291"/>
      </g>
     </g>
     <g id="text_14">
      <!-- 1.4 -->
      <g style="fill:#555555;" transform="translate(22.81375 58.62351)scale(0.1 -0.1)">
       <use xlink:href="#DejaVuSans-31"/>
       <use x="63.623047" xlink:href="#DejaVuSans-2e"/>
       <use x="95.410156" xlink:href="#DejaVuSans-34"/>
      </g>
     </g>
    </g>
    <g id="ytick_8">
     <g id="line2d_27">
      <path clip-path="url(#p4bb2839d7d)" d="M 45.716875 30.40093 
L 492.116875 30.40093 
" style="fill:none;stroke:#ffffff;stroke-linecap:square;stroke-width:0.8;"/>
     </g>
     <g id="line2d_28">
      <g>
       <use style="fill:#555555;stroke:#555555;stroke-width:0.8;" x="45.716875" xlink:href="#mb63853ba62" y="30.40093"/>
      </g>
     </g>
     <g id="text_15">
      <!-- 1.6 -->
      <g style="fill:#555555;" transform="translate(22.81375 34.200149)scale(0.1 -0.1)">
       <use xlink:href="#DejaVuSans-31"/>
       <use x="63.623047" xlink:href="#DejaVuSans-2e"/>
       <use x="95.410156" xlink:href="#DejaVuSans-36"/>
      </g>
     </g>
    </g>
    <g id="text_16">
     <!-- Error -->
     <g style="fill:#555555;" transform="translate(16.318125 130.542187)rotate(-90)scale(0.12 -0.12)">
      <use xlink:href="#DejaVuSans-45"/>
      <use x="63.183594" xlink:href="#DejaVuSans-72"/>
      <use x="102.546875" xlink:href="#DejaVuSans-72"/>
      <use x="141.410156" xlink:href="#DejaVuSans-6f"/>
      <use x="202.591797" xlink:href="#DejaVuSans-72"/>
     </g>
    </g>
   </g>
   <g id="line2d_29">
    <path clip-path="url(#p4bb2839d7d)" d="M 66.007784 112.949161 
L 70.106958 139.875101 
L 74.206131 151.146593 
L 78.305305 157.890469 
L 82.404478 162.58465 
L 86.503652 166.371202 
L 90.602825 169.221268 
L 94.701999 172.013864 
L 98.801173 173.869984 
L 102.900346 176.57336 
L 106.99952 176.983062 
L 111.098693 178.481411 
L 115.197867 180.080955 
L 119.29704 180.375403 
L 123.396214 181.294814 
L 127.495387 182.472313 
L 131.594561 183.80507 
L 135.693735 184.545223 
L 139.792908 186.398371 
L 143.892082 186.746651 
L 147.991255 187.274366 
L 152.090429 187.538637 
L 156.189602 187.049254 
L 160.288776 188.438417 
L 164.387949 189.124885 
L 168.487123 188.959387 
L 172.586296 190.339228 
L 176.68547 191.32558 
L 180.784644 191.527795 
L 184.883817 192.059503 
L 188.982991 192.233343 
L 193.082164 192.046992 
L 197.181338 192.329068 
L 201.280511 192.679761 
L 205.379685 193.232947 
L 209.478858 194.242775 
L 213.578032 194.606432 
L 217.677206 194.445673 
L 221.776379 194.925957 
L 225.875553 194.670361 
L 229.974726 195.419709 
L 234.0739 195.614291 
L 238.173073 195.925176 
L 242.272247 196.467719 
L 246.37142 197.058116 
L 250.470594 196.21246 
L 254.569768 197.735126 
L 258.668941 196.770241 
L 262.768115 198.17865 
L 266.867288 198.934654 
L 270.966462 198.480893 
L 275.065635 198.972581 
L 279.164809 199.146175 
L 283.263982 199.367271 
L 287.363156 199.721856 
L 291.46233 199.717166 
L 295.561503 199.128904 
L 299.660677 200.112037 
L 303.75985 199.960047 
L 307.859024 200.518843 
L 311.958197 200.415268 
L 316.057371 200.69046 
L 320.156544 200.653195 
L 324.255718 201.896165 
L 328.354892 199.733574 
L 332.454065 201.917582 
L 336.553239 201.519919 
L 340.652412 202.017921 
L 344.751586 201.67741 
L 348.850759 202.372141 
L 352.949933 201.672218 
L 357.049106 202.153643 
L 361.14828 203.325131 
L 365.247454 202.866099 
L 369.346627 203.773813 
L 373.445801 203.908683 
L 377.544974 202.949614 
L 381.644148 203.559057 
L 385.743321 203.984093 
L 389.842495 203.729825 
L 393.941668 204.051002 
L 398.040842 202.44729 
L 402.140015 203.96081 
L 406.239189 203.788985 
L 410.338363 203.161948 
L 414.437536 204.820256 
L 418.53671 204.670311 
L 422.635883 205.087823 
L 426.735057 204.524676 
L 430.83423 205.559562 
L 434.933404 205.285247 
L 439.032577 206.521493 
L 443.131751 205.92955 
L 447.230925 206.008032 
L 451.330098 204.852028 
L 455.429272 205.655975 
L 459.528445 205.48322 
L 463.627619 205.842749 
L 467.726792 205.812233 
L 471.825966 207.482245 
" style="fill:none;stroke:#ff0000;stroke-linecap:square;stroke-width:1.5;"/>
   </g>
   <g id="line2d_30">
    <path clip-path="url(#p4bb2839d7d)" d="M 66.007784 134.338376 
L 70.106958 155.046108 
L 74.206131 164.332873 
L 78.305305 170.362085 
L 82.404478 173.510442 
L 86.503652 176.23854 
L 90.602825 179.911696 
L 94.701999 182.108626 
L 98.801173 183.603312 
L 102.900346 186.199094 
L 106.99952 187.098392 
L 111.098693 189.07671 
L 115.197867 188.726924 
L 119.29704 189.892448 
L 123.396214 192.087957 
L 127.495387 192.509472 
L 131.594561 194.592775 
L 135.693735 195.863463 
L 139.792908 195.45259 
L 143.892082 196.341174 
L 147.991255 196.298013 
L 152.090429 197.92962 
L 156.189602 198.737908 
L 160.288776 199.236844 
L 164.387949 199.962896 
L 168.487123 200.120489 
L 172.586296 200.848068 
L 176.68547 199.453311 
L 180.784644 201.032766 
L 184.883817 202.155844 
L 188.982991 202.631613 
L 193.082164 202.886368 
L 197.181338 203.037483 
L 201.280511 204.651667 
L 205.379685 203.857811 
L 209.478858 204.686212 
L 213.578032 202.619871 
L 217.677206 205.940227 
L 221.776379 205.044088 
L 225.875553 206.466159 
L 229.974726 206.161063 
L 234.0739 204.120286 
L 238.173073 205.894332 
L 242.272247 207.148219 
L 246.37142 207.390882 
L 250.470594 206.559732 
L 254.569768 207.237018 
L 258.668941 208.015186 
L 262.768115 207.77976 
L 266.867288 207.750963 
L 270.966462 210.342062 
L 275.065635 209.202897 
L 279.164809 209.265461 
L 283.263982 208.039074 
L 287.363156 208.450888 
L 291.46233 208.252769 
L 295.561503 209.270238 
L 299.660677 209.762382 
L 303.75985 211.093803 
L 307.859024 209.994728 
L 311.958197 209.259434 
L 316.057371 209.53413 
L 320.156544 208.502544 
L 324.255718 210.685735 
L 328.354892 210.460136 
L 332.454065 210.7486 
L 336.553239 209.853509 
L 340.652412 211.405443 
L 344.751586 210.593288 
L 348.850759 211.38323 
L 352.949933 211.85526 
L 357.049106 211.110302 
L 361.14828 209.72027 
L 365.247454 211.173738 
L 369.346627 210.666023 
L 373.445801 212.753003 
L 377.544974 211.224492 
L 381.644148 209.869072 
L 385.743321 212.03873 
L 389.842495 212.83601 
L 393.941668 212.341548 
L 398.040842 212.684723 
L 402.140015 211.333684 
L 406.239189 211.974782 
L 410.338363 211.408048 
L 414.437536 213.077258 
L 418.53671 212.232871 
L 422.635883 211.689621 
L 426.735057 212.886274 
L 430.83423 209.98583 
L 434.933404 213.2904 
L 439.032577 211.573137 
L 443.131751 213.842653 
L 447.230925 213.143249 
L 451.330098 212.663415 
L 455.429272 214.507179 
L 459.528445 214.756364 
L 463.627619 212.734214 
L 467.726792 211.860468 
L 471.825966 212.719711 
" style="fill:none;stroke:#0000ff;stroke-linecap:square;stroke-width:1.5;"/>
   </g>
   <g id="line2d_31">
    <path clip-path="url(#p4bb2839d7d)" d="M 66.007784 139.267864 
L 70.106958 154.186384 
L 74.206131 166.0727 
L 78.305305 169.482624 
L 82.404478 173.969972 
L 86.503652 178.921951 
L 90.602825 181.105138 
L 94.701999 185.103445 
L 98.801173 184.869194 
L 102.900346 184.639946 
L 106.99952 188.57191 
L 111.098693 191.051184 
L 115.197867 192.021316 
L 119.29704 193.464389 
L 123.396214 194.420144 
L 127.495387 194.842227 
L 131.594561 194.962856 
L 135.693735 196.299441 
L 139.792908 197.746074 
L 143.892082 198.079743 
L 147.991255 199.321599 
L 152.090429 197.639818 
L 156.189602 201.182879 
L 160.288776 200.521526 
L 164.387949 201.893141 
L 168.487123 202.357757 
L 172.586296 199.985 
L 176.68547 201.554156 
L 180.784644 203.605952 
L 184.883817 203.697092 
L 188.982991 203.951844 
L 193.082164 203.539697 
L 197.181338 205.177403 
L 201.280511 204.214266 
L 205.379685 205.410092 
L 209.478858 205.199095 
L 213.578032 205.3262 
L 217.677206 205.747812 
L 221.776379 207.664673 
L 225.875553 205.727996 
L 229.974726 205.239563 
L 234.0739 206.803783 
L 238.173073 205.946121 
L 242.272247 206.620395 
L 246.37142 206.000436 
L 250.470594 207.376744 
L 254.569768 207.792354 
L 258.668941 207.526954 
L 262.768115 209.175107 
L 266.867288 207.975851 
L 270.966462 207.798816 
L 275.065635 209.236808 
L 279.164809 206.670249 
L 283.263982 207.626568 
L 287.363156 206.402074 
L 291.46233 210.536575 
L 295.561503 208.243646 
L 299.660677 210.43067 
L 303.75985 206.794739 
L 307.859024 208.695998 
L 311.958197 210.306093 
L 316.057371 208.515872 
L 320.156544 210.520735 
L 324.255718 208.540429 
L 328.354892 209.720785 
L 332.454065 208.869397 
L 336.553239 210.715084 
L 340.652412 208.613178 
L 344.751586 208.38861 
L 348.850759 209.800417 
L 352.949933 210.378435 
L 357.049106 211.311933 
L 361.14828 211.894803 
L 365.247454 208.782031 
L 369.346627 211.762337 
L 373.445801 211.337454 
L 377.544974 210.926665 
L 381.644148 210.258535 
L 385.743321 210.735006 
L 389.842495 212.941381 
L 393.941668 212.540859 
L 398.040842 212.50062 
L 402.140015 210.23218 
L 406.239189 211.643074 
L 410.338363 211.616487 
L 414.437536 209.657707 
L 418.53671 212.278499 
L 422.635883 209.454753 
L 426.735057 209.702363 
L 430.83423 210.704654 
L 434.933404 211.419642 
L 439.032577 210.948078 
L 443.131751 212.30829 
L 447.230925 211.524193 
L 451.330098 211.900301 
L 455.429272 211.844181 
L 459.528445 211.118276 
L 463.627619 212.682424 
L 467.726792 209.93882 
L 471.825966 212.755946 
" style="fill:none;stroke:#800080;stroke-linecap:square;stroke-width:1.5;"/>
   </g>
   <g id="line2d_32">
    <path clip-path="url(#p4bb2839d7d)" d="M 66.007784 110.324182 
L 70.106958 135.687454 
L 74.206131 145.198203 
L 78.305305 150.881268 
L 82.404478 154.447631 
L 86.503652 156.589001 
L 90.602825 157.997586 
L 94.701999 159.715471 
L 98.801173 160.473452 
L 102.900346 161.616132 
L 106.99952 160.592333 
L 111.098693 160.845527 
L 115.197867 161.00815 
L 119.29704 160.730067 
L 123.396214 160.212603 
L 127.495387 160.525078 
L 131.594561 160.381639 
L 135.693735 160.01663 
L 139.792908 161.250993 
L 143.892082 160.732936 
L 147.991255 160.780606 
L 152.090429 159.499545 
L 156.189602 158.15336 
L 160.288776 157.939044 
L 164.387949 157.317267 
L 168.487123 155.978822 
L 172.586296 156.803663 
L 176.68547 157.22336 
L 180.784644 156.401995 
L 184.883817 156.151603 
L 188.982991 155.362518 
L 193.082164 153.985357 
L 197.181338 153.550562 
L 201.280511 152.285434 
L 205.379685 151.709243 
L 209.478858 152.364846 
L 213.578032 152.739354 
L 217.677206 150.626646 
L 221.776379 149.676629 
L 225.875553 148.456001 
L 229.974726 149.183297 
L 234.0739 147.911907 
L 238.173073 147.580828 
L 242.272247 147.218568 
L 246.37142 147.1814 
L 250.470594 145.098088 
L 254.569768 145.284445 
L 258.668941 143.565548 
L 262.768115 144.08417 
L 266.867288 144.891298 
L 270.966462 143.538122 
L 275.065635 143.211695 
L 279.164809 142.006899 
L 283.263982 140.763011 
L 287.363156 139.983453 
L 291.46233 139.581802 
L 295.561503 137.046767 
L 299.660677 139.372962 
L 303.75985 138.749078 
L 307.859024 137.287746 
L 311.958197 135.263751 
L 316.057371 135.934362 
L 320.156544 134.47922 
L 324.255718 135.090521 
L 328.354892 131.928559 
L 332.454065 132.91719 
L 336.553239 130.879595 
L 340.652412 131.488892 
L 344.751586 130.633421 
L 348.850759 129.905933 
L 352.949933 128.755669 
L 357.049106 127.558659 
L 361.14828 127.970452 
L 365.247454 127.278524 
L 369.346627 126.477348 
L 373.445801 126.151263 
L 377.544974 124.663268 
L 381.644148 123.511794 
L 385.743321 123.467042 
L 389.842495 122.248765 
L 393.941668 121.372786 
L 398.040842 119.268927 
L 402.140015 120.991161 
L 406.239189 118.931827 
L 410.338363 117.8836 
L 414.437536 118.569251 
L 418.53671 117.633869 
L 422.635883 116.637011 
L 426.735057 116.605843 
L 430.83423 116.723026 
L 434.933404 114.659735 
L 439.032577 115.595926 
L 443.131751 113.108334 
L 447.230925 112.34164 
L 451.330098 109.944097 
L 455.429272 111.074809 
L 459.528445 109.903877 
L 463.627619 107.889317 
L 467.726792 106.863034 
L 471.825966 109.475037 
" style="fill:none;stroke:#808080;stroke-dasharray:5.55,2.4;stroke-dashoffset:0;stroke-width:1.5;"/>
   </g>
   <g id="line2d_33">
    <path clip-path="url(#p4bb2839d7d)" d="M 66.007784 131.717879 
L 70.106958 150.11544 
L 74.206131 156.758021 
L 78.305305 161.29177 
L 82.404478 161.980765 
L 86.503652 163.075708 
L 90.602825 164.112325 
L 94.701999 164.76013 
L 98.801173 164.75266 
L 102.900346 165.533389 
L 106.99952 163.727756 
L 111.098693 165.598037 
L 115.197867 163.266541 
L 119.29704 162.482269 
L 123.396214 162.35039 
L 127.495387 161.872834 
L 131.594561 161.560047 
L 135.693735 160.161722 
L 139.792908 158.759422 
L 143.892082 157.648292 
L 147.991255 155.991648 
L 152.090429 155.598631 
L 156.189602 154.214875 
L 160.288776 152.506912 
L 164.387949 153.210222 
L 168.487123 150.370415 
L 172.586296 150.84326 
L 176.68547 147.762521 
L 180.784644 145.726641 
L 184.883817 145.694026 
L 188.982991 143.449328 
L 193.082164 142.214014 
L 197.181338 140.568501 
L 201.280511 140.637214 
L 205.379685 136.894953 
L 209.478858 136.51992 
L 213.578032 133.725695 
L 217.677206 134.568189 
L 221.776379 132.031289 
L 225.875553 132.437137 
L 229.974726 128.480087 
L 234.0739 125.659471 
L 238.173073 125.04881 
L 242.272247 125.824326 
L 246.37142 124.563806 
L 250.470594 120.501763 
L 254.569768 121.36849 
L 258.668941 117.233484 
L 262.768115 117.097058 
L 266.867288 115.369543 
L 270.966462 116.857663 
L 275.065635 113.356014 
L 279.164809 110.56948 
L 283.263982 105.332522 
L 287.363156 108.181332 
L 291.46233 102.735121 
L 295.561503 103.741668 
L 299.660677 102.692071 
L 303.75985 102.753962 
L 307.859024 99.379605 
L 311.958197 96.145292 
L 316.057371 92.633165 
L 320.156544 90.661825 
L 324.255718 92.843604 
L 328.354892 87.785564 
L 332.454065 89.559987 
L 336.553239 86.356552 
L 340.652412 85.219751 
L 344.751586 83.86411 
L 348.850759 83.143481 
L 352.949933 82.397239 
L 357.049106 77.138009 
L 361.14828 75.653757 
L 365.247454 74.727359 
L 369.346627 69.042948 
L 373.445801 68.614247 
L 377.544974 66.964922 
L 381.644148 63.603838 
L 385.743321 68.625048 
L 389.842495 66.272374 
L 393.941668 67.671937 
L 398.040842 65.00002 
L 402.140015 57.962784 
L 406.239189 58.092493 
L 410.338363 54.646393 
L 414.437536 53.194664 
L 418.53671 55.542045 
L 422.635883 49.694755 
L 426.735057 49.639689 
L 430.83423 43.189644 
L 434.933404 51.128726 
L 439.032577 43.785521 
L 443.131751 44.315207 
L 447.230925 43.426098 
L 451.330098 40.275019 
L 455.429272 43.704623 
L 459.528445 40.435373 
L 463.627619 36.639078 
L 467.726792 34.745171 
L 471.825966 34.939335 
" style="fill:none;stroke:#ffff00;stroke-dasharray:5.55,2.4;stroke-dashoffset:0;stroke-width:1.5;"/>
   </g>
   <g id="line2d_34">
    <path clip-path="url(#p4bb2839d7d)" d="M 66.007784 135.152412 
L 70.106958 148.511208 
L 74.206131 157.087201 
L 78.305305 159.8116 
L 82.404478 161.879198 
L 86.503652 164.87878 
L 90.602825 164.694443 
L 94.701999 168.182015 
L 98.801173 165.857028 
L 102.900346 162.066334 
L 106.99952 165.187326 
L 111.098693 166.626085 
L 115.197867 165.21567 
L 119.29704 164.275333 
L 123.396214 162.759916 
L 127.495387 162.166879 
L 131.594561 158.642984 
L 135.693735 158.024809 
L 139.792908 158.508634 
L 143.892082 156.098192 
L 147.991255 154.515189 
L 152.090429 150.919692 
L 156.189602 150.688421 
L 160.288776 148.993472 
L 164.387949 149.73097 
L 168.487123 146.453135 
L 172.586296 139.934261 
L 176.68547 140.573849 
L 180.784644 143.920782 
L 184.883817 141.472521 
L 188.982991 139.613227 
L 193.082164 136.163479 
L 197.181338 136.273847 
L 201.280511 133.856587 
L 205.379685 133.810686 
L 209.478858 131.62953 
L 213.578032 127.993198 
L 217.677206 127.635201 
L 221.776379 127.087467 
L 225.875553 120.362126 
L 229.974726 122.101522 
L 234.0739 120.754056 
L 238.173073 116.271219 
L 242.272247 115.581926 
L 246.37142 112.606858 
L 250.470594 110.803619 
L 254.569768 110.963657 
L 258.668941 106.290693 
L 262.768115 109.423382 
L 266.867288 106.781785 
L 270.966462 98.686106 
L 275.065635 105.293274 
L 279.164809 100.286916 
L 283.263982 94.948755 
L 287.363156 92.997113 
L 291.46233 91.738243 
L 295.561503 94.727217 
L 299.660677 90.51587 
L 303.75985 81.687929 
L 307.859024 83.197206 
L 311.958197 86.91076 
L 316.057371 81.764459 
L 320.156544 82.862829 
L 324.255718 78.600241 
L 328.354892 78.374193 
L 332.454065 78.006206 
L 336.553239 80.076693 
L 340.652412 68.429655 
L 344.751586 69.716363 
L 348.850759 67.223634 
L 352.949933 76.200019 
L 357.049106 69.39724 
L 361.14828 68.250278 
L 365.247454 64.319042 
L 369.346627 66.27404 
L 373.445801 60.923561 
L 377.544974 58.348047 
L 381.644148 54.090298 
L 385.743321 57.348353 
L 389.842495 55.164748 
L 393.941668 55.004113 
L 398.040842 51.841994 
L 402.140015 48.671418 
L 406.239189 46.277402 
L 410.338363 49.612324 
L 414.437536 39.934582 
L 418.53671 42.980702 
L 422.635883 42.313699 
L 426.735057 40.247801 
L 430.83423 30.841934 
L 434.933404 38.136868 
L 439.032577 36.13828 
L 443.131751 37.253354 
L 447.230925 28.446773 
L 451.330098 29.620196 
L 455.429272 32.216666 
L 459.528445 35.29544 
L 463.627619 26.603549 
L 467.726792 17.083636 
L 471.825966 24.926113 
" style="fill:none;stroke:#008000;stroke-dasharray:5.55,2.4;stroke-dashoffset:0;stroke-width:1.5;"/>
   </g>
   <g id="patch_3">
    <path d="M 45.716875 224.64 
L 45.716875 7.2 
" style="fill:none;stroke:#ffffff;stroke-linecap:square;stroke-linejoin:miter;"/>
   </g>
   <g id="patch_4">
    <path d="M 492.116875 224.64 
L 492.116875 7.2 
" style="fill:none;stroke:#ffffff;stroke-linecap:square;stroke-linejoin:miter;"/>
   </g>
   <g id="patch_5">
    <path d="M 45.716875 224.64 
L 492.116875 224.64 
" style="fill:none;stroke:#ffffff;stroke-linecap:square;stroke-linejoin:miter;"/>
   </g>
   <g id="patch_6">
    <path d="M 45.716875 7.2 
L 492.116875 7.2 
" style="fill:none;stroke:#ffffff;stroke-linecap:square;stroke-linejoin:miter;"/>
   </g>
   <g id="legend_1">
    <g id="patch_7">
     <path d="M 499.116875 103.26875 
L 601.52 103.26875 
Q 603.52 103.26875 603.52 101.26875 
L 603.52 14.2 
Q 603.52 12.2 601.52 12.2 
L 499.116875 12.2 
Q 497.116875 12.2 497.116875 14.2 
L 497.116875 101.26875 
Q 497.116875 103.26875 499.116875 103.26875 
z
" style="fill:#e5e5e5;opacity:0.8;stroke:#cccccc;stroke-linejoin:miter;stroke-width:0.5;"/>
    </g>
    <g id="line2d_35">
     <path d="M 501.116875 20.298437 
L 521.116875 20.298437 
" style="fill:none;stroke:#ff0000;stroke-linecap:square;stroke-width:1.5;"/>
    </g>
    <g id="line2d_36"/>
    <g id="text_17">
     <!-- depth 1(train) -->
     <g transform="translate(529.116875 23.798437)scale(0.1 -0.1)">
      <defs>
       <path d="M 2906 2969 
L 2906 4863 
L 3481 4863 
L 3481 0 
L 2906 0 
L 2906 525 
Q 2725 213 2448 61 
Q 2172 -91 1784 -91 
Q 1150 -91 751 415 
Q 353 922 353 1747 
Q 353 2572 751 3078 
Q 1150 3584 1784 3584 
Q 2172 3584 2448 3432 
Q 2725 3281 2906 2969 
z
M 947 1747 
Q 947 1113 1208 752 
Q 1469 391 1925 391 
Q 2381 391 2643 752 
Q 2906 1113 2906 1747 
Q 2906 2381 2643 2742 
Q 2381 3103 1925 3103 
Q 1469 3103 1208 2742 
Q 947 2381 947 1747 
z
" id="DejaVuSans-64" transform="scale(0.015625)"/>
       <path d="M 1172 4494 
L 1172 3500 
L 2356 3500 
L 2356 3053 
L 1172 3053 
L 1172 1153 
Q 1172 725 1289 603 
Q 1406 481 1766 481 
L 2356 481 
L 2356 0 
L 1766 0 
Q 1100 0 847 248 
Q 594 497 594 1153 
L 594 3053 
L 172 3053 
L 172 3500 
L 594 3500 
L 594 4494 
L 1172 4494 
z
" id="DejaVuSans-74" transform="scale(0.015625)"/>
       <path d="M 1984 4856 
Q 1566 4138 1362 3434 
Q 1159 2731 1159 2009 
Q 1159 1288 1364 580 
Q 1569 -128 1984 -844 
L 1484 -844 
Q 1016 -109 783 600 
Q 550 1309 550 2009 
Q 550 2706 781 3412 
Q 1013 4119 1484 4856 
L 1984 4856 
z
" id="DejaVuSans-28" transform="scale(0.015625)"/>
       <path d="M 2194 1759 
Q 1497 1759 1228 1600 
Q 959 1441 959 1056 
Q 959 750 1161 570 
Q 1363 391 1709 391 
Q 2188 391 2477 730 
Q 2766 1069 2766 1631 
L 2766 1759 
L 2194 1759 
z
M 3341 1997 
L 3341 0 
L 2766 0 
L 2766 531 
Q 2569 213 2275 61 
Q 1981 -91 1556 -91 
Q 1019 -91 701 211 
Q 384 513 384 1019 
Q 384 1609 779 1909 
Q 1175 2209 1959 2209 
L 2766 2209 
L 2766 2266 
Q 2766 2663 2505 2880 
Q 2244 3097 1772 3097 
Q 1472 3097 1187 3025 
Q 903 2953 641 2809 
L 641 3341 
Q 956 3463 1253 3523 
Q 1550 3584 1831 3584 
Q 2591 3584 2966 3190 
Q 3341 2797 3341 1997 
z
" id="DejaVuSans-61" transform="scale(0.015625)"/>
       <path d="M 603 3500 
L 1178 3500 
L 1178 0 
L 603 0 
L 603 3500 
z
M 603 4863 
L 1178 4863 
L 1178 4134 
L 603 4134 
L 603 4863 
z
" id="DejaVuSans-69" transform="scale(0.015625)"/>
       <path d="M 513 4856 
L 1013 4856 
Q 1481 4119 1714 3412 
Q 1947 2706 1947 2009 
Q 1947 1309 1714 600 
Q 1481 -109 1013 -844 
L 513 -844 
Q 928 -128 1133 580 
Q 1338 1288 1338 2009 
Q 1338 2731 1133 3434 
Q 928 4138 513 4856 
z
" id="DejaVuSans-29" transform="scale(0.015625)"/>
      </defs>
      <use xlink:href="#DejaVuSans-64"/>
      <use x="63.476562" xlink:href="#DejaVuSans-65"/>
      <use x="125" xlink:href="#DejaVuSans-70"/>
      <use x="188.476562" xlink:href="#DejaVuSans-74"/>
      <use x="227.685547" xlink:href="#DejaVuSans-68"/>
      <use x="291.064453" xlink:href="#DejaVuSans-20"/>
      <use x="322.851562" xlink:href="#DejaVuSans-31"/>
      <use x="386.474609" xlink:href="#DejaVuSans-28"/>
      <use x="425.488281" xlink:href="#DejaVuSans-74"/>
      <use x="464.697266" xlink:href="#DejaVuSans-72"/>
      <use x="505.810547" xlink:href="#DejaVuSans-61"/>
      <use x="567.089844" xlink:href="#DejaVuSans-69"/>
      <use x="594.873047" xlink:href="#DejaVuSans-6e"/>
      <use x="658.251953" xlink:href="#DejaVuSans-29"/>
     </g>
    </g>
    <g id="line2d_37">
     <path d="M 501.116875 34.976562 
L 521.116875 34.976562 
" style="fill:none;stroke:#0000ff;stroke-linecap:square;stroke-width:1.5;"/>
    </g>
    <g id="line2d_38"/>
    <g id="text_18">
     <!-- depth 2(train) -->
     <g transform="translate(529.116875 38.476562)scale(0.1 -0.1)">
      <use xlink:href="#DejaVuSans-64"/>
      <use x="63.476562" xlink:href="#DejaVuSans-65"/>
      <use x="125" xlink:href="#DejaVuSans-70"/>
      <use x="188.476562" xlink:href="#DejaVuSans-74"/>
      <use x="227.685547" xlink:href="#DejaVuSans-68"/>
      <use x="291.064453" xlink:href="#DejaVuSans-20"/>
      <use x="322.851562" xlink:href="#DejaVuSans-32"/>
      <use x="386.474609" xlink:href="#DejaVuSans-28"/>
      <use x="425.488281" xlink:href="#DejaVuSans-74"/>
      <use x="464.697266" xlink:href="#DejaVuSans-72"/>
      <use x="505.810547" xlink:href="#DejaVuSans-61"/>
      <use x="567.089844" xlink:href="#DejaVuSans-69"/>
      <use x="594.873047" xlink:href="#DejaVuSans-6e"/>
      <use x="658.251953" xlink:href="#DejaVuSans-29"/>
     </g>
    </g>
    <g id="line2d_39">
     <path d="M 501.116875 49.654687 
L 521.116875 49.654687 
" style="fill:none;stroke:#800080;stroke-linecap:square;stroke-width:1.5;"/>
    </g>
    <g id="line2d_40"/>
    <g id="text_19">
     <!-- depth 3(train) -->
     <g transform="translate(529.116875 53.154687)scale(0.1 -0.1)">
      <defs>
       <path d="M 2597 2516 
Q 3050 2419 3304 2112 
Q 3559 1806 3559 1356 
Q 3559 666 3084 287 
Q 2609 -91 1734 -91 
Q 1441 -91 1130 -33 
Q 819 25 488 141 
L 488 750 
Q 750 597 1062 519 
Q 1375 441 1716 441 
Q 2309 441 2620 675 
Q 2931 909 2931 1356 
Q 2931 1769 2642 2001 
Q 2353 2234 1838 2234 
L 1294 2234 
L 1294 2753 
L 1863 2753 
Q 2328 2753 2575 2939 
Q 2822 3125 2822 3475 
Q 2822 3834 2567 4026 
Q 2313 4219 1838 4219 
Q 1578 4219 1281 4162 
Q 984 4106 628 3988 
L 628 4550 
Q 988 4650 1302 4700 
Q 1616 4750 1894 4750 
Q 2613 4750 3031 4423 
Q 3450 4097 3450 3541 
Q 3450 3153 3228 2886 
Q 3006 2619 2597 2516 
z
" id="DejaVuSans-33" transform="scale(0.015625)"/>
      </defs>
      <use xlink:href="#DejaVuSans-64"/>
      <use x="63.476562" xlink:href="#DejaVuSans-65"/>
      <use x="125" xlink:href="#DejaVuSans-70"/>
      <use x="188.476562" xlink:href="#DejaVuSans-74"/>
      <use x="227.685547" xlink:href="#DejaVuSans-68"/>
      <use x="291.064453" xlink:href="#DejaVuSans-20"/>
      <use x="322.851562" xlink:href="#DejaVuSans-33"/>
      <use x="386.474609" xlink:href="#DejaVuSans-28"/>
      <use x="425.488281" xlink:href="#DejaVuSans-74"/>
      <use x="464.697266" xlink:href="#DejaVuSans-72"/>
      <use x="505.810547" xlink:href="#DejaVuSans-61"/>
      <use x="567.089844" xlink:href="#DejaVuSans-69"/>
      <use x="594.873047" xlink:href="#DejaVuSans-6e"/>
      <use x="658.251953" xlink:href="#DejaVuSans-29"/>
     </g>
    </g>
    <g id="line2d_41">
     <path d="M 501.116875 64.332812 
L 521.116875 64.332812 
" style="fill:none;stroke:#808080;stroke-dasharray:5.55,2.4;stroke-dashoffset:0;stroke-width:1.5;"/>
    </g>
    <g id="line2d_42"/>
    <g id="text_20">
     <!-- depth 1(valid) -->
     <g transform="translate(529.116875 67.832812)scale(0.1 -0.1)">
      <defs>
       <path d="M 191 3500 
L 800 3500 
L 1894 563 
L 2988 3500 
L 3597 3500 
L 2284 0 
L 1503 0 
L 191 3500 
z
" id="DejaVuSans-76" transform="scale(0.015625)"/>
       <path d="M 603 4863 
L 1178 4863 
L 1178 0 
L 603 0 
L 603 4863 
z
" id="DejaVuSans-6c" transform="scale(0.015625)"/>
      </defs>
      <use xlink:href="#DejaVuSans-64"/>
      <use x="63.476562" xlink:href="#DejaVuSans-65"/>
      <use x="125" xlink:href="#DejaVuSans-70"/>
      <use x="188.476562" xlink:href="#DejaVuSans-74"/>
      <use x="227.685547" xlink:href="#DejaVuSans-68"/>
      <use x="291.064453" xlink:href="#DejaVuSans-20"/>
      <use x="322.851562" xlink:href="#DejaVuSans-31"/>
      <use x="386.474609" xlink:href="#DejaVuSans-28"/>
      <use x="425.488281" xlink:href="#DejaVuSans-76"/>
      <use x="484.667969" xlink:href="#DejaVuSans-61"/>
      <use x="545.947266" xlink:href="#DejaVuSans-6c"/>
      <use x="573.730469" xlink:href="#DejaVuSans-69"/>
      <use x="601.513672" xlink:href="#DejaVuSans-64"/>
      <use x="664.990234" xlink:href="#DejaVuSans-29"/>
     </g>
    </g>
    <g id="line2d_43">
     <path d="M 501.116875 79.010937 
L 521.116875 79.010937 
" style="fill:none;stroke:#ffff00;stroke-dasharray:5.55,2.4;stroke-dashoffset:0;stroke-width:1.5;"/>
    </g>
    <g id="line2d_44"/>
    <g id="text_21">
     <!-- depth 2(valid) -->
     <g transform="translate(529.116875 82.510937)scale(0.1 -0.1)">
      <use xlink:href="#DejaVuSans-64"/>
      <use x="63.476562" xlink:href="#DejaVuSans-65"/>
      <use x="125" xlink:href="#DejaVuSans-70"/>
      <use x="188.476562" xlink:href="#DejaVuSans-74"/>
      <use x="227.685547" xlink:href="#DejaVuSans-68"/>
      <use x="291.064453" xlink:href="#DejaVuSans-20"/>
      <use x="322.851562" xlink:href="#DejaVuSans-32"/>
      <use x="386.474609" xlink:href="#DejaVuSans-28"/>
      <use x="425.488281" xlink:href="#DejaVuSans-76"/>
      <use x="484.667969" xlink:href="#DejaVuSans-61"/>
      <use x="545.947266" xlink:href="#DejaVuSans-6c"/>
      <use x="573.730469" xlink:href="#DejaVuSans-69"/>
      <use x="601.513672" xlink:href="#DejaVuSans-64"/>
      <use x="664.990234" xlink:href="#DejaVuSans-29"/>
     </g>
    </g>
    <g id="line2d_45">
     <path d="M 501.116875 93.689062 
L 521.116875 93.689062 
" style="fill:none;stroke:#008000;stroke-dasharray:5.55,2.4;stroke-dashoffset:0;stroke-width:1.5;"/>
    </g>
    <g id="line2d_46"/>
    <g id="text_22">
     <!-- depth 3(valid) -->
     <g transform="translate(529.116875 97.189062)scale(0.1 -0.1)">
      <use xlink:href="#DejaVuSans-64"/>
      <use x="63.476562" xlink:href="#DejaVuSans-65"/>
      <use x="125" xlink:href="#DejaVuSans-70"/>
      <use x="188.476562" xlink:href="#DejaVuSans-74"/>
      <use x="227.685547" xlink:href="#DejaVuSans-68"/>
      <use x="291.064453" xlink:href="#DejaVuSans-20"/>
      <use x="322.851562" xlink:href="#DejaVuSans-33"/>
      <use x="386.474609" xlink:href="#DejaVuSans-28"/>
      <use x="425.488281" xlink:href="#DejaVuSans-76"/>
      <use x="484.667969" xlink:href="#DejaVuSans-61"/>
      <use x="545.947266" xlink:href="#DejaVuSans-6c"/>
      <use x="573.730469" xlink:href="#DejaVuSans-69"/>
      <use x="601.513672" xlink:href="#DejaVuSans-64"/>
      <use x="664.990234" xlink:href="#DejaVuSans-29"/>
     </g>
    </g>
   </g>
  </g>
 </g>
 <defs>
  <clipPath id="p4bb2839d7d">
   <rect height="217.44" width="446.4" x="45.716875" y="7.2"/>
  </clipPath>
 </defs>
</svg>
