<?xml version="1.0" encoding="utf-8" standalone="no"?>
<!DOCTYPE svg PUBLIC "-//W3C//DTD SVG 1.1//EN"
  "http://www.w3.org/Graphics/SVG/1.1/DTD/svg11.dtd">
<svg height="264.131875pt" version="1.1" viewBox="0 0 617.0825 264.131875" width="617.0825pt" xmlns="http://www.w3.org/2000/svg" xmlns:xlink="http://www.w3.org/1999/xlink">
 <metadata>
  <rdf:RDF xmlns:cc="http://creativecommons.org/ns#" xmlns:dc="http://purl.org/dc/elements/1.1/" xmlns:rdf="http://www.w3.org/1999/02/22-rdf-syntax-ns#">
   <cc:Work>
    <dc:type rdf:resource="http://purl.org/dc/dcmitype/StillImage"/>
    <dc:date>2021-11-04T11:08:38.045277</dc:date>
    <dc:format>image/svg+xml</dc:format>
    <dc:creator>
     <cc:Agent>
      <dc:title>Matplotlib v3.4.2, https://matplotlib.org/</dc:title>
     </cc:Agent>
    </dc:creator>
   </cc:Work>
  </rdf:RDF>
 </metadata>
 <defs>
  <style type="text/css">*{stroke-linecap:butt;stroke-linejoin:round;}</style>
 </defs>
 <g id="figure_1">
  <g id="patch_1">
   <path d="M 0 264.131875 
L 617.0825 264.131875 
L 617.0825 0 
L 0 0 
z
" style="fill:#ffffff;"/>
  </g>
  <g id="axes_1">
   <g id="patch_2">
    <path d="M 52.079375 224.64 
L 498.479375 224.64 
L 498.479375 7.2 
L 52.079375 7.2 
z
" style="fill:#e5e5e5;"/>
   </g>
   <g id="matplotlib.axis_1">
    <g id="xtick_1">
     <g id="line2d_1">
      <path clip-path="url(#pb9153b60d5)" d="M 68.271111 224.64 
L 68.271111 7.2 
" style="fill:none;stroke:#ffffff;stroke-linecap:square;stroke-width:0.8;"/>
     </g>
     <g id="line2d_2">
      <defs>
       <path d="M 0 0 
L 0 3.5 
" id="m31bbf71327" style="stroke:#555555;stroke-width:0.8;"/>
      </defs>
      <g>
       <use style="fill:#555555;stroke:#555555;stroke-width:0.8;" x="68.271111" xlink:href="#m31bbf71327" y="224.64"/>
      </g>
     </g>
     <g id="text_1">
      <!-- 0 -->
      <g style="fill:#555555;" transform="translate(65.089861 239.238437)scale(0.1 -0.1)">
       <defs>
        <path d="M 2034 4250 
Q 1547 4250 1301 3770 
Q 1056 3291 1056 2328 
Q 1056 1369 1301 889 
Q 1547 409 2034 409 
Q 2525 409 2770 889 
Q 3016 1369 3016 2328 
Q 3016 3291 2770 3770 
Q 2525 4250 2034 4250 
z
M 2034 4750 
Q 2819 4750 3233 4129 
Q 3647 3509 3647 2328 
Q 3647 1150 3233 529 
Q 2819 -91 2034 -91 
Q 1250 -91 836 529 
Q 422 1150 422 2328 
Q 422 3509 836 4129 
Q 1250 4750 2034 4750 
z
" id="DejaVuSans-30" transform="scale(0.015625)"/>
       </defs>
       <use xlink:href="#DejaVuSans-30"/>
      </g>
     </g>
    </g>
    <g id="xtick_2">
     <g id="line2d_3">
      <path clip-path="url(#pb9153b60d5)" d="M 150.254582 224.64 
L 150.254582 7.2 
" style="fill:none;stroke:#ffffff;stroke-linecap:square;stroke-width:0.8;"/>
     </g>
     <g id="line2d_4">
      <g>
       <use style="fill:#555555;stroke:#555555;stroke-width:0.8;" x="150.254582" xlink:href="#m31bbf71327" y="224.64"/>
      </g>
     </g>
     <g id="text_2">
      <!-- 20 -->
      <g style="fill:#555555;" transform="translate(143.892082 239.238437)scale(0.1 -0.1)">
       <defs>
        <path d="M 1228 531 
L 3431 531 
L 3431 0 
L 469 0 
L 469 531 
Q 828 903 1448 1529 
Q 2069 2156 2228 2338 
Q 2531 2678 2651 2914 
Q 2772 3150 2772 3378 
Q 2772 3750 2511 3984 
Q 2250 4219 1831 4219 
Q 1534 4219 1204 4116 
Q 875 4013 500 3803 
L 500 4441 
Q 881 4594 1212 4672 
Q 1544 4750 1819 4750 
Q 2544 4750 2975 4387 
Q 3406 4025 3406 3419 
Q 3406 3131 3298 2873 
Q 3191 2616 2906 2266 
Q 2828 2175 2409 1742 
Q 1991 1309 1228 531 
z
" id="DejaVuSans-32" transform="scale(0.015625)"/>
       </defs>
       <use xlink:href="#DejaVuSans-32"/>
       <use x="63.623047" xlink:href="#DejaVuSans-30"/>
      </g>
     </g>
    </g>
    <g id="xtick_3">
     <g id="line2d_5">
      <path clip-path="url(#pb9153b60d5)" d="M 232.238053 224.64 
L 232.238053 7.2 
" style="fill:none;stroke:#ffffff;stroke-linecap:square;stroke-width:0.8;"/>
     </g>
     <g id="line2d_6">
      <g>
       <use style="fill:#555555;stroke:#555555;stroke-width:0.8;" x="232.238053" xlink:href="#m31bbf71327" y="224.64"/>
      </g>
     </g>
     <g id="text_3">
      <!-- 40 -->
      <g style="fill:#555555;" transform="translate(225.875553 239.238437)scale(0.1 -0.1)">
       <defs>
        <path d="M 2419 4116 
L 825 1625 
L 2419 1625 
L 2419 4116 
z
M 2253 4666 
L 3047 4666 
L 3047 1625 
L 3713 1625 
L 3713 1100 
L 3047 1100 
L 3047 0 
L 2419 0 
L 2419 1100 
L 313 1100 
L 313 1709 
L 2253 4666 
z
" id="DejaVuSans-34" transform="scale(0.015625)"/>
       </defs>
       <use xlink:href="#DejaVuSans-34"/>
       <use x="63.623047" xlink:href="#DejaVuSans-30"/>
      </g>
     </g>
    </g>
    <g id="xtick_4">
     <g id="line2d_7">
      <path clip-path="url(#pb9153b60d5)" d="M 314.221524 224.64 
L 314.221524 7.2 
" style="fill:none;stroke:#ffffff;stroke-linecap:square;stroke-width:0.8;"/>
     </g>
     <g id="line2d_8">
      <g>
       <use style="fill:#555555;stroke:#555555;stroke-width:0.8;" x="314.221524" xlink:href="#m31bbf71327" y="224.64"/>
      </g>
     </g>
     <g id="text_4">
      <!-- 60 -->
      <g style="fill:#555555;" transform="translate(307.859024 239.238437)scale(0.1 -0.1)">
       <defs>
        <path d="M 2113 2584 
Q 1688 2584 1439 2293 
Q 1191 2003 1191 1497 
Q 1191 994 1439 701 
Q 1688 409 2113 409 
Q 2538 409 2786 701 
Q 3034 994 3034 1497 
Q 3034 2003 2786 2293 
Q 2538 2584 2113 2584 
z
M 3366 4563 
L 3366 3988 
Q 3128 4100 2886 4159 
Q 2644 4219 2406 4219 
Q 1781 4219 1451 3797 
Q 1122 3375 1075 2522 
Q 1259 2794 1537 2939 
Q 1816 3084 2150 3084 
Q 2853 3084 3261 2657 
Q 3669 2231 3669 1497 
Q 3669 778 3244 343 
Q 2819 -91 2113 -91 
Q 1303 -91 875 529 
Q 447 1150 447 2328 
Q 447 3434 972 4092 
Q 1497 4750 2381 4750 
Q 2619 4750 2861 4703 
Q 3103 4656 3366 4563 
z
" id="DejaVuSans-36" transform="scale(0.015625)"/>
       </defs>
       <use xlink:href="#DejaVuSans-36"/>
       <use x="63.623047" xlink:href="#DejaVuSans-30"/>
      </g>
     </g>
    </g>
    <g id="xtick_5">
     <g id="line2d_9">
      <path clip-path="url(#pb9153b60d5)" d="M 396.204995 224.64 
L 396.204995 7.2 
" style="fill:none;stroke:#ffffff;stroke-linecap:square;stroke-width:0.8;"/>
     </g>
     <g id="line2d_10">
      <g>
       <use style="fill:#555555;stroke:#555555;stroke-width:0.8;" x="396.204995" xlink:href="#m31bbf71327" y="224.64"/>
      </g>
     </g>
     <g id="text_5">
      <!-- 80 -->
      <g style="fill:#555555;" transform="translate(389.842495 239.238437)scale(0.1 -0.1)">
       <defs>
        <path d="M 2034 2216 
Q 1584 2216 1326 1975 
Q 1069 1734 1069 1313 
Q 1069 891 1326 650 
Q 1584 409 2034 409 
Q 2484 409 2743 651 
Q 3003 894 3003 1313 
Q 3003 1734 2745 1975 
Q 2488 2216 2034 2216 
z
M 1403 2484 
Q 997 2584 770 2862 
Q 544 3141 544 3541 
Q 544 4100 942 4425 
Q 1341 4750 2034 4750 
Q 2731 4750 3128 4425 
Q 3525 4100 3525 3541 
Q 3525 3141 3298 2862 
Q 3072 2584 2669 2484 
Q 3125 2378 3379 2068 
Q 3634 1759 3634 1313 
Q 3634 634 3220 271 
Q 2806 -91 2034 -91 
Q 1263 -91 848 271 
Q 434 634 434 1313 
Q 434 1759 690 2068 
Q 947 2378 1403 2484 
z
M 1172 3481 
Q 1172 3119 1398 2916 
Q 1625 2713 2034 2713 
Q 2441 2713 2670 2916 
Q 2900 3119 2900 3481 
Q 2900 3844 2670 4047 
Q 2441 4250 2034 4250 
Q 1625 4250 1398 4047 
Q 1172 3844 1172 3481 
z
" id="DejaVuSans-38" transform="scale(0.015625)"/>
       </defs>
       <use xlink:href="#DejaVuSans-38"/>
       <use x="63.623047" xlink:href="#DejaVuSans-30"/>
      </g>
     </g>
    </g>
    <g id="xtick_6">
     <g id="line2d_11">
      <path clip-path="url(#pb9153b60d5)" d="M 478.188466 224.64 
L 478.188466 7.2 
" style="fill:none;stroke:#ffffff;stroke-linecap:square;stroke-width:0.8;"/>
     </g>
     <g id="line2d_12">
      <g>
       <use style="fill:#555555;stroke:#555555;stroke-width:0.8;" x="478.188466" xlink:href="#m31bbf71327" y="224.64"/>
      </g>
     </g>
     <g id="text_6">
      <!-- 100 -->
      <g style="fill:#555555;" transform="translate(468.644716 239.238437)scale(0.1 -0.1)">
       <defs>
        <path d="M 794 531 
L 1825 531 
L 1825 4091 
L 703 3866 
L 703 4441 
L 1819 4666 
L 2450 4666 
L 2450 531 
L 3481 531 
L 3481 0 
L 794 0 
L 794 531 
z
" id="DejaVuSans-31" transform="scale(0.015625)"/>
       </defs>
       <use xlink:href="#DejaVuSans-31"/>
       <use x="63.623047" xlink:href="#DejaVuSans-30"/>
       <use x="127.246094" xlink:href="#DejaVuSans-30"/>
      </g>
     </g>
    </g>
    <g id="text_7">
     <!-- Epoch number -->
     <g style="fill:#555555;" transform="translate(231.5825 254.43625)scale(0.12 -0.12)">
      <defs>
       <path d="M 628 4666 
L 3578 4666 
L 3578 4134 
L 1259 4134 
L 1259 2753 
L 3481 2753 
L 3481 2222 
L 1259 2222 
L 1259 531 
L 3634 531 
L 3634 0 
L 628 0 
L 628 4666 
z
" id="DejaVuSans-45" transform="scale(0.015625)"/>
       <path d="M 1159 525 
L 1159 -1331 
L 581 -1331 
L 581 3500 
L 1159 3500 
L 1159 2969 
Q 1341 3281 1617 3432 
Q 1894 3584 2278 3584 
Q 2916 3584 3314 3078 
Q 3713 2572 3713 1747 
Q 3713 922 3314 415 
Q 2916 -91 2278 -91 
Q 1894 -91 1617 61 
Q 1341 213 1159 525 
z
M 3116 1747 
Q 3116 2381 2855 2742 
Q 2594 3103 2138 3103 
Q 1681 3103 1420 2742 
Q 1159 2381 1159 1747 
Q 1159 1113 1420 752 
Q 1681 391 2138 391 
Q 2594 391 2855 752 
Q 3116 1113 3116 1747 
z
" id="DejaVuSans-70" transform="scale(0.015625)"/>
       <path d="M 1959 3097 
Q 1497 3097 1228 2736 
Q 959 2375 959 1747 
Q 959 1119 1226 758 
Q 1494 397 1959 397 
Q 2419 397 2687 759 
Q 2956 1122 2956 1747 
Q 2956 2369 2687 2733 
Q 2419 3097 1959 3097 
z
M 1959 3584 
Q 2709 3584 3137 3096 
Q 3566 2609 3566 1747 
Q 3566 888 3137 398 
Q 2709 -91 1959 -91 
Q 1206 -91 779 398 
Q 353 888 353 1747 
Q 353 2609 779 3096 
Q 1206 3584 1959 3584 
z
" id="DejaVuSans-6f" transform="scale(0.015625)"/>
       <path d="M 3122 3366 
L 3122 2828 
Q 2878 2963 2633 3030 
Q 2388 3097 2138 3097 
Q 1578 3097 1268 2742 
Q 959 2388 959 1747 
Q 959 1106 1268 751 
Q 1578 397 2138 397 
Q 2388 397 2633 464 
Q 2878 531 3122 666 
L 3122 134 
Q 2881 22 2623 -34 
Q 2366 -91 2075 -91 
Q 1284 -91 818 406 
Q 353 903 353 1747 
Q 353 2603 823 3093 
Q 1294 3584 2113 3584 
Q 2378 3584 2631 3529 
Q 2884 3475 3122 3366 
z
" id="DejaVuSans-63" transform="scale(0.015625)"/>
       <path d="M 3513 2113 
L 3513 0 
L 2938 0 
L 2938 2094 
Q 2938 2591 2744 2837 
Q 2550 3084 2163 3084 
Q 1697 3084 1428 2787 
Q 1159 2491 1159 1978 
L 1159 0 
L 581 0 
L 581 4863 
L 1159 4863 
L 1159 2956 
Q 1366 3272 1645 3428 
Q 1925 3584 2291 3584 
Q 2894 3584 3203 3211 
Q 3513 2838 3513 2113 
z
" id="DejaVuSans-68" transform="scale(0.015625)"/>
       <path id="DejaVuSans-20" transform="scale(0.015625)"/>
       <path d="M 3513 2113 
L 3513 0 
L 2938 0 
L 2938 2094 
Q 2938 2591 2744 2837 
Q 2550 3084 2163 3084 
Q 1697 3084 1428 2787 
Q 1159 2491 1159 1978 
L 1159 0 
L 581 0 
L 581 3500 
L 1159 3500 
L 1159 2956 
Q 1366 3272 1645 3428 
Q 1925 3584 2291 3584 
Q 2894 3584 3203 3211 
Q 3513 2838 3513 2113 
z
" id="DejaVuSans-6e" transform="scale(0.015625)"/>
       <path d="M 544 1381 
L 544 3500 
L 1119 3500 
L 1119 1403 
Q 1119 906 1312 657 
Q 1506 409 1894 409 
Q 2359 409 2629 706 
Q 2900 1003 2900 1516 
L 2900 3500 
L 3475 3500 
L 3475 0 
L 2900 0 
L 2900 538 
Q 2691 219 2414 64 
Q 2138 -91 1772 -91 
Q 1169 -91 856 284 
Q 544 659 544 1381 
z
M 1991 3584 
L 1991 3584 
z
" id="DejaVuSans-75" transform="scale(0.015625)"/>
       <path d="M 3328 2828 
Q 3544 3216 3844 3400 
Q 4144 3584 4550 3584 
Q 5097 3584 5394 3201 
Q 5691 2819 5691 2113 
L 5691 0 
L 5113 0 
L 5113 2094 
Q 5113 2597 4934 2840 
Q 4756 3084 4391 3084 
Q 3944 3084 3684 2787 
Q 3425 2491 3425 1978 
L 3425 0 
L 2847 0 
L 2847 2094 
Q 2847 2600 2669 2842 
Q 2491 3084 2119 3084 
Q 1678 3084 1418 2786 
Q 1159 2488 1159 1978 
L 1159 0 
L 581 0 
L 581 3500 
L 1159 3500 
L 1159 2956 
Q 1356 3278 1631 3431 
Q 1906 3584 2284 3584 
Q 2666 3584 2933 3390 
Q 3200 3197 3328 2828 
z
" id="DejaVuSans-6d" transform="scale(0.015625)"/>
       <path d="M 3116 1747 
Q 3116 2381 2855 2742 
Q 2594 3103 2138 3103 
Q 1681 3103 1420 2742 
Q 1159 2381 1159 1747 
Q 1159 1113 1420 752 
Q 1681 391 2138 391 
Q 2594 391 2855 752 
Q 3116 1113 3116 1747 
z
M 1159 2969 
Q 1341 3281 1617 3432 
Q 1894 3584 2278 3584 
Q 2916 3584 3314 3078 
Q 3713 2572 3713 1747 
Q 3713 922 3314 415 
Q 2916 -91 2278 -91 
Q 1894 -91 1617 61 
Q 1341 213 1159 525 
L 1159 0 
L 581 0 
L 581 4863 
L 1159 4863 
L 1159 2969 
z
" id="DejaVuSans-62" transform="scale(0.015625)"/>
       <path d="M 3597 1894 
L 3597 1613 
L 953 1613 
Q 991 1019 1311 708 
Q 1631 397 2203 397 
Q 2534 397 2845 478 
Q 3156 559 3463 722 
L 3463 178 
Q 3153 47 2828 -22 
Q 2503 -91 2169 -91 
Q 1331 -91 842 396 
Q 353 884 353 1716 
Q 353 2575 817 3079 
Q 1281 3584 2069 3584 
Q 2775 3584 3186 3129 
Q 3597 2675 3597 1894 
z
M 3022 2063 
Q 3016 2534 2758 2815 
Q 2500 3097 2075 3097 
Q 1594 3097 1305 2825 
Q 1016 2553 972 2059 
L 3022 2063 
z
" id="DejaVuSans-65" transform="scale(0.015625)"/>
       <path d="M 2631 2963 
Q 2534 3019 2420 3045 
Q 2306 3072 2169 3072 
Q 1681 3072 1420 2755 
Q 1159 2438 1159 1844 
L 1159 0 
L 581 0 
L 581 3500 
L 1159 3500 
L 1159 2956 
Q 1341 3275 1631 3429 
Q 1922 3584 2338 3584 
Q 2397 3584 2469 3576 
Q 2541 3569 2628 3553 
L 2631 2963 
z
" id="DejaVuSans-72" transform="scale(0.015625)"/>
      </defs>
      <use xlink:href="#DejaVuSans-45"/>
      <use x="63.183594" xlink:href="#DejaVuSans-70"/>
      <use x="126.660156" xlink:href="#DejaVuSans-6f"/>
      <use x="187.841797" xlink:href="#DejaVuSans-63"/>
      <use x="242.822266" xlink:href="#DejaVuSans-68"/>
      <use x="306.201172" xlink:href="#DejaVuSans-20"/>
      <use x="337.988281" xlink:href="#DejaVuSans-6e"/>
      <use x="401.367188" xlink:href="#DejaVuSans-75"/>
      <use x="464.746094" xlink:href="#DejaVuSans-6d"/>
      <use x="562.158203" xlink:href="#DejaVuSans-62"/>
      <use x="625.634766" xlink:href="#DejaVuSans-65"/>
      <use x="687.158203" xlink:href="#DejaVuSans-72"/>
     </g>
    </g>
   </g>
   <g id="matplotlib.axis_2">
    <g id="ytick_1">
     <g id="line2d_13">
      <path clip-path="url(#pb9153b60d5)" d="M 52.079375 193.216074 
L 498.479375 193.216074 
" style="fill:none;stroke:#ffffff;stroke-linecap:square;stroke-width:0.8;"/>
     </g>
     <g id="line2d_14">
      <defs>
       <path d="M 0 0 
L -3.5 0 
" id="mb09eefaf3a" style="stroke:#555555;stroke-width:0.8;"/>
      </defs>
      <g>
       <use style="fill:#555555;stroke:#555555;stroke-width:0.8;" x="52.079375" xlink:href="#mb09eefaf3a" y="193.216074"/>
      </g>
     </g>
     <g id="text_8">
      <!-- 0.75 -->
      <g style="fill:#555555;" transform="translate(22.81375 197.015293)scale(0.1 -0.1)">
       <defs>
        <path d="M 684 794 
L 1344 794 
L 1344 0 
L 684 0 
L 684 794 
z
" id="DejaVuSans-2e" transform="scale(0.015625)"/>
        <path d="M 525 4666 
L 3525 4666 
L 3525 4397 
L 1831 0 
L 1172 0 
L 2766 4134 
L 525 4134 
L 525 4666 
z
" id="DejaVuSans-37" transform="scale(0.015625)"/>
        <path d="M 691 4666 
L 3169 4666 
L 3169 4134 
L 1269 4134 
L 1269 2991 
Q 1406 3038 1543 3061 
Q 1681 3084 1819 3084 
Q 2600 3084 3056 2656 
Q 3513 2228 3513 1497 
Q 3513 744 3044 326 
Q 2575 -91 1722 -91 
Q 1428 -91 1123 -41 
Q 819 9 494 109 
L 494 744 
Q 775 591 1075 516 
Q 1375 441 1709 441 
Q 2250 441 2565 725 
Q 2881 1009 2881 1497 
Q 2881 1984 2565 2268 
Q 2250 2553 1709 2553 
Q 1456 2553 1204 2497 
Q 953 2441 691 2322 
L 691 4666 
z
" id="DejaVuSans-35" transform="scale(0.015625)"/>
       </defs>
       <use xlink:href="#DejaVuSans-30"/>
       <use x="63.623047" xlink:href="#DejaVuSans-2e"/>
       <use x="95.410156" xlink:href="#DejaVuSans-37"/>
       <use x="159.033203" xlink:href="#DejaVuSans-35"/>
      </g>
     </g>
    </g>
    <g id="ytick_2">
     <g id="line2d_15">
      <path clip-path="url(#pb9153b60d5)" d="M 52.079375 151.913092 
L 498.479375 151.913092 
" style="fill:none;stroke:#ffffff;stroke-linecap:square;stroke-width:0.8;"/>
     </g>
     <g id="line2d_16">
      <g>
       <use style="fill:#555555;stroke:#555555;stroke-width:0.8;" x="52.079375" xlink:href="#mb09eefaf3a" y="151.913092"/>
      </g>
     </g>
     <g id="text_9">
      <!-- 0.80 -->
      <g style="fill:#555555;" transform="translate(22.81375 155.712311)scale(0.1 -0.1)">
       <use xlink:href="#DejaVuSans-30"/>
       <use x="63.623047" xlink:href="#DejaVuSans-2e"/>
       <use x="95.410156" xlink:href="#DejaVuSans-38"/>
       <use x="159.033203" xlink:href="#DejaVuSans-30"/>
      </g>
     </g>
    </g>
    <g id="ytick_3">
     <g id="line2d_17">
      <path clip-path="url(#pb9153b60d5)" d="M 52.079375 110.61011 
L 498.479375 110.61011 
" style="fill:none;stroke:#ffffff;stroke-linecap:square;stroke-width:0.8;"/>
     </g>
     <g id="line2d_18">
      <g>
       <use style="fill:#555555;stroke:#555555;stroke-width:0.8;" x="52.079375" xlink:href="#mb09eefaf3a" y="110.61011"/>
      </g>
     </g>
     <g id="text_10">
      <!-- 0.85 -->
      <g style="fill:#555555;" transform="translate(22.81375 114.409328)scale(0.1 -0.1)">
       <use xlink:href="#DejaVuSans-30"/>
       <use x="63.623047" xlink:href="#DejaVuSans-2e"/>
       <use x="95.410156" xlink:href="#DejaVuSans-38"/>
       <use x="159.033203" xlink:href="#DejaVuSans-35"/>
      </g>
     </g>
    </g>
    <g id="ytick_4">
     <g id="line2d_19">
      <path clip-path="url(#pb9153b60d5)" d="M 52.079375 69.307127 
L 498.479375 69.307127 
" style="fill:none;stroke:#ffffff;stroke-linecap:square;stroke-width:0.8;"/>
     </g>
     <g id="line2d_20">
      <g>
       <use style="fill:#555555;stroke:#555555;stroke-width:0.8;" x="52.079375" xlink:href="#mb09eefaf3a" y="69.307127"/>
      </g>
     </g>
     <g id="text_11">
      <!-- 0.90 -->
      <g style="fill:#555555;" transform="translate(22.81375 73.106346)scale(0.1 -0.1)">
       <defs>
        <path d="M 703 97 
L 703 672 
Q 941 559 1184 500 
Q 1428 441 1663 441 
Q 2288 441 2617 861 
Q 2947 1281 2994 2138 
Q 2813 1869 2534 1725 
Q 2256 1581 1919 1581 
Q 1219 1581 811 2004 
Q 403 2428 403 3163 
Q 403 3881 828 4315 
Q 1253 4750 1959 4750 
Q 2769 4750 3195 4129 
Q 3622 3509 3622 2328 
Q 3622 1225 3098 567 
Q 2575 -91 1691 -91 
Q 1453 -91 1209 -44 
Q 966 3 703 97 
z
M 1959 2075 
Q 2384 2075 2632 2365 
Q 2881 2656 2881 3163 
Q 2881 3666 2632 3958 
Q 2384 4250 1959 4250 
Q 1534 4250 1286 3958 
Q 1038 3666 1038 3163 
Q 1038 2656 1286 2365 
Q 1534 2075 1959 2075 
z
" id="DejaVuSans-39" transform="scale(0.015625)"/>
       </defs>
       <use xlink:href="#DejaVuSans-30"/>
       <use x="63.623047" xlink:href="#DejaVuSans-2e"/>
       <use x="95.410156" xlink:href="#DejaVuSans-39"/>
       <use x="159.033203" xlink:href="#DejaVuSans-30"/>
      </g>
     </g>
    </g>
    <g id="ytick_5">
     <g id="line2d_21">
      <path clip-path="url(#pb9153b60d5)" d="M 52.079375 28.004145 
L 498.479375 28.004145 
" style="fill:none;stroke:#ffffff;stroke-linecap:square;stroke-width:0.8;"/>
     </g>
     <g id="line2d_22">
      <g>
       <use style="fill:#555555;stroke:#555555;stroke-width:0.8;" x="52.079375" xlink:href="#mb09eefaf3a" y="28.004145"/>
      </g>
     </g>
     <g id="text_12">
      <!-- 0.95 -->
      <g style="fill:#555555;" transform="translate(22.81375 31.803364)scale(0.1 -0.1)">
       <use xlink:href="#DejaVuSans-30"/>
       <use x="63.623047" xlink:href="#DejaVuSans-2e"/>
       <use x="95.410156" xlink:href="#DejaVuSans-39"/>
       <use x="159.033203" xlink:href="#DejaVuSans-35"/>
      </g>
     </g>
    </g>
    <g id="text_13">
     <!-- Accuracy -->
     <g style="fill:#555555;" transform="translate(16.318125 143.31375)rotate(-90)scale(0.12 -0.12)">
      <defs>
       <path d="M 2188 4044 
L 1331 1722 
L 3047 1722 
L 2188 4044 
z
M 1831 4666 
L 2547 4666 
L 4325 0 
L 3669 0 
L 3244 1197 
L 1141 1197 
L 716 0 
L 50 0 
L 1831 4666 
z
" id="DejaVuSans-41" transform="scale(0.015625)"/>
       <path d="M 2194 1759 
Q 1497 1759 1228 1600 
Q 959 1441 959 1056 
Q 959 750 1161 570 
Q 1363 391 1709 391 
Q 2188 391 2477 730 
Q 2766 1069 2766 1631 
L 2766 1759 
L 2194 1759 
z
M 3341 1997 
L 3341 0 
L 2766 0 
L 2766 531 
Q 2569 213 2275 61 
Q 1981 -91 1556 -91 
Q 1019 -91 701 211 
Q 384 513 384 1019 
Q 384 1609 779 1909 
Q 1175 2209 1959 2209 
L 2766 2209 
L 2766 2266 
Q 2766 2663 2505 2880 
Q 2244 3097 1772 3097 
Q 1472 3097 1187 3025 
Q 903 2953 641 2809 
L 641 3341 
Q 956 3463 1253 3523 
Q 1550 3584 1831 3584 
Q 2591 3584 2966 3190 
Q 3341 2797 3341 1997 
z
" id="DejaVuSans-61" transform="scale(0.015625)"/>
       <path d="M 2059 -325 
Q 1816 -950 1584 -1140 
Q 1353 -1331 966 -1331 
L 506 -1331 
L 506 -850 
L 844 -850 
Q 1081 -850 1212 -737 
Q 1344 -625 1503 -206 
L 1606 56 
L 191 3500 
L 800 3500 
L 1894 763 
L 2988 3500 
L 3597 3500 
L 2059 -325 
z
" id="DejaVuSans-79" transform="scale(0.015625)"/>
      </defs>
      <use xlink:href="#DejaVuSans-41"/>
      <use x="66.658203" xlink:href="#DejaVuSans-63"/>
      <use x="121.638672" xlink:href="#DejaVuSans-63"/>
      <use x="176.619141" xlink:href="#DejaVuSans-75"/>
      <use x="239.998047" xlink:href="#DejaVuSans-72"/>
      <use x="281.111328" xlink:href="#DejaVuSans-61"/>
      <use x="342.390625" xlink:href="#DejaVuSans-63"/>
      <use x="397.371094" xlink:href="#DejaVuSans-79"/>
     </g>
    </g>
   </g>
   <g id="line2d_23">
    <path clip-path="url(#pb9153b60d5)" d="M 72.370284 208.027324 
L 76.469458 160.743669 
L 80.568631 141.760819 
L 84.667805 130.83205 
L 88.766978 122.80275 
L 92.866152 117.325974 
L 96.965325 111.824417 
L 101.064499 106.645023 
L 105.163673 103.720772 
L 109.262846 97.128816 
L 113.36202 99.582213 
L 117.461193 95.088449 
L 121.560367 91.866816 
L 125.65954 92.659833 
L 129.758714 90.256 
L 133.857887 88.934304 
L 137.957061 85.283121 
L 142.056235 83.523614 
L 146.155408 79.128976 
L 150.254582 78.104662 
L 154.353755 77.262082 
L 158.452929 78.674644 
L 162.552102 80.029381 
L 166.651276 77.253821 
L 170.750449 73.850455 
L 174.849623 77.195997 
L 178.948796 71.917476 
L 183.04797 69.034528 
L 187.147144 69.191479 
L 191.246317 70.389265 
L 195.345491 68.059777 
L 199.444664 69.744939 
L 203.543838 66.895033 
L 207.643011 67.283281 
L 211.742185 67.324584 
L 215.841358 63.276892 
L 219.940532 62.748214 
L 224.039706 63.359498 
L 228.138879 63.194286 
L 232.238053 63.962521 
L 236.337226 62.219535 
L 240.4364 62.492135 
L 244.535573 60.080041 
L 248.634747 59.956132 
L 252.73392 58.105758 
L 256.833094 60.583937 
L 260.932268 55.371501 
L 265.031441 58.576612 
L 269.130615 55.206289 
L 273.229788 53.174182 
L 277.328962 54.553702 
L 281.428135 53.537649 
L 285.527309 53.058534 
L 289.626482 52.405947 
L 293.725656 52.059002 
L 297.82483 52.785934 
L 301.924003 53.801988 
L 306.023177 51.439457 
L 310.12235 52.273777 
L 314.221524 50.324277 
L 318.320697 50.78687 
L 322.419871 51.166857 
L 326.519044 50.819912 
L 330.618218 46.697875 
L 334.717392 54.537181 
L 338.816565 46.821784 
L 342.915739 48.57303 
L 347.014912 47.119165 
L 351.114086 48.515206 
L 355.213259 45.483567 
L 359.312433 48.176521 
L 363.411606 46.805262 
L 367.51078 43.286248 
L 371.609954 46.045288 
L 375.709127 42.228892 
L 379.808301 43.112776 
L 383.907474 44.69881 
L 388.006648 43.360594 
L 392.105821 41.658911 
L 396.204995 44.880543 
L 400.304168 40.882415 
L 404.403342 49.894726 
L 408.502515 43.955357 
L 412.601689 43.484503 
L 416.700863 45.723124 
L 420.800036 40.601554 
L 424.89921 40.865894 
L 428.998383 40.056355 
L 433.097557 41.733256 
L 437.19673 39.180732 
L 441.295904 39.825058 
L 445.395077 36.231699 
L 449.494251 37.479049 
L 453.593425 38.247284 
L 457.692598 40.593294 
L 461.791772 39.139429 
L 465.890945 39.213774 
L 469.990119 39.924186 
L 474.089292 38.932914 
L 478.188466 33.513963 
" style="fill:none;stroke:#ff0000;stroke-linecap:square;stroke-width:1.5;"/>
   </g>
   <g id="line2d_24">
    <path clip-path="url(#pb9153b60d5)" d="M 72.370284 175.191453 
L 76.469458 138.307889 
L 80.568631 121.464533 
L 84.667805 112.906555 
L 88.766978 107.71064 
L 92.866152 103.2747 
L 96.965325 94.295431 
L 101.064499 91.519871 
L 105.163673 87.463918 
L 109.262846 82.482779 
L 113.36202 81.070217 
L 117.461193 77.369469 
L 121.560367 78.691165 
L 125.65954 76.41124 
L 129.758714 71.446622 
L 133.857887 73.148305 
L 137.957061 65.127265 
L 142.056235 62.56648 
L 146.155408 66.498524 
L 150.254582 63.318195 
L 154.353755 64.301206 
L 158.452929 59.691793 
L 162.552102 57.040141 
L 166.651276 57.998371 
L 170.750449 55.36324 
L 174.849623 54.793259 
L 178.948796 54.10763 
L 183.04797 57.618383 
L 187.147144 53.256788 
L 191.246317 50.068198 
L 195.345491 48.30043 
L 199.444664 48.953018 
L 203.543838 49.853423 
L 207.643011 44.764895 
L 211.742185 46.417014 
L 215.841358 44.541859 
L 219.940532 49.357787 
L 224.039706 40.700682 
L 228.138879 44.153611 
L 232.238053 39.882883 
L 236.337226 41.50196 
L 240.4364 46.086591 
L 244.535573 41.840644 
L 248.634747 38.222503 
L 252.73392 38.148157 
L 256.833094 39.676368 
L 260.932268 38.222503 
L 265.031441 36.10779 
L 269.130615 36.38039 
L 273.229788 36.677771 
L 277.328962 28.978895 
L 281.428135 33.084412 
L 285.527309 33.026588 
L 289.626482 36.074748 
L 293.725656 34.273938 
L 297.82483 34.521755 
L 301.924003 32.563994 
L 306.023177 31.167953 
L 310.12235 27.318515 
L 314.221524 30.672318 
L 318.320697 32.448346 
L 322.419871 31.787498 
L 326.519044 34.976088 
L 330.618218 28.987156 
L 334.717392 29.648004 
L 338.816565 28.615429 
L 342.915739 31.729674 
L 347.014912 26.442892 
L 351.114086 28.846726 
L 355.213259 27.905018 
L 359.312433 25.261627 
L 363.411606 27.194606 
L 367.51078 29.945385 
L 371.609954 26.508977 
L 375.709127 26.575062 
L 379.808301 23.328647 
L 383.907474 26.178553 
L 388.006648 32.357479 
L 392.105821 24.600779 
L 396.204995 23.064308 
L 400.304168 23.840804 
L 404.403342 23.097351 
L 408.502515 25.03033 
L 412.601689 26.170292 
L 416.700863 26.385068 
L 420.800036 22.048255 
L 424.89921 24.699906 
L 428.998383 25.567269 
L 433.097557 22.205206 
L 437.19673 28.77238 
L 441.295904 20.73482 
L 445.395077 25.616833 
L 449.494251 20.090493 
L 453.593425 21.825219 
L 457.692598 21.940867 
L 461.791772 17.777526 
L 465.890945 17.083636 
L 469.990119 22.841272 
L 474.089292 23.609508 
L 478.188466 23.36169 
" style="fill:none;stroke:#0000ff;stroke-linecap:square;stroke-width:1.5;"/>
   </g>
   <g id="line2d_25">
    <path clip-path="url(#pb9153b60d5)" d="M 72.370284 169.912932 
L 76.469458 144.833761 
L 80.568631 121.208455 
L 84.667805 116.086885 
L 88.766978 108.140191 
L 92.866152 96.938822 
L 96.965325 94.088917 
L 101.064499 85.630066 
L 105.163673 87.728257 
L 109.262846 89.074735 
L 113.36202 79.864169 
L 117.461193 75.725611 
L 121.560367 72.685711 
L 125.65954 70.215793 
L 129.758714 68.167165 
L 133.857887 67.646747 
L 137.957061 67.192415 
L 142.056235 64.491199 
L 146.155408 63.004292 
L 150.254582 60.187429 
L 154.353755 59.667011 
L 158.452929 62.938207 
L 162.552102 55.470628 
L 166.651276 55.528452 
L 170.750449 52.372904 
L 174.849623 52.282038 
L 178.948796 56.577548 
L 183.04797 52.802455 
L 187.147144 47.664364 
L 191.246317 48.077394 
L 195.345491 47.474371 
L 199.444664 48.01957 
L 203.543838 43.790145 
L 207.643011 46.706135 
L 211.742185 43.426678 
L 215.841358 43.682757 
L 219.940532 43.963617 
L 224.039706 42.104983 
L 228.138879 38.032509 
L 232.238053 42.724528 
L 236.337226 42.699746 
L 240.4364 39.139429 
L 244.535573 42.451928 
L 248.634747 39.701149 
L 252.73392 41.65065 
L 256.833094 37.272534 
L 260.932268 36.182135 
L 265.031441 36.537341 
L 269.130615 32.952242 
L 273.229788 36.396911 
L 277.328962 35.562591 
L 281.428135 32.332697 
L 285.527309 37.735128 
L 289.626482 36.306044 
L 293.725656 38.676836 
L 297.82483 29.499313 
L 301.924003 35.223906 
L 306.023177 29.234974 
L 310.12235 36.545602 
L 314.221524 32.952242 
L 318.320697 29.094544 
L 322.419871 33.431357 
L 326.519044 28.970635 
L 330.618218 32.36574 
L 334.717392 30.275809 
L 338.816565 31.53968 
L 342.915739 27.351558 
L 347.014912 31.589244 
L 351.114086 31.994013 
L 355.213259 29.053241 
L 359.312433 28.780641 
L 363.411606 25.451621 
L 367.51078 23.766459 
L 371.609954 30.994481 
L 375.709127 25.261627 
L 379.808301 25.897693 
L 383.907474 26.583322 
L 388.006648 27.648939 
L 392.105821 26.632886 
L 396.204995 21.56088 
L 400.304168 22.386939 
L 404.403342 21.907825 
L 408.502515 27.136782 
L 412.601689 23.650811 
L 416.700863 24.518173 
L 420.800036 28.103272 
L 424.89921 23.072569 
L 428.998383 28.747599 
L 433.097557 27.574594 
L 437.19673 24.46861 
L 441.295904 24.74947 
L 445.395077 25.550748 
L 449.494251 22.560412 
L 453.593425 24.377743 
L 457.692598 22.519109 
L 461.791772 22.436503 
L 465.890945 25.732481 
L 469.990119 20.726559 
L 474.089292 24.906421 
L 478.188466 21.048723 
" style="fill:none;stroke:#800080;stroke-linecap:square;stroke-width:1.5;"/>
   </g>
   <g id="line2d_26">
    <path clip-path="url(#pb9153b60d5)" d="M 72.370284 214.756364 
L 76.469458 170.316446 
L 80.568631 151.756245 
L 84.667805 144.90727 
L 88.766978 141.561205 
L 92.866152 137.169496 
L 96.965325 132.934633 
L 101.064499 131.104754 
L 105.163673 128.438359 
L 109.262846 124.360343 
L 113.36202 129.84998 
L 117.461193 126.399351 
L 121.560367 125.824246 
L 125.65954 130.529649 
L 129.758714 129.536286 
L 133.857887 125.928811 
L 137.957061 125.405988 
L 142.056235 124.308061 
L 146.155408 124.098932 
L 150.254582 124.883165 
L 154.353755 123.157851 
L 158.452929 127.026738 
L 162.552102 129.327157 
L 166.651276 129.222593 
L 170.750449 128.22923 
L 174.849623 132.725504 
L 178.948796 129.379439 
L 183.04797 126.556198 
L 187.147144 129.379439 
L 191.246317 127.026738 
L 195.345491 127.810972 
L 199.444664 133.248326 
L 203.543838 129.588568 
L 207.643011 130.634214 
L 211.742185 133.405173 
L 215.841358 127.915536 
L 219.940532 128.69977 
L 224.039706 131.732141 
L 228.138879 131.209318 
L 232.238053 132.516375 
L 236.337226 131.993552 
L 240.4364 132.777786 
L 244.535573 130.529649 
L 248.634747 132.673222 
L 252.73392 130.215956 
L 256.833094 135.18277 
L 260.932268 132.725504 
L 265.031441 135.967004 
L 269.130615 132.725504 
L 273.229788 131.627576 
L 277.328962 134.137125 
L 281.428135 135.391899 
L 285.527309 135.391899 
L 289.626482 134.71223 
L 293.725656 135.757875 
L 297.82483 137.483189 
L 301.924003 137.535471 
L 306.023177 136.751238 
L 310.12235 136.489826 
L 314.221524 136.228415 
L 318.320697 138.267423 
L 322.419871 138.476552 
L 326.519044 137.326342 
L 330.618218 136.489826 
L 334.717392 143.861624 
L 338.816565 137.326342 
L 342.915739 140.933818 
L 347.014912 136.646673 
L 351.114086 138.842528 
L 355.213259 137.692318 
L 359.312433 140.672407 
L 363.411606 139.313068 
L 367.51078 139.783608 
L 371.609954 141.561205 
L 375.709127 139.417633 
L 379.808301 139.888173 
L 383.907474 141.66577 
L 388.006648 141.142947 
L 392.105821 142.031745 
L 396.204995 144.070753 
L 400.304168 141.561205 
L 404.403342 148.253334 
L 408.502515 144.854987 
L 412.601689 143.129673 
L 416.700863 143.234237 
L 420.800036 141.090665 
L 424.89921 144.489011 
L 428.998383 145.325528 
L 433.097557 143.443366 
L 437.19673 143.077391 
L 441.295904 144.593576 
L 445.395077 144.750423 
L 449.494251 142.659132 
L 453.593425 144.018471 
L 457.692598 145.220963 
L 461.791772 143.391084 
L 465.890945 147.573665 
L 469.990119 147.4691 
L 474.089292 146.423455 
L 478.188466 144.279882 
" style="fill:none;stroke:#808080;stroke-dasharray:5.55,2.4;stroke-dashoffset:0;stroke-width:1.5;"/>
   </g>
   <g id="line2d_27">
    <path clip-path="url(#pb9153b60d5)" d="M 72.370284 180.197792 
L 76.469458 148.985285 
L 80.568631 139.469915 
L 84.667805 132.202681 
L 88.766978 129.797697 
L 92.866152 126.765327 
L 96.965325 125.144577 
L 101.064499 121.693948 
L 105.163673 121.171125 
L 109.262846 117.511367 
L 113.36202 120.648303 
L 117.461193 119.602658 
L 121.560367 119.602658 
L 125.65954 120.909714 
L 129.758714 118.609295 
L 133.857887 121.537101 
L 137.957061 117.929625 
L 142.056235 115.420077 
L 146.155408 121.903077 
L 150.254582 120.073198 
L 154.353755 122.948722 
L 158.452929 121.484819 
L 162.552102 118.138754 
L 166.651276 126.660762 
L 170.750449 121.27569 
L 174.849623 123.210133 
L 178.948796 124.935448 
L 183.04797 125.562835 
L 187.147144 127.026738 
L 191.246317 123.732956 
L 195.345491 123.419262 
L 199.444664 128.020101 
L 203.543838 127.54956 
L 207.643011 125.249141 
L 211.742185 123.105569 
L 215.841358 127.183585 
L 219.940532 128.020101 
L 224.039706 125.824246 
L 228.138879 125.928811 
L 232.238053 128.020101 
L 236.337226 130.372802 
L 240.4364 131.523012 
L 244.535573 129.379439 
L 248.634747 127.654125 
L 252.73392 129.693133 
L 256.833094 129.693133 
L 260.932268 129.379439 
L 265.031441 131.313883 
L 269.130615 132.150399 
L 273.229788 131.732141 
L 277.328962 127.026738 
L 281.428135 128.69977 
L 285.527309 131.052472 
L 289.626482 131.000189 
L 293.725656 132.464093 
L 297.82483 129.84998 
L 301.924003 132.986915 
L 306.023177 130.477367 
L 310.12235 131.94127 
L 314.221524 133.405173 
L 318.320697 133.823431 
L 322.419871 136.489826 
L 326.519044 134.398536 
L 330.618218 132.725504 
L 334.717392 134.816794 
L 338.816565 134.084842 
L 342.915739 133.823431 
L 347.014912 130.268238 
L 351.114086 135.548746 
L 355.213259 134.346254 
L 359.312433 130.477367 
L 363.411606 134.869076 
L 367.51078 136.019286 
L 371.609954 135.444181 
L 375.709127 136.437544 
L 379.808301 133.771149 
L 383.907474 135.339617 
L 388.006648 138.685681 
L 392.105821 136.960367 
L 396.204995 135.496463 
L 400.304168 131.366165 
L 404.403342 134.921359 
L 408.502515 135.130488 
L 412.601689 138.633399 
L 416.700863 138.371987 
L 420.800036 133.196044 
L 424.89921 136.855802 
L 428.998383 137.640036 
L 433.097557 137.692318 
L 437.19673 137.692318 
L 441.295904 133.980278 
L 445.395077 140.776971 
L 449.494251 135.862439 
L 453.593425 139.313068 
L 457.692598 138.42427 
L 461.791772 134.084842 
L 465.890945 135.705592 
L 469.990119 138.999375 
L 474.089292 139.783608 
L 478.188466 139.051657 
" style="fill:none;stroke:#ffff00;stroke-dasharray:5.55,2.4;stroke-dashoffset:0;stroke-width:1.5;"/>
   </g>
   <g id="line2d_28">
    <path clip-path="url(#pb9153b60d5)" d="M 72.370284 177.322268 
L 76.469458 153.638406 
L 80.568631 137.587754 
L 84.667805 134.293972 
L 88.766978 128.386077 
L 92.866152 124.360343 
L 96.965325 122.007641 
L 101.064499 116.099746 
L 105.163673 120.752867 
L 109.262846 123.785238 
L 113.36202 118.609295 
L 117.461193 115.472359 
L 121.560367 116.41344 
L 125.65954 117.511367 
L 129.758714 119.498093 
L 133.857887 120.961996 
L 137.957061 121.014278 
L 142.056235 120.12548 
L 146.155408 120.386891 
L 150.254582 120.909714 
L 154.353755 120.439174 
L 158.452929 126.13794 
L 162.552102 121.484819 
L 166.651276 122.530464 
L 170.750449 118.97527 
L 174.849623 123.942085 
L 178.948796 125.510552 
L 183.04797 122.89644 
L 187.147144 122.948722 
L 191.246317 124.935448 
L 195.345491 123.262415 
L 199.444664 125.981093 
L 203.543838 124.412625 
L 207.643011 126.347069 
L 211.742185 125.615117 
L 215.841358 124.883165 
L 219.940532 128.856617 
L 224.039706 126.503915 
L 228.138879 124.98773 
L 232.238053 127.967819 
L 236.337226 128.22923 
L 240.4364 124.151214 
L 244.535573 129.484004 
L 248.634747 128.542923 
L 252.73392 130.477367 
L 256.833094 128.333794 
L 260.932268 128.438359 
L 265.031441 130.529649 
L 269.130615 128.333794 
L 273.229788 131.679859 
L 277.328962 131.209318 
L 281.428135 128.908899 
L 285.527309 132.620939 
L 289.626482 132.41181 
L 293.725656 130.268238 
L 297.82483 130.163673 
L 301.924003 129.745415 
L 306.023177 131.47073 
L 310.12235 135.810157 
L 314.221524 131.732141 
L 318.320697 127.915536 
L 322.419871 131.627576 
L 326.519044 129.222593 
L 330.618218 130.477367 
L 334.717392 135.705592 
L 338.816565 130.843343 
L 342.915739 129.902262 
L 347.014912 136.594391 
L 351.114086 132.934633 
L 355.213259 136.594391 
L 359.312433 131.052472 
L 363.411606 129.84998 
L 367.51078 134.137125 
L 371.609954 135.914721 
L 375.709127 130.32052 
L 379.808301 130.581931 
L 383.907474 130.947907 
L 388.006648 135.914721 
L 392.105821 129.640851 
L 396.204995 131.836705 
L 400.304168 128.804335 
L 404.403342 129.902262 
L 408.502515 130.32052 
L 412.601689 133.666584 
L 416.700863 131.418447 
L 420.800036 134.71223 
L 424.89921 134.084842 
L 428.998383 133.875713 
L 433.097557 135.548746 
L 437.19673 134.71223 
L 441.295904 131.157036 
L 445.395077 132.098117 
L 449.494251 130.477367 
L 453.593425 136.542109 
L 457.692598 134.503101 
L 461.791772 133.457455 
L 465.890945 133.039197 
L 469.990119 132.464093 
L 474.089292 133.823431 
L 478.188466 131.157036 
" style="fill:none;stroke:#008000;stroke-dasharray:5.55,2.4;stroke-dashoffset:0;stroke-width:1.5;"/>
   </g>
   <g id="patch_3">
    <path d="M 52.079375 224.64 
L 52.079375 7.2 
" style="fill:none;stroke:#ffffff;stroke-linecap:square;stroke-linejoin:miter;"/>
   </g>
   <g id="patch_4">
    <path d="M 498.479375 224.64 
L 498.479375 7.2 
" style="fill:none;stroke:#ffffff;stroke-linecap:square;stroke-linejoin:miter;"/>
   </g>
   <g id="patch_5">
    <path d="M 52.079375 224.64 
L 498.479375 224.64 
" style="fill:none;stroke:#ffffff;stroke-linecap:square;stroke-linejoin:miter;"/>
   </g>
   <g id="patch_6">
    <path d="M 52.079375 7.2 
L 498.479375 7.2 
" style="fill:none;stroke:#ffffff;stroke-linecap:square;stroke-linejoin:miter;"/>
   </g>
   <g id="legend_1">
    <g id="patch_7">
     <path d="M 505.479375 103.26875 
L 607.8825 103.26875 
Q 609.8825 103.26875 609.8825 101.26875 
L 609.8825 14.2 
Q 609.8825 12.2 607.8825 12.2 
L 505.479375 12.2 
Q 503.479375 12.2 503.479375 14.2 
L 503.479375 101.26875 
Q 503.479375 103.26875 505.479375 103.26875 
z
" style="fill:#e5e5e5;opacity:0.8;stroke:#cccccc;stroke-linejoin:miter;stroke-width:0.5;"/>
    </g>
    <g id="line2d_29">
     <path d="M 507.479375 20.298437 
L 527.479375 20.298437 
" style="fill:none;stroke:#ff0000;stroke-linecap:square;stroke-width:1.5;"/>
    </g>
    <g id="line2d_30"/>
    <g id="text_14">
     <!-- depth 1(train) -->
     <g transform="translate(535.479375 23.798437)scale(0.1 -0.1)">
      <defs>
       <path d="M 2906 2969 
L 2906 4863 
L 3481 4863 
L 3481 0 
L 2906 0 
L 2906 525 
Q 2725 213 2448 61 
Q 2172 -91 1784 -91 
Q 1150 -91 751 415 
Q 353 922 353 1747 
Q 353 2572 751 3078 
Q 1150 3584 1784 3584 
Q 2172 3584 2448 3432 
Q 2725 3281 2906 2969 
z
M 947 1747 
Q 947 1113 1208 752 
Q 1469 391 1925 391 
Q 2381 391 2643 752 
Q 2906 1113 2906 1747 
Q 2906 2381 2643 2742 
Q 2381 3103 1925 3103 
Q 1469 3103 1208 2742 
Q 947 2381 947 1747 
z
" id="DejaVuSans-64" transform="scale(0.015625)"/>
       <path d="M 1172 4494 
L 1172 3500 
L 2356 3500 
L 2356 3053 
L 1172 3053 
L 1172 1153 
Q 1172 725 1289 603 
Q 1406 481 1766 481 
L 2356 481 
L 2356 0 
L 1766 0 
Q 1100 0 847 248 
Q 594 497 594 1153 
L 594 3053 
L 172 3053 
L 172 3500 
L 594 3500 
L 594 4494 
L 1172 4494 
z
" id="DejaVuSans-74" transform="scale(0.015625)"/>
       <path d="M 1984 4856 
Q 1566 4138 1362 3434 
Q 1159 2731 1159 2009 
Q 1159 1288 1364 580 
Q 1569 -128 1984 -844 
L 1484 -844 
Q 1016 -109 783 600 
Q 550 1309 550 2009 
Q 550 2706 781 3412 
Q 1013 4119 1484 4856 
L 1984 4856 
z
" id="DejaVuSans-28" transform="scale(0.015625)"/>
       <path d="M 603 3500 
L 1178 3500 
L 1178 0 
L 603 0 
L 603 3500 
z
M 603 4863 
L 1178 4863 
L 1178 4134 
L 603 4134 
L 603 4863 
z
" id="DejaVuSans-69" transform="scale(0.015625)"/>
       <path d="M 513 4856 
L 1013 4856 
Q 1481 4119 1714 3412 
Q 1947 2706 1947 2009 
Q 1947 1309 1714 600 
Q 1481 -109 1013 -844 
L 513 -844 
Q 928 -128 1133 580 
Q 1338 1288 1338 2009 
Q 1338 2731 1133 3434 
Q 928 4138 513 4856 
z
" id="DejaVuSans-29" transform="scale(0.015625)"/>
      </defs>
      <use xlink:href="#DejaVuSans-64"/>
      <use x="63.476562" xlink:href="#DejaVuSans-65"/>
      <use x="125" xlink:href="#DejaVuSans-70"/>
      <use x="188.476562" xlink:href="#DejaVuSans-74"/>
      <use x="227.685547" xlink:href="#DejaVuSans-68"/>
      <use x="291.064453" xlink:href="#DejaVuSans-20"/>
      <use x="322.851562" xlink:href="#DejaVuSans-31"/>
      <use x="386.474609" xlink:href="#DejaVuSans-28"/>
      <use x="425.488281" xlink:href="#DejaVuSans-74"/>
      <use x="464.697266" xlink:href="#DejaVuSans-72"/>
      <use x="505.810547" xlink:href="#DejaVuSans-61"/>
      <use x="567.089844" xlink:href="#DejaVuSans-69"/>
      <use x="594.873047" xlink:href="#DejaVuSans-6e"/>
      <use x="658.251953" xlink:href="#DejaVuSans-29"/>
     </g>
    </g>
    <g id="line2d_31">
     <path d="M 507.479375 34.976562 
L 527.479375 34.976562 
" style="fill:none;stroke:#0000ff;stroke-linecap:square;stroke-width:1.5;"/>
    </g>
    <g id="line2d_32"/>
    <g id="text_15">
     <!-- depth 2(train) -->
     <g transform="translate(535.479375 38.476562)scale(0.1 -0.1)">
      <use xlink:href="#DejaVuSans-64"/>
      <use x="63.476562" xlink:href="#DejaVuSans-65"/>
      <use x="125" xlink:href="#DejaVuSans-70"/>
      <use x="188.476562" xlink:href="#DejaVuSans-74"/>
      <use x="227.685547" xlink:href="#DejaVuSans-68"/>
      <use x="291.064453" xlink:href="#DejaVuSans-20"/>
      <use x="322.851562" xlink:href="#DejaVuSans-32"/>
      <use x="386.474609" xlink:href="#DejaVuSans-28"/>
      <use x="425.488281" xlink:href="#DejaVuSans-74"/>
      <use x="464.697266" xlink:href="#DejaVuSans-72"/>
      <use x="505.810547" xlink:href="#DejaVuSans-61"/>
      <use x="567.089844" xlink:href="#DejaVuSans-69"/>
      <use x="594.873047" xlink:href="#DejaVuSans-6e"/>
      <use x="658.251953" xlink:href="#DejaVuSans-29"/>
     </g>
    </g>
    <g id="line2d_33">
     <path d="M 507.479375 49.654687 
L 527.479375 49.654687 
" style="fill:none;stroke:#800080;stroke-linecap:square;stroke-width:1.5;"/>
    </g>
    <g id="line2d_34"/>
    <g id="text_16">
     <!-- depth 3(train) -->
     <g transform="translate(535.479375 53.154687)scale(0.1 -0.1)">
      <defs>
       <path d="M 2597 2516 
Q 3050 2419 3304 2112 
Q 3559 1806 3559 1356 
Q 3559 666 3084 287 
Q 2609 -91 1734 -91 
Q 1441 -91 1130 -33 
Q 819 25 488 141 
L 488 750 
Q 750 597 1062 519 
Q 1375 441 1716 441 
Q 2309 441 2620 675 
Q 2931 909 2931 1356 
Q 2931 1769 2642 2001 
Q 2353 2234 1838 2234 
L 1294 2234 
L 1294 2753 
L 1863 2753 
Q 2328 2753 2575 2939 
Q 2822 3125 2822 3475 
Q 2822 3834 2567 4026 
Q 2313 4219 1838 4219 
Q 1578 4219 1281 4162 
Q 984 4106 628 3988 
L 628 4550 
Q 988 4650 1302 4700 
Q 1616 4750 1894 4750 
Q 2613 4750 3031 4423 
Q 3450 4097 3450 3541 
Q 3450 3153 3228 2886 
Q 3006 2619 2597 2516 
z
" id="DejaVuSans-33" transform="scale(0.015625)"/>
      </defs>
      <use xlink:href="#DejaVuSans-64"/>
      <use x="63.476562" xlink:href="#DejaVuSans-65"/>
      <use x="125" xlink:href="#DejaVuSans-70"/>
      <use x="188.476562" xlink:href="#DejaVuSans-74"/>
      <use x="227.685547" xlink:href="#DejaVuSans-68"/>
      <use x="291.064453" xlink:href="#DejaVuSans-20"/>
      <use x="322.851562" xlink:href="#DejaVuSans-33"/>
      <use x="386.474609" xlink:href="#DejaVuSans-28"/>
      <use x="425.488281" xlink:href="#DejaVuSans-74"/>
      <use x="464.697266" xlink:href="#DejaVuSans-72"/>
      <use x="505.810547" xlink:href="#DejaVuSans-61"/>
      <use x="567.089844" xlink:href="#DejaVuSans-69"/>
      <use x="594.873047" xlink:href="#DejaVuSans-6e"/>
      <use x="658.251953" xlink:href="#DejaVuSans-29"/>
     </g>
    </g>
    <g id="line2d_35">
     <path d="M 507.479375 64.332812 
L 527.479375 64.332812 
" style="fill:none;stroke:#808080;stroke-dasharray:5.55,2.4;stroke-dashoffset:0;stroke-width:1.5;"/>
    </g>
    <g id="line2d_36"/>
    <g id="text_17">
     <!-- depth 1(valid) -->
     <g transform="translate(535.479375 67.832812)scale(0.1 -0.1)">
      <defs>
       <path d="M 191 3500 
L 800 3500 
L 1894 563 
L 2988 3500 
L 3597 3500 
L 2284 0 
L 1503 0 
L 191 3500 
z
" id="DejaVuSans-76" transform="scale(0.015625)"/>
       <path d="M 603 4863 
L 1178 4863 
L 1178 0 
L 603 0 
L 603 4863 
z
" id="DejaVuSans-6c" transform="scale(0.015625)"/>
      </defs>
      <use xlink:href="#DejaVuSans-64"/>
      <use x="63.476562" xlink:href="#DejaVuSans-65"/>
      <use x="125" xlink:href="#DejaVuSans-70"/>
      <use x="188.476562" xlink:href="#DejaVuSans-74"/>
      <use x="227.685547" xlink:href="#DejaVuSans-68"/>
      <use x="291.064453" xlink:href="#DejaVuSans-20"/>
      <use x="322.851562" xlink:href="#DejaVuSans-31"/>
      <use x="386.474609" xlink:href="#DejaVuSans-28"/>
      <use x="425.488281" xlink:href="#DejaVuSans-76"/>
      <use x="484.667969" xlink:href="#DejaVuSans-61"/>
      <use x="545.947266" xlink:href="#DejaVuSans-6c"/>
      <use x="573.730469" xlink:href="#DejaVuSans-69"/>
      <use x="601.513672" xlink:href="#DejaVuSans-64"/>
      <use x="664.990234" xlink:href="#DejaVuSans-29"/>
     </g>
    </g>
    <g id="line2d_37">
     <path d="M 507.479375 79.010937 
L 527.479375 79.010937 
" style="fill:none;stroke:#ffff00;stroke-dasharray:5.55,2.4;stroke-dashoffset:0;stroke-width:1.5;"/>
    </g>
    <g id="line2d_38"/>
    <g id="text_18">
     <!-- depth 2(valid) -->
     <g transform="translate(535.479375 82.510937)scale(0.1 -0.1)">
      <use xlink:href="#DejaVuSans-64"/>
      <use x="63.476562" xlink:href="#DejaVuSans-65"/>
      <use x="125" xlink:href="#DejaVuSans-70"/>
      <use x="188.476562" xlink:href="#DejaVuSans-74"/>
      <use x="227.685547" xlink:href="#DejaVuSans-68"/>
      <use x="291.064453" xlink:href="#DejaVuSans-20"/>
      <use x="322.851562" xlink:href="#DejaVuSans-32"/>
      <use x="386.474609" xlink:href="#DejaVuSans-28"/>
      <use x="425.488281" xlink:href="#DejaVuSans-76"/>
      <use x="484.667969" xlink:href="#DejaVuSans-61"/>
      <use x="545.947266" xlink:href="#DejaVuSans-6c"/>
      <use x="573.730469" xlink:href="#DejaVuSans-69"/>
      <use x="601.513672" xlink:href="#DejaVuSans-64"/>
      <use x="664.990234" xlink:href="#DejaVuSans-29"/>
     </g>
    </g>
    <g id="line2d_39">
     <path d="M 507.479375 93.689062 
L 527.479375 93.689062 
" style="fill:none;stroke:#008000;stroke-dasharray:5.55,2.4;stroke-dashoffset:0;stroke-width:1.5;"/>
    </g>
    <g id="line2d_40"/>
    <g id="text_19">
     <!-- depth 3(valid) -->
     <g transform="translate(535.479375 97.189062)scale(0.1 -0.1)">
      <use xlink:href="#DejaVuSans-64"/>
      <use x="63.476562" xlink:href="#DejaVuSans-65"/>
      <use x="125" xlink:href="#DejaVuSans-70"/>
      <use x="188.476562" xlink:href="#DejaVuSans-74"/>
      <use x="227.685547" xlink:href="#DejaVuSans-68"/>
      <use x="291.064453" xlink:href="#DejaVuSans-20"/>
      <use x="322.851562" xlink:href="#DejaVuSans-33"/>
      <use x="386.474609" xlink:href="#DejaVuSans-28"/>
      <use x="425.488281" xlink:href="#DejaVuSans-76"/>
      <use x="484.667969" xlink:href="#DejaVuSans-61"/>
      <use x="545.947266" xlink:href="#DejaVuSans-6c"/>
      <use x="573.730469" xlink:href="#DejaVuSans-69"/>
      <use x="601.513672" xlink:href="#DejaVuSans-64"/>
      <use x="664.990234" xlink:href="#DejaVuSans-29"/>
     </g>
    </g>
   </g>
  </g>
 </g>
 <defs>
  <clipPath id="pb9153b60d5">
   <rect height="217.44" width="446.4" x="52.079375" y="7.2"/>
  </clipPath>
 </defs>
</svg>
