<?xml version="1.0" encoding="utf-8" standalone="no"?>
<!DOCTYPE svg PUBLIC "-//W3C//DTD SVG 1.1//EN"
  "http://www.w3.org/Graphics/SVG/1.1/DTD/svg11.dtd">
<svg height="264.131875pt" version="1.1" viewBox="0 0 628.262187 264.131875" width="628.262187pt" xmlns="http://www.w3.org/2000/svg" xmlns:xlink="http://www.w3.org/1999/xlink">
 <metadata>
  <rdf:RDF xmlns:cc="http://creativecommons.org/ns#" xmlns:dc="http://purl.org/dc/elements/1.1/" xmlns:rdf="http://www.w3.org/1999/02/22-rdf-syntax-ns#">
   <cc:Work>
    <dc:type rdf:resource="http://purl.org/dc/dcmitype/StillImage"/>
    <dc:date>2021-11-04T11:08:42.634872</dc:date>
    <dc:format>image/svg+xml</dc:format>
    <dc:creator>
     <cc:Agent>
      <dc:title>Matplotlib v3.4.2, https://matplotlib.org/</dc:title>
     </cc:Agent>
    </dc:creator>
   </cc:Work>
  </rdf:RDF>
 </metadata>
 <defs>
  <style type="text/css">*{stroke-linecap:butt;stroke-linejoin:round;}</style>
 </defs>
 <g id="figure_1">
  <g id="patch_1">
   <path d="M 0 264.131875 
L 628.262187 264.131875 
L 628.262187 0 
L 0 0 
z
" style="fill:#ffffff;"/>
  </g>
  <g id="axes_1">
   <g id="patch_2">
    <path d="M 52.079375 224.64 
L 498.479375 224.64 
L 498.479375 7.2 
L 52.079375 7.2 
z
" style="fill:#e5e5e5;"/>
   </g>
   <g id="matplotlib.axis_1">
    <g id="xtick_1">
     <g id="line2d_1">
      <path clip-path="url(#p8e12d0779b)" d="M 68.271111 224.64 
L 68.271111 7.2 
" style="fill:none;stroke:#ffffff;stroke-linecap:square;stroke-width:0.8;"/>
     </g>
     <g id="line2d_2">
      <defs>
       <path d="M 0 0 
L 0 3.5 
" id="m3f55d7a7f0" style="stroke:#555555;stroke-width:0.8;"/>
      </defs>
      <g>
       <use style="fill:#555555;stroke:#555555;stroke-width:0.8;" x="68.271111" xlink:href="#m3f55d7a7f0" y="224.64"/>
      </g>
     </g>
     <g id="text_1">
      <!-- 0 -->
      <g style="fill:#555555;" transform="translate(65.089861 239.238437)scale(0.1 -0.1)">
       <defs>
        <path d="M 2034 4250 
Q 1547 4250 1301 3770 
Q 1056 3291 1056 2328 
Q 1056 1369 1301 889 
Q 1547 409 2034 409 
Q 2525 409 2770 889 
Q 3016 1369 3016 2328 
Q 3016 3291 2770 3770 
Q 2525 4250 2034 4250 
z
M 2034 4750 
Q 2819 4750 3233 4129 
Q 3647 3509 3647 2328 
Q 3647 1150 3233 529 
Q 2819 -91 2034 -91 
Q 1250 -91 836 529 
Q 422 1150 422 2328 
Q 422 3509 836 4129 
Q 1250 4750 2034 4750 
z
" id="DejaVuSans-30" transform="scale(0.015625)"/>
       </defs>
       <use xlink:href="#DejaVuSans-30"/>
      </g>
     </g>
    </g>
    <g id="xtick_2">
     <g id="line2d_3">
      <path clip-path="url(#p8e12d0779b)" d="M 150.254582 224.64 
L 150.254582 7.2 
" style="fill:none;stroke:#ffffff;stroke-linecap:square;stroke-width:0.8;"/>
     </g>
     <g id="line2d_4">
      <g>
       <use style="fill:#555555;stroke:#555555;stroke-width:0.8;" x="150.254582" xlink:href="#m3f55d7a7f0" y="224.64"/>
      </g>
     </g>
     <g id="text_2">
      <!-- 20 -->
      <g style="fill:#555555;" transform="translate(143.892082 239.238437)scale(0.1 -0.1)">
       <defs>
        <path d="M 1228 531 
L 3431 531 
L 3431 0 
L 469 0 
L 469 531 
Q 828 903 1448 1529 
Q 2069 2156 2228 2338 
Q 2531 2678 2651 2914 
Q 2772 3150 2772 3378 
Q 2772 3750 2511 3984 
Q 2250 4219 1831 4219 
Q 1534 4219 1204 4116 
Q 875 4013 500 3803 
L 500 4441 
Q 881 4594 1212 4672 
Q 1544 4750 1819 4750 
Q 2544 4750 2975 4387 
Q 3406 4025 3406 3419 
Q 3406 3131 3298 2873 
Q 3191 2616 2906 2266 
Q 2828 2175 2409 1742 
Q 1991 1309 1228 531 
z
" id="DejaVuSans-32" transform="scale(0.015625)"/>
       </defs>
       <use xlink:href="#DejaVuSans-32"/>
       <use x="63.623047" xlink:href="#DejaVuSans-30"/>
      </g>
     </g>
    </g>
    <g id="xtick_3">
     <g id="line2d_5">
      <path clip-path="url(#p8e12d0779b)" d="M 232.238053 224.64 
L 232.238053 7.2 
" style="fill:none;stroke:#ffffff;stroke-linecap:square;stroke-width:0.8;"/>
     </g>
     <g id="line2d_6">
      <g>
       <use style="fill:#555555;stroke:#555555;stroke-width:0.8;" x="232.238053" xlink:href="#m3f55d7a7f0" y="224.64"/>
      </g>
     </g>
     <g id="text_3">
      <!-- 40 -->
      <g style="fill:#555555;" transform="translate(225.875553 239.238437)scale(0.1 -0.1)">
       <defs>
        <path d="M 2419 4116 
L 825 1625 
L 2419 1625 
L 2419 4116 
z
M 2253 4666 
L 3047 4666 
L 3047 1625 
L 3713 1625 
L 3713 1100 
L 3047 1100 
L 3047 0 
L 2419 0 
L 2419 1100 
L 313 1100 
L 313 1709 
L 2253 4666 
z
" id="DejaVuSans-34" transform="scale(0.015625)"/>
       </defs>
       <use xlink:href="#DejaVuSans-34"/>
       <use x="63.623047" xlink:href="#DejaVuSans-30"/>
      </g>
     </g>
    </g>
    <g id="xtick_4">
     <g id="line2d_7">
      <path clip-path="url(#p8e12d0779b)" d="M 314.221524 224.64 
L 314.221524 7.2 
" style="fill:none;stroke:#ffffff;stroke-linecap:square;stroke-width:0.8;"/>
     </g>
     <g id="line2d_8">
      <g>
       <use style="fill:#555555;stroke:#555555;stroke-width:0.8;" x="314.221524" xlink:href="#m3f55d7a7f0" y="224.64"/>
      </g>
     </g>
     <g id="text_4">
      <!-- 60 -->
      <g style="fill:#555555;" transform="translate(307.859024 239.238437)scale(0.1 -0.1)">
       <defs>
        <path d="M 2113 2584 
Q 1688 2584 1439 2293 
Q 1191 2003 1191 1497 
Q 1191 994 1439 701 
Q 1688 409 2113 409 
Q 2538 409 2786 701 
Q 3034 994 3034 1497 
Q 3034 2003 2786 2293 
Q 2538 2584 2113 2584 
z
M 3366 4563 
L 3366 3988 
Q 3128 4100 2886 4159 
Q 2644 4219 2406 4219 
Q 1781 4219 1451 3797 
Q 1122 3375 1075 2522 
Q 1259 2794 1537 2939 
Q 1816 3084 2150 3084 
Q 2853 3084 3261 2657 
Q 3669 2231 3669 1497 
Q 3669 778 3244 343 
Q 2819 -91 2113 -91 
Q 1303 -91 875 529 
Q 447 1150 447 2328 
Q 447 3434 972 4092 
Q 1497 4750 2381 4750 
Q 2619 4750 2861 4703 
Q 3103 4656 3366 4563 
z
" id="DejaVuSans-36" transform="scale(0.015625)"/>
       </defs>
       <use xlink:href="#DejaVuSans-36"/>
       <use x="63.623047" xlink:href="#DejaVuSans-30"/>
      </g>
     </g>
    </g>
    <g id="xtick_5">
     <g id="line2d_9">
      <path clip-path="url(#p8e12d0779b)" d="M 396.204995 224.64 
L 396.204995 7.2 
" style="fill:none;stroke:#ffffff;stroke-linecap:square;stroke-width:0.8;"/>
     </g>
     <g id="line2d_10">
      <g>
       <use style="fill:#555555;stroke:#555555;stroke-width:0.8;" x="396.204995" xlink:href="#m3f55d7a7f0" y="224.64"/>
      </g>
     </g>
     <g id="text_5">
      <!-- 80 -->
      <g style="fill:#555555;" transform="translate(389.842495 239.238437)scale(0.1 -0.1)">
       <defs>
        <path d="M 2034 2216 
Q 1584 2216 1326 1975 
Q 1069 1734 1069 1313 
Q 1069 891 1326 650 
Q 1584 409 2034 409 
Q 2484 409 2743 651 
Q 3003 894 3003 1313 
Q 3003 1734 2745 1975 
Q 2488 2216 2034 2216 
z
M 1403 2484 
Q 997 2584 770 2862 
Q 544 3141 544 3541 
Q 544 4100 942 4425 
Q 1341 4750 2034 4750 
Q 2731 4750 3128 4425 
Q 3525 4100 3525 3541 
Q 3525 3141 3298 2862 
Q 3072 2584 2669 2484 
Q 3125 2378 3379 2068 
Q 3634 1759 3634 1313 
Q 3634 634 3220 271 
Q 2806 -91 2034 -91 
Q 1263 -91 848 271 
Q 434 634 434 1313 
Q 434 1759 690 2068 
Q 947 2378 1403 2484 
z
M 1172 3481 
Q 1172 3119 1398 2916 
Q 1625 2713 2034 2713 
Q 2441 2713 2670 2916 
Q 2900 3119 2900 3481 
Q 2900 3844 2670 4047 
Q 2441 4250 2034 4250 
Q 1625 4250 1398 4047 
Q 1172 3844 1172 3481 
z
" id="DejaVuSans-38" transform="scale(0.015625)"/>
       </defs>
       <use xlink:href="#DejaVuSans-38"/>
       <use x="63.623047" xlink:href="#DejaVuSans-30"/>
      </g>
     </g>
    </g>
    <g id="xtick_6">
     <g id="line2d_11">
      <path clip-path="url(#p8e12d0779b)" d="M 478.188466 224.64 
L 478.188466 7.2 
" style="fill:none;stroke:#ffffff;stroke-linecap:square;stroke-width:0.8;"/>
     </g>
     <g id="line2d_12">
      <g>
       <use style="fill:#555555;stroke:#555555;stroke-width:0.8;" x="478.188466" xlink:href="#m3f55d7a7f0" y="224.64"/>
      </g>
     </g>
     <g id="text_6">
      <!-- 100 -->
      <g style="fill:#555555;" transform="translate(468.644716 239.238437)scale(0.1 -0.1)">
       <defs>
        <path d="M 794 531 
L 1825 531 
L 1825 4091 
L 703 3866 
L 703 4441 
L 1819 4666 
L 2450 4666 
L 2450 531 
L 3481 531 
L 3481 0 
L 794 0 
L 794 531 
z
" id="DejaVuSans-31" transform="scale(0.015625)"/>
       </defs>
       <use xlink:href="#DejaVuSans-31"/>
       <use x="63.623047" xlink:href="#DejaVuSans-30"/>
       <use x="127.246094" xlink:href="#DejaVuSans-30"/>
      </g>
     </g>
    </g>
    <g id="text_7">
     <!-- Epoch number -->
     <g style="fill:#555555;" transform="translate(231.5825 254.43625)scale(0.12 -0.12)">
      <defs>
       <path d="M 628 4666 
L 3578 4666 
L 3578 4134 
L 1259 4134 
L 1259 2753 
L 3481 2753 
L 3481 2222 
L 1259 2222 
L 1259 531 
L 3634 531 
L 3634 0 
L 628 0 
L 628 4666 
z
" id="DejaVuSans-45" transform="scale(0.015625)"/>
       <path d="M 1159 525 
L 1159 -1331 
L 581 -1331 
L 581 3500 
L 1159 3500 
L 1159 2969 
Q 1341 3281 1617 3432 
Q 1894 3584 2278 3584 
Q 2916 3584 3314 3078 
Q 3713 2572 3713 1747 
Q 3713 922 3314 415 
Q 2916 -91 2278 -91 
Q 1894 -91 1617 61 
Q 1341 213 1159 525 
z
M 3116 1747 
Q 3116 2381 2855 2742 
Q 2594 3103 2138 3103 
Q 1681 3103 1420 2742 
Q 1159 2381 1159 1747 
Q 1159 1113 1420 752 
Q 1681 391 2138 391 
Q 2594 391 2855 752 
Q 3116 1113 3116 1747 
z
" id="DejaVuSans-70" transform="scale(0.015625)"/>
       <path d="M 1959 3097 
Q 1497 3097 1228 2736 
Q 959 2375 959 1747 
Q 959 1119 1226 758 
Q 1494 397 1959 397 
Q 2419 397 2687 759 
Q 2956 1122 2956 1747 
Q 2956 2369 2687 2733 
Q 2419 3097 1959 3097 
z
M 1959 3584 
Q 2709 3584 3137 3096 
Q 3566 2609 3566 1747 
Q 3566 888 3137 398 
Q 2709 -91 1959 -91 
Q 1206 -91 779 398 
Q 353 888 353 1747 
Q 353 2609 779 3096 
Q 1206 3584 1959 3584 
z
" id="DejaVuSans-6f" transform="scale(0.015625)"/>
       <path d="M 3122 3366 
L 3122 2828 
Q 2878 2963 2633 3030 
Q 2388 3097 2138 3097 
Q 1578 3097 1268 2742 
Q 959 2388 959 1747 
Q 959 1106 1268 751 
Q 1578 397 2138 397 
Q 2388 397 2633 464 
Q 2878 531 3122 666 
L 3122 134 
Q 2881 22 2623 -34 
Q 2366 -91 2075 -91 
Q 1284 -91 818 406 
Q 353 903 353 1747 
Q 353 2603 823 3093 
Q 1294 3584 2113 3584 
Q 2378 3584 2631 3529 
Q 2884 3475 3122 3366 
z
" id="DejaVuSans-63" transform="scale(0.015625)"/>
       <path d="M 3513 2113 
L 3513 0 
L 2938 0 
L 2938 2094 
Q 2938 2591 2744 2837 
Q 2550 3084 2163 3084 
Q 1697 3084 1428 2787 
Q 1159 2491 1159 1978 
L 1159 0 
L 581 0 
L 581 4863 
L 1159 4863 
L 1159 2956 
Q 1366 3272 1645 3428 
Q 1925 3584 2291 3584 
Q 2894 3584 3203 3211 
Q 3513 2838 3513 2113 
z
" id="DejaVuSans-68" transform="scale(0.015625)"/>
       <path id="DejaVuSans-20" transform="scale(0.015625)"/>
       <path d="M 3513 2113 
L 3513 0 
L 2938 0 
L 2938 2094 
Q 2938 2591 2744 2837 
Q 2550 3084 2163 3084 
Q 1697 3084 1428 2787 
Q 1159 2491 1159 1978 
L 1159 0 
L 581 0 
L 581 3500 
L 1159 3500 
L 1159 2956 
Q 1366 3272 1645 3428 
Q 1925 3584 2291 3584 
Q 2894 3584 3203 3211 
Q 3513 2838 3513 2113 
z
" id="DejaVuSans-6e" transform="scale(0.015625)"/>
       <path d="M 544 1381 
L 544 3500 
L 1119 3500 
L 1119 1403 
Q 1119 906 1312 657 
Q 1506 409 1894 409 
Q 2359 409 2629 706 
Q 2900 1003 2900 1516 
L 2900 3500 
L 3475 3500 
L 3475 0 
L 2900 0 
L 2900 538 
Q 2691 219 2414 64 
Q 2138 -91 1772 -91 
Q 1169 -91 856 284 
Q 544 659 544 1381 
z
M 1991 3584 
L 1991 3584 
z
" id="DejaVuSans-75" transform="scale(0.015625)"/>
       <path d="M 3328 2828 
Q 3544 3216 3844 3400 
Q 4144 3584 4550 3584 
Q 5097 3584 5394 3201 
Q 5691 2819 5691 2113 
L 5691 0 
L 5113 0 
L 5113 2094 
Q 5113 2597 4934 2840 
Q 4756 3084 4391 3084 
Q 3944 3084 3684 2787 
Q 3425 2491 3425 1978 
L 3425 0 
L 2847 0 
L 2847 2094 
Q 2847 2600 2669 2842 
Q 2491 3084 2119 3084 
Q 1678 3084 1418 2786 
Q 1159 2488 1159 1978 
L 1159 0 
L 581 0 
L 581 3500 
L 1159 3500 
L 1159 2956 
Q 1356 3278 1631 3431 
Q 1906 3584 2284 3584 
Q 2666 3584 2933 3390 
Q 3200 3197 3328 2828 
z
" id="DejaVuSans-6d" transform="scale(0.015625)"/>
       <path d="M 3116 1747 
Q 3116 2381 2855 2742 
Q 2594 3103 2138 3103 
Q 1681 3103 1420 2742 
Q 1159 2381 1159 1747 
Q 1159 1113 1420 752 
Q 1681 391 2138 391 
Q 2594 391 2855 752 
Q 3116 1113 3116 1747 
z
M 1159 2969 
Q 1341 3281 1617 3432 
Q 1894 3584 2278 3584 
Q 2916 3584 3314 3078 
Q 3713 2572 3713 1747 
Q 3713 922 3314 415 
Q 2916 -91 2278 -91 
Q 1894 -91 1617 61 
Q 1341 213 1159 525 
L 1159 0 
L 581 0 
L 581 4863 
L 1159 4863 
L 1159 2969 
z
" id="DejaVuSans-62" transform="scale(0.015625)"/>
       <path d="M 3597 1894 
L 3597 1613 
L 953 1613 
Q 991 1019 1311 708 
Q 1631 397 2203 397 
Q 2534 397 2845 478 
Q 3156 559 3463 722 
L 3463 178 
Q 3153 47 2828 -22 
Q 2503 -91 2169 -91 
Q 1331 -91 842 396 
Q 353 884 353 1716 
Q 353 2575 817 3079 
Q 1281 3584 2069 3584 
Q 2775 3584 3186 3129 
Q 3597 2675 3597 1894 
z
M 3022 2063 
Q 3016 2534 2758 2815 
Q 2500 3097 2075 3097 
Q 1594 3097 1305 2825 
Q 1016 2553 972 2059 
L 3022 2063 
z
" id="DejaVuSans-65" transform="scale(0.015625)"/>
       <path d="M 2631 2963 
Q 2534 3019 2420 3045 
Q 2306 3072 2169 3072 
Q 1681 3072 1420 2755 
Q 1159 2438 1159 1844 
L 1159 0 
L 581 0 
L 581 3500 
L 1159 3500 
L 1159 2956 
Q 1341 3275 1631 3429 
Q 1922 3584 2338 3584 
Q 2397 3584 2469 3576 
Q 2541 3569 2628 3553 
L 2631 2963 
z
" id="DejaVuSans-72" transform="scale(0.015625)"/>
      </defs>
      <use xlink:href="#DejaVuSans-45"/>
      <use x="63.183594" xlink:href="#DejaVuSans-70"/>
      <use x="126.660156" xlink:href="#DejaVuSans-6f"/>
      <use x="187.841797" xlink:href="#DejaVuSans-63"/>
      <use x="242.822266" xlink:href="#DejaVuSans-68"/>
      <use x="306.201172" xlink:href="#DejaVuSans-20"/>
      <use x="337.988281" xlink:href="#DejaVuSans-6e"/>
      <use x="401.367188" xlink:href="#DejaVuSans-75"/>
      <use x="464.746094" xlink:href="#DejaVuSans-6d"/>
      <use x="562.158203" xlink:href="#DejaVuSans-62"/>
      <use x="625.634766" xlink:href="#DejaVuSans-65"/>
      <use x="687.158203" xlink:href="#DejaVuSans-72"/>
     </g>
    </g>
   </g>
   <g id="matplotlib.axis_2">
    <g id="ytick_1">
     <g id="line2d_13">
      <path clip-path="url(#p8e12d0779b)" d="M 52.079375 221.413623 
L 498.479375 221.413623 
" style="fill:none;stroke:#ffffff;stroke-linecap:square;stroke-width:0.8;"/>
     </g>
     <g id="line2d_14">
      <defs>
       <path d="M 0 0 
L -3.5 0 
" id="md890ef9be6" style="stroke:#555555;stroke-width:0.8;"/>
      </defs>
      <g>
       <use style="fill:#555555;stroke:#555555;stroke-width:0.8;" x="52.079375" xlink:href="#md890ef9be6" y="221.413623"/>
      </g>
     </g>
     <g id="text_8">
      <!-- 0.65 -->
      <g style="fill:#555555;" transform="translate(22.81375 225.212842)scale(0.1 -0.1)">
       <defs>
        <path d="M 684 794 
L 1344 794 
L 1344 0 
L 684 0 
L 684 794 
z
" id="DejaVuSans-2e" transform="scale(0.015625)"/>
        <path d="M 691 4666 
L 3169 4666 
L 3169 4134 
L 1269 4134 
L 1269 2991 
Q 1406 3038 1543 3061 
Q 1681 3084 1819 3084 
Q 2600 3084 3056 2656 
Q 3513 2228 3513 1497 
Q 3513 744 3044 326 
Q 2575 -91 1722 -91 
Q 1428 -91 1123 -41 
Q 819 9 494 109 
L 494 744 
Q 775 591 1075 516 
Q 1375 441 1709 441 
Q 2250 441 2565 725 
Q 2881 1009 2881 1497 
Q 2881 1984 2565 2268 
Q 2250 2553 1709 2553 
Q 1456 2553 1204 2497 
Q 953 2441 691 2322 
L 691 4666 
z
" id="DejaVuSans-35" transform="scale(0.015625)"/>
       </defs>
       <use xlink:href="#DejaVuSans-30"/>
       <use x="63.623047" xlink:href="#DejaVuSans-2e"/>
       <use x="95.410156" xlink:href="#DejaVuSans-36"/>
       <use x="159.033203" xlink:href="#DejaVuSans-35"/>
      </g>
     </g>
    </g>
    <g id="ytick_2">
     <g id="line2d_15">
      <path clip-path="url(#p8e12d0779b)" d="M 52.079375 186.584252 
L 498.479375 186.584252 
" style="fill:none;stroke:#ffffff;stroke-linecap:square;stroke-width:0.8;"/>
     </g>
     <g id="line2d_16">
      <g>
       <use style="fill:#555555;stroke:#555555;stroke-width:0.8;" x="52.079375" xlink:href="#md890ef9be6" y="186.584252"/>
      </g>
     </g>
     <g id="text_9">
      <!-- 0.70 -->
      <g style="fill:#555555;" transform="translate(22.81375 190.383471)scale(0.1 -0.1)">
       <defs>
        <path d="M 525 4666 
L 3525 4666 
L 3525 4397 
L 1831 0 
L 1172 0 
L 2766 4134 
L 525 4134 
L 525 4666 
z
" id="DejaVuSans-37" transform="scale(0.015625)"/>
       </defs>
       <use xlink:href="#DejaVuSans-30"/>
       <use x="63.623047" xlink:href="#DejaVuSans-2e"/>
       <use x="95.410156" xlink:href="#DejaVuSans-37"/>
       <use x="159.033203" xlink:href="#DejaVuSans-30"/>
      </g>
     </g>
    </g>
    <g id="ytick_3">
     <g id="line2d_17">
      <path clip-path="url(#p8e12d0779b)" d="M 52.079375 151.754882 
L 498.479375 151.754882 
" style="fill:none;stroke:#ffffff;stroke-linecap:square;stroke-width:0.8;"/>
     </g>
     <g id="line2d_18">
      <g>
       <use style="fill:#555555;stroke:#555555;stroke-width:0.8;" x="52.079375" xlink:href="#md890ef9be6" y="151.754882"/>
      </g>
     </g>
     <g id="text_10">
      <!-- 0.75 -->
      <g style="fill:#555555;" transform="translate(22.81375 155.5541)scale(0.1 -0.1)">
       <use xlink:href="#DejaVuSans-30"/>
       <use x="63.623047" xlink:href="#DejaVuSans-2e"/>
       <use x="95.410156" xlink:href="#DejaVuSans-37"/>
       <use x="159.033203" xlink:href="#DejaVuSans-35"/>
      </g>
     </g>
    </g>
    <g id="ytick_4">
     <g id="line2d_19">
      <path clip-path="url(#p8e12d0779b)" d="M 52.079375 116.925511 
L 498.479375 116.925511 
" style="fill:none;stroke:#ffffff;stroke-linecap:square;stroke-width:0.8;"/>
     </g>
     <g id="line2d_20">
      <g>
       <use style="fill:#555555;stroke:#555555;stroke-width:0.8;" x="52.079375" xlink:href="#md890ef9be6" y="116.925511"/>
      </g>
     </g>
     <g id="text_11">
      <!-- 0.80 -->
      <g style="fill:#555555;" transform="translate(22.81375 120.724729)scale(0.1 -0.1)">
       <use xlink:href="#DejaVuSans-30"/>
       <use x="63.623047" xlink:href="#DejaVuSans-2e"/>
       <use x="95.410156" xlink:href="#DejaVuSans-38"/>
       <use x="159.033203" xlink:href="#DejaVuSans-30"/>
      </g>
     </g>
    </g>
    <g id="ytick_5">
     <g id="line2d_21">
      <path clip-path="url(#p8e12d0779b)" d="M 52.079375 82.09614 
L 498.479375 82.09614 
" style="fill:none;stroke:#ffffff;stroke-linecap:square;stroke-width:0.8;"/>
     </g>
     <g id="line2d_22">
      <g>
       <use style="fill:#555555;stroke:#555555;stroke-width:0.8;" x="52.079375" xlink:href="#md890ef9be6" y="82.09614"/>
      </g>
     </g>
     <g id="text_12">
      <!-- 0.85 -->
      <g style="fill:#555555;" transform="translate(22.81375 85.895359)scale(0.1 -0.1)">
       <use xlink:href="#DejaVuSans-30"/>
       <use x="63.623047" xlink:href="#DejaVuSans-2e"/>
       <use x="95.410156" xlink:href="#DejaVuSans-38"/>
       <use x="159.033203" xlink:href="#DejaVuSans-35"/>
      </g>
     </g>
    </g>
    <g id="ytick_6">
     <g id="line2d_23">
      <path clip-path="url(#p8e12d0779b)" d="M 52.079375 47.266769 
L 498.479375 47.266769 
" style="fill:none;stroke:#ffffff;stroke-linecap:square;stroke-width:0.8;"/>
     </g>
     <g id="line2d_24">
      <g>
       <use style="fill:#555555;stroke:#555555;stroke-width:0.8;" x="52.079375" xlink:href="#md890ef9be6" y="47.266769"/>
      </g>
     </g>
     <g id="text_13">
      <!-- 0.90 -->
      <g style="fill:#555555;" transform="translate(22.81375 51.065988)scale(0.1 -0.1)">
       <defs>
        <path d="M 703 97 
L 703 672 
Q 941 559 1184 500 
Q 1428 441 1663 441 
Q 2288 441 2617 861 
Q 2947 1281 2994 2138 
Q 2813 1869 2534 1725 
Q 2256 1581 1919 1581 
Q 1219 1581 811 2004 
Q 403 2428 403 3163 
Q 403 3881 828 4315 
Q 1253 4750 1959 4750 
Q 2769 4750 3195 4129 
Q 3622 3509 3622 2328 
Q 3622 1225 3098 567 
Q 2575 -91 1691 -91 
Q 1453 -91 1209 -44 
Q 966 3 703 97 
z
M 1959 2075 
Q 2384 2075 2632 2365 
Q 2881 2656 2881 3163 
Q 2881 3666 2632 3958 
Q 2384 4250 1959 4250 
Q 1534 4250 1286 3958 
Q 1038 3666 1038 3163 
Q 1038 2656 1286 2365 
Q 1534 2075 1959 2075 
z
" id="DejaVuSans-39" transform="scale(0.015625)"/>
       </defs>
       <use xlink:href="#DejaVuSans-30"/>
       <use x="63.623047" xlink:href="#DejaVuSans-2e"/>
       <use x="95.410156" xlink:href="#DejaVuSans-39"/>
       <use x="159.033203" xlink:href="#DejaVuSans-30"/>
      </g>
     </g>
    </g>
    <g id="ytick_7">
     <g id="line2d_25">
      <path clip-path="url(#p8e12d0779b)" d="M 52.079375 12.437398 
L 498.479375 12.437398 
" style="fill:none;stroke:#ffffff;stroke-linecap:square;stroke-width:0.8;"/>
     </g>
     <g id="line2d_26">
      <g>
       <use style="fill:#555555;stroke:#555555;stroke-width:0.8;" x="52.079375" xlink:href="#md890ef9be6" y="12.437398"/>
      </g>
     </g>
     <g id="text_14">
      <!-- 0.95 -->
      <g style="fill:#555555;" transform="translate(22.81375 16.236617)scale(0.1 -0.1)">
       <use xlink:href="#DejaVuSans-30"/>
       <use x="63.623047" xlink:href="#DejaVuSans-2e"/>
       <use x="95.410156" xlink:href="#DejaVuSans-39"/>
       <use x="159.033203" xlink:href="#DejaVuSans-35"/>
      </g>
     </g>
    </g>
    <g id="text_15">
     <!-- Accuracy -->
     <g style="fill:#555555;" transform="translate(16.318125 143.31375)rotate(-90)scale(0.12 -0.12)">
      <defs>
       <path d="M 2188 4044 
L 1331 1722 
L 3047 1722 
L 2188 4044 
z
M 1831 4666 
L 2547 4666 
L 4325 0 
L 3669 0 
L 3244 1197 
L 1141 1197 
L 716 0 
L 50 0 
L 1831 4666 
z
" id="DejaVuSans-41" transform="scale(0.015625)"/>
       <path d="M 2194 1759 
Q 1497 1759 1228 1600 
Q 959 1441 959 1056 
Q 959 750 1161 570 
Q 1363 391 1709 391 
Q 2188 391 2477 730 
Q 2766 1069 2766 1631 
L 2766 1759 
L 2194 1759 
z
M 3341 1997 
L 3341 0 
L 2766 0 
L 2766 531 
Q 2569 213 2275 61 
Q 1981 -91 1556 -91 
Q 1019 -91 701 211 
Q 384 513 384 1019 
Q 384 1609 779 1909 
Q 1175 2209 1959 2209 
L 2766 2209 
L 2766 2266 
Q 2766 2663 2505 2880 
Q 2244 3097 1772 3097 
Q 1472 3097 1187 3025 
Q 903 2953 641 2809 
L 641 3341 
Q 956 3463 1253 3523 
Q 1550 3584 1831 3584 
Q 2591 3584 2966 3190 
Q 3341 2797 3341 1997 
z
" id="DejaVuSans-61" transform="scale(0.015625)"/>
       <path d="M 2059 -325 
Q 1816 -950 1584 -1140 
Q 1353 -1331 966 -1331 
L 506 -1331 
L 506 -850 
L 844 -850 
Q 1081 -850 1212 -737 
Q 1344 -625 1503 -206 
L 1606 56 
L 191 3500 
L 800 3500 
L 1894 763 
L 2988 3500 
L 3597 3500 
L 2059 -325 
z
" id="DejaVuSans-79" transform="scale(0.015625)"/>
      </defs>
      <use xlink:href="#DejaVuSans-41"/>
      <use x="66.658203" xlink:href="#DejaVuSans-63"/>
      <use x="121.638672" xlink:href="#DejaVuSans-63"/>
      <use x="176.619141" xlink:href="#DejaVuSans-75"/>
      <use x="239.998047" xlink:href="#DejaVuSans-72"/>
      <use x="281.111328" xlink:href="#DejaVuSans-61"/>
      <use x="342.390625" xlink:href="#DejaVuSans-63"/>
      <use x="397.371094" xlink:href="#DejaVuSans-79"/>
     </g>
    </g>
   </g>
   <g id="line2d_27">
    <path clip-path="url(#p8e12d0779b)" d="M 72.370284 212.093283 
L 76.469458 188.604356 
L 80.568631 174.623846 
L 84.667805 169.204396 
L 88.766978 159.577558 
L 92.866152 157.745533 
L 96.965325 152.590786 
L 101.064499 147.986344 
L 105.163673 146.091626 
L 109.262846 142.211634 
L 113.36202 140.302984 
L 117.461193 141.675262 
L 121.560367 136.116494 
L 125.65954 136.548378 
L 129.758714 136.583208 
L 133.857887 133.01668 
L 137.957061 132.34099 
L 142.056235 129.979559 
L 146.155408 127.109619 
L 150.254582 130.752771 
L 154.353755 125.347253 
L 158.452929 128.927712 
L 162.552102 126.050806 
L 166.651276 123.926214 
L 170.750449 121.690169 
L 174.849623 121.035376 
L 178.948796 121.878247 
L 183.04797 119.27301 
L 187.147144 122.14295 
L 191.246317 119.704894 
L 195.345491 119.342669 
L 199.444664 122.303166 
L 203.543838 118.200266 
L 207.643011 120.199472 
L 211.742185 117.95646 
L 215.841358 117.803211 
L 219.940532 116.716534 
L 224.039706 116.256787 
L 228.138879 116.925511 
L 232.238053 116.779227 
L 236.337226 116.584183 
L 240.4364 116.793159 
L 244.535573 115.330326 
L 248.634747 115.274599 
L 252.73392 113.547062 
L 256.833094 113.811765 
L 260.932268 113.484369 
L 265.031441 114.306342 
L 269.130615 114.006809 
L 273.229788 110.454214 
L 277.328962 111.54089 
L 281.428135 115.309428 
L 285.527309 112.578805 
L 289.626482 114.111298 
L 293.725656 111.478197 
L 297.82483 110.502975 
L 301.924003 109.583479 
L 306.023177 111.241357 
L 310.12235 111.666276 
L 314.221524 110.377589 
L 318.320697 113.310222 
L 322.419871 108.956551 
L 326.519044 109.792456 
L 330.618218 110.886098 
L 334.717392 109.9875 
L 338.816565 109.541684 
L 342.915739 110.133783 
L 347.014912 108.336588 
L 351.114086 107.006106 
L 355.213259 109.771558 
L 359.312433 109.590445 
L 363.411606 106.992174 
L 367.51078 106.985208 
L 371.609954 107.744489 
L 375.709127 109.75066 
L 379.808301 109.687967 
L 383.907474 108.998346 
L 388.006648 107.723591 
L 392.105821 107.960431 
L 396.204995 108.448042 
L 400.304168 108.225134 
L 404.403342 106.469734 
L 408.502515 106.379177 
L 412.601689 107.152389 
L 416.700863 106.086611 
L 420.800036 106.818027 
L 424.89921 107.075765 
L 428.998383 105.835839 
L 433.097557 108.057953 
L 437.19673 106.170201 
L 441.295904 104.867583 
L 445.395077 107.054867 
L 449.494251 106.476699 
L 453.593425 107.99526 
L 457.692598 105.160149 
L 461.791772 106.964311 
L 465.890945 106.142338 
L 469.990119 105.640795 
L 474.089292 106.929481 
L 478.188466 105.668658 
" style="fill:none;stroke:#ff0000;stroke-linecap:square;stroke-width:1.5;"/>
   </g>
   <g id="line2d_28">
    <path clip-path="url(#p8e12d0779b)" d="M 72.370284 193.201833 
L 76.469458 158.776483 
L 80.568631 141.528978 
L 84.667805 132.703216 
L 88.766978 123.048514 
L 92.866152 118.416208 
L 96.965325 113.992878 
L 101.064499 106.957345 
L 105.163673 104.484459 
L 109.262846 101.440372 
L 113.36202 99.475996 
L 117.461193 96.383148 
L 121.560367 93.297266 
L 125.65954 97.783289 
L 129.758714 93.150982 
L 133.857887 90.204417 
L 137.957061 91.228401 
L 142.056235 86.95832 
L 146.155408 89.62625 
L 150.254582 86.965286 
L 154.353755 84.72924 
L 158.452929 83.579871 
L 162.552102 82.326014 
L 166.651276 81.824471 
L 170.750449 82.235457 
L 174.849623 80.654204 
L 178.948796 80.856214 
L 183.04797 79.741674 
L 187.147144 77.944479 
L 191.246317 77.547424 
L 195.345491 75.924375 
L 199.444664 77.108574 
L 203.543838 76.223908 
L 207.643011 74.663552 
L 211.742185 75.401935 
L 215.841358 74.76804 
L 219.940532 75.729331 
L 224.039706 71.006468 
L 228.138879 74.2456 
L 232.238053 77.157335 
L 236.337226 71.786646 
L 240.4364 71.912032 
L 244.535573 70.825356 
L 248.634747 70.888048 
L 252.73392 70.059109 
L 256.833094 69.968553 
L 260.932268 69.508805 
L 265.031441 69.871031 
L 269.130615 70.546721 
L 273.229788 68.47089 
L 277.328962 68.199221 
L 281.428135 68.26888 
L 285.527309 68.930638 
L 289.626482 67.836995 
L 293.725656 67.850927 
L 297.82483 67.335453 
L 301.924003 66.778183 
L 306.023177 65.844755 
L 310.12235 67.962381 
L 314.221524 64.152048 
L 318.320697 67.481736 
L 322.419871 64.542137 
L 326.519044 66.562241 
L 330.618218 63.650505 
L 334.717392 67.488702 
L 338.816565 66.074629 
L 342.915739 66.318435 
L 347.014912 63.754993 
L 351.114086 64.980987 
L 355.213259 66.004971 
L 359.312433 63.915208 
L 363.411606 63.636573 
L 367.51078 66.79908 
L 371.609954 63.685334 
L 375.709127 62.786737 
L 379.808301 61.303006 
L 383.907474 64.298331 
L 388.006648 62.995713 
L 392.105821 62.041388 
L 396.204995 60.613384 
L 400.304168 62.988747 
L 404.403342 62.062286 
L 408.502515 61.226381 
L 412.601689 59.82624 
L 416.700863 60.453169 
L 420.800036 61.713992 
L 424.89921 60.174534 
L 428.998383 62.382716 
L 433.097557 61.031336 
L 437.19673 62.229467 
L 441.295904 60.139705 
L 445.395077 61.212449 
L 449.494251 61.344801 
L 453.593425 59.854104 
L 457.692598 58.816188 
L 461.791772 59.498844 
L 465.890945 57.046856 
L 469.990119 60.522828 
L 474.089292 58.572383 
L 478.188466 59.812308 
" style="fill:none;stroke:#0000ff;stroke-linecap:square;stroke-width:1.5;"/>
   </g>
   <g id="line2d_29">
    <path clip-path="url(#p8e12d0779b)" d="M 72.370284 164.244694 
L 76.469458 124.37203 
L 80.568631 108.364451 
L 84.667805 99.1486 
L 88.766978 92.37777 
L 92.866152 87.759396 
L 96.965325 83.120123 
L 101.064499 78.75252 
L 105.163673 76.286601 
L 109.262846 70.727833 
L 113.36202 72.796698 
L 117.461193 69.007262 
L 121.560367 66.290571 
L 125.65954 66.959295 
L 129.758714 64.932226 
L 133.857887 63.817686 
L 137.957061 60.73877 
L 142.056235 59.255039 
L 146.155408 55.549193 
L 150.254582 54.685425 
L 154.353755 53.974906 
L 158.452929 55.16607 
L 162.552102 56.308474 
L 166.651276 53.96794 
L 170.750449 51.098 
L 174.849623 53.919179 
L 178.948796 49.467985 
L 183.04797 47.036895 
L 187.147144 47.169247 
L 191.246317 48.179299 
L 195.345491 46.214922 
L 199.444664 47.63596 
L 203.543838 45.232734 
L 207.643011 45.56013 
L 211.742185 45.594959 
L 215.841358 42.181681 
L 219.940532 41.735865 
L 224.039706 42.25134 
L 228.138879 42.112022 
L 232.238053 42.759849 
L 236.337226 41.290049 
L 240.4364 41.519923 
L 244.535573 39.485888 
L 248.634747 39.3814 
L 252.73392 37.821044 
L 256.833094 39.910806 
L 260.932268 35.515339 
L 265.031441 38.218099 
L 269.130615 35.376022 
L 273.229788 33.662417 
L 277.328962 34.825718 
L 281.428135 33.968915 
L 285.527309 33.564895 
L 289.626482 33.014591 
L 293.725656 32.722024 
L 297.82483 33.335021 
L 301.924003 34.191823 
L 306.023177 32.199583 
L 310.12235 32.903137 
L 314.221524 31.25919 
L 318.320697 31.649279 
L 322.419871 31.969709 
L 326.519044 31.677143 
L 330.618218 28.201172 
L 334.717392 34.811786 
L 338.816565 28.30566 
L 342.915739 29.782425 
L 347.014912 28.556431 
L 351.114086 29.733664 
L 355.213259 27.177188 
L 359.312433 29.448063 
L 363.411606 28.291728 
L 367.51078 25.324265 
L 371.609954 27.650867 
L 375.709127 24.432634 
L 379.808301 25.177982 
L 383.907474 26.51543 
L 388.006648 25.386958 
L 392.105821 23.951988 
L 396.204995 26.668679 
L 400.304168 23.297196 
L 404.403342 30.896965 
L 408.502515 25.888501 
L 412.601689 25.491446 
L 416.700863 27.379198 
L 420.800036 23.060356 
L 424.89921 23.283264 
L 428.998383 22.600609 
L 433.097557 24.014681 
L 437.19673 21.862226 
L 441.295904 22.405564 
L 445.395077 19.375409 
L 449.494251 20.427256 
L 453.593425 21.075082 
L 457.692598 23.053391 
L 461.791772 21.827397 
L 465.890945 21.89009 
L 469.990119 22.489155 
L 474.089292 21.65325 
L 478.188466 17.083636 
" style="fill:none;stroke:#800080;stroke-linecap:square;stroke-width:1.5;"/>
   </g>
   <g id="line2d_30">
    <path clip-path="url(#p8e12d0779b)" d="M 72.370284 214.756364 
L 76.469458 190.111277 
L 80.568631 179.662466 
L 84.667805 173.225646 
L 88.766978 167.273791 
L 92.866152 165.201664 
L 96.965325 157.662648 
L 101.064499 155.149643 
L 105.163673 152.328023 
L 109.262846 151.887145 
L 113.36202 148.75691 
L 117.461193 150.16772 
L 121.560367 146.684783 
L 125.65954 146.905222 
L 129.758714 147.125661 
L 133.857887 146.243905 
L 137.957061 142.937319 
L 142.056235 143.290022 
L 146.155408 139.586646 
L 150.254582 142.452353 
L 154.353755 138.881241 
L 158.452929 140.203875 
L 162.552102 138.308099 
L 166.651276 137.514519 
L 170.750449 133.987494 
L 174.849623 133.678879 
L 178.948796 135.927357 
L 183.04797 135.442391 
L 187.147144 137.779045 
L 191.246317 137.07364 
L 195.345491 135.442391 
L 199.444664 140.424314 
L 203.543838 134.516547 
L 207.643011 136.368235 
L 211.742185 136.412323 
L 215.841358 133.149825 
L 219.940532 134.648811 
L 224.039706 133.06165 
L 228.138879 133.282089 
L 232.238053 134.25202 
L 236.337226 133.987494 
L 240.4364 134.47246 
L 244.535573 132.356245 
L 248.634747 132.223981 
L 252.73392 131.915366 
L 256.833094 131.959454 
L 260.932268 132.003542 
L 265.031441 131.827191 
L 269.130615 132.664859 
L 273.229788 129.22601 
L 277.328962 130.416381 
L 281.428135 134.384284 
L 285.527309 132.576684 
L 289.626482 133.722967 
L 293.725656 129.799152 
L 297.82483 132.664859 
L 301.924003 129.975503 
L 306.023177 131.959454 
L 310.12235 132.753035 
L 314.221524 130.504557 
L 318.320697 136.059621 
L 322.419871 131.209962 
L 326.519044 130.945435 
L 330.618218 132.003542 
L 334.717392 131.65084 
L 338.816565 131.827191 
L 342.915739 132.664859 
L 347.014912 128.82922 
L 351.114086 129.534625 
L 355.213259 131.783103 
L 359.312433 130.857259 
L 363.411606 128.123815 
L 367.51078 130.372293 
L 371.609954 128.388342 
L 375.709127 131.518576 
L 379.808301 132.576684 
L 383.907474 129.666888 
L 388.006648 129.843239 
L 392.105821 129.490537 
L 396.204995 130.63682 
L 400.304168 131.209962 
L 404.403342 129.137834 
L 408.502515 128.388342 
L 412.601689 129.710976 
L 416.700863 127.550673 
L 420.800036 130.548644 
L 424.89921 130.416381 
L 428.998383 127.682937 
L 433.097557 132.312157 
L 437.19673 128.785132 
L 441.295904 127.947463 
L 445.395077 130.813171 
L 449.494251 130.019591 
L 453.593425 133.370264 
L 457.692598 127.330234 
L 461.791772 130.107766 
L 465.890945 131.03361 
L 469.990119 129.887327 
L 474.089292 128.388342 
L 478.188466 131.298137 
" style="fill:none;stroke:#808080;stroke-dasharray:5.55,2.4;stroke-dashoffset:0;stroke-width:1.5;"/>
   </g>
   <g id="line2d_31">
    <path clip-path="url(#p8e12d0779b)" d="M 72.370284 195.88678 
L 76.469458 162.909098 
L 80.568631 148.889174 
L 84.667805 140.336138 
L 88.766978 132.179893 
L 92.866152 129.490537 
L 96.965325 125.214019 
L 101.064499 121.819258 
L 105.163673 118.204057 
L 109.262846 114.456593 
L 113.36202 115.955579 
L 117.461193 113.222135 
L 121.560367 113.883452 
L 125.65954 114.147979 
L 129.758714 110.532778 
L 133.857887 107.711158 
L 137.957061 110.180076 
L 142.056235 107.138017 
L 146.155408 111.10592 
L 150.254582 107.931597 
L 154.353755 105.815382 
L 158.452929 105.991734 
L 162.552102 106.829402 
L 166.651276 104.713187 
L 170.750449 105.550855 
L 174.849623 107.093929 
L 178.948796 108.372475 
L 183.04797 103.699167 
L 187.147144 104.669099 
L 191.246317 102.905587 
L 195.345491 104.492748 
L 199.444664 106.344436 
L 203.543838 106.961665 
L 207.643011 102.949675 
L 211.742185 105.242241 
L 215.841358 104.977714 
L 219.940532 105.771294 
L 224.039706 103.258289 
L 228.138879 107.534807 
L 232.238053 107.843422 
L 236.337226 105.154065 
L 240.4364 105.06589 
L 244.535573 103.831431 
L 248.634747 106.564875 
L 252.73392 106.520787 
L 256.833094 107.314368 
L 260.932268 104.713187 
L 265.031441 106.741226 
L 269.130615 105.198153 
L 273.229788 105.46268 
L 277.328962 103.743255 
L 281.428135 106.961665 
L 285.527309 105.85947 
L 289.626482 106.344436 
L 293.725656 105.418592 
L 297.82483 106.212173 
L 301.924003 105.506768 
L 306.023177 105.06589 
L 310.12235 108.725178 
L 314.221524 104.316397 
L 318.320697 108.107948 
L 322.419871 104.889538 
L 326.519044 106.829402 
L 330.618218 104.757275 
L 334.717392 109.562846 
L 338.816565 108.372475 
L 342.915739 108.945617 
L 347.014912 106.25626 
L 351.114086 107.27028 
L 355.213259 108.769266 
L 359.312433 106.300348 
L 363.411606 105.330416 
L 367.51078 110.0919 
L 371.609954 107.182104 
L 375.709127 108.813353 
L 379.808301 106.653051 
L 383.907474 108.592914 
L 388.006648 109.254232 
L 392.105821 108.901529 
L 396.204995 105.639031 
L 400.304168 108.372475 
L 404.403342 108.460651 
L 408.502515 109.386495 
L 412.601689 108.945617 
L 416.700863 108.725178 
L 420.800036 110.665042 
L 424.89921 108.107948 
L 428.998383 110.180076 
L 433.097557 109.69511 
L 437.19673 110.180076 
L 441.295904 109.827373 
L 445.395077 108.68109 
L 449.494251 110.797305 
L 453.593425 108.813353 
L 457.692598 108.769266 
L 461.791772 112.693081 
L 465.890945 108.372475 
L 469.990119 110.973656 
L 474.089292 110.841393 
L 478.188466 110.576866 
" style="fill:none;stroke:#ffff00;stroke-dasharray:5.55,2.4;stroke-dashoffset:0;stroke-width:1.5;"/>
   </g>
   <g id="line2d_32">
    <path clip-path="url(#p8e12d0779b)" d="M 72.370284 169.91906 
L 76.469458 132.44442 
L 80.568631 116.793247 
L 84.667805 111.017744 
L 88.766978 108.196124 
L 92.866152 104.492748 
L 96.965325 100.921635 
L 101.064499 99.378562 
L 105.163673 97.130084 
L 109.262846 93.691234 
L 113.36202 98.320454 
L 117.461193 95.410659 
L 121.560367 94.925693 
L 125.65954 98.893596 
L 129.758714 98.055928 
L 133.857887 95.013869 
L 137.957061 94.57299 
L 142.056235 93.647146 
L 146.155408 93.470795 
L 150.254582 94.132112 
L 154.353755 92.677215 
L 158.452929 95.939713 
L 162.552102 97.879576 
L 166.651276 97.791401 
L 170.750449 96.953732 
L 174.849623 100.745284 
L 178.948796 97.923664 
L 183.04797 95.542922 
L 187.147144 97.923664 
L 191.246317 95.939713 
L 195.345491 96.60103 
L 199.444664 101.186162 
L 203.543838 98.100015 
L 207.643011 98.981772 
L 211.742185 101.318426 
L 215.841358 96.689205 
L 219.940532 97.350523 
L 224.039706 99.907616 
L 228.138879 99.466737 
L 232.238053 100.568933 
L 236.337226 100.128055 
L 240.4364 100.789372 
L 244.535573 98.893596 
L 248.634747 100.701196 
L 252.73392 98.629069 
L 256.833094 102.817411 
L 260.932268 100.745284 
L 265.031441 103.478728 
L 269.130615 100.745284 
L 273.229788 99.81944 
L 277.328962 101.935655 
L 281.428135 102.993762 
L 285.527309 102.993762 
L 289.626482 102.420621 
L 293.725656 103.302377 
L 297.82483 104.757275 
L 301.924003 104.801363 
L 306.023177 104.140045 
L 310.12235 103.919606 
L 314.221524 103.699167 
L 318.320697 105.418592 
L 322.419871 105.594943 
L 326.519044 104.625011 
L 330.618218 103.919606 
L 334.717392 110.135988 
L 338.816565 104.625011 
L 342.915739 107.66707 
L 347.014912 104.05187 
L 351.114086 105.903558 
L 355.213259 104.933626 
L 359.312433 107.446631 
L 363.411606 106.300348 
L 367.51078 106.697139 
L 371.609954 108.196124 
L 375.709127 106.388524 
L 379.808301 106.785314 
L 383.907474 108.2843 
L 388.006648 107.843422 
L 392.105821 108.592914 
L 396.204995 110.312339 
L 400.304168 108.196124 
L 404.403342 113.839364 
L 408.502515 110.973656 
L 412.601689 109.518758 
L 416.700863 109.606934 
L 420.800036 107.799334 
L 424.89921 110.665042 
L 428.998383 111.370447 
L 433.097557 109.783285 
L 437.19673 109.474671 
L 441.295904 110.753217 
L 445.395077 110.885481 
L 449.494251 109.121968 
L 453.593425 110.268251 
L 457.692598 111.282271 
L 461.791772 109.739197 
L 465.890945 113.266222 
L 469.990119 113.178047 
L 474.089292 112.296291 
L 478.188466 110.48869 
" style="fill:none;stroke:#008000;stroke-dasharray:5.55,2.4;stroke-dashoffset:0;stroke-width:1.5;"/>
   </g>
   <g id="patch_3">
    <path d="M 52.079375 224.64 
L 52.079375 7.2 
" style="fill:none;stroke:#ffffff;stroke-linecap:square;stroke-linejoin:miter;"/>
   </g>
   <g id="patch_4">
    <path d="M 498.479375 224.64 
L 498.479375 7.2 
" style="fill:none;stroke:#ffffff;stroke-linecap:square;stroke-linejoin:miter;"/>
   </g>
   <g id="patch_5">
    <path d="M 52.079375 224.64 
L 498.479375 224.64 
" style="fill:none;stroke:#ffffff;stroke-linecap:square;stroke-linejoin:miter;"/>
   </g>
   <g id="patch_6">
    <path d="M 52.079375 7.2 
L 498.479375 7.2 
" style="fill:none;stroke:#ffffff;stroke-linecap:square;stroke-linejoin:miter;"/>
   </g>
   <g id="legend_1">
    <g id="patch_7">
     <path d="M 505.479375 103.26875 
L 619.062187 103.26875 
Q 621.062187 103.26875 621.062187 101.26875 
L 621.062187 14.2 
Q 621.062187 12.2 619.062187 12.2 
L 505.479375 12.2 
Q 503.479375 12.2 503.479375 14.2 
L 503.479375 101.26875 
Q 503.479375 103.26875 505.479375 103.26875 
z
" style="fill:#e5e5e5;opacity:0.8;stroke:#cccccc;stroke-linejoin:miter;stroke-width:0.5;"/>
    </g>
    <g id="line2d_33">
     <path d="M 507.479375 20.298437 
L 527.479375 20.298437 
" style="fill:none;stroke:#ff0000;stroke-linecap:square;stroke-width:1.5;"/>
    </g>
    <g id="line2d_34"/>
    <g id="text_16">
     <!-- width 32(train) -->
     <g transform="translate(535.479375 23.798437)scale(0.1 -0.1)">
      <defs>
       <path d="M 269 3500 
L 844 3500 
L 1563 769 
L 2278 3500 
L 2956 3500 
L 3675 769 
L 4391 3500 
L 4966 3500 
L 4050 0 
L 3372 0 
L 2619 2869 
L 1863 0 
L 1184 0 
L 269 3500 
z
" id="DejaVuSans-77" transform="scale(0.015625)"/>
       <path d="M 603 3500 
L 1178 3500 
L 1178 0 
L 603 0 
L 603 3500 
z
M 603 4863 
L 1178 4863 
L 1178 4134 
L 603 4134 
L 603 4863 
z
" id="DejaVuSans-69" transform="scale(0.015625)"/>
       <path d="M 2906 2969 
L 2906 4863 
L 3481 4863 
L 3481 0 
L 2906 0 
L 2906 525 
Q 2725 213 2448 61 
Q 2172 -91 1784 -91 
Q 1150 -91 751 415 
Q 353 922 353 1747 
Q 353 2572 751 3078 
Q 1150 3584 1784 3584 
Q 2172 3584 2448 3432 
Q 2725 3281 2906 2969 
z
M 947 1747 
Q 947 1113 1208 752 
Q 1469 391 1925 391 
Q 2381 391 2643 752 
Q 2906 1113 2906 1747 
Q 2906 2381 2643 2742 
Q 2381 3103 1925 3103 
Q 1469 3103 1208 2742 
Q 947 2381 947 1747 
z
" id="DejaVuSans-64" transform="scale(0.015625)"/>
       <path d="M 1172 4494 
L 1172 3500 
L 2356 3500 
L 2356 3053 
L 1172 3053 
L 1172 1153 
Q 1172 725 1289 603 
Q 1406 481 1766 481 
L 2356 481 
L 2356 0 
L 1766 0 
Q 1100 0 847 248 
Q 594 497 594 1153 
L 594 3053 
L 172 3053 
L 172 3500 
L 594 3500 
L 594 4494 
L 1172 4494 
z
" id="DejaVuSans-74" transform="scale(0.015625)"/>
       <path d="M 2597 2516 
Q 3050 2419 3304 2112 
Q 3559 1806 3559 1356 
Q 3559 666 3084 287 
Q 2609 -91 1734 -91 
Q 1441 -91 1130 -33 
Q 819 25 488 141 
L 488 750 
Q 750 597 1062 519 
Q 1375 441 1716 441 
Q 2309 441 2620 675 
Q 2931 909 2931 1356 
Q 2931 1769 2642 2001 
Q 2353 2234 1838 2234 
L 1294 2234 
L 1294 2753 
L 1863 2753 
Q 2328 2753 2575 2939 
Q 2822 3125 2822 3475 
Q 2822 3834 2567 4026 
Q 2313 4219 1838 4219 
Q 1578 4219 1281 4162 
Q 984 4106 628 3988 
L 628 4550 
Q 988 4650 1302 4700 
Q 1616 4750 1894 4750 
Q 2613 4750 3031 4423 
Q 3450 4097 3450 3541 
Q 3450 3153 3228 2886 
Q 3006 2619 2597 2516 
z
" id="DejaVuSans-33" transform="scale(0.015625)"/>
       <path d="M 1984 4856 
Q 1566 4138 1362 3434 
Q 1159 2731 1159 2009 
Q 1159 1288 1364 580 
Q 1569 -128 1984 -844 
L 1484 -844 
Q 1016 -109 783 600 
Q 550 1309 550 2009 
Q 550 2706 781 3412 
Q 1013 4119 1484 4856 
L 1984 4856 
z
" id="DejaVuSans-28" transform="scale(0.015625)"/>
       <path d="M 513 4856 
L 1013 4856 
Q 1481 4119 1714 3412 
Q 1947 2706 1947 2009 
Q 1947 1309 1714 600 
Q 1481 -109 1013 -844 
L 513 -844 
Q 928 -128 1133 580 
Q 1338 1288 1338 2009 
Q 1338 2731 1133 3434 
Q 928 4138 513 4856 
z
" id="DejaVuSans-29" transform="scale(0.015625)"/>
      </defs>
      <use xlink:href="#DejaVuSans-77"/>
      <use x="81.787109" xlink:href="#DejaVuSans-69"/>
      <use x="109.570312" xlink:href="#DejaVuSans-64"/>
      <use x="173.046875" xlink:href="#DejaVuSans-74"/>
      <use x="212.255859" xlink:href="#DejaVuSans-68"/>
      <use x="275.634766" xlink:href="#DejaVuSans-20"/>
      <use x="307.421875" xlink:href="#DejaVuSans-33"/>
      <use x="371.044922" xlink:href="#DejaVuSans-32"/>
      <use x="434.667969" xlink:href="#DejaVuSans-28"/>
      <use x="473.681641" xlink:href="#DejaVuSans-74"/>
      <use x="512.890625" xlink:href="#DejaVuSans-72"/>
      <use x="554.003906" xlink:href="#DejaVuSans-61"/>
      <use x="615.283203" xlink:href="#DejaVuSans-69"/>
      <use x="643.066406" xlink:href="#DejaVuSans-6e"/>
      <use x="706.445312" xlink:href="#DejaVuSans-29"/>
     </g>
    </g>
    <g id="line2d_35">
     <path d="M 507.479375 34.976562 
L 527.479375 34.976562 
" style="fill:none;stroke:#0000ff;stroke-linecap:square;stroke-width:1.5;"/>
    </g>
    <g id="line2d_36"/>
    <g id="text_17">
     <!-- width 64(train) -->
     <g transform="translate(535.479375 38.476562)scale(0.1 -0.1)">
      <use xlink:href="#DejaVuSans-77"/>
      <use x="81.787109" xlink:href="#DejaVuSans-69"/>
      <use x="109.570312" xlink:href="#DejaVuSans-64"/>
      <use x="173.046875" xlink:href="#DejaVuSans-74"/>
      <use x="212.255859" xlink:href="#DejaVuSans-68"/>
      <use x="275.634766" xlink:href="#DejaVuSans-20"/>
      <use x="307.421875" xlink:href="#DejaVuSans-36"/>
      <use x="371.044922" xlink:href="#DejaVuSans-34"/>
      <use x="434.667969" xlink:href="#DejaVuSans-28"/>
      <use x="473.681641" xlink:href="#DejaVuSans-74"/>
      <use x="512.890625" xlink:href="#DejaVuSans-72"/>
      <use x="554.003906" xlink:href="#DejaVuSans-61"/>
      <use x="615.283203" xlink:href="#DejaVuSans-69"/>
      <use x="643.066406" xlink:href="#DejaVuSans-6e"/>
      <use x="706.445312" xlink:href="#DejaVuSans-29"/>
     </g>
    </g>
    <g id="line2d_37">
     <path d="M 507.479375 49.654687 
L 527.479375 49.654687 
" style="fill:none;stroke:#800080;stroke-linecap:square;stroke-width:1.5;"/>
    </g>
    <g id="line2d_38"/>
    <g id="text_18">
     <!-- width 128(train) -->
     <g transform="translate(535.479375 53.154687)scale(0.1 -0.1)">
      <use xlink:href="#DejaVuSans-77"/>
      <use x="81.787109" xlink:href="#DejaVuSans-69"/>
      <use x="109.570312" xlink:href="#DejaVuSans-64"/>
      <use x="173.046875" xlink:href="#DejaVuSans-74"/>
      <use x="212.255859" xlink:href="#DejaVuSans-68"/>
      <use x="275.634766" xlink:href="#DejaVuSans-20"/>
      <use x="307.421875" xlink:href="#DejaVuSans-31"/>
      <use x="371.044922" xlink:href="#DejaVuSans-32"/>
      <use x="434.667969" xlink:href="#DejaVuSans-38"/>
      <use x="498.291016" xlink:href="#DejaVuSans-28"/>
      <use x="537.304688" xlink:href="#DejaVuSans-74"/>
      <use x="576.513672" xlink:href="#DejaVuSans-72"/>
      <use x="617.626953" xlink:href="#DejaVuSans-61"/>
      <use x="678.90625" xlink:href="#DejaVuSans-69"/>
      <use x="706.689453" xlink:href="#DejaVuSans-6e"/>
      <use x="770.068359" xlink:href="#DejaVuSans-29"/>
     </g>
    </g>
    <g id="line2d_39">
     <path d="M 507.479375 64.332812 
L 527.479375 64.332812 
" style="fill:none;stroke:#808080;stroke-dasharray:5.55,2.4;stroke-dashoffset:0;stroke-width:1.5;"/>
    </g>
    <g id="line2d_40"/>
    <g id="text_19">
     <!-- width 32(valid) -->
     <g transform="translate(535.479375 67.832812)scale(0.1 -0.1)">
      <defs>
       <path d="M 191 3500 
L 800 3500 
L 1894 563 
L 2988 3500 
L 3597 3500 
L 2284 0 
L 1503 0 
L 191 3500 
z
" id="DejaVuSans-76" transform="scale(0.015625)"/>
       <path d="M 603 4863 
L 1178 4863 
L 1178 0 
L 603 0 
L 603 4863 
z
" id="DejaVuSans-6c" transform="scale(0.015625)"/>
      </defs>
      <use xlink:href="#DejaVuSans-77"/>
      <use x="81.787109" xlink:href="#DejaVuSans-69"/>
      <use x="109.570312" xlink:href="#DejaVuSans-64"/>
      <use x="173.046875" xlink:href="#DejaVuSans-74"/>
      <use x="212.255859" xlink:href="#DejaVuSans-68"/>
      <use x="275.634766" xlink:href="#DejaVuSans-20"/>
      <use x="307.421875" xlink:href="#DejaVuSans-33"/>
      <use x="371.044922" xlink:href="#DejaVuSans-32"/>
      <use x="434.667969" xlink:href="#DejaVuSans-28"/>
      <use x="473.681641" xlink:href="#DejaVuSans-76"/>
      <use x="532.861328" xlink:href="#DejaVuSans-61"/>
      <use x="594.140625" xlink:href="#DejaVuSans-6c"/>
      <use x="621.923828" xlink:href="#DejaVuSans-69"/>
      <use x="649.707031" xlink:href="#DejaVuSans-64"/>
      <use x="713.183594" xlink:href="#DejaVuSans-29"/>
     </g>
    </g>
    <g id="line2d_41">
     <path d="M 507.479375 79.010937 
L 527.479375 79.010937 
" style="fill:none;stroke:#ffff00;stroke-dasharray:5.55,2.4;stroke-dashoffset:0;stroke-width:1.5;"/>
    </g>
    <g id="line2d_42"/>
    <g id="text_20">
     <!-- width 64(valid) -->
     <g transform="translate(535.479375 82.510937)scale(0.1 -0.1)">
      <use xlink:href="#DejaVuSans-77"/>
      <use x="81.787109" xlink:href="#DejaVuSans-69"/>
      <use x="109.570312" xlink:href="#DejaVuSans-64"/>
      <use x="173.046875" xlink:href="#DejaVuSans-74"/>
      <use x="212.255859" xlink:href="#DejaVuSans-68"/>
      <use x="275.634766" xlink:href="#DejaVuSans-20"/>
      <use x="307.421875" xlink:href="#DejaVuSans-36"/>
      <use x="371.044922" xlink:href="#DejaVuSans-34"/>
      <use x="434.667969" xlink:href="#DejaVuSans-28"/>
      <use x="473.681641" xlink:href="#DejaVuSans-76"/>
      <use x="532.861328" xlink:href="#DejaVuSans-61"/>
      <use x="594.140625" xlink:href="#DejaVuSans-6c"/>
      <use x="621.923828" xlink:href="#DejaVuSans-69"/>
      <use x="649.707031" xlink:href="#DejaVuSans-64"/>
      <use x="713.183594" xlink:href="#DejaVuSans-29"/>
     </g>
    </g>
    <g id="line2d_43">
     <path d="M 507.479375 93.689062 
L 527.479375 93.689062 
" style="fill:none;stroke:#008000;stroke-dasharray:5.55,2.4;stroke-dashoffset:0;stroke-width:1.5;"/>
    </g>
    <g id="line2d_44"/>
    <g id="text_21">
     <!-- width 128(valid) -->
     <g transform="translate(535.479375 97.189062)scale(0.1 -0.1)">
      <use xlink:href="#DejaVuSans-77"/>
      <use x="81.787109" xlink:href="#DejaVuSans-69"/>
      <use x="109.570312" xlink:href="#DejaVuSans-64"/>
      <use x="173.046875" xlink:href="#DejaVuSans-74"/>
      <use x="212.255859" xlink:href="#DejaVuSans-68"/>
      <use x="275.634766" xlink:href="#DejaVuSans-20"/>
      <use x="307.421875" xlink:href="#DejaVuSans-31"/>
      <use x="371.044922" xlink:href="#DejaVuSans-32"/>
      <use x="434.667969" xlink:href="#DejaVuSans-38"/>
      <use x="498.291016" xlink:href="#DejaVuSans-28"/>
      <use x="537.304688" xlink:href="#DejaVuSans-76"/>
      <use x="596.484375" xlink:href="#DejaVuSans-61"/>
      <use x="657.763672" xlink:href="#DejaVuSans-6c"/>
      <use x="685.546875" xlink:href="#DejaVuSans-69"/>
      <use x="713.330078" xlink:href="#DejaVuSans-64"/>
      <use x="776.806641" xlink:href="#DejaVuSans-29"/>
     </g>
    </g>
   </g>
  </g>
 </g>
 <defs>
  <clipPath id="p8e12d0779b">
   <rect height="217.44" width="446.4" x="52.079375" y="7.2"/>
  </clipPath>
 </defs>
</svg>
