<?xml version="1.0" encoding="utf-8" standalone="no"?>
<!DOCTYPE svg PUBLIC "-//W3C//DTD SVG 1.1//EN"
  "http://www.w3.org/Graphics/SVG/1.1/DTD/svg11.dtd">
<svg height="264.131875pt" version="1.1" viewBox="0 0 636.593437 264.131875" width="636.593437pt" xmlns="http://www.w3.org/2000/svg" xmlns:xlink="http://www.w3.org/1999/xlink">
 <metadata>
  <rdf:RDF xmlns:cc="http://creativecommons.org/ns#" xmlns:dc="http://purl.org/dc/elements/1.1/" xmlns:rdf="http://www.w3.org/1999/02/22-rdf-syntax-ns#">
   <cc:Work>
    <dc:type rdf:resource="http://purl.org/dc/dcmitype/StillImage"/>
    <dc:date>2021-11-04T14:42:10.209219</dc:date>
    <dc:format>image/svg+xml</dc:format>
    <dc:creator>
     <cc:Agent>
      <dc:title>Matplotlib v3.4.2, https://matplotlib.org/</dc:title>
     </cc:Agent>
    </dc:creator>
   </cc:Work>
  </rdf:RDF>
 </metadata>
 <defs>
  <style type="text/css">*{stroke-linecap:butt;stroke-linejoin:round;}</style>
 </defs>
 <g id="figure_1">
  <g id="patch_1">
   <path d="M 0 264.131875 
L 636.593437 264.131875 
L 636.593437 0 
L 0 0 
z
" style="fill:#ffffff;"/>
  </g>
  <g id="axes_1">
   <g id="patch_2">
    <path d="M 45.716875 224.64 
L 492.116875 224.64 
L 492.116875 7.2 
L 45.716875 7.2 
z
" style="fill:#e5e5e5;"/>
   </g>
   <g id="matplotlib.axis_1">
    <g id="xtick_1">
     <g id="line2d_1">
      <path clip-path="url(#pf67992c859)" d="M 61.908611 224.64 
L 61.908611 7.2 
" style="fill:none;stroke:#ffffff;stroke-linecap:square;stroke-width:0.8;"/>
     </g>
     <g id="line2d_2">
      <defs>
       <path d="M 0 0 
L 0 3.5 
" id="m75d8416e2c" style="stroke:#555555;stroke-width:0.8;"/>
      </defs>
      <g>
       <use style="fill:#555555;stroke:#555555;stroke-width:0.8;" x="61.908611" xlink:href="#m75d8416e2c" y="224.64"/>
      </g>
     </g>
     <g id="text_1">
      <!-- 0 -->
      <g style="fill:#555555;" transform="translate(58.727361 239.238437)scale(0.1 -0.1)">
       <defs>
        <path d="M 2034 4250 
Q 1547 4250 1301 3770 
Q 1056 3291 1056 2328 
Q 1056 1369 1301 889 
Q 1547 409 2034 409 
Q 2525 409 2770 889 
Q 3016 1369 3016 2328 
Q 3016 3291 2770 3770 
Q 2525 4250 2034 4250 
z
M 2034 4750 
Q 2819 4750 3233 4129 
Q 3647 3509 3647 2328 
Q 3647 1150 3233 529 
Q 2819 -91 2034 -91 
Q 1250 -91 836 529 
Q 422 1150 422 2328 
Q 422 3509 836 4129 
Q 1250 4750 2034 4750 
z
" id="DejaVuSans-30" transform="scale(0.015625)"/>
       </defs>
       <use xlink:href="#DejaVuSans-30"/>
      </g>
     </g>
    </g>
    <g id="xtick_2">
     <g id="line2d_3">
      <path clip-path="url(#pf67992c859)" d="M 143.892082 224.64 
L 143.892082 7.2 
" style="fill:none;stroke:#ffffff;stroke-linecap:square;stroke-width:0.8;"/>
     </g>
     <g id="line2d_4">
      <g>
       <use style="fill:#555555;stroke:#555555;stroke-width:0.8;" x="143.892082" xlink:href="#m75d8416e2c" y="224.64"/>
      </g>
     </g>
     <g id="text_2">
      <!-- 20 -->
      <g style="fill:#555555;" transform="translate(137.529582 239.238437)scale(0.1 -0.1)">
       <defs>
        <path d="M 1228 531 
L 3431 531 
L 3431 0 
L 469 0 
L 469 531 
Q 828 903 1448 1529 
Q 2069 2156 2228 2338 
Q 2531 2678 2651 2914 
Q 2772 3150 2772 3378 
Q 2772 3750 2511 3984 
Q 2250 4219 1831 4219 
Q 1534 4219 1204 4116 
Q 875 4013 500 3803 
L 500 4441 
Q 881 4594 1212 4672 
Q 1544 4750 1819 4750 
Q 2544 4750 2975 4387 
Q 3406 4025 3406 3419 
Q 3406 3131 3298 2873 
Q 3191 2616 2906 2266 
Q 2828 2175 2409 1742 
Q 1991 1309 1228 531 
z
" id="DejaVuSans-32" transform="scale(0.015625)"/>
       </defs>
       <use xlink:href="#DejaVuSans-32"/>
       <use x="63.623047" xlink:href="#DejaVuSans-30"/>
      </g>
     </g>
    </g>
    <g id="xtick_3">
     <g id="line2d_5">
      <path clip-path="url(#pf67992c859)" d="M 225.875553 224.64 
L 225.875553 7.2 
" style="fill:none;stroke:#ffffff;stroke-linecap:square;stroke-width:0.8;"/>
     </g>
     <g id="line2d_6">
      <g>
       <use style="fill:#555555;stroke:#555555;stroke-width:0.8;" x="225.875553" xlink:href="#m75d8416e2c" y="224.64"/>
      </g>
     </g>
     <g id="text_3">
      <!-- 40 -->
      <g style="fill:#555555;" transform="translate(219.513053 239.238437)scale(0.1 -0.1)">
       <defs>
        <path d="M 2419 4116 
L 825 1625 
L 2419 1625 
L 2419 4116 
z
M 2253 4666 
L 3047 4666 
L 3047 1625 
L 3713 1625 
L 3713 1100 
L 3047 1100 
L 3047 0 
L 2419 0 
L 2419 1100 
L 313 1100 
L 313 1709 
L 2253 4666 
z
" id="DejaVuSans-34" transform="scale(0.015625)"/>
       </defs>
       <use xlink:href="#DejaVuSans-34"/>
       <use x="63.623047" xlink:href="#DejaVuSans-30"/>
      </g>
     </g>
    </g>
    <g id="xtick_4">
     <g id="line2d_7">
      <path clip-path="url(#pf67992c859)" d="M 307.859024 224.64 
L 307.859024 7.2 
" style="fill:none;stroke:#ffffff;stroke-linecap:square;stroke-width:0.8;"/>
     </g>
     <g id="line2d_8">
      <g>
       <use style="fill:#555555;stroke:#555555;stroke-width:0.8;" x="307.859024" xlink:href="#m75d8416e2c" y="224.64"/>
      </g>
     </g>
     <g id="text_4">
      <!-- 60 -->
      <g style="fill:#555555;" transform="translate(301.496524 239.238437)scale(0.1 -0.1)">
       <defs>
        <path d="M 2113 2584 
Q 1688 2584 1439 2293 
Q 1191 2003 1191 1497 
Q 1191 994 1439 701 
Q 1688 409 2113 409 
Q 2538 409 2786 701 
Q 3034 994 3034 1497 
Q 3034 2003 2786 2293 
Q 2538 2584 2113 2584 
z
M 3366 4563 
L 3366 3988 
Q 3128 4100 2886 4159 
Q 2644 4219 2406 4219 
Q 1781 4219 1451 3797 
Q 1122 3375 1075 2522 
Q 1259 2794 1537 2939 
Q 1816 3084 2150 3084 
Q 2853 3084 3261 2657 
Q 3669 2231 3669 1497 
Q 3669 778 3244 343 
Q 2819 -91 2113 -91 
Q 1303 -91 875 529 
Q 447 1150 447 2328 
Q 447 3434 972 4092 
Q 1497 4750 2381 4750 
Q 2619 4750 2861 4703 
Q 3103 4656 3366 4563 
z
" id="DejaVuSans-36" transform="scale(0.015625)"/>
       </defs>
       <use xlink:href="#DejaVuSans-36"/>
       <use x="63.623047" xlink:href="#DejaVuSans-30"/>
      </g>
     </g>
    </g>
    <g id="xtick_5">
     <g id="line2d_9">
      <path clip-path="url(#pf67992c859)" d="M 389.842495 224.64 
L 389.842495 7.2 
" style="fill:none;stroke:#ffffff;stroke-linecap:square;stroke-width:0.8;"/>
     </g>
     <g id="line2d_10">
      <g>
       <use style="fill:#555555;stroke:#555555;stroke-width:0.8;" x="389.842495" xlink:href="#m75d8416e2c" y="224.64"/>
      </g>
     </g>
     <g id="text_5">
      <!-- 80 -->
      <g style="fill:#555555;" transform="translate(383.479995 239.238437)scale(0.1 -0.1)">
       <defs>
        <path d="M 2034 2216 
Q 1584 2216 1326 1975 
Q 1069 1734 1069 1313 
Q 1069 891 1326 650 
Q 1584 409 2034 409 
Q 2484 409 2743 651 
Q 3003 894 3003 1313 
Q 3003 1734 2745 1975 
Q 2488 2216 2034 2216 
z
M 1403 2484 
Q 997 2584 770 2862 
Q 544 3141 544 3541 
Q 544 4100 942 4425 
Q 1341 4750 2034 4750 
Q 2731 4750 3128 4425 
Q 3525 4100 3525 3541 
Q 3525 3141 3298 2862 
Q 3072 2584 2669 2484 
Q 3125 2378 3379 2068 
Q 3634 1759 3634 1313 
Q 3634 634 3220 271 
Q 2806 -91 2034 -91 
Q 1263 -91 848 271 
Q 434 634 434 1313 
Q 434 1759 690 2068 
Q 947 2378 1403 2484 
z
M 1172 3481 
Q 1172 3119 1398 2916 
Q 1625 2713 2034 2713 
Q 2441 2713 2670 2916 
Q 2900 3119 2900 3481 
Q 2900 3844 2670 4047 
Q 2441 4250 2034 4250 
Q 1625 4250 1398 4047 
Q 1172 3844 1172 3481 
z
" id="DejaVuSans-38" transform="scale(0.015625)"/>
       </defs>
       <use xlink:href="#DejaVuSans-38"/>
       <use x="63.623047" xlink:href="#DejaVuSans-30"/>
      </g>
     </g>
    </g>
    <g id="xtick_6">
     <g id="line2d_11">
      <path clip-path="url(#pf67992c859)" d="M 471.825966 224.64 
L 471.825966 7.2 
" style="fill:none;stroke:#ffffff;stroke-linecap:square;stroke-width:0.8;"/>
     </g>
     <g id="line2d_12">
      <g>
       <use style="fill:#555555;stroke:#555555;stroke-width:0.8;" x="471.825966" xlink:href="#m75d8416e2c" y="224.64"/>
      </g>
     </g>
     <g id="text_6">
      <!-- 100 -->
      <g style="fill:#555555;" transform="translate(462.282216 239.238437)scale(0.1 -0.1)">
       <defs>
        <path d="M 794 531 
L 1825 531 
L 1825 4091 
L 703 3866 
L 703 4441 
L 1819 4666 
L 2450 4666 
L 2450 531 
L 3481 531 
L 3481 0 
L 794 0 
L 794 531 
z
" id="DejaVuSans-31" transform="scale(0.015625)"/>
       </defs>
       <use xlink:href="#DejaVuSans-31"/>
       <use x="63.623047" xlink:href="#DejaVuSans-30"/>
       <use x="127.246094" xlink:href="#DejaVuSans-30"/>
      </g>
     </g>
    </g>
    <g id="text_7">
     <!-- Epoch number -->
     <g style="fill:#555555;" transform="translate(225.22 254.43625)scale(0.12 -0.12)">
      <defs>
       <path d="M 628 4666 
L 3578 4666 
L 3578 4134 
L 1259 4134 
L 1259 2753 
L 3481 2753 
L 3481 2222 
L 1259 2222 
L 1259 531 
L 3634 531 
L 3634 0 
L 628 0 
L 628 4666 
z
" id="DejaVuSans-45" transform="scale(0.015625)"/>
       <path d="M 1159 525 
L 1159 -1331 
L 581 -1331 
L 581 3500 
L 1159 3500 
L 1159 2969 
Q 1341 3281 1617 3432 
Q 1894 3584 2278 3584 
Q 2916 3584 3314 3078 
Q 3713 2572 3713 1747 
Q 3713 922 3314 415 
Q 2916 -91 2278 -91 
Q 1894 -91 1617 61 
Q 1341 213 1159 525 
z
M 3116 1747 
Q 3116 2381 2855 2742 
Q 2594 3103 2138 3103 
Q 1681 3103 1420 2742 
Q 1159 2381 1159 1747 
Q 1159 1113 1420 752 
Q 1681 391 2138 391 
Q 2594 391 2855 752 
Q 3116 1113 3116 1747 
z
" id="DejaVuSans-70" transform="scale(0.015625)"/>
       <path d="M 1959 3097 
Q 1497 3097 1228 2736 
Q 959 2375 959 1747 
Q 959 1119 1226 758 
Q 1494 397 1959 397 
Q 2419 397 2687 759 
Q 2956 1122 2956 1747 
Q 2956 2369 2687 2733 
Q 2419 3097 1959 3097 
z
M 1959 3584 
Q 2709 3584 3137 3096 
Q 3566 2609 3566 1747 
Q 3566 888 3137 398 
Q 2709 -91 1959 -91 
Q 1206 -91 779 398 
Q 353 888 353 1747 
Q 353 2609 779 3096 
Q 1206 3584 1959 3584 
z
" id="DejaVuSans-6f" transform="scale(0.015625)"/>
       <path d="M 3122 3366 
L 3122 2828 
Q 2878 2963 2633 3030 
Q 2388 3097 2138 3097 
Q 1578 3097 1268 2742 
Q 959 2388 959 1747 
Q 959 1106 1268 751 
Q 1578 397 2138 397 
Q 2388 397 2633 464 
Q 2878 531 3122 666 
L 3122 134 
Q 2881 22 2623 -34 
Q 2366 -91 2075 -91 
Q 1284 -91 818 406 
Q 353 903 353 1747 
Q 353 2603 823 3093 
Q 1294 3584 2113 3584 
Q 2378 3584 2631 3529 
Q 2884 3475 3122 3366 
z
" id="DejaVuSans-63" transform="scale(0.015625)"/>
       <path d="M 3513 2113 
L 3513 0 
L 2938 0 
L 2938 2094 
Q 2938 2591 2744 2837 
Q 2550 3084 2163 3084 
Q 1697 3084 1428 2787 
Q 1159 2491 1159 1978 
L 1159 0 
L 581 0 
L 581 4863 
L 1159 4863 
L 1159 2956 
Q 1366 3272 1645 3428 
Q 1925 3584 2291 3584 
Q 2894 3584 3203 3211 
Q 3513 2838 3513 2113 
z
" id="DejaVuSans-68" transform="scale(0.015625)"/>
       <path id="DejaVuSans-20" transform="scale(0.015625)"/>
       <path d="M 3513 2113 
L 3513 0 
L 2938 0 
L 2938 2094 
Q 2938 2591 2744 2837 
Q 2550 3084 2163 3084 
Q 1697 3084 1428 2787 
Q 1159 2491 1159 1978 
L 1159 0 
L 581 0 
L 581 3500 
L 1159 3500 
L 1159 2956 
Q 1366 3272 1645 3428 
Q 1925 3584 2291 3584 
Q 2894 3584 3203 3211 
Q 3513 2838 3513 2113 
z
" id="DejaVuSans-6e" transform="scale(0.015625)"/>
       <path d="M 544 1381 
L 544 3500 
L 1119 3500 
L 1119 1403 
Q 1119 906 1312 657 
Q 1506 409 1894 409 
Q 2359 409 2629 706 
Q 2900 1003 2900 1516 
L 2900 3500 
L 3475 3500 
L 3475 0 
L 2900 0 
L 2900 538 
Q 2691 219 2414 64 
Q 2138 -91 1772 -91 
Q 1169 -91 856 284 
Q 544 659 544 1381 
z
M 1991 3584 
L 1991 3584 
z
" id="DejaVuSans-75" transform="scale(0.015625)"/>
       <path d="M 3328 2828 
Q 3544 3216 3844 3400 
Q 4144 3584 4550 3584 
Q 5097 3584 5394 3201 
Q 5691 2819 5691 2113 
L 5691 0 
L 5113 0 
L 5113 2094 
Q 5113 2597 4934 2840 
Q 4756 3084 4391 3084 
Q 3944 3084 3684 2787 
Q 3425 2491 3425 1978 
L 3425 0 
L 2847 0 
L 2847 2094 
Q 2847 2600 2669 2842 
Q 2491 3084 2119 3084 
Q 1678 3084 1418 2786 
Q 1159 2488 1159 1978 
L 1159 0 
L 581 0 
L 581 3500 
L 1159 3500 
L 1159 2956 
Q 1356 3278 1631 3431 
Q 1906 3584 2284 3584 
Q 2666 3584 2933 3390 
Q 3200 3197 3328 2828 
z
" id="DejaVuSans-6d" transform="scale(0.015625)"/>
       <path d="M 3116 1747 
Q 3116 2381 2855 2742 
Q 2594 3103 2138 3103 
Q 1681 3103 1420 2742 
Q 1159 2381 1159 1747 
Q 1159 1113 1420 752 
Q 1681 391 2138 391 
Q 2594 391 2855 752 
Q 3116 1113 3116 1747 
z
M 1159 2969 
Q 1341 3281 1617 3432 
Q 1894 3584 2278 3584 
Q 2916 3584 3314 3078 
Q 3713 2572 3713 1747 
Q 3713 922 3314 415 
Q 2916 -91 2278 -91 
Q 1894 -91 1617 61 
Q 1341 213 1159 525 
L 1159 0 
L 581 0 
L 581 4863 
L 1159 4863 
L 1159 2969 
z
" id="DejaVuSans-62" transform="scale(0.015625)"/>
       <path d="M 3597 1894 
L 3597 1613 
L 953 1613 
Q 991 1019 1311 708 
Q 1631 397 2203 397 
Q 2534 397 2845 478 
Q 3156 559 3463 722 
L 3463 178 
Q 3153 47 2828 -22 
Q 2503 -91 2169 -91 
Q 1331 -91 842 396 
Q 353 884 353 1716 
Q 353 2575 817 3079 
Q 1281 3584 2069 3584 
Q 2775 3584 3186 3129 
Q 3597 2675 3597 1894 
z
M 3022 2063 
Q 3016 2534 2758 2815 
Q 2500 3097 2075 3097 
Q 1594 3097 1305 2825 
Q 1016 2553 972 2059 
L 3022 2063 
z
" id="DejaVuSans-65" transform="scale(0.015625)"/>
       <path d="M 2631 2963 
Q 2534 3019 2420 3045 
Q 2306 3072 2169 3072 
Q 1681 3072 1420 2755 
Q 1159 2438 1159 1844 
L 1159 0 
L 581 0 
L 581 3500 
L 1159 3500 
L 1159 2956 
Q 1341 3275 1631 3429 
Q 1922 3584 2338 3584 
Q 2397 3584 2469 3576 
Q 2541 3569 2628 3553 
L 2631 2963 
z
" id="DejaVuSans-72" transform="scale(0.015625)"/>
      </defs>
      <use xlink:href="#DejaVuSans-45"/>
      <use x="63.183594" xlink:href="#DejaVuSans-70"/>
      <use x="126.660156" xlink:href="#DejaVuSans-6f"/>
      <use x="187.841797" xlink:href="#DejaVuSans-63"/>
      <use x="242.822266" xlink:href="#DejaVuSans-68"/>
      <use x="306.201172" xlink:href="#DejaVuSans-20"/>
      <use x="337.988281" xlink:href="#DejaVuSans-6e"/>
      <use x="401.367188" xlink:href="#DejaVuSans-75"/>
      <use x="464.746094" xlink:href="#DejaVuSans-6d"/>
      <use x="562.158203" xlink:href="#DejaVuSans-62"/>
      <use x="625.634766" xlink:href="#DejaVuSans-65"/>
      <use x="687.158203" xlink:href="#DejaVuSans-72"/>
     </g>
    </g>
   </g>
   <g id="matplotlib.axis_2">
    <g id="ytick_1">
     <g id="line2d_13">
      <path clip-path="url(#pf67992c859)" d="M 45.716875 195.340566 
L 492.116875 195.340566 
" style="fill:none;stroke:#ffffff;stroke-linecap:square;stroke-width:0.8;"/>
     </g>
     <g id="line2d_14">
      <defs>
       <path d="M 0 0 
L -3.5 0 
" id="m985d017595" style="stroke:#555555;stroke-width:0.8;"/>
      </defs>
      <g>
       <use style="fill:#555555;stroke:#555555;stroke-width:0.8;" x="45.716875" xlink:href="#m985d017595" y="195.340566"/>
      </g>
     </g>
     <g id="text_8">
      <!-- 0.5 -->
      <g style="fill:#555555;" transform="translate(22.81375 199.139785)scale(0.1 -0.1)">
       <defs>
        <path d="M 684 794 
L 1344 794 
L 1344 0 
L 684 0 
L 684 794 
z
" id="DejaVuSans-2e" transform="scale(0.015625)"/>
        <path d="M 691 4666 
L 3169 4666 
L 3169 4134 
L 1269 4134 
L 1269 2991 
Q 1406 3038 1543 3061 
Q 1681 3084 1819 3084 
Q 2600 3084 3056 2656 
Q 3513 2228 3513 1497 
Q 3513 744 3044 326 
Q 2575 -91 1722 -91 
Q 1428 -91 1123 -41 
Q 819 9 494 109 
L 494 744 
Q 775 591 1075 516 
Q 1375 441 1709 441 
Q 2250 441 2565 725 
Q 2881 1009 2881 1497 
Q 2881 1984 2565 2268 
Q 2250 2553 1709 2553 
Q 1456 2553 1204 2497 
Q 953 2441 691 2322 
L 691 4666 
z
" id="DejaVuSans-35" transform="scale(0.015625)"/>
       </defs>
       <use xlink:href="#DejaVuSans-30"/>
       <use x="63.623047" xlink:href="#DejaVuSans-2e"/>
       <use x="95.410156" xlink:href="#DejaVuSans-35"/>
      </g>
     </g>
    </g>
    <g id="ytick_2">
     <g id="line2d_15">
      <path clip-path="url(#pf67992c859)" d="M 45.716875 153.842118 
L 492.116875 153.842118 
" style="fill:none;stroke:#ffffff;stroke-linecap:square;stroke-width:0.8;"/>
     </g>
     <g id="line2d_16">
      <g>
       <use style="fill:#555555;stroke:#555555;stroke-width:0.8;" x="45.716875" xlink:href="#m985d017595" y="153.842118"/>
      </g>
     </g>
     <g id="text_9">
      <!-- 1.0 -->
      <g style="fill:#555555;" transform="translate(22.81375 157.641336)scale(0.1 -0.1)">
       <use xlink:href="#DejaVuSans-31"/>
       <use x="63.623047" xlink:href="#DejaVuSans-2e"/>
       <use x="95.410156" xlink:href="#DejaVuSans-30"/>
      </g>
     </g>
    </g>
    <g id="ytick_3">
     <g id="line2d_17">
      <path clip-path="url(#pf67992c859)" d="M 45.716875 112.343669 
L 492.116875 112.343669 
" style="fill:none;stroke:#ffffff;stroke-linecap:square;stroke-width:0.8;"/>
     </g>
     <g id="line2d_18">
      <g>
       <use style="fill:#555555;stroke:#555555;stroke-width:0.8;" x="45.716875" xlink:href="#m985d017595" y="112.343669"/>
      </g>
     </g>
     <g id="text_10">
      <!-- 1.5 -->
      <g style="fill:#555555;" transform="translate(22.81375 116.142888)scale(0.1 -0.1)">
       <use xlink:href="#DejaVuSans-31"/>
       <use x="63.623047" xlink:href="#DejaVuSans-2e"/>
       <use x="95.410156" xlink:href="#DejaVuSans-35"/>
      </g>
     </g>
    </g>
    <g id="ytick_4">
     <g id="line2d_19">
      <path clip-path="url(#pf67992c859)" d="M 45.716875 70.845221 
L 492.116875 70.845221 
" style="fill:none;stroke:#ffffff;stroke-linecap:square;stroke-width:0.8;"/>
     </g>
     <g id="line2d_20">
      <g>
       <use style="fill:#555555;stroke:#555555;stroke-width:0.8;" x="45.716875" xlink:href="#m985d017595" y="70.845221"/>
      </g>
     </g>
     <g id="text_11">
      <!-- 2.0 -->
      <g style="fill:#555555;" transform="translate(22.81375 74.64444)scale(0.1 -0.1)">
       <use xlink:href="#DejaVuSans-32"/>
       <use x="63.623047" xlink:href="#DejaVuSans-2e"/>
       <use x="95.410156" xlink:href="#DejaVuSans-30"/>
      </g>
     </g>
    </g>
    <g id="ytick_5">
     <g id="line2d_21">
      <path clip-path="url(#pf67992c859)" d="M 45.716875 29.346773 
L 492.116875 29.346773 
" style="fill:none;stroke:#ffffff;stroke-linecap:square;stroke-width:0.8;"/>
     </g>
     <g id="line2d_22">
      <g>
       <use style="fill:#555555;stroke:#555555;stroke-width:0.8;" x="45.716875" xlink:href="#m985d017595" y="29.346773"/>
      </g>
     </g>
     <g id="text_12">
      <!-- 2.5 -->
      <g style="fill:#555555;" transform="translate(22.81375 33.145991)scale(0.1 -0.1)">
       <use xlink:href="#DejaVuSans-32"/>
       <use x="63.623047" xlink:href="#DejaVuSans-2e"/>
       <use x="95.410156" xlink:href="#DejaVuSans-35"/>
      </g>
     </g>
    </g>
    <g id="text_13">
     <!-- Error -->
     <g style="fill:#555555;" transform="translate(16.318125 130.542187)rotate(-90)scale(0.12 -0.12)">
      <use xlink:href="#DejaVuSans-45"/>
      <use x="63.183594" xlink:href="#DejaVuSans-72"/>
      <use x="102.546875" xlink:href="#DejaVuSans-72"/>
      <use x="141.410156" xlink:href="#DejaVuSans-6f"/>
      <use x="202.591797" xlink:href="#DejaVuSans-72"/>
     </g>
    </g>
   </g>
   <g id="line2d_23">
    <path clip-path="url(#pf67992c859)" d="M 66.007784 17.270473 
L 70.106958 71.163441 
L 74.206131 95.240205 
L 78.305305 107.675183 
L 82.404478 117.720184 
L 86.503652 124.704418 
L 90.602825 131.360856 
L 94.701999 137.072771 
L 98.801173 141.485316 
L 102.900346 145.004321 
L 106.99952 148.428742 
L 111.098693 151.059418 
L 115.197867 153.629548 
L 119.29704 157.033365 
L 123.396214 158.388569 
L 127.495387 160.646965 
L 131.594561 162.09272 
L 135.693735 163.77932 
L 139.792908 165.645111 
L 143.892082 166.832662 
L 147.991255 168.126345 
L 152.090429 168.959083 
L 156.189602 170.522221 
L 160.288776 171.367715 
L 164.387949 172.091273 
L 168.487123 173.007729 
L 172.586296 173.618948 
L 176.68547 174.73175 
L 180.784644 175.634016 
L 184.883817 176.052554 
L 188.982991 176.960624 
L 193.082164 177.607598 
L 197.181338 178.064119 
L 201.280511 178.522036 
L 205.379685 179.069726 
L 209.478858 179.909456 
L 213.578032 180.315777 
L 217.677206 180.853495 
L 221.776379 181.170306 
L 225.875553 181.469576 
L 229.974726 182.206689 
L 234.0739 182.536873 
L 238.173073 182.973306 
L 242.272247 183.289643 
L 246.37142 183.627933 
L 250.470594 184.060525 
L 254.569768 184.349674 
L 258.668941 184.35987 
L 262.768115 185.019545 
L 266.867288 185.188004 
L 270.966462 185.452333 
L 275.065635 186.079185 
L 279.164809 186.184387 
L 283.263982 186.559094 
L 287.363156 186.727349 
L 291.46233 187.1408 
L 295.561503 187.204672 
L 299.660677 187.656838 
L 303.75985 187.914826 
L 307.859024 188.229274 
L 311.958197 187.9491 
L 316.057371 188.555955 
L 320.156544 188.546624 
L 324.255718 188.813037 
L 328.354892 188.947351 
L 332.454065 189.343495 
L 336.553239 189.562408 
L 340.652412 189.615414 
L 344.751586 189.71529 
L 348.850759 189.999264 
L 352.949933 190.287398 
L 357.049106 190.359608 
L 361.14828 190.651686 
L 365.247454 190.782889 
L 369.346627 191.152618 
L 373.445801 190.944636 
L 377.544974 191.226656 
L 381.644148 191.439985 
L 385.743321 191.586152 
L 389.842495 191.540316 
L 393.941668 191.772794 
L 398.040842 191.96567 
L 402.140015 191.971688 
L 406.239189 192.257263 
L 410.338363 192.371397 
L 414.437536 192.506173 
L 418.53671 192.645382 
L 422.635883 192.692341 
L 426.735057 192.901717 
L 430.83423 192.994217 
L 434.933404 193.174359 
L 439.032577 193.367819 
L 443.131751 193.350555 
L 447.230925 193.427731 
L 451.330098 193.650272 
L 455.429272 193.598921 
L 459.528445 193.793983 
L 463.627619 193.934484 
L 467.726792 193.886697 
L 471.825966 193.91573 
" style="fill:none;stroke:#ff0000;stroke-linecap:square;stroke-width:1.5;"/>
   </g>
   <g id="line2d_24">
    <path clip-path="url(#pf67992c859)" d="M 66.007784 96.372813 
L 70.106958 126.979832 
L 74.206131 140.399816 
L 78.305305 149.910493 
L 82.404478 157.159298 
L 86.503652 162.619143 
L 90.602825 167.19396 
L 94.701999 171.034224 
L 98.801173 174.144626 
L 102.900346 176.786276 
L 106.99952 179.183856 
L 111.098693 181.218647 
L 115.197867 183.00008 
L 119.29704 184.249788 
L 123.396214 185.761274 
L 127.495387 186.917611 
L 131.594561 188.308185 
L 135.693735 189.392293 
L 139.792908 190.073059 
L 143.892082 191.080031 
L 147.991255 191.966964 
L 152.090429 192.8305 
L 156.189602 193.4446 
L 160.288776 193.918726 
L 164.387949 194.650963 
L 168.487123 195.330215 
L 172.586296 195.671983 
L 176.68547 196.322886 
L 180.784644 196.908972 
L 184.883817 197.2963 
L 188.982991 197.792388 
L 193.082164 198.216943 
L 197.181338 198.647901 
L 201.280511 199.148996 
L 205.379685 199.353177 
L 209.478858 199.658263 
L 213.578032 200.120893 
L 217.677206 200.221202 
L 221.776379 200.74257 
L 225.875553 200.98706 
L 229.974726 201.104109 
L 234.0739 201.652945 
L 238.173073 201.826531 
L 242.272247 202.17847 
L 246.37142 202.203525 
L 250.470594 202.596367 
L 254.569768 202.887746 
L 258.668941 203.196564 
L 262.768115 203.394171 
L 266.867288 203.508738 
L 270.966462 203.762569 
L 275.065635 203.766481 
L 279.164809 204.231444 
L 283.263982 204.446639 
L 287.363156 204.52798 
L 291.46233 204.734643 
L 295.561503 204.893494 
L 299.660677 205.122787 
L 303.75985 205.1078 
L 307.859024 205.433512 
L 311.958197 205.598987 
L 316.057371 205.821897 
L 320.156544 205.905543 
L 324.255718 206.220682 
L 328.354892 206.097618 
L 332.454065 206.488386 
L 336.553239 206.500163 
L 340.652412 206.747875 
L 344.751586 206.890441 
L 348.850759 206.968898 
L 352.949933 207.148174 
L 357.049106 207.17145 
L 361.14828 207.305947 
L 365.247454 207.50101 
L 369.346627 207.673558 
L 373.445801 207.671214 
L 377.544974 207.950297 
L 381.644148 207.948552 
L 385.743321 208.076268 
L 389.842495 208.285644 
L 393.941668 208.362552 
L 398.040842 208.543726 
L 402.140015 208.526454 
L 406.239189 208.676429 
L 410.338363 208.958604 
L 414.437536 208.763352 
L 418.53671 208.912752 
L 422.635883 209.204193 
L 426.735057 209.180554 
L 430.83423 209.324928 
L 434.933404 209.322994 
L 439.032577 209.433446 
L 443.131751 209.615725 
L 447.230925 209.734805 
L 451.330098 209.921923 
L 455.429272 209.918541 
L 459.528445 209.956551 
L 463.627619 210.147734 
L 467.726792 210.181828 
L 471.825966 210.330402 
" style="fill:none;stroke:#0000ff;stroke-linecap:square;stroke-width:1.5;"/>
   </g>
   <g id="line2d_25">
    <path clip-path="url(#pf67992c859)" d="M 66.007784 111.097471 
L 70.106958 138.591337 
L 74.206131 151.112027 
L 78.305305 159.615652 
L 82.404478 166.548834 
L 86.503652 171.238735 
L 90.602825 175.393377 
L 94.701999 178.897425 
L 98.801173 181.174096 
L 102.900346 183.541908 
L 106.99952 185.584778 
L 111.098693 187.285572 
L 115.197867 188.619403 
L 119.29704 189.786605 
L 123.396214 191.238967 
L 127.495387 192.263589 
L 131.594561 193.359661 
L 135.693735 194.441028 
L 139.792908 195.135885 
L 143.892082 195.933549 
L 147.991255 196.665243 
L 152.090429 197.291537 
L 156.189602 198.029026 
L 160.288776 198.568415 
L 164.387949 199.243252 
L 168.487123 199.774675 
L 172.586296 200.360681 
L 176.68547 200.801941 
L 180.784644 201.114853 
L 184.883817 201.662663 
L 188.982991 202.180306 
L 193.082164 202.599346 
L 197.181338 202.887506 
L 201.280511 203.152095 
L 205.379685 203.558534 
L 209.478858 203.982777 
L 213.578032 204.324678 
L 217.677206 204.720895 
L 221.776379 204.918594 
L 225.875553 205.36338 
L 229.974726 205.384088 
L 234.0739 205.8221 
L 238.173073 206.164392 
L 242.272247 206.308076 
L 246.37142 206.495115 
L 250.470594 206.654351 
L 254.569768 207.143126 
L 258.668941 207.273761 
L 262.768115 207.599183 
L 266.867288 207.696788 
L 270.966462 207.983267 
L 275.065635 208.306665 
L 279.164809 208.464138 
L 283.263982 208.758289 
L 287.363156 208.721297 
L 291.46233 209.02014 
L 295.561503 209.06143 
L 299.660677 209.351813 
L 303.75985 209.624306 
L 307.859024 209.74001 
L 311.958197 209.752772 
L 316.057371 209.971241 
L 320.156544 210.208137 
L 324.255718 210.362845 
L 328.354892 210.553847 
L 332.454065 210.749069 
L 336.553239 210.796295 
L 340.652412 210.946515 
L 344.751586 211.131093 
L 348.850759 211.317096 
L 352.949933 211.419246 
L 357.049106 211.536612 
L 361.14828 211.685497 
L 365.247454 211.863783 
L 369.346627 211.834297 
L 373.445801 212.21203 
L 377.544974 212.373749 
L 381.644148 212.48473 
L 385.743321 212.566739 
L 389.842495 212.562267 
L 393.941668 212.691308 
L 398.040842 212.918892 
L 402.140015 212.994916 
L 406.239189 212.977988 
L 410.338363 213.307646 
L 414.437536 213.284149 
L 418.53671 213.488576 
L 422.635883 213.423385 
L 426.735057 213.686143 
L 430.83423 213.656338 
L 434.933404 213.798708 
L 439.032577 213.822767 
L 443.131751 214.056814 
L 447.230925 214.115109 
L 451.330098 214.233127 
L 455.429272 214.400145 
L 459.528445 214.523386 
L 463.627619 214.541255 
L 467.726792 214.756364 
L 471.825966 214.69652 
" style="fill:none;stroke:#800080;stroke-linecap:square;stroke-width:1.5;"/>
   </g>
   <g id="line2d_26">
    <path clip-path="url(#pf67992c859)" d="M 66.007784 17.083636 
L 70.106958 70.832312 
L 74.206131 94.802097 
L 78.305305 107.174673 
L 82.404478 117.256392 
L 86.503652 124.190365 
L 90.602825 130.916245 
L 94.701999 136.69641 
L 98.801173 141.035098 
L 102.900346 144.587271 
L 106.99952 147.888788 
L 111.098693 150.493402 
L 115.197867 153.046847 
L 119.29704 156.453114 
L 123.396214 157.729759 
L 127.495387 159.967992 
L 131.594561 161.442599 
L 135.693735 163.064072 
L 139.792908 164.864719 
L 143.892082 166.061333 
L 147.991255 167.329133 
L 152.090429 168.074784 
L 156.189602 169.715279 
L 160.288776 170.530727 
L 164.387949 171.280126 
L 168.487123 172.087525 
L 172.586296 172.744425 
L 176.68547 173.734463 
L 180.784644 174.651199 
L 184.883817 174.977263 
L 188.982991 175.862529 
L 193.082164 176.4567 
L 197.181338 176.935297 
L 201.280511 177.391993 
L 205.379685 177.88352 
L 209.478858 178.593319 
L 213.578032 178.962528 
L 217.677206 179.515497 
L 221.776379 179.826311 
L 225.875553 180.045619 
L 229.974726 180.813135 
L 234.0739 181.110018 
L 238.173073 181.554496 
L 242.272247 181.8315 
L 246.37142 182.183851 
L 250.470594 182.497907 
L 254.569768 182.823843 
L 258.668941 182.687628 
L 262.768115 183.451685 
L 266.867288 183.533217 
L 270.966462 183.809279 
L 275.065635 184.48107 
L 279.164809 184.514142 
L 283.263982 184.832504 
L 287.363156 185.010203 
L 291.46233 185.41944 
L 295.561503 185.392569 
L 299.660677 185.81065 
L 303.75985 186.162829 
L 307.859024 186.312139 
L 311.958197 186.044148 
L 316.057371 186.618228 
L 320.156544 186.556727 
L 324.255718 186.90879 
L 328.354892 186.96 
L 332.454065 187.424015 
L 336.553239 187.556368 
L 340.652412 187.604856 
L 344.751586 187.605786 
L 348.850759 187.935232 
L 352.949933 188.311734 
L 357.049106 188.240376 
L 361.14828 188.5233 
L 365.247454 188.662354 
L 369.346627 189.049098 
L 373.445801 188.752231 
L 377.544974 189.012123 
L 381.644148 189.25129 
L 385.743321 189.454373 
L 389.842495 189.349195 
L 393.941668 189.58066 
L 398.040842 189.731986 
L 402.140015 189.738839 
L 406.239189 189.890866 
L 410.338363 190.169585 
L 414.437536 190.194237 
L 418.53671 190.33284 
L 422.635883 190.446159 
L 426.735057 190.586444 
L 430.83423 190.679872 
L 434.933404 190.814397 
L 439.032577 191.000078 
L 443.131751 190.902175 
L 447.230925 191.022715 
L 451.330098 191.161197 
L 455.429272 191.105898 
L 459.528445 191.269958 
L 463.627619 191.449046 
L 467.726792 191.396219 
L 471.825966 191.441563 
" style="fill:none;stroke:#808080;stroke-dasharray:5.55,2.4;stroke-dashoffset:0;stroke-width:1.5;"/>
   </g>
   <g id="line2d_27">
    <path clip-path="url(#pf67992c859)" d="M 66.007784 96.21702 
L 70.106958 126.776002 
L 74.206131 139.971858 
L 78.305305 149.294296 
L 82.404478 156.401 
L 86.503652 161.827896 
L 90.602825 166.242825 
L 94.701999 170.074605 
L 98.801173 173.089256 
L 102.900346 175.554188 
L 106.99952 178.022199 
L 111.098693 180.046851 
L 115.197867 181.687662 
L 119.29704 182.817014 
L 123.396214 184.199371 
L 127.495387 185.272423 
L 131.594561 186.570163 
L 135.693735 187.502205 
L 139.792908 188.04105 
L 143.892082 188.974161 
L 147.991255 189.678569 
L 152.090429 190.451131 
L 156.189602 191.075164 
L 160.288776 191.400963 
L 164.387949 191.910864 
L 168.487123 192.566579 
L 172.586296 192.714732 
L 176.68547 193.185665 
L 180.784644 193.643469 
L 184.883817 193.940546 
L 188.982991 194.459696 
L 193.082164 194.884443 
L 197.181338 195.189966 
L 201.280511 195.520747 
L 205.379685 195.515222 
L 209.478858 195.861178 
L 213.578032 196.158825 
L 217.677206 196.13717 
L 221.776379 196.617797 
L 225.875553 196.703855 
L 229.974726 196.650801 
L 234.0739 197.213752 
L 238.173073 197.204536 
L 242.272247 197.516315 
L 246.37142 197.462039 
L 250.470594 197.776081 
L 254.569768 197.996336 
L 258.668941 198.285892 
L 262.768115 198.332696 
L 266.867288 198.364371 
L 270.966462 198.728643 
L 275.065635 198.664951 
L 279.164809 199.001074 
L 283.263982 199.035068 
L 287.363156 199.194441 
L 291.46233 199.305356 
L 295.561503 199.458125 
L 299.660677 199.567883 
L 303.75985 199.379938 
L 307.859024 199.623997 
L 311.958197 199.796299 
L 316.057371 199.841254 
L 320.156544 199.839113 
L 324.255718 200.161739 
L 328.354892 200.074872 
L 332.454065 200.379762 
L 336.553239 200.308204 
L 340.652412 200.585921 
L 344.751586 200.693747 
L 348.850759 200.667662 
L 352.949933 200.709321 
L 357.049106 200.750944 
L 361.14828 200.704607 
L 365.247454 200.965782 
L 369.346627 200.992353 
L 373.445801 200.96012 
L 377.544974 201.128981 
L 381.644148 201.06878 
L 385.743321 201.189988 
L 389.842495 201.272819 
L 393.941668 201.216928 
L 398.040842 201.420556 
L 402.140015 201.389651 
L 406.239189 201.423776 
L 410.338363 201.730936 
L 414.437536 201.502743 
L 418.53671 201.470901 
L 422.635883 201.817205 
L 426.735057 201.726678 
L 430.83423 201.876585 
L 434.933404 201.897741 
L 439.032577 201.892539 
L 443.131751 202.043823 
L 447.230925 202.130271 
L 451.330098 202.237011 
L 455.429272 202.252029 
L 459.528445 202.137527 
L 463.627619 202.226617 
L 467.726792 202.340877 
L 471.825966 202.426135 
" style="fill:none;stroke:#ffff00;stroke-dasharray:5.55,2.4;stroke-dashoffset:0;stroke-width:1.5;"/>
   </g>
   <g id="line2d_28">
    <path clip-path="url(#pf67992c859)" d="M 66.007784 111.075679 
L 70.106958 138.215485 
L 74.206131 150.416586 
L 78.305305 158.716458 
L 82.404478 165.432832 
L 86.503652 169.983823 
L 90.602825 174.024918 
L 94.701999 177.413994 
L 98.801173 179.560848 
L 102.900346 181.865163 
L 106.99952 183.677006 
L 111.098693 185.236658 
L 115.197867 186.39229 
L 119.29704 187.460954 
L 123.396214 188.794358 
L 127.495387 189.518898 
L 131.594561 190.514968 
L 135.693735 191.329489 
L 139.792908 191.995962 
L 143.892082 192.641791 
L 147.991255 193.152201 
L 152.090429 193.817714 
L 156.189602 194.284432 
L 160.288776 194.629186 
L 164.387949 195.339197 
L 168.487123 195.414335 
L 172.586296 195.969742 
L 176.68547 196.373895 
L 180.784644 196.625429 
L 184.883817 197.183908 
L 188.982991 197.397262 
L 193.082164 197.632384 
L 197.181338 197.907061 
L 201.280511 197.978515 
L 205.379685 198.226795 
L 209.478858 198.601662 
L 213.578032 198.839618 
L 217.677206 199.17952 
L 221.776379 199.252462 
L 225.875553 199.543092 
L 229.974726 199.390097 
L 234.0739 199.990467 
L 238.173073 199.95886 
L 242.272247 199.993277 
L 246.37142 200.148038 
L 250.470594 200.092578 
L 254.569768 200.663157 
L 258.668941 200.744144 
L 262.768115 200.887979 
L 266.867288 200.711068 
L 270.966462 201.024205 
L 275.065635 201.167354 
L 279.164809 201.289153 
L 283.263982 201.396523 
L 287.363156 201.251069 
L 291.46233 201.438343 
L 295.561503 201.320274 
L 299.660677 201.644609 
L 303.75985 201.771417 
L 307.859024 201.780469 
L 311.958197 201.673863 
L 316.057371 201.728878 
L 320.156544 201.922198 
L 324.255718 202.058063 
L 328.354892 202.048272 
L 332.454065 202.257929 
L 336.553239 202.178014 
L 340.652412 202.141675 
L 344.751586 202.08355 
L 348.850759 202.30301 
L 352.949933 202.213648 
L 357.049106 202.336843 
L 361.14828 202.473949 
L 365.247454 202.536105 
L 369.346627 202.564084 
L 373.445801 202.6928 
L 377.544974 202.762603 
L 381.644148 202.690584 
L 385.743321 202.698088 
L 389.842495 202.770174 
L 393.941668 202.723634 
L 398.040842 202.957164 
L 402.140015 202.70215 
L 406.239189 202.63594 
L 410.338363 202.943198 
L 414.437536 203.079314 
L 418.53671 203.018301 
L 422.635883 202.711039 
L 426.735057 203.063823 
L 430.83423 203.019473 
L 434.933404 202.902866 
L 439.032577 202.831213 
L 443.131751 202.98015 
L 447.230925 203.134379 
L 451.330098 203.058207 
L 455.429272 202.924594 
L 459.528445 203.112646 
L 463.627619 203.069379 
L 467.726792 203.238268 
L 471.825966 202.886535 
" style="fill:none;stroke:#008000;stroke-dasharray:5.55,2.4;stroke-dashoffset:0;stroke-width:1.5;"/>
   </g>
   <g id="patch_3">
    <path d="M 45.716875 224.64 
L 45.716875 7.2 
" style="fill:none;stroke:#ffffff;stroke-linecap:square;stroke-linejoin:miter;"/>
   </g>
   <g id="patch_4">
    <path d="M 492.116875 224.64 
L 492.116875 7.2 
" style="fill:none;stroke:#ffffff;stroke-linecap:square;stroke-linejoin:miter;"/>
   </g>
   <g id="patch_5">
    <path d="M 45.716875 224.64 
L 492.116875 224.64 
" style="fill:none;stroke:#ffffff;stroke-linecap:square;stroke-linejoin:miter;"/>
   </g>
   <g id="patch_6">
    <path d="M 45.716875 7.2 
L 492.116875 7.2 
" style="fill:none;stroke:#ffffff;stroke-linecap:square;stroke-linejoin:miter;"/>
   </g>
   <g id="legend_1">
    <g id="patch_7">
     <path d="M 356.840312 103.26875 
L 485.116875 103.26875 
Q 487.116875 103.26875 487.116875 101.26875 
L 487.116875 14.2 
Q 487.116875 12.2 485.116875 12.2 
L 356.840312 12.2 
Q 354.840312 12.2 354.840312 14.2 
L 354.840312 101.26875 
Q 354.840312 103.26875 356.840312 103.26875 
z
" style="fill:#e5e5e5;opacity:0.8;stroke:#cccccc;stroke-linejoin:miter;stroke-width:0.5;"/>
    </g>
    <g id="line2d_29">
     <path d="M 358.840312 20.298437 
L 378.840312 20.298437 
" style="fill:none;stroke:#ff0000;stroke-linecap:square;stroke-width:1.5;"/>
    </g>
    <g id="line2d_30"/>
    <g id="text_14">
     <!-- dropout 0.7(train) -->
     <g transform="translate(386.840312 23.798437)scale(0.1 -0.1)">
      <defs>
       <path d="M 2906 2969 
L 2906 4863 
L 3481 4863 
L 3481 0 
L 2906 0 
L 2906 525 
Q 2725 213 2448 61 
Q 2172 -91 1784 -91 
Q 1150 -91 751 415 
Q 353 922 353 1747 
Q 353 2572 751 3078 
Q 1150 3584 1784 3584 
Q 2172 3584 2448 3432 
Q 2725 3281 2906 2969 
z
M 947 1747 
Q 947 1113 1208 752 
Q 1469 391 1925 391 
Q 2381 391 2643 752 
Q 2906 1113 2906 1747 
Q 2906 2381 2643 2742 
Q 2381 3103 1925 3103 
Q 1469 3103 1208 2742 
Q 947 2381 947 1747 
z
" id="DejaVuSans-64" transform="scale(0.015625)"/>
       <path d="M 1172 4494 
L 1172 3500 
L 2356 3500 
L 2356 3053 
L 1172 3053 
L 1172 1153 
Q 1172 725 1289 603 
Q 1406 481 1766 481 
L 2356 481 
L 2356 0 
L 1766 0 
Q 1100 0 847 248 
Q 594 497 594 1153 
L 594 3053 
L 172 3053 
L 172 3500 
L 594 3500 
L 594 4494 
L 1172 4494 
z
" id="DejaVuSans-74" transform="scale(0.015625)"/>
       <path d="M 525 4666 
L 3525 4666 
L 3525 4397 
L 1831 0 
L 1172 0 
L 2766 4134 
L 525 4134 
L 525 4666 
z
" id="DejaVuSans-37" transform="scale(0.015625)"/>
       <path d="M 1984 4856 
Q 1566 4138 1362 3434 
Q 1159 2731 1159 2009 
Q 1159 1288 1364 580 
Q 1569 -128 1984 -844 
L 1484 -844 
Q 1016 -109 783 600 
Q 550 1309 550 2009 
Q 550 2706 781 3412 
Q 1013 4119 1484 4856 
L 1984 4856 
z
" id="DejaVuSans-28" transform="scale(0.015625)"/>
       <path d="M 2194 1759 
Q 1497 1759 1228 1600 
Q 959 1441 959 1056 
Q 959 750 1161 570 
Q 1363 391 1709 391 
Q 2188 391 2477 730 
Q 2766 1069 2766 1631 
L 2766 1759 
L 2194 1759 
z
M 3341 1997 
L 3341 0 
L 2766 0 
L 2766 531 
Q 2569 213 2275 61 
Q 1981 -91 1556 -91 
Q 1019 -91 701 211 
Q 384 513 384 1019 
Q 384 1609 779 1909 
Q 1175 2209 1959 2209 
L 2766 2209 
L 2766 2266 
Q 2766 2663 2505 2880 
Q 2244 3097 1772 3097 
Q 1472 3097 1187 3025 
Q 903 2953 641 2809 
L 641 3341 
Q 956 3463 1253 3523 
Q 1550 3584 1831 3584 
Q 2591 3584 2966 3190 
Q 3341 2797 3341 1997 
z
" id="DejaVuSans-61" transform="scale(0.015625)"/>
       <path d="M 603 3500 
L 1178 3500 
L 1178 0 
L 603 0 
L 603 3500 
z
M 603 4863 
L 1178 4863 
L 1178 4134 
L 603 4134 
L 603 4863 
z
" id="DejaVuSans-69" transform="scale(0.015625)"/>
       <path d="M 513 4856 
L 1013 4856 
Q 1481 4119 1714 3412 
Q 1947 2706 1947 2009 
Q 1947 1309 1714 600 
Q 1481 -109 1013 -844 
L 513 -844 
Q 928 -128 1133 580 
Q 1338 1288 1338 2009 
Q 1338 2731 1133 3434 
Q 928 4138 513 4856 
z
" id="DejaVuSans-29" transform="scale(0.015625)"/>
      </defs>
      <use xlink:href="#DejaVuSans-64"/>
      <use x="63.476562" xlink:href="#DejaVuSans-72"/>
      <use x="102.339844" xlink:href="#DejaVuSans-6f"/>
      <use x="163.521484" xlink:href="#DejaVuSans-70"/>
      <use x="226.998047" xlink:href="#DejaVuSans-6f"/>
      <use x="288.179688" xlink:href="#DejaVuSans-75"/>
      <use x="351.558594" xlink:href="#DejaVuSans-74"/>
      <use x="390.767578" xlink:href="#DejaVuSans-20"/>
      <use x="422.554688" xlink:href="#DejaVuSans-30"/>
      <use x="486.177734" xlink:href="#DejaVuSans-2e"/>
      <use x="517.964844" xlink:href="#DejaVuSans-37"/>
      <use x="581.587891" xlink:href="#DejaVuSans-28"/>
      <use x="620.601562" xlink:href="#DejaVuSans-74"/>
      <use x="659.810547" xlink:href="#DejaVuSans-72"/>
      <use x="700.923828" xlink:href="#DejaVuSans-61"/>
      <use x="762.203125" xlink:href="#DejaVuSans-69"/>
      <use x="789.986328" xlink:href="#DejaVuSans-6e"/>
      <use x="853.365234" xlink:href="#DejaVuSans-29"/>
     </g>
    </g>
    <g id="line2d_31">
     <path d="M 358.840312 34.976562 
L 378.840312 34.976562 
" style="fill:none;stroke:#0000ff;stroke-linecap:square;stroke-width:1.5;"/>
    </g>
    <g id="line2d_32"/>
    <g id="text_15">
     <!-- dropout 0.9(train) -->
     <g transform="translate(386.840312 38.476562)scale(0.1 -0.1)">
      <defs>
       <path d="M 703 97 
L 703 672 
Q 941 559 1184 500 
Q 1428 441 1663 441 
Q 2288 441 2617 861 
Q 2947 1281 2994 2138 
Q 2813 1869 2534 1725 
Q 2256 1581 1919 1581 
Q 1219 1581 811 2004 
Q 403 2428 403 3163 
Q 403 3881 828 4315 
Q 1253 4750 1959 4750 
Q 2769 4750 3195 4129 
Q 3622 3509 3622 2328 
Q 3622 1225 3098 567 
Q 2575 -91 1691 -91 
Q 1453 -91 1209 -44 
Q 966 3 703 97 
z
M 1959 2075 
Q 2384 2075 2632 2365 
Q 2881 2656 2881 3163 
Q 2881 3666 2632 3958 
Q 2384 4250 1959 4250 
Q 1534 4250 1286 3958 
Q 1038 3666 1038 3163 
Q 1038 2656 1286 2365 
Q 1534 2075 1959 2075 
z
" id="DejaVuSans-39" transform="scale(0.015625)"/>
      </defs>
      <use xlink:href="#DejaVuSans-64"/>
      <use x="63.476562" xlink:href="#DejaVuSans-72"/>
      <use x="102.339844" xlink:href="#DejaVuSans-6f"/>
      <use x="163.521484" xlink:href="#DejaVuSans-70"/>
      <use x="226.998047" xlink:href="#DejaVuSans-6f"/>
      <use x="288.179688" xlink:href="#DejaVuSans-75"/>
      <use x="351.558594" xlink:href="#DejaVuSans-74"/>
      <use x="390.767578" xlink:href="#DejaVuSans-20"/>
      <use x="422.554688" xlink:href="#DejaVuSans-30"/>
      <use x="486.177734" xlink:href="#DejaVuSans-2e"/>
      <use x="517.964844" xlink:href="#DejaVuSans-39"/>
      <use x="581.587891" xlink:href="#DejaVuSans-28"/>
      <use x="620.601562" xlink:href="#DejaVuSans-74"/>
      <use x="659.810547" xlink:href="#DejaVuSans-72"/>
      <use x="700.923828" xlink:href="#DejaVuSans-61"/>
      <use x="762.203125" xlink:href="#DejaVuSans-69"/>
      <use x="789.986328" xlink:href="#DejaVuSans-6e"/>
      <use x="853.365234" xlink:href="#DejaVuSans-29"/>
     </g>
    </g>
    <g id="line2d_33">
     <path d="M 358.840312 49.654687 
L 378.840312 49.654687 
" style="fill:none;stroke:#800080;stroke-linecap:square;stroke-width:1.5;"/>
    </g>
    <g id="line2d_34"/>
    <g id="text_16">
     <!-- dropout 0.95(train) -->
     <g transform="translate(386.840312 53.154687)scale(0.1 -0.1)">
      <use xlink:href="#DejaVuSans-64"/>
      <use x="63.476562" xlink:href="#DejaVuSans-72"/>
      <use x="102.339844" xlink:href="#DejaVuSans-6f"/>
      <use x="163.521484" xlink:href="#DejaVuSans-70"/>
      <use x="226.998047" xlink:href="#DejaVuSans-6f"/>
      <use x="288.179688" xlink:href="#DejaVuSans-75"/>
      <use x="351.558594" xlink:href="#DejaVuSans-74"/>
      <use x="390.767578" xlink:href="#DejaVuSans-20"/>
      <use x="422.554688" xlink:href="#DejaVuSans-30"/>
      <use x="486.177734" xlink:href="#DejaVuSans-2e"/>
      <use x="517.964844" xlink:href="#DejaVuSans-39"/>
      <use x="581.587891" xlink:href="#DejaVuSans-35"/>
      <use x="645.210938" xlink:href="#DejaVuSans-28"/>
      <use x="684.224609" xlink:href="#DejaVuSans-74"/>
      <use x="723.433594" xlink:href="#DejaVuSans-72"/>
      <use x="764.546875" xlink:href="#DejaVuSans-61"/>
      <use x="825.826172" xlink:href="#DejaVuSans-69"/>
      <use x="853.609375" xlink:href="#DejaVuSans-6e"/>
      <use x="916.988281" xlink:href="#DejaVuSans-29"/>
     </g>
    </g>
    <g id="line2d_35">
     <path d="M 358.840312 64.332812 
L 378.840312 64.332812 
" style="fill:none;stroke:#808080;stroke-dasharray:5.55,2.4;stroke-dashoffset:0;stroke-width:1.5;"/>
    </g>
    <g id="line2d_36"/>
    <g id="text_17">
     <!-- dropout 0.7(valid) -->
     <g transform="translate(386.840312 67.832812)scale(0.1 -0.1)">
      <defs>
       <path d="M 191 3500 
L 800 3500 
L 1894 563 
L 2988 3500 
L 3597 3500 
L 2284 0 
L 1503 0 
L 191 3500 
z
" id="DejaVuSans-76" transform="scale(0.015625)"/>
       <path d="M 603 4863 
L 1178 4863 
L 1178 0 
L 603 0 
L 603 4863 
z
" id="DejaVuSans-6c" transform="scale(0.015625)"/>
      </defs>
      <use xlink:href="#DejaVuSans-64"/>
      <use x="63.476562" xlink:href="#DejaVuSans-72"/>
      <use x="102.339844" xlink:href="#DejaVuSans-6f"/>
      <use x="163.521484" xlink:href="#DejaVuSans-70"/>
      <use x="226.998047" xlink:href="#DejaVuSans-6f"/>
      <use x="288.179688" xlink:href="#DejaVuSans-75"/>
      <use x="351.558594" xlink:href="#DejaVuSans-74"/>
      <use x="390.767578" xlink:href="#DejaVuSans-20"/>
      <use x="422.554688" xlink:href="#DejaVuSans-30"/>
      <use x="486.177734" xlink:href="#DejaVuSans-2e"/>
      <use x="517.964844" xlink:href="#DejaVuSans-37"/>
      <use x="581.587891" xlink:href="#DejaVuSans-28"/>
      <use x="620.601562" xlink:href="#DejaVuSans-76"/>
      <use x="679.78125" xlink:href="#DejaVuSans-61"/>
      <use x="741.060547" xlink:href="#DejaVuSans-6c"/>
      <use x="768.84375" xlink:href="#DejaVuSans-69"/>
      <use x="796.626953" xlink:href="#DejaVuSans-64"/>
      <use x="860.103516" xlink:href="#DejaVuSans-29"/>
     </g>
    </g>
    <g id="line2d_37">
     <path d="M 358.840312 79.010937 
L 378.840312 79.010937 
" style="fill:none;stroke:#ffff00;stroke-dasharray:5.55,2.4;stroke-dashoffset:0;stroke-width:1.5;"/>
    </g>
    <g id="line2d_38"/>
    <g id="text_18">
     <!-- dropout 0.9(valid) -->
     <g transform="translate(386.840312 82.510937)scale(0.1 -0.1)">
      <use xlink:href="#DejaVuSans-64"/>
      <use x="63.476562" xlink:href="#DejaVuSans-72"/>
      <use x="102.339844" xlink:href="#DejaVuSans-6f"/>
      <use x="163.521484" xlink:href="#DejaVuSans-70"/>
      <use x="226.998047" xlink:href="#DejaVuSans-6f"/>
      <use x="288.179688" xlink:href="#DejaVuSans-75"/>
      <use x="351.558594" xlink:href="#DejaVuSans-74"/>
      <use x="390.767578" xlink:href="#DejaVuSans-20"/>
      <use x="422.554688" xlink:href="#DejaVuSans-30"/>
      <use x="486.177734" xlink:href="#DejaVuSans-2e"/>
      <use x="517.964844" xlink:href="#DejaVuSans-39"/>
      <use x="581.587891" xlink:href="#DejaVuSans-28"/>
      <use x="620.601562" xlink:href="#DejaVuSans-76"/>
      <use x="679.78125" xlink:href="#DejaVuSans-61"/>
      <use x="741.060547" xlink:href="#DejaVuSans-6c"/>
      <use x="768.84375" xlink:href="#DejaVuSans-69"/>
      <use x="796.626953" xlink:href="#DejaVuSans-64"/>
      <use x="860.103516" xlink:href="#DejaVuSans-29"/>
     </g>
    </g>
    <g id="line2d_39">
     <path d="M 358.840312 93.689062 
L 378.840312 93.689062 
" style="fill:none;stroke:#008000;stroke-dasharray:5.55,2.4;stroke-dashoffset:0;stroke-width:1.5;"/>
    </g>
    <g id="line2d_40"/>
    <g id="text_19">
     <!-- dropout 0.95(valid) -->
     <g transform="translate(386.840312 97.189062)scale(0.1 -0.1)">
      <use xlink:href="#DejaVuSans-64"/>
      <use x="63.476562" xlink:href="#DejaVuSans-72"/>
      <use x="102.339844" xlink:href="#DejaVuSans-6f"/>
      <use x="163.521484" xlink:href="#DejaVuSans-70"/>
      <use x="226.998047" xlink:href="#DejaVuSans-6f"/>
      <use x="288.179688" xlink:href="#DejaVuSans-75"/>
      <use x="351.558594" xlink:href="#DejaVuSans-74"/>
      <use x="390.767578" xlink:href="#DejaVuSans-20"/>
      <use x="422.554688" xlink:href="#DejaVuSans-30"/>
      <use x="486.177734" xlink:href="#DejaVuSans-2e"/>
      <use x="517.964844" xlink:href="#DejaVuSans-39"/>
      <use x="581.587891" xlink:href="#DejaVuSans-35"/>
      <use x="645.210938" xlink:href="#DejaVuSans-28"/>
      <use x="684.224609" xlink:href="#DejaVuSans-76"/>
      <use x="743.404297" xlink:href="#DejaVuSans-61"/>
      <use x="804.683594" xlink:href="#DejaVuSans-6c"/>
      <use x="832.466797" xlink:href="#DejaVuSans-69"/>
      <use x="860.25" xlink:href="#DejaVuSans-64"/>
      <use x="923.726562" xlink:href="#DejaVuSans-29"/>
     </g>
    </g>
   </g>
  </g>
 </g>
 <defs>
  <clipPath id="pf67992c859">
   <rect height="217.44" width="446.4" x="45.716875" y="7.2"/>
  </clipPath>
 </defs>
</svg>
