<?xml version="1.0" encoding="utf-8" standalone="no"?>
<!DOCTYPE svg PUBLIC "-//W3C//DTD SVG 1.1//EN"
  "http://www.w3.org/Graphics/SVG/1.1/DTD/svg11.dtd">
<svg height="264.131875pt" version="1.1" viewBox="0 0 610.72 264.131875" width="610.72pt" xmlns="http://www.w3.org/2000/svg" xmlns:xlink="http://www.w3.org/1999/xlink">
 <metadata>
  <rdf:RDF xmlns:cc="http://creativecommons.org/ns#" xmlns:dc="http://purl.org/dc/elements/1.1/" xmlns:rdf="http://www.w3.org/1999/02/22-rdf-syntax-ns#">
   <cc:Work>
    <dc:type rdf:resource="http://purl.org/dc/dcmitype/StillImage"/>
    <dc:date>2021-11-04T14:36:05.745612</dc:date>
    <dc:format>image/svg+xml</dc:format>
    <dc:creator>
     <cc:Agent>
      <dc:title>Matplotlib v3.4.2, https://matplotlib.org/</dc:title>
     </cc:Agent>
    </dc:creator>
   </cc:Work>
  </rdf:RDF>
 </metadata>
 <defs>
  <style type="text/css">*{stroke-linecap:butt;stroke-linejoin:round;}</style>
 </defs>
 <g id="figure_1">
  <g id="patch_1">
   <path d="M 0 264.131875 
L 610.72 264.131875 
L 610.72 0 
L 0 0 
z
" style="fill:#ffffff;"/>
  </g>
  <g id="axes_1">
   <g id="patch_2">
    <path d="M 45.716875 224.64 
L 492.116875 224.64 
L 492.116875 7.2 
L 45.716875 7.2 
z
" style="fill:#e5e5e5;"/>
   </g>
   <g id="matplotlib.axis_1">
    <g id="xtick_1">
     <g id="line2d_1">
      <path clip-path="url(#p05b1d61bf1)" d="M 61.908611 224.64 
L 61.908611 7.2 
" style="fill:none;stroke:#ffffff;stroke-linecap:square;stroke-width:0.8;"/>
     </g>
     <g id="line2d_2">
      <defs>
       <path d="M 0 0 
L 0 3.5 
" id="m3081227b55" style="stroke:#555555;stroke-width:0.8;"/>
      </defs>
      <g>
       <use style="fill:#555555;stroke:#555555;stroke-width:0.8;" x="61.908611" xlink:href="#m3081227b55" y="224.64"/>
      </g>
     </g>
     <g id="text_1">
      <!-- 0 -->
      <g style="fill:#555555;" transform="translate(58.727361 239.238437)scale(0.1 -0.1)">
       <defs>
        <path d="M 2034 4250 
Q 1547 4250 1301 3770 
Q 1056 3291 1056 2328 
Q 1056 1369 1301 889 
Q 1547 409 2034 409 
Q 2525 409 2770 889 
Q 3016 1369 3016 2328 
Q 3016 3291 2770 3770 
Q 2525 4250 2034 4250 
z
M 2034 4750 
Q 2819 4750 3233 4129 
Q 3647 3509 3647 2328 
Q 3647 1150 3233 529 
Q 2819 -91 2034 -91 
Q 1250 -91 836 529 
Q 422 1150 422 2328 
Q 422 3509 836 4129 
Q 1250 4750 2034 4750 
z
" id="DejaVuSans-30" transform="scale(0.015625)"/>
       </defs>
       <use xlink:href="#DejaVuSans-30"/>
      </g>
     </g>
    </g>
    <g id="xtick_2">
     <g id="line2d_3">
      <path clip-path="url(#p05b1d61bf1)" d="M 143.892082 224.64 
L 143.892082 7.2 
" style="fill:none;stroke:#ffffff;stroke-linecap:square;stroke-width:0.8;"/>
     </g>
     <g id="line2d_4">
      <g>
       <use style="fill:#555555;stroke:#555555;stroke-width:0.8;" x="143.892082" xlink:href="#m3081227b55" y="224.64"/>
      </g>
     </g>
     <g id="text_2">
      <!-- 20 -->
      <g style="fill:#555555;" transform="translate(137.529582 239.238437)scale(0.1 -0.1)">
       <defs>
        <path d="M 1228 531 
L 3431 531 
L 3431 0 
L 469 0 
L 469 531 
Q 828 903 1448 1529 
Q 2069 2156 2228 2338 
Q 2531 2678 2651 2914 
Q 2772 3150 2772 3378 
Q 2772 3750 2511 3984 
Q 2250 4219 1831 4219 
Q 1534 4219 1204 4116 
Q 875 4013 500 3803 
L 500 4441 
Q 881 4594 1212 4672 
Q 1544 4750 1819 4750 
Q 2544 4750 2975 4387 
Q 3406 4025 3406 3419 
Q 3406 3131 3298 2873 
Q 3191 2616 2906 2266 
Q 2828 2175 2409 1742 
Q 1991 1309 1228 531 
z
" id="DejaVuSans-32" transform="scale(0.015625)"/>
       </defs>
       <use xlink:href="#DejaVuSans-32"/>
       <use x="63.623047" xlink:href="#DejaVuSans-30"/>
      </g>
     </g>
    </g>
    <g id="xtick_3">
     <g id="line2d_5">
      <path clip-path="url(#p05b1d61bf1)" d="M 225.875553 224.64 
L 225.875553 7.2 
" style="fill:none;stroke:#ffffff;stroke-linecap:square;stroke-width:0.8;"/>
     </g>
     <g id="line2d_6">
      <g>
       <use style="fill:#555555;stroke:#555555;stroke-width:0.8;" x="225.875553" xlink:href="#m3081227b55" y="224.64"/>
      </g>
     </g>
     <g id="text_3">
      <!-- 40 -->
      <g style="fill:#555555;" transform="translate(219.513053 239.238437)scale(0.1 -0.1)">
       <defs>
        <path d="M 2419 4116 
L 825 1625 
L 2419 1625 
L 2419 4116 
z
M 2253 4666 
L 3047 4666 
L 3047 1625 
L 3713 1625 
L 3713 1100 
L 3047 1100 
L 3047 0 
L 2419 0 
L 2419 1100 
L 313 1100 
L 313 1709 
L 2253 4666 
z
" id="DejaVuSans-34" transform="scale(0.015625)"/>
       </defs>
       <use xlink:href="#DejaVuSans-34"/>
       <use x="63.623047" xlink:href="#DejaVuSans-30"/>
      </g>
     </g>
    </g>
    <g id="xtick_4">
     <g id="line2d_7">
      <path clip-path="url(#p05b1d61bf1)" d="M 307.859024 224.64 
L 307.859024 7.2 
" style="fill:none;stroke:#ffffff;stroke-linecap:square;stroke-width:0.8;"/>
     </g>
     <g id="line2d_8">
      <g>
       <use style="fill:#555555;stroke:#555555;stroke-width:0.8;" x="307.859024" xlink:href="#m3081227b55" y="224.64"/>
      </g>
     </g>
     <g id="text_4">
      <!-- 60 -->
      <g style="fill:#555555;" transform="translate(301.496524 239.238437)scale(0.1 -0.1)">
       <defs>
        <path d="M 2113 2584 
Q 1688 2584 1439 2293 
Q 1191 2003 1191 1497 
Q 1191 994 1439 701 
Q 1688 409 2113 409 
Q 2538 409 2786 701 
Q 3034 994 3034 1497 
Q 3034 2003 2786 2293 
Q 2538 2584 2113 2584 
z
M 3366 4563 
L 3366 3988 
Q 3128 4100 2886 4159 
Q 2644 4219 2406 4219 
Q 1781 4219 1451 3797 
Q 1122 3375 1075 2522 
Q 1259 2794 1537 2939 
Q 1816 3084 2150 3084 
Q 2853 3084 3261 2657 
Q 3669 2231 3669 1497 
Q 3669 778 3244 343 
Q 2819 -91 2113 -91 
Q 1303 -91 875 529 
Q 447 1150 447 2328 
Q 447 3434 972 4092 
Q 1497 4750 2381 4750 
Q 2619 4750 2861 4703 
Q 3103 4656 3366 4563 
z
" id="DejaVuSans-36" transform="scale(0.015625)"/>
       </defs>
       <use xlink:href="#DejaVuSans-36"/>
       <use x="63.623047" xlink:href="#DejaVuSans-30"/>
      </g>
     </g>
    </g>
    <g id="xtick_5">
     <g id="line2d_9">
      <path clip-path="url(#p05b1d61bf1)" d="M 389.842495 224.64 
L 389.842495 7.2 
" style="fill:none;stroke:#ffffff;stroke-linecap:square;stroke-width:0.8;"/>
     </g>
     <g id="line2d_10">
      <g>
       <use style="fill:#555555;stroke:#555555;stroke-width:0.8;" x="389.842495" xlink:href="#m3081227b55" y="224.64"/>
      </g>
     </g>
     <g id="text_5">
      <!-- 80 -->
      <g style="fill:#555555;" transform="translate(383.479995 239.238437)scale(0.1 -0.1)">
       <defs>
        <path d="M 2034 2216 
Q 1584 2216 1326 1975 
Q 1069 1734 1069 1313 
Q 1069 891 1326 650 
Q 1584 409 2034 409 
Q 2484 409 2743 651 
Q 3003 894 3003 1313 
Q 3003 1734 2745 1975 
Q 2488 2216 2034 2216 
z
M 1403 2484 
Q 997 2584 770 2862 
Q 544 3141 544 3541 
Q 544 4100 942 4425 
Q 1341 4750 2034 4750 
Q 2731 4750 3128 4425 
Q 3525 4100 3525 3541 
Q 3525 3141 3298 2862 
Q 3072 2584 2669 2484 
Q 3125 2378 3379 2068 
Q 3634 1759 3634 1313 
Q 3634 634 3220 271 
Q 2806 -91 2034 -91 
Q 1263 -91 848 271 
Q 434 634 434 1313 
Q 434 1759 690 2068 
Q 947 2378 1403 2484 
z
M 1172 3481 
Q 1172 3119 1398 2916 
Q 1625 2713 2034 2713 
Q 2441 2713 2670 2916 
Q 2900 3119 2900 3481 
Q 2900 3844 2670 4047 
Q 2441 4250 2034 4250 
Q 1625 4250 1398 4047 
Q 1172 3844 1172 3481 
z
" id="DejaVuSans-38" transform="scale(0.015625)"/>
       </defs>
       <use xlink:href="#DejaVuSans-38"/>
       <use x="63.623047" xlink:href="#DejaVuSans-30"/>
      </g>
     </g>
    </g>
    <g id="xtick_6">
     <g id="line2d_11">
      <path clip-path="url(#p05b1d61bf1)" d="M 471.825966 224.64 
L 471.825966 7.2 
" style="fill:none;stroke:#ffffff;stroke-linecap:square;stroke-width:0.8;"/>
     </g>
     <g id="line2d_12">
      <g>
       <use style="fill:#555555;stroke:#555555;stroke-width:0.8;" x="471.825966" xlink:href="#m3081227b55" y="224.64"/>
      </g>
     </g>
     <g id="text_6">
      <!-- 100 -->
      <g style="fill:#555555;" transform="translate(462.282216 239.238437)scale(0.1 -0.1)">
       <defs>
        <path d="M 794 531 
L 1825 531 
L 1825 4091 
L 703 3866 
L 703 4441 
L 1819 4666 
L 2450 4666 
L 2450 531 
L 3481 531 
L 3481 0 
L 794 0 
L 794 531 
z
" id="DejaVuSans-31" transform="scale(0.015625)"/>
       </defs>
       <use xlink:href="#DejaVuSans-31"/>
       <use x="63.623047" xlink:href="#DejaVuSans-30"/>
       <use x="127.246094" xlink:href="#DejaVuSans-30"/>
      </g>
     </g>
    </g>
    <g id="text_7">
     <!-- Epoch number -->
     <g style="fill:#555555;" transform="translate(225.22 254.43625)scale(0.12 -0.12)">
      <defs>
       <path d="M 628 4666 
L 3578 4666 
L 3578 4134 
L 1259 4134 
L 1259 2753 
L 3481 2753 
L 3481 2222 
L 1259 2222 
L 1259 531 
L 3634 531 
L 3634 0 
L 628 0 
L 628 4666 
z
" id="DejaVuSans-45" transform="scale(0.015625)"/>
       <path d="M 1159 525 
L 1159 -1331 
L 581 -1331 
L 581 3500 
L 1159 3500 
L 1159 2969 
Q 1341 3281 1617 3432 
Q 1894 3584 2278 3584 
Q 2916 3584 3314 3078 
Q 3713 2572 3713 1747 
Q 3713 922 3314 415 
Q 2916 -91 2278 -91 
Q 1894 -91 1617 61 
Q 1341 213 1159 525 
z
M 3116 1747 
Q 3116 2381 2855 2742 
Q 2594 3103 2138 3103 
Q 1681 3103 1420 2742 
Q 1159 2381 1159 1747 
Q 1159 1113 1420 752 
Q 1681 391 2138 391 
Q 2594 391 2855 752 
Q 3116 1113 3116 1747 
z
" id="DejaVuSans-70" transform="scale(0.015625)"/>
       <path d="M 1959 3097 
Q 1497 3097 1228 2736 
Q 959 2375 959 1747 
Q 959 1119 1226 758 
Q 1494 397 1959 397 
Q 2419 397 2687 759 
Q 2956 1122 2956 1747 
Q 2956 2369 2687 2733 
Q 2419 3097 1959 3097 
z
M 1959 3584 
Q 2709 3584 3137 3096 
Q 3566 2609 3566 1747 
Q 3566 888 3137 398 
Q 2709 -91 1959 -91 
Q 1206 -91 779 398 
Q 353 888 353 1747 
Q 353 2609 779 3096 
Q 1206 3584 1959 3584 
z
" id="DejaVuSans-6f" transform="scale(0.015625)"/>
       <path d="M 3122 3366 
L 3122 2828 
Q 2878 2963 2633 3030 
Q 2388 3097 2138 3097 
Q 1578 3097 1268 2742 
Q 959 2388 959 1747 
Q 959 1106 1268 751 
Q 1578 397 2138 397 
Q 2388 397 2633 464 
Q 2878 531 3122 666 
L 3122 134 
Q 2881 22 2623 -34 
Q 2366 -91 2075 -91 
Q 1284 -91 818 406 
Q 353 903 353 1747 
Q 353 2603 823 3093 
Q 1294 3584 2113 3584 
Q 2378 3584 2631 3529 
Q 2884 3475 3122 3366 
z
" id="DejaVuSans-63" transform="scale(0.015625)"/>
       <path d="M 3513 2113 
L 3513 0 
L 2938 0 
L 2938 2094 
Q 2938 2591 2744 2837 
Q 2550 3084 2163 3084 
Q 1697 3084 1428 2787 
Q 1159 2491 1159 1978 
L 1159 0 
L 581 0 
L 581 4863 
L 1159 4863 
L 1159 2956 
Q 1366 3272 1645 3428 
Q 1925 3584 2291 3584 
Q 2894 3584 3203 3211 
Q 3513 2838 3513 2113 
z
" id="DejaVuSans-68" transform="scale(0.015625)"/>
       <path id="DejaVuSans-20" transform="scale(0.015625)"/>
       <path d="M 3513 2113 
L 3513 0 
L 2938 0 
L 2938 2094 
Q 2938 2591 2744 2837 
Q 2550 3084 2163 3084 
Q 1697 3084 1428 2787 
Q 1159 2491 1159 1978 
L 1159 0 
L 581 0 
L 581 3500 
L 1159 3500 
L 1159 2956 
Q 1366 3272 1645 3428 
Q 1925 3584 2291 3584 
Q 2894 3584 3203 3211 
Q 3513 2838 3513 2113 
z
" id="DejaVuSans-6e" transform="scale(0.015625)"/>
       <path d="M 544 1381 
L 544 3500 
L 1119 3500 
L 1119 1403 
Q 1119 906 1312 657 
Q 1506 409 1894 409 
Q 2359 409 2629 706 
Q 2900 1003 2900 1516 
L 2900 3500 
L 3475 3500 
L 3475 0 
L 2900 0 
L 2900 538 
Q 2691 219 2414 64 
Q 2138 -91 1772 -91 
Q 1169 -91 856 284 
Q 544 659 544 1381 
z
M 1991 3584 
L 1991 3584 
z
" id="DejaVuSans-75" transform="scale(0.015625)"/>
       <path d="M 3328 2828 
Q 3544 3216 3844 3400 
Q 4144 3584 4550 3584 
Q 5097 3584 5394 3201 
Q 5691 2819 5691 2113 
L 5691 0 
L 5113 0 
L 5113 2094 
Q 5113 2597 4934 2840 
Q 4756 3084 4391 3084 
Q 3944 3084 3684 2787 
Q 3425 2491 3425 1978 
L 3425 0 
L 2847 0 
L 2847 2094 
Q 2847 2600 2669 2842 
Q 2491 3084 2119 3084 
Q 1678 3084 1418 2786 
Q 1159 2488 1159 1978 
L 1159 0 
L 581 0 
L 581 3500 
L 1159 3500 
L 1159 2956 
Q 1356 3278 1631 3431 
Q 1906 3584 2284 3584 
Q 2666 3584 2933 3390 
Q 3200 3197 3328 2828 
z
" id="DejaVuSans-6d" transform="scale(0.015625)"/>
       <path d="M 3116 1747 
Q 3116 2381 2855 2742 
Q 2594 3103 2138 3103 
Q 1681 3103 1420 2742 
Q 1159 2381 1159 1747 
Q 1159 1113 1420 752 
Q 1681 391 2138 391 
Q 2594 391 2855 752 
Q 3116 1113 3116 1747 
z
M 1159 2969 
Q 1341 3281 1617 3432 
Q 1894 3584 2278 3584 
Q 2916 3584 3314 3078 
Q 3713 2572 3713 1747 
Q 3713 922 3314 415 
Q 2916 -91 2278 -91 
Q 1894 -91 1617 61 
Q 1341 213 1159 525 
L 1159 0 
L 581 0 
L 581 4863 
L 1159 4863 
L 1159 2969 
z
" id="DejaVuSans-62" transform="scale(0.015625)"/>
       <path d="M 3597 1894 
L 3597 1613 
L 953 1613 
Q 991 1019 1311 708 
Q 1631 397 2203 397 
Q 2534 397 2845 478 
Q 3156 559 3463 722 
L 3463 178 
Q 3153 47 2828 -22 
Q 2503 -91 2169 -91 
Q 1331 -91 842 396 
Q 353 884 353 1716 
Q 353 2575 817 3079 
Q 1281 3584 2069 3584 
Q 2775 3584 3186 3129 
Q 3597 2675 3597 1894 
z
M 3022 2063 
Q 3016 2534 2758 2815 
Q 2500 3097 2075 3097 
Q 1594 3097 1305 2825 
Q 1016 2553 972 2059 
L 3022 2063 
z
" id="DejaVuSans-65" transform="scale(0.015625)"/>
       <path d="M 2631 2963 
Q 2534 3019 2420 3045 
Q 2306 3072 2169 3072 
Q 1681 3072 1420 2755 
Q 1159 2438 1159 1844 
L 1159 0 
L 581 0 
L 581 3500 
L 1159 3500 
L 1159 2956 
Q 1341 3275 1631 3429 
Q 1922 3584 2338 3584 
Q 2397 3584 2469 3576 
Q 2541 3569 2628 3553 
L 2631 2963 
z
" id="DejaVuSans-72" transform="scale(0.015625)"/>
      </defs>
      <use xlink:href="#DejaVuSans-45"/>
      <use x="63.183594" xlink:href="#DejaVuSans-70"/>
      <use x="126.660156" xlink:href="#DejaVuSans-6f"/>
      <use x="187.841797" xlink:href="#DejaVuSans-63"/>
      <use x="242.822266" xlink:href="#DejaVuSans-68"/>
      <use x="306.201172" xlink:href="#DejaVuSans-20"/>
      <use x="337.988281" xlink:href="#DejaVuSans-6e"/>
      <use x="401.367188" xlink:href="#DejaVuSans-75"/>
      <use x="464.746094" xlink:href="#DejaVuSans-6d"/>
      <use x="562.158203" xlink:href="#DejaVuSans-62"/>
      <use x="625.634766" xlink:href="#DejaVuSans-65"/>
      <use x="687.158203" xlink:href="#DejaVuSans-72"/>
     </g>
    </g>
   </g>
   <g id="matplotlib.axis_2">
    <g id="ytick_1">
     <g id="line2d_13">
      <path clip-path="url(#p05b1d61bf1)" d="M 45.716875 220.216288 
L 492.116875 220.216288 
" style="fill:none;stroke:#ffffff;stroke-linecap:square;stroke-width:0.8;"/>
     </g>
     <g id="line2d_14">
      <defs>
       <path d="M 0 0 
L -3.5 0 
" id="mfccde98b85" style="stroke:#555555;stroke-width:0.8;"/>
      </defs>
      <g>
       <use style="fill:#555555;stroke:#555555;stroke-width:0.8;" x="45.716875" xlink:href="#mfccde98b85" y="220.216288"/>
      </g>
     </g>
     <g id="text_8">
      <!-- 0.2 -->
      <g style="fill:#555555;" transform="translate(22.81375 224.015507)scale(0.1 -0.1)">
       <defs>
        <path d="M 684 794 
L 1344 794 
L 1344 0 
L 684 0 
L 684 794 
z
" id="DejaVuSans-2e" transform="scale(0.015625)"/>
       </defs>
       <use xlink:href="#DejaVuSans-30"/>
       <use x="63.623047" xlink:href="#DejaVuSans-2e"/>
       <use x="95.410156" xlink:href="#DejaVuSans-32"/>
      </g>
     </g>
    </g>
    <g id="ytick_2">
     <g id="line2d_15">
      <path clip-path="url(#p05b1d61bf1)" d="M 45.716875 191.105011 
L 492.116875 191.105011 
" style="fill:none;stroke:#ffffff;stroke-linecap:square;stroke-width:0.8;"/>
     </g>
     <g id="line2d_16">
      <g>
       <use style="fill:#555555;stroke:#555555;stroke-width:0.8;" x="45.716875" xlink:href="#mfccde98b85" y="191.105011"/>
      </g>
     </g>
     <g id="text_9">
      <!-- 0.4 -->
      <g style="fill:#555555;" transform="translate(22.81375 194.90423)scale(0.1 -0.1)">
       <use xlink:href="#DejaVuSans-30"/>
       <use x="63.623047" xlink:href="#DejaVuSans-2e"/>
       <use x="95.410156" xlink:href="#DejaVuSans-34"/>
      </g>
     </g>
    </g>
    <g id="ytick_3">
     <g id="line2d_17">
      <path clip-path="url(#p05b1d61bf1)" d="M 45.716875 161.993734 
L 492.116875 161.993734 
" style="fill:none;stroke:#ffffff;stroke-linecap:square;stroke-width:0.8;"/>
     </g>
     <g id="line2d_18">
      <g>
       <use style="fill:#555555;stroke:#555555;stroke-width:0.8;" x="45.716875" xlink:href="#mfccde98b85" y="161.993734"/>
      </g>
     </g>
     <g id="text_10">
      <!-- 0.6 -->
      <g style="fill:#555555;" transform="translate(22.81375 165.792953)scale(0.1 -0.1)">
       <use xlink:href="#DejaVuSans-30"/>
       <use x="63.623047" xlink:href="#DejaVuSans-2e"/>
       <use x="95.410156" xlink:href="#DejaVuSans-36"/>
      </g>
     </g>
    </g>
    <g id="ytick_4">
     <g id="line2d_19">
      <path clip-path="url(#p05b1d61bf1)" d="M 45.716875 132.882457 
L 492.116875 132.882457 
" style="fill:none;stroke:#ffffff;stroke-linecap:square;stroke-width:0.8;"/>
     </g>
     <g id="line2d_20">
      <g>
       <use style="fill:#555555;stroke:#555555;stroke-width:0.8;" x="45.716875" xlink:href="#mfccde98b85" y="132.882457"/>
      </g>
     </g>
     <g id="text_11">
      <!-- 0.8 -->
      <g style="fill:#555555;" transform="translate(22.81375 136.681676)scale(0.1 -0.1)">
       <use xlink:href="#DejaVuSans-30"/>
       <use x="63.623047" xlink:href="#DejaVuSans-2e"/>
       <use x="95.410156" xlink:href="#DejaVuSans-38"/>
      </g>
     </g>
    </g>
    <g id="ytick_5">
     <g id="line2d_21">
      <path clip-path="url(#p05b1d61bf1)" d="M 45.716875 103.77118 
L 492.116875 103.77118 
" style="fill:none;stroke:#ffffff;stroke-linecap:square;stroke-width:0.8;"/>
     </g>
     <g id="line2d_22">
      <g>
       <use style="fill:#555555;stroke:#555555;stroke-width:0.8;" x="45.716875" xlink:href="#mfccde98b85" y="103.77118"/>
      </g>
     </g>
     <g id="text_12">
      <!-- 1.0 -->
      <g style="fill:#555555;" transform="translate(22.81375 107.570399)scale(0.1 -0.1)">
       <use xlink:href="#DejaVuSans-31"/>
       <use x="63.623047" xlink:href="#DejaVuSans-2e"/>
       <use x="95.410156" xlink:href="#DejaVuSans-30"/>
      </g>
     </g>
    </g>
    <g id="ytick_6">
     <g id="line2d_23">
      <path clip-path="url(#p05b1d61bf1)" d="M 45.716875 74.659903 
L 492.116875 74.659903 
" style="fill:none;stroke:#ffffff;stroke-linecap:square;stroke-width:0.8;"/>
     </g>
     <g id="line2d_24">
      <g>
       <use style="fill:#555555;stroke:#555555;stroke-width:0.8;" x="45.716875" xlink:href="#mfccde98b85" y="74.659903"/>
      </g>
     </g>
     <g id="text_13">
      <!-- 1.2 -->
      <g style="fill:#555555;" transform="translate(22.81375 78.459122)scale(0.1 -0.1)">
       <use xlink:href="#DejaVuSans-31"/>
       <use x="63.623047" xlink:href="#DejaVuSans-2e"/>
       <use x="95.410156" xlink:href="#DejaVuSans-32"/>
      </g>
     </g>
    </g>
    <g id="ytick_7">
     <g id="line2d_25">
      <path clip-path="url(#p05b1d61bf1)" d="M 45.716875 45.548626 
L 492.116875 45.548626 
" style="fill:none;stroke:#ffffff;stroke-linecap:square;stroke-width:0.8;"/>
     </g>
     <g id="line2d_26">
      <g>
       <use style="fill:#555555;stroke:#555555;stroke-width:0.8;" x="45.716875" xlink:href="#mfccde98b85" y="45.548626"/>
      </g>
     </g>
     <g id="text_14">
      <!-- 1.4 -->
      <g style="fill:#555555;" transform="translate(22.81375 49.347845)scale(0.1 -0.1)">
       <use xlink:href="#DejaVuSans-31"/>
       <use x="63.623047" xlink:href="#DejaVuSans-2e"/>
       <use x="95.410156" xlink:href="#DejaVuSans-34"/>
      </g>
     </g>
    </g>
    <g id="ytick_8">
     <g id="line2d_27">
      <path clip-path="url(#p05b1d61bf1)" d="M 45.716875 16.437349 
L 492.116875 16.437349 
" style="fill:none;stroke:#ffffff;stroke-linecap:square;stroke-width:0.8;"/>
     </g>
     <g id="line2d_28">
      <g>
       <use style="fill:#555555;stroke:#555555;stroke-width:0.8;" x="45.716875" xlink:href="#mfccde98b85" y="16.437349"/>
      </g>
     </g>
     <g id="text_15">
      <!-- 1.6 -->
      <g style="fill:#555555;" transform="translate(22.81375 20.236568)scale(0.1 -0.1)">
       <use xlink:href="#DejaVuSans-31"/>
       <use x="63.623047" xlink:href="#DejaVuSans-2e"/>
       <use x="95.410156" xlink:href="#DejaVuSans-36"/>
      </g>
     </g>
    </g>
    <g id="text_16">
     <!-- Error -->
     <g style="fill:#555555;" transform="translate(16.318125 130.542187)rotate(-90)scale(0.12 -0.12)">
      <use xlink:href="#DejaVuSans-45"/>
      <use x="63.183594" xlink:href="#DejaVuSans-72"/>
      <use x="102.546875" xlink:href="#DejaVuSans-72"/>
      <use x="141.410156" xlink:href="#DejaVuSans-6f"/>
      <use x="202.591797" xlink:href="#DejaVuSans-72"/>
     </g>
    </g>
   </g>
   <g id="line2d_29">
    <path clip-path="url(#p05b1d61bf1)" d="M 66.007784 17.423597 
L 70.106958 58.919821 
L 74.206131 74.521631 
L 78.305305 84.673978 
L 82.404478 92.169229 
L 86.503652 98.848201 
L 90.602825 104.509579 
L 94.701999 109.486171 
L 98.801173 114.496413 
L 102.900346 118.830822 
L 106.99952 122.634893 
L 111.098693 126.286971 
L 115.197867 129.595135 
L 119.29704 132.665629 
L 123.396214 135.495313 
L 127.495387 138.139509 
L 131.594561 140.496441 
L 135.693735 143.028224 
L 139.792908 145.153258 
L 143.892082 147.148586 
L 147.991255 149.189569 
L 152.090429 150.930946 
L 156.189602 152.588191 
L 160.288776 154.145362 
L 164.387949 155.498786 
L 168.487123 156.907842 
L 172.586296 158.146471 
L 176.68547 159.464774 
L 180.784644 160.724528 
L 184.883817 161.877514 
L 188.982991 162.986013 
L 193.082164 163.863785 
L 197.181338 164.908766 
L 201.280511 165.777025 
L 205.379685 166.817157 
L 209.478858 167.638181 
L 213.578032 168.473665 
L 217.677206 169.21764 
L 221.776379 170.037201 
L 225.875553 170.803676 
L 229.974726 171.382237 
L 234.0739 172.152867 
L 238.173073 172.538249 
L 242.272247 173.416056 
L 246.37142 174.015483 
L 250.470594 174.556698 
L 254.569768 175.079765 
L 258.668941 175.736487 
L 262.768115 176.159986 
L 266.867288 177.011553 
L 270.966462 177.298648 
L 275.065635 177.925684 
L 279.164809 178.154802 
L 283.263982 178.749018 
L 287.363156 179.155573 
L 291.46233 179.681001 
L 295.561503 179.942666 
L 299.660677 180.518966 
L 303.75985 181.083494 
L 307.859024 181.370558 
L 311.958197 181.668818 
L 316.057371 182.067151 
L 320.156544 182.523363 
L 324.255718 182.786524 
L 328.354892 183.21109 
L 332.454065 183.482242 
L 336.553239 183.896898 
L 340.652412 183.960737 
L 344.751586 184.64622 
L 348.850759 184.669599 
L 352.949933 185.212742 
L 357.049106 185.158269 
L 361.14828 185.792464 
L 365.247454 185.935664 
L 369.346627 186.262149 
L 373.445801 186.605929 
L 377.544974 186.972877 
L 381.644148 187.07272 
L 385.743321 187.518802 
L 389.842495 187.319297 
L 393.941668 187.88792 
L 398.040842 188.192421 
L 402.140015 188.372275 
L 406.239189 188.74884 
L 410.338363 188.849539 
L 414.437536 189.152069 
L 418.53671 189.448709 
L 422.635883 189.694023 
L 426.735057 189.975991 
L 430.83423 190.028429 
L 434.933404 190.368235 
L 439.032577 190.39496 
L 443.131751 190.630796 
L 447.230925 190.809889 
L 451.330098 190.952893 
L 455.429272 191.320776 
L 459.528445 191.439259 
L 463.627619 191.696398 
L 467.726792 191.966642 
L 471.825966 192.177813 
" style="fill:none;stroke:#ff0000;stroke-linecap:square;stroke-width:1.5;"/>
   </g>
   <g id="line2d_30">
    <path clip-path="url(#p05b1d61bf1)" d="M 66.007784 48.295851 
L 70.106958 80.879756 
L 74.206131 97.719359 
L 78.305305 108.910259 
L 82.404478 118.912936 
L 86.503652 125.935612 
L 90.602825 132.904414 
L 94.701999 138.097925 
L 98.801173 142.502701 
L 102.900346 146.434994 
L 106.99952 150.042093 
L 111.098693 152.527375 
L 115.197867 155.473411 
L 119.29704 157.741563 
L 123.396214 160.238077 
L 127.495387 162.403256 
L 131.594561 164.110144 
L 135.693735 165.86408 
L 139.792908 167.456238 
L 143.892082 168.88205 
L 147.991255 170.061339 
L 152.090429 171.269599 
L 156.189602 172.613377 
L 160.288776 173.279983 
L 164.387949 174.51663 
L 168.487123 175.814156 
L 172.586296 176.646206 
L 176.68547 177.943344 
L 180.784644 178.841483 
L 184.883817 179.349136 
L 188.982991 179.766528 
L 193.082164 181.011232 
L 197.181338 181.789329 
L 201.280511 182.361221 
L 205.379685 183.518851 
L 209.478858 183.767147 
L 213.578032 184.444802 
L 217.677206 184.995976 
L 221.776379 185.526327 
L 225.875553 186.57899 
L 229.974726 186.815934 
L 234.0739 187.296542 
L 238.173073 187.757212 
L 242.272247 188.848919 
L 246.37142 188.893217 
L 250.470594 189.775005 
L 254.569768 190.077549 
L 258.668941 190.616655 
L 262.768115 190.949062 
L 266.867288 191.507746 
L 270.966462 191.687744 
L 275.065635 192.416955 
L 279.164809 192.595465 
L 283.263982 193.329128 
L 287.363156 192.916858 
L 291.46233 193.643386 
L 295.561503 194.210239 
L 299.660677 194.463508 
L 303.75985 195.067711 
L 307.859024 195.540811 
L 311.958197 195.782304 
L 316.057371 196.321582 
L 320.156544 195.962629 
L 324.255718 196.597157 
L 328.354892 196.64476 
L 332.454065 197.227928 
L 336.553239 197.910121 
L 340.652412 197.859321 
L 344.751586 198.013925 
L 348.850759 198.221692 
L 352.949933 199.123951 
L 357.049106 199.551249 
L 361.14828 199.651413 
L 365.247454 200.135389 
L 369.346627 200.189245 
L 373.445801 200.588189 
L 377.544974 200.728242 
L 381.644148 200.640529 
L 385.743321 201.096448 
L 389.842495 201.646535 
L 393.941668 201.848557 
L 398.040842 202.23776 
L 402.140015 202.123807 
L 406.239189 202.09227 
L 410.338363 202.876917 
L 414.437536 203.027903 
L 418.53671 202.954727 
L 422.635883 203.710023 
L 426.735057 203.83656 
L 430.83423 203.724182 
L 434.933404 203.96224 
L 439.032577 203.986032 
L 443.131751 204.224818 
L 447.230925 204.876332 
L 451.330098 204.794547 
L 455.429272 205.502649 
L 459.528445 205.655861 
L 463.627619 205.662821 
L 467.726792 205.900471 
L 471.825966 206.05876 
" style="fill:none;stroke:#0000ff;stroke-linecap:square;stroke-width:1.5;"/>
   </g>
   <g id="line2d_31">
    <path clip-path="url(#p05b1d61bf1)" d="M 66.007784 51.469449 
L 70.106958 84.372659 
L 74.206131 103.197412 
L 78.305305 116.522861 
L 82.404478 126.893038 
L 86.503652 135.355317 
L 90.602825 141.999096 
L 94.701999 147.466536 
L 98.801173 152.173694 
L 102.900346 155.620993 
L 106.99952 158.277333 
L 111.098693 162.532266 
L 115.197867 164.306092 
L 119.29704 167.102578 
L 123.396214 169.815823 
L 127.495387 171.634302 
L 131.594561 173.709535 
L 135.693735 174.584102 
L 139.792908 176.604902 
L 143.892082 177.927625 
L 147.991255 178.872743 
L 152.090429 180.742703 
L 156.189602 181.543818 
L 160.288776 182.168211 
L 164.387949 183.57154 
L 168.487123 184.423191 
L 172.586296 185.756756 
L 176.68547 186.379599 
L 180.784644 186.751802 
L 184.883817 188.034964 
L 188.982991 188.603962 
L 193.082164 189.891091 
L 197.181338 189.80865 
L 201.280511 190.847084 
L 205.379685 191.560131 
L 209.478858 192.021689 
L 213.578032 192.4763 
L 217.677206 193.044339 
L 221.776379 194.324312 
L 225.875553 194.187604 
L 229.974726 194.786488 
L 234.0739 195.731193 
L 238.173073 195.080723 
L 242.272247 195.881092 
L 246.37142 196.7252 
L 250.470594 197.853767 
L 254.569768 198.324657 
L 258.668941 198.349076 
L 262.768115 199.472775 
L 266.867288 198.737415 
L 270.966462 199.924309 
L 275.065635 200.00856 
L 279.164809 200.627101 
L 283.263982 201.253543 
L 287.363156 201.33721 
L 291.46233 201.331177 
L 295.561503 202.540982 
L 299.660677 202.717705 
L 303.75985 203.158918 
L 307.859024 202.510897 
L 311.958197 202.806081 
L 316.057371 203.400876 
L 320.156544 204.522581 
L 324.255718 204.426969 
L 328.354892 204.795421 
L 332.454065 206.090023 
L 336.553239 205.520129 
L 340.652412 205.816193 
L 344.751586 206.537917 
L 348.850759 206.790669 
L 352.949933 206.77505 
L 357.049106 207.144146 
L 361.14828 207.561098 
L 365.247454 208.242565 
L 369.346627 207.851564 
L 373.445801 208.537524 
L 377.544974 208.884634 
L 381.644148 208.96576 
L 385.743321 209.381803 
L 389.842495 209.216683 
L 393.941668 209.534095 
L 398.040842 209.816379 
L 402.140015 210.808213 
L 406.239189 210.9832 
L 410.338363 210.559225 
L 414.437536 211.218556 
L 418.53671 211.699791 
L 422.635883 211.713604 
L 426.735057 212.465181 
L 430.83423 212.346682 
L 434.933404 212.461029 
L 439.032577 212.623267 
L 443.131751 212.821137 
L 447.230925 213.640061 
L 451.330098 213.264058 
L 455.429272 213.695385 
L 459.528445 213.492411 
L 463.627619 214.674689 
L 467.726792 214.02847 
L 471.825966 214.756364 
" style="fill:none;stroke:#800080;stroke-linecap:square;stroke-width:1.5;"/>
   </g>
   <g id="line2d_32">
    <path clip-path="url(#p05b1d61bf1)" d="M 66.007784 17.083636 
L 70.106958 58.275932 
L 74.206131 73.49714 
L 78.305305 83.017274 
L 82.404478 90.113584 
L 86.503652 96.398918 
L 90.602825 101.806658 
L 94.701999 106.354585 
L 98.801173 111.012042 
L 102.900346 115.190396 
L 106.99952 118.615002 
L 111.098693 122.095521 
L 115.197867 125.063904 
L 119.29704 127.884894 
L 123.396214 130.504315 
L 127.495387 132.74663 
L 131.594561 135.107749 
L 135.693735 137.156847 
L 139.792908 139.260346 
L 143.892082 140.988014 
L 147.991255 142.800473 
L 152.090429 144.369114 
L 156.189602 145.901867 
L 160.288776 147.23913 
L 164.387949 148.329835 
L 168.487123 149.627253 
L 172.586296 150.583091 
L 176.68547 151.663648 
L 180.784644 152.910952 
L 184.883817 153.726239 
L 188.982991 154.647053 
L 193.082164 155.205342 
L 197.181338 156.373873 
L 201.280511 156.839713 
L 205.379685 157.846199 
L 209.478858 158.385053 
L 213.578032 159.144827 
L 217.677206 159.756548 
L 221.776379 160.334702 
L 225.875553 160.911469 
L 229.974726 161.434246 
L 234.0739 161.792946 
L 238.173073 162.267405 
L 242.272247 162.780685 
L 246.37142 163.208354 
L 250.470594 163.766196 
L 254.569768 164.015143 
L 258.668941 164.511752 
L 262.768115 164.77464 
L 266.867288 165.396128 
L 270.966462 165.416119 
L 275.065635 165.848588 
L 279.164809 165.972246 
L 283.263982 166.524328 
L 287.363156 166.557732 
L 291.46233 166.949735 
L 295.561503 166.880916 
L 299.660677 167.439748 
L 303.75985 167.816011 
L 307.859024 167.883101 
L 311.958197 168.064892 
L 316.057371 168.403856 
L 320.156544 168.594126 
L 324.255718 168.569401 
L 328.354892 168.87963 
L 332.454065 169.007499 
L 336.553239 169.364916 
L 340.652412 169.260159 
L 344.751586 169.700749 
L 348.850759 169.717374 
L 352.949933 169.975254 
L 357.049106 169.93627 
L 361.14828 170.375755 
L 365.247454 170.154253 
L 369.346627 170.271456 
L 373.445801 170.583042 
L 377.544974 170.89922 
L 381.644148 170.790361 
L 385.743321 171.083902 
L 389.842495 170.656996 
L 393.941668 170.920316 
L 398.040842 171.286394 
L 402.140015 171.195248 
L 406.239189 171.539206 
L 410.338363 171.425648 
L 414.437536 171.515692 
L 418.53671 171.835555 
L 422.635883 171.753851 
L 426.735057 171.913229 
L 430.83423 171.69142 
L 434.933404 171.921639 
L 439.032577 171.77737 
L 443.131751 172.018289 
L 447.230925 172.038565 
L 451.330098 171.78872 
L 455.429272 172.096639 
L 459.528445 172.046072 
L 463.627619 172.237999 
L 467.726792 172.443729 
L 471.825966 172.336189 
" style="fill:none;stroke:#808080;stroke-dasharray:5.55,2.4;stroke-dashoffset:0;stroke-width:1.5;"/>
   </g>
   <g id="line2d_33">
    <path clip-path="url(#p05b1d61bf1)" d="M 66.007784 47.66623 
L 70.106958 79.781244 
L 74.206131 96.257057 
L 78.305305 106.649197 
L 82.404478 116.286195 
L 86.503652 122.988015 
L 90.602825 129.573812 
L 94.701999 134.360188 
L 98.801173 138.248383 
L 102.900346 142.032671 
L 106.99952 145.315556 
L 111.098693 147.269922 
L 115.197867 149.875692 
L 119.29704 151.528403 
L 123.396214 154.013115 
L 127.495387 155.758124 
L 131.594561 157.150316 
L 135.693735 158.456551 
L 139.792908 159.611887 
L 143.892082 160.865152 
L 147.991255 161.471394 
L 152.090429 162.349941 
L 156.189602 163.226925 
L 160.288776 163.754882 
L 164.387949 164.483149 
L 168.487123 165.56365 
L 172.586296 166.327673 
L 176.68547 166.905941 
L 180.784644 167.467135 
L 184.883817 167.857147 
L 188.982991 167.864846 
L 193.082164 168.786171 
L 197.181338 169.461967 
L 201.280511 169.616339 
L 205.379685 170.317395 
L 209.478858 170.629444 
L 213.578032 170.889093 
L 217.677206 170.716138 
L 221.776379 171.232425 
L 225.875553 171.827112 
L 229.974726 171.639873 
L 234.0739 172.083821 
L 238.173073 171.950886 
L 242.272247 172.821207 
L 246.37142 172.912284 
L 250.470594 173.185238 
L 254.569768 173.281376 
L 258.668941 173.314696 
L 262.768115 173.672592 
L 266.867288 173.880417 
L 270.966462 173.784649 
L 275.065635 174.281471 
L 279.164809 174.184048 
L 283.263982 174.487977 
L 287.363156 174.030677 
L 291.46233 174.479952 
L 295.561503 174.415261 
L 299.660677 174.478962 
L 303.75985 174.981237 
L 307.859024 174.777741 
L 311.958197 175.102671 
L 316.057371 175.49376 
L 320.156544 174.569576 
L 324.255718 175.077465 
L 328.354892 174.945421 
L 332.454065 175.092934 
L 336.553239 175.652689 
L 340.652412 175.170808 
L 344.751586 175.196972 
L 348.850759 175.00837 
L 352.949933 175.519764 
L 357.049106 175.857363 
L 361.14828 175.627682 
L 365.247454 175.675074 
L 369.346627 175.482155 
L 373.445801 176.029696 
L 377.544974 175.563387 
L 381.644148 175.074623 
L 385.743321 175.335621 
L 389.842495 175.774994 
L 393.941668 175.666652 
L 398.040842 175.689205 
L 402.140015 175.349706 
L 406.239189 175.000454 
L 410.338363 175.535683 
L 414.437536 175.523622 
L 418.53671 175.165986 
L 422.635883 175.83297 
L 426.735057 175.739943 
L 430.83423 174.852895 
L 434.933404 175.106833 
L 439.032577 174.618497 
L 443.131751 174.458816 
L 447.230925 175.192144 
L 451.330098 174.521982 
L 455.429272 175.089072 
L 459.528445 175.058229 
L 463.627619 174.85963 
L 467.726792 174.37657 
L 471.825966 174.806725 
" style="fill:none;stroke:#ffff00;stroke-dasharray:5.55,2.4;stroke-dashoffset:0;stroke-width:1.5;"/>
   </g>
   <g id="line2d_34">
    <path clip-path="url(#p05b1d61bf1)" d="M 66.007784 51.336846 
L 70.106958 83.845977 
L 74.206131 102.157197 
L 78.305305 114.675109 
L 82.404478 124.550133 
L 86.503652 132.543442 
L 90.602825 138.864157 
L 94.701999 143.687617 
L 98.801173 148.244191 
L 102.900346 151.534604 
L 106.99952 153.571941 
L 111.098693 157.257852 
L 115.197867 158.24216 
L 119.29704 161.030392 
L 123.396214 163.149038 
L 127.495387 164.572443 
L 131.594561 166.113551 
L 135.693735 166.435465 
L 139.792908 167.880506 
L 143.892082 169.255369 
L 147.991255 169.35708 
L 152.090429 171.187435 
L 156.189602 171.140496 
L 160.288776 171.572478 
L 164.387949 172.259064 
L 168.487123 172.774049 
L 172.586296 173.531253 
L 176.68547 173.638948 
L 180.784644 173.921381 
L 184.883817 174.41599 
L 188.982991 174.412896 
L 193.082164 175.072068 
L 197.181338 174.879593 
L 201.280511 175.593633 
L 205.379685 176.236068 
L 209.478858 175.981958 
L 213.578032 175.852185 
L 217.677206 175.93994 
L 221.776379 176.583182 
L 225.875553 175.896172 
L 229.974726 176.579301 
L 234.0739 177.322097 
L 238.173073 176.196043 
L 242.272247 176.382308 
L 246.37142 176.998629 
L 250.470594 177.783768 
L 254.569768 177.925068 
L 258.668941 177.666418 
L 262.768115 178.084724 
L 266.867288 177.103189 
L 270.966462 177.750869 
L 275.065635 177.291734 
L 279.164809 177.826023 
L 283.263982 177.401307 
L 287.363156 177.578012 
L 291.46233 177.640503 
L 295.561503 177.835035 
L 299.660677 177.983521 
L 303.75985 177.783141 
L 307.859024 176.497135 
L 311.958197 176.562468 
L 316.057371 176.836421 
L 320.156544 177.424547 
L 324.255718 177.150511 
L 328.354892 177.027465 
L 332.454065 178.174565 
L 336.553239 177.3371 
L 340.652412 176.86216 
L 344.751586 177.403437 
L 348.850759 177.264112 
L 352.949933 176.505068 
L 357.049106 176.790824 
L 361.14828 177.3046 
L 365.247454 177.332218 
L 369.346627 176.280482 
L 373.445801 177.144631 
L 377.544974 176.731207 
L 381.644148 176.598242 
L 385.743321 176.53679 
L 389.842495 175.608517 
L 393.941668 175.188946 
L 398.040842 175.181908 
L 402.140015 175.788224 
L 406.239189 176.276916 
L 410.338363 175.205646 
L 414.437536 175.382957 
L 418.53671 175.863511 
L 422.635883 175.117455 
L 426.735057 175.636178 
L 430.83423 175.047764 
L 434.933404 174.505429 
L 439.032577 174.900048 
L 443.131751 174.60021 
L 447.230925 174.802068 
L 451.330098 173.604239 
L 455.429272 173.540991 
L 459.528445 173.147442 
L 463.627619 173.629242 
L 467.726792 172.883401 
L 471.825966 173.557454 
" style="fill:none;stroke:#008000;stroke-dasharray:5.55,2.4;stroke-dashoffset:0;stroke-width:1.5;"/>
   </g>
   <g id="patch_3">
    <path d="M 45.716875 224.64 
L 45.716875 7.2 
" style="fill:none;stroke:#ffffff;stroke-linecap:square;stroke-linejoin:miter;"/>
   </g>
   <g id="patch_4">
    <path d="M 492.116875 224.64 
L 492.116875 7.2 
" style="fill:none;stroke:#ffffff;stroke-linecap:square;stroke-linejoin:miter;"/>
   </g>
   <g id="patch_5">
    <path d="M 45.716875 224.64 
L 492.116875 224.64 
" style="fill:none;stroke:#ffffff;stroke-linecap:square;stroke-linejoin:miter;"/>
   </g>
   <g id="patch_6">
    <path d="M 45.716875 7.2 
L 492.116875 7.2 
" style="fill:none;stroke:#ffffff;stroke-linecap:square;stroke-linejoin:miter;"/>
   </g>
   <g id="legend_1">
    <g id="patch_7">
     <path d="M 382.71375 103.26875 
L 485.116875 103.26875 
Q 487.116875 103.26875 487.116875 101.26875 
L 487.116875 14.2 
Q 487.116875 12.2 485.116875 12.2 
L 382.71375 12.2 
Q 380.71375 12.2 380.71375 14.2 
L 380.71375 101.26875 
Q 380.71375 103.26875 382.71375 103.26875 
z
" style="fill:#e5e5e5;opacity:0.8;stroke:#cccccc;stroke-linejoin:miter;stroke-width:0.5;"/>
    </g>
    <g id="line2d_35">
     <path d="M 384.71375 20.298437 
L 404.71375 20.298437 
" style="fill:none;stroke:#ff0000;stroke-linecap:square;stroke-width:1.5;"/>
    </g>
    <g id="line2d_36"/>
    <g id="text_17">
     <!-- depth 1(train) -->
     <g transform="translate(412.71375 23.798437)scale(0.1 -0.1)">
      <defs>
       <path d="M 2906 2969 
L 2906 4863 
L 3481 4863 
L 3481 0 
L 2906 0 
L 2906 525 
Q 2725 213 2448 61 
Q 2172 -91 1784 -91 
Q 1150 -91 751 415 
Q 353 922 353 1747 
Q 353 2572 751 3078 
Q 1150 3584 1784 3584 
Q 2172 3584 2448 3432 
Q 2725 3281 2906 2969 
z
M 947 1747 
Q 947 1113 1208 752 
Q 1469 391 1925 391 
Q 2381 391 2643 752 
Q 2906 1113 2906 1747 
Q 2906 2381 2643 2742 
Q 2381 3103 1925 3103 
Q 1469 3103 1208 2742 
Q 947 2381 947 1747 
z
" id="DejaVuSans-64" transform="scale(0.015625)"/>
       <path d="M 1172 4494 
L 1172 3500 
L 2356 3500 
L 2356 3053 
L 1172 3053 
L 1172 1153 
Q 1172 725 1289 603 
Q 1406 481 1766 481 
L 2356 481 
L 2356 0 
L 1766 0 
Q 1100 0 847 248 
Q 594 497 594 1153 
L 594 3053 
L 172 3053 
L 172 3500 
L 594 3500 
L 594 4494 
L 1172 4494 
z
" id="DejaVuSans-74" transform="scale(0.015625)"/>
       <path d="M 1984 4856 
Q 1566 4138 1362 3434 
Q 1159 2731 1159 2009 
Q 1159 1288 1364 580 
Q 1569 -128 1984 -844 
L 1484 -844 
Q 1016 -109 783 600 
Q 550 1309 550 2009 
Q 550 2706 781 3412 
Q 1013 4119 1484 4856 
L 1984 4856 
z
" id="DejaVuSans-28" transform="scale(0.015625)"/>
       <path d="M 2194 1759 
Q 1497 1759 1228 1600 
Q 959 1441 959 1056 
Q 959 750 1161 570 
Q 1363 391 1709 391 
Q 2188 391 2477 730 
Q 2766 1069 2766 1631 
L 2766 1759 
L 2194 1759 
z
M 3341 1997 
L 3341 0 
L 2766 0 
L 2766 531 
Q 2569 213 2275 61 
Q 1981 -91 1556 -91 
Q 1019 -91 701 211 
Q 384 513 384 1019 
Q 384 1609 779 1909 
Q 1175 2209 1959 2209 
L 2766 2209 
L 2766 2266 
Q 2766 2663 2505 2880 
Q 2244 3097 1772 3097 
Q 1472 3097 1187 3025 
Q 903 2953 641 2809 
L 641 3341 
Q 956 3463 1253 3523 
Q 1550 3584 1831 3584 
Q 2591 3584 2966 3190 
Q 3341 2797 3341 1997 
z
" id="DejaVuSans-61" transform="scale(0.015625)"/>
       <path d="M 603 3500 
L 1178 3500 
L 1178 0 
L 603 0 
L 603 3500 
z
M 603 4863 
L 1178 4863 
L 1178 4134 
L 603 4134 
L 603 4863 
z
" id="DejaVuSans-69" transform="scale(0.015625)"/>
       <path d="M 513 4856 
L 1013 4856 
Q 1481 4119 1714 3412 
Q 1947 2706 1947 2009 
Q 1947 1309 1714 600 
Q 1481 -109 1013 -844 
L 513 -844 
Q 928 -128 1133 580 
Q 1338 1288 1338 2009 
Q 1338 2731 1133 3434 
Q 928 4138 513 4856 
z
" id="DejaVuSans-29" transform="scale(0.015625)"/>
      </defs>
      <use xlink:href="#DejaVuSans-64"/>
      <use x="63.476562" xlink:href="#DejaVuSans-65"/>
      <use x="125" xlink:href="#DejaVuSans-70"/>
      <use x="188.476562" xlink:href="#DejaVuSans-74"/>
      <use x="227.685547" xlink:href="#DejaVuSans-68"/>
      <use x="291.064453" xlink:href="#DejaVuSans-20"/>
      <use x="322.851562" xlink:href="#DejaVuSans-31"/>
      <use x="386.474609" xlink:href="#DejaVuSans-28"/>
      <use x="425.488281" xlink:href="#DejaVuSans-74"/>
      <use x="464.697266" xlink:href="#DejaVuSans-72"/>
      <use x="505.810547" xlink:href="#DejaVuSans-61"/>
      <use x="567.089844" xlink:href="#DejaVuSans-69"/>
      <use x="594.873047" xlink:href="#DejaVuSans-6e"/>
      <use x="658.251953" xlink:href="#DejaVuSans-29"/>
     </g>
    </g>
    <g id="line2d_37">
     <path d="M 384.71375 34.976562 
L 404.71375 34.976562 
" style="fill:none;stroke:#0000ff;stroke-linecap:square;stroke-width:1.5;"/>
    </g>
    <g id="line2d_38"/>
    <g id="text_18">
     <!-- depth 2(train) -->
     <g transform="translate(412.71375 38.476562)scale(0.1 -0.1)">
      <use xlink:href="#DejaVuSans-64"/>
      <use x="63.476562" xlink:href="#DejaVuSans-65"/>
      <use x="125" xlink:href="#DejaVuSans-70"/>
      <use x="188.476562" xlink:href="#DejaVuSans-74"/>
      <use x="227.685547" xlink:href="#DejaVuSans-68"/>
      <use x="291.064453" xlink:href="#DejaVuSans-20"/>
      <use x="322.851562" xlink:href="#DejaVuSans-32"/>
      <use x="386.474609" xlink:href="#DejaVuSans-28"/>
      <use x="425.488281" xlink:href="#DejaVuSans-74"/>
      <use x="464.697266" xlink:href="#DejaVuSans-72"/>
      <use x="505.810547" xlink:href="#DejaVuSans-61"/>
      <use x="567.089844" xlink:href="#DejaVuSans-69"/>
      <use x="594.873047" xlink:href="#DejaVuSans-6e"/>
      <use x="658.251953" xlink:href="#DejaVuSans-29"/>
     </g>
    </g>
    <g id="line2d_39">
     <path d="M 384.71375 49.654687 
L 404.71375 49.654687 
" style="fill:none;stroke:#800080;stroke-linecap:square;stroke-width:1.5;"/>
    </g>
    <g id="line2d_40"/>
    <g id="text_19">
     <!-- depth 3(train) -->
     <g transform="translate(412.71375 53.154687)scale(0.1 -0.1)">
      <defs>
       <path d="M 2597 2516 
Q 3050 2419 3304 2112 
Q 3559 1806 3559 1356 
Q 3559 666 3084 287 
Q 2609 -91 1734 -91 
Q 1441 -91 1130 -33 
Q 819 25 488 141 
L 488 750 
Q 750 597 1062 519 
Q 1375 441 1716 441 
Q 2309 441 2620 675 
Q 2931 909 2931 1356 
Q 2931 1769 2642 2001 
Q 2353 2234 1838 2234 
L 1294 2234 
L 1294 2753 
L 1863 2753 
Q 2328 2753 2575 2939 
Q 2822 3125 2822 3475 
Q 2822 3834 2567 4026 
Q 2313 4219 1838 4219 
Q 1578 4219 1281 4162 
Q 984 4106 628 3988 
L 628 4550 
Q 988 4650 1302 4700 
Q 1616 4750 1894 4750 
Q 2613 4750 3031 4423 
Q 3450 4097 3450 3541 
Q 3450 3153 3228 2886 
Q 3006 2619 2597 2516 
z
" id="DejaVuSans-33" transform="scale(0.015625)"/>
      </defs>
      <use xlink:href="#DejaVuSans-64"/>
      <use x="63.476562" xlink:href="#DejaVuSans-65"/>
      <use x="125" xlink:href="#DejaVuSans-70"/>
      <use x="188.476562" xlink:href="#DejaVuSans-74"/>
      <use x="227.685547" xlink:href="#DejaVuSans-68"/>
      <use x="291.064453" xlink:href="#DejaVuSans-20"/>
      <use x="322.851562" xlink:href="#DejaVuSans-33"/>
      <use x="386.474609" xlink:href="#DejaVuSans-28"/>
      <use x="425.488281" xlink:href="#DejaVuSans-74"/>
      <use x="464.697266" xlink:href="#DejaVuSans-72"/>
      <use x="505.810547" xlink:href="#DejaVuSans-61"/>
      <use x="567.089844" xlink:href="#DejaVuSans-69"/>
      <use x="594.873047" xlink:href="#DejaVuSans-6e"/>
      <use x="658.251953" xlink:href="#DejaVuSans-29"/>
     </g>
    </g>
    <g id="line2d_41">
     <path d="M 384.71375 64.332812 
L 404.71375 64.332812 
" style="fill:none;stroke:#808080;stroke-dasharray:5.55,2.4;stroke-dashoffset:0;stroke-width:1.5;"/>
    </g>
    <g id="line2d_42"/>
    <g id="text_20">
     <!-- depth 1(valid) -->
     <g transform="translate(412.71375 67.832812)scale(0.1 -0.1)">
      <defs>
       <path d="M 191 3500 
L 800 3500 
L 1894 563 
L 2988 3500 
L 3597 3500 
L 2284 0 
L 1503 0 
L 191 3500 
z
" id="DejaVuSans-76" transform="scale(0.015625)"/>
       <path d="M 603 4863 
L 1178 4863 
L 1178 0 
L 603 0 
L 603 4863 
z
" id="DejaVuSans-6c" transform="scale(0.015625)"/>
      </defs>
      <use xlink:href="#DejaVuSans-64"/>
      <use x="63.476562" xlink:href="#DejaVuSans-65"/>
      <use x="125" xlink:href="#DejaVuSans-70"/>
      <use x="188.476562" xlink:href="#DejaVuSans-74"/>
      <use x="227.685547" xlink:href="#DejaVuSans-68"/>
      <use x="291.064453" xlink:href="#DejaVuSans-20"/>
      <use x="322.851562" xlink:href="#DejaVuSans-31"/>
      <use x="386.474609" xlink:href="#DejaVuSans-28"/>
      <use x="425.488281" xlink:href="#DejaVuSans-76"/>
      <use x="484.667969" xlink:href="#DejaVuSans-61"/>
      <use x="545.947266" xlink:href="#DejaVuSans-6c"/>
      <use x="573.730469" xlink:href="#DejaVuSans-69"/>
      <use x="601.513672" xlink:href="#DejaVuSans-64"/>
      <use x="664.990234" xlink:href="#DejaVuSans-29"/>
     </g>
    </g>
    <g id="line2d_43">
     <path d="M 384.71375 79.010937 
L 404.71375 79.010937 
" style="fill:none;stroke:#ffff00;stroke-dasharray:5.55,2.4;stroke-dashoffset:0;stroke-width:1.5;"/>
    </g>
    <g id="line2d_44"/>
    <g id="text_21">
     <!-- depth 2(valid) -->
     <g transform="translate(412.71375 82.510937)scale(0.1 -0.1)">
      <use xlink:href="#DejaVuSans-64"/>
      <use x="63.476562" xlink:href="#DejaVuSans-65"/>
      <use x="125" xlink:href="#DejaVuSans-70"/>
      <use x="188.476562" xlink:href="#DejaVuSans-74"/>
      <use x="227.685547" xlink:href="#DejaVuSans-68"/>
      <use x="291.064453" xlink:href="#DejaVuSans-20"/>
      <use x="322.851562" xlink:href="#DejaVuSans-32"/>
      <use x="386.474609" xlink:href="#DejaVuSans-28"/>
      <use x="425.488281" xlink:href="#DejaVuSans-76"/>
      <use x="484.667969" xlink:href="#DejaVuSans-61"/>
      <use x="545.947266" xlink:href="#DejaVuSans-6c"/>
      <use x="573.730469" xlink:href="#DejaVuSans-69"/>
      <use x="601.513672" xlink:href="#DejaVuSans-64"/>
      <use x="664.990234" xlink:href="#DejaVuSans-29"/>
     </g>
    </g>
    <g id="line2d_45">
     <path d="M 384.71375 93.689062 
L 404.71375 93.689062 
" style="fill:none;stroke:#008000;stroke-dasharray:5.55,2.4;stroke-dashoffset:0;stroke-width:1.5;"/>
    </g>
    <g id="line2d_46"/>
    <g id="text_22">
     <!-- depth 3(valid) -->
     <g transform="translate(412.71375 97.189062)scale(0.1 -0.1)">
      <use xlink:href="#DejaVuSans-64"/>
      <use x="63.476562" xlink:href="#DejaVuSans-65"/>
      <use x="125" xlink:href="#DejaVuSans-70"/>
      <use x="188.476562" xlink:href="#DejaVuSans-74"/>
      <use x="227.685547" xlink:href="#DejaVuSans-68"/>
      <use x="291.064453" xlink:href="#DejaVuSans-20"/>
      <use x="322.851562" xlink:href="#DejaVuSans-33"/>
      <use x="386.474609" xlink:href="#DejaVuSans-28"/>
      <use x="425.488281" xlink:href="#DejaVuSans-76"/>
      <use x="484.667969" xlink:href="#DejaVuSans-61"/>
      <use x="545.947266" xlink:href="#DejaVuSans-6c"/>
      <use x="573.730469" xlink:href="#DejaVuSans-69"/>
      <use x="601.513672" xlink:href="#DejaVuSans-64"/>
      <use x="664.990234" xlink:href="#DejaVuSans-29"/>
     </g>
    </g>
   </g>
  </g>
 </g>
 <defs>
  <clipPath id="p05b1d61bf1">
   <rect height="217.44" width="446.4" x="45.716875" y="7.2"/>
  </clipPath>
 </defs>
</svg>
