<?xml version="1.0" encoding="utf-8" standalone="no"?>
<!DOCTYPE svg PUBLIC "-//W3C//DTD SVG 1.1//EN"
  "http://www.w3.org/Graphics/SVG/1.1/DTD/svg11.dtd">
<svg height="264.131875pt" version="1.1" viewBox="0 0 617.0825 264.131875" width="617.0825pt" xmlns="http://www.w3.org/2000/svg" xmlns:xlink="http://www.w3.org/1999/xlink">
 <metadata>
  <rdf:RDF xmlns:cc="http://creativecommons.org/ns#" xmlns:dc="http://purl.org/dc/elements/1.1/" xmlns:rdf="http://www.w3.org/1999/02/22-rdf-syntax-ns#">
   <cc:Work>
    <dc:type rdf:resource="http://purl.org/dc/dcmitype/StillImage"/>
    <dc:date>2021-11-04T14:36:05.684918</dc:date>
    <dc:format>image/svg+xml</dc:format>
    <dc:creator>
     <cc:Agent>
      <dc:title>Matplotlib v3.4.2, https://matplotlib.org/</dc:title>
     </cc:Agent>
    </dc:creator>
   </cc:Work>
  </rdf:RDF>
 </metadata>
 <defs>
  <style type="text/css">*{stroke-linecap:butt;stroke-linejoin:round;}</style>
 </defs>
 <g id="figure_1">
  <g id="patch_1">
   <path d="M 0 264.131875 
L 617.0825 264.131875 
L 617.0825 0 
L 0 0 
z
" style="fill:#ffffff;"/>
  </g>
  <g id="axes_1">
   <g id="patch_2">
    <path d="M 52.079375 224.64 
L 498.479375 224.64 
L 498.479375 7.2 
L 52.079375 7.2 
z
" style="fill:#e5e5e5;"/>
   </g>
   <g id="matplotlib.axis_1">
    <g id="xtick_1">
     <g id="line2d_1">
      <path clip-path="url(#p203776f447)" d="M 68.271111 224.64 
L 68.271111 7.2 
" style="fill:none;stroke:#ffffff;stroke-linecap:square;stroke-width:0.8;"/>
     </g>
     <g id="line2d_2">
      <defs>
       <path d="M 0 0 
L 0 3.5 
" id="m39a6366345" style="stroke:#555555;stroke-width:0.8;"/>
      </defs>
      <g>
       <use style="fill:#555555;stroke:#555555;stroke-width:0.8;" x="68.271111" xlink:href="#m39a6366345" y="224.64"/>
      </g>
     </g>
     <g id="text_1">
      <!-- 0 -->
      <g style="fill:#555555;" transform="translate(65.089861 239.238437)scale(0.1 -0.1)">
       <defs>
        <path d="M 2034 4250 
Q 1547 4250 1301 3770 
Q 1056 3291 1056 2328 
Q 1056 1369 1301 889 
Q 1547 409 2034 409 
Q 2525 409 2770 889 
Q 3016 1369 3016 2328 
Q 3016 3291 2770 3770 
Q 2525 4250 2034 4250 
z
M 2034 4750 
Q 2819 4750 3233 4129 
Q 3647 3509 3647 2328 
Q 3647 1150 3233 529 
Q 2819 -91 2034 -91 
Q 1250 -91 836 529 
Q 422 1150 422 2328 
Q 422 3509 836 4129 
Q 1250 4750 2034 4750 
z
" id="DejaVuSans-30" transform="scale(0.015625)"/>
       </defs>
       <use xlink:href="#DejaVuSans-30"/>
      </g>
     </g>
    </g>
    <g id="xtick_2">
     <g id="line2d_3">
      <path clip-path="url(#p203776f447)" d="M 150.254582 224.64 
L 150.254582 7.2 
" style="fill:none;stroke:#ffffff;stroke-linecap:square;stroke-width:0.8;"/>
     </g>
     <g id="line2d_4">
      <g>
       <use style="fill:#555555;stroke:#555555;stroke-width:0.8;" x="150.254582" xlink:href="#m39a6366345" y="224.64"/>
      </g>
     </g>
     <g id="text_2">
      <!-- 20 -->
      <g style="fill:#555555;" transform="translate(143.892082 239.238437)scale(0.1 -0.1)">
       <defs>
        <path d="M 1228 531 
L 3431 531 
L 3431 0 
L 469 0 
L 469 531 
Q 828 903 1448 1529 
Q 2069 2156 2228 2338 
Q 2531 2678 2651 2914 
Q 2772 3150 2772 3378 
Q 2772 3750 2511 3984 
Q 2250 4219 1831 4219 
Q 1534 4219 1204 4116 
Q 875 4013 500 3803 
L 500 4441 
Q 881 4594 1212 4672 
Q 1544 4750 1819 4750 
Q 2544 4750 2975 4387 
Q 3406 4025 3406 3419 
Q 3406 3131 3298 2873 
Q 3191 2616 2906 2266 
Q 2828 2175 2409 1742 
Q 1991 1309 1228 531 
z
" id="DejaVuSans-32" transform="scale(0.015625)"/>
       </defs>
       <use xlink:href="#DejaVuSans-32"/>
       <use x="63.623047" xlink:href="#DejaVuSans-30"/>
      </g>
     </g>
    </g>
    <g id="xtick_3">
     <g id="line2d_5">
      <path clip-path="url(#p203776f447)" d="M 232.238053 224.64 
L 232.238053 7.2 
" style="fill:none;stroke:#ffffff;stroke-linecap:square;stroke-width:0.8;"/>
     </g>
     <g id="line2d_6">
      <g>
       <use style="fill:#555555;stroke:#555555;stroke-width:0.8;" x="232.238053" xlink:href="#m39a6366345" y="224.64"/>
      </g>
     </g>
     <g id="text_3">
      <!-- 40 -->
      <g style="fill:#555555;" transform="translate(225.875553 239.238437)scale(0.1 -0.1)">
       <defs>
        <path d="M 2419 4116 
L 825 1625 
L 2419 1625 
L 2419 4116 
z
M 2253 4666 
L 3047 4666 
L 3047 1625 
L 3713 1625 
L 3713 1100 
L 3047 1100 
L 3047 0 
L 2419 0 
L 2419 1100 
L 313 1100 
L 313 1709 
L 2253 4666 
z
" id="DejaVuSans-34" transform="scale(0.015625)"/>
       </defs>
       <use xlink:href="#DejaVuSans-34"/>
       <use x="63.623047" xlink:href="#DejaVuSans-30"/>
      </g>
     </g>
    </g>
    <g id="xtick_4">
     <g id="line2d_7">
      <path clip-path="url(#p203776f447)" d="M 314.221524 224.64 
L 314.221524 7.2 
" style="fill:none;stroke:#ffffff;stroke-linecap:square;stroke-width:0.8;"/>
     </g>
     <g id="line2d_8">
      <g>
       <use style="fill:#555555;stroke:#555555;stroke-width:0.8;" x="314.221524" xlink:href="#m39a6366345" y="224.64"/>
      </g>
     </g>
     <g id="text_4">
      <!-- 60 -->
      <g style="fill:#555555;" transform="translate(307.859024 239.238437)scale(0.1 -0.1)">
       <defs>
        <path d="M 2113 2584 
Q 1688 2584 1439 2293 
Q 1191 2003 1191 1497 
Q 1191 994 1439 701 
Q 1688 409 2113 409 
Q 2538 409 2786 701 
Q 3034 994 3034 1497 
Q 3034 2003 2786 2293 
Q 2538 2584 2113 2584 
z
M 3366 4563 
L 3366 3988 
Q 3128 4100 2886 4159 
Q 2644 4219 2406 4219 
Q 1781 4219 1451 3797 
Q 1122 3375 1075 2522 
Q 1259 2794 1537 2939 
Q 1816 3084 2150 3084 
Q 2853 3084 3261 2657 
Q 3669 2231 3669 1497 
Q 3669 778 3244 343 
Q 2819 -91 2113 -91 
Q 1303 -91 875 529 
Q 447 1150 447 2328 
Q 447 3434 972 4092 
Q 1497 4750 2381 4750 
Q 2619 4750 2861 4703 
Q 3103 4656 3366 4563 
z
" id="DejaVuSans-36" transform="scale(0.015625)"/>
       </defs>
       <use xlink:href="#DejaVuSans-36"/>
       <use x="63.623047" xlink:href="#DejaVuSans-30"/>
      </g>
     </g>
    </g>
    <g id="xtick_5">
     <g id="line2d_9">
      <path clip-path="url(#p203776f447)" d="M 396.204995 224.64 
L 396.204995 7.2 
" style="fill:none;stroke:#ffffff;stroke-linecap:square;stroke-width:0.8;"/>
     </g>
     <g id="line2d_10">
      <g>
       <use style="fill:#555555;stroke:#555555;stroke-width:0.8;" x="396.204995" xlink:href="#m39a6366345" y="224.64"/>
      </g>
     </g>
     <g id="text_5">
      <!-- 80 -->
      <g style="fill:#555555;" transform="translate(389.842495 239.238437)scale(0.1 -0.1)">
       <defs>
        <path d="M 2034 2216 
Q 1584 2216 1326 1975 
Q 1069 1734 1069 1313 
Q 1069 891 1326 650 
Q 1584 409 2034 409 
Q 2484 409 2743 651 
Q 3003 894 3003 1313 
Q 3003 1734 2745 1975 
Q 2488 2216 2034 2216 
z
M 1403 2484 
Q 997 2584 770 2862 
Q 544 3141 544 3541 
Q 544 4100 942 4425 
Q 1341 4750 2034 4750 
Q 2731 4750 3128 4425 
Q 3525 4100 3525 3541 
Q 3525 3141 3298 2862 
Q 3072 2584 2669 2484 
Q 3125 2378 3379 2068 
Q 3634 1759 3634 1313 
Q 3634 634 3220 271 
Q 2806 -91 2034 -91 
Q 1263 -91 848 271 
Q 434 634 434 1313 
Q 434 1759 690 2068 
Q 947 2378 1403 2484 
z
M 1172 3481 
Q 1172 3119 1398 2916 
Q 1625 2713 2034 2713 
Q 2441 2713 2670 2916 
Q 2900 3119 2900 3481 
Q 2900 3844 2670 4047 
Q 2441 4250 2034 4250 
Q 1625 4250 1398 4047 
Q 1172 3844 1172 3481 
z
" id="DejaVuSans-38" transform="scale(0.015625)"/>
       </defs>
       <use xlink:href="#DejaVuSans-38"/>
       <use x="63.623047" xlink:href="#DejaVuSans-30"/>
      </g>
     </g>
    </g>
    <g id="xtick_6">
     <g id="line2d_11">
      <path clip-path="url(#p203776f447)" d="M 478.188466 224.64 
L 478.188466 7.2 
" style="fill:none;stroke:#ffffff;stroke-linecap:square;stroke-width:0.8;"/>
     </g>
     <g id="line2d_12">
      <g>
       <use style="fill:#555555;stroke:#555555;stroke-width:0.8;" x="478.188466" xlink:href="#m39a6366345" y="224.64"/>
      </g>
     </g>
     <g id="text_6">
      <!-- 100 -->
      <g style="fill:#555555;" transform="translate(468.644716 239.238437)scale(0.1 -0.1)">
       <defs>
        <path d="M 794 531 
L 1825 531 
L 1825 4091 
L 703 3866 
L 703 4441 
L 1819 4666 
L 2450 4666 
L 2450 531 
L 3481 531 
L 3481 0 
L 794 0 
L 794 531 
z
" id="DejaVuSans-31" transform="scale(0.015625)"/>
       </defs>
       <use xlink:href="#DejaVuSans-31"/>
       <use x="63.623047" xlink:href="#DejaVuSans-30"/>
       <use x="127.246094" xlink:href="#DejaVuSans-30"/>
      </g>
     </g>
    </g>
    <g id="text_7">
     <!-- Epoch number -->
     <g style="fill:#555555;" transform="translate(231.5825 254.43625)scale(0.12 -0.12)">
      <defs>
       <path d="M 628 4666 
L 3578 4666 
L 3578 4134 
L 1259 4134 
L 1259 2753 
L 3481 2753 
L 3481 2222 
L 1259 2222 
L 1259 531 
L 3634 531 
L 3634 0 
L 628 0 
L 628 4666 
z
" id="DejaVuSans-45" transform="scale(0.015625)"/>
       <path d="M 1159 525 
L 1159 -1331 
L 581 -1331 
L 581 3500 
L 1159 3500 
L 1159 2969 
Q 1341 3281 1617 3432 
Q 1894 3584 2278 3584 
Q 2916 3584 3314 3078 
Q 3713 2572 3713 1747 
Q 3713 922 3314 415 
Q 2916 -91 2278 -91 
Q 1894 -91 1617 61 
Q 1341 213 1159 525 
z
M 3116 1747 
Q 3116 2381 2855 2742 
Q 2594 3103 2138 3103 
Q 1681 3103 1420 2742 
Q 1159 2381 1159 1747 
Q 1159 1113 1420 752 
Q 1681 391 2138 391 
Q 2594 391 2855 752 
Q 3116 1113 3116 1747 
z
" id="DejaVuSans-70" transform="scale(0.015625)"/>
       <path d="M 1959 3097 
Q 1497 3097 1228 2736 
Q 959 2375 959 1747 
Q 959 1119 1226 758 
Q 1494 397 1959 397 
Q 2419 397 2687 759 
Q 2956 1122 2956 1747 
Q 2956 2369 2687 2733 
Q 2419 3097 1959 3097 
z
M 1959 3584 
Q 2709 3584 3137 3096 
Q 3566 2609 3566 1747 
Q 3566 888 3137 398 
Q 2709 -91 1959 -91 
Q 1206 -91 779 398 
Q 353 888 353 1747 
Q 353 2609 779 3096 
Q 1206 3584 1959 3584 
z
" id="DejaVuSans-6f" transform="scale(0.015625)"/>
       <path d="M 3122 3366 
L 3122 2828 
Q 2878 2963 2633 3030 
Q 2388 3097 2138 3097 
Q 1578 3097 1268 2742 
Q 959 2388 959 1747 
Q 959 1106 1268 751 
Q 1578 397 2138 397 
Q 2388 397 2633 464 
Q 2878 531 3122 666 
L 3122 134 
Q 2881 22 2623 -34 
Q 2366 -91 2075 -91 
Q 1284 -91 818 406 
Q 353 903 353 1747 
Q 353 2603 823 3093 
Q 1294 3584 2113 3584 
Q 2378 3584 2631 3529 
Q 2884 3475 3122 3366 
z
" id="DejaVuSans-63" transform="scale(0.015625)"/>
       <path d="M 3513 2113 
L 3513 0 
L 2938 0 
L 2938 2094 
Q 2938 2591 2744 2837 
Q 2550 3084 2163 3084 
Q 1697 3084 1428 2787 
Q 1159 2491 1159 1978 
L 1159 0 
L 581 0 
L 581 4863 
L 1159 4863 
L 1159 2956 
Q 1366 3272 1645 3428 
Q 1925 3584 2291 3584 
Q 2894 3584 3203 3211 
Q 3513 2838 3513 2113 
z
" id="DejaVuSans-68" transform="scale(0.015625)"/>
       <path id="DejaVuSans-20" transform="scale(0.015625)"/>
       <path d="M 3513 2113 
L 3513 0 
L 2938 0 
L 2938 2094 
Q 2938 2591 2744 2837 
Q 2550 3084 2163 3084 
Q 1697 3084 1428 2787 
Q 1159 2491 1159 1978 
L 1159 0 
L 581 0 
L 581 3500 
L 1159 3500 
L 1159 2956 
Q 1366 3272 1645 3428 
Q 1925 3584 2291 3584 
Q 2894 3584 3203 3211 
Q 3513 2838 3513 2113 
z
" id="DejaVuSans-6e" transform="scale(0.015625)"/>
       <path d="M 544 1381 
L 544 3500 
L 1119 3500 
L 1119 1403 
Q 1119 906 1312 657 
Q 1506 409 1894 409 
Q 2359 409 2629 706 
Q 2900 1003 2900 1516 
L 2900 3500 
L 3475 3500 
L 3475 0 
L 2900 0 
L 2900 538 
Q 2691 219 2414 64 
Q 2138 -91 1772 -91 
Q 1169 -91 856 284 
Q 544 659 544 1381 
z
M 1991 3584 
L 1991 3584 
z
" id="DejaVuSans-75" transform="scale(0.015625)"/>
       <path d="M 3328 2828 
Q 3544 3216 3844 3400 
Q 4144 3584 4550 3584 
Q 5097 3584 5394 3201 
Q 5691 2819 5691 2113 
L 5691 0 
L 5113 0 
L 5113 2094 
Q 5113 2597 4934 2840 
Q 4756 3084 4391 3084 
Q 3944 3084 3684 2787 
Q 3425 2491 3425 1978 
L 3425 0 
L 2847 0 
L 2847 2094 
Q 2847 2600 2669 2842 
Q 2491 3084 2119 3084 
Q 1678 3084 1418 2786 
Q 1159 2488 1159 1978 
L 1159 0 
L 581 0 
L 581 3500 
L 1159 3500 
L 1159 2956 
Q 1356 3278 1631 3431 
Q 1906 3584 2284 3584 
Q 2666 3584 2933 3390 
Q 3200 3197 3328 2828 
z
" id="DejaVuSans-6d" transform="scale(0.015625)"/>
       <path d="M 3116 1747 
Q 3116 2381 2855 2742 
Q 2594 3103 2138 3103 
Q 1681 3103 1420 2742 
Q 1159 2381 1159 1747 
Q 1159 1113 1420 752 
Q 1681 391 2138 391 
Q 2594 391 2855 752 
Q 3116 1113 3116 1747 
z
M 1159 2969 
Q 1341 3281 1617 3432 
Q 1894 3584 2278 3584 
Q 2916 3584 3314 3078 
Q 3713 2572 3713 1747 
Q 3713 922 3314 415 
Q 2916 -91 2278 -91 
Q 1894 -91 1617 61 
Q 1341 213 1159 525 
L 1159 0 
L 581 0 
L 581 4863 
L 1159 4863 
L 1159 2969 
z
" id="DejaVuSans-62" transform="scale(0.015625)"/>
       <path d="M 3597 1894 
L 3597 1613 
L 953 1613 
Q 991 1019 1311 708 
Q 1631 397 2203 397 
Q 2534 397 2845 478 
Q 3156 559 3463 722 
L 3463 178 
Q 3153 47 2828 -22 
Q 2503 -91 2169 -91 
Q 1331 -91 842 396 
Q 353 884 353 1716 
Q 353 2575 817 3079 
Q 1281 3584 2069 3584 
Q 2775 3584 3186 3129 
Q 3597 2675 3597 1894 
z
M 3022 2063 
Q 3016 2534 2758 2815 
Q 2500 3097 2075 3097 
Q 1594 3097 1305 2825 
Q 1016 2553 972 2059 
L 3022 2063 
z
" id="DejaVuSans-65" transform="scale(0.015625)"/>
       <path d="M 2631 2963 
Q 2534 3019 2420 3045 
Q 2306 3072 2169 3072 
Q 1681 3072 1420 2755 
Q 1159 2438 1159 1844 
L 1159 0 
L 581 0 
L 581 3500 
L 1159 3500 
L 1159 2956 
Q 1341 3275 1631 3429 
Q 1922 3584 2338 3584 
Q 2397 3584 2469 3576 
Q 2541 3569 2628 3553 
L 2631 2963 
z
" id="DejaVuSans-72" transform="scale(0.015625)"/>
      </defs>
      <use xlink:href="#DejaVuSans-45"/>
      <use x="63.183594" xlink:href="#DejaVuSans-70"/>
      <use x="126.660156" xlink:href="#DejaVuSans-6f"/>
      <use x="187.841797" xlink:href="#DejaVuSans-63"/>
      <use x="242.822266" xlink:href="#DejaVuSans-68"/>
      <use x="306.201172" xlink:href="#DejaVuSans-20"/>
      <use x="337.988281" xlink:href="#DejaVuSans-6e"/>
      <use x="401.367188" xlink:href="#DejaVuSans-75"/>
      <use x="464.746094" xlink:href="#DejaVuSans-6d"/>
      <use x="562.158203" xlink:href="#DejaVuSans-62"/>
      <use x="625.634766" xlink:href="#DejaVuSans-65"/>
      <use x="687.158203" xlink:href="#DejaVuSans-72"/>
     </g>
    </g>
   </g>
   <g id="matplotlib.axis_2">
    <g id="ytick_1">
     <g id="line2d_13">
      <path clip-path="url(#p203776f447)" d="M 52.079375 209.827787 
L 498.479375 209.827787 
" style="fill:none;stroke:#ffffff;stroke-linecap:square;stroke-width:0.8;"/>
     </g>
     <g id="line2d_14">
      <defs>
       <path d="M 0 0 
L -3.5 0 
" id="m5ed1e96e15" style="stroke:#555555;stroke-width:0.8;"/>
      </defs>
      <g>
       <use style="fill:#555555;stroke:#555555;stroke-width:0.8;" x="52.079375" xlink:href="#m5ed1e96e15" y="209.827787"/>
      </g>
     </g>
     <g id="text_8">
      <!-- 0.60 -->
      <g style="fill:#555555;" transform="translate(22.81375 213.627006)scale(0.1 -0.1)">
       <defs>
        <path d="M 684 794 
L 1344 794 
L 1344 0 
L 684 0 
L 684 794 
z
" id="DejaVuSans-2e" transform="scale(0.015625)"/>
       </defs>
       <use xlink:href="#DejaVuSans-30"/>
       <use x="63.623047" xlink:href="#DejaVuSans-2e"/>
       <use x="95.410156" xlink:href="#DejaVuSans-36"/>
       <use x="159.033203" xlink:href="#DejaVuSans-30"/>
      </g>
     </g>
    </g>
    <g id="ytick_2">
     <g id="line2d_15">
      <path clip-path="url(#p203776f447)" d="M 52.079375 179.409229 
L 498.479375 179.409229 
" style="fill:none;stroke:#ffffff;stroke-linecap:square;stroke-width:0.8;"/>
     </g>
     <g id="line2d_16">
      <g>
       <use style="fill:#555555;stroke:#555555;stroke-width:0.8;" x="52.079375" xlink:href="#m5ed1e96e15" y="179.409229"/>
      </g>
     </g>
     <g id="text_9">
      <!-- 0.65 -->
      <g style="fill:#555555;" transform="translate(22.81375 183.208448)scale(0.1 -0.1)">
       <defs>
        <path d="M 691 4666 
L 3169 4666 
L 3169 4134 
L 1269 4134 
L 1269 2991 
Q 1406 3038 1543 3061 
Q 1681 3084 1819 3084 
Q 2600 3084 3056 2656 
Q 3513 2228 3513 1497 
Q 3513 744 3044 326 
Q 2575 -91 1722 -91 
Q 1428 -91 1123 -41 
Q 819 9 494 109 
L 494 744 
Q 775 591 1075 516 
Q 1375 441 1709 441 
Q 2250 441 2565 725 
Q 2881 1009 2881 1497 
Q 2881 1984 2565 2268 
Q 2250 2553 1709 2553 
Q 1456 2553 1204 2497 
Q 953 2441 691 2322 
L 691 4666 
z
" id="DejaVuSans-35" transform="scale(0.015625)"/>
       </defs>
       <use xlink:href="#DejaVuSans-30"/>
       <use x="63.623047" xlink:href="#DejaVuSans-2e"/>
       <use x="95.410156" xlink:href="#DejaVuSans-36"/>
       <use x="159.033203" xlink:href="#DejaVuSans-35"/>
      </g>
     </g>
    </g>
    <g id="ytick_3">
     <g id="line2d_17">
      <path clip-path="url(#p203776f447)" d="M 52.079375 148.990671 
L 498.479375 148.990671 
" style="fill:none;stroke:#ffffff;stroke-linecap:square;stroke-width:0.8;"/>
     </g>
     <g id="line2d_18">
      <g>
       <use style="fill:#555555;stroke:#555555;stroke-width:0.8;" x="52.079375" xlink:href="#m5ed1e96e15" y="148.990671"/>
      </g>
     </g>
     <g id="text_10">
      <!-- 0.70 -->
      <g style="fill:#555555;" transform="translate(22.81375 152.78989)scale(0.1 -0.1)">
       <defs>
        <path d="M 525 4666 
L 3525 4666 
L 3525 4397 
L 1831 0 
L 1172 0 
L 2766 4134 
L 525 4134 
L 525 4666 
z
" id="DejaVuSans-37" transform="scale(0.015625)"/>
       </defs>
       <use xlink:href="#DejaVuSans-30"/>
       <use x="63.623047" xlink:href="#DejaVuSans-2e"/>
       <use x="95.410156" xlink:href="#DejaVuSans-37"/>
       <use x="159.033203" xlink:href="#DejaVuSans-30"/>
      </g>
     </g>
    </g>
    <g id="ytick_4">
     <g id="line2d_19">
      <path clip-path="url(#p203776f447)" d="M 52.079375 118.572113 
L 498.479375 118.572113 
" style="fill:none;stroke:#ffffff;stroke-linecap:square;stroke-width:0.8;"/>
     </g>
     <g id="line2d_20">
      <g>
       <use style="fill:#555555;stroke:#555555;stroke-width:0.8;" x="52.079375" xlink:href="#m5ed1e96e15" y="118.572113"/>
      </g>
     </g>
     <g id="text_11">
      <!-- 0.75 -->
      <g style="fill:#555555;" transform="translate(22.81375 122.371332)scale(0.1 -0.1)">
       <use xlink:href="#DejaVuSans-30"/>
       <use x="63.623047" xlink:href="#DejaVuSans-2e"/>
       <use x="95.410156" xlink:href="#DejaVuSans-37"/>
       <use x="159.033203" xlink:href="#DejaVuSans-35"/>
      </g>
     </g>
    </g>
    <g id="ytick_5">
     <g id="line2d_21">
      <path clip-path="url(#p203776f447)" d="M 52.079375 88.153555 
L 498.479375 88.153555 
" style="fill:none;stroke:#ffffff;stroke-linecap:square;stroke-width:0.8;"/>
     </g>
     <g id="line2d_22">
      <g>
       <use style="fill:#555555;stroke:#555555;stroke-width:0.8;" x="52.079375" xlink:href="#m5ed1e96e15" y="88.153555"/>
      </g>
     </g>
     <g id="text_12">
      <!-- 0.80 -->
      <g style="fill:#555555;" transform="translate(22.81375 91.952774)scale(0.1 -0.1)">
       <use xlink:href="#DejaVuSans-30"/>
       <use x="63.623047" xlink:href="#DejaVuSans-2e"/>
       <use x="95.410156" xlink:href="#DejaVuSans-38"/>
       <use x="159.033203" xlink:href="#DejaVuSans-30"/>
      </g>
     </g>
    </g>
    <g id="ytick_6">
     <g id="line2d_23">
      <path clip-path="url(#p203776f447)" d="M 52.079375 57.734997 
L 498.479375 57.734997 
" style="fill:none;stroke:#ffffff;stroke-linecap:square;stroke-width:0.8;"/>
     </g>
     <g id="line2d_24">
      <g>
       <use style="fill:#555555;stroke:#555555;stroke-width:0.8;" x="52.079375" xlink:href="#m5ed1e96e15" y="57.734997"/>
      </g>
     </g>
     <g id="text_13">
      <!-- 0.85 -->
      <g style="fill:#555555;" transform="translate(22.81375 61.534216)scale(0.1 -0.1)">
       <use xlink:href="#DejaVuSans-30"/>
       <use x="63.623047" xlink:href="#DejaVuSans-2e"/>
       <use x="95.410156" xlink:href="#DejaVuSans-38"/>
       <use x="159.033203" xlink:href="#DejaVuSans-35"/>
      </g>
     </g>
    </g>
    <g id="ytick_7">
     <g id="line2d_25">
      <path clip-path="url(#p203776f447)" d="M 52.079375 27.316439 
L 498.479375 27.316439 
" style="fill:none;stroke:#ffffff;stroke-linecap:square;stroke-width:0.8;"/>
     </g>
     <g id="line2d_26">
      <g>
       <use style="fill:#555555;stroke:#555555;stroke-width:0.8;" x="52.079375" xlink:href="#m5ed1e96e15" y="27.316439"/>
      </g>
     </g>
     <g id="text_14">
      <!-- 0.90 -->
      <g style="fill:#555555;" transform="translate(22.81375 31.115658)scale(0.1 -0.1)">
       <defs>
        <path d="M 703 97 
L 703 672 
Q 941 559 1184 500 
Q 1428 441 1663 441 
Q 2288 441 2617 861 
Q 2947 1281 2994 2138 
Q 2813 1869 2534 1725 
Q 2256 1581 1919 1581 
Q 1219 1581 811 2004 
Q 403 2428 403 3163 
Q 403 3881 828 4315 
Q 1253 4750 1959 4750 
Q 2769 4750 3195 4129 
Q 3622 3509 3622 2328 
Q 3622 1225 3098 567 
Q 2575 -91 1691 -91 
Q 1453 -91 1209 -44 
Q 966 3 703 97 
z
M 1959 2075 
Q 2384 2075 2632 2365 
Q 2881 2656 2881 3163 
Q 2881 3666 2632 3958 
Q 2384 4250 1959 4250 
Q 1534 4250 1286 3958 
Q 1038 3666 1038 3163 
Q 1038 2656 1286 2365 
Q 1534 2075 1959 2075 
z
" id="DejaVuSans-39" transform="scale(0.015625)"/>
       </defs>
       <use xlink:href="#DejaVuSans-30"/>
       <use x="63.623047" xlink:href="#DejaVuSans-2e"/>
       <use x="95.410156" xlink:href="#DejaVuSans-39"/>
       <use x="159.033203" xlink:href="#DejaVuSans-30"/>
      </g>
     </g>
    </g>
    <g id="text_15">
     <!-- Accuracy -->
     <g style="fill:#555555;" transform="translate(16.318125 143.31375)rotate(-90)scale(0.12 -0.12)">
      <defs>
       <path d="M 2188 4044 
L 1331 1722 
L 3047 1722 
L 2188 4044 
z
M 1831 4666 
L 2547 4666 
L 4325 0 
L 3669 0 
L 3244 1197 
L 1141 1197 
L 716 0 
L 50 0 
L 1831 4666 
z
" id="DejaVuSans-41" transform="scale(0.015625)"/>
       <path d="M 2194 1759 
Q 1497 1759 1228 1600 
Q 959 1441 959 1056 
Q 959 750 1161 570 
Q 1363 391 1709 391 
Q 2188 391 2477 730 
Q 2766 1069 2766 1631 
L 2766 1759 
L 2194 1759 
z
M 3341 1997 
L 3341 0 
L 2766 0 
L 2766 531 
Q 2569 213 2275 61 
Q 1981 -91 1556 -91 
Q 1019 -91 701 211 
Q 384 513 384 1019 
Q 384 1609 779 1909 
Q 1175 2209 1959 2209 
L 2766 2209 
L 2766 2266 
Q 2766 2663 2505 2880 
Q 2244 3097 1772 3097 
Q 1472 3097 1187 3025 
Q 903 2953 641 2809 
L 641 3341 
Q 956 3463 1253 3523 
Q 1550 3584 1831 3584 
Q 2591 3584 2966 3190 
Q 3341 2797 3341 1997 
z
" id="DejaVuSans-61" transform="scale(0.015625)"/>
       <path d="M 2059 -325 
Q 1816 -950 1584 -1140 
Q 1353 -1331 966 -1331 
L 506 -1331 
L 506 -850 
L 844 -850 
Q 1081 -850 1212 -737 
Q 1344 -625 1503 -206 
L 1606 56 
L 191 3500 
L 800 3500 
L 1894 763 
L 2988 3500 
L 3597 3500 
L 2059 -325 
z
" id="DejaVuSans-79" transform="scale(0.015625)"/>
      </defs>
      <use xlink:href="#DejaVuSans-41"/>
      <use x="66.658203" xlink:href="#DejaVuSans-63"/>
      <use x="121.638672" xlink:href="#DejaVuSans-63"/>
      <use x="176.619141" xlink:href="#DejaVuSans-75"/>
      <use x="239.998047" xlink:href="#DejaVuSans-72"/>
      <use x="281.111328" xlink:href="#DejaVuSans-61"/>
      <use x="342.390625" xlink:href="#DejaVuSans-63"/>
      <use x="397.371094" xlink:href="#DejaVuSans-79"/>
     </g>
    </g>
   </g>
   <g id="line2d_27">
    <path clip-path="url(#p203776f447)" d="M 72.370284 214.65217 
L 76.469458 182.201653 
L 80.568631 166.292747 
L 84.667805 155.262978 
L 88.766978 148.084198 
L 92.866152 140.941921 
L 96.965325 135.35099 
L 101.064499 129.972989 
L 105.163673 124.217798 
L 109.262846 119.521172 
L 113.36202 115.09223 
L 117.461193 111.886114 
L 121.560367 108.485319 
L 125.65954 105.522552 
L 129.758714 102.717961 
L 133.857887 99.828198 
L 137.957061 98.051754 
L 142.056235 94.754382 
L 146.155408 92.229642 
L 150.254582 91.091988 
L 154.353755 88.93227 
L 158.452929 87.545184 
L 162.552102 85.136034 
L 166.651276 83.700278 
L 170.750449 82.39228 
L 174.849623 81.169454 
L 178.948796 79.459931 
L 183.04797 78.413533 
L 187.147144 77.227209 
L 191.246317 75.68803 
L 195.345491 75.225668 
L 199.444664 73.844666 
L 203.543838 72.414993 
L 207.643011 72.414993 
L 211.742185 70.75414 
L 215.841358 70.547294 
L 219.940532 69.141956 
L 224.039706 68.004302 
L 228.138879 67.231671 
L 232.238053 66.592881 
L 236.337226 66.288696 
L 240.4364 65.254465 
L 244.535573 65.49173 
L 248.634747 63.830876 
L 252.73392 62.875734 
L 256.833094 62.522878 
L 260.932268 62.145688 
L 265.031441 61.634656 
L 269.130615 61.190545 
L 273.229788 59.979887 
L 277.328962 59.560111 
L 281.428135 59.341097 
L 285.527309 59.383683 
L 289.626482 58.294699 
L 293.725656 58.014848 
L 297.82483 57.096208 
L 301.924003 56.804189 
L 306.023177 56.195818 
L 310.12235 55.630033 
L 314.221524 55.563112 
L 318.320697 55.484024 
L 322.419871 55.119001 
L 326.519044 54.157775 
L 330.618218 54.036101 
L 334.717392 53.506818 
L 338.816565 52.880195 
L 342.915739 52.381331 
L 347.014912 52.545591 
L 351.114086 51.803378 
L 355.213259 51.712123 
L 359.312433 51.030747 
L 363.411606 51.365351 
L 367.51078 50.519715 
L 371.609954 50.519715 
L 375.709127 49.552405 
L 379.808301 49.582824 
L 383.907474 48.77369 
L 388.006648 49.059625 
L 392.105821 48.323495 
L 396.204995 48.901448 
L 400.304168 48.378249 
L 404.403342 47.508278 
L 408.502515 47.325767 
L 412.601689 46.7904 
L 416.700863 47.125004 
L 420.800036 46.638307 
L 424.89921 45.835257 
L 428.998383 45.890011 
L 433.097557 45.488486 
L 437.19673 45.567574 
L 441.295904 45.007873 
L 445.395077 45.178217 
L 449.494251 44.569845 
L 453.593425 44.989621 
L 457.692598 44.746273 
L 461.791772 44.223074 
L 465.890945 43.900637 
L 469.990119 43.5782 
L 474.089292 43.237513 
L 478.188466 42.854239 
" style="fill:none;stroke:#ff0000;stroke-linecap:square;stroke-width:1.5;"/>
   </g>
   <g id="line2d_28">
    <path clip-path="url(#p203776f447)" d="M 72.370284 196.175938 
L 76.469458 164.193866 
L 80.568631 145.851476 
L 84.667805 133.617132 
L 88.766978 123.213985 
L 92.866152 117.12419 
L 96.965325 108.540073 
L 101.064499 103.350667 
L 105.163673 98.42286 
L 109.262846 94.584038 
L 113.36202 91.0129 
L 117.461193 87.898039 
L 121.560367 84.953523 
L 125.65954 82.22802 
L 129.758714 79.758033 
L 133.857887 76.86827 
L 137.957061 75.627193 
L 142.056235 73.595233 
L 146.155408 71.691032 
L 150.254582 70.310029 
L 154.353755 69.367054 
L 158.452929 67.906963 
L 162.552102 67.024825 
L 166.651276 67.006574 
L 170.750449 64.725182 
L 174.849623 62.486376 
L 178.948796 62.553297 
L 183.04797 60.618677 
L 187.147144 59.426269 
L 191.246317 59.547943 
L 195.345491 59.566194 
L 199.444664 57.710662 
L 203.543838 56.37833 
L 207.643011 56.274906 
L 211.742185 54.358537 
L 215.841358 54.498463 
L 219.940532 53.263469 
L 224.039706 52.582094 
L 228.138879 52.210987 
L 232.238053 52.180569 
L 236.337226 50.817817 
L 240.4364 51.146338 
L 244.535573 49.887009 
L 248.634747 48.56076 
L 252.73392 48.274826 
L 256.833094 47.337934 
L 260.932268 46.966828 
L 265.031441 46.802568 
L 269.130615 46.109024 
L 273.229788 44.977454 
L 277.328962 44.746273 
L 281.428135 43.912805 
L 285.527309 44.046646 
L 289.626482 43.255764 
L 293.725656 44.64285 
L 297.82483 42.580472 
L 301.924003 42.537886 
L 306.023177 42.014686 
L 310.12235 41.461069 
L 314.221524 40.451173 
L 318.320697 40.597182 
L 322.419871 39.374356 
L 326.519044 40.901367 
L 330.618218 39.605537 
L 334.717392 40.183489 
L 338.816565 38.498301 
L 342.915739 37.72567 
L 347.014912 38.546971 
L 351.114086 38.121111 
L 355.213259 37.810842 
L 359.312433 36.222993 
L 363.411606 35.541617 
L 367.51078 35.535534 
L 371.609954 34.994083 
L 375.709127 35.127925 
L 379.808301 34.416131 
L 383.907474 34.683814 
L 388.006648 34.762902 
L 392.105821 33.97202 
L 396.204995 33.327146 
L 400.304168 32.943872 
L 404.403342 32.359836 
L 408.502515 32.219911 
L 412.601689 32.846533 
L 416.700863 31.733214 
L 420.800036 31.581121 
L 424.89921 32.122571 
L 428.998383 30.528639 
L 433.097557 31.076173 
L 437.19673 31.216098 
L 441.295904 30.613811 
L 445.395077 31.356024 
L 449.494251 30.71115 
L 453.593425 29.190222 
L 457.692598 29.597831 
L 461.791772 28.405424 
L 465.890945 28.058652 
L 469.990119 28.155991 
L 474.089292 27.827471 
L 478.188466 27.784885 
" style="fill:none;stroke:#0000ff;stroke-linecap:square;stroke-width:1.5;"/>
   </g>
   <g id="line2d_29">
    <path clip-path="url(#p203776f447)" d="M 72.370284 196.498375 
L 76.469458 163.305645 
L 80.568631 142.073491 
L 84.667805 128.744079 
L 88.766978 118.085416 
L 92.866152 109.361374 
L 96.965325 101.768902 
L 101.064499 95.63652 
L 105.163673 89.917832 
L 109.262846 87.021985 
L 113.36202 85.269876 
L 117.461193 79.259169 
L 121.560367 77.726074 
L 125.65954 74.428702 
L 129.758714 71.027907 
L 133.857887 70.395201 
L 137.957061 66.331282 
L 142.056235 66.568546 
L 146.155408 63.660532 
L 150.254582 61.634656 
L 154.353755 61.093206 
L 158.452929 59.103832 
L 162.552102 58.209527 
L 166.651276 57.430812 
L 170.750449 55.192006 
L 174.849623 54.924322 
L 178.948796 53.135711 
L 183.04797 52.941033 
L 187.147144 52.058894 
L 191.246317 50.96991 
L 195.345491 50.872571 
L 199.444664 48.323495 
L 203.543838 49.223885 
L 207.643011 47.149339 
L 211.742185 46.382791 
L 215.841358 46.08469 
L 219.940532 46.255033 
L 224.039706 45.506737 
L 228.138879 43.450442 
L 232.238053 44.040562 
L 236.337226 42.817736 
L 240.4364 41.710501 
L 244.535573 43.383522 
L 248.634747 42.4953 
L 252.73392 41.065627 
L 256.833094 39.051919 
L 260.932268 38.680813 
L 265.031441 39.246598 
L 269.130615 37.026043 
L 273.229788 39.343937 
L 277.328962 36.807029 
L 281.428135 36.691439 
L 285.527309 36.314249 
L 289.626482 35.486864 
L 293.725656 35.523366 
L 297.82483 35.468613 
L 301.924003 33.266309 
L 306.023177 33.375816 
L 310.12235 32.597101 
L 314.221524 34.51347 
L 318.320697 34.294456 
L 322.419871 32.828282 
L 326.519044 30.899745 
L 330.618218 31.666293 
L 334.717392 30.59556 
L 338.816565 28.344587 
L 342.915739 29.804677 
L 347.014912 29.518743 
L 351.114086 28.8252 
L 355.213259 28.23508 
L 359.312433 28.441926 
L 363.411606 27.632792 
L 367.51078 27.328607 
L 371.609954 26.026692 
L 375.709127 27.389444 
L 379.808301 26.130116 
L 383.907474 25.412238 
L 388.006648 25.643419 
L 392.105821 24.730862 
L 396.204995 25.205391 
L 400.304168 25.576498 
L 404.403342 24.670025 
L 408.502515 22.857079 
L 412.601689 22.212205 
L 416.700863 23.143013 
L 420.800036 22.753656 
L 424.89921 21.111053 
L 428.998383 21.579499 
L 433.097557 20.520933 
L 437.19673 21.025881 
L 441.295904 20.624357 
L 445.395077 20.51485 
L 449.494251 20.697361 
L 453.593425 18.689736 
L 457.692598 19.833474 
L 461.791772 18.793159 
L 465.890945 19.930813 
L 469.990119 17.083636 
L 474.089292 18.574146 
L 478.188466 17.472994 
" style="fill:none;stroke:#800080;stroke-linecap:square;stroke-width:1.5;"/>
   </g>
   <g id="line2d_30">
    <path clip-path="url(#p203776f447)" d="M 72.370284 214.756364 
L 76.469458 184.530328 
L 80.568631 166.856761 
L 84.667805 158.732311 
L 88.766978 151.493464 
L 92.866152 144.601158 
L 96.965325 138.440437 
L 101.064499 133.704383 
L 105.163673 129.045338 
L 109.262846 124.540311 
L 113.36202 121.036401 
L 117.461193 117.725014 
L 121.560367 114.375122 
L 125.65954 112.911951 
L 129.758714 108.291411 
L 133.857887 107.367303 
L 137.957061 105.98114 
L 142.056235 102.438726 
L 146.155408 100.243969 
L 150.254582 98.742294 
L 154.353755 98.126222 
L 158.452929 95.854456 
L 162.552102 95.661933 
L 166.651276 93.390168 
L 170.750449 93.005123 
L 174.849623 91.233916 
L 178.948796 90.425321 
L 183.04797 91.233916 
L 187.147144 88.384582 
L 191.246317 88.269069 
L 195.345491 88.423087 
L 199.444664 86.305339 
L 203.543838 85.419735 
L 207.643011 85.535249 
L 211.742185 83.610024 
L 215.841358 83.417501 
L 219.940532 82.416384 
L 224.039706 80.799195 
L 228.138879 80.645177 
L 232.238053 80.991718 
L 236.337226 81.338258 
L 240.4364 80.722186 
L 244.535573 79.721069 
L 248.634747 79.64406 
L 252.73392 78.758456 
L 256.833094 78.411916 
L 260.932268 78.065375 
L 265.031441 77.603321 
L 269.130615 77.025754 
L 273.229788 77.025754 
L 277.328962 77.641826 
L 281.428135 76.640709 
L 285.527309 77.025754 
L 289.626482 75.678096 
L 293.725656 76.525195 
L 297.82483 75.447069 
L 301.924003 76.217159 
L 306.023177 75.408564 
L 310.12235 75.562582 
L 314.221524 75.37006 
L 318.320697 74.753988 
L 322.419871 74.830997 
L 326.519044 74.099411 
L 330.618218 74.099411 
L 334.717392 74.638474 
L 338.816565 74.214925 
L 342.915739 74.407447 
L 347.014912 74.253429 
L 351.114086 73.290817 
L 355.213259 73.252312 
L 359.312433 73.329321 
L 363.411606 74.253429 
L 367.51078 72.867267 
L 371.609954 73.021285 
L 375.709127 73.714366 
L 379.808301 72.867267 
L 383.907474 72.212691 
L 388.006648 72.674745 
L 392.105821 71.904655 
L 396.204995 72.251195 
L 400.304168 72.212691 
L 404.403342 72.097177 
L 408.502515 72.520727 
L 412.601689 72.63624 
L 416.700863 72.443718 
L 420.800036 71.673628 
L 424.89921 71.327087 
L 428.998383 70.903538 
L 433.097557 70.903538 
L 437.19673 72.058673 
L 441.295904 70.980547 
L 445.395077 71.404096 
L 449.494251 71.288583 
L 453.593425 70.942042 
L 457.692598 71.827646 
L 461.791772 71.481105 
L 465.890945 71.365592 
L 469.990119 71.327087 
L 474.089292 70.903538 
L 478.188466 69.863916 
" style="fill:none;stroke:#808080;stroke-dasharray:5.55,2.4;stroke-dashoffset:0;stroke-width:1.5;"/>
   </g>
   <g id="line2d_31">
    <path clip-path="url(#p203776f447)" d="M 72.370284 197.19831 
L 76.469458 166.741247 
L 80.568631 148.528617 
L 84.667805 138.016888 
L 88.766978 126.542545 
L 92.866152 120.535843 
L 96.965325 114.798672 
L 101.064499 107.94487 
L 105.163673 103.247321 
L 109.262846 100.860041 
L 113.36202 95.661933 
L 117.461193 95.084366 
L 121.560367 93.23615 
L 125.65954 90.617843 
L 129.758714 87.537483 
L 133.857887 86.536366 
L 137.957061 84.919177 
L 142.056235 83.301988 
L 146.155408 82.262366 
L 150.254582 80.029105 
L 154.353755 81.261249 
L 158.452929 80.491159 
L 162.552102 79.490042 
L 166.651276 79.952096 
L 170.750449 78.065375 
L 174.849623 76.409682 
L 178.948796 77.487808 
L 183.04797 75.947628 
L 187.147144 74.368943 
L 191.246317 74.137916 
L 195.345491 74.368943 
L 199.444664 72.982781 
L 203.543838 72.790258 
L 207.643011 72.944276 
L 211.742185 72.097177 
L 215.841358 71.904655 
L 219.940532 71.86615 
L 224.039706 73.098294 
L 228.138879 72.251195 
L 232.238053 71.789141 
L 236.337226 71.211574 
L 240.4364 71.442601 
L 244.535573 72.058673 
L 248.634747 70.711015 
L 252.73392 70.402979 
L 256.833094 69.440366 
L 260.932268 69.478871 
L 265.031441 69.90242 
L 269.130615 68.516258 
L 273.229788 67.59215 
L 277.328962 68.285231 
L 281.428135 68.054204 
L 285.527309 68.246727 
L 289.626482 67.669159 
L 293.725656 69.170835 
L 297.82483 68.208222 
L 301.924003 68.285231 
L 306.023177 68.631772 
L 310.12235 68.131213 
L 314.221524 67.207105 
L 318.320697 67.284114 
L 322.419871 67.59215 
L 326.519044 67.476637 
L 330.618218 68.323736 
L 334.717392 68.631772 
L 338.816565 67.284114 
L 342.915739 66.591033 
L 347.014912 67.630655 
L 351.114086 66.05197 
L 355.213259 66.668042 
L 359.312433 66.360006 
L 363.411606 66.360006 
L 367.51078 65.897952 
L 371.609954 65.820943 
L 375.709127 66.05197 
L 379.808301 65.127862 
L 383.907474 65.243375 
L 388.006648 66.47552 
L 392.105821 66.745051 
L 396.204995 65.243375 
L 400.304168 65.70543 
L 404.403342 66.706547 
L 408.502515 66.05197 
L 412.601689 65.204871 
L 416.700863 65.435898 
L 420.800036 66.167484 
L 424.89921 64.550294 
L 428.998383 64.896835 
L 433.097557 64.08824 
L 437.19673 65.358889 
L 441.295904 65.936457 
L 445.395077 65.589916 
L 449.494251 65.859448 
L 453.593425 65.204871 
L 457.692598 66.282997 
L 461.791772 65.589916 
L 465.890945 65.474403 
L 469.990119 64.550294 
L 474.089292 65.859448 
L 478.188466 66.013466 
" style="fill:none;stroke:#ffff00;stroke-dasharray:5.55,2.4;stroke-dashoffset:0;stroke-width:1.5;"/>
   </g>
   <g id="line2d_32">
    <path clip-path="url(#p203776f447)" d="M 72.370284 198.045409 
L 76.469458 162.929302 
L 80.568631 144.909194 
L 84.667805 132.934293 
L 88.766978 120.266311 
L 92.866152 111.564294 
L 96.965325 106.212167 
L 101.064499 99.935933 
L 105.163673 94.814834 
L 109.262846 92.581573 
L 113.36202 91.734474 
L 117.461193 85.265717 
L 121.560367 86.189826 
L 125.65954 82.300871 
L 129.758714 80.067609 
L 133.857887 80.529663 
L 137.957061 77.487808 
L 142.056235 76.833231 
L 146.155408 75.408564 
L 150.254582 73.521844 
L 154.353755 72.944276 
L 158.452929 70.980547 
L 162.552102 72.328204 
L 166.651276 70.74952 
L 170.750449 70.364474 
L 174.849623 70.518493 
L 178.948796 69.055321 
L 183.04797 69.093826 
L 187.147144 67.938691 
L 191.246317 68.631772 
L 195.345491 68.092709 
L 199.444664 67.553646 
L 203.543838 67.938691 
L 207.643011 65.666925 
L 211.742185 65.589916 
L 215.841358 67.24561 
L 219.940532 67.207105 
L 224.039706 65.050853 
L 228.138879 65.089357 
L 232.238053 66.591033 
L 236.337226 65.435898 
L 240.4364 63.395159 
L 244.535573 65.127862 
L 248.634747 64.665808 
L 252.73392 64.781321 
L 256.833094 64.011231 
L 260.932268 63.164132 
L 265.031441 64.396276 
L 269.130615 61.854979 
L 273.229788 64.396276 
L 277.328962 62.54806 
L 281.428135 62.663574 
L 285.527309 63.087123 
L 289.626482 64.51179 
L 293.725656 64.126745 
L 297.82483 63.125628 
L 301.924003 63.125628 
L 306.023177 62.97161 
L 310.12235 63.048619 
L 314.221524 66.47552 
L 318.320697 64.126745 
L 322.419871 63.356655 
L 326.519044 62.779087 
L 330.618218 62.817592 
L 334.717392 62.856096 
L 338.816565 62.124511 
L 342.915739 63.433664 
L 347.014912 63.664691 
L 351.114086 62.54806 
L 355.213259 60.969376 
L 359.312433 62.278529 
L 363.411606 63.279646 
L 367.51078 62.394042 
L 371.609954 61.585448 
L 375.709127 63.048619 
L 379.808301 62.817592 
L 383.907474 62.163015 
L 388.006648 63.934222 
L 392.105821 64.08824 
L 396.204995 63.972727 
L 400.304168 63.780204 
L 404.403342 64.319267 
L 408.502515 62.471051 
L 412.601689 60.545826 
L 416.700863 64.434781 
L 420.800036 63.087123 
L 424.89921 63.626186 
L 428.998383 62.394042 
L 433.097557 63.395159 
L 437.19673 62.278529 
L 441.295904 63.472168 
L 445.395077 62.740583 
L 449.494251 63.818709 
L 453.593425 61.816475 
L 457.692598 64.935339 
L 461.791772 63.356655 
L 465.890945 64.550294 
L 469.990119 64.781321 
L 474.089292 65.012348 
L 478.188466 63.164132 
" style="fill:none;stroke:#008000;stroke-dasharray:5.55,2.4;stroke-dashoffset:0;stroke-width:1.5;"/>
   </g>
   <g id="patch_3">
    <path d="M 52.079375 224.64 
L 52.079375 7.2 
" style="fill:none;stroke:#ffffff;stroke-linecap:square;stroke-linejoin:miter;"/>
   </g>
   <g id="patch_4">
    <path d="M 498.479375 224.64 
L 498.479375 7.2 
" style="fill:none;stroke:#ffffff;stroke-linecap:square;stroke-linejoin:miter;"/>
   </g>
   <g id="patch_5">
    <path d="M 52.079375 224.64 
L 498.479375 224.64 
" style="fill:none;stroke:#ffffff;stroke-linecap:square;stroke-linejoin:miter;"/>
   </g>
   <g id="patch_6">
    <path d="M 52.079375 7.2 
L 498.479375 7.2 
" style="fill:none;stroke:#ffffff;stroke-linecap:square;stroke-linejoin:miter;"/>
   </g>
   <g id="legend_1">
    <g id="patch_7">
     <path d="M 505.479375 103.26875 
L 607.8825 103.26875 
Q 609.8825 103.26875 609.8825 101.26875 
L 609.8825 14.2 
Q 609.8825 12.2 607.8825 12.2 
L 505.479375 12.2 
Q 503.479375 12.2 503.479375 14.2 
L 503.479375 101.26875 
Q 503.479375 103.26875 505.479375 103.26875 
z
" style="fill:#e5e5e5;opacity:0.8;stroke:#cccccc;stroke-linejoin:miter;stroke-width:0.5;"/>
    </g>
    <g id="line2d_33">
     <path d="M 507.479375 20.298437 
L 527.479375 20.298437 
" style="fill:none;stroke:#ff0000;stroke-linecap:square;stroke-width:1.5;"/>
    </g>
    <g id="line2d_34"/>
    <g id="text_16">
     <!-- depth 1(train) -->
     <g transform="translate(535.479375 23.798437)scale(0.1 -0.1)">
      <defs>
       <path d="M 2906 2969 
L 2906 4863 
L 3481 4863 
L 3481 0 
L 2906 0 
L 2906 525 
Q 2725 213 2448 61 
Q 2172 -91 1784 -91 
Q 1150 -91 751 415 
Q 353 922 353 1747 
Q 353 2572 751 3078 
Q 1150 3584 1784 3584 
Q 2172 3584 2448 3432 
Q 2725 3281 2906 2969 
z
M 947 1747 
Q 947 1113 1208 752 
Q 1469 391 1925 391 
Q 2381 391 2643 752 
Q 2906 1113 2906 1747 
Q 2906 2381 2643 2742 
Q 2381 3103 1925 3103 
Q 1469 3103 1208 2742 
Q 947 2381 947 1747 
z
" id="DejaVuSans-64" transform="scale(0.015625)"/>
       <path d="M 1172 4494 
L 1172 3500 
L 2356 3500 
L 2356 3053 
L 1172 3053 
L 1172 1153 
Q 1172 725 1289 603 
Q 1406 481 1766 481 
L 2356 481 
L 2356 0 
L 1766 0 
Q 1100 0 847 248 
Q 594 497 594 1153 
L 594 3053 
L 172 3053 
L 172 3500 
L 594 3500 
L 594 4494 
L 1172 4494 
z
" id="DejaVuSans-74" transform="scale(0.015625)"/>
       <path d="M 1984 4856 
Q 1566 4138 1362 3434 
Q 1159 2731 1159 2009 
Q 1159 1288 1364 580 
Q 1569 -128 1984 -844 
L 1484 -844 
Q 1016 -109 783 600 
Q 550 1309 550 2009 
Q 550 2706 781 3412 
Q 1013 4119 1484 4856 
L 1984 4856 
z
" id="DejaVuSans-28" transform="scale(0.015625)"/>
       <path d="M 603 3500 
L 1178 3500 
L 1178 0 
L 603 0 
L 603 3500 
z
M 603 4863 
L 1178 4863 
L 1178 4134 
L 603 4134 
L 603 4863 
z
" id="DejaVuSans-69" transform="scale(0.015625)"/>
       <path d="M 513 4856 
L 1013 4856 
Q 1481 4119 1714 3412 
Q 1947 2706 1947 2009 
Q 1947 1309 1714 600 
Q 1481 -109 1013 -844 
L 513 -844 
Q 928 -128 1133 580 
Q 1338 1288 1338 2009 
Q 1338 2731 1133 3434 
Q 928 4138 513 4856 
z
" id="DejaVuSans-29" transform="scale(0.015625)"/>
      </defs>
      <use xlink:href="#DejaVuSans-64"/>
      <use x="63.476562" xlink:href="#DejaVuSans-65"/>
      <use x="125" xlink:href="#DejaVuSans-70"/>
      <use x="188.476562" xlink:href="#DejaVuSans-74"/>
      <use x="227.685547" xlink:href="#DejaVuSans-68"/>
      <use x="291.064453" xlink:href="#DejaVuSans-20"/>
      <use x="322.851562" xlink:href="#DejaVuSans-31"/>
      <use x="386.474609" xlink:href="#DejaVuSans-28"/>
      <use x="425.488281" xlink:href="#DejaVuSans-74"/>
      <use x="464.697266" xlink:href="#DejaVuSans-72"/>
      <use x="505.810547" xlink:href="#DejaVuSans-61"/>
      <use x="567.089844" xlink:href="#DejaVuSans-69"/>
      <use x="594.873047" xlink:href="#DejaVuSans-6e"/>
      <use x="658.251953" xlink:href="#DejaVuSans-29"/>
     </g>
    </g>
    <g id="line2d_35">
     <path d="M 507.479375 34.976562 
L 527.479375 34.976562 
" style="fill:none;stroke:#0000ff;stroke-linecap:square;stroke-width:1.5;"/>
    </g>
    <g id="line2d_36"/>
    <g id="text_17">
     <!-- depth 2(train) -->
     <g transform="translate(535.479375 38.476562)scale(0.1 -0.1)">
      <use xlink:href="#DejaVuSans-64"/>
      <use x="63.476562" xlink:href="#DejaVuSans-65"/>
      <use x="125" xlink:href="#DejaVuSans-70"/>
      <use x="188.476562" xlink:href="#DejaVuSans-74"/>
      <use x="227.685547" xlink:href="#DejaVuSans-68"/>
      <use x="291.064453" xlink:href="#DejaVuSans-20"/>
      <use x="322.851562" xlink:href="#DejaVuSans-32"/>
      <use x="386.474609" xlink:href="#DejaVuSans-28"/>
      <use x="425.488281" xlink:href="#DejaVuSans-74"/>
      <use x="464.697266" xlink:href="#DejaVuSans-72"/>
      <use x="505.810547" xlink:href="#DejaVuSans-61"/>
      <use x="567.089844" xlink:href="#DejaVuSans-69"/>
      <use x="594.873047" xlink:href="#DejaVuSans-6e"/>
      <use x="658.251953" xlink:href="#DejaVuSans-29"/>
     </g>
    </g>
    <g id="line2d_37">
     <path d="M 507.479375 49.654687 
L 527.479375 49.654687 
" style="fill:none;stroke:#800080;stroke-linecap:square;stroke-width:1.5;"/>
    </g>
    <g id="line2d_38"/>
    <g id="text_18">
     <!-- depth 3(train) -->
     <g transform="translate(535.479375 53.154687)scale(0.1 -0.1)">
      <defs>
       <path d="M 2597 2516 
Q 3050 2419 3304 2112 
Q 3559 1806 3559 1356 
Q 3559 666 3084 287 
Q 2609 -91 1734 -91 
Q 1441 -91 1130 -33 
Q 819 25 488 141 
L 488 750 
Q 750 597 1062 519 
Q 1375 441 1716 441 
Q 2309 441 2620 675 
Q 2931 909 2931 1356 
Q 2931 1769 2642 2001 
Q 2353 2234 1838 2234 
L 1294 2234 
L 1294 2753 
L 1863 2753 
Q 2328 2753 2575 2939 
Q 2822 3125 2822 3475 
Q 2822 3834 2567 4026 
Q 2313 4219 1838 4219 
Q 1578 4219 1281 4162 
Q 984 4106 628 3988 
L 628 4550 
Q 988 4650 1302 4700 
Q 1616 4750 1894 4750 
Q 2613 4750 3031 4423 
Q 3450 4097 3450 3541 
Q 3450 3153 3228 2886 
Q 3006 2619 2597 2516 
z
" id="DejaVuSans-33" transform="scale(0.015625)"/>
      </defs>
      <use xlink:href="#DejaVuSans-64"/>
      <use x="63.476562" xlink:href="#DejaVuSans-65"/>
      <use x="125" xlink:href="#DejaVuSans-70"/>
      <use x="188.476562" xlink:href="#DejaVuSans-74"/>
      <use x="227.685547" xlink:href="#DejaVuSans-68"/>
      <use x="291.064453" xlink:href="#DejaVuSans-20"/>
      <use x="322.851562" xlink:href="#DejaVuSans-33"/>
      <use x="386.474609" xlink:href="#DejaVuSans-28"/>
      <use x="425.488281" xlink:href="#DejaVuSans-74"/>
      <use x="464.697266" xlink:href="#DejaVuSans-72"/>
      <use x="505.810547" xlink:href="#DejaVuSans-61"/>
      <use x="567.089844" xlink:href="#DejaVuSans-69"/>
      <use x="594.873047" xlink:href="#DejaVuSans-6e"/>
      <use x="658.251953" xlink:href="#DejaVuSans-29"/>
     </g>
    </g>
    <g id="line2d_39">
     <path d="M 507.479375 64.332812 
L 527.479375 64.332812 
" style="fill:none;stroke:#808080;stroke-dasharray:5.55,2.4;stroke-dashoffset:0;stroke-width:1.5;"/>
    </g>
    <g id="line2d_40"/>
    <g id="text_19">
     <!-- depth 1(valid) -->
     <g transform="translate(535.479375 67.832812)scale(0.1 -0.1)">
      <defs>
       <path d="M 191 3500 
L 800 3500 
L 1894 563 
L 2988 3500 
L 3597 3500 
L 2284 0 
L 1503 0 
L 191 3500 
z
" id="DejaVuSans-76" transform="scale(0.015625)"/>
       <path d="M 603 4863 
L 1178 4863 
L 1178 0 
L 603 0 
L 603 4863 
z
" id="DejaVuSans-6c" transform="scale(0.015625)"/>
      </defs>
      <use xlink:href="#DejaVuSans-64"/>
      <use x="63.476562" xlink:href="#DejaVuSans-65"/>
      <use x="125" xlink:href="#DejaVuSans-70"/>
      <use x="188.476562" xlink:href="#DejaVuSans-74"/>
      <use x="227.685547" xlink:href="#DejaVuSans-68"/>
      <use x="291.064453" xlink:href="#DejaVuSans-20"/>
      <use x="322.851562" xlink:href="#DejaVuSans-31"/>
      <use x="386.474609" xlink:href="#DejaVuSans-28"/>
      <use x="425.488281" xlink:href="#DejaVuSans-76"/>
      <use x="484.667969" xlink:href="#DejaVuSans-61"/>
      <use x="545.947266" xlink:href="#DejaVuSans-6c"/>
      <use x="573.730469" xlink:href="#DejaVuSans-69"/>
      <use x="601.513672" xlink:href="#DejaVuSans-64"/>
      <use x="664.990234" xlink:href="#DejaVuSans-29"/>
     </g>
    </g>
    <g id="line2d_41">
     <path d="M 507.479375 79.010937 
L 527.479375 79.010937 
" style="fill:none;stroke:#ffff00;stroke-dasharray:5.55,2.4;stroke-dashoffset:0;stroke-width:1.5;"/>
    </g>
    <g id="line2d_42"/>
    <g id="text_20">
     <!-- depth 2(valid) -->
     <g transform="translate(535.479375 82.510937)scale(0.1 -0.1)">
      <use xlink:href="#DejaVuSans-64"/>
      <use x="63.476562" xlink:href="#DejaVuSans-65"/>
      <use x="125" xlink:href="#DejaVuSans-70"/>
      <use x="188.476562" xlink:href="#DejaVuSans-74"/>
      <use x="227.685547" xlink:href="#DejaVuSans-68"/>
      <use x="291.064453" xlink:href="#DejaVuSans-20"/>
      <use x="322.851562" xlink:href="#DejaVuSans-32"/>
      <use x="386.474609" xlink:href="#DejaVuSans-28"/>
      <use x="425.488281" xlink:href="#DejaVuSans-76"/>
      <use x="484.667969" xlink:href="#DejaVuSans-61"/>
      <use x="545.947266" xlink:href="#DejaVuSans-6c"/>
      <use x="573.730469" xlink:href="#DejaVuSans-69"/>
      <use x="601.513672" xlink:href="#DejaVuSans-64"/>
      <use x="664.990234" xlink:href="#DejaVuSans-29"/>
     </g>
    </g>
    <g id="line2d_43">
     <path d="M 507.479375 93.689062 
L 527.479375 93.689062 
" style="fill:none;stroke:#008000;stroke-dasharray:5.55,2.4;stroke-dashoffset:0;stroke-width:1.5;"/>
    </g>
    <g id="line2d_44"/>
    <g id="text_21">
     <!-- depth 3(valid) -->
     <g transform="translate(535.479375 97.189062)scale(0.1 -0.1)">
      <use xlink:href="#DejaVuSans-64"/>
      <use x="63.476562" xlink:href="#DejaVuSans-65"/>
      <use x="125" xlink:href="#DejaVuSans-70"/>
      <use x="188.476562" xlink:href="#DejaVuSans-74"/>
      <use x="227.685547" xlink:href="#DejaVuSans-68"/>
      <use x="291.064453" xlink:href="#DejaVuSans-20"/>
      <use x="322.851562" xlink:href="#DejaVuSans-33"/>
      <use x="386.474609" xlink:href="#DejaVuSans-28"/>
      <use x="425.488281" xlink:href="#DejaVuSans-76"/>
      <use x="484.667969" xlink:href="#DejaVuSans-61"/>
      <use x="545.947266" xlink:href="#DejaVuSans-6c"/>
      <use x="573.730469" xlink:href="#DejaVuSans-69"/>
      <use x="601.513672" xlink:href="#DejaVuSans-64"/>
      <use x="664.990234" xlink:href="#DejaVuSans-29"/>
     </g>
    </g>
   </g>
  </g>
 </g>
 <defs>
  <clipPath id="p203776f447">
   <rect height="217.44" width="446.4" x="52.079375" y="7.2"/>
  </clipPath>
 </defs>
</svg>
