<?xml version="1.0" encoding="utf-8" standalone="no"?>
<!DOCTYPE svg PUBLIC "-//W3C//DTD SVG 1.1//EN"
  "http://www.w3.org/Graphics/SVG/1.1/DTD/svg11.dtd">
<svg height="265.020743pt" version="1.1" viewBox="0 0 628.262187 265.020743" width="628.262187pt" xmlns="http://www.w3.org/2000/svg" xmlns:xlink="http://www.w3.org/1999/xlink">
 <metadata>
  <rdf:RDF xmlns:cc="http://creativecommons.org/ns#" xmlns:dc="http://purl.org/dc/elements/1.1/" xmlns:rdf="http://www.w3.org/1999/02/22-rdf-syntax-ns#">
   <cc:Work>
    <dc:type rdf:resource="http://purl.org/dc/dcmitype/StillImage"/>
    <dc:date>2021-11-04T13:40:34.180496</dc:date>
    <dc:format>image/svg+xml</dc:format>
    <dc:creator>
     <cc:Agent>
      <dc:title>Matplotlib v3.4.2, https://matplotlib.org/</dc:title>
     </cc:Agent>
    </dc:creator>
   </cc:Work>
  </rdf:RDF>
 </metadata>
 <defs>
  <style type="text/css">*{stroke-linecap:butt;stroke-linejoin:round;}</style>
 </defs>
 <g id="figure_1">
  <g id="patch_1">
   <path d="M 0 265.020743 
L 628.262187 265.020743 
L 628.262187 0 
L 0 0 
z
" style="fill:#ffffff;"/>
  </g>
  <g id="axes_1">
   <g id="patch_2">
    <path d="M 52.079375 225.528868 
L 498.479375 225.528868 
L 498.479375 8.088868 
L 52.079375 8.088868 
z
" style="fill:#e5e5e5;"/>
   </g>
   <g id="matplotlib.axis_1">
    <g id="xtick_1">
     <g id="line2d_1">
      <path clip-path="url(#pf654122190)" d="M 68.271111 225.528868 
L 68.271111 8.088868 
" style="fill:none;stroke:#ffffff;stroke-linecap:square;stroke-width:0.8;"/>
     </g>
     <g id="line2d_2">
      <defs>
       <path d="M 0 0 
L 0 3.5 
" id="m6e82f2533b" style="stroke:#555555;stroke-width:0.8;"/>
      </defs>
      <g>
       <use style="fill:#555555;stroke:#555555;stroke-width:0.8;" x="68.271111" xlink:href="#m6e82f2533b" y="225.528868"/>
      </g>
     </g>
     <g id="text_1">
      <!-- 0 -->
      <g style="fill:#555555;" transform="translate(65.089861 240.127306)scale(0.1 -0.1)">
       <defs>
        <path d="M 2034 4250 
Q 1547 4250 1301 3770 
Q 1056 3291 1056 2328 
Q 1056 1369 1301 889 
Q 1547 409 2034 409 
Q 2525 409 2770 889 
Q 3016 1369 3016 2328 
Q 3016 3291 2770 3770 
Q 2525 4250 2034 4250 
z
M 2034 4750 
Q 2819 4750 3233 4129 
Q 3647 3509 3647 2328 
Q 3647 1150 3233 529 
Q 2819 -91 2034 -91 
Q 1250 -91 836 529 
Q 422 1150 422 2328 
Q 422 3509 836 4129 
Q 1250 4750 2034 4750 
z
" id="DejaVuSans-30" transform="scale(0.015625)"/>
       </defs>
       <use xlink:href="#DejaVuSans-30"/>
      </g>
     </g>
    </g>
    <g id="xtick_2">
     <g id="line2d_3">
      <path clip-path="url(#pf654122190)" d="M 150.254582 225.528868 
L 150.254582 8.088868 
" style="fill:none;stroke:#ffffff;stroke-linecap:square;stroke-width:0.8;"/>
     </g>
     <g id="line2d_4">
      <g>
       <use style="fill:#555555;stroke:#555555;stroke-width:0.8;" x="150.254582" xlink:href="#m6e82f2533b" y="225.528868"/>
      </g>
     </g>
     <g id="text_2">
      <!-- 20 -->
      <g style="fill:#555555;" transform="translate(143.892082 240.127306)scale(0.1 -0.1)">
       <defs>
        <path d="M 1228 531 
L 3431 531 
L 3431 0 
L 469 0 
L 469 531 
Q 828 903 1448 1529 
Q 2069 2156 2228 2338 
Q 2531 2678 2651 2914 
Q 2772 3150 2772 3378 
Q 2772 3750 2511 3984 
Q 2250 4219 1831 4219 
Q 1534 4219 1204 4116 
Q 875 4013 500 3803 
L 500 4441 
Q 881 4594 1212 4672 
Q 1544 4750 1819 4750 
Q 2544 4750 2975 4387 
Q 3406 4025 3406 3419 
Q 3406 3131 3298 2873 
Q 3191 2616 2906 2266 
Q 2828 2175 2409 1742 
Q 1991 1309 1228 531 
z
" id="DejaVuSans-32" transform="scale(0.015625)"/>
       </defs>
       <use xlink:href="#DejaVuSans-32"/>
       <use x="63.623047" xlink:href="#DejaVuSans-30"/>
      </g>
     </g>
    </g>
    <g id="xtick_3">
     <g id="line2d_5">
      <path clip-path="url(#pf654122190)" d="M 232.238053 225.528868 
L 232.238053 8.088868 
" style="fill:none;stroke:#ffffff;stroke-linecap:square;stroke-width:0.8;"/>
     </g>
     <g id="line2d_6">
      <g>
       <use style="fill:#555555;stroke:#555555;stroke-width:0.8;" x="232.238053" xlink:href="#m6e82f2533b" y="225.528868"/>
      </g>
     </g>
     <g id="text_3">
      <!-- 40 -->
      <g style="fill:#555555;" transform="translate(225.875553 240.127306)scale(0.1 -0.1)">
       <defs>
        <path d="M 2419 4116 
L 825 1625 
L 2419 1625 
L 2419 4116 
z
M 2253 4666 
L 3047 4666 
L 3047 1625 
L 3713 1625 
L 3713 1100 
L 3047 1100 
L 3047 0 
L 2419 0 
L 2419 1100 
L 313 1100 
L 313 1709 
L 2253 4666 
z
" id="DejaVuSans-34" transform="scale(0.015625)"/>
       </defs>
       <use xlink:href="#DejaVuSans-34"/>
       <use x="63.623047" xlink:href="#DejaVuSans-30"/>
      </g>
     </g>
    </g>
    <g id="xtick_4">
     <g id="line2d_7">
      <path clip-path="url(#pf654122190)" d="M 314.221524 225.528868 
L 314.221524 8.088868 
" style="fill:none;stroke:#ffffff;stroke-linecap:square;stroke-width:0.8;"/>
     </g>
     <g id="line2d_8">
      <g>
       <use style="fill:#555555;stroke:#555555;stroke-width:0.8;" x="314.221524" xlink:href="#m6e82f2533b" y="225.528868"/>
      </g>
     </g>
     <g id="text_4">
      <!-- 60 -->
      <g style="fill:#555555;" transform="translate(307.859024 240.127306)scale(0.1 -0.1)">
       <defs>
        <path d="M 2113 2584 
Q 1688 2584 1439 2293 
Q 1191 2003 1191 1497 
Q 1191 994 1439 701 
Q 1688 409 2113 409 
Q 2538 409 2786 701 
Q 3034 994 3034 1497 
Q 3034 2003 2786 2293 
Q 2538 2584 2113 2584 
z
M 3366 4563 
L 3366 3988 
Q 3128 4100 2886 4159 
Q 2644 4219 2406 4219 
Q 1781 4219 1451 3797 
Q 1122 3375 1075 2522 
Q 1259 2794 1537 2939 
Q 1816 3084 2150 3084 
Q 2853 3084 3261 2657 
Q 3669 2231 3669 1497 
Q 3669 778 3244 343 
Q 2819 -91 2113 -91 
Q 1303 -91 875 529 
Q 447 1150 447 2328 
Q 447 3434 972 4092 
Q 1497 4750 2381 4750 
Q 2619 4750 2861 4703 
Q 3103 4656 3366 4563 
z
" id="DejaVuSans-36" transform="scale(0.015625)"/>
       </defs>
       <use xlink:href="#DejaVuSans-36"/>
       <use x="63.623047" xlink:href="#DejaVuSans-30"/>
      </g>
     </g>
    </g>
    <g id="xtick_5">
     <g id="line2d_9">
      <path clip-path="url(#pf654122190)" d="M 396.204995 225.528868 
L 396.204995 8.088868 
" style="fill:none;stroke:#ffffff;stroke-linecap:square;stroke-width:0.8;"/>
     </g>
     <g id="line2d_10">
      <g>
       <use style="fill:#555555;stroke:#555555;stroke-width:0.8;" x="396.204995" xlink:href="#m6e82f2533b" y="225.528868"/>
      </g>
     </g>
     <g id="text_5">
      <!-- 80 -->
      <g style="fill:#555555;" transform="translate(389.842495 240.127306)scale(0.1 -0.1)">
       <defs>
        <path d="M 2034 2216 
Q 1584 2216 1326 1975 
Q 1069 1734 1069 1313 
Q 1069 891 1326 650 
Q 1584 409 2034 409 
Q 2484 409 2743 651 
Q 3003 894 3003 1313 
Q 3003 1734 2745 1975 
Q 2488 2216 2034 2216 
z
M 1403 2484 
Q 997 2584 770 2862 
Q 544 3141 544 3541 
Q 544 4100 942 4425 
Q 1341 4750 2034 4750 
Q 2731 4750 3128 4425 
Q 3525 4100 3525 3541 
Q 3525 3141 3298 2862 
Q 3072 2584 2669 2484 
Q 3125 2378 3379 2068 
Q 3634 1759 3634 1313 
Q 3634 634 3220 271 
Q 2806 -91 2034 -91 
Q 1263 -91 848 271 
Q 434 634 434 1313 
Q 434 1759 690 2068 
Q 947 2378 1403 2484 
z
M 1172 3481 
Q 1172 3119 1398 2916 
Q 1625 2713 2034 2713 
Q 2441 2713 2670 2916 
Q 2900 3119 2900 3481 
Q 2900 3844 2670 4047 
Q 2441 4250 2034 4250 
Q 1625 4250 1398 4047 
Q 1172 3844 1172 3481 
z
" id="DejaVuSans-38" transform="scale(0.015625)"/>
       </defs>
       <use xlink:href="#DejaVuSans-38"/>
       <use x="63.623047" xlink:href="#DejaVuSans-30"/>
      </g>
     </g>
    </g>
    <g id="xtick_6">
     <g id="line2d_11">
      <path clip-path="url(#pf654122190)" d="M 478.188466 225.528868 
L 478.188466 8.088868 
" style="fill:none;stroke:#ffffff;stroke-linecap:square;stroke-width:0.8;"/>
     </g>
     <g id="line2d_12">
      <g>
       <use style="fill:#555555;stroke:#555555;stroke-width:0.8;" x="478.188466" xlink:href="#m6e82f2533b" y="225.528868"/>
      </g>
     </g>
     <g id="text_6">
      <!-- 100 -->
      <g style="fill:#555555;" transform="translate(468.644716 240.127306)scale(0.1 -0.1)">
       <defs>
        <path d="M 794 531 
L 1825 531 
L 1825 4091 
L 703 3866 
L 703 4441 
L 1819 4666 
L 2450 4666 
L 2450 531 
L 3481 531 
L 3481 0 
L 794 0 
L 794 531 
z
" id="DejaVuSans-31" transform="scale(0.015625)"/>
       </defs>
       <use xlink:href="#DejaVuSans-31"/>
       <use x="63.623047" xlink:href="#DejaVuSans-30"/>
       <use x="127.246094" xlink:href="#DejaVuSans-30"/>
      </g>
     </g>
    </g>
    <g id="text_7">
     <!-- Epoch number -->
     <g style="fill:#555555;" transform="translate(231.5825 255.325118)scale(0.12 -0.12)">
      <defs>
       <path d="M 628 4666 
L 3578 4666 
L 3578 4134 
L 1259 4134 
L 1259 2753 
L 3481 2753 
L 3481 2222 
L 1259 2222 
L 1259 531 
L 3634 531 
L 3634 0 
L 628 0 
L 628 4666 
z
" id="DejaVuSans-45" transform="scale(0.015625)"/>
       <path d="M 1159 525 
L 1159 -1331 
L 581 -1331 
L 581 3500 
L 1159 3500 
L 1159 2969 
Q 1341 3281 1617 3432 
Q 1894 3584 2278 3584 
Q 2916 3584 3314 3078 
Q 3713 2572 3713 1747 
Q 3713 922 3314 415 
Q 2916 -91 2278 -91 
Q 1894 -91 1617 61 
Q 1341 213 1159 525 
z
M 3116 1747 
Q 3116 2381 2855 2742 
Q 2594 3103 2138 3103 
Q 1681 3103 1420 2742 
Q 1159 2381 1159 1747 
Q 1159 1113 1420 752 
Q 1681 391 2138 391 
Q 2594 391 2855 752 
Q 3116 1113 3116 1747 
z
" id="DejaVuSans-70" transform="scale(0.015625)"/>
       <path d="M 1959 3097 
Q 1497 3097 1228 2736 
Q 959 2375 959 1747 
Q 959 1119 1226 758 
Q 1494 397 1959 397 
Q 2419 397 2687 759 
Q 2956 1122 2956 1747 
Q 2956 2369 2687 2733 
Q 2419 3097 1959 3097 
z
M 1959 3584 
Q 2709 3584 3137 3096 
Q 3566 2609 3566 1747 
Q 3566 888 3137 398 
Q 2709 -91 1959 -91 
Q 1206 -91 779 398 
Q 353 888 353 1747 
Q 353 2609 779 3096 
Q 1206 3584 1959 3584 
z
" id="DejaVuSans-6f" transform="scale(0.015625)"/>
       <path d="M 3122 3366 
L 3122 2828 
Q 2878 2963 2633 3030 
Q 2388 3097 2138 3097 
Q 1578 3097 1268 2742 
Q 959 2388 959 1747 
Q 959 1106 1268 751 
Q 1578 397 2138 397 
Q 2388 397 2633 464 
Q 2878 531 3122 666 
L 3122 134 
Q 2881 22 2623 -34 
Q 2366 -91 2075 -91 
Q 1284 -91 818 406 
Q 353 903 353 1747 
Q 353 2603 823 3093 
Q 1294 3584 2113 3584 
Q 2378 3584 2631 3529 
Q 2884 3475 3122 3366 
z
" id="DejaVuSans-63" transform="scale(0.015625)"/>
       <path d="M 3513 2113 
L 3513 0 
L 2938 0 
L 2938 2094 
Q 2938 2591 2744 2837 
Q 2550 3084 2163 3084 
Q 1697 3084 1428 2787 
Q 1159 2491 1159 1978 
L 1159 0 
L 581 0 
L 581 4863 
L 1159 4863 
L 1159 2956 
Q 1366 3272 1645 3428 
Q 1925 3584 2291 3584 
Q 2894 3584 3203 3211 
Q 3513 2838 3513 2113 
z
" id="DejaVuSans-68" transform="scale(0.015625)"/>
       <path id="DejaVuSans-20" transform="scale(0.015625)"/>
       <path d="M 3513 2113 
L 3513 0 
L 2938 0 
L 2938 2094 
Q 2938 2591 2744 2837 
Q 2550 3084 2163 3084 
Q 1697 3084 1428 2787 
Q 1159 2491 1159 1978 
L 1159 0 
L 581 0 
L 581 3500 
L 1159 3500 
L 1159 2956 
Q 1366 3272 1645 3428 
Q 1925 3584 2291 3584 
Q 2894 3584 3203 3211 
Q 3513 2838 3513 2113 
z
" id="DejaVuSans-6e" transform="scale(0.015625)"/>
       <path d="M 544 1381 
L 544 3500 
L 1119 3500 
L 1119 1403 
Q 1119 906 1312 657 
Q 1506 409 1894 409 
Q 2359 409 2629 706 
Q 2900 1003 2900 1516 
L 2900 3500 
L 3475 3500 
L 3475 0 
L 2900 0 
L 2900 538 
Q 2691 219 2414 64 
Q 2138 -91 1772 -91 
Q 1169 -91 856 284 
Q 544 659 544 1381 
z
M 1991 3584 
L 1991 3584 
z
" id="DejaVuSans-75" transform="scale(0.015625)"/>
       <path d="M 3328 2828 
Q 3544 3216 3844 3400 
Q 4144 3584 4550 3584 
Q 5097 3584 5394 3201 
Q 5691 2819 5691 2113 
L 5691 0 
L 5113 0 
L 5113 2094 
Q 5113 2597 4934 2840 
Q 4756 3084 4391 3084 
Q 3944 3084 3684 2787 
Q 3425 2491 3425 1978 
L 3425 0 
L 2847 0 
L 2847 2094 
Q 2847 2600 2669 2842 
Q 2491 3084 2119 3084 
Q 1678 3084 1418 2786 
Q 1159 2488 1159 1978 
L 1159 0 
L 581 0 
L 581 3500 
L 1159 3500 
L 1159 2956 
Q 1356 3278 1631 3431 
Q 1906 3584 2284 3584 
Q 2666 3584 2933 3390 
Q 3200 3197 3328 2828 
z
" id="DejaVuSans-6d" transform="scale(0.015625)"/>
       <path d="M 3116 1747 
Q 3116 2381 2855 2742 
Q 2594 3103 2138 3103 
Q 1681 3103 1420 2742 
Q 1159 2381 1159 1747 
Q 1159 1113 1420 752 
Q 1681 391 2138 391 
Q 2594 391 2855 752 
Q 3116 1113 3116 1747 
z
M 1159 2969 
Q 1341 3281 1617 3432 
Q 1894 3584 2278 3584 
Q 2916 3584 3314 3078 
Q 3713 2572 3713 1747 
Q 3713 922 3314 415 
Q 2916 -91 2278 -91 
Q 1894 -91 1617 61 
Q 1341 213 1159 525 
L 1159 0 
L 581 0 
L 581 4863 
L 1159 4863 
L 1159 2969 
z
" id="DejaVuSans-62" transform="scale(0.015625)"/>
       <path d="M 3597 1894 
L 3597 1613 
L 953 1613 
Q 991 1019 1311 708 
Q 1631 397 2203 397 
Q 2534 397 2845 478 
Q 3156 559 3463 722 
L 3463 178 
Q 3153 47 2828 -22 
Q 2503 -91 2169 -91 
Q 1331 -91 842 396 
Q 353 884 353 1716 
Q 353 2575 817 3079 
Q 1281 3584 2069 3584 
Q 2775 3584 3186 3129 
Q 3597 2675 3597 1894 
z
M 3022 2063 
Q 3016 2534 2758 2815 
Q 2500 3097 2075 3097 
Q 1594 3097 1305 2825 
Q 1016 2553 972 2059 
L 3022 2063 
z
" id="DejaVuSans-65" transform="scale(0.015625)"/>
       <path d="M 2631 2963 
Q 2534 3019 2420 3045 
Q 2306 3072 2169 3072 
Q 1681 3072 1420 2755 
Q 1159 2438 1159 1844 
L 1159 0 
L 581 0 
L 581 3500 
L 1159 3500 
L 1159 2956 
Q 1341 3275 1631 3429 
Q 1922 3584 2338 3584 
Q 2397 3584 2469 3576 
Q 2541 3569 2628 3553 
L 2631 2963 
z
" id="DejaVuSans-72" transform="scale(0.015625)"/>
      </defs>
      <use xlink:href="#DejaVuSans-45"/>
      <use x="63.183594" xlink:href="#DejaVuSans-70"/>
      <use x="126.660156" xlink:href="#DejaVuSans-6f"/>
      <use x="187.841797" xlink:href="#DejaVuSans-63"/>
      <use x="242.822266" xlink:href="#DejaVuSans-68"/>
      <use x="306.201172" xlink:href="#DejaVuSans-20"/>
      <use x="337.988281" xlink:href="#DejaVuSans-6e"/>
      <use x="401.367188" xlink:href="#DejaVuSans-75"/>
      <use x="464.746094" xlink:href="#DejaVuSans-6d"/>
      <use x="562.158203" xlink:href="#DejaVuSans-62"/>
      <use x="625.634766" xlink:href="#DejaVuSans-65"/>
      <use x="687.158203" xlink:href="#DejaVuSans-72"/>
     </g>
    </g>
   </g>
   <g id="matplotlib.axis_2">
    <g id="ytick_1">
     <g id="line2d_13">
      <path clip-path="url(#pf654122190)" d="M 52.079375 205.218533 
L 498.479375 205.218533 
" style="fill:none;stroke:#ffffff;stroke-linecap:square;stroke-width:0.8;"/>
     </g>
     <g id="line2d_14">
      <defs>
       <path d="M 0 0 
L -3.5 0 
" id="m9bba4bea22" style="stroke:#555555;stroke-width:0.8;"/>
      </defs>
      <g>
       <use style="fill:#555555;stroke:#555555;stroke-width:0.8;" x="52.079375" xlink:href="#m9bba4bea22" y="205.218533"/>
      </g>
     </g>
     <g id="text_8">
      <!-- 0.50 -->
      <g style="fill:#555555;" transform="translate(22.81375 209.017752)scale(0.1 -0.1)">
       <defs>
        <path d="M 684 794 
L 1344 794 
L 1344 0 
L 684 0 
L 684 794 
z
" id="DejaVuSans-2e" transform="scale(0.015625)"/>
        <path d="M 691 4666 
L 3169 4666 
L 3169 4134 
L 1269 4134 
L 1269 2991 
Q 1406 3038 1543 3061 
Q 1681 3084 1819 3084 
Q 2600 3084 3056 2656 
Q 3513 2228 3513 1497 
Q 3513 744 3044 326 
Q 2575 -91 1722 -91 
Q 1428 -91 1123 -41 
Q 819 9 494 109 
L 494 744 
Q 775 591 1075 516 
Q 1375 441 1709 441 
Q 2250 441 2565 725 
Q 2881 1009 2881 1497 
Q 2881 1984 2565 2268 
Q 2250 2553 1709 2553 
Q 1456 2553 1204 2497 
Q 953 2441 691 2322 
L 691 4666 
z
" id="DejaVuSans-35" transform="scale(0.015625)"/>
       </defs>
       <use xlink:href="#DejaVuSans-30"/>
       <use x="63.623047" xlink:href="#DejaVuSans-2e"/>
       <use x="95.410156" xlink:href="#DejaVuSans-35"/>
       <use x="159.033203" xlink:href="#DejaVuSans-30"/>
      </g>
     </g>
    </g>
    <g id="ytick_2">
     <g id="line2d_15">
      <path clip-path="url(#pf654122190)" d="M 52.079375 180.941119 
L 498.479375 180.941119 
" style="fill:none;stroke:#ffffff;stroke-linecap:square;stroke-width:0.8;"/>
     </g>
     <g id="line2d_16">
      <g>
       <use style="fill:#555555;stroke:#555555;stroke-width:0.8;" x="52.079375" xlink:href="#m9bba4bea22" y="180.941119"/>
      </g>
     </g>
     <g id="text_9">
      <!-- 0.75 -->
      <g style="fill:#555555;" transform="translate(22.81375 184.740338)scale(0.1 -0.1)">
       <defs>
        <path d="M 525 4666 
L 3525 4666 
L 3525 4397 
L 1831 0 
L 1172 0 
L 2766 4134 
L 525 4134 
L 525 4666 
z
" id="DejaVuSans-37" transform="scale(0.015625)"/>
       </defs>
       <use xlink:href="#DejaVuSans-30"/>
       <use x="63.623047" xlink:href="#DejaVuSans-2e"/>
       <use x="95.410156" xlink:href="#DejaVuSans-37"/>
       <use x="159.033203" xlink:href="#DejaVuSans-35"/>
      </g>
     </g>
    </g>
    <g id="ytick_3">
     <g id="line2d_17">
      <path clip-path="url(#pf654122190)" d="M 52.079375 156.663705 
L 498.479375 156.663705 
" style="fill:none;stroke:#ffffff;stroke-linecap:square;stroke-width:0.8;"/>
     </g>
     <g id="line2d_18">
      <g>
       <use style="fill:#555555;stroke:#555555;stroke-width:0.8;" x="52.079375" xlink:href="#m9bba4bea22" y="156.663705"/>
      </g>
     </g>
     <g id="text_10">
      <!-- 1.00 -->
      <g style="fill:#555555;" transform="translate(22.81375 160.462923)scale(0.1 -0.1)">
       <use xlink:href="#DejaVuSans-31"/>
       <use x="63.623047" xlink:href="#DejaVuSans-2e"/>
       <use x="95.410156" xlink:href="#DejaVuSans-30"/>
       <use x="159.033203" xlink:href="#DejaVuSans-30"/>
      </g>
     </g>
    </g>
    <g id="ytick_4">
     <g id="line2d_19">
      <path clip-path="url(#pf654122190)" d="M 52.079375 132.38629 
L 498.479375 132.38629 
" style="fill:none;stroke:#ffffff;stroke-linecap:square;stroke-width:0.8;"/>
     </g>
     <g id="line2d_20">
      <g>
       <use style="fill:#555555;stroke:#555555;stroke-width:0.8;" x="52.079375" xlink:href="#m9bba4bea22" y="132.38629"/>
      </g>
     </g>
     <g id="text_11">
      <!-- 1.25 -->
      <g style="fill:#555555;" transform="translate(22.81375 136.185509)scale(0.1 -0.1)">
       <use xlink:href="#DejaVuSans-31"/>
       <use x="63.623047" xlink:href="#DejaVuSans-2e"/>
       <use x="95.410156" xlink:href="#DejaVuSans-32"/>
       <use x="159.033203" xlink:href="#DejaVuSans-35"/>
      </g>
     </g>
    </g>
    <g id="ytick_5">
     <g id="line2d_21">
      <path clip-path="url(#pf654122190)" d="M 52.079375 108.108876 
L 498.479375 108.108876 
" style="fill:none;stroke:#ffffff;stroke-linecap:square;stroke-width:0.8;"/>
     </g>
     <g id="line2d_22">
      <g>
       <use style="fill:#555555;stroke:#555555;stroke-width:0.8;" x="52.079375" xlink:href="#m9bba4bea22" y="108.108876"/>
      </g>
     </g>
     <g id="text_12">
      <!-- 1.50 -->
      <g style="fill:#555555;" transform="translate(22.81375 111.908095)scale(0.1 -0.1)">
       <use xlink:href="#DejaVuSans-31"/>
       <use x="63.623047" xlink:href="#DejaVuSans-2e"/>
       <use x="95.410156" xlink:href="#DejaVuSans-35"/>
       <use x="159.033203" xlink:href="#DejaVuSans-30"/>
      </g>
     </g>
    </g>
    <g id="ytick_6">
     <g id="line2d_23">
      <path clip-path="url(#pf654122190)" d="M 52.079375 83.831462 
L 498.479375 83.831462 
" style="fill:none;stroke:#ffffff;stroke-linecap:square;stroke-width:0.8;"/>
     </g>
     <g id="line2d_24">
      <g>
       <use style="fill:#555555;stroke:#555555;stroke-width:0.8;" x="52.079375" xlink:href="#m9bba4bea22" y="83.831462"/>
      </g>
     </g>
     <g id="text_13">
      <!-- 1.75 -->
      <g style="fill:#555555;" transform="translate(22.81375 87.63068)scale(0.1 -0.1)">
       <use xlink:href="#DejaVuSans-31"/>
       <use x="63.623047" xlink:href="#DejaVuSans-2e"/>
       <use x="95.410156" xlink:href="#DejaVuSans-37"/>
       <use x="159.033203" xlink:href="#DejaVuSans-35"/>
      </g>
     </g>
    </g>
    <g id="ytick_7">
     <g id="line2d_25">
      <path clip-path="url(#pf654122190)" d="M 52.079375 59.554047 
L 498.479375 59.554047 
" style="fill:none;stroke:#ffffff;stroke-linecap:square;stroke-width:0.8;"/>
     </g>
     <g id="line2d_26">
      <g>
       <use style="fill:#555555;stroke:#555555;stroke-width:0.8;" x="52.079375" xlink:href="#m9bba4bea22" y="59.554047"/>
      </g>
     </g>
     <g id="text_14">
      <!-- 2.00 -->
      <g style="fill:#555555;" transform="translate(22.81375 63.353266)scale(0.1 -0.1)">
       <use xlink:href="#DejaVuSans-32"/>
       <use x="63.623047" xlink:href="#DejaVuSans-2e"/>
       <use x="95.410156" xlink:href="#DejaVuSans-30"/>
       <use x="159.033203" xlink:href="#DejaVuSans-30"/>
      </g>
     </g>
    </g>
    <g id="ytick_8">
     <g id="line2d_27">
      <path clip-path="url(#pf654122190)" d="M 52.079375 35.276633 
L 498.479375 35.276633 
" style="fill:none;stroke:#ffffff;stroke-linecap:square;stroke-width:0.8;"/>
     </g>
     <g id="line2d_28">
      <g>
       <use style="fill:#555555;stroke:#555555;stroke-width:0.8;" x="52.079375" xlink:href="#m9bba4bea22" y="35.276633"/>
      </g>
     </g>
     <g id="text_15">
      <!-- 2.25 -->
      <g style="fill:#555555;" transform="translate(22.81375 39.075852)scale(0.1 -0.1)">
       <use xlink:href="#DejaVuSans-32"/>
       <use x="63.623047" xlink:href="#DejaVuSans-2e"/>
       <use x="95.410156" xlink:href="#DejaVuSans-32"/>
       <use x="159.033203" xlink:href="#DejaVuSans-35"/>
      </g>
     </g>
    </g>
    <g id="ytick_9">
     <g id="line2d_29">
      <path clip-path="url(#pf654122190)" d="M 52.079375 10.999219 
L 498.479375 10.999219 
" style="fill:none;stroke:#ffffff;stroke-linecap:square;stroke-width:0.8;"/>
     </g>
     <g id="line2d_30">
      <g>
       <use style="fill:#555555;stroke:#555555;stroke-width:0.8;" x="52.079375" xlink:href="#m9bba4bea22" y="10.999219"/>
      </g>
     </g>
     <g id="text_16">
      <!-- 2.50 -->
      <g style="fill:#555555;" transform="translate(22.81375 14.798437)scale(0.1 -0.1)">
       <use xlink:href="#DejaVuSans-32"/>
       <use x="63.623047" xlink:href="#DejaVuSans-2e"/>
       <use x="95.410156" xlink:href="#DejaVuSans-35"/>
       <use x="159.033203" xlink:href="#DejaVuSans-30"/>
      </g>
     </g>
    </g>
    <g id="text_17">
     <!-- Error -->
     <g style="fill:#555555;" transform="translate(16.318125 131.431056)rotate(-90)scale(0.12 -0.12)">
      <use xlink:href="#DejaVuSans-45"/>
      <use x="63.183594" xlink:href="#DejaVuSans-72"/>
      <use x="102.546875" xlink:href="#DejaVuSans-72"/>
      <use x="141.410156" xlink:href="#DejaVuSans-6f"/>
      <use x="202.591797" xlink:href="#DejaVuSans-72"/>
     </g>
    </g>
   </g>
   <g id="line2d_31">
    <path clip-path="url(#pf654122190)" d="M 72.370284 18.49271 
L 76.469458 82.678411 
L 80.568631 104.879694 
L 84.667805 115.751389 
L 88.766978 122.031823 
L 92.866152 126.44692 
L 96.965325 129.861685 
L 101.064499 132.486277 
L 105.163673 134.633462 
L 109.262846 136.417022 
L 113.36202 138.054978 
L 117.461193 139.536458 
L 121.560367 140.79316 
L 125.65954 142.016758 
L 129.758714 143.037512 
L 133.857887 144.129897 
L 137.957061 145.118861 
L 142.056235 145.907643 
L 146.155408 146.824973 
L 150.254582 147.631047 
L 154.353755 148.520857 
L 158.452929 149.220328 
L 162.552102 149.944278 
L 166.651276 150.607586 
L 170.750449 151.324694 
L 174.849623 152.047566 
L 178.948796 152.597321 
L 183.04797 153.172322 
L 187.147144 153.825408 
L 191.246317 154.4172 
L 195.345491 154.964377 
L 199.444664 155.549696 
L 203.543838 156.038508 
L 207.643011 156.583797 
L 211.742185 156.990464 
L 215.841358 157.554835 
L 219.940532 157.987401 
L 224.039706 158.547647 
L 228.138879 159.044672 
L 232.238053 159.435784 
L 236.337226 159.836805 
L 240.4364 160.286413 
L 244.535573 160.745329 
L 248.634747 161.159562 
L 252.73392 161.511818 
L 256.833094 161.915915 
L 260.932268 162.284384 
L 265.031441 162.75592 
L 269.130615 163.035268 
L 273.229788 163.3754 
L 277.328962 163.878656 
L 281.428135 164.205848 
L 285.527309 164.51212 
L 289.626482 164.889598 
L 293.725656 165.265358 
L 297.82483 165.56983 
L 301.924003 165.964072 
L 306.023177 166.250184 
L 310.12235 166.535105 
L 314.221524 166.876088 
L 318.320697 167.116411 
L 322.419871 167.379919 
L 326.519044 167.722628 
L 330.618218 168.095952 
L 334.717392 168.352783 
L 338.816565 168.680947 
L 342.915739 168.948866 
L 347.014912 169.282094 
L 351.114086 169.461871 
L 355.213259 169.777837 
L 359.312433 169.990263 
L 363.411606 170.305414 
L 367.51078 170.494908 
L 371.609954 170.758742 
L 375.709127 171.070339 
L 379.808301 171.277383 
L 383.907474 171.488958 
L 388.006648 171.69312 
L 392.105821 171.92416 
L 396.204995 172.154648 
L 400.304168 172.455395 
L 404.403342 172.629368 
L 408.502515 172.795899 
L 412.601689 173.083594 
L 416.700863 173.278331 
L 420.800036 173.452623 
L 424.89921 173.561438 
L 428.998383 173.876573 
L 433.097557 173.968303 
L 437.19673 174.259633 
L 441.295904 174.45796 
L 445.395077 174.592221 
L 449.494251 174.766002 
L 453.593425 174.900847 
L 457.692598 175.097489 
L 461.791772 175.301039 
L 465.890945 175.492304 
L 469.990119 175.636336 
L 474.089292 175.691218 
L 478.188466 175.992148 
" style="fill:none;stroke:#ff0000;stroke-linecap:square;stroke-width:1.5;"/>
   </g>
   <g id="line2d_32">
    <path clip-path="url(#pf654122190)" d="M 72.370284 68.141346 
L 76.469458 110.788166 
L 80.568631 124.731084 
L 84.667805 132.046726 
L 88.766978 136.795457 
L 92.866152 140.40058 
L 96.965325 143.31567 
L 101.064499 145.751107 
L 105.163673 148.006847 
L 109.262846 150.12789 
L 113.36202 151.960314 
L 117.461193 153.820844 
L 121.560367 155.484774 
L 125.65954 157.125013 
L 129.758714 158.71667 
L 133.857887 160.279864 
L 137.957061 161.757051 
L 142.056235 163.240874 
L 146.155408 164.539275 
L 150.254582 165.812712 
L 154.353755 167.097053 
L 158.452929 168.410206 
L 162.552102 169.632353 
L 166.651276 170.746167 
L 170.750449 171.857947 
L 174.849623 172.85115 
L 178.948796 173.918522 
L 183.04797 174.985092 
L 187.147144 175.838947 
L 191.246317 176.729686 
L 195.345491 177.683175 
L 199.444664 178.400373 
L 203.543838 179.166046 
L 207.643011 179.919693 
L 211.742185 180.682919 
L 215.841358 181.311825 
L 219.940532 181.940741 
L 224.039706 182.530548 
L 228.138879 183.209507 
L 232.238053 183.846945 
L 236.337226 184.28672 
L 240.4364 184.961276 
L 244.535573 185.404791 
L 248.634747 185.976607 
L 252.73392 186.400544 
L 256.833094 186.811527 
L 260.932268 187.316209 
L 265.031441 187.793667 
L 269.130615 188.208542 
L 273.229788 188.496584 
L 277.328962 188.911993 
L 281.428135 189.181044 
L 285.527309 189.690228 
L 289.626482 189.941249 
L 293.725656 190.358833 
L 297.82483 190.641289 
L 301.924003 191.031331 
L 306.023177 191.291251 
L 310.12235 191.573477 
L 314.221524 191.890379 
L 318.320697 192.145458 
L 322.419871 192.328648 
L 326.519044 192.757112 
L 330.618218 193.051391 
L 334.717392 193.195614 
L 338.816565 193.426834 
L 342.915739 193.800133 
L 347.014912 194.010239 
L 351.114086 194.259369 
L 355.213259 194.429842 
L 359.312433 194.629903 
L 363.411606 194.770161 
L 367.51078 195.083828 
L 371.609954 195.312789 
L 375.709127 195.533561 
L 379.808301 195.68877 
L 383.907474 195.88152 
L 388.006648 196.11612 
L 392.105821 196.167155 
L 396.204995 196.395201 
L 400.304168 196.614236 
L 404.403342 196.807555 
L 408.502515 196.9133 
L 412.601689 197.103438 
L 416.700863 197.271088 
L 420.800036 197.536829 
L 424.89921 197.692628 
L 428.998383 197.652204 
L 433.097557 197.884444 
L 437.19673 198.069395 
L 441.295904 198.242694 
L 445.395077 198.396978 
L 449.494251 198.545514 
L 453.593425 198.625554 
L 457.692598 198.762436 
L 461.791772 198.928798 
L 465.890945 199.031595 
L 469.990119 199.230124 
L 474.089292 199.372493 
L 478.188466 199.374065 
" style="fill:none;stroke:#0000ff;stroke-linecap:square;stroke-width:1.5;"/>
   </g>
   <g id="line2d_33">
    <path clip-path="url(#pf654122190)" d="M 72.370284 99.055897 
L 76.469458 126.740592 
L 80.568631 137.149523 
L 84.667805 143.922781 
L 88.766978 148.923327 
L 92.866152 153.379281 
L 96.965325 157.156336 
L 101.064499 160.476528 
L 105.163673 163.81917 
L 109.262846 166.710922 
L 113.36202 169.248853 
L 117.461193 171.68538 
L 121.560367 173.89246 
L 125.65954 175.940977 
L 129.758714 177.828833 
L 133.857887 179.592941 
L 137.957061 181.165395 
L 142.056235 182.854504 
L 146.155408 184.272246 
L 150.254582 185.603452 
L 154.353755 186.965118 
L 158.452929 188.126898 
L 162.552102 189.232548 
L 166.651276 190.271433 
L 170.750449 191.174387 
L 174.849623 192.114455 
L 178.948796 192.94082 
L 183.04797 193.820342 
L 187.147144 194.660802 
L 191.246317 195.43003 
L 195.345491 196.169578 
L 199.444664 196.755194 
L 203.543838 197.452365 
L 207.643011 198.031635 
L 211.742185 198.725571 
L 215.841358 199.273327 
L 219.940532 199.83073 
L 224.039706 200.327082 
L 228.138879 200.873861 
L 232.238053 201.385224 
L 236.337226 201.771218 
L 240.4364 202.285353 
L 244.535573 202.542465 
L 248.634747 203.128104 
L 252.73392 203.528019 
L 256.833094 203.889097 
L 260.932268 204.238067 
L 265.031441 204.676207 
L 269.130615 204.958749 
L 273.229788 205.526882 
L 277.328962 205.718421 
L 281.428135 206.136756 
L 285.527309 206.289615 
L 289.626482 206.686053 
L 293.725656 206.957291 
L 297.82483 207.307836 
L 301.924003 207.482409 
L 306.023177 207.866894 
L 310.12235 208.243526 
L 314.221524 208.435044 
L 318.320697 208.634032 
L 322.419871 208.899784 
L 326.519044 209.204151 
L 330.618218 209.379723 
L 334.717392 209.662977 
L 338.816565 209.843879 
L 342.915739 210.120522 
L 347.014912 210.163112 
L 351.114086 210.620441 
L 355.213259 210.636038 
L 359.312433 210.998402 
L 363.411606 210.96206 
L 367.51078 211.385171 
L 371.609954 211.480708 
L 375.709127 211.698526 
L 379.808301 211.927884 
L 383.907474 212.172697 
L 388.006648 212.239309 
L 392.105821 212.536917 
L 396.204995 212.403816 
L 400.304168 212.783179 
L 404.403342 212.98633 
L 408.502515 213.106322 
L 412.601689 213.357551 
L 416.700863 213.424734 
L 420.800036 213.626571 
L 424.89921 213.824477 
L 428.998383 213.988141 
L 433.097557 214.17626 
L 437.19673 214.211244 
L 441.295904 214.43795 
L 445.395077 214.45578 
L 449.494251 214.613121 
L 453.593425 214.732605 
L 457.692598 214.828011 
L 461.791772 215.073449 
L 465.890945 215.152496 
L 469.990119 215.32405 
L 474.089292 215.504346 
L 478.188466 215.645232 
" style="fill:none;stroke:#800080;stroke-linecap:square;stroke-width:1.5;"/>
   </g>
   <g id="line2d_34">
    <path clip-path="url(#pf654122190)" d="M 72.370284 17.972505 
L 76.469458 82.509507 
L 80.568631 104.733026 
L 84.667805 115.488763 
L 88.766978 121.697326 
L 92.866152 125.990414 
L 96.965325 129.391511 
L 101.064499 131.942343 
L 105.163673 133.991443 
L 109.262846 135.749339 
L 113.36202 137.23843 
L 117.461193 138.641131 
L 121.560367 139.700963 
L 125.65954 140.843603 
L 129.758714 141.813427 
L 133.857887 142.775844 
L 137.957061 143.681463 
L 142.056235 144.428996 
L 146.155408 145.239562 
L 150.254582 145.911641 
L 154.353755 146.63979 
L 158.452929 147.268239 
L 162.552102 147.884754 
L 166.651276 148.477559 
L 170.750449 149.171465 
L 174.849623 149.761399 
L 178.948796 150.19233 
L 183.04797 150.777394 
L 187.147144 151.282712 
L 191.246317 151.810618 
L 195.345491 152.257786 
L 199.444664 152.782352 
L 203.543838 153.173455 
L 207.643011 153.658674 
L 211.742185 153.971908 
L 215.841358 154.497764 
L 219.940532 154.773796 
L 224.039706 155.296859 
L 228.138879 155.813219 
L 232.238053 156.051416 
L 236.337226 156.364566 
L 240.4364 156.79254 
L 244.535573 157.1822 
L 248.634747 157.53208 
L 252.73392 157.818993 
L 256.833094 158.134724 
L 260.932268 158.424487 
L 265.031441 158.937582 
L 269.130615 159.159514 
L 273.229788 159.351872 
L 277.328962 159.782691 
L 281.428135 160.192243 
L 285.527309 160.381141 
L 289.626482 160.817853 
L 293.725656 161.091554 
L 297.82483 161.352602 
L 301.924003 161.775163 
L 306.023177 162.029188 
L 310.12235 162.221793 
L 314.221524 162.549402 
L 318.320697 162.865451 
L 322.419871 163.08475 
L 326.519044 163.394774 
L 330.618218 163.741334 
L 334.717392 163.918551 
L 338.816565 164.204502 
L 342.915739 164.530776 
L 347.014912 164.82925 
L 351.114086 164.99541 
L 355.213259 165.237883 
L 359.312433 165.50421 
L 363.411606 165.720269 
L 367.51078 165.913028 
L 371.609954 166.146851 
L 375.709127 166.454874 
L 379.808301 166.591301 
L 383.907474 166.872361 
L 388.006648 167.001055 
L 392.105821 167.209844 
L 396.204995 167.445755 
L 400.304168 167.705604 
L 404.403342 167.826463 
L 408.502515 168.055262 
L 412.601689 168.264336 
L 416.700863 168.425308 
L 420.800036 168.665169 
L 424.89921 168.63452 
L 428.998383 168.962778 
L 433.097557 169.125705 
L 437.19673 169.411964 
L 441.295904 169.538103 
L 445.395077 169.611776 
L 449.494251 169.831762 
L 453.593425 169.962042 
L 457.692598 170.072729 
L 461.791772 170.20569 
L 465.890945 170.419269 
L 469.990119 170.599705 
L 474.089292 170.661296 
L 478.188466 170.937562 
" style="fill:none;stroke:#808080;stroke-dasharray:5.55,2.4;stroke-dashoffset:0;stroke-width:1.5;"/>
   </g>
   <g id="line2d_35">
    <path clip-path="url(#pf654122190)" d="M 72.370284 68.512568 
L 76.469458 111.014986 
L 80.568631 124.723173 
L 84.667805 131.735328 
L 88.766978 136.414268 
L 92.866152 139.774217 
L 96.965325 142.514216 
L 101.064499 144.821587 
L 105.163673 146.787928 
L 109.262846 148.674454 
L 113.36202 150.26601 
L 117.461193 151.983449 
L 121.560367 153.461183 
L 125.65954 155.005129 
L 129.758714 156.432014 
L 133.857887 157.776971 
L 137.957061 159.190073 
L 142.056235 160.573783 
L 146.155408 161.769803 
L 150.254582 162.910316 
L 154.353755 164.062303 
L 158.452929 165.272918 
L 162.552102 166.357353 
L 166.651276 167.390657 
L 170.750449 168.335716 
L 174.849623 169.28041 
L 178.948796 170.340436 
L 183.04797 171.119773 
L 187.147144 171.967414 
L 191.246317 172.801649 
L 195.345491 173.609812 
L 199.444664 174.272323 
L 203.543838 175.033822 
L 207.643011 175.687692 
L 211.742185 176.430681 
L 215.841358 176.936607 
L 219.940532 177.463024 
L 224.039706 177.844768 
L 228.138879 178.567201 
L 232.238053 179.142527 
L 236.337226 179.576666 
L 240.4364 180.136234 
L 244.535573 180.466978 
L 248.634747 181.040242 
L 252.73392 181.374456 
L 256.833094 181.683877 
L 260.932268 182.136645 
L 265.031441 182.541983 
L 269.130615 182.846717 
L 273.229788 183.154999 
L 277.328962 183.460328 
L 281.428135 183.686011 
L 285.527309 184.171474 
L 289.626482 184.289436 
L 293.725656 184.713763 
L 297.82483 184.793636 
L 301.924003 185.20225 
L 306.023177 185.391694 
L 310.12235 185.622633 
L 314.221524 185.911751 
L 318.320697 185.96007 
L 322.419871 186.182586 
L 326.519044 186.522498 
L 330.618218 186.809071 
L 334.717392 186.8866 
L 338.816565 187.051333 
L 342.915739 187.376285 
L 347.014912 187.45169 
L 351.114086 187.67811 
L 355.213259 187.827039 
L 359.312433 187.903355 
L 363.411606 187.994364 
L 367.51078 188.263782 
L 371.609954 188.40882 
L 375.709127 188.569401 
L 379.808301 188.776279 
L 383.907474 188.873381 
L 388.006648 188.999755 
L 392.105821 188.936885 
L 396.204995 189.143165 
L 400.304168 189.340377 
L 404.403342 189.566095 
L 408.502515 189.570569 
L 412.601689 189.690333 
L 416.700863 189.800705 
L 420.800036 189.912891 
L 424.89921 189.984755 
L 428.998383 189.94671 
L 433.097557 190.252042 
L 437.19673 190.38111 
L 441.295904 190.346275 
L 445.395077 190.581033 
L 449.494251 190.597204 
L 453.593425 190.683122 
L 457.692598 190.77099 
L 461.791772 190.771438 
L 465.890945 190.843708 
L 469.990119 191.01965 
L 474.089292 191.143322 
L 478.188466 191.068177 
" style="fill:none;stroke:#ffff00;stroke-dasharray:5.55,2.4;stroke-dashoffset:0;stroke-width:1.5;"/>
   </g>
   <g id="line2d_36">
    <path clip-path="url(#pf654122190)" d="M 72.370284 98.829089 
L 76.469458 126.311014 
L 80.568631 136.466022 
L 84.667805 142.817491 
L 88.766978 147.551879 
L 92.866152 151.745213 
L 96.965325 155.353051 
L 101.064499 158.387254 
L 105.163673 161.494531 
L 109.262846 164.282169 
L 113.36202 166.566936 
L 117.461193 168.889005 
L 121.560367 170.869397 
L 125.65954 172.751453 
L 129.758714 174.499031 
L 133.857887 175.995018 
L 137.957061 177.570266 
L 142.056235 178.937346 
L 146.155408 180.34072 
L 150.254582 181.493354 
L 154.353755 182.702557 
L 158.452929 183.749095 
L 162.552102 184.771689 
L 166.651276 185.66386 
L 170.750449 186.391536 
L 174.849623 187.257124 
L 178.948796 187.894822 
L 183.04797 188.615729 
L 187.147144 189.447882 
L 191.246317 189.991811 
L 195.345491 190.606143 
L 199.444664 190.978612 
L 203.543838 191.758211 
L 207.643011 192.069002 
L 211.742185 192.740491 
L 215.841358 193.099994 
L 219.940532 193.606886 
L 224.039706 194.015003 
L 228.138879 194.400725 
L 232.238053 194.785522 
L 236.337226 195.134298 
L 240.4364 195.37361 
L 244.535573 195.69015 
L 248.634747 196.032591 
L 252.73392 196.317915 
L 256.833094 196.690087 
L 260.932268 196.856174 
L 265.031441 197.187493 
L 269.130615 197.362882 
L 273.229788 197.777515 
L 277.328962 197.790852 
L 281.428135 198.079379 
L 285.527309 198.161879 
L 289.626482 198.530207 
L 293.725656 198.552493 
L 297.82483 198.814022 
L 301.924003 198.768108 
L 306.023177 199.14094 
L 310.12235 199.391968 
L 314.221524 199.436728 
L 318.320697 199.558012 
L 322.419871 199.784156 
L 326.519044 199.911097 
L 330.618218 199.894602 
L 334.717392 200.101574 
L 338.816565 200.186884 
L 342.915739 200.425339 
L 347.014912 200.355449 
L 351.114086 200.649393 
L 355.213259 200.660485 
L 359.312433 200.832532 
L 363.411606 200.806524 
L 367.51078 201.099732 
L 371.609954 200.951954 
L 375.709127 201.030148 
L 379.808301 201.238026 
L 383.907474 201.448968 
L 388.006648 201.376341 
L 392.105821 201.57218 
L 396.204995 201.287365 
L 400.304168 201.463042 
L 404.403342 201.707275 
L 408.502515 201.646466 
L 412.601689 201.875942 
L 416.700863 201.80018 
L 420.800036 201.860254 
L 424.89921 202.073654 
L 428.998383 202.019145 
L 433.097557 202.125475 
L 437.19673 201.977493 
L 441.295904 202.131087 
L 445.395077 202.034836 
L 449.494251 202.195567 
L 453.593425 202.209095 
L 457.692598 202.042408 
L 461.791772 202.24784 
L 465.890945 202.214104 
L 469.990119 202.342149 
L 474.089292 202.479405 
L 478.188466 202.407658 
" style="fill:none;stroke:#008000;stroke-dasharray:5.55,2.4;stroke-dashoffset:0;stroke-width:1.5;"/>
   </g>
   <g id="patch_3">
    <path d="M 52.079375 225.528868 
L 52.079375 8.088868 
" style="fill:none;stroke:#ffffff;stroke-linecap:square;stroke-linejoin:miter;"/>
   </g>
   <g id="patch_4">
    <path d="M 498.479375 225.528868 
L 498.479375 8.088868 
" style="fill:none;stroke:#ffffff;stroke-linecap:square;stroke-linejoin:miter;"/>
   </g>
   <g id="patch_5">
    <path d="M 52.079375 225.528868 
L 498.479375 225.528868 
" style="fill:none;stroke:#ffffff;stroke-linecap:square;stroke-linejoin:miter;"/>
   </g>
   <g id="patch_6">
    <path d="M 52.079375 8.088868 
L 498.479375 8.088868 
" style="fill:none;stroke:#ffffff;stroke-linecap:square;stroke-linejoin:miter;"/>
   </g>
   <g id="legend_1">
    <g id="patch_7">
     <path d="M 377.896563 104.157618 
L 491.479375 104.157618 
Q 493.479375 104.157618 493.479375 102.157618 
L 493.479375 15.088868 
Q 493.479375 13.088868 491.479375 13.088868 
L 377.896563 13.088868 
Q 375.896563 13.088868 375.896563 15.088868 
L 375.896563 102.157618 
Q 375.896563 104.157618 377.896563 104.157618 
z
" style="fill:#e5e5e5;opacity:0.8;stroke:#cccccc;stroke-linejoin:miter;stroke-width:0.5;"/>
    </g>
    <g id="line2d_37">
     <path d="M 379.896563 21.187306 
L 399.896563 21.187306 
" style="fill:none;stroke:#ff0000;stroke-linecap:square;stroke-width:1.5;"/>
    </g>
    <g id="line2d_38"/>
    <g id="text_18">
     <!-- width 32(train) -->
     <g transform="translate(407.896563 24.687306)scale(0.1 -0.1)">
      <defs>
       <path d="M 269 3500 
L 844 3500 
L 1563 769 
L 2278 3500 
L 2956 3500 
L 3675 769 
L 4391 3500 
L 4966 3500 
L 4050 0 
L 3372 0 
L 2619 2869 
L 1863 0 
L 1184 0 
L 269 3500 
z
" id="DejaVuSans-77" transform="scale(0.015625)"/>
       <path d="M 603 3500 
L 1178 3500 
L 1178 0 
L 603 0 
L 603 3500 
z
M 603 4863 
L 1178 4863 
L 1178 4134 
L 603 4134 
L 603 4863 
z
" id="DejaVuSans-69" transform="scale(0.015625)"/>
       <path d="M 2906 2969 
L 2906 4863 
L 3481 4863 
L 3481 0 
L 2906 0 
L 2906 525 
Q 2725 213 2448 61 
Q 2172 -91 1784 -91 
Q 1150 -91 751 415 
Q 353 922 353 1747 
Q 353 2572 751 3078 
Q 1150 3584 1784 3584 
Q 2172 3584 2448 3432 
Q 2725 3281 2906 2969 
z
M 947 1747 
Q 947 1113 1208 752 
Q 1469 391 1925 391 
Q 2381 391 2643 752 
Q 2906 1113 2906 1747 
Q 2906 2381 2643 2742 
Q 2381 3103 1925 3103 
Q 1469 3103 1208 2742 
Q 947 2381 947 1747 
z
" id="DejaVuSans-64" transform="scale(0.015625)"/>
       <path d="M 1172 4494 
L 1172 3500 
L 2356 3500 
L 2356 3053 
L 1172 3053 
L 1172 1153 
Q 1172 725 1289 603 
Q 1406 481 1766 481 
L 2356 481 
L 2356 0 
L 1766 0 
Q 1100 0 847 248 
Q 594 497 594 1153 
L 594 3053 
L 172 3053 
L 172 3500 
L 594 3500 
L 594 4494 
L 1172 4494 
z
" id="DejaVuSans-74" transform="scale(0.015625)"/>
       <path d="M 2597 2516 
Q 3050 2419 3304 2112 
Q 3559 1806 3559 1356 
Q 3559 666 3084 287 
Q 2609 -91 1734 -91 
Q 1441 -91 1130 -33 
Q 819 25 488 141 
L 488 750 
Q 750 597 1062 519 
Q 1375 441 1716 441 
Q 2309 441 2620 675 
Q 2931 909 2931 1356 
Q 2931 1769 2642 2001 
Q 2353 2234 1838 2234 
L 1294 2234 
L 1294 2753 
L 1863 2753 
Q 2328 2753 2575 2939 
Q 2822 3125 2822 3475 
Q 2822 3834 2567 4026 
Q 2313 4219 1838 4219 
Q 1578 4219 1281 4162 
Q 984 4106 628 3988 
L 628 4550 
Q 988 4650 1302 4700 
Q 1616 4750 1894 4750 
Q 2613 4750 3031 4423 
Q 3450 4097 3450 3541 
Q 3450 3153 3228 2886 
Q 3006 2619 2597 2516 
z
" id="DejaVuSans-33" transform="scale(0.015625)"/>
       <path d="M 1984 4856 
Q 1566 4138 1362 3434 
Q 1159 2731 1159 2009 
Q 1159 1288 1364 580 
Q 1569 -128 1984 -844 
L 1484 -844 
Q 1016 -109 783 600 
Q 550 1309 550 2009 
Q 550 2706 781 3412 
Q 1013 4119 1484 4856 
L 1984 4856 
z
" id="DejaVuSans-28" transform="scale(0.015625)"/>
       <path d="M 2194 1759 
Q 1497 1759 1228 1600 
Q 959 1441 959 1056 
Q 959 750 1161 570 
Q 1363 391 1709 391 
Q 2188 391 2477 730 
Q 2766 1069 2766 1631 
L 2766 1759 
L 2194 1759 
z
M 3341 1997 
L 3341 0 
L 2766 0 
L 2766 531 
Q 2569 213 2275 61 
Q 1981 -91 1556 -91 
Q 1019 -91 701 211 
Q 384 513 384 1019 
Q 384 1609 779 1909 
Q 1175 2209 1959 2209 
L 2766 2209 
L 2766 2266 
Q 2766 2663 2505 2880 
Q 2244 3097 1772 3097 
Q 1472 3097 1187 3025 
Q 903 2953 641 2809 
L 641 3341 
Q 956 3463 1253 3523 
Q 1550 3584 1831 3584 
Q 2591 3584 2966 3190 
Q 3341 2797 3341 1997 
z
" id="DejaVuSans-61" transform="scale(0.015625)"/>
       <path d="M 513 4856 
L 1013 4856 
Q 1481 4119 1714 3412 
Q 1947 2706 1947 2009 
Q 1947 1309 1714 600 
Q 1481 -109 1013 -844 
L 513 -844 
Q 928 -128 1133 580 
Q 1338 1288 1338 2009 
Q 1338 2731 1133 3434 
Q 928 4138 513 4856 
z
" id="DejaVuSans-29" transform="scale(0.015625)"/>
      </defs>
      <use xlink:href="#DejaVuSans-77"/>
      <use x="81.787109" xlink:href="#DejaVuSans-69"/>
      <use x="109.570312" xlink:href="#DejaVuSans-64"/>
      <use x="173.046875" xlink:href="#DejaVuSans-74"/>
      <use x="212.255859" xlink:href="#DejaVuSans-68"/>
      <use x="275.634766" xlink:href="#DejaVuSans-20"/>
      <use x="307.421875" xlink:href="#DejaVuSans-33"/>
      <use x="371.044922" xlink:href="#DejaVuSans-32"/>
      <use x="434.667969" xlink:href="#DejaVuSans-28"/>
      <use x="473.681641" xlink:href="#DejaVuSans-74"/>
      <use x="512.890625" xlink:href="#DejaVuSans-72"/>
      <use x="554.003906" xlink:href="#DejaVuSans-61"/>
      <use x="615.283203" xlink:href="#DejaVuSans-69"/>
      <use x="643.066406" xlink:href="#DejaVuSans-6e"/>
      <use x="706.445312" xlink:href="#DejaVuSans-29"/>
     </g>
    </g>
    <g id="line2d_39">
     <path d="M 379.896563 35.865431 
L 399.896563 35.865431 
" style="fill:none;stroke:#0000ff;stroke-linecap:square;stroke-width:1.5;"/>
    </g>
    <g id="line2d_40"/>
    <g id="text_19">
     <!-- width 64(train) -->
     <g transform="translate(407.896563 39.365431)scale(0.1 -0.1)">
      <use xlink:href="#DejaVuSans-77"/>
      <use x="81.787109" xlink:href="#DejaVuSans-69"/>
      <use x="109.570312" xlink:href="#DejaVuSans-64"/>
      <use x="173.046875" xlink:href="#DejaVuSans-74"/>
      <use x="212.255859" xlink:href="#DejaVuSans-68"/>
      <use x="275.634766" xlink:href="#DejaVuSans-20"/>
      <use x="307.421875" xlink:href="#DejaVuSans-36"/>
      <use x="371.044922" xlink:href="#DejaVuSans-34"/>
      <use x="434.667969" xlink:href="#DejaVuSans-28"/>
      <use x="473.681641" xlink:href="#DejaVuSans-74"/>
      <use x="512.890625" xlink:href="#DejaVuSans-72"/>
      <use x="554.003906" xlink:href="#DejaVuSans-61"/>
      <use x="615.283203" xlink:href="#DejaVuSans-69"/>
      <use x="643.066406" xlink:href="#DejaVuSans-6e"/>
      <use x="706.445312" xlink:href="#DejaVuSans-29"/>
     </g>
    </g>
    <g id="line2d_41">
     <path d="M 379.896563 50.543556 
L 399.896563 50.543556 
" style="fill:none;stroke:#800080;stroke-linecap:square;stroke-width:1.5;"/>
    </g>
    <g id="line2d_42"/>
    <g id="text_20">
     <!-- width 128(train) -->
     <g transform="translate(407.896563 54.043556)scale(0.1 -0.1)">
      <use xlink:href="#DejaVuSans-77"/>
      <use x="81.787109" xlink:href="#DejaVuSans-69"/>
      <use x="109.570312" xlink:href="#DejaVuSans-64"/>
      <use x="173.046875" xlink:href="#DejaVuSans-74"/>
      <use x="212.255859" xlink:href="#DejaVuSans-68"/>
      <use x="275.634766" xlink:href="#DejaVuSans-20"/>
      <use x="307.421875" xlink:href="#DejaVuSans-31"/>
      <use x="371.044922" xlink:href="#DejaVuSans-32"/>
      <use x="434.667969" xlink:href="#DejaVuSans-38"/>
      <use x="498.291016" xlink:href="#DejaVuSans-28"/>
      <use x="537.304688" xlink:href="#DejaVuSans-74"/>
      <use x="576.513672" xlink:href="#DejaVuSans-72"/>
      <use x="617.626953" xlink:href="#DejaVuSans-61"/>
      <use x="678.90625" xlink:href="#DejaVuSans-69"/>
      <use x="706.689453" xlink:href="#DejaVuSans-6e"/>
      <use x="770.068359" xlink:href="#DejaVuSans-29"/>
     </g>
    </g>
    <g id="line2d_43">
     <path d="M 379.896563 65.221681 
L 399.896563 65.221681 
" style="fill:none;stroke:#808080;stroke-dasharray:5.55,2.4;stroke-dashoffset:0;stroke-width:1.5;"/>
    </g>
    <g id="line2d_44"/>
    <g id="text_21">
     <!-- width 32(valid) -->
     <g transform="translate(407.896563 68.721681)scale(0.1 -0.1)">
      <defs>
       <path d="M 191 3500 
L 800 3500 
L 1894 563 
L 2988 3500 
L 3597 3500 
L 2284 0 
L 1503 0 
L 191 3500 
z
" id="DejaVuSans-76" transform="scale(0.015625)"/>
       <path d="M 603 4863 
L 1178 4863 
L 1178 0 
L 603 0 
L 603 4863 
z
" id="DejaVuSans-6c" transform="scale(0.015625)"/>
      </defs>
      <use xlink:href="#DejaVuSans-77"/>
      <use x="81.787109" xlink:href="#DejaVuSans-69"/>
      <use x="109.570312" xlink:href="#DejaVuSans-64"/>
      <use x="173.046875" xlink:href="#DejaVuSans-74"/>
      <use x="212.255859" xlink:href="#DejaVuSans-68"/>
      <use x="275.634766" xlink:href="#DejaVuSans-20"/>
      <use x="307.421875" xlink:href="#DejaVuSans-33"/>
      <use x="371.044922" xlink:href="#DejaVuSans-32"/>
      <use x="434.667969" xlink:href="#DejaVuSans-28"/>
      <use x="473.681641" xlink:href="#DejaVuSans-76"/>
      <use x="532.861328" xlink:href="#DejaVuSans-61"/>
      <use x="594.140625" xlink:href="#DejaVuSans-6c"/>
      <use x="621.923828" xlink:href="#DejaVuSans-69"/>
      <use x="649.707031" xlink:href="#DejaVuSans-64"/>
      <use x="713.183594" xlink:href="#DejaVuSans-29"/>
     </g>
    </g>
    <g id="line2d_45">
     <path d="M 379.896563 79.899806 
L 399.896563 79.899806 
" style="fill:none;stroke:#ffff00;stroke-dasharray:5.55,2.4;stroke-dashoffset:0;stroke-width:1.5;"/>
    </g>
    <g id="line2d_46"/>
    <g id="text_22">
     <!-- width 64(valid) -->
     <g transform="translate(407.896563 83.399806)scale(0.1 -0.1)">
      <use xlink:href="#DejaVuSans-77"/>
      <use x="81.787109" xlink:href="#DejaVuSans-69"/>
      <use x="109.570312" xlink:href="#DejaVuSans-64"/>
      <use x="173.046875" xlink:href="#DejaVuSans-74"/>
      <use x="212.255859" xlink:href="#DejaVuSans-68"/>
      <use x="275.634766" xlink:href="#DejaVuSans-20"/>
      <use x="307.421875" xlink:href="#DejaVuSans-36"/>
      <use x="371.044922" xlink:href="#DejaVuSans-34"/>
      <use x="434.667969" xlink:href="#DejaVuSans-28"/>
      <use x="473.681641" xlink:href="#DejaVuSans-76"/>
      <use x="532.861328" xlink:href="#DejaVuSans-61"/>
      <use x="594.140625" xlink:href="#DejaVuSans-6c"/>
      <use x="621.923828" xlink:href="#DejaVuSans-69"/>
      <use x="649.707031" xlink:href="#DejaVuSans-64"/>
      <use x="713.183594" xlink:href="#DejaVuSans-29"/>
     </g>
    </g>
    <g id="line2d_47">
     <path d="M 379.896563 94.577931 
L 399.896563 94.577931 
" style="fill:none;stroke:#008000;stroke-dasharray:5.55,2.4;stroke-dashoffset:0;stroke-width:1.5;"/>
    </g>
    <g id="line2d_48"/>
    <g id="text_23">
     <!-- width 128(valid) -->
     <g transform="translate(407.896563 98.077931)scale(0.1 -0.1)">
      <use xlink:href="#DejaVuSans-77"/>
      <use x="81.787109" xlink:href="#DejaVuSans-69"/>
      <use x="109.570312" xlink:href="#DejaVuSans-64"/>
      <use x="173.046875" xlink:href="#DejaVuSans-74"/>
      <use x="212.255859" xlink:href="#DejaVuSans-68"/>
      <use x="275.634766" xlink:href="#DejaVuSans-20"/>
      <use x="307.421875" xlink:href="#DejaVuSans-31"/>
      <use x="371.044922" xlink:href="#DejaVuSans-32"/>
      <use x="434.667969" xlink:href="#DejaVuSans-38"/>
      <use x="498.291016" xlink:href="#DejaVuSans-28"/>
      <use x="537.304688" xlink:href="#DejaVuSans-76"/>
      <use x="596.484375" xlink:href="#DejaVuSans-61"/>
      <use x="657.763672" xlink:href="#DejaVuSans-6c"/>
      <use x="685.546875" xlink:href="#DejaVuSans-69"/>
      <use x="713.330078" xlink:href="#DejaVuSans-64"/>
      <use x="776.806641" xlink:href="#DejaVuSans-29"/>
     </g>
    </g>
   </g>
  </g>
 </g>
 <defs>
  <clipPath id="pf654122190">
   <rect height="217.44" width="446.4" x="52.079375" y="8.088868"/>
  </clipPath>
 </defs>
</svg>
