<?xml version="1.0" encoding="utf-8" standalone="no"?>
<!DOCTYPE svg PUBLIC "-//W3C//DTD SVG 1.1//EN"
  "http://www.w3.org/Graphics/SVG/1.1/DTD/svg11.dtd">
<svg height="264.131875pt" version="1.1" viewBox="0 0 621.899687 264.131875" width="621.899687pt" xmlns="http://www.w3.org/2000/svg" xmlns:xlink="http://www.w3.org/1999/xlink">
 <metadata>
  <rdf:RDF xmlns:cc="http://creativecommons.org/ns#" xmlns:dc="http://purl.org/dc/elements/1.1/" xmlns:rdf="http://www.w3.org/1999/02/22-rdf-syntax-ns#">
   <cc:Work>
    <dc:type rdf:resource="http://purl.org/dc/dcmitype/StillImage"/>
    <dc:date>2021-11-04T14:36:09.451399</dc:date>
    <dc:format>image/svg+xml</dc:format>
    <dc:creator>
     <cc:Agent>
      <dc:title>Matplotlib v3.4.2, https://matplotlib.org/</dc:title>
     </cc:Agent>
    </dc:creator>
   </cc:Work>
  </rdf:RDF>
 </metadata>
 <defs>
  <style type="text/css">*{stroke-linecap:butt;stroke-linejoin:round;}</style>
 </defs>
 <g id="figure_1">
  <g id="patch_1">
   <path d="M 0 264.131875 
L 621.899687 264.131875 
L 621.899687 0 
L 0 0 
z
" style="fill:#ffffff;"/>
  </g>
  <g id="axes_1">
   <g id="patch_2">
    <path d="M 45.716875 224.64 
L 492.116875 224.64 
L 492.116875 7.2 
L 45.716875 7.2 
z
" style="fill:#e5e5e5;"/>
   </g>
   <g id="matplotlib.axis_1">
    <g id="xtick_1">
     <g id="line2d_1">
      <path clip-path="url(#p1721b0dd74)" d="M 61.908611 224.64 
L 61.908611 7.2 
" style="fill:none;stroke:#ffffff;stroke-linecap:square;stroke-width:0.8;"/>
     </g>
     <g id="line2d_2">
      <defs>
       <path d="M 0 0 
L 0 3.5 
" id="m450041e121" style="stroke:#555555;stroke-width:0.8;"/>
      </defs>
      <g>
       <use style="fill:#555555;stroke:#555555;stroke-width:0.8;" x="61.908611" xlink:href="#m450041e121" y="224.64"/>
      </g>
     </g>
     <g id="text_1">
      <!-- 0 -->
      <g style="fill:#555555;" transform="translate(58.727361 239.238437)scale(0.1 -0.1)">
       <defs>
        <path d="M 2034 4250 
Q 1547 4250 1301 3770 
Q 1056 3291 1056 2328 
Q 1056 1369 1301 889 
Q 1547 409 2034 409 
Q 2525 409 2770 889 
Q 3016 1369 3016 2328 
Q 3016 3291 2770 3770 
Q 2525 4250 2034 4250 
z
M 2034 4750 
Q 2819 4750 3233 4129 
Q 3647 3509 3647 2328 
Q 3647 1150 3233 529 
Q 2819 -91 2034 -91 
Q 1250 -91 836 529 
Q 422 1150 422 2328 
Q 422 3509 836 4129 
Q 1250 4750 2034 4750 
z
" id="DejaVuSans-30" transform="scale(0.015625)"/>
       </defs>
       <use xlink:href="#DejaVuSans-30"/>
      </g>
     </g>
    </g>
    <g id="xtick_2">
     <g id="line2d_3">
      <path clip-path="url(#p1721b0dd74)" d="M 143.892082 224.64 
L 143.892082 7.2 
" style="fill:none;stroke:#ffffff;stroke-linecap:square;stroke-width:0.8;"/>
     </g>
     <g id="line2d_4">
      <g>
       <use style="fill:#555555;stroke:#555555;stroke-width:0.8;" x="143.892082" xlink:href="#m450041e121" y="224.64"/>
      </g>
     </g>
     <g id="text_2">
      <!-- 20 -->
      <g style="fill:#555555;" transform="translate(137.529582 239.238437)scale(0.1 -0.1)">
       <defs>
        <path d="M 1228 531 
L 3431 531 
L 3431 0 
L 469 0 
L 469 531 
Q 828 903 1448 1529 
Q 2069 2156 2228 2338 
Q 2531 2678 2651 2914 
Q 2772 3150 2772 3378 
Q 2772 3750 2511 3984 
Q 2250 4219 1831 4219 
Q 1534 4219 1204 4116 
Q 875 4013 500 3803 
L 500 4441 
Q 881 4594 1212 4672 
Q 1544 4750 1819 4750 
Q 2544 4750 2975 4387 
Q 3406 4025 3406 3419 
Q 3406 3131 3298 2873 
Q 3191 2616 2906 2266 
Q 2828 2175 2409 1742 
Q 1991 1309 1228 531 
z
" id="DejaVuSans-32" transform="scale(0.015625)"/>
       </defs>
       <use xlink:href="#DejaVuSans-32"/>
       <use x="63.623047" xlink:href="#DejaVuSans-30"/>
      </g>
     </g>
    </g>
    <g id="xtick_3">
     <g id="line2d_5">
      <path clip-path="url(#p1721b0dd74)" d="M 225.875553 224.64 
L 225.875553 7.2 
" style="fill:none;stroke:#ffffff;stroke-linecap:square;stroke-width:0.8;"/>
     </g>
     <g id="line2d_6">
      <g>
       <use style="fill:#555555;stroke:#555555;stroke-width:0.8;" x="225.875553" xlink:href="#m450041e121" y="224.64"/>
      </g>
     </g>
     <g id="text_3">
      <!-- 40 -->
      <g style="fill:#555555;" transform="translate(219.513053 239.238437)scale(0.1 -0.1)">
       <defs>
        <path d="M 2419 4116 
L 825 1625 
L 2419 1625 
L 2419 4116 
z
M 2253 4666 
L 3047 4666 
L 3047 1625 
L 3713 1625 
L 3713 1100 
L 3047 1100 
L 3047 0 
L 2419 0 
L 2419 1100 
L 313 1100 
L 313 1709 
L 2253 4666 
z
" id="DejaVuSans-34" transform="scale(0.015625)"/>
       </defs>
       <use xlink:href="#DejaVuSans-34"/>
       <use x="63.623047" xlink:href="#DejaVuSans-30"/>
      </g>
     </g>
    </g>
    <g id="xtick_4">
     <g id="line2d_7">
      <path clip-path="url(#p1721b0dd74)" d="M 307.859024 224.64 
L 307.859024 7.2 
" style="fill:none;stroke:#ffffff;stroke-linecap:square;stroke-width:0.8;"/>
     </g>
     <g id="line2d_8">
      <g>
       <use style="fill:#555555;stroke:#555555;stroke-width:0.8;" x="307.859024" xlink:href="#m450041e121" y="224.64"/>
      </g>
     </g>
     <g id="text_4">
      <!-- 60 -->
      <g style="fill:#555555;" transform="translate(301.496524 239.238437)scale(0.1 -0.1)">
       <defs>
        <path d="M 2113 2584 
Q 1688 2584 1439 2293 
Q 1191 2003 1191 1497 
Q 1191 994 1439 701 
Q 1688 409 2113 409 
Q 2538 409 2786 701 
Q 3034 994 3034 1497 
Q 3034 2003 2786 2293 
Q 2538 2584 2113 2584 
z
M 3366 4563 
L 3366 3988 
Q 3128 4100 2886 4159 
Q 2644 4219 2406 4219 
Q 1781 4219 1451 3797 
Q 1122 3375 1075 2522 
Q 1259 2794 1537 2939 
Q 1816 3084 2150 3084 
Q 2853 3084 3261 2657 
Q 3669 2231 3669 1497 
Q 3669 778 3244 343 
Q 2819 -91 2113 -91 
Q 1303 -91 875 529 
Q 447 1150 447 2328 
Q 447 3434 972 4092 
Q 1497 4750 2381 4750 
Q 2619 4750 2861 4703 
Q 3103 4656 3366 4563 
z
" id="DejaVuSans-36" transform="scale(0.015625)"/>
       </defs>
       <use xlink:href="#DejaVuSans-36"/>
       <use x="63.623047" xlink:href="#DejaVuSans-30"/>
      </g>
     </g>
    </g>
    <g id="xtick_5">
     <g id="line2d_9">
      <path clip-path="url(#p1721b0dd74)" d="M 389.842495 224.64 
L 389.842495 7.2 
" style="fill:none;stroke:#ffffff;stroke-linecap:square;stroke-width:0.8;"/>
     </g>
     <g id="line2d_10">
      <g>
       <use style="fill:#555555;stroke:#555555;stroke-width:0.8;" x="389.842495" xlink:href="#m450041e121" y="224.64"/>
      </g>
     </g>
     <g id="text_5">
      <!-- 80 -->
      <g style="fill:#555555;" transform="translate(383.479995 239.238437)scale(0.1 -0.1)">
       <defs>
        <path d="M 2034 2216 
Q 1584 2216 1326 1975 
Q 1069 1734 1069 1313 
Q 1069 891 1326 650 
Q 1584 409 2034 409 
Q 2484 409 2743 651 
Q 3003 894 3003 1313 
Q 3003 1734 2745 1975 
Q 2488 2216 2034 2216 
z
M 1403 2484 
Q 997 2584 770 2862 
Q 544 3141 544 3541 
Q 544 4100 942 4425 
Q 1341 4750 2034 4750 
Q 2731 4750 3128 4425 
Q 3525 4100 3525 3541 
Q 3525 3141 3298 2862 
Q 3072 2584 2669 2484 
Q 3125 2378 3379 2068 
Q 3634 1759 3634 1313 
Q 3634 634 3220 271 
Q 2806 -91 2034 -91 
Q 1263 -91 848 271 
Q 434 634 434 1313 
Q 434 1759 690 2068 
Q 947 2378 1403 2484 
z
M 1172 3481 
Q 1172 3119 1398 2916 
Q 1625 2713 2034 2713 
Q 2441 2713 2670 2916 
Q 2900 3119 2900 3481 
Q 2900 3844 2670 4047 
Q 2441 4250 2034 4250 
Q 1625 4250 1398 4047 
Q 1172 3844 1172 3481 
z
" id="DejaVuSans-38" transform="scale(0.015625)"/>
       </defs>
       <use xlink:href="#DejaVuSans-38"/>
       <use x="63.623047" xlink:href="#DejaVuSans-30"/>
      </g>
     </g>
    </g>
    <g id="xtick_6">
     <g id="line2d_11">
      <path clip-path="url(#p1721b0dd74)" d="M 471.825966 224.64 
L 471.825966 7.2 
" style="fill:none;stroke:#ffffff;stroke-linecap:square;stroke-width:0.8;"/>
     </g>
     <g id="line2d_12">
      <g>
       <use style="fill:#555555;stroke:#555555;stroke-width:0.8;" x="471.825966" xlink:href="#m450041e121" y="224.64"/>
      </g>
     </g>
     <g id="text_6">
      <!-- 100 -->
      <g style="fill:#555555;" transform="translate(462.282216 239.238437)scale(0.1 -0.1)">
       <defs>
        <path d="M 794 531 
L 1825 531 
L 1825 4091 
L 703 3866 
L 703 4441 
L 1819 4666 
L 2450 4666 
L 2450 531 
L 3481 531 
L 3481 0 
L 794 0 
L 794 531 
z
" id="DejaVuSans-31" transform="scale(0.015625)"/>
       </defs>
       <use xlink:href="#DejaVuSans-31"/>
       <use x="63.623047" xlink:href="#DejaVuSans-30"/>
       <use x="127.246094" xlink:href="#DejaVuSans-30"/>
      </g>
     </g>
    </g>
    <g id="text_7">
     <!-- Epoch number -->
     <g style="fill:#555555;" transform="translate(225.22 254.43625)scale(0.12 -0.12)">
      <defs>
       <path d="M 628 4666 
L 3578 4666 
L 3578 4134 
L 1259 4134 
L 1259 2753 
L 3481 2753 
L 3481 2222 
L 1259 2222 
L 1259 531 
L 3634 531 
L 3634 0 
L 628 0 
L 628 4666 
z
" id="DejaVuSans-45" transform="scale(0.015625)"/>
       <path d="M 1159 525 
L 1159 -1331 
L 581 -1331 
L 581 3500 
L 1159 3500 
L 1159 2969 
Q 1341 3281 1617 3432 
Q 1894 3584 2278 3584 
Q 2916 3584 3314 3078 
Q 3713 2572 3713 1747 
Q 3713 922 3314 415 
Q 2916 -91 2278 -91 
Q 1894 -91 1617 61 
Q 1341 213 1159 525 
z
M 3116 1747 
Q 3116 2381 2855 2742 
Q 2594 3103 2138 3103 
Q 1681 3103 1420 2742 
Q 1159 2381 1159 1747 
Q 1159 1113 1420 752 
Q 1681 391 2138 391 
Q 2594 391 2855 752 
Q 3116 1113 3116 1747 
z
" id="DejaVuSans-70" transform="scale(0.015625)"/>
       <path d="M 1959 3097 
Q 1497 3097 1228 2736 
Q 959 2375 959 1747 
Q 959 1119 1226 758 
Q 1494 397 1959 397 
Q 2419 397 2687 759 
Q 2956 1122 2956 1747 
Q 2956 2369 2687 2733 
Q 2419 3097 1959 3097 
z
M 1959 3584 
Q 2709 3584 3137 3096 
Q 3566 2609 3566 1747 
Q 3566 888 3137 398 
Q 2709 -91 1959 -91 
Q 1206 -91 779 398 
Q 353 888 353 1747 
Q 353 2609 779 3096 
Q 1206 3584 1959 3584 
z
" id="DejaVuSans-6f" transform="scale(0.015625)"/>
       <path d="M 3122 3366 
L 3122 2828 
Q 2878 2963 2633 3030 
Q 2388 3097 2138 3097 
Q 1578 3097 1268 2742 
Q 959 2388 959 1747 
Q 959 1106 1268 751 
Q 1578 397 2138 397 
Q 2388 397 2633 464 
Q 2878 531 3122 666 
L 3122 134 
Q 2881 22 2623 -34 
Q 2366 -91 2075 -91 
Q 1284 -91 818 406 
Q 353 903 353 1747 
Q 353 2603 823 3093 
Q 1294 3584 2113 3584 
Q 2378 3584 2631 3529 
Q 2884 3475 3122 3366 
z
" id="DejaVuSans-63" transform="scale(0.015625)"/>
       <path d="M 3513 2113 
L 3513 0 
L 2938 0 
L 2938 2094 
Q 2938 2591 2744 2837 
Q 2550 3084 2163 3084 
Q 1697 3084 1428 2787 
Q 1159 2491 1159 1978 
L 1159 0 
L 581 0 
L 581 4863 
L 1159 4863 
L 1159 2956 
Q 1366 3272 1645 3428 
Q 1925 3584 2291 3584 
Q 2894 3584 3203 3211 
Q 3513 2838 3513 2113 
z
" id="DejaVuSans-68" transform="scale(0.015625)"/>
       <path id="DejaVuSans-20" transform="scale(0.015625)"/>
       <path d="M 3513 2113 
L 3513 0 
L 2938 0 
L 2938 2094 
Q 2938 2591 2744 2837 
Q 2550 3084 2163 3084 
Q 1697 3084 1428 2787 
Q 1159 2491 1159 1978 
L 1159 0 
L 581 0 
L 581 3500 
L 1159 3500 
L 1159 2956 
Q 1366 3272 1645 3428 
Q 1925 3584 2291 3584 
Q 2894 3584 3203 3211 
Q 3513 2838 3513 2113 
z
" id="DejaVuSans-6e" transform="scale(0.015625)"/>
       <path d="M 544 1381 
L 544 3500 
L 1119 3500 
L 1119 1403 
Q 1119 906 1312 657 
Q 1506 409 1894 409 
Q 2359 409 2629 706 
Q 2900 1003 2900 1516 
L 2900 3500 
L 3475 3500 
L 3475 0 
L 2900 0 
L 2900 538 
Q 2691 219 2414 64 
Q 2138 -91 1772 -91 
Q 1169 -91 856 284 
Q 544 659 544 1381 
z
M 1991 3584 
L 1991 3584 
z
" id="DejaVuSans-75" transform="scale(0.015625)"/>
       <path d="M 3328 2828 
Q 3544 3216 3844 3400 
Q 4144 3584 4550 3584 
Q 5097 3584 5394 3201 
Q 5691 2819 5691 2113 
L 5691 0 
L 5113 0 
L 5113 2094 
Q 5113 2597 4934 2840 
Q 4756 3084 4391 3084 
Q 3944 3084 3684 2787 
Q 3425 2491 3425 1978 
L 3425 0 
L 2847 0 
L 2847 2094 
Q 2847 2600 2669 2842 
Q 2491 3084 2119 3084 
Q 1678 3084 1418 2786 
Q 1159 2488 1159 1978 
L 1159 0 
L 581 0 
L 581 3500 
L 1159 3500 
L 1159 2956 
Q 1356 3278 1631 3431 
Q 1906 3584 2284 3584 
Q 2666 3584 2933 3390 
Q 3200 3197 3328 2828 
z
" id="DejaVuSans-6d" transform="scale(0.015625)"/>
       <path d="M 3116 1747 
Q 3116 2381 2855 2742 
Q 2594 3103 2138 3103 
Q 1681 3103 1420 2742 
Q 1159 2381 1159 1747 
Q 1159 1113 1420 752 
Q 1681 391 2138 391 
Q 2594 391 2855 752 
Q 3116 1113 3116 1747 
z
M 1159 2969 
Q 1341 3281 1617 3432 
Q 1894 3584 2278 3584 
Q 2916 3584 3314 3078 
Q 3713 2572 3713 1747 
Q 3713 922 3314 415 
Q 2916 -91 2278 -91 
Q 1894 -91 1617 61 
Q 1341 213 1159 525 
L 1159 0 
L 581 0 
L 581 4863 
L 1159 4863 
L 1159 2969 
z
" id="DejaVuSans-62" transform="scale(0.015625)"/>
       <path d="M 3597 1894 
L 3597 1613 
L 953 1613 
Q 991 1019 1311 708 
Q 1631 397 2203 397 
Q 2534 397 2845 478 
Q 3156 559 3463 722 
L 3463 178 
Q 3153 47 2828 -22 
Q 2503 -91 2169 -91 
Q 1331 -91 842 396 
Q 353 884 353 1716 
Q 353 2575 817 3079 
Q 1281 3584 2069 3584 
Q 2775 3584 3186 3129 
Q 3597 2675 3597 1894 
z
M 3022 2063 
Q 3016 2534 2758 2815 
Q 2500 3097 2075 3097 
Q 1594 3097 1305 2825 
Q 1016 2553 972 2059 
L 3022 2063 
z
" id="DejaVuSans-65" transform="scale(0.015625)"/>
       <path d="M 2631 2963 
Q 2534 3019 2420 3045 
Q 2306 3072 2169 3072 
Q 1681 3072 1420 2755 
Q 1159 2438 1159 1844 
L 1159 0 
L 581 0 
L 581 3500 
L 1159 3500 
L 1159 2956 
Q 1341 3275 1631 3429 
Q 1922 3584 2338 3584 
Q 2397 3584 2469 3576 
Q 2541 3569 2628 3553 
L 2631 2963 
z
" id="DejaVuSans-72" transform="scale(0.015625)"/>
      </defs>
      <use xlink:href="#DejaVuSans-45"/>
      <use x="63.183594" xlink:href="#DejaVuSans-70"/>
      <use x="126.660156" xlink:href="#DejaVuSans-6f"/>
      <use x="187.841797" xlink:href="#DejaVuSans-63"/>
      <use x="242.822266" xlink:href="#DejaVuSans-68"/>
      <use x="306.201172" xlink:href="#DejaVuSans-20"/>
      <use x="337.988281" xlink:href="#DejaVuSans-6e"/>
      <use x="401.367188" xlink:href="#DejaVuSans-75"/>
      <use x="464.746094" xlink:href="#DejaVuSans-6d"/>
      <use x="562.158203" xlink:href="#DejaVuSans-62"/>
      <use x="625.634766" xlink:href="#DejaVuSans-65"/>
      <use x="687.158203" xlink:href="#DejaVuSans-72"/>
     </g>
    </g>
   </g>
   <g id="matplotlib.axis_2">
    <g id="ytick_1">
     <g id="line2d_13">
      <path clip-path="url(#p1721b0dd74)" d="M 45.716875 220.565104 
L 492.116875 220.565104 
" style="fill:none;stroke:#ffffff;stroke-linecap:square;stroke-width:0.8;"/>
     </g>
     <g id="line2d_14">
      <defs>
       <path d="M 0 0 
L -3.5 0 
" id="m8c03ccc72d" style="stroke:#555555;stroke-width:0.8;"/>
      </defs>
      <g>
       <use style="fill:#555555;stroke:#555555;stroke-width:0.8;" x="45.716875" xlink:href="#m8c03ccc72d" y="220.565104"/>
      </g>
     </g>
     <g id="text_8">
      <!-- 0.4 -->
      <g style="fill:#555555;" transform="translate(22.81375 224.364322)scale(0.1 -0.1)">
       <defs>
        <path d="M 684 794 
L 1344 794 
L 1344 0 
L 684 0 
L 684 794 
z
" id="DejaVuSans-2e" transform="scale(0.015625)"/>
       </defs>
       <use xlink:href="#DejaVuSans-30"/>
       <use x="63.623047" xlink:href="#DejaVuSans-2e"/>
       <use x="95.410156" xlink:href="#DejaVuSans-34"/>
      </g>
     </g>
    </g>
    <g id="ytick_2">
     <g id="line2d_15">
      <path clip-path="url(#p1721b0dd74)" d="M 45.716875 177.678144 
L 492.116875 177.678144 
" style="fill:none;stroke:#ffffff;stroke-linecap:square;stroke-width:0.8;"/>
     </g>
     <g id="line2d_16">
      <g>
       <use style="fill:#555555;stroke:#555555;stroke-width:0.8;" x="45.716875" xlink:href="#m8c03ccc72d" y="177.678144"/>
      </g>
     </g>
     <g id="text_9">
      <!-- 0.5 -->
      <g style="fill:#555555;" transform="translate(22.81375 181.477363)scale(0.1 -0.1)">
       <defs>
        <path d="M 691 4666 
L 3169 4666 
L 3169 4134 
L 1269 4134 
L 1269 2991 
Q 1406 3038 1543 3061 
Q 1681 3084 1819 3084 
Q 2600 3084 3056 2656 
Q 3513 2228 3513 1497 
Q 3513 744 3044 326 
Q 2575 -91 1722 -91 
Q 1428 -91 1123 -41 
Q 819 9 494 109 
L 494 744 
Q 775 591 1075 516 
Q 1375 441 1709 441 
Q 2250 441 2565 725 
Q 2881 1009 2881 1497 
Q 2881 1984 2565 2268 
Q 2250 2553 1709 2553 
Q 1456 2553 1204 2497 
Q 953 2441 691 2322 
L 691 4666 
z
" id="DejaVuSans-35" transform="scale(0.015625)"/>
       </defs>
       <use xlink:href="#DejaVuSans-30"/>
       <use x="63.623047" xlink:href="#DejaVuSans-2e"/>
       <use x="95.410156" xlink:href="#DejaVuSans-35"/>
      </g>
     </g>
    </g>
    <g id="ytick_3">
     <g id="line2d_17">
      <path clip-path="url(#p1721b0dd74)" d="M 45.716875 134.791185 
L 492.116875 134.791185 
" style="fill:none;stroke:#ffffff;stroke-linecap:square;stroke-width:0.8;"/>
     </g>
     <g id="line2d_18">
      <g>
       <use style="fill:#555555;stroke:#555555;stroke-width:0.8;" x="45.716875" xlink:href="#m8c03ccc72d" y="134.791185"/>
      </g>
     </g>
     <g id="text_10">
      <!-- 0.6 -->
      <g style="fill:#555555;" transform="translate(22.81375 138.590404)scale(0.1 -0.1)">
       <use xlink:href="#DejaVuSans-30"/>
       <use x="63.623047" xlink:href="#DejaVuSans-2e"/>
       <use x="95.410156" xlink:href="#DejaVuSans-36"/>
      </g>
     </g>
    </g>
    <g id="ytick_4">
     <g id="line2d_19">
      <path clip-path="url(#p1721b0dd74)" d="M 45.716875 91.904226 
L 492.116875 91.904226 
" style="fill:none;stroke:#ffffff;stroke-linecap:square;stroke-width:0.8;"/>
     </g>
     <g id="line2d_20">
      <g>
       <use style="fill:#555555;stroke:#555555;stroke-width:0.8;" x="45.716875" xlink:href="#m8c03ccc72d" y="91.904226"/>
      </g>
     </g>
     <g id="text_11">
      <!-- 0.7 -->
      <g style="fill:#555555;" transform="translate(22.81375 95.703444)scale(0.1 -0.1)">
       <defs>
        <path d="M 525 4666 
L 3525 4666 
L 3525 4397 
L 1831 0 
L 1172 0 
L 2766 4134 
L 525 4134 
L 525 4666 
z
" id="DejaVuSans-37" transform="scale(0.015625)"/>
       </defs>
       <use xlink:href="#DejaVuSans-30"/>
       <use x="63.623047" xlink:href="#DejaVuSans-2e"/>
       <use x="95.410156" xlink:href="#DejaVuSans-37"/>
      </g>
     </g>
    </g>
    <g id="ytick_5">
     <g id="line2d_21">
      <path clip-path="url(#p1721b0dd74)" d="M 45.716875 49.017266 
L 492.116875 49.017266 
" style="fill:none;stroke:#ffffff;stroke-linecap:square;stroke-width:0.8;"/>
     </g>
     <g id="line2d_22">
      <g>
       <use style="fill:#555555;stroke:#555555;stroke-width:0.8;" x="45.716875" xlink:href="#m8c03ccc72d" y="49.017266"/>
      </g>
     </g>
     <g id="text_12">
      <!-- 0.8 -->
      <g style="fill:#555555;" transform="translate(22.81375 52.816485)scale(0.1 -0.1)">
       <use xlink:href="#DejaVuSans-30"/>
       <use x="63.623047" xlink:href="#DejaVuSans-2e"/>
       <use x="95.410156" xlink:href="#DejaVuSans-38"/>
      </g>
     </g>
    </g>
    <g id="text_13">
     <!-- Accuracy -->
     <g style="fill:#555555;" transform="translate(16.318125 143.31375)rotate(-90)scale(0.12 -0.12)">
      <defs>
       <path d="M 2188 4044 
L 1331 1722 
L 3047 1722 
L 2188 4044 
z
M 1831 4666 
L 2547 4666 
L 4325 0 
L 3669 0 
L 3244 1197 
L 1141 1197 
L 716 0 
L 50 0 
L 1831 4666 
z
" id="DejaVuSans-41" transform="scale(0.015625)"/>
       <path d="M 2194 1759 
Q 1497 1759 1228 1600 
Q 959 1441 959 1056 
Q 959 750 1161 570 
Q 1363 391 1709 391 
Q 2188 391 2477 730 
Q 2766 1069 2766 1631 
L 2766 1759 
L 2194 1759 
z
M 3341 1997 
L 3341 0 
L 2766 0 
L 2766 531 
Q 2569 213 2275 61 
Q 1981 -91 1556 -91 
Q 1019 -91 701 211 
Q 384 513 384 1019 
Q 384 1609 779 1909 
Q 1175 2209 1959 2209 
L 2766 2209 
L 2766 2266 
Q 2766 2663 2505 2880 
Q 2244 3097 1772 3097 
Q 1472 3097 1187 3025 
Q 903 2953 641 2809 
L 641 3341 
Q 956 3463 1253 3523 
Q 1550 3584 1831 3584 
Q 2591 3584 2966 3190 
Q 3341 2797 3341 1997 
z
" id="DejaVuSans-61" transform="scale(0.015625)"/>
       <path d="M 2059 -325 
Q 1816 -950 1584 -1140 
Q 1353 -1331 966 -1331 
L 506 -1331 
L 506 -850 
L 844 -850 
Q 1081 -850 1212 -737 
Q 1344 -625 1503 -206 
L 1606 56 
L 191 3500 
L 800 3500 
L 1894 763 
L 2988 3500 
L 3597 3500 
L 2059 -325 
z
" id="DejaVuSans-79" transform="scale(0.015625)"/>
      </defs>
      <use xlink:href="#DejaVuSans-41"/>
      <use x="66.658203" xlink:href="#DejaVuSans-63"/>
      <use x="121.638672" xlink:href="#DejaVuSans-63"/>
      <use x="176.619141" xlink:href="#DejaVuSans-75"/>
      <use x="239.998047" xlink:href="#DejaVuSans-72"/>
      <use x="281.111328" xlink:href="#DejaVuSans-61"/>
      <use x="342.390625" xlink:href="#DejaVuSans-63"/>
      <use x="397.371094" xlink:href="#DejaVuSans-79"/>
     </g>
    </g>
   </g>
   <g id="line2d_23">
    <path clip-path="url(#p1721b0dd74)" d="M 66.007784 212.982689 
L 70.106958 158.572004 
L 74.206131 138.796827 
L 78.305305 128.26379 
L 82.404478 122.040892 
L 86.503652 117.421966 
L 90.602825 113.407747 
L 94.701999 110.645827 
L 98.801173 108.454303 
L 102.900346 106.404307 
L 106.99952 104.259959 
L 111.098693 102.411531 
L 115.197867 101.137788 
L 119.29704 99.649611 
L 123.396214 98.701809 
L 127.495387 97.110703 
L 131.594561 95.764052 
L 135.693735 95.039262 
L 139.792908 93.949934 
L 143.892082 93.04073 
L 147.991255 91.972845 
L 152.090429 91.372427 
L 156.189602 90.604751 
L 160.288776 89.991467 
L 164.387949 89.039377 
L 168.487123 88.318876 
L 172.586296 87.765634 
L 176.68547 87.109464 
L 180.784644 86.483314 
L 184.883817 86.045867 
L 188.982991 85.231015 
L 193.082164 84.52338 
L 197.181338 84.22746 
L 201.280511 83.322545 
L 205.379685 83.442629 
L 209.478858 82.55058 
L 213.578032 82.151731 
L 217.677206 81.401209 
L 221.776379 81.028093 
L 225.875553 80.732173 
L 229.974726 80.359056 
L 234.0739 79.878722 
L 238.173073 79.286882 
L 242.272247 78.836569 
L 246.37142 78.43772 
L 250.470594 78.030294 
L 254.569768 77.97883 
L 258.668941 77.438454 
L 262.768115 77.065338 
L 266.867288 77.125379 
L 270.966462 76.151845 
L 275.065635 75.847348 
L 279.164809 75.487098 
L 283.263982 75.041073 
L 287.363156 74.299129 
L 291.46233 74.410635 
L 295.561503 73.904569 
L 299.660677 73.419946 
L 303.75985 73.11116 
L 307.859024 72.793797 
L 311.958197 72.557918 
L 316.057371 72.609383 
L 320.156544 72.25771 
L 324.255718 71.558652 
L 328.354892 71.305619 
L 332.454065 70.893904 
L 336.553239 70.868172 
L 340.652412 70.156249 
L 344.751586 70.173403 
L 348.850759 70.049031 
L 352.949933 69.457191 
L 357.049106 69.109807 
L 361.14828 68.663782 
L 365.247454 68.762422 
L 369.346627 68.393595 
L 373.445801 68.556565 
L 377.544974 67.737424 
L 381.644148 68.114829 
L 385.743321 67.698826 
L 389.842495 67.793177 
L 393.941668 66.845375 
L 398.040842 66.982614 
L 402.140015 66.836798 
L 406.239189 66.219226 
L 410.338363 66.077699 
L 414.437536 65.635963 
L 418.53671 65.961904 
L 422.635883 65.310022 
L 426.735057 65.464415 
L 430.83423 64.881153 
L 434.933404 64.992659 
L 439.032577 65.224248 
L 443.131751 64.722471 
L 447.230925 64.580944 
L 451.330098 64.036279 
L 455.429272 64.074878 
L 459.528445 63.864732 
L 463.627619 63.766092 
L 467.726792 63.989104 
L 471.825966 63.427285 
" style="fill:none;stroke:#ff0000;stroke-linecap:square;stroke-width:1.5;"/>
   </g>
   <g id="line2d_24">
    <path clip-path="url(#p1721b0dd74)" d="M 66.007784 160.905055 
L 70.106958 130.476757 
L 74.206131 117.915166 
L 78.305305 110.821663 
L 82.404478 105.915395 
L 86.503652 101.446574 
L 90.602825 97.946998 
L 94.701999 95.438111 
L 98.801173 92.311652 
L 102.900346 89.7513 
L 106.99952 87.598375 
L 111.098693 85.569822 
L 115.197867 83.721394 
L 119.29704 81.804347 
L 123.396214 80.457696 
L 127.495387 78.806548 
L 131.594561 77.103936 
L 135.693735 75.306972 
L 139.792908 74.106138 
L 143.892082 72.42068 
L 147.991255 71.339929 
L 152.090429 69.903216 
L 156.189602 68.466502 
L 160.288776 67.583031 
L 164.387949 66.922572 
L 168.487123 65.310022 
L 172.586296 64.062012 
L 176.68547 62.848311 
L 180.784644 61.861911 
L 184.883817 61.149987 
L 188.982991 60.163587 
L 193.082164 59.335869 
L 197.181338 58.435243 
L 201.280511 57.804804 
L 205.379685 57.032839 
L 209.478858 56.213698 
L 213.578032 55.836293 
L 217.677206 55.544662 
L 221.776379 54.206588 
L 225.875553 53.644769 
L 229.974726 53.134414 
L 234.0739 52.336717 
L 238.173073 51.779186 
L 242.272247 51.436091 
L 246.37142 50.642682 
L 250.470594 50.213812 
L 254.569768 49.806386 
L 258.668941 49.416115 
L 262.768115 48.717058 
L 266.867288 48.476891 
L 270.966462 48.035155 
L 275.065635 48.481179 
L 279.164809 47.233169 
L 283.263982 46.911517 
L 287.363156 46.624174 
L 291.46233 46.259635 
L 295.561503 45.959426 
L 299.660677 45.723548 
L 303.75985 45.423339 
L 307.859024 45.118842 
L 311.958197 44.938716 
L 316.057371 44.329722 
L 320.156544 43.965182 
L 324.255718 43.502003 
L 328.354892 43.780769 
L 332.454065 43.476271 
L 336.553239 42.652842 
L 340.652412 42.639975 
L 344.751586 42.292591 
L 348.850759 42.258282 
L 352.949933 41.709328 
L 357.049106 41.923763 
L 361.14828 41.241861 
L 365.247454 41.198974 
L 369.346627 40.855878 
L 373.445801 40.778681 
L 377.544974 40.615711 
L 381.644148 40.358389 
L 385.743321 40.409854 
L 389.842495 40.045314 
L 393.941668 39.646466 
L 398.040842 39.650754 
L 402.140015 39.432031 
L 406.239189 39.110379 
L 410.338363 38.664354 
L 414.437536 38.788726 
L 418.53671 38.291238 
L 422.635883 38.951697 
L 426.735057 38.561426 
L 430.83423 38.132556 
L 434.933404 38.231196 
L 439.032577 38.098246 
L 443.131751 37.59218 
L 447.230925 37.686532 
L 451.330098 37.326281 
L 455.429272 37.219064 
L 459.528445 37.236219 
L 463.627619 36.888834 
L 467.726792 36.489985 
L 471.825966 37.279106 
" style="fill:none;stroke:#0000ff;stroke-linecap:square;stroke-width:1.5;"/>
   </g>
   <g id="line2d_25">
    <path clip-path="url(#p1721b0dd74)" d="M 66.007784 138.192121 
L 70.106958 115.316217 
L 74.206131 104.101277 
L 78.305305 96.325871 
L 82.404478 91.26521 
L 86.503652 86.230281 
L 90.602825 82.288969 
L 94.701999 78.497762 
L 98.801173 74.440656 
L 102.900346 71.129783 
L 106.99952 68.007612 
L 111.098693 65.747469 
L 115.197867 63.350088 
L 119.29704 61.261493 
L 123.396214 59.284404 
L 127.495387 57.247274 
L 131.594561 55.994975 
L 135.693735 53.670501 
L 139.792908 51.890693 
L 143.892082 51.088706 
L 147.991255 49.566219 
L 152.090429 48.588397 
L 156.189602 46.890073 
L 160.288776 45.877941 
L 164.387949 44.955871 
L 168.487123 44.093843 
L 172.586296 42.88872 
L 176.68547 42.151064 
L 180.784644 41.314768 
L 184.883817 40.229728 
L 188.982991 39.903787 
L 193.082164 38.930253 
L 197.181338 37.92241 
L 201.280511 37.92241 
L 205.379685 36.751596 
L 209.478858 36.60578 
L 213.578032 35.615091 
L 217.677206 34.813105 
L 221.776379 34.268441 
L 225.875553 33.818128 
L 229.974726 33.603693 
L 234.0739 32.874615 
L 238.173073 33.041874 
L 242.272247 31.87106 
L 246.37142 31.197735 
L 250.470594 30.94899 
L 254.569768 30.683091 
L 258.668941 30.322841 
L 262.768115 30.009766 
L 266.867288 29.156315 
L 270.966462 28.860395 
L 275.065635 28.706002 
L 279.164809 28.736023 
L 283.263982 27.968347 
L 287.363156 27.771067 
L 291.46233 27.123474 
L 295.561503 26.917616 
L 299.660677 26.488747 
L 303.75985 26.089898 
L 307.859024 26.042722 
L 311.958197 25.986969 
L 316.057371 25.729647 
L 320.156544 25.052033 
L 324.255718 24.966259 
L 328.354892 24.593143 
L 332.454065 24.151407 
L 336.553239 23.799734 
L 340.652412 23.915529 
L 344.751586 23.392308 
L 348.850759 23.327978 
L 352.949933 22.847644 
L 357.049106 23.083522 
L 361.14828 22.487393 
L 365.247454 22.487393 
L 369.346627 21.805491 
L 373.445801 21.826934 
L 377.544974 21.256538 
L 381.644148 21.458106 
L 385.743321 20.939174 
L 389.842495 21.3466 
L 393.941668 20.977772 
L 398.040842 20.364489 
L 402.140015 20.235828 
L 406.239189 19.858423 
L 410.338363 20.094301 
L 414.437536 19.751205 
L 418.53671 19.185097 
L 422.635883 19.223696 
L 426.735057 18.940642 
L 430.83423 18.996395 
L 434.933404 18.601835 
L 439.032577 18.721918 
L 443.131751 18.293049 
L 447.230925 18.588969 
L 451.330098 18.417421 
L 455.429272 18.048593 
L 459.528445 17.821292 
L 463.627619 17.593991 
L 467.726792 17.353824 
L 471.825966 17.083636 
" style="fill:none;stroke:#800080;stroke-linecap:square;stroke-width:1.5;"/>
   </g>
   <g id="line2d_26">
    <path clip-path="url(#p1721b0dd74)" d="M 66.007784 214.756364 
L 70.106958 159.736195 
L 74.206131 140.49135 
L 78.305305 130.828213 
L 82.404478 123.608003 
L 86.503652 119.780749 
L 90.602825 115.953495 
L 94.701999 112.696258 
L 98.801173 110.769059 
L 102.900346 108.869004 
L 106.99952 107.131811 
L 111.098693 105.04175 
L 115.197867 104.14601 
L 119.29704 102.897402 
L 123.396214 101.8388 
L 127.495387 100.535905 
L 131.594561 99.694452 
L 135.693735 98.798712 
L 139.792908 97.495817 
L 143.892082 96.382927 
L 147.991255 96.084347 
L 152.090429 95.677192 
L 156.189602 94.700021 
L 160.288776 93.42427 
L 164.387949 92.772822 
L 168.487123 92.718535 
L 172.586296 91.307065 
L 176.68547 91.632789 
L 180.784644 90.954198 
L 184.883817 89.325579 
L 188.982991 88.592701 
L 193.082164 89.189861 
L 197.181338 88.076972 
L 201.280511 87.859823 
L 205.379685 87.696961 
L 209.478858 87.696961 
L 213.578032 86.719789 
L 217.677206 85.769762 
L 221.776379 85.444038 
L 225.875553 84.982596 
L 229.974726 84.819734 
L 234.0739 84.846878 
L 238.173073 83.761132 
L 242.272247 83.679701 
L 246.37142 83.109685 
L 250.470594 82.485381 
L 254.569768 82.539668 
L 258.668941 82.186801 
L 262.768115 82.241088 
L 266.867288 81.562497 
L 270.966462 82.10537 
L 275.065635 81.481066 
L 279.164809 80.829618 
L 283.263982 80.775331 
L 287.363156 80.39532 
L 291.46233 80.6939 
L 295.561503 80.042453 
L 299.660677 79.472436 
L 303.75985 79.010994 
L 307.859024 79.716729 
L 311.958197 78.522409 
L 316.057371 78.766701 
L 320.156544 78.549552 
L 324.255718 77.843817 
L 328.354892 77.708099 
L 332.454065 77.680956 
L 336.553239 76.703784 
L 340.652412 76.459492 
L 344.751586 76.052337 
L 348.850759 75.99805 
L 352.949933 75.210884 
L 357.049106 75.835188 
L 361.14828 74.776586 
L 365.247454 74.478005 
L 369.346627 74.722298 
L 373.445801 74.993735 
L 377.544974 74.369431 
L 381.644148 74.342287 
L 385.743321 74.369431 
L 389.842495 73.962276 
L 393.941668 73.012249 
L 398.040842 72.822243 
L 402.140015 73.09368 
L 406.239189 72.252227 
L 410.338363 71.872216 
L 414.437536 71.627923 
L 418.53671 72.333657 
L 422.635883 71.275055 
L 426.735057 71.247912 
L 430.83423 70.650751 
L 434.933404 71.030763 
L 439.032577 71.437917 
L 443.131751 70.840757 
L 447.230925 70.922188 
L 451.330098 70.48789 
L 455.429272 70.297884 
L 459.528445 70.162166 
L 463.627619 69.836442 
L 467.726792 70.216453 
L 471.825966 69.836442 
" style="fill:none;stroke:#808080;stroke-dasharray:5.55,2.4;stroke-dashoffset:0;stroke-width:1.5;"/>
   </g>
   <g id="line2d_27">
    <path clip-path="url(#p1721b0dd74)" d="M 66.007784 159.736195 
L 70.106958 130.231053 
L 74.206131 119.780749 
L 78.305305 112.180529 
L 82.404478 106.968949 
L 86.503652 102.13738 
L 90.602825 99.341584 
L 94.701999 96.410071 
L 98.801173 94.482872 
L 102.900346 91.279922 
L 106.99952 90.112745 
L 111.098693 88.104115 
L 115.197867 87.072657 
L 119.29704 84.738303 
L 123.396214 83.462552 
L 127.495387 82.295375 
L 131.594561 80.259602 
L 135.693735 79.689585 
L 139.792908 77.898105 
L 143.892082 76.920934 
L 147.991255 76.350917 
L 152.090429 74.315144 
L 156.189602 73.772271 
L 160.288776 72.116508 
L 164.387949 71.410774 
L 168.487123 69.67358 
L 172.586296 69.727868 
L 176.68547 68.289254 
L 180.784644 67.149221 
L 184.883817 66.742067 
L 188.982991 65.384884 
L 193.082164 64.896299 
L 197.181338 63.647691 
L 201.280511 62.833382 
L 205.379685 62.100503 
L 209.478858 61.394768 
L 213.578032 60.906183 
L 217.677206 61.150476 
L 221.776379 59.983299 
L 225.875553 59.006128 
L 229.974726 58.978984 
L 234.0739 57.947526 
L 238.173073 57.486084 
L 242.272247 56.481769 
L 246.37142 58.083244 
L 250.470594 56.888923 
L 254.569768 56.970354 
L 258.668941 55.287448 
L 262.768115 54.988868 
L 266.867288 56.156045 
L 270.966462 54.744575 
L 275.065635 54.418852 
L 279.164809 54.201703 
L 283.263982 54.147415 
L 287.363156 53.550255 
L 291.46233 54.418852 
L 295.561503 52.627371 
L 299.660677 53.794548 
L 303.75985 53.44168 
L 307.859024 52.030211 
L 311.958197 53.088813 
L 316.057371 52.573084 
L 320.156544 52.274504 
L 324.255718 51.677344 
L 328.354892 51.921636 
L 332.454065 51.324476 
L 336.553239 51.568769 
L 340.652412 51.134471 
L 344.751586 50.863034 
L 348.850759 51.188758 
L 352.949933 50.863034 
L 357.049106 50.700172 
L 361.14828 51.05304 
L 365.247454 50.211587 
L 369.346627 50.374449 
L 373.445801 51.433051 
L 377.544974 50.401592 
L 381.644148 49.64157 
L 385.743321 50.510167 
L 389.842495 49.424421 
L 393.941668 49.451565 
L 398.040842 48.74583 
L 402.140015 49.587283 
L 406.239189 49.34299 
L 410.338363 48.392962 
L 414.437536 49.587283 
L 418.53671 48.962979 
L 422.635883 49.804432 
L 426.735057 49.04441 
L 430.83423 48.528681 
L 434.933404 48.772973 
L 439.032577 48.284388 
L 443.131751 48.772973 
L 447.230925 48.392962 
L 451.330098 48.827261 
L 455.429272 48.800117 
L 459.528445 48.44725 
L 463.627619 47.985808 
L 467.726792 47.714371 
L 471.825966 48.637255 
" style="fill:none;stroke:#ffff00;stroke-dasharray:5.55,2.4;stroke-dashoffset:0;stroke-width:1.5;"/>
   </g>
   <g id="line2d_28">
    <path clip-path="url(#p1721b0dd74)" d="M 66.007784 138.265572 
L 70.106958 116.95781 
L 74.206131 104.498877 
L 78.305305 98.771568 
L 82.404478 93.668563 
L 86.503652 88.80985 
L 90.602825 84.466867 
L 94.701999 81.128199 
L 98.801173 77.843817 
L 102.900346 74.668011 
L 106.99952 72.197939 
L 111.098693 69.863586 
L 115.197867 67.502089 
L 119.29704 66.47063 
L 123.396214 63.213393 
L 127.495387 62.561945 
L 131.594561 61.584774 
L 135.693735 59.087559 
L 139.792908 57.540371 
L 143.892082 56.481769 
L 147.991255 56.04747 
L 152.090429 54.445995 
L 156.189602 54.310277 
L 160.288776 52.708802 
L 164.387949 52.437366 
L 168.487123 51.188758 
L 172.586296 50.618741 
L 176.68547 51.188758 
L 180.784644 49.180128 
L 184.883817 49.098697 
L 188.982991 49.207272 
L 193.082164 47.714371 
L 197.181338 47.090067 
L 201.280511 47.171498 
L 205.379685 45.814316 
L 209.478858 45.678598 
L 213.578032 44.972863 
L 217.677206 43.83283 
L 221.776379 43.724255 
L 225.875553 43.968548 
L 229.974726 44.212841 
L 234.0739 43.778543 
L 238.173073 43.072808 
L 242.272247 43.018521 
L 246.37142 42.394217 
L 250.470594 42.149924 
L 254.569768 41.905631 
L 258.668941 41.579908 
L 262.768115 41.172753 
L 266.867288 41.172753 
L 270.966462 41.607051 
L 275.065635 40.901316 
L 279.164809 41.172753 
L 283.263982 40.222725 
L 287.363156 40.819885 
L 291.46233 40.059863 
L 295.561503 40.602736 
L 299.660677 40.03272 
L 303.75985 40.141294 
L 307.859024 40.005576 
L 311.958197 39.571278 
L 316.057371 39.625565 
L 320.156544 39.109836 
L 324.255718 39.109836 
L 328.354892 39.489847 
L 332.454065 39.191267 
L 336.553239 39.326985 
L 340.652412 39.21841 
L 344.751586 38.539819 
L 348.850759 38.512676 
L 352.949933 38.566963 
L 357.049106 39.21841 
L 361.14828 38.241239 
L 365.247454 38.349814 
L 369.346627 38.838399 
L 373.445801 38.241239 
L 377.544974 37.779797 
L 381.644148 38.105521 
L 385.743321 37.562648 
L 389.842495 37.806941 
L 393.941668 37.779797 
L 398.040842 37.698366 
L 402.140015 37.996946 
L 406.239189 38.078377 
L 410.338363 37.942659 
L 414.437536 37.399786 
L 418.53671 37.155493 
L 422.635883 36.856913 
L 426.735057 36.856913 
L 430.83423 37.671223 
L 434.933404 36.911201 
L 439.032577 37.209781 
L 443.131751 37.12835 
L 447.230925 36.884057 
L 451.330098 37.508361 
L 455.429272 37.264068 
L 459.528445 37.182637 
L 463.627619 37.155493 
L 467.726792 36.856913 
L 471.825966 36.124035 
" style="fill:none;stroke:#008000;stroke-dasharray:5.55,2.4;stroke-dashoffset:0;stroke-width:1.5;"/>
   </g>
   <g id="patch_3">
    <path d="M 45.716875 224.64 
L 45.716875 7.2 
" style="fill:none;stroke:#ffffff;stroke-linecap:square;stroke-linejoin:miter;"/>
   </g>
   <g id="patch_4">
    <path d="M 492.116875 224.64 
L 492.116875 7.2 
" style="fill:none;stroke:#ffffff;stroke-linecap:square;stroke-linejoin:miter;"/>
   </g>
   <g id="patch_5">
    <path d="M 45.716875 224.64 
L 492.116875 224.64 
" style="fill:none;stroke:#ffffff;stroke-linecap:square;stroke-linejoin:miter;"/>
   </g>
   <g id="patch_6">
    <path d="M 45.716875 7.2 
L 492.116875 7.2 
" style="fill:none;stroke:#ffffff;stroke-linecap:square;stroke-linejoin:miter;"/>
   </g>
   <g id="legend_1">
    <g id="patch_7">
     <path d="M 499.116875 103.26875 
L 612.699687 103.26875 
Q 614.699687 103.26875 614.699687 101.26875 
L 614.699687 14.2 
Q 614.699687 12.2 612.699687 12.2 
L 499.116875 12.2 
Q 497.116875 12.2 497.116875 14.2 
L 497.116875 101.26875 
Q 497.116875 103.26875 499.116875 103.26875 
z
" style="fill:#e5e5e5;opacity:0.8;stroke:#cccccc;stroke-linejoin:miter;stroke-width:0.5;"/>
    </g>
    <g id="line2d_29">
     <path d="M 501.116875 20.298437 
L 521.116875 20.298437 
" style="fill:none;stroke:#ff0000;stroke-linecap:square;stroke-width:1.5;"/>
    </g>
    <g id="line2d_30"/>
    <g id="text_14">
     <!-- width 32(train) -->
     <g transform="translate(529.116875 23.798437)scale(0.1 -0.1)">
      <defs>
       <path d="M 269 3500 
L 844 3500 
L 1563 769 
L 2278 3500 
L 2956 3500 
L 3675 769 
L 4391 3500 
L 4966 3500 
L 4050 0 
L 3372 0 
L 2619 2869 
L 1863 0 
L 1184 0 
L 269 3500 
z
" id="DejaVuSans-77" transform="scale(0.015625)"/>
       <path d="M 603 3500 
L 1178 3500 
L 1178 0 
L 603 0 
L 603 3500 
z
M 603 4863 
L 1178 4863 
L 1178 4134 
L 603 4134 
L 603 4863 
z
" id="DejaVuSans-69" transform="scale(0.015625)"/>
       <path d="M 2906 2969 
L 2906 4863 
L 3481 4863 
L 3481 0 
L 2906 0 
L 2906 525 
Q 2725 213 2448 61 
Q 2172 -91 1784 -91 
Q 1150 -91 751 415 
Q 353 922 353 1747 
Q 353 2572 751 3078 
Q 1150 3584 1784 3584 
Q 2172 3584 2448 3432 
Q 2725 3281 2906 2969 
z
M 947 1747 
Q 947 1113 1208 752 
Q 1469 391 1925 391 
Q 2381 391 2643 752 
Q 2906 1113 2906 1747 
Q 2906 2381 2643 2742 
Q 2381 3103 1925 3103 
Q 1469 3103 1208 2742 
Q 947 2381 947 1747 
z
" id="DejaVuSans-64" transform="scale(0.015625)"/>
       <path d="M 1172 4494 
L 1172 3500 
L 2356 3500 
L 2356 3053 
L 1172 3053 
L 1172 1153 
Q 1172 725 1289 603 
Q 1406 481 1766 481 
L 2356 481 
L 2356 0 
L 1766 0 
Q 1100 0 847 248 
Q 594 497 594 1153 
L 594 3053 
L 172 3053 
L 172 3500 
L 594 3500 
L 594 4494 
L 1172 4494 
z
" id="DejaVuSans-74" transform="scale(0.015625)"/>
       <path d="M 2597 2516 
Q 3050 2419 3304 2112 
Q 3559 1806 3559 1356 
Q 3559 666 3084 287 
Q 2609 -91 1734 -91 
Q 1441 -91 1130 -33 
Q 819 25 488 141 
L 488 750 
Q 750 597 1062 519 
Q 1375 441 1716 441 
Q 2309 441 2620 675 
Q 2931 909 2931 1356 
Q 2931 1769 2642 2001 
Q 2353 2234 1838 2234 
L 1294 2234 
L 1294 2753 
L 1863 2753 
Q 2328 2753 2575 2939 
Q 2822 3125 2822 3475 
Q 2822 3834 2567 4026 
Q 2313 4219 1838 4219 
Q 1578 4219 1281 4162 
Q 984 4106 628 3988 
L 628 4550 
Q 988 4650 1302 4700 
Q 1616 4750 1894 4750 
Q 2613 4750 3031 4423 
Q 3450 4097 3450 3541 
Q 3450 3153 3228 2886 
Q 3006 2619 2597 2516 
z
" id="DejaVuSans-33" transform="scale(0.015625)"/>
       <path d="M 1984 4856 
Q 1566 4138 1362 3434 
Q 1159 2731 1159 2009 
Q 1159 1288 1364 580 
Q 1569 -128 1984 -844 
L 1484 -844 
Q 1016 -109 783 600 
Q 550 1309 550 2009 
Q 550 2706 781 3412 
Q 1013 4119 1484 4856 
L 1984 4856 
z
" id="DejaVuSans-28" transform="scale(0.015625)"/>
       <path d="M 513 4856 
L 1013 4856 
Q 1481 4119 1714 3412 
Q 1947 2706 1947 2009 
Q 1947 1309 1714 600 
Q 1481 -109 1013 -844 
L 513 -844 
Q 928 -128 1133 580 
Q 1338 1288 1338 2009 
Q 1338 2731 1133 3434 
Q 928 4138 513 4856 
z
" id="DejaVuSans-29" transform="scale(0.015625)"/>
      </defs>
      <use xlink:href="#DejaVuSans-77"/>
      <use x="81.787109" xlink:href="#DejaVuSans-69"/>
      <use x="109.570312" xlink:href="#DejaVuSans-64"/>
      <use x="173.046875" xlink:href="#DejaVuSans-74"/>
      <use x="212.255859" xlink:href="#DejaVuSans-68"/>
      <use x="275.634766" xlink:href="#DejaVuSans-20"/>
      <use x="307.421875" xlink:href="#DejaVuSans-33"/>
      <use x="371.044922" xlink:href="#DejaVuSans-32"/>
      <use x="434.667969" xlink:href="#DejaVuSans-28"/>
      <use x="473.681641" xlink:href="#DejaVuSans-74"/>
      <use x="512.890625" xlink:href="#DejaVuSans-72"/>
      <use x="554.003906" xlink:href="#DejaVuSans-61"/>
      <use x="615.283203" xlink:href="#DejaVuSans-69"/>
      <use x="643.066406" xlink:href="#DejaVuSans-6e"/>
      <use x="706.445312" xlink:href="#DejaVuSans-29"/>
     </g>
    </g>
    <g id="line2d_31">
     <path d="M 501.116875 34.976562 
L 521.116875 34.976562 
" style="fill:none;stroke:#0000ff;stroke-linecap:square;stroke-width:1.5;"/>
    </g>
    <g id="line2d_32"/>
    <g id="text_15">
     <!-- width 64(train) -->
     <g transform="translate(529.116875 38.476562)scale(0.1 -0.1)">
      <use xlink:href="#DejaVuSans-77"/>
      <use x="81.787109" xlink:href="#DejaVuSans-69"/>
      <use x="109.570312" xlink:href="#DejaVuSans-64"/>
      <use x="173.046875" xlink:href="#DejaVuSans-74"/>
      <use x="212.255859" xlink:href="#DejaVuSans-68"/>
      <use x="275.634766" xlink:href="#DejaVuSans-20"/>
      <use x="307.421875" xlink:href="#DejaVuSans-36"/>
      <use x="371.044922" xlink:href="#DejaVuSans-34"/>
      <use x="434.667969" xlink:href="#DejaVuSans-28"/>
      <use x="473.681641" xlink:href="#DejaVuSans-74"/>
      <use x="512.890625" xlink:href="#DejaVuSans-72"/>
      <use x="554.003906" xlink:href="#DejaVuSans-61"/>
      <use x="615.283203" xlink:href="#DejaVuSans-69"/>
      <use x="643.066406" xlink:href="#DejaVuSans-6e"/>
      <use x="706.445312" xlink:href="#DejaVuSans-29"/>
     </g>
    </g>
    <g id="line2d_33">
     <path d="M 501.116875 49.654687 
L 521.116875 49.654687 
" style="fill:none;stroke:#800080;stroke-linecap:square;stroke-width:1.5;"/>
    </g>
    <g id="line2d_34"/>
    <g id="text_16">
     <!-- width 128(train) -->
     <g transform="translate(529.116875 53.154687)scale(0.1 -0.1)">
      <use xlink:href="#DejaVuSans-77"/>
      <use x="81.787109" xlink:href="#DejaVuSans-69"/>
      <use x="109.570312" xlink:href="#DejaVuSans-64"/>
      <use x="173.046875" xlink:href="#DejaVuSans-74"/>
      <use x="212.255859" xlink:href="#DejaVuSans-68"/>
      <use x="275.634766" xlink:href="#DejaVuSans-20"/>
      <use x="307.421875" xlink:href="#DejaVuSans-31"/>
      <use x="371.044922" xlink:href="#DejaVuSans-32"/>
      <use x="434.667969" xlink:href="#DejaVuSans-38"/>
      <use x="498.291016" xlink:href="#DejaVuSans-28"/>
      <use x="537.304688" xlink:href="#DejaVuSans-74"/>
      <use x="576.513672" xlink:href="#DejaVuSans-72"/>
      <use x="617.626953" xlink:href="#DejaVuSans-61"/>
      <use x="678.90625" xlink:href="#DejaVuSans-69"/>
      <use x="706.689453" xlink:href="#DejaVuSans-6e"/>
      <use x="770.068359" xlink:href="#DejaVuSans-29"/>
     </g>
    </g>
    <g id="line2d_35">
     <path d="M 501.116875 64.332812 
L 521.116875 64.332812 
" style="fill:none;stroke:#808080;stroke-dasharray:5.55,2.4;stroke-dashoffset:0;stroke-width:1.5;"/>
    </g>
    <g id="line2d_36"/>
    <g id="text_17">
     <!-- width 32(valid) -->
     <g transform="translate(529.116875 67.832812)scale(0.1 -0.1)">
      <defs>
       <path d="M 191 3500 
L 800 3500 
L 1894 563 
L 2988 3500 
L 3597 3500 
L 2284 0 
L 1503 0 
L 191 3500 
z
" id="DejaVuSans-76" transform="scale(0.015625)"/>
       <path d="M 603 4863 
L 1178 4863 
L 1178 0 
L 603 0 
L 603 4863 
z
" id="DejaVuSans-6c" transform="scale(0.015625)"/>
      </defs>
      <use xlink:href="#DejaVuSans-77"/>
      <use x="81.787109" xlink:href="#DejaVuSans-69"/>
      <use x="109.570312" xlink:href="#DejaVuSans-64"/>
      <use x="173.046875" xlink:href="#DejaVuSans-74"/>
      <use x="212.255859" xlink:href="#DejaVuSans-68"/>
      <use x="275.634766" xlink:href="#DejaVuSans-20"/>
      <use x="307.421875" xlink:href="#DejaVuSans-33"/>
      <use x="371.044922" xlink:href="#DejaVuSans-32"/>
      <use x="434.667969" xlink:href="#DejaVuSans-28"/>
      <use x="473.681641" xlink:href="#DejaVuSans-76"/>
      <use x="532.861328" xlink:href="#DejaVuSans-61"/>
      <use x="594.140625" xlink:href="#DejaVuSans-6c"/>
      <use x="621.923828" xlink:href="#DejaVuSans-69"/>
      <use x="649.707031" xlink:href="#DejaVuSans-64"/>
      <use x="713.183594" xlink:href="#DejaVuSans-29"/>
     </g>
    </g>
    <g id="line2d_37">
     <path d="M 501.116875 79.010937 
L 521.116875 79.010937 
" style="fill:none;stroke:#ffff00;stroke-dasharray:5.55,2.4;stroke-dashoffset:0;stroke-width:1.5;"/>
    </g>
    <g id="line2d_38"/>
    <g id="text_18">
     <!-- width 64(valid) -->
     <g transform="translate(529.116875 82.510937)scale(0.1 -0.1)">
      <use xlink:href="#DejaVuSans-77"/>
      <use x="81.787109" xlink:href="#DejaVuSans-69"/>
      <use x="109.570312" xlink:href="#DejaVuSans-64"/>
      <use x="173.046875" xlink:href="#DejaVuSans-74"/>
      <use x="212.255859" xlink:href="#DejaVuSans-68"/>
      <use x="275.634766" xlink:href="#DejaVuSans-20"/>
      <use x="307.421875" xlink:href="#DejaVuSans-36"/>
      <use x="371.044922" xlink:href="#DejaVuSans-34"/>
      <use x="434.667969" xlink:href="#DejaVuSans-28"/>
      <use x="473.681641" xlink:href="#DejaVuSans-76"/>
      <use x="532.861328" xlink:href="#DejaVuSans-61"/>
      <use x="594.140625" xlink:href="#DejaVuSans-6c"/>
      <use x="621.923828" xlink:href="#DejaVuSans-69"/>
      <use x="649.707031" xlink:href="#DejaVuSans-64"/>
      <use x="713.183594" xlink:href="#DejaVuSans-29"/>
     </g>
    </g>
    <g id="line2d_39">
     <path d="M 501.116875 93.689062 
L 521.116875 93.689062 
" style="fill:none;stroke:#008000;stroke-dasharray:5.55,2.4;stroke-dashoffset:0;stroke-width:1.5;"/>
    </g>
    <g id="line2d_40"/>
    <g id="text_19">
     <!-- width 128(valid) -->
     <g transform="translate(529.116875 97.189062)scale(0.1 -0.1)">
      <use xlink:href="#DejaVuSans-77"/>
      <use x="81.787109" xlink:href="#DejaVuSans-69"/>
      <use x="109.570312" xlink:href="#DejaVuSans-64"/>
      <use x="173.046875" xlink:href="#DejaVuSans-74"/>
      <use x="212.255859" xlink:href="#DejaVuSans-68"/>
      <use x="275.634766" xlink:href="#DejaVuSans-20"/>
      <use x="307.421875" xlink:href="#DejaVuSans-31"/>
      <use x="371.044922" xlink:href="#DejaVuSans-32"/>
      <use x="434.667969" xlink:href="#DejaVuSans-38"/>
      <use x="498.291016" xlink:href="#DejaVuSans-28"/>
      <use x="537.304688" xlink:href="#DejaVuSans-76"/>
      <use x="596.484375" xlink:href="#DejaVuSans-61"/>
      <use x="657.763672" xlink:href="#DejaVuSans-6c"/>
      <use x="685.546875" xlink:href="#DejaVuSans-69"/>
      <use x="713.330078" xlink:href="#DejaVuSans-64"/>
      <use x="776.806641" xlink:href="#DejaVuSans-29"/>
     </g>
    </g>
   </g>
  </g>
 </g>
 <defs>
  <clipPath id="p1721b0dd74">
   <rect height="217.44" width="446.4" x="45.716875" y="7.2"/>
  </clipPath>
 </defs>
</svg>
