<?xml version="1.0" encoding="utf-8" standalone="no"?>
<!DOCTYPE svg PUBLIC "-//W3C//DTD SVG 1.1//EN"
  "http://www.w3.org/Graphics/SVG/1.1/DTD/svg11.dtd">
<svg height="264.131875pt" version="1.1" viewBox="0 0 609.67 264.131875" width="609.67pt" xmlns="http://www.w3.org/2000/svg" xmlns:xlink="http://www.w3.org/1999/xlink">
 <metadata>
  <rdf:RDF xmlns:cc="http://creativecommons.org/ns#" xmlns:dc="http://purl.org/dc/elements/1.1/" xmlns:rdf="http://www.w3.org/1999/02/22-rdf-syntax-ns#">
   <cc:Work>
    <dc:type rdf:resource="http://purl.org/dc/dcmitype/StillImage"/>
    <dc:date>2021-11-04T18:07:13.371789</dc:date>
    <dc:format>image/svg+xml</dc:format>
    <dc:creator>
     <cc:Agent>
      <dc:title>Matplotlib v3.4.2, https://matplotlib.org/</dc:title>
     </cc:Agent>
    </dc:creator>
   </cc:Work>
  </rdf:RDF>
 </metadata>
 <defs>
  <style type="text/css">*{stroke-linecap:butt;stroke-linejoin:round;}</style>
 </defs>
 <g id="figure_1">
  <g id="patch_1">
   <path d="M 0 264.131875 
L 609.67 264.131875 
L 609.67 0 
L 0 0 
z
" style="fill:#ffffff;"/>
  </g>
  <g id="axes_1">
   <g id="patch_2">
    <path d="M 45.716875 224.64 
L 492.116875 224.64 
L 492.116875 7.2 
L 45.716875 7.2 
z
" style="fill:#e5e5e5;"/>
   </g>
   <g id="matplotlib.axis_1">
    <g id="xtick_1">
     <g id="line2d_1">
      <path clip-path="url(#p816b3189ed)" d="M 61.908611 224.64 
L 61.908611 7.2 
" style="fill:none;stroke:#ffffff;stroke-linecap:square;stroke-width:0.8;"/>
     </g>
     <g id="line2d_2">
      <defs>
       <path d="M 0 0 
L 0 3.5 
" id="md4e8a2aef8" style="stroke:#555555;stroke-width:0.8;"/>
      </defs>
      <g>
       <use style="fill:#555555;stroke:#555555;stroke-width:0.8;" x="61.908611" xlink:href="#md4e8a2aef8" y="224.64"/>
      </g>
     </g>
     <g id="text_1">
      <!-- 0 -->
      <g style="fill:#555555;" transform="translate(58.727361 239.238437)scale(0.1 -0.1)">
       <defs>
        <path d="M 2034 4250 
Q 1547 4250 1301 3770 
Q 1056 3291 1056 2328 
Q 1056 1369 1301 889 
Q 1547 409 2034 409 
Q 2525 409 2770 889 
Q 3016 1369 3016 2328 
Q 3016 3291 2770 3770 
Q 2525 4250 2034 4250 
z
M 2034 4750 
Q 2819 4750 3233 4129 
Q 3647 3509 3647 2328 
Q 3647 1150 3233 529 
Q 2819 -91 2034 -91 
Q 1250 -91 836 529 
Q 422 1150 422 2328 
Q 422 3509 836 4129 
Q 1250 4750 2034 4750 
z
" id="DejaVuSans-30" transform="scale(0.015625)"/>
       </defs>
       <use xlink:href="#DejaVuSans-30"/>
      </g>
     </g>
    </g>
    <g id="xtick_2">
     <g id="line2d_3">
      <path clip-path="url(#p816b3189ed)" d="M 143.892082 224.64 
L 143.892082 7.2 
" style="fill:none;stroke:#ffffff;stroke-linecap:square;stroke-width:0.8;"/>
     </g>
     <g id="line2d_4">
      <g>
       <use style="fill:#555555;stroke:#555555;stroke-width:0.8;" x="143.892082" xlink:href="#md4e8a2aef8" y="224.64"/>
      </g>
     </g>
     <g id="text_2">
      <!-- 20 -->
      <g style="fill:#555555;" transform="translate(137.529582 239.238437)scale(0.1 -0.1)">
       <defs>
        <path d="M 1228 531 
L 3431 531 
L 3431 0 
L 469 0 
L 469 531 
Q 828 903 1448 1529 
Q 2069 2156 2228 2338 
Q 2531 2678 2651 2914 
Q 2772 3150 2772 3378 
Q 2772 3750 2511 3984 
Q 2250 4219 1831 4219 
Q 1534 4219 1204 4116 
Q 875 4013 500 3803 
L 500 4441 
Q 881 4594 1212 4672 
Q 1544 4750 1819 4750 
Q 2544 4750 2975 4387 
Q 3406 4025 3406 3419 
Q 3406 3131 3298 2873 
Q 3191 2616 2906 2266 
Q 2828 2175 2409 1742 
Q 1991 1309 1228 531 
z
" id="DejaVuSans-32" transform="scale(0.015625)"/>
       </defs>
       <use xlink:href="#DejaVuSans-32"/>
       <use x="63.623047" xlink:href="#DejaVuSans-30"/>
      </g>
     </g>
    </g>
    <g id="xtick_3">
     <g id="line2d_5">
      <path clip-path="url(#p816b3189ed)" d="M 225.875553 224.64 
L 225.875553 7.2 
" style="fill:none;stroke:#ffffff;stroke-linecap:square;stroke-width:0.8;"/>
     </g>
     <g id="line2d_6">
      <g>
       <use style="fill:#555555;stroke:#555555;stroke-width:0.8;" x="225.875553" xlink:href="#md4e8a2aef8" y="224.64"/>
      </g>
     </g>
     <g id="text_3">
      <!-- 40 -->
      <g style="fill:#555555;" transform="translate(219.513053 239.238437)scale(0.1 -0.1)">
       <defs>
        <path d="M 2419 4116 
L 825 1625 
L 2419 1625 
L 2419 4116 
z
M 2253 4666 
L 3047 4666 
L 3047 1625 
L 3713 1625 
L 3713 1100 
L 3047 1100 
L 3047 0 
L 2419 0 
L 2419 1100 
L 313 1100 
L 313 1709 
L 2253 4666 
z
" id="DejaVuSans-34" transform="scale(0.015625)"/>
       </defs>
       <use xlink:href="#DejaVuSans-34"/>
       <use x="63.623047" xlink:href="#DejaVuSans-30"/>
      </g>
     </g>
    </g>
    <g id="xtick_4">
     <g id="line2d_7">
      <path clip-path="url(#p816b3189ed)" d="M 307.859024 224.64 
L 307.859024 7.2 
" style="fill:none;stroke:#ffffff;stroke-linecap:square;stroke-width:0.8;"/>
     </g>
     <g id="line2d_8">
      <g>
       <use style="fill:#555555;stroke:#555555;stroke-width:0.8;" x="307.859024" xlink:href="#md4e8a2aef8" y="224.64"/>
      </g>
     </g>
     <g id="text_4">
      <!-- 60 -->
      <g style="fill:#555555;" transform="translate(301.496524 239.238437)scale(0.1 -0.1)">
       <defs>
        <path d="M 2113 2584 
Q 1688 2584 1439 2293 
Q 1191 2003 1191 1497 
Q 1191 994 1439 701 
Q 1688 409 2113 409 
Q 2538 409 2786 701 
Q 3034 994 3034 1497 
Q 3034 2003 2786 2293 
Q 2538 2584 2113 2584 
z
M 3366 4563 
L 3366 3988 
Q 3128 4100 2886 4159 
Q 2644 4219 2406 4219 
Q 1781 4219 1451 3797 
Q 1122 3375 1075 2522 
Q 1259 2794 1537 2939 
Q 1816 3084 2150 3084 
Q 2853 3084 3261 2657 
Q 3669 2231 3669 1497 
Q 3669 778 3244 343 
Q 2819 -91 2113 -91 
Q 1303 -91 875 529 
Q 447 1150 447 2328 
Q 447 3434 972 4092 
Q 1497 4750 2381 4750 
Q 2619 4750 2861 4703 
Q 3103 4656 3366 4563 
z
" id="DejaVuSans-36" transform="scale(0.015625)"/>
       </defs>
       <use xlink:href="#DejaVuSans-36"/>
       <use x="63.623047" xlink:href="#DejaVuSans-30"/>
      </g>
     </g>
    </g>
    <g id="xtick_5">
     <g id="line2d_9">
      <path clip-path="url(#p816b3189ed)" d="M 389.842495 224.64 
L 389.842495 7.2 
" style="fill:none;stroke:#ffffff;stroke-linecap:square;stroke-width:0.8;"/>
     </g>
     <g id="line2d_10">
      <g>
       <use style="fill:#555555;stroke:#555555;stroke-width:0.8;" x="389.842495" xlink:href="#md4e8a2aef8" y="224.64"/>
      </g>
     </g>
     <g id="text_5">
      <!-- 80 -->
      <g style="fill:#555555;" transform="translate(383.479995 239.238437)scale(0.1 -0.1)">
       <defs>
        <path d="M 2034 2216 
Q 1584 2216 1326 1975 
Q 1069 1734 1069 1313 
Q 1069 891 1326 650 
Q 1584 409 2034 409 
Q 2484 409 2743 651 
Q 3003 894 3003 1313 
Q 3003 1734 2745 1975 
Q 2488 2216 2034 2216 
z
M 1403 2484 
Q 997 2584 770 2862 
Q 544 3141 544 3541 
Q 544 4100 942 4425 
Q 1341 4750 2034 4750 
Q 2731 4750 3128 4425 
Q 3525 4100 3525 3541 
Q 3525 3141 3298 2862 
Q 3072 2584 2669 2484 
Q 3125 2378 3379 2068 
Q 3634 1759 3634 1313 
Q 3634 634 3220 271 
Q 2806 -91 2034 -91 
Q 1263 -91 848 271 
Q 434 634 434 1313 
Q 434 1759 690 2068 
Q 947 2378 1403 2484 
z
M 1172 3481 
Q 1172 3119 1398 2916 
Q 1625 2713 2034 2713 
Q 2441 2713 2670 2916 
Q 2900 3119 2900 3481 
Q 2900 3844 2670 4047 
Q 2441 4250 2034 4250 
Q 1625 4250 1398 4047 
Q 1172 3844 1172 3481 
z
" id="DejaVuSans-38" transform="scale(0.015625)"/>
       </defs>
       <use xlink:href="#DejaVuSans-38"/>
       <use x="63.623047" xlink:href="#DejaVuSans-30"/>
      </g>
     </g>
    </g>
    <g id="xtick_6">
     <g id="line2d_11">
      <path clip-path="url(#p816b3189ed)" d="M 471.825966 224.64 
L 471.825966 7.2 
" style="fill:none;stroke:#ffffff;stroke-linecap:square;stroke-width:0.8;"/>
     </g>
     <g id="line2d_12">
      <g>
       <use style="fill:#555555;stroke:#555555;stroke-width:0.8;" x="471.825966" xlink:href="#md4e8a2aef8" y="224.64"/>
      </g>
     </g>
     <g id="text_6">
      <!-- 100 -->
      <g style="fill:#555555;" transform="translate(462.282216 239.238437)scale(0.1 -0.1)">
       <defs>
        <path d="M 794 531 
L 1825 531 
L 1825 4091 
L 703 3866 
L 703 4441 
L 1819 4666 
L 2450 4666 
L 2450 531 
L 3481 531 
L 3481 0 
L 794 0 
L 794 531 
z
" id="DejaVuSans-31" transform="scale(0.015625)"/>
       </defs>
       <use xlink:href="#DejaVuSans-31"/>
       <use x="63.623047" xlink:href="#DejaVuSans-30"/>
       <use x="127.246094" xlink:href="#DejaVuSans-30"/>
      </g>
     </g>
    </g>
    <g id="text_7">
     <!-- Epoch number -->
     <g style="fill:#555555;" transform="translate(225.22 254.43625)scale(0.12 -0.12)">
      <defs>
       <path d="M 628 4666 
L 3578 4666 
L 3578 4134 
L 1259 4134 
L 1259 2753 
L 3481 2753 
L 3481 2222 
L 1259 2222 
L 1259 531 
L 3634 531 
L 3634 0 
L 628 0 
L 628 4666 
z
" id="DejaVuSans-45" transform="scale(0.015625)"/>
       <path d="M 1159 525 
L 1159 -1331 
L 581 -1331 
L 581 3500 
L 1159 3500 
L 1159 2969 
Q 1341 3281 1617 3432 
Q 1894 3584 2278 3584 
Q 2916 3584 3314 3078 
Q 3713 2572 3713 1747 
Q 3713 922 3314 415 
Q 2916 -91 2278 -91 
Q 1894 -91 1617 61 
Q 1341 213 1159 525 
z
M 3116 1747 
Q 3116 2381 2855 2742 
Q 2594 3103 2138 3103 
Q 1681 3103 1420 2742 
Q 1159 2381 1159 1747 
Q 1159 1113 1420 752 
Q 1681 391 2138 391 
Q 2594 391 2855 752 
Q 3116 1113 3116 1747 
z
" id="DejaVuSans-70" transform="scale(0.015625)"/>
       <path d="M 1959 3097 
Q 1497 3097 1228 2736 
Q 959 2375 959 1747 
Q 959 1119 1226 758 
Q 1494 397 1959 397 
Q 2419 397 2687 759 
Q 2956 1122 2956 1747 
Q 2956 2369 2687 2733 
Q 2419 3097 1959 3097 
z
M 1959 3584 
Q 2709 3584 3137 3096 
Q 3566 2609 3566 1747 
Q 3566 888 3137 398 
Q 2709 -91 1959 -91 
Q 1206 -91 779 398 
Q 353 888 353 1747 
Q 353 2609 779 3096 
Q 1206 3584 1959 3584 
z
" id="DejaVuSans-6f" transform="scale(0.015625)"/>
       <path d="M 3122 3366 
L 3122 2828 
Q 2878 2963 2633 3030 
Q 2388 3097 2138 3097 
Q 1578 3097 1268 2742 
Q 959 2388 959 1747 
Q 959 1106 1268 751 
Q 1578 397 2138 397 
Q 2388 397 2633 464 
Q 2878 531 3122 666 
L 3122 134 
Q 2881 22 2623 -34 
Q 2366 -91 2075 -91 
Q 1284 -91 818 406 
Q 353 903 353 1747 
Q 353 2603 823 3093 
Q 1294 3584 2113 3584 
Q 2378 3584 2631 3529 
Q 2884 3475 3122 3366 
z
" id="DejaVuSans-63" transform="scale(0.015625)"/>
       <path d="M 3513 2113 
L 3513 0 
L 2938 0 
L 2938 2094 
Q 2938 2591 2744 2837 
Q 2550 3084 2163 3084 
Q 1697 3084 1428 2787 
Q 1159 2491 1159 1978 
L 1159 0 
L 581 0 
L 581 4863 
L 1159 4863 
L 1159 2956 
Q 1366 3272 1645 3428 
Q 1925 3584 2291 3584 
Q 2894 3584 3203 3211 
Q 3513 2838 3513 2113 
z
" id="DejaVuSans-68" transform="scale(0.015625)"/>
       <path id="DejaVuSans-20" transform="scale(0.015625)"/>
       <path d="M 3513 2113 
L 3513 0 
L 2938 0 
L 2938 2094 
Q 2938 2591 2744 2837 
Q 2550 3084 2163 3084 
Q 1697 3084 1428 2787 
Q 1159 2491 1159 1978 
L 1159 0 
L 581 0 
L 581 3500 
L 1159 3500 
L 1159 2956 
Q 1366 3272 1645 3428 
Q 1925 3584 2291 3584 
Q 2894 3584 3203 3211 
Q 3513 2838 3513 2113 
z
" id="DejaVuSans-6e" transform="scale(0.015625)"/>
       <path d="M 544 1381 
L 544 3500 
L 1119 3500 
L 1119 1403 
Q 1119 906 1312 657 
Q 1506 409 1894 409 
Q 2359 409 2629 706 
Q 2900 1003 2900 1516 
L 2900 3500 
L 3475 3500 
L 3475 0 
L 2900 0 
L 2900 538 
Q 2691 219 2414 64 
Q 2138 -91 1772 -91 
Q 1169 -91 856 284 
Q 544 659 544 1381 
z
M 1991 3584 
L 1991 3584 
z
" id="DejaVuSans-75" transform="scale(0.015625)"/>
       <path d="M 3328 2828 
Q 3544 3216 3844 3400 
Q 4144 3584 4550 3584 
Q 5097 3584 5394 3201 
Q 5691 2819 5691 2113 
L 5691 0 
L 5113 0 
L 5113 2094 
Q 5113 2597 4934 2840 
Q 4756 3084 4391 3084 
Q 3944 3084 3684 2787 
Q 3425 2491 3425 1978 
L 3425 0 
L 2847 0 
L 2847 2094 
Q 2847 2600 2669 2842 
Q 2491 3084 2119 3084 
Q 1678 3084 1418 2786 
Q 1159 2488 1159 1978 
L 1159 0 
L 581 0 
L 581 3500 
L 1159 3500 
L 1159 2956 
Q 1356 3278 1631 3431 
Q 1906 3584 2284 3584 
Q 2666 3584 2933 3390 
Q 3200 3197 3328 2828 
z
" id="DejaVuSans-6d" transform="scale(0.015625)"/>
       <path d="M 3116 1747 
Q 3116 2381 2855 2742 
Q 2594 3103 2138 3103 
Q 1681 3103 1420 2742 
Q 1159 2381 1159 1747 
Q 1159 1113 1420 752 
Q 1681 391 2138 391 
Q 2594 391 2855 752 
Q 3116 1113 3116 1747 
z
M 1159 2969 
Q 1341 3281 1617 3432 
Q 1894 3584 2278 3584 
Q 2916 3584 3314 3078 
Q 3713 2572 3713 1747 
Q 3713 922 3314 415 
Q 2916 -91 2278 -91 
Q 1894 -91 1617 61 
Q 1341 213 1159 525 
L 1159 0 
L 581 0 
L 581 4863 
L 1159 4863 
L 1159 2969 
z
" id="DejaVuSans-62" transform="scale(0.015625)"/>
       <path d="M 3597 1894 
L 3597 1613 
L 953 1613 
Q 991 1019 1311 708 
Q 1631 397 2203 397 
Q 2534 397 2845 478 
Q 3156 559 3463 722 
L 3463 178 
Q 3153 47 2828 -22 
Q 2503 -91 2169 -91 
Q 1331 -91 842 396 
Q 353 884 353 1716 
Q 353 2575 817 3079 
Q 1281 3584 2069 3584 
Q 2775 3584 3186 3129 
Q 3597 2675 3597 1894 
z
M 3022 2063 
Q 3016 2534 2758 2815 
Q 2500 3097 2075 3097 
Q 1594 3097 1305 2825 
Q 1016 2553 972 2059 
L 3022 2063 
z
" id="DejaVuSans-65" transform="scale(0.015625)"/>
       <path d="M 2631 2963 
Q 2534 3019 2420 3045 
Q 2306 3072 2169 3072 
Q 1681 3072 1420 2755 
Q 1159 2438 1159 1844 
L 1159 0 
L 581 0 
L 581 3500 
L 1159 3500 
L 1159 2956 
Q 1341 3275 1631 3429 
Q 1922 3584 2338 3584 
Q 2397 3584 2469 3576 
Q 2541 3569 2628 3553 
L 2631 2963 
z
" id="DejaVuSans-72" transform="scale(0.015625)"/>
      </defs>
      <use xlink:href="#DejaVuSans-45"/>
      <use x="63.183594" xlink:href="#DejaVuSans-70"/>
      <use x="126.660156" xlink:href="#DejaVuSans-6f"/>
      <use x="187.841797" xlink:href="#DejaVuSans-63"/>
      <use x="242.822266" xlink:href="#DejaVuSans-68"/>
      <use x="306.201172" xlink:href="#DejaVuSans-20"/>
      <use x="337.988281" xlink:href="#DejaVuSans-6e"/>
      <use x="401.367188" xlink:href="#DejaVuSans-75"/>
      <use x="464.746094" xlink:href="#DejaVuSans-6d"/>
      <use x="562.158203" xlink:href="#DejaVuSans-62"/>
      <use x="625.634766" xlink:href="#DejaVuSans-65"/>
      <use x="687.158203" xlink:href="#DejaVuSans-72"/>
     </g>
    </g>
   </g>
   <g id="matplotlib.axis_2">
    <g id="ytick_1">
     <g id="line2d_13">
      <path clip-path="url(#p816b3189ed)" d="M 45.716875 219.360778 
L 492.116875 219.360778 
" style="fill:none;stroke:#ffffff;stroke-linecap:square;stroke-width:0.8;"/>
     </g>
     <g id="line2d_14">
      <defs>
       <path d="M 0 0 
L -3.5 0 
" id="mfb9575a291" style="stroke:#555555;stroke-width:0.8;"/>
      </defs>
      <g>
       <use style="fill:#555555;stroke:#555555;stroke-width:0.8;" x="45.716875" xlink:href="#mfb9575a291" y="219.360778"/>
      </g>
     </g>
     <g id="text_8">
      <!-- 0.0 -->
      <g style="fill:#555555;" transform="translate(22.81375 223.159997)scale(0.1 -0.1)">
       <defs>
        <path d="M 684 794 
L 1344 794 
L 1344 0 
L 684 0 
L 684 794 
z
" id="DejaVuSans-2e" transform="scale(0.015625)"/>
       </defs>
       <use xlink:href="#DejaVuSans-30"/>
       <use x="63.623047" xlink:href="#DejaVuSans-2e"/>
       <use x="95.410156" xlink:href="#DejaVuSans-30"/>
      </g>
     </g>
    </g>
    <g id="ytick_2">
     <g id="line2d_15">
      <path clip-path="url(#p816b3189ed)" d="M 45.716875 172.425459 
L 492.116875 172.425459 
" style="fill:none;stroke:#ffffff;stroke-linecap:square;stroke-width:0.8;"/>
     </g>
     <g id="line2d_16">
      <g>
       <use style="fill:#555555;stroke:#555555;stroke-width:0.8;" x="45.716875" xlink:href="#mfb9575a291" y="172.425459"/>
      </g>
     </g>
     <g id="text_9">
      <!-- 0.2 -->
      <g style="fill:#555555;" transform="translate(22.81375 176.224678)scale(0.1 -0.1)">
       <use xlink:href="#DejaVuSans-30"/>
       <use x="63.623047" xlink:href="#DejaVuSans-2e"/>
       <use x="95.410156" xlink:href="#DejaVuSans-32"/>
      </g>
     </g>
    </g>
    <g id="ytick_3">
     <g id="line2d_17">
      <path clip-path="url(#p816b3189ed)" d="M 45.716875 125.490141 
L 492.116875 125.490141 
" style="fill:none;stroke:#ffffff;stroke-linecap:square;stroke-width:0.8;"/>
     </g>
     <g id="line2d_18">
      <g>
       <use style="fill:#555555;stroke:#555555;stroke-width:0.8;" x="45.716875" xlink:href="#mfb9575a291" y="125.490141"/>
      </g>
     </g>
     <g id="text_10">
      <!-- 0.4 -->
      <g style="fill:#555555;" transform="translate(22.81375 129.28936)scale(0.1 -0.1)">
       <use xlink:href="#DejaVuSans-30"/>
       <use x="63.623047" xlink:href="#DejaVuSans-2e"/>
       <use x="95.410156" xlink:href="#DejaVuSans-34"/>
      </g>
     </g>
    </g>
    <g id="ytick_4">
     <g id="line2d_19">
      <path clip-path="url(#p816b3189ed)" d="M 45.716875 78.554823 
L 492.116875 78.554823 
" style="fill:none;stroke:#ffffff;stroke-linecap:square;stroke-width:0.8;"/>
     </g>
     <g id="line2d_20">
      <g>
       <use style="fill:#555555;stroke:#555555;stroke-width:0.8;" x="45.716875" xlink:href="#mfb9575a291" y="78.554823"/>
      </g>
     </g>
     <g id="text_11">
      <!-- 0.6 -->
      <g style="fill:#555555;" transform="translate(22.81375 82.354042)scale(0.1 -0.1)">
       <use xlink:href="#DejaVuSans-30"/>
       <use x="63.623047" xlink:href="#DejaVuSans-2e"/>
       <use x="95.410156" xlink:href="#DejaVuSans-36"/>
      </g>
     </g>
    </g>
    <g id="ytick_5">
     <g id="line2d_21">
      <path clip-path="url(#p816b3189ed)" d="M 45.716875 31.619504 
L 492.116875 31.619504 
" style="fill:none;stroke:#ffffff;stroke-linecap:square;stroke-width:0.8;"/>
     </g>
     <g id="line2d_22">
      <g>
       <use style="fill:#555555;stroke:#555555;stroke-width:0.8;" x="45.716875" xlink:href="#mfb9575a291" y="31.619504"/>
      </g>
     </g>
     <g id="text_12">
      <!-- 0.8 -->
      <g style="fill:#555555;" transform="translate(22.81375 35.418723)scale(0.1 -0.1)">
       <use xlink:href="#DejaVuSans-30"/>
       <use x="63.623047" xlink:href="#DejaVuSans-2e"/>
       <use x="95.410156" xlink:href="#DejaVuSans-38"/>
      </g>
     </g>
    </g>
    <g id="text_13">
     <!-- Accuracy -->
     <g style="fill:#555555;" transform="translate(16.318125 143.31375)rotate(-90)scale(0.12 -0.12)">
      <defs>
       <path d="M 2188 4044 
L 1331 1722 
L 3047 1722 
L 2188 4044 
z
M 1831 4666 
L 2547 4666 
L 4325 0 
L 3669 0 
L 3244 1197 
L 1141 1197 
L 716 0 
L 50 0 
L 1831 4666 
z
" id="DejaVuSans-41" transform="scale(0.015625)"/>
       <path d="M 2194 1759 
Q 1497 1759 1228 1600 
Q 959 1441 959 1056 
Q 959 750 1161 570 
Q 1363 391 1709 391 
Q 2188 391 2477 730 
Q 2766 1069 2766 1631 
L 2766 1759 
L 2194 1759 
z
M 3341 1997 
L 3341 0 
L 2766 0 
L 2766 531 
Q 2569 213 2275 61 
Q 1981 -91 1556 -91 
Q 1019 -91 701 211 
Q 384 513 384 1019 
Q 384 1609 779 1909 
Q 1175 2209 1959 2209 
L 2766 2209 
L 2766 2266 
Q 2766 2663 2505 2880 
Q 2244 3097 1772 3097 
Q 1472 3097 1187 3025 
Q 903 2953 641 2809 
L 641 3341 
Q 956 3463 1253 3523 
Q 1550 3584 1831 3584 
Q 2591 3584 2966 3190 
Q 3341 2797 3341 1997 
z
" id="DejaVuSans-61" transform="scale(0.015625)"/>
       <path d="M 2059 -325 
Q 1816 -950 1584 -1140 
Q 1353 -1331 966 -1331 
L 506 -1331 
L 506 -850 
L 844 -850 
Q 1081 -850 1212 -737 
Q 1344 -625 1503 -206 
L 1606 56 
L 191 3500 
L 800 3500 
L 1894 763 
L 2988 3500 
L 3597 3500 
L 2059 -325 
z
" id="DejaVuSans-79" transform="scale(0.015625)"/>
      </defs>
      <use xlink:href="#DejaVuSans-41"/>
      <use x="66.658203" xlink:href="#DejaVuSans-63"/>
      <use x="121.638672" xlink:href="#DejaVuSans-63"/>
      <use x="176.619141" xlink:href="#DejaVuSans-75"/>
      <use x="239.998047" xlink:href="#DejaVuSans-72"/>
      <use x="281.111328" xlink:href="#DejaVuSans-61"/>
      <use x="342.390625" xlink:href="#DejaVuSans-63"/>
      <use x="397.371094" xlink:href="#DejaVuSans-79"/>
     </g>
    </g>
   </g>
   <g id="line2d_23">
    <path clip-path="url(#p816b3189ed)" d="M 66.007784 214.258909 
L 70.106958 214.258909 
L 74.206131 214.331658 
L 78.305305 214.261255 
L 82.404478 214.261255 
L 86.503652 214.261255 
L 90.602825 214.261255 
L 94.701999 214.261255 
L 98.801173 214.261255 
L 102.900346 214.258909 
L 106.99952 214.261255 
L 111.098693 214.256562 
L 115.197867 214.256562 
L 119.29704 214.256562 
L 123.396214 214.258909 
L 127.495387 214.261255 
L 131.594561 214.258909 
L 135.693735 214.256562 
L 139.792908 214.256562 
L 143.892082 214.258909 
L 147.991255 214.256562 
L 152.090429 214.256562 
L 156.189602 214.258909 
L 160.288776 214.258909 
L 164.387949 214.258909 
L 168.487123 214.258909 
L 172.586296 214.261255 
L 176.68547 214.261255 
L 180.784644 214.261255 
L 184.883817 214.261255 
L 188.982991 214.261255 
L 193.082164 214.261255 
L 197.181338 214.256562 
L 201.280511 214.256562 
L 205.379685 214.256562 
L 209.478858 214.261255 
L 213.578032 214.261255 
L 217.677206 214.256562 
L 221.776379 214.261255 
L 225.875553 214.317578 
L 229.974726 214.258909 
L 234.0739 214.261255 
L 238.173073 214.258909 
L 242.272247 214.258909 
L 246.37142 214.261255 
L 250.470594 214.343392 
L 254.569768 214.261255 
L 258.668941 214.256562 
L 262.768115 214.258909 
L 266.867288 214.256562 
L 270.966462 214.258909 
L 275.065635 214.261255 
L 279.164809 214.256562 
L 283.263982 214.261255 
L 287.363156 214.261255 
L 291.46233 214.261255 
L 295.561503 214.258909 
L 299.660677 214.258909 
L 303.75985 214.329312 
L 307.859024 214.256562 
L 311.958197 214.256562 
L 316.057371 214.256562 
L 320.156544 214.258909 
L 324.255718 214.261255 
L 328.354892 214.261255 
L 332.454065 214.261255 
L 336.553239 214.256562 
L 340.652412 214.258909 
L 344.751586 214.261255 
L 348.850759 214.261255 
L 352.949933 214.256562 
L 357.049106 214.345739 
L 361.14828 214.256562 
L 365.247454 214.305844 
L 369.346627 214.261255 
L 373.445801 214.305844 
L 377.544974 214.258909 
L 381.644148 214.334005 
L 385.743321 214.256562 
L 389.842495 214.329312 
L 393.941668 214.258909 
L 398.040842 214.256562 
L 402.140015 214.258909 
L 406.239189 214.261255 
L 410.338363 214.256562 
L 414.437536 214.258909 
L 418.53671 214.258909 
L 422.635883 214.317578 
L 426.735057 214.322271 
L 430.83423 214.305844 
L 434.933404 214.258909 
L 439.032577 214.261255 
L 443.131751 214.261255 
L 447.230925 214.261255 
L 451.330098 214.261255 
L 455.429272 214.258909 
L 459.528445 214.256562 
L 463.627619 214.261255 
L 467.726792 214.258909 
L 471.825966 214.256562 
" style="fill:none;stroke:#ff0000;stroke-linecap:square;stroke-width:1.5;"/>
   </g>
   <g id="line2d_24">
    <path clip-path="url(#p816b3189ed)" d="M 66.007784 72.8029 
L 70.106958 68.806357 
L 74.206131 64.960008 
L 78.305305 64.441373 
L 82.404478 64.117519 
L 86.503652 62.181437 
L 90.602825 61.989002 
L 94.701999 61.456286 
L 98.801173 61.331908 
L 102.900346 59.771308 
L 106.99952 59.473269 
L 111.098693 59.40756 
L 115.197867 59.266754 
L 119.29704 59.130641 
L 123.396214 58.670675 
L 127.495387 58.137959 
L 131.594561 58.501708 
L 135.693735 57.551268 
L 139.792908 57.337712 
L 143.892082 57.548921 
L 147.991255 57.452704 
L 152.090429 58.236523 
L 156.189602 57.166398 
L 160.288776 57.157011 
L 164.387949 56.98335 
L 168.487123 56.861319 
L 172.586296 56.652456 
L 176.68547 56.614908 
L 180.784644 57.131197 
L 184.883817 56.605521 
L 188.982991 56.049338 
L 193.082164 56.57736 
L 197.181338 56.90356 
L 201.280511 56.828464 
L 205.379685 56.617255 
L 209.478858 56.880093 
L 213.578032 56.610215 
L 217.677206 56.978657 
L 221.776379 57.04202 
L 225.875553 57.103036 
L 229.974726 57.095995 
L 234.0739 56.10566 
L 238.173073 57.112423 
L 242.272247 55.86629 
L 246.37142 56.434207 
L 250.470594 57.255575 
L 254.569768 56.037604 
L 258.668941 56.80969 
L 262.768115 56.403699 
L 266.867288 55.507235 
L 270.966462 55.79354 
L 275.065635 55.868637 
L 279.164809 55.934346 
L 283.263982 55.913225 
L 287.363156 56.138515 
L 291.46233 56.122087 
L 295.561503 55.629267 
L 299.660677 55.7865 
L 303.75985 55.777113 
L 307.859024 55.591718 
L 311.958197 56.300442 
L 316.057371 55.542436 
L 320.156544 55.589372 
L 324.255718 55.176341 
L 328.354892 55.380509 
L 332.454065 55.641 
L 336.553239 54.92289 
L 340.652412 56.354417 
L 344.751586 55.767726 
L 348.850759 55.570597 
L 352.949933 55.054309 
L 357.049106 55.028494 
L 361.14828 54.725762 
L 365.247454 55.439179 
L 369.346627 55.284292 
L 373.445801 55.105938 
L 377.544974 55.450912 
L 381.644148 54.925237 
L 385.743321 54.338545 
L 389.842495 54.484045 
L 393.941668 55.556517 
L 398.040842 54.181312 
L 402.140015 54.77035 
L 406.239189 55.110631 
L 410.338363 54.958091 
L 414.437536 55.028494 
L 418.53671 54.331505 
L 422.635883 54.101522 
L 426.735057 54.293957 
L 430.83423 53.927861 
L 434.933404 54.350279 
L 439.032577 54.545061 
L 443.131751 54.415989 
L 447.230925 54.711681 
L 451.330098 53.855112 
L 455.429272 53.566459 
L 459.528445 54.078054 
L 463.627619 54.568528 
L 467.726792 54.134377 
L 471.825966 54.169578 
" style="fill:none;stroke:#0000ff;stroke-linecap:square;stroke-width:1.5;"/>
   </g>
   <g id="line2d_25">
    <path clip-path="url(#p816b3189ed)" d="M 66.007784 50.316189 
L 70.106958 39.342711 
L 74.206131 34.254923 
L 78.305305 30.629169 
L 82.404478 28.730636 
L 86.503652 28.094662 
L 90.602825 25.571889 
L 94.701999 25.555461 
L 98.801173 24.389119 
L 102.900346 23.962007 
L 106.99952 23.16176 
L 111.098693 23.511428 
L 115.197867 23.30726 
L 119.29704 22.783931 
L 123.396214 21.98603 
L 127.495387 22.040006 
L 131.594561 21.497903 
L 135.693735 21.551879 
L 139.792908 21.359444 
L 143.892082 20.784486 
L 147.991255 20.394923 
L 152.090429 20.854889 
L 156.189602 20.387883 
L 160.288776 20.176674 
L 164.387949 20.080456 
L 168.487123 19.608756 
L 172.586296 19.585289 
L 176.68547 19.669772 
L 180.784644 19.592329 
L 184.883817 19.404588 
L 188.982991 19.486725 
L 193.082164 20.55685 
L 197.181338 19.557128 
L 201.280511 19.14879 
L 205.379685 19.165218 
L 209.478858 18.942275 
L 213.578032 19.200419 
L 217.677206 19.193379 
L 221.776379 18.946969 
L 225.875553 18.82963 
L 229.974726 18.970436 
L 234.0739 18.620768 
L 238.173073 19.30837 
L 242.272247 18.972783 
L 246.37142 18.468228 
L 250.470594 18.386091 
L 254.569768 18.620768 
L 258.668941 19.404588 
L 262.768115 18.836671 
L 266.867288 18.860138 
L 270.966462 18.538631 
L 275.065635 17.80644 
L 279.164809 18.181923 
L 283.263982 18.803816 
L 287.363156 18.11856 
L 291.46233 18.799122 
L 295.561503 18.062238 
L 299.660677 18.524551 
L 303.75985 18.449454 
L 307.859024 18.066931 
L 311.958197 17.703183 
L 316.057371 18.428333 
L 320.156544 17.703183 
L 324.255718 17.754811 
L 328.354892 18.433027 
L 332.454065 18.022343 
L 336.553239 18.26406 
L 340.652412 18.468228 
L 344.751586 18.416599 
L 348.850759 17.905004 
L 352.949933 17.72665 
L 357.049106 18.165495 
L 361.14828 18.252326 
L 365.247454 17.989488 
L 369.346627 18.03877 
L 373.445801 17.912045 
L 377.544974 17.841642 
L 381.644148 17.991835 
L 385.743321 17.738384 
L 389.842495 17.541256 
L 393.941668 17.665634 
L 398.040842 17.829908 
L 402.140015 18.329769 
L 406.239189 18.620768 
L 410.338363 18.048157 
L 414.437536 18.057544 
L 418.53671 17.236176 
L 422.635883 17.656247 
L 426.735057 17.811134 
L 430.83423 18.761574 
L 434.933404 17.506054 
L 439.032577 17.083636 
L 443.131751 17.538909 
L 447.230925 17.961327 
L 451.330098 17.449732 
L 455.429272 17.513095 
L 459.528445 18.043464 
L 463.627619 17.461466 
L 467.726792 18.153762 
L 471.825966 17.623393 
" style="fill:none;stroke:#800080;stroke-linecap:square;stroke-width:1.5;"/>
   </g>
   <g id="line2d_26">
    <path clip-path="url(#p816b3189ed)" d="M 66.007784 214.63754 
L 70.106958 214.63754 
L 74.206131 214.414746 
L 78.305305 214.756364 
L 82.404478 214.756364 
L 86.503652 214.756364 
L 90.602825 214.756364 
L 94.701999 214.756364 
L 98.801173 214.756364 
L 102.900346 214.63754 
L 106.99952 214.756364 
L 111.098693 214.711805 
L 115.197867 214.711805 
L 119.29704 214.711805 
L 123.396214 214.63754 
L 127.495387 214.756364 
L 131.594561 214.63754 
L 135.693735 214.711805 
L 139.792908 214.711805 
L 143.892082 214.63754 
L 147.991255 214.711805 
L 152.090429 214.711805 
L 156.189602 214.63754 
L 160.288776 214.63754 
L 164.387949 214.63754 
L 168.487123 214.63754 
L 172.586296 214.756364 
L 176.68547 214.756364 
L 180.784644 214.756364 
L 184.883817 214.756364 
L 188.982991 214.756364 
L 193.082164 214.756364 
L 197.181338 214.711805 
L 201.280511 214.711805 
L 205.379685 214.711805 
L 209.478858 214.756364 
L 213.578032 214.756364 
L 217.677206 214.711805 
L 221.776379 214.756364 
L 225.875553 214.63754 
L 229.974726 214.63754 
L 234.0739 214.756364 
L 238.173073 214.63754 
L 242.272247 214.63754 
L 246.37142 214.756364 
L 250.470594 214.592981 
L 254.569768 214.756364 
L 258.668941 214.711805 
L 262.768115 214.63754 
L 266.867288 214.711805 
L 270.966462 214.63754 
L 275.065635 214.756364 
L 279.164809 214.711805 
L 283.263982 214.756364 
L 287.363156 214.756364 
L 291.46233 214.756364 
L 295.561503 214.63754 
L 299.660677 214.63754 
L 303.75985 214.221657 
L 307.859024 214.711805 
L 311.958197 214.711805 
L 316.057371 214.711805 
L 320.156544 214.63754 
L 324.255718 214.756364 
L 328.354892 214.756364 
L 332.454065 214.756364 
L 336.553239 214.711805 
L 340.652412 214.63754 
L 344.751586 214.756364 
L 348.850759 214.756364 
L 352.949933 214.711805 
L 357.049106 214.63754 
L 361.14828 214.711805 
L 365.247454 214.563275 
L 369.346627 214.756364 
L 373.445801 214.563275 
L 377.544974 214.63754 
L 381.644148 214.459305 
L 385.743321 214.711805 
L 389.842495 214.13254 
L 393.941668 214.63754 
L 398.040842 214.711805 
L 402.140015 214.63754 
L 406.239189 214.756364 
L 410.338363 214.711805 
L 414.437536 214.63754 
L 418.53671 214.63754 
L 422.635883 214.63754 
L 426.735057 214.503864 
L 430.83423 214.563275 
L 434.933404 214.63754 
L 439.032577 214.756364 
L 443.131751 214.756364 
L 447.230925 214.756364 
L 451.330098 214.756364 
L 455.429272 214.63754 
L 459.528445 214.711805 
L 463.627619 214.756364 
L 467.726792 214.63754 
L 471.825966 214.711805 
" style="fill:none;stroke:#808080;stroke-dasharray:5.55,2.4;stroke-dashoffset:0;stroke-width:1.5;"/>
   </g>
   <g id="line2d_27">
    <path clip-path="url(#p816b3189ed)" d="M 66.007784 73.088938 
L 70.106958 69.92526 
L 74.206131 65.216875 
L 78.305305 64.63761 
L 82.404478 64.815845 
L 86.503652 62.602756 
L 90.602825 62.662168 
L 94.701999 61.934373 
L 98.801173 62.974079 
L 102.900346 59.929225 
L 106.99952 59.468784 
L 111.098693 60.270843 
L 115.197867 59.765843 
L 119.29704 58.44393 
L 123.396214 59.439078 
L 127.495387 58.607312 
L 131.594561 59.112313 
L 135.693735 58.577607 
L 139.792908 57.448782 
L 143.892082 58.102312 
L 147.991255 57.493341 
L 152.090429 58.84496 
L 156.189602 57.7904 
L 160.288776 57.5379 
L 164.387949 57.612165 
L 168.487123 57.894371 
L 172.586296 57.448782 
L 176.68547 56.928929 
L 180.784644 57.968636 
L 184.883817 57.730989 
L 188.982991 57.136871 
L 193.082164 56.750694 
L 197.181338 56.958635 
L 201.280511 56.928929 
L 205.379685 56.438782 
L 209.478858 57.122018 
L 213.578032 56.557606 
L 217.677206 56.928929 
L 221.776379 57.849812 
L 225.875553 57.270547 
L 229.974726 57.612165 
L 234.0739 56.795253 
L 238.173073 57.552753 
L 242.272247 56.319958 
L 246.37142 56.795253 
L 250.470594 58.19143 
L 254.569768 56.914076 
L 258.668941 57.656724 
L 262.768115 56.082311 
L 266.867288 55.47334 
L 270.966462 56.646723 
L 275.065635 56.483341 
L 279.164809 56.290252 
L 283.263982 55.904076 
L 287.363156 56.661576 
L 291.46233 57.493341 
L 295.561503 56.498194 
L 299.660677 56.364517 
L 303.75985 57.240841 
L 307.859024 56.453635 
L 311.958197 57.0329 
L 316.057371 56.12687 
L 320.156544 55.889223 
L 324.255718 56.171429 
L 328.354892 55.562458 
L 332.454065 56.12687 
L 336.553239 56.587311 
L 340.652412 57.225988 
L 344.751586 56.765547 
L 348.850759 55.933782 
L 352.949933 55.384223 
L 357.049106 56.097164 
L 361.14828 55.280252 
L 365.247454 55.562458 
L 369.346627 56.171429 
L 373.445801 55.72584 
L 377.544974 56.215988 
L 381.644148 55.176281 
L 385.743321 54.983193 
L 389.842495 55.146575 
L 393.941668 56.334811 
L 398.040842 55.131722 
L 402.140015 55.62187 
L 406.239189 55.428781 
L 410.338363 56.141723 
L 414.437536 55.547605 
L 418.53671 55.146575 
L 422.635883 54.656428 
L 426.735057 54.745546 
L 430.83423 54.181134 
L 434.933404 54.849516 
L 439.032577 55.696135 
L 443.131751 55.072311 
L 447.230925 55.636723 
L 451.330098 54.240546 
L 455.429272 54.329663 
L 459.528445 55.087164 
L 463.627619 54.894075 
L 467.726792 55.176281 
L 471.825966 55.057458 
" style="fill:none;stroke:#ffff00;stroke-dasharray:5.55,2.4;stroke-dashoffset:0;stroke-width:1.5;"/>
   </g>
   <g id="line2d_28">
    <path clip-path="url(#p816b3189ed)" d="M 66.007784 51.819515 
L 70.106958 40.887745 
L 74.206131 36.119948 
L 78.305305 33.119652 
L 82.404478 31.173916 
L 86.503652 30.193621 
L 90.602825 28.307297 
L 94.701999 27.713179 
L 98.801173 27.074502 
L 102.900346 27.193326 
L 106.99952 26.302149 
L 111.098693 26.628914 
L 115.197867 25.514942 
L 119.29704 25.960531 
L 123.396214 25.113913 
L 127.495387 25.425825 
L 131.594561 24.668324 
L 135.693735 25.054501 
L 139.792908 25.232736 
L 143.892082 24.207883 
L 147.991255 24.623766 
L 152.090429 24.430677 
L 156.189602 23.821706 
L 160.288776 23.494941 
L 164.387949 23.331559 
L 168.487123 23.465236 
L 172.586296 23.494941 
L 176.68547 23.806853 
L 180.784644 23.43553 
L 184.883817 23.138471 
L 188.982991 22.945382 
L 193.082164 24.712883 
L 197.181338 23.390971 
L 201.280511 23.613765 
L 205.379685 22.885971 
L 209.478858 22.811706 
L 213.578032 23.361265 
L 217.677206 22.782 
L 221.776379 23.18303 
L 225.875553 23.168177 
L 229.974726 23.287 
L 234.0739 23.212735 
L 238.173073 23.777147 
L 242.272247 22.885971 
L 246.37142 23.212735 
L 250.470594 22.678029 
L 254.569768 23.43553 
L 258.668941 23.598912 
L 262.768115 22.945382 
L 266.867288 22.826559 
L 270.966462 23.316706 
L 275.065635 22.544353 
L 279.164809 22.782 
L 283.263982 23.138471 
L 287.363156 22.885971 
L 291.46233 23.450383 
L 295.561503 22.336411 
L 299.660677 22.574059 
L 303.75985 21.816558 
L 307.859024 21.87597 
L 311.958197 22.262147 
L 316.057371 23.0345 
L 320.156544 22.514647 
L 324.255718 21.979941 
L 328.354892 22.5295 
L 332.454065 21.950235 
L 336.553239 22.158176 
L 340.652412 22.5295 
L 344.751586 22.083911 
L 348.850759 22.217588 
L 352.949933 21.757146 
L 357.049106 22.663176 
L 361.14828 22.5295 
L 365.247454 22.098764 
L 369.346627 22.559206 
L 373.445801 22.559206 
L 377.544974 22.113617 
L 381.644148 22.321558 
L 385.743321 21.935382 
L 389.842495 22.083911 
L 393.941668 22.187882 
L 398.040842 21.950235 
L 402.140015 23.079059 
L 406.239189 23.405824 
L 410.338363 21.87597 
L 414.437536 22.871118 
L 418.53671 21.22244 
L 422.635883 21.593764 
L 426.735057 22.173029 
L 430.83423 23.064206 
L 434.933404 22.351264 
L 439.032577 21.341264 
L 443.131751 22.217588 
L 447.230925 22.217588 
L 451.330098 21.266999 
L 455.429272 22.247294 
L 459.528445 21.638323 
L 463.627619 21.385823 
L 467.726792 22.960235 
L 471.825966 21.712588 
" style="fill:none;stroke:#008000;stroke-dasharray:5.55,2.4;stroke-dashoffset:0;stroke-width:1.5;"/>
   </g>
   <g id="patch_3">
    <path d="M 45.716875 224.64 
L 45.716875 7.2 
" style="fill:none;stroke:#ffffff;stroke-linecap:square;stroke-linejoin:miter;"/>
   </g>
   <g id="patch_4">
    <path d="M 492.116875 224.64 
L 492.116875 7.2 
" style="fill:none;stroke:#ffffff;stroke-linecap:square;stroke-linejoin:miter;"/>
   </g>
   <g id="patch_5">
    <path d="M 45.716875 224.64 
L 492.116875 224.64 
" style="fill:none;stroke:#ffffff;stroke-linecap:square;stroke-linejoin:miter;"/>
   </g>
   <g id="patch_6">
    <path d="M 45.716875 7.2 
L 492.116875 7.2 
" style="fill:none;stroke:#ffffff;stroke-linecap:square;stroke-linejoin:miter;"/>
   </g>
   <g id="legend_1">
    <g id="patch_7">
     <path d="M 499.116875 103.26875 
L 600.47 103.26875 
Q 602.47 103.26875 602.47 101.26875 
L 602.47 14.2 
Q 602.47 12.2 600.47 12.2 
L 499.116875 12.2 
Q 497.116875 12.2 497.116875 14.2 
L 497.116875 101.26875 
Q 497.116875 103.26875 499.116875 103.26875 
z
" style="fill:#e5e5e5;opacity:0.8;stroke:#cccccc;stroke-linejoin:miter;stroke-width:0.5;"/>
    </g>
    <g id="line2d_29">
     <path d="M 501.116875 20.298437 
L 521.116875 20.298437 
" style="fill:none;stroke:#ff0000;stroke-linecap:square;stroke-width:1.5;"/>
    </g>
    <g id="line2d_30"/>
    <g id="text_14">
     <!-- L1 1e-1(train) -->
     <g transform="translate(529.116875 23.798437)scale(0.1 -0.1)">
      <defs>
       <path d="M 628 4666 
L 1259 4666 
L 1259 531 
L 3531 531 
L 3531 0 
L 628 0 
L 628 4666 
z
" id="DejaVuSans-4c" transform="scale(0.015625)"/>
       <path d="M 313 2009 
L 1997 2009 
L 1997 1497 
L 313 1497 
L 313 2009 
z
" id="DejaVuSans-2d" transform="scale(0.015625)"/>
       <path d="M 1984 4856 
Q 1566 4138 1362 3434 
Q 1159 2731 1159 2009 
Q 1159 1288 1364 580 
Q 1569 -128 1984 -844 
L 1484 -844 
Q 1016 -109 783 600 
Q 550 1309 550 2009 
Q 550 2706 781 3412 
Q 1013 4119 1484 4856 
L 1984 4856 
z
" id="DejaVuSans-28" transform="scale(0.015625)"/>
       <path d="M 1172 4494 
L 1172 3500 
L 2356 3500 
L 2356 3053 
L 1172 3053 
L 1172 1153 
Q 1172 725 1289 603 
Q 1406 481 1766 481 
L 2356 481 
L 2356 0 
L 1766 0 
Q 1100 0 847 248 
Q 594 497 594 1153 
L 594 3053 
L 172 3053 
L 172 3500 
L 594 3500 
L 594 4494 
L 1172 4494 
z
" id="DejaVuSans-74" transform="scale(0.015625)"/>
       <path d="M 603 3500 
L 1178 3500 
L 1178 0 
L 603 0 
L 603 3500 
z
M 603 4863 
L 1178 4863 
L 1178 4134 
L 603 4134 
L 603 4863 
z
" id="DejaVuSans-69" transform="scale(0.015625)"/>
       <path d="M 513 4856 
L 1013 4856 
Q 1481 4119 1714 3412 
Q 1947 2706 1947 2009 
Q 1947 1309 1714 600 
Q 1481 -109 1013 -844 
L 513 -844 
Q 928 -128 1133 580 
Q 1338 1288 1338 2009 
Q 1338 2731 1133 3434 
Q 928 4138 513 4856 
z
" id="DejaVuSans-29" transform="scale(0.015625)"/>
      </defs>
      <use xlink:href="#DejaVuSans-4c"/>
      <use x="55.712891" xlink:href="#DejaVuSans-31"/>
      <use x="119.335938" xlink:href="#DejaVuSans-20"/>
      <use x="151.123047" xlink:href="#DejaVuSans-31"/>
      <use x="214.746094" xlink:href="#DejaVuSans-65"/>
      <use x="276.269531" xlink:href="#DejaVuSans-2d"/>
      <use x="312.353516" xlink:href="#DejaVuSans-31"/>
      <use x="375.976562" xlink:href="#DejaVuSans-28"/>
      <use x="414.990234" xlink:href="#DejaVuSans-74"/>
      <use x="454.199219" xlink:href="#DejaVuSans-72"/>
      <use x="495.3125" xlink:href="#DejaVuSans-61"/>
      <use x="556.591797" xlink:href="#DejaVuSans-69"/>
      <use x="584.375" xlink:href="#DejaVuSans-6e"/>
      <use x="647.753906" xlink:href="#DejaVuSans-29"/>
     </g>
    </g>
    <g id="line2d_31">
     <path d="M 501.116875 34.976562 
L 521.116875 34.976562 
" style="fill:none;stroke:#0000ff;stroke-linecap:square;stroke-width:1.5;"/>
    </g>
    <g id="line2d_32"/>
    <g id="text_15">
     <!-- L1 1e-3(train) -->
     <g transform="translate(529.116875 38.476562)scale(0.1 -0.1)">
      <defs>
       <path d="M 2597 2516 
Q 3050 2419 3304 2112 
Q 3559 1806 3559 1356 
Q 3559 666 3084 287 
Q 2609 -91 1734 -91 
Q 1441 -91 1130 -33 
Q 819 25 488 141 
L 488 750 
Q 750 597 1062 519 
Q 1375 441 1716 441 
Q 2309 441 2620 675 
Q 2931 909 2931 1356 
Q 2931 1769 2642 2001 
Q 2353 2234 1838 2234 
L 1294 2234 
L 1294 2753 
L 1863 2753 
Q 2328 2753 2575 2939 
Q 2822 3125 2822 3475 
Q 2822 3834 2567 4026 
Q 2313 4219 1838 4219 
Q 1578 4219 1281 4162 
Q 984 4106 628 3988 
L 628 4550 
Q 988 4650 1302 4700 
Q 1616 4750 1894 4750 
Q 2613 4750 3031 4423 
Q 3450 4097 3450 3541 
Q 3450 3153 3228 2886 
Q 3006 2619 2597 2516 
z
" id="DejaVuSans-33" transform="scale(0.015625)"/>
      </defs>
      <use xlink:href="#DejaVuSans-4c"/>
      <use x="55.712891" xlink:href="#DejaVuSans-31"/>
      <use x="119.335938" xlink:href="#DejaVuSans-20"/>
      <use x="151.123047" xlink:href="#DejaVuSans-31"/>
      <use x="214.746094" xlink:href="#DejaVuSans-65"/>
      <use x="276.269531" xlink:href="#DejaVuSans-2d"/>
      <use x="312.353516" xlink:href="#DejaVuSans-33"/>
      <use x="375.976562" xlink:href="#DejaVuSans-28"/>
      <use x="414.990234" xlink:href="#DejaVuSans-74"/>
      <use x="454.199219" xlink:href="#DejaVuSans-72"/>
      <use x="495.3125" xlink:href="#DejaVuSans-61"/>
      <use x="556.591797" xlink:href="#DejaVuSans-69"/>
      <use x="584.375" xlink:href="#DejaVuSans-6e"/>
      <use x="647.753906" xlink:href="#DejaVuSans-29"/>
     </g>
    </g>
    <g id="line2d_33">
     <path d="M 501.116875 49.654687 
L 521.116875 49.654687 
" style="fill:none;stroke:#800080;stroke-linecap:square;stroke-width:1.5;"/>
    </g>
    <g id="line2d_34"/>
    <g id="text_16">
     <!-- L1 1e-4(train) -->
     <g transform="translate(529.116875 53.154687)scale(0.1 -0.1)">
      <use xlink:href="#DejaVuSans-4c"/>
      <use x="55.712891" xlink:href="#DejaVuSans-31"/>
      <use x="119.335938" xlink:href="#DejaVuSans-20"/>
      <use x="151.123047" xlink:href="#DejaVuSans-31"/>
      <use x="214.746094" xlink:href="#DejaVuSans-65"/>
      <use x="276.269531" xlink:href="#DejaVuSans-2d"/>
      <use x="312.353516" xlink:href="#DejaVuSans-34"/>
      <use x="375.976562" xlink:href="#DejaVuSans-28"/>
      <use x="414.990234" xlink:href="#DejaVuSans-74"/>
      <use x="454.199219" xlink:href="#DejaVuSans-72"/>
      <use x="495.3125" xlink:href="#DejaVuSans-61"/>
      <use x="556.591797" xlink:href="#DejaVuSans-69"/>
      <use x="584.375" xlink:href="#DejaVuSans-6e"/>
      <use x="647.753906" xlink:href="#DejaVuSans-29"/>
     </g>
    </g>
    <g id="line2d_35">
     <path d="M 501.116875 64.332812 
L 521.116875 64.332812 
" style="fill:none;stroke:#808080;stroke-dasharray:5.55,2.4;stroke-dashoffset:0;stroke-width:1.5;"/>
    </g>
    <g id="line2d_36"/>
    <g id="text_17">
     <!-- L1 1e-1(valid) -->
     <g transform="translate(529.116875 67.832812)scale(0.1 -0.1)">
      <defs>
       <path d="M 191 3500 
L 800 3500 
L 1894 563 
L 2988 3500 
L 3597 3500 
L 2284 0 
L 1503 0 
L 191 3500 
z
" id="DejaVuSans-76" transform="scale(0.015625)"/>
       <path d="M 603 4863 
L 1178 4863 
L 1178 0 
L 603 0 
L 603 4863 
z
" id="DejaVuSans-6c" transform="scale(0.015625)"/>
       <path d="M 2906 2969 
L 2906 4863 
L 3481 4863 
L 3481 0 
L 2906 0 
L 2906 525 
Q 2725 213 2448 61 
Q 2172 -91 1784 -91 
Q 1150 -91 751 415 
Q 353 922 353 1747 
Q 353 2572 751 3078 
Q 1150 3584 1784 3584 
Q 2172 3584 2448 3432 
Q 2725 3281 2906 2969 
z
M 947 1747 
Q 947 1113 1208 752 
Q 1469 391 1925 391 
Q 2381 391 2643 752 
Q 2906 1113 2906 1747 
Q 2906 2381 2643 2742 
Q 2381 3103 1925 3103 
Q 1469 3103 1208 2742 
Q 947 2381 947 1747 
z
" id="DejaVuSans-64" transform="scale(0.015625)"/>
      </defs>
      <use xlink:href="#DejaVuSans-4c"/>
      <use x="55.712891" xlink:href="#DejaVuSans-31"/>
      <use x="119.335938" xlink:href="#DejaVuSans-20"/>
      <use x="151.123047" xlink:href="#DejaVuSans-31"/>
      <use x="214.746094" xlink:href="#DejaVuSans-65"/>
      <use x="276.269531" xlink:href="#DejaVuSans-2d"/>
      <use x="312.353516" xlink:href="#DejaVuSans-31"/>
      <use x="375.976562" xlink:href="#DejaVuSans-28"/>
      <use x="414.990234" xlink:href="#DejaVuSans-76"/>
      <use x="474.169922" xlink:href="#DejaVuSans-61"/>
      <use x="535.449219" xlink:href="#DejaVuSans-6c"/>
      <use x="563.232422" xlink:href="#DejaVuSans-69"/>
      <use x="591.015625" xlink:href="#DejaVuSans-64"/>
      <use x="654.492188" xlink:href="#DejaVuSans-29"/>
     </g>
    </g>
    <g id="line2d_37">
     <path d="M 501.116875 79.010937 
L 521.116875 79.010937 
" style="fill:none;stroke:#ffff00;stroke-dasharray:5.55,2.4;stroke-dashoffset:0;stroke-width:1.5;"/>
    </g>
    <g id="line2d_38"/>
    <g id="text_18">
     <!-- L1 1e-3(valid) -->
     <g transform="translate(529.116875 82.510937)scale(0.1 -0.1)">
      <use xlink:href="#DejaVuSans-4c"/>
      <use x="55.712891" xlink:href="#DejaVuSans-31"/>
      <use x="119.335938" xlink:href="#DejaVuSans-20"/>
      <use x="151.123047" xlink:href="#DejaVuSans-31"/>
      <use x="214.746094" xlink:href="#DejaVuSans-65"/>
      <use x="276.269531" xlink:href="#DejaVuSans-2d"/>
      <use x="312.353516" xlink:href="#DejaVuSans-33"/>
      <use x="375.976562" xlink:href="#DejaVuSans-28"/>
      <use x="414.990234" xlink:href="#DejaVuSans-76"/>
      <use x="474.169922" xlink:href="#DejaVuSans-61"/>
      <use x="535.449219" xlink:href="#DejaVuSans-6c"/>
      <use x="563.232422" xlink:href="#DejaVuSans-69"/>
      <use x="591.015625" xlink:href="#DejaVuSans-64"/>
      <use x="654.492188" xlink:href="#DejaVuSans-29"/>
     </g>
    </g>
    <g id="line2d_39">
     <path d="M 501.116875 93.689062 
L 521.116875 93.689062 
" style="fill:none;stroke:#008000;stroke-dasharray:5.55,2.4;stroke-dashoffset:0;stroke-width:1.5;"/>
    </g>
    <g id="line2d_40"/>
    <g id="text_19">
     <!-- L1 1e-4(valid) -->
     <g transform="translate(529.116875 97.189062)scale(0.1 -0.1)">
      <use xlink:href="#DejaVuSans-4c"/>
      <use x="55.712891" xlink:href="#DejaVuSans-31"/>
      <use x="119.335938" xlink:href="#DejaVuSans-20"/>
      <use x="151.123047" xlink:href="#DejaVuSans-31"/>
      <use x="214.746094" xlink:href="#DejaVuSans-65"/>
      <use x="276.269531" xlink:href="#DejaVuSans-2d"/>
      <use x="312.353516" xlink:href="#DejaVuSans-34"/>
      <use x="375.976562" xlink:href="#DejaVuSans-28"/>
      <use x="414.990234" xlink:href="#DejaVuSans-76"/>
      <use x="474.169922" xlink:href="#DejaVuSans-61"/>
      <use x="535.449219" xlink:href="#DejaVuSans-6c"/>
      <use x="563.232422" xlink:href="#DejaVuSans-69"/>
      <use x="591.015625" xlink:href="#DejaVuSans-64"/>
      <use x="654.492188" xlink:href="#DejaVuSans-29"/>
     </g>
    </g>
   </g>
  </g>
 </g>
 <defs>
  <clipPath id="p816b3189ed">
   <rect height="217.44" width="446.4" x="45.716875" y="7.2"/>
  </clipPath>
 </defs>
</svg>
