<?xml version="1.0" encoding="utf-8" standalone="no"?>
<!DOCTYPE svg PUBLIC "-//W3C//DTD SVG 1.1//EN"
  "http://www.w3.org/Graphics/SVG/1.1/DTD/svg11.dtd">
<svg height="266.660595pt" version="1.1" viewBox="0 0 609.67 266.660595" width="609.67pt" xmlns="http://www.w3.org/2000/svg" xmlns:xlink="http://www.w3.org/1999/xlink">
 <metadata>
  <rdf:RDF xmlns:cc="http://creativecommons.org/ns#" xmlns:dc="http://purl.org/dc/elements/1.1/" xmlns:rdf="http://www.w3.org/1999/02/22-rdf-syntax-ns#">
   <cc:Work>
    <dc:type rdf:resource="http://purl.org/dc/dcmitype/StillImage"/>
    <dc:date>2021-11-04T18:07:13.575832</dc:date>
    <dc:format>image/svg+xml</dc:format>
    <dc:creator>
     <cc:Agent>
      <dc:title>Matplotlib v3.4.2, https://matplotlib.org/</dc:title>
     </cc:Agent>
    </dc:creator>
   </cc:Work>
  </rdf:RDF>
 </metadata>
 <defs>
  <style type="text/css">*{stroke-linecap:butt;stroke-linejoin:round;}</style>
 </defs>
 <g id="figure_1">
  <g id="patch_1">
   <path d="M 0 266.660595 
L 609.67 266.660595 
L 609.67 0 
L 0 0 
z
" style="fill:#ffffff;"/>
  </g>
  <g id="axes_1">
   <g id="patch_2">
    <path d="M 45.716875 227.16872 
L 492.116875 227.16872 
L 492.116875 9.72872 
L 45.716875 9.72872 
z
" style="fill:#e5e5e5;"/>
   </g>
   <g id="matplotlib.axis_1">
    <g id="xtick_1">
     <g id="line2d_1">
      <path clip-path="url(#pf62610f8aa)" d="M 61.908611 227.16872 
L 61.908611 9.72872 
" style="fill:none;stroke:#ffffff;stroke-linecap:square;stroke-width:0.8;"/>
     </g>
     <g id="line2d_2">
      <defs>
       <path d="M 0 0 
L 0 3.5 
" id="m1d42abb46f" style="stroke:#555555;stroke-width:0.8;"/>
      </defs>
      <g>
       <use style="fill:#555555;stroke:#555555;stroke-width:0.8;" x="61.908611" xlink:href="#m1d42abb46f" y="227.16872"/>
      </g>
     </g>
     <g id="text_1">
      <!-- 0 -->
      <g style="fill:#555555;" transform="translate(58.727361 241.767158)scale(0.1 -0.1)">
       <defs>
        <path d="M 2034 4250 
Q 1547 4250 1301 3770 
Q 1056 3291 1056 2328 
Q 1056 1369 1301 889 
Q 1547 409 2034 409 
Q 2525 409 2770 889 
Q 3016 1369 3016 2328 
Q 3016 3291 2770 3770 
Q 2525 4250 2034 4250 
z
M 2034 4750 
Q 2819 4750 3233 4129 
Q 3647 3509 3647 2328 
Q 3647 1150 3233 529 
Q 2819 -91 2034 -91 
Q 1250 -91 836 529 
Q 422 1150 422 2328 
Q 422 3509 836 4129 
Q 1250 4750 2034 4750 
z
" id="DejaVuSans-30" transform="scale(0.015625)"/>
       </defs>
       <use xlink:href="#DejaVuSans-30"/>
      </g>
     </g>
    </g>
    <g id="xtick_2">
     <g id="line2d_3">
      <path clip-path="url(#pf62610f8aa)" d="M 143.892082 227.16872 
L 143.892082 9.72872 
" style="fill:none;stroke:#ffffff;stroke-linecap:square;stroke-width:0.8;"/>
     </g>
     <g id="line2d_4">
      <g>
       <use style="fill:#555555;stroke:#555555;stroke-width:0.8;" x="143.892082" xlink:href="#m1d42abb46f" y="227.16872"/>
      </g>
     </g>
     <g id="text_2">
      <!-- 20 -->
      <g style="fill:#555555;" transform="translate(137.529582 241.767158)scale(0.1 -0.1)">
       <defs>
        <path d="M 1228 531 
L 3431 531 
L 3431 0 
L 469 0 
L 469 531 
Q 828 903 1448 1529 
Q 2069 2156 2228 2338 
Q 2531 2678 2651 2914 
Q 2772 3150 2772 3378 
Q 2772 3750 2511 3984 
Q 2250 4219 1831 4219 
Q 1534 4219 1204 4116 
Q 875 4013 500 3803 
L 500 4441 
Q 881 4594 1212 4672 
Q 1544 4750 1819 4750 
Q 2544 4750 2975 4387 
Q 3406 4025 3406 3419 
Q 3406 3131 3298 2873 
Q 3191 2616 2906 2266 
Q 2828 2175 2409 1742 
Q 1991 1309 1228 531 
z
" id="DejaVuSans-32" transform="scale(0.015625)"/>
       </defs>
       <use xlink:href="#DejaVuSans-32"/>
       <use x="63.623047" xlink:href="#DejaVuSans-30"/>
      </g>
     </g>
    </g>
    <g id="xtick_3">
     <g id="line2d_5">
      <path clip-path="url(#pf62610f8aa)" d="M 225.875553 227.16872 
L 225.875553 9.72872 
" style="fill:none;stroke:#ffffff;stroke-linecap:square;stroke-width:0.8;"/>
     </g>
     <g id="line2d_6">
      <g>
       <use style="fill:#555555;stroke:#555555;stroke-width:0.8;" x="225.875553" xlink:href="#m1d42abb46f" y="227.16872"/>
      </g>
     </g>
     <g id="text_3">
      <!-- 40 -->
      <g style="fill:#555555;" transform="translate(219.513053 241.767158)scale(0.1 -0.1)">
       <defs>
        <path d="M 2419 4116 
L 825 1625 
L 2419 1625 
L 2419 4116 
z
M 2253 4666 
L 3047 4666 
L 3047 1625 
L 3713 1625 
L 3713 1100 
L 3047 1100 
L 3047 0 
L 2419 0 
L 2419 1100 
L 313 1100 
L 313 1709 
L 2253 4666 
z
" id="DejaVuSans-34" transform="scale(0.015625)"/>
       </defs>
       <use xlink:href="#DejaVuSans-34"/>
       <use x="63.623047" xlink:href="#DejaVuSans-30"/>
      </g>
     </g>
    </g>
    <g id="xtick_4">
     <g id="line2d_7">
      <path clip-path="url(#pf62610f8aa)" d="M 307.859024 227.16872 
L 307.859024 9.72872 
" style="fill:none;stroke:#ffffff;stroke-linecap:square;stroke-width:0.8;"/>
     </g>
     <g id="line2d_8">
      <g>
       <use style="fill:#555555;stroke:#555555;stroke-width:0.8;" x="307.859024" xlink:href="#m1d42abb46f" y="227.16872"/>
      </g>
     </g>
     <g id="text_4">
      <!-- 60 -->
      <g style="fill:#555555;" transform="translate(301.496524 241.767158)scale(0.1 -0.1)">
       <defs>
        <path d="M 2113 2584 
Q 1688 2584 1439 2293 
Q 1191 2003 1191 1497 
Q 1191 994 1439 701 
Q 1688 409 2113 409 
Q 2538 409 2786 701 
Q 3034 994 3034 1497 
Q 3034 2003 2786 2293 
Q 2538 2584 2113 2584 
z
M 3366 4563 
L 3366 3988 
Q 3128 4100 2886 4159 
Q 2644 4219 2406 4219 
Q 1781 4219 1451 3797 
Q 1122 3375 1075 2522 
Q 1259 2794 1537 2939 
Q 1816 3084 2150 3084 
Q 2853 3084 3261 2657 
Q 3669 2231 3669 1497 
Q 3669 778 3244 343 
Q 2819 -91 2113 -91 
Q 1303 -91 875 529 
Q 447 1150 447 2328 
Q 447 3434 972 4092 
Q 1497 4750 2381 4750 
Q 2619 4750 2861 4703 
Q 3103 4656 3366 4563 
z
" id="DejaVuSans-36" transform="scale(0.015625)"/>
       </defs>
       <use xlink:href="#DejaVuSans-36"/>
       <use x="63.623047" xlink:href="#DejaVuSans-30"/>
      </g>
     </g>
    </g>
    <g id="xtick_5">
     <g id="line2d_9">
      <path clip-path="url(#pf62610f8aa)" d="M 389.842495 227.16872 
L 389.842495 9.72872 
" style="fill:none;stroke:#ffffff;stroke-linecap:square;stroke-width:0.8;"/>
     </g>
     <g id="line2d_10">
      <g>
       <use style="fill:#555555;stroke:#555555;stroke-width:0.8;" x="389.842495" xlink:href="#m1d42abb46f" y="227.16872"/>
      </g>
     </g>
     <g id="text_5">
      <!-- 80 -->
      <g style="fill:#555555;" transform="translate(383.479995 241.767158)scale(0.1 -0.1)">
       <defs>
        <path d="M 2034 2216 
Q 1584 2216 1326 1975 
Q 1069 1734 1069 1313 
Q 1069 891 1326 650 
Q 1584 409 2034 409 
Q 2484 409 2743 651 
Q 3003 894 3003 1313 
Q 3003 1734 2745 1975 
Q 2488 2216 2034 2216 
z
M 1403 2484 
Q 997 2584 770 2862 
Q 544 3141 544 3541 
Q 544 4100 942 4425 
Q 1341 4750 2034 4750 
Q 2731 4750 3128 4425 
Q 3525 4100 3525 3541 
Q 3525 3141 3298 2862 
Q 3072 2584 2669 2484 
Q 3125 2378 3379 2068 
Q 3634 1759 3634 1313 
Q 3634 634 3220 271 
Q 2806 -91 2034 -91 
Q 1263 -91 848 271 
Q 434 634 434 1313 
Q 434 1759 690 2068 
Q 947 2378 1403 2484 
z
M 1172 3481 
Q 1172 3119 1398 2916 
Q 1625 2713 2034 2713 
Q 2441 2713 2670 2916 
Q 2900 3119 2900 3481 
Q 2900 3844 2670 4047 
Q 2441 4250 2034 4250 
Q 1625 4250 1398 4047 
Q 1172 3844 1172 3481 
z
" id="DejaVuSans-38" transform="scale(0.015625)"/>
       </defs>
       <use xlink:href="#DejaVuSans-38"/>
       <use x="63.623047" xlink:href="#DejaVuSans-30"/>
      </g>
     </g>
    </g>
    <g id="xtick_6">
     <g id="line2d_11">
      <path clip-path="url(#pf62610f8aa)" d="M 471.825966 227.16872 
L 471.825966 9.72872 
" style="fill:none;stroke:#ffffff;stroke-linecap:square;stroke-width:0.8;"/>
     </g>
     <g id="line2d_12">
      <g>
       <use style="fill:#555555;stroke:#555555;stroke-width:0.8;" x="471.825966" xlink:href="#m1d42abb46f" y="227.16872"/>
      </g>
     </g>
     <g id="text_6">
      <!-- 100 -->
      <g style="fill:#555555;" transform="translate(462.282216 241.767158)scale(0.1 -0.1)">
       <defs>
        <path d="M 794 531 
L 1825 531 
L 1825 4091 
L 703 3866 
L 703 4441 
L 1819 4666 
L 2450 4666 
L 2450 531 
L 3481 531 
L 3481 0 
L 794 0 
L 794 531 
z
" id="DejaVuSans-31" transform="scale(0.015625)"/>
       </defs>
       <use xlink:href="#DejaVuSans-31"/>
       <use x="63.623047" xlink:href="#DejaVuSans-30"/>
       <use x="127.246094" xlink:href="#DejaVuSans-30"/>
      </g>
     </g>
    </g>
    <g id="text_7">
     <!-- Epoch number -->
     <g style="fill:#555555;" transform="translate(225.22 256.96497)scale(0.12 -0.12)">
      <defs>
       <path d="M 628 4666 
L 3578 4666 
L 3578 4134 
L 1259 4134 
L 1259 2753 
L 3481 2753 
L 3481 2222 
L 1259 2222 
L 1259 531 
L 3634 531 
L 3634 0 
L 628 0 
L 628 4666 
z
" id="DejaVuSans-45" transform="scale(0.015625)"/>
       <path d="M 1159 525 
L 1159 -1331 
L 581 -1331 
L 581 3500 
L 1159 3500 
L 1159 2969 
Q 1341 3281 1617 3432 
Q 1894 3584 2278 3584 
Q 2916 3584 3314 3078 
Q 3713 2572 3713 1747 
Q 3713 922 3314 415 
Q 2916 -91 2278 -91 
Q 1894 -91 1617 61 
Q 1341 213 1159 525 
z
M 3116 1747 
Q 3116 2381 2855 2742 
Q 2594 3103 2138 3103 
Q 1681 3103 1420 2742 
Q 1159 2381 1159 1747 
Q 1159 1113 1420 752 
Q 1681 391 2138 391 
Q 2594 391 2855 752 
Q 3116 1113 3116 1747 
z
" id="DejaVuSans-70" transform="scale(0.015625)"/>
       <path d="M 1959 3097 
Q 1497 3097 1228 2736 
Q 959 2375 959 1747 
Q 959 1119 1226 758 
Q 1494 397 1959 397 
Q 2419 397 2687 759 
Q 2956 1122 2956 1747 
Q 2956 2369 2687 2733 
Q 2419 3097 1959 3097 
z
M 1959 3584 
Q 2709 3584 3137 3096 
Q 3566 2609 3566 1747 
Q 3566 888 3137 398 
Q 2709 -91 1959 -91 
Q 1206 -91 779 398 
Q 353 888 353 1747 
Q 353 2609 779 3096 
Q 1206 3584 1959 3584 
z
" id="DejaVuSans-6f" transform="scale(0.015625)"/>
       <path d="M 3122 3366 
L 3122 2828 
Q 2878 2963 2633 3030 
Q 2388 3097 2138 3097 
Q 1578 3097 1268 2742 
Q 959 2388 959 1747 
Q 959 1106 1268 751 
Q 1578 397 2138 397 
Q 2388 397 2633 464 
Q 2878 531 3122 666 
L 3122 134 
Q 2881 22 2623 -34 
Q 2366 -91 2075 -91 
Q 1284 -91 818 406 
Q 353 903 353 1747 
Q 353 2603 823 3093 
Q 1294 3584 2113 3584 
Q 2378 3584 2631 3529 
Q 2884 3475 3122 3366 
z
" id="DejaVuSans-63" transform="scale(0.015625)"/>
       <path d="M 3513 2113 
L 3513 0 
L 2938 0 
L 2938 2094 
Q 2938 2591 2744 2837 
Q 2550 3084 2163 3084 
Q 1697 3084 1428 2787 
Q 1159 2491 1159 1978 
L 1159 0 
L 581 0 
L 581 4863 
L 1159 4863 
L 1159 2956 
Q 1366 3272 1645 3428 
Q 1925 3584 2291 3584 
Q 2894 3584 3203 3211 
Q 3513 2838 3513 2113 
z
" id="DejaVuSans-68" transform="scale(0.015625)"/>
       <path id="DejaVuSans-20" transform="scale(0.015625)"/>
       <path d="M 3513 2113 
L 3513 0 
L 2938 0 
L 2938 2094 
Q 2938 2591 2744 2837 
Q 2550 3084 2163 3084 
Q 1697 3084 1428 2787 
Q 1159 2491 1159 1978 
L 1159 0 
L 581 0 
L 581 3500 
L 1159 3500 
L 1159 2956 
Q 1366 3272 1645 3428 
Q 1925 3584 2291 3584 
Q 2894 3584 3203 3211 
Q 3513 2838 3513 2113 
z
" id="DejaVuSans-6e" transform="scale(0.015625)"/>
       <path d="M 544 1381 
L 544 3500 
L 1119 3500 
L 1119 1403 
Q 1119 906 1312 657 
Q 1506 409 1894 409 
Q 2359 409 2629 706 
Q 2900 1003 2900 1516 
L 2900 3500 
L 3475 3500 
L 3475 0 
L 2900 0 
L 2900 538 
Q 2691 219 2414 64 
Q 2138 -91 1772 -91 
Q 1169 -91 856 284 
Q 544 659 544 1381 
z
M 1991 3584 
L 1991 3584 
z
" id="DejaVuSans-75" transform="scale(0.015625)"/>
       <path d="M 3328 2828 
Q 3544 3216 3844 3400 
Q 4144 3584 4550 3584 
Q 5097 3584 5394 3201 
Q 5691 2819 5691 2113 
L 5691 0 
L 5113 0 
L 5113 2094 
Q 5113 2597 4934 2840 
Q 4756 3084 4391 3084 
Q 3944 3084 3684 2787 
Q 3425 2491 3425 1978 
L 3425 0 
L 2847 0 
L 2847 2094 
Q 2847 2600 2669 2842 
Q 2491 3084 2119 3084 
Q 1678 3084 1418 2786 
Q 1159 2488 1159 1978 
L 1159 0 
L 581 0 
L 581 3500 
L 1159 3500 
L 1159 2956 
Q 1356 3278 1631 3431 
Q 1906 3584 2284 3584 
Q 2666 3584 2933 3390 
Q 3200 3197 3328 2828 
z
" id="DejaVuSans-6d" transform="scale(0.015625)"/>
       <path d="M 3116 1747 
Q 3116 2381 2855 2742 
Q 2594 3103 2138 3103 
Q 1681 3103 1420 2742 
Q 1159 2381 1159 1747 
Q 1159 1113 1420 752 
Q 1681 391 2138 391 
Q 2594 391 2855 752 
Q 3116 1113 3116 1747 
z
M 1159 2969 
Q 1341 3281 1617 3432 
Q 1894 3584 2278 3584 
Q 2916 3584 3314 3078 
Q 3713 2572 3713 1747 
Q 3713 922 3314 415 
Q 2916 -91 2278 -91 
Q 1894 -91 1617 61 
Q 1341 213 1159 525 
L 1159 0 
L 581 0 
L 581 4863 
L 1159 4863 
L 1159 2969 
z
" id="DejaVuSans-62" transform="scale(0.015625)"/>
       <path d="M 3597 1894 
L 3597 1613 
L 953 1613 
Q 991 1019 1311 708 
Q 1631 397 2203 397 
Q 2534 397 2845 478 
Q 3156 559 3463 722 
L 3463 178 
Q 3153 47 2828 -22 
Q 2503 -91 2169 -91 
Q 1331 -91 842 396 
Q 353 884 353 1716 
Q 353 2575 817 3079 
Q 1281 3584 2069 3584 
Q 2775 3584 3186 3129 
Q 3597 2675 3597 1894 
z
M 3022 2063 
Q 3016 2534 2758 2815 
Q 2500 3097 2075 3097 
Q 1594 3097 1305 2825 
Q 1016 2553 972 2059 
L 3022 2063 
z
" id="DejaVuSans-65" transform="scale(0.015625)"/>
       <path d="M 2631 2963 
Q 2534 3019 2420 3045 
Q 2306 3072 2169 3072 
Q 1681 3072 1420 2755 
Q 1159 2438 1159 1844 
L 1159 0 
L 581 0 
L 581 3500 
L 1159 3500 
L 1159 2956 
Q 1341 3275 1631 3429 
Q 1922 3584 2338 3584 
Q 2397 3584 2469 3576 
Q 2541 3569 2628 3553 
L 2631 2963 
z
" id="DejaVuSans-72" transform="scale(0.015625)"/>
      </defs>
      <use xlink:href="#DejaVuSans-45"/>
      <use x="63.183594" xlink:href="#DejaVuSans-70"/>
      <use x="126.660156" xlink:href="#DejaVuSans-6f"/>
      <use x="187.841797" xlink:href="#DejaVuSans-63"/>
      <use x="242.822266" xlink:href="#DejaVuSans-68"/>
      <use x="306.201172" xlink:href="#DejaVuSans-20"/>
      <use x="337.988281" xlink:href="#DejaVuSans-6e"/>
      <use x="401.367188" xlink:href="#DejaVuSans-75"/>
      <use x="464.746094" xlink:href="#DejaVuSans-6d"/>
      <use x="562.158203" xlink:href="#DejaVuSans-62"/>
      <use x="625.634766" xlink:href="#DejaVuSans-65"/>
      <use x="687.158203" xlink:href="#DejaVuSans-72"/>
     </g>
    </g>
   </g>
   <g id="matplotlib.axis_2">
    <g id="ytick_1">
     <g id="line2d_13">
      <path clip-path="url(#pf62610f8aa)" d="M 45.716875 212.902042 
L 492.116875 212.902042 
" style="fill:none;stroke:#ffffff;stroke-linecap:square;stroke-width:0.8;"/>
     </g>
     <g id="line2d_14">
      <defs>
       <path d="M 0 0 
L -3.5 0 
" id="med27e9bc17" style="stroke:#555555;stroke-width:0.8;"/>
      </defs>
      <g>
       <use style="fill:#555555;stroke:#555555;stroke-width:0.8;" x="45.716875" xlink:href="#med27e9bc17" y="212.902042"/>
      </g>
     </g>
     <g id="text_8">
      <!-- 0.5 -->
      <g style="fill:#555555;" transform="translate(22.81375 216.701261)scale(0.1 -0.1)">
       <defs>
        <path d="M 684 794 
L 1344 794 
L 1344 0 
L 684 0 
L 684 794 
z
" id="DejaVuSans-2e" transform="scale(0.015625)"/>
        <path d="M 691 4666 
L 3169 4666 
L 3169 4134 
L 1269 4134 
L 1269 2991 
Q 1406 3038 1543 3061 
Q 1681 3084 1819 3084 
Q 2600 3084 3056 2656 
Q 3513 2228 3513 1497 
Q 3513 744 3044 326 
Q 2575 -91 1722 -91 
Q 1428 -91 1123 -41 
Q 819 9 494 109 
L 494 744 
Q 775 591 1075 516 
Q 1375 441 1709 441 
Q 2250 441 2565 725 
Q 2881 1009 2881 1497 
Q 2881 1984 2565 2268 
Q 2250 2553 1709 2553 
Q 1456 2553 1204 2497 
Q 953 2441 691 2322 
L 691 4666 
z
" id="DejaVuSans-35" transform="scale(0.015625)"/>
       </defs>
       <use xlink:href="#DejaVuSans-30"/>
       <use x="63.623047" xlink:href="#DejaVuSans-2e"/>
       <use x="95.410156" xlink:href="#DejaVuSans-35"/>
      </g>
     </g>
    </g>
    <g id="ytick_2">
     <g id="line2d_15">
      <path clip-path="url(#pf62610f8aa)" d="M 45.716875 184.058781 
L 492.116875 184.058781 
" style="fill:none;stroke:#ffffff;stroke-linecap:square;stroke-width:0.8;"/>
     </g>
     <g id="line2d_16">
      <g>
       <use style="fill:#555555;stroke:#555555;stroke-width:0.8;" x="45.716875" xlink:href="#med27e9bc17" y="184.058781"/>
      </g>
     </g>
     <g id="text_9">
      <!-- 1.0 -->
      <g style="fill:#555555;" transform="translate(22.81375 187.858)scale(0.1 -0.1)">
       <use xlink:href="#DejaVuSans-31"/>
       <use x="63.623047" xlink:href="#DejaVuSans-2e"/>
       <use x="95.410156" xlink:href="#DejaVuSans-30"/>
      </g>
     </g>
    </g>
    <g id="ytick_3">
     <g id="line2d_17">
      <path clip-path="url(#pf62610f8aa)" d="M 45.716875 155.215521 
L 492.116875 155.215521 
" style="fill:none;stroke:#ffffff;stroke-linecap:square;stroke-width:0.8;"/>
     </g>
     <g id="line2d_18">
      <g>
       <use style="fill:#555555;stroke:#555555;stroke-width:0.8;" x="45.716875" xlink:href="#med27e9bc17" y="155.215521"/>
      </g>
     </g>
     <g id="text_10">
      <!-- 1.5 -->
      <g style="fill:#555555;" transform="translate(22.81375 159.01474)scale(0.1 -0.1)">
       <use xlink:href="#DejaVuSans-31"/>
       <use x="63.623047" xlink:href="#DejaVuSans-2e"/>
       <use x="95.410156" xlink:href="#DejaVuSans-35"/>
      </g>
     </g>
    </g>
    <g id="ytick_4">
     <g id="line2d_19">
      <path clip-path="url(#pf62610f8aa)" d="M 45.716875 126.37226 
L 492.116875 126.37226 
" style="fill:none;stroke:#ffffff;stroke-linecap:square;stroke-width:0.8;"/>
     </g>
     <g id="line2d_20">
      <g>
       <use style="fill:#555555;stroke:#555555;stroke-width:0.8;" x="45.716875" xlink:href="#med27e9bc17" y="126.37226"/>
      </g>
     </g>
     <g id="text_11">
      <!-- 2.0 -->
      <g style="fill:#555555;" transform="translate(22.81375 130.171479)scale(0.1 -0.1)">
       <use xlink:href="#DejaVuSans-32"/>
       <use x="63.623047" xlink:href="#DejaVuSans-2e"/>
       <use x="95.410156" xlink:href="#DejaVuSans-30"/>
      </g>
     </g>
    </g>
    <g id="ytick_5">
     <g id="line2d_21">
      <path clip-path="url(#pf62610f8aa)" d="M 45.716875 97.529 
L 492.116875 97.529 
" style="fill:none;stroke:#ffffff;stroke-linecap:square;stroke-width:0.8;"/>
     </g>
     <g id="line2d_22">
      <g>
       <use style="fill:#555555;stroke:#555555;stroke-width:0.8;" x="45.716875" xlink:href="#med27e9bc17" y="97.529"/>
      </g>
     </g>
     <g id="text_12">
      <!-- 2.5 -->
      <g style="fill:#555555;" transform="translate(22.81375 101.328219)scale(0.1 -0.1)">
       <use xlink:href="#DejaVuSans-32"/>
       <use x="63.623047" xlink:href="#DejaVuSans-2e"/>
       <use x="95.410156" xlink:href="#DejaVuSans-35"/>
      </g>
     </g>
    </g>
    <g id="ytick_6">
     <g id="line2d_23">
      <path clip-path="url(#pf62610f8aa)" d="M 45.716875 68.68574 
L 492.116875 68.68574 
" style="fill:none;stroke:#ffffff;stroke-linecap:square;stroke-width:0.8;"/>
     </g>
     <g id="line2d_24">
      <g>
       <use style="fill:#555555;stroke:#555555;stroke-width:0.8;" x="45.716875" xlink:href="#med27e9bc17" y="68.68574"/>
      </g>
     </g>
     <g id="text_13">
      <!-- 3.0 -->
      <g style="fill:#555555;" transform="translate(22.81375 72.484958)scale(0.1 -0.1)">
       <defs>
        <path d="M 2597 2516 
Q 3050 2419 3304 2112 
Q 3559 1806 3559 1356 
Q 3559 666 3084 287 
Q 2609 -91 1734 -91 
Q 1441 -91 1130 -33 
Q 819 25 488 141 
L 488 750 
Q 750 597 1062 519 
Q 1375 441 1716 441 
Q 2309 441 2620 675 
Q 2931 909 2931 1356 
Q 2931 1769 2642 2001 
Q 2353 2234 1838 2234 
L 1294 2234 
L 1294 2753 
L 1863 2753 
Q 2328 2753 2575 2939 
Q 2822 3125 2822 3475 
Q 2822 3834 2567 4026 
Q 2313 4219 1838 4219 
Q 1578 4219 1281 4162 
Q 984 4106 628 3988 
L 628 4550 
Q 988 4650 1302 4700 
Q 1616 4750 1894 4750 
Q 2613 4750 3031 4423 
Q 3450 4097 3450 3541 
Q 3450 3153 3228 2886 
Q 3006 2619 2597 2516 
z
" id="DejaVuSans-33" transform="scale(0.015625)"/>
       </defs>
       <use xlink:href="#DejaVuSans-33"/>
       <use x="63.623047" xlink:href="#DejaVuSans-2e"/>
       <use x="95.410156" xlink:href="#DejaVuSans-30"/>
      </g>
     </g>
    </g>
    <g id="ytick_7">
     <g id="line2d_25">
      <path clip-path="url(#pf62610f8aa)" d="M 45.716875 39.842479 
L 492.116875 39.842479 
" style="fill:none;stroke:#ffffff;stroke-linecap:square;stroke-width:0.8;"/>
     </g>
     <g id="line2d_26">
      <g>
       <use style="fill:#555555;stroke:#555555;stroke-width:0.8;" x="45.716875" xlink:href="#med27e9bc17" y="39.842479"/>
      </g>
     </g>
     <g id="text_14">
      <!-- 3.5 -->
      <g style="fill:#555555;" transform="translate(22.81375 43.641698)scale(0.1 -0.1)">
       <use xlink:href="#DejaVuSans-33"/>
       <use x="63.623047" xlink:href="#DejaVuSans-2e"/>
       <use x="95.410156" xlink:href="#DejaVuSans-35"/>
      </g>
     </g>
    </g>
    <g id="ytick_8">
     <g id="line2d_27">
      <path clip-path="url(#pf62610f8aa)" d="M 45.716875 10.999219 
L 492.116875 10.999219 
" style="fill:none;stroke:#ffffff;stroke-linecap:square;stroke-width:0.8;"/>
     </g>
     <g id="line2d_28">
      <g>
       <use style="fill:#555555;stroke:#555555;stroke-width:0.8;" x="45.716875" xlink:href="#med27e9bc17" y="10.999219"/>
      </g>
     </g>
     <g id="text_15">
      <!-- 4.0 -->
      <g style="fill:#555555;" transform="translate(22.81375 14.798437)scale(0.1 -0.1)">
       <use xlink:href="#DejaVuSans-34"/>
       <use x="63.623047" xlink:href="#DejaVuSans-2e"/>
       <use x="95.410156" xlink:href="#DejaVuSans-30"/>
      </g>
     </g>
    </g>
    <g id="text_16">
     <!-- Error -->
     <g style="fill:#555555;" transform="translate(16.318125 133.070908)rotate(-90)scale(0.12 -0.12)">
      <use xlink:href="#DejaVuSans-45"/>
      <use x="63.183594" xlink:href="#DejaVuSans-72"/>
      <use x="102.546875" xlink:href="#DejaVuSans-72"/>
      <use x="141.410156" xlink:href="#DejaVuSans-6f"/>
      <use x="202.591797" xlink:href="#DejaVuSans-72"/>
     </g>
    </g>
   </g>
   <g id="line2d_29">
    <path clip-path="url(#pf62610f8aa)" d="M 66.007784 19.645203 
L 70.106958 19.645248 
L 74.206131 19.645157 
L 78.305305 19.645624 
L 82.404478 19.64563 
L 86.503652 19.645097 
L 90.602825 19.645316 
L 94.701999 19.644965 
L 98.801173 19.64472 
L 102.900346 19.645081 
L 106.99952 19.645717 
L 111.098693 19.645366 
L 115.197867 19.645772 
L 119.29704 19.645091 
L 123.396214 19.645632 
L 127.495387 19.645313 
L 131.594561 19.645381 
L 135.693735 19.645371 
L 139.792908 19.645334 
L 143.892082 19.645317 
L 147.991255 19.645464 
L 152.090429 19.644989 
L 156.189602 19.645142 
L 160.288776 19.644865 
L 164.387949 19.64547 
L 168.487123 19.645796 
L 172.586296 19.644804 
L 176.68547 19.645416 
L 180.784644 19.645571 
L 184.883817 19.645459 
L 188.982991 19.645213 
L 193.082164 19.645478 
L 197.181338 19.645095 
L 201.280511 19.645331 
L 205.379685 19.64547 
L 209.478858 19.644976 
L 213.578032 19.645853 
L 217.677206 19.645548 
L 221.776379 19.644987 
L 225.875553 19.64521 
L 229.974726 19.645698 
L 234.0739 19.645721 
L 238.173073 19.644927 
L 242.272247 19.64517 
L 246.37142 19.645095 
L 250.470594 19.644727 
L 254.569768 19.645577 
L 258.668941 19.64559 
L 262.768115 19.645663 
L 266.867288 19.645198 
L 270.966462 19.645077 
L 275.065635 19.645283 
L 279.164809 19.645332 
L 283.263982 19.645151 
L 287.363156 19.645348 
L 291.46233 19.644824 
L 295.561503 19.645113 
L 299.660677 19.645017 
L 303.75985 19.645288 
L 307.859024 19.645508 
L 311.958197 19.645028 
L 316.057371 19.645353 
L 320.156544 19.644567 
L 324.255718 19.645256 
L 328.354892 19.645382 
L 332.454065 19.645151 
L 336.553239 19.645532 
L 340.652412 19.645417 
L 344.751586 19.644855 
L 348.850759 19.644648 
L 352.949933 19.645339 
L 357.049106 19.645244 
L 361.14828 19.645126 
L 365.247454 19.645068 
L 369.346627 19.645548 
L 373.445801 19.644995 
L 377.544974 19.645631 
L 381.644148 19.644853 
L 385.743321 19.645104 
L 389.842495 19.644914 
L 393.941668 19.64553 
L 398.040842 19.645474 
L 402.140015 19.645198 
L 406.239189 19.64492 
L 410.338363 19.645368 
L 414.437536 19.645139 
L 418.53671 19.645467 
L 422.635883 19.645516 
L 426.735057 19.645456 
L 430.83423 19.645624 
L 434.933404 19.645119 
L 439.032577 19.644874 
L 443.131751 19.645185 
L 447.230925 19.645044 
L 451.330098 19.645094 
L 455.429272 19.645419 
L 459.528445 19.645084 
L 463.627619 19.645357 
L 467.726792 19.645483 
L 471.825966 19.645105 
" style="fill:none;stroke:#ff0000;stroke-linecap:square;stroke-width:1.5;"/>
   </g>
   <g id="line2d_30">
    <path clip-path="url(#pf62610f8aa)" d="M 66.007784 159.435127 
L 70.106958 164.924356 
L 74.206131 168.069554 
L 78.305305 169.805597 
L 82.404478 170.459962 
L 86.503652 172.019402 
L 90.602825 172.502447 
L 94.701999 173.241065 
L 98.801173 173.223124 
L 102.900346 174.408475 
L 106.99952 174.718262 
L 111.098693 174.715924 
L 115.197867 175.0906 
L 119.29704 175.160556 
L 123.396214 175.695216 
L 127.495387 176.001287 
L 131.594561 176.091905 
L 135.693735 176.621748 
L 139.792908 176.570525 
L 143.892082 176.686502 
L 147.991255 176.840321 
L 152.090429 176.3768 
L 156.189602 177.126177 
L 160.288776 177.299318 
L 164.387949 177.254044 
L 168.487123 177.478966 
L 172.586296 177.531217 
L 176.68547 177.819722 
L 180.784644 177.542149 
L 184.883817 177.812927 
L 188.982991 177.863946 
L 193.082164 177.960975 
L 197.181338 177.666078 
L 201.280511 177.746276 
L 205.379685 177.636441 
L 209.478858 177.813812 
L 213.578032 177.926553 
L 217.677206 178.088976 
L 221.776379 177.88969 
L 225.875553 177.717973 
L 229.974726 177.661381 
L 234.0739 178.092019 
L 238.173073 177.656607 
L 242.272247 178.563547 
L 246.37142 178.163008 
L 250.470594 177.695241 
L 254.569768 178.485097 
L 258.668941 178.273351 
L 262.768115 178.188462 
L 266.867288 178.857117 
L 270.966462 178.543268 
L 275.065635 178.77562 
L 279.164809 178.507589 
L 283.263982 178.494596 
L 287.363156 178.762797 
L 291.46233 178.442684 
L 295.561503 178.584836 
L 299.660677 179.030445 
L 303.75985 178.834013 
L 307.859024 178.595167 
L 311.958197 178.638805 
L 316.057371 178.822609 
L 320.156544 179.030418 
L 324.255718 179.151954 
L 328.354892 179.021261 
L 332.454065 179.050023 
L 336.553239 179.206678 
L 340.652412 178.659844 
L 344.751586 178.938103 
L 348.850759 179.081699 
L 352.949933 179.395956 
L 357.049106 179.2645 
L 361.14828 179.525549 
L 365.247454 179.365339 
L 369.346627 179.193973 
L 373.445801 179.211084 
L 377.544974 179.590348 
L 381.644148 179.513405 
L 385.743321 180.008248 
L 389.842495 179.773021 
L 393.941668 179.53569 
L 398.040842 179.920714 
L 402.140015 179.745968 
L 406.239189 179.683934 
L 410.338363 179.349496 
L 414.437536 179.741691 
L 418.53671 180.29059 
L 422.635883 180.057486 
L 426.735057 180.009272 
L 430.83423 180.444657 
L 434.933404 180.265532 
L 439.032577 180.060515 
L 443.131751 180.118389 
L 447.230925 180.0158 
L 451.330098 180.514534 
L 455.429272 180.590377 
L 459.528445 180.346019 
L 463.627619 180.114463 
L 467.726792 180.483746 
L 471.825966 180.016678 
" style="fill:none;stroke:#0000ff;stroke-linecap:square;stroke-width:1.5;"/>
   </g>
   <g id="line2d_31">
    <path clip-path="url(#pf62610f8aa)" d="M 66.007784 184.629386 
L 70.106958 195.537451 
L 74.206131 200.607577 
L 78.305305 204.022877 
L 82.404478 206.06648 
L 86.503652 207.170574 
L 90.602825 209.103754 
L 94.701999 209.406675 
L 98.801173 210.448104 
L 102.900346 211.020248 
L 106.99952 211.435088 
L 111.098693 211.699866 
L 115.197867 212.075281 
L 119.29704 212.575415 
L 123.396214 212.822453 
L 127.495387 212.985218 
L 131.594561 213.479317 
L 135.693735 213.368482 
L 139.792908 213.577816 
L 143.892082 213.855406 
L 147.991255 214.243297 
L 152.090429 214.015485 
L 156.189602 214.461534 
L 160.288776 214.598296 
L 164.387949 214.807731 
L 168.487123 214.867303 
L 172.586296 215.172295 
L 176.68547 214.987557 
L 180.784644 215.153217 
L 184.883817 215.251167 
L 188.982991 215.129464 
L 193.082164 214.886026 
L 197.181338 215.04349 
L 201.280511 215.482032 
L 205.379685 215.524351 
L 209.478858 215.623542 
L 213.578032 215.446598 
L 217.677206 215.537387 
L 221.776379 215.81046 
L 225.875553 215.911271 
L 229.974726 215.873302 
L 234.0739 215.899116 
L 238.173073 215.530646 
L 242.272247 215.690205 
L 246.37142 215.821 
L 250.470594 216.009478 
L 254.569768 215.789113 
L 258.668941 215.699863 
L 262.768115 215.949651 
L 266.867288 215.640254 
L 270.966462 216.169447 
L 275.065635 216.535248 
L 279.164809 216.432257 
L 283.263982 216.205684 
L 287.363156 216.295813 
L 291.46233 216.147675 
L 295.561503 216.333741 
L 299.660677 216.256975 
L 303.75985 216.399222 
L 307.859024 216.412251 
L 311.958197 216.595659 
L 316.057371 216.24213 
L 320.156544 216.772314 
L 324.255718 216.682253 
L 328.354892 216.460146 
L 332.454065 216.456453 
L 336.553239 216.365317 
L 340.652412 216.587066 
L 344.751586 216.353739 
L 348.850759 216.813044 
L 352.949933 216.716433 
L 357.049106 216.586708 
L 361.14828 216.454486 
L 365.247454 216.702877 
L 369.346627 216.545638 
L 373.445801 216.557588 
L 377.544974 216.81579 
L 381.644148 216.672099 
L 385.743321 216.762294 
L 389.842495 217.021506 
L 393.941668 216.849412 
L 398.040842 216.722405 
L 402.140015 216.555234 
L 406.239189 216.575983 
L 410.338363 216.718731 
L 414.437536 216.560045 
L 418.53671 217.285084 
L 422.635883 216.942016 
L 426.735057 216.752349 
L 430.83423 216.364774 
L 434.933404 216.800305 
L 439.032577 217.137086 
L 443.131751 216.937877 
L 447.230925 216.743128 
L 451.330098 216.990059 
L 455.429272 217.004064 
L 459.528445 216.805667 
L 463.627619 217.026092 
L 467.726792 216.811468 
L 471.825966 217.210315 
" style="fill:none;stroke:#800080;stroke-linecap:square;stroke-width:1.5;"/>
   </g>
   <g id="line2d_32">
    <path clip-path="url(#pf62610f8aa)" d="M 66.007784 19.621285 
L 70.106958 19.619842 
L 74.206131 19.62082 
L 78.305305 19.618553 
L 82.404478 19.621687 
L 86.503652 19.616667 
L 90.602825 19.614233 
L 94.701999 19.617624 
L 98.801173 19.616565 
L 102.900346 19.617564 
L 106.99952 19.62394 
L 111.098693 19.625603 
L 115.197867 19.624142 
L 119.29704 19.612365 
L 123.396214 19.613547 
L 127.495387 19.618994 
L 131.594561 19.626777 
L 135.693735 19.625146 
L 139.792908 19.625353 
L 143.892082 19.613746 
L 147.991255 19.619562 
L 152.090429 19.621061 
L 156.189602 19.620787 
L 160.288776 19.620125 
L 164.387949 19.61819 
L 168.487123 19.615246 
L 172.586296 19.618571 
L 176.68547 19.615729 
L 180.784644 19.62064 
L 184.883817 19.617988 
L 188.982991 19.616279 
L 193.082164 19.618613 
L 197.181338 19.620008 
L 201.280511 19.624281 
L 205.379685 19.619441 
L 209.478858 19.616964 
L 213.578032 19.625951 
L 217.677206 19.62141 
L 221.776379 19.618305 
L 225.875553 19.6187 
L 229.974726 19.621193 
L 234.0739 19.616058 
L 238.173073 19.617745 
L 242.272247 19.6202 
L 246.37142 19.617609 
L 250.470594 19.618897 
L 254.569768 19.617526 
L 258.668941 19.620727 
L 262.768115 19.619291 
L 266.867288 19.624152 
L 270.966462 19.622919 
L 275.065635 19.622831 
L 279.164809 19.621656 
L 283.263982 19.615748 
L 287.363156 19.615724 
L 291.46233 19.622475 
L 295.561503 19.619781 
L 299.660677 19.618987 
L 303.75985 19.621682 
L 307.859024 19.617792 
L 311.958197 19.62149 
L 316.057371 19.619921 
L 320.156544 19.621127 
L 324.255718 19.624807 
L 328.354892 19.627585 
L 332.454065 19.621756 
L 336.553239 19.619897 
L 340.652412 19.628495 
L 344.751586 19.621394 
L 348.850759 19.619775 
L 352.949933 19.624383 
L 357.049106 19.624276 
L 361.14828 19.622761 
L 365.247454 19.622679 
L 369.346627 19.625211 
L 373.445801 19.615686 
L 377.544974 19.61845 
L 381.644148 19.62744 
L 385.743321 19.620962 
L 389.842495 19.620894 
L 393.941668 19.614303 
L 398.040842 19.613785 
L 402.140015 19.618474 
L 406.239189 19.613513 
L 410.338363 19.618397 
L 414.437536 19.616652 
L 418.53671 19.62346 
L 422.635883 19.626044 
L 426.735057 19.616773 
L 430.83423 19.623516 
L 434.933404 19.612357 
L 439.032577 19.623499 
L 443.131751 19.619846 
L 447.230925 19.612485 
L 451.330098 19.619154 
L 455.429272 19.618477 
L 459.528445 19.619407 
L 463.627619 19.622569 
L 467.726792 19.622742 
L 471.825966 19.626076 
" style="fill:none;stroke:#808080;stroke-dasharray:5.55,2.4;stroke-dashoffset:0;stroke-width:1.5;"/>
   </g>
   <g id="line2d_33">
    <path clip-path="url(#pf62610f8aa)" d="M 66.007784 159.209329 
L 70.106958 164.730521 
L 74.206131 167.978277 
L 78.305305 169.469385 
L 82.404478 170.11009 
L 86.503652 171.710192 
L 90.602825 172.209618 
L 94.701999 172.907493 
L 98.801173 172.848276 
L 102.900346 174.167509 
L 106.99952 174.443734 
L 111.098693 174.424294 
L 115.197867 174.814266 
L 119.29704 174.878885 
L 123.396214 175.429997 
L 127.495387 175.620444 
L 131.594561 175.769087 
L 135.693735 176.238604 
L 139.792908 176.208755 
L 143.892082 176.211666 
L 147.991255 176.487745 
L 152.090429 175.841912 
L 156.189602 176.713521 
L 160.288776 176.855846 
L 164.387949 176.780938 
L 168.487123 176.936834 
L 172.586296 177.064575 
L 176.68547 177.33794 
L 180.784644 177.107083 
L 184.883817 177.296571 
L 188.982991 177.346408 
L 193.082164 177.539867 
L 197.181338 177.201598 
L 201.280511 177.194825 
L 205.379685 177.166581 
L 209.478858 177.436177 
L 213.578032 177.535275 
L 217.677206 177.685441 
L 221.776379 177.405352 
L 225.875553 177.227324 
L 229.974726 177.141314 
L 234.0739 177.501231 
L 238.173073 177.102822 
L 242.272247 178.074393 
L 246.37142 177.615833 
L 250.470594 177.131312 
L 254.569768 178.064071 
L 258.668941 177.817871 
L 262.768115 177.84608 
L 266.867288 178.335273 
L 270.966462 178.100987 
L 275.065635 178.245023 
L 279.164809 177.909573 
L 283.263982 178.067027 
L 287.363156 178.295186 
L 291.46233 177.878118 
L 295.561503 178.01918 
L 299.660677 178.635193 
L 303.75985 178.328012 
L 307.859024 178.199152 
L 311.958197 178.081069 
L 316.057371 178.488675 
L 320.156544 178.71624 
L 324.255718 178.659631 
L 328.354892 178.662914 
L 332.454065 178.718029 
L 336.553239 178.714934 
L 340.652412 178.126553 
L 344.751586 178.495427 
L 348.850759 178.703894 
L 352.949933 178.990295 
L 357.049106 178.793573 
L 361.14828 179.164108 
L 365.247454 179.02038 
L 369.346627 178.70643 
L 373.445801 178.728058 
L 377.544974 179.096164 
L 381.644148 179.152825 
L 385.743321 179.529605 
L 389.842495 179.302615 
L 393.941668 179.094605 
L 398.040842 179.381715 
L 402.140015 179.285658 
L 406.239189 179.396463 
L 410.338363 178.780998 
L 414.437536 179.278333 
L 418.53671 179.763919 
L 422.635883 179.650454 
L 426.735057 179.65098 
L 430.83423 180.016001 
L 434.933404 179.879167 
L 439.032577 179.543953 
L 443.131751 179.647031 
L 447.230925 179.521398 
L 451.330098 180.075204 
L 455.429272 180.123564 
L 459.528445 179.794061 
L 463.627619 179.702575 
L 467.726792 179.96257 
L 471.825966 179.520821 
" style="fill:none;stroke:#ffff00;stroke-dasharray:5.55,2.4;stroke-dashoffset:0;stroke-width:1.5;"/>
   </g>
   <g id="line2d_34">
    <path clip-path="url(#pf62610f8aa)" d="M 66.007784 183.835302 
L 70.106958 194.242869 
L 74.206131 199.074755 
L 78.305305 202.551108 
L 82.404478 204.425588 
L 86.503652 205.543351 
L 90.602825 207.26578 
L 94.701999 207.594334 
L 98.801173 208.428142 
L 102.900346 208.983623 
L 106.99952 209.305774 
L 111.098693 209.520627 
L 115.197867 209.89539 
L 119.29704 210.268629 
L 123.396214 210.591205 
L 127.495387 210.592443 
L 131.594561 211.165841 
L 135.693735 210.977462 
L 139.792908 210.881034 
L 143.892082 211.354818 
L 147.991255 211.53882 
L 152.090429 211.529786 
L 156.189602 211.760765 
L 160.288776 211.838036 
L 164.387949 212.151699 
L 168.487123 211.856776 
L 172.586296 212.325553 
L 176.68547 212.099357 
L 180.784644 212.15527 
L 184.883817 212.261203 
L 188.982991 212.19969 
L 193.082164 211.921777 
L 197.181338 212.165593 
L 201.280511 212.471145 
L 205.379685 212.460219 
L 209.478858 212.465703 
L 213.578032 212.496183 
L 217.677206 212.541282 
L 221.776379 212.757579 
L 225.875553 212.927768 
L 229.974726 212.785745 
L 234.0739 212.625439 
L 238.173073 212.525211 
L 242.272247 212.855818 
L 246.37142 212.507527 
L 250.470594 212.770165 
L 254.569768 212.55123 
L 258.668941 212.293097 
L 262.768115 212.701001 
L 266.867288 212.524041 
L 270.966462 212.837304 
L 275.065635 213.339487 
L 279.164809 213.28257 
L 283.263982 212.884515 
L 287.363156 213.161366 
L 291.46233 212.773016 
L 295.561503 213.034434 
L 299.660677 212.958012 
L 303.75985 213.198737 
L 307.859024 213.043727 
L 311.958197 213.268041 
L 316.057371 212.811843 
L 320.156544 213.370375 
L 324.255718 213.438575 
L 328.354892 213.067224 
L 332.454065 212.990204 
L 336.553239 213.279198 
L 340.652412 213.278255 
L 344.751586 213.071788 
L 348.850759 213.481218 
L 352.949933 213.300483 
L 357.049106 213.275309 
L 361.14828 213.109661 
L 365.247454 213.311229 
L 369.346627 213.183593 
L 373.445801 213.107596 
L 377.544974 213.392743 
L 381.644148 213.207282 
L 385.743321 213.471463 
L 389.842495 213.413082 
L 393.941668 213.342169 
L 398.040842 213.440675 
L 402.140015 213.056573 
L 406.239189 213.07359 
L 410.338363 213.326472 
L 414.437536 212.945125 
L 418.53671 214.068189 
L 422.635883 213.610985 
L 426.735057 213.354674 
L 430.83423 212.804726 
L 434.933404 213.340419 
L 439.032577 213.624939 
L 443.131751 213.369499 
L 447.230925 213.286739 
L 451.330098 213.536985 
L 455.429272 213.536123 
L 459.528445 213.234094 
L 463.627619 213.694856 
L 467.726792 213.364157 
L 471.825966 213.68484 
" style="fill:none;stroke:#008000;stroke-dasharray:5.55,2.4;stroke-dashoffset:0;stroke-width:1.5;"/>
   </g>
   <g id="patch_3">
    <path d="M 45.716875 227.16872 
L 45.716875 9.72872 
" style="fill:none;stroke:#ffffff;stroke-linecap:square;stroke-linejoin:miter;"/>
   </g>
   <g id="patch_4">
    <path d="M 492.116875 227.16872 
L 492.116875 9.72872 
" style="fill:none;stroke:#ffffff;stroke-linecap:square;stroke-linejoin:miter;"/>
   </g>
   <g id="patch_5">
    <path d="M 45.716875 227.16872 
L 492.116875 227.16872 
" style="fill:none;stroke:#ffffff;stroke-linecap:square;stroke-linejoin:miter;"/>
   </g>
   <g id="patch_6">
    <path d="M 45.716875 9.72872 
L 492.116875 9.72872 
" style="fill:none;stroke:#ffffff;stroke-linecap:square;stroke-linejoin:miter;"/>
   </g>
   <g id="legend_1">
    <g id="patch_7">
     <path d="M 499.116875 105.79747 
L 600.47 105.79747 
Q 602.47 105.79747 602.47 103.79747 
L 602.47 16.72872 
Q 602.47 14.72872 600.47 14.72872 
L 499.116875 14.72872 
Q 497.116875 14.72872 497.116875 16.72872 
L 497.116875 103.79747 
Q 497.116875 105.79747 499.116875 105.79747 
z
" style="fill:#e5e5e5;opacity:0.8;stroke:#cccccc;stroke-linejoin:miter;stroke-width:0.5;"/>
    </g>
    <g id="line2d_35">
     <path d="M 501.116875 22.827158 
L 521.116875 22.827158 
" style="fill:none;stroke:#ff0000;stroke-linecap:square;stroke-width:1.5;"/>
    </g>
    <g id="line2d_36"/>
    <g id="text_17">
     <!-- L1 1e-1(train) -->
     <g transform="translate(529.116875 26.327158)scale(0.1 -0.1)">
      <defs>
       <path d="M 628 4666 
L 1259 4666 
L 1259 531 
L 3531 531 
L 3531 0 
L 628 0 
L 628 4666 
z
" id="DejaVuSans-4c" transform="scale(0.015625)"/>
       <path d="M 313 2009 
L 1997 2009 
L 1997 1497 
L 313 1497 
L 313 2009 
z
" id="DejaVuSans-2d" transform="scale(0.015625)"/>
       <path d="M 1984 4856 
Q 1566 4138 1362 3434 
Q 1159 2731 1159 2009 
Q 1159 1288 1364 580 
Q 1569 -128 1984 -844 
L 1484 -844 
Q 1016 -109 783 600 
Q 550 1309 550 2009 
Q 550 2706 781 3412 
Q 1013 4119 1484 4856 
L 1984 4856 
z
" id="DejaVuSans-28" transform="scale(0.015625)"/>
       <path d="M 1172 4494 
L 1172 3500 
L 2356 3500 
L 2356 3053 
L 1172 3053 
L 1172 1153 
Q 1172 725 1289 603 
Q 1406 481 1766 481 
L 2356 481 
L 2356 0 
L 1766 0 
Q 1100 0 847 248 
Q 594 497 594 1153 
L 594 3053 
L 172 3053 
L 172 3500 
L 594 3500 
L 594 4494 
L 1172 4494 
z
" id="DejaVuSans-74" transform="scale(0.015625)"/>
       <path d="M 2194 1759 
Q 1497 1759 1228 1600 
Q 959 1441 959 1056 
Q 959 750 1161 570 
Q 1363 391 1709 391 
Q 2188 391 2477 730 
Q 2766 1069 2766 1631 
L 2766 1759 
L 2194 1759 
z
M 3341 1997 
L 3341 0 
L 2766 0 
L 2766 531 
Q 2569 213 2275 61 
Q 1981 -91 1556 -91 
Q 1019 -91 701 211 
Q 384 513 384 1019 
Q 384 1609 779 1909 
Q 1175 2209 1959 2209 
L 2766 2209 
L 2766 2266 
Q 2766 2663 2505 2880 
Q 2244 3097 1772 3097 
Q 1472 3097 1187 3025 
Q 903 2953 641 2809 
L 641 3341 
Q 956 3463 1253 3523 
Q 1550 3584 1831 3584 
Q 2591 3584 2966 3190 
Q 3341 2797 3341 1997 
z
" id="DejaVuSans-61" transform="scale(0.015625)"/>
       <path d="M 603 3500 
L 1178 3500 
L 1178 0 
L 603 0 
L 603 3500 
z
M 603 4863 
L 1178 4863 
L 1178 4134 
L 603 4134 
L 603 4863 
z
" id="DejaVuSans-69" transform="scale(0.015625)"/>
       <path d="M 513 4856 
L 1013 4856 
Q 1481 4119 1714 3412 
Q 1947 2706 1947 2009 
Q 1947 1309 1714 600 
Q 1481 -109 1013 -844 
L 513 -844 
Q 928 -128 1133 580 
Q 1338 1288 1338 2009 
Q 1338 2731 1133 3434 
Q 928 4138 513 4856 
z
" id="DejaVuSans-29" transform="scale(0.015625)"/>
      </defs>
      <use xlink:href="#DejaVuSans-4c"/>
      <use x="55.712891" xlink:href="#DejaVuSans-31"/>
      <use x="119.335938" xlink:href="#DejaVuSans-20"/>
      <use x="151.123047" xlink:href="#DejaVuSans-31"/>
      <use x="214.746094" xlink:href="#DejaVuSans-65"/>
      <use x="276.269531" xlink:href="#DejaVuSans-2d"/>
      <use x="312.353516" xlink:href="#DejaVuSans-31"/>
      <use x="375.976562" xlink:href="#DejaVuSans-28"/>
      <use x="414.990234" xlink:href="#DejaVuSans-74"/>
      <use x="454.199219" xlink:href="#DejaVuSans-72"/>
      <use x="495.3125" xlink:href="#DejaVuSans-61"/>
      <use x="556.591797" xlink:href="#DejaVuSans-69"/>
      <use x="584.375" xlink:href="#DejaVuSans-6e"/>
      <use x="647.753906" xlink:href="#DejaVuSans-29"/>
     </g>
    </g>
    <g id="line2d_37">
     <path d="M 501.116875 37.505283 
L 521.116875 37.505283 
" style="fill:none;stroke:#0000ff;stroke-linecap:square;stroke-width:1.5;"/>
    </g>
    <g id="line2d_38"/>
    <g id="text_18">
     <!-- L1 1e-3(train) -->
     <g transform="translate(529.116875 41.005283)scale(0.1 -0.1)">
      <use xlink:href="#DejaVuSans-4c"/>
      <use x="55.712891" xlink:href="#DejaVuSans-31"/>
      <use x="119.335938" xlink:href="#DejaVuSans-20"/>
      <use x="151.123047" xlink:href="#DejaVuSans-31"/>
      <use x="214.746094" xlink:href="#DejaVuSans-65"/>
      <use x="276.269531" xlink:href="#DejaVuSans-2d"/>
      <use x="312.353516" xlink:href="#DejaVuSans-33"/>
      <use x="375.976562" xlink:href="#DejaVuSans-28"/>
      <use x="414.990234" xlink:href="#DejaVuSans-74"/>
      <use x="454.199219" xlink:href="#DejaVuSans-72"/>
      <use x="495.3125" xlink:href="#DejaVuSans-61"/>
      <use x="556.591797" xlink:href="#DejaVuSans-69"/>
      <use x="584.375" xlink:href="#DejaVuSans-6e"/>
      <use x="647.753906" xlink:href="#DejaVuSans-29"/>
     </g>
    </g>
    <g id="line2d_39">
     <path d="M 501.116875 52.183408 
L 521.116875 52.183408 
" style="fill:none;stroke:#800080;stroke-linecap:square;stroke-width:1.5;"/>
    </g>
    <g id="line2d_40"/>
    <g id="text_19">
     <!-- L1 1e-4(train) -->
     <g transform="translate(529.116875 55.683408)scale(0.1 -0.1)">
      <use xlink:href="#DejaVuSans-4c"/>
      <use x="55.712891" xlink:href="#DejaVuSans-31"/>
      <use x="119.335938" xlink:href="#DejaVuSans-20"/>
      <use x="151.123047" xlink:href="#DejaVuSans-31"/>
      <use x="214.746094" xlink:href="#DejaVuSans-65"/>
      <use x="276.269531" xlink:href="#DejaVuSans-2d"/>
      <use x="312.353516" xlink:href="#DejaVuSans-34"/>
      <use x="375.976562" xlink:href="#DejaVuSans-28"/>
      <use x="414.990234" xlink:href="#DejaVuSans-74"/>
      <use x="454.199219" xlink:href="#DejaVuSans-72"/>
      <use x="495.3125" xlink:href="#DejaVuSans-61"/>
      <use x="556.591797" xlink:href="#DejaVuSans-69"/>
      <use x="584.375" xlink:href="#DejaVuSans-6e"/>
      <use x="647.753906" xlink:href="#DejaVuSans-29"/>
     </g>
    </g>
    <g id="line2d_41">
     <path d="M 501.116875 66.861533 
L 521.116875 66.861533 
" style="fill:none;stroke:#808080;stroke-dasharray:5.55,2.4;stroke-dashoffset:0;stroke-width:1.5;"/>
    </g>
    <g id="line2d_42"/>
    <g id="text_20">
     <!-- L1 1e-1(valid) -->
     <g transform="translate(529.116875 70.361533)scale(0.1 -0.1)">
      <defs>
       <path d="M 191 3500 
L 800 3500 
L 1894 563 
L 2988 3500 
L 3597 3500 
L 2284 0 
L 1503 0 
L 191 3500 
z
" id="DejaVuSans-76" transform="scale(0.015625)"/>
       <path d="M 603 4863 
L 1178 4863 
L 1178 0 
L 603 0 
L 603 4863 
z
" id="DejaVuSans-6c" transform="scale(0.015625)"/>
       <path d="M 2906 2969 
L 2906 4863 
L 3481 4863 
L 3481 0 
L 2906 0 
L 2906 525 
Q 2725 213 2448 61 
Q 2172 -91 1784 -91 
Q 1150 -91 751 415 
Q 353 922 353 1747 
Q 353 2572 751 3078 
Q 1150 3584 1784 3584 
Q 2172 3584 2448 3432 
Q 2725 3281 2906 2969 
z
M 947 1747 
Q 947 1113 1208 752 
Q 1469 391 1925 391 
Q 2381 391 2643 752 
Q 2906 1113 2906 1747 
Q 2906 2381 2643 2742 
Q 2381 3103 1925 3103 
Q 1469 3103 1208 2742 
Q 947 2381 947 1747 
z
" id="DejaVuSans-64" transform="scale(0.015625)"/>
      </defs>
      <use xlink:href="#DejaVuSans-4c"/>
      <use x="55.712891" xlink:href="#DejaVuSans-31"/>
      <use x="119.335938" xlink:href="#DejaVuSans-20"/>
      <use x="151.123047" xlink:href="#DejaVuSans-31"/>
      <use x="214.746094" xlink:href="#DejaVuSans-65"/>
      <use x="276.269531" xlink:href="#DejaVuSans-2d"/>
      <use x="312.353516" xlink:href="#DejaVuSans-31"/>
      <use x="375.976562" xlink:href="#DejaVuSans-28"/>
      <use x="414.990234" xlink:href="#DejaVuSans-76"/>
      <use x="474.169922" xlink:href="#DejaVuSans-61"/>
      <use x="535.449219" xlink:href="#DejaVuSans-6c"/>
      <use x="563.232422" xlink:href="#DejaVuSans-69"/>
      <use x="591.015625" xlink:href="#DejaVuSans-64"/>
      <use x="654.492188" xlink:href="#DejaVuSans-29"/>
     </g>
    </g>
    <g id="line2d_43">
     <path d="M 501.116875 81.539658 
L 521.116875 81.539658 
" style="fill:none;stroke:#ffff00;stroke-dasharray:5.55,2.4;stroke-dashoffset:0;stroke-width:1.5;"/>
    </g>
    <g id="line2d_44"/>
    <g id="text_21">
     <!-- L1 1e-3(valid) -->
     <g transform="translate(529.116875 85.039658)scale(0.1 -0.1)">
      <use xlink:href="#DejaVuSans-4c"/>
      <use x="55.712891" xlink:href="#DejaVuSans-31"/>
      <use x="119.335938" xlink:href="#DejaVuSans-20"/>
      <use x="151.123047" xlink:href="#DejaVuSans-31"/>
      <use x="214.746094" xlink:href="#DejaVuSans-65"/>
      <use x="276.269531" xlink:href="#DejaVuSans-2d"/>
      <use x="312.353516" xlink:href="#DejaVuSans-33"/>
      <use x="375.976562" xlink:href="#DejaVuSans-28"/>
      <use x="414.990234" xlink:href="#DejaVuSans-76"/>
      <use x="474.169922" xlink:href="#DejaVuSans-61"/>
      <use x="535.449219" xlink:href="#DejaVuSans-6c"/>
      <use x="563.232422" xlink:href="#DejaVuSans-69"/>
      <use x="591.015625" xlink:href="#DejaVuSans-64"/>
      <use x="654.492188" xlink:href="#DejaVuSans-29"/>
     </g>
    </g>
    <g id="line2d_45">
     <path d="M 501.116875 96.217783 
L 521.116875 96.217783 
" style="fill:none;stroke:#008000;stroke-dasharray:5.55,2.4;stroke-dashoffset:0;stroke-width:1.5;"/>
    </g>
    <g id="line2d_46"/>
    <g id="text_22">
     <!-- L1 1e-4(valid) -->
     <g transform="translate(529.116875 99.717783)scale(0.1 -0.1)">
      <use xlink:href="#DejaVuSans-4c"/>
      <use x="55.712891" xlink:href="#DejaVuSans-31"/>
      <use x="119.335938" xlink:href="#DejaVuSans-20"/>
      <use x="151.123047" xlink:href="#DejaVuSans-31"/>
      <use x="214.746094" xlink:href="#DejaVuSans-65"/>
      <use x="276.269531" xlink:href="#DejaVuSans-2d"/>
      <use x="312.353516" xlink:href="#DejaVuSans-34"/>
      <use x="375.976562" xlink:href="#DejaVuSans-28"/>
      <use x="414.990234" xlink:href="#DejaVuSans-76"/>
      <use x="474.169922" xlink:href="#DejaVuSans-61"/>
      <use x="535.449219" xlink:href="#DejaVuSans-6c"/>
      <use x="563.232422" xlink:href="#DejaVuSans-69"/>
      <use x="591.015625" xlink:href="#DejaVuSans-64"/>
      <use x="654.492188" xlink:href="#DejaVuSans-29"/>
     </g>
    </g>
   </g>
  </g>
 </g>
 <defs>
  <clipPath id="pf62610f8aa">
   <rect height="217.44" width="446.4" x="45.716875" y="9.72872"/>
  </clipPath>
 </defs>
</svg>
