<?xml version="1.0" encoding="utf-8" standalone="no"?>
<!DOCTYPE svg PUBLIC "-//W3C//DTD SVG 1.1//EN"
  "http://www.w3.org/Graphics/SVG/1.1/DTD/svg11.dtd">
<svg height="267.422205pt" version="1.1" viewBox="0 0 636.593437 267.422205" width="636.593437pt" xmlns="http://www.w3.org/2000/svg" xmlns:xlink="http://www.w3.org/1999/xlink">
 <metadata>
  <rdf:RDF xmlns:cc="http://creativecommons.org/ns#" xmlns:dc="http://purl.org/dc/elements/1.1/" xmlns:rdf="http://www.w3.org/1999/02/22-rdf-syntax-ns#">
   <cc:Work>
    <dc:type rdf:resource="http://purl.org/dc/dcmitype/StillImage"/>
    <dc:date>2021-11-04T18:06:38.574299</dc:date>
    <dc:format>image/svg+xml</dc:format>
    <dc:creator>
     <cc:Agent>
      <dc:title>Matplotlib v3.4.2, https://matplotlib.org/</dc:title>
     </cc:Agent>
    </dc:creator>
   </cc:Work>
  </rdf:RDF>
 </metadata>
 <defs>
  <style type="text/css">*{stroke-linecap:butt;stroke-linejoin:round;}</style>
 </defs>
 <g id="figure_1">
  <g id="patch_1">
   <path d="M 0 267.422205 
L 636.593437 267.422205 
L 636.593437 0 
L 0 0 
z
" style="fill:#ffffff;"/>
  </g>
  <g id="axes_1">
   <g id="patch_2">
    <path d="M 45.716875 227.93033 
L 492.116875 227.93033 
L 492.116875 10.49033 
L 45.716875 10.49033 
z
" style="fill:#e5e5e5;"/>
   </g>
   <g id="matplotlib.axis_1">
    <g id="xtick_1">
     <g id="line2d_1">
      <path clip-path="url(#pa9be9906ee)" d="M 61.908611 227.93033 
L 61.908611 10.49033 
" style="fill:none;stroke:#ffffff;stroke-linecap:square;stroke-width:0.8;"/>
     </g>
     <g id="line2d_2">
      <defs>
       <path d="M 0 0 
L 0 3.5 
" id="md7ec6b3760" style="stroke:#555555;stroke-width:0.8;"/>
      </defs>
      <g>
       <use style="fill:#555555;stroke:#555555;stroke-width:0.8;" x="61.908611" xlink:href="#md7ec6b3760" y="227.93033"/>
      </g>
     </g>
     <g id="text_1">
      <!-- 0 -->
      <g style="fill:#555555;" transform="translate(58.727361 242.528768)scale(0.1 -0.1)">
       <defs>
        <path d="M 2034 4250 
Q 1547 4250 1301 3770 
Q 1056 3291 1056 2328 
Q 1056 1369 1301 889 
Q 1547 409 2034 409 
Q 2525 409 2770 889 
Q 3016 1369 3016 2328 
Q 3016 3291 2770 3770 
Q 2525 4250 2034 4250 
z
M 2034 4750 
Q 2819 4750 3233 4129 
Q 3647 3509 3647 2328 
Q 3647 1150 3233 529 
Q 2819 -91 2034 -91 
Q 1250 -91 836 529 
Q 422 1150 422 2328 
Q 422 3509 836 4129 
Q 1250 4750 2034 4750 
z
" id="DejaVuSans-30" transform="scale(0.015625)"/>
       </defs>
       <use xlink:href="#DejaVuSans-30"/>
      </g>
     </g>
    </g>
    <g id="xtick_2">
     <g id="line2d_3">
      <path clip-path="url(#pa9be9906ee)" d="M 143.892082 227.93033 
L 143.892082 10.49033 
" style="fill:none;stroke:#ffffff;stroke-linecap:square;stroke-width:0.8;"/>
     </g>
     <g id="line2d_4">
      <g>
       <use style="fill:#555555;stroke:#555555;stroke-width:0.8;" x="143.892082" xlink:href="#md7ec6b3760" y="227.93033"/>
      </g>
     </g>
     <g id="text_2">
      <!-- 20 -->
      <g style="fill:#555555;" transform="translate(137.529582 242.528768)scale(0.1 -0.1)">
       <defs>
        <path d="M 1228 531 
L 3431 531 
L 3431 0 
L 469 0 
L 469 531 
Q 828 903 1448 1529 
Q 2069 2156 2228 2338 
Q 2531 2678 2651 2914 
Q 2772 3150 2772 3378 
Q 2772 3750 2511 3984 
Q 2250 4219 1831 4219 
Q 1534 4219 1204 4116 
Q 875 4013 500 3803 
L 500 4441 
Q 881 4594 1212 4672 
Q 1544 4750 1819 4750 
Q 2544 4750 2975 4387 
Q 3406 4025 3406 3419 
Q 3406 3131 3298 2873 
Q 3191 2616 2906 2266 
Q 2828 2175 2409 1742 
Q 1991 1309 1228 531 
z
" id="DejaVuSans-32" transform="scale(0.015625)"/>
       </defs>
       <use xlink:href="#DejaVuSans-32"/>
       <use x="63.623047" xlink:href="#DejaVuSans-30"/>
      </g>
     </g>
    </g>
    <g id="xtick_3">
     <g id="line2d_5">
      <path clip-path="url(#pa9be9906ee)" d="M 225.875553 227.93033 
L 225.875553 10.49033 
" style="fill:none;stroke:#ffffff;stroke-linecap:square;stroke-width:0.8;"/>
     </g>
     <g id="line2d_6">
      <g>
       <use style="fill:#555555;stroke:#555555;stroke-width:0.8;" x="225.875553" xlink:href="#md7ec6b3760" y="227.93033"/>
      </g>
     </g>
     <g id="text_3">
      <!-- 40 -->
      <g style="fill:#555555;" transform="translate(219.513053 242.528768)scale(0.1 -0.1)">
       <defs>
        <path d="M 2419 4116 
L 825 1625 
L 2419 1625 
L 2419 4116 
z
M 2253 4666 
L 3047 4666 
L 3047 1625 
L 3713 1625 
L 3713 1100 
L 3047 1100 
L 3047 0 
L 2419 0 
L 2419 1100 
L 313 1100 
L 313 1709 
L 2253 4666 
z
" id="DejaVuSans-34" transform="scale(0.015625)"/>
       </defs>
       <use xlink:href="#DejaVuSans-34"/>
       <use x="63.623047" xlink:href="#DejaVuSans-30"/>
      </g>
     </g>
    </g>
    <g id="xtick_4">
     <g id="line2d_7">
      <path clip-path="url(#pa9be9906ee)" d="M 307.859024 227.93033 
L 307.859024 10.49033 
" style="fill:none;stroke:#ffffff;stroke-linecap:square;stroke-width:0.8;"/>
     </g>
     <g id="line2d_8">
      <g>
       <use style="fill:#555555;stroke:#555555;stroke-width:0.8;" x="307.859024" xlink:href="#md7ec6b3760" y="227.93033"/>
      </g>
     </g>
     <g id="text_4">
      <!-- 60 -->
      <g style="fill:#555555;" transform="translate(301.496524 242.528768)scale(0.1 -0.1)">
       <defs>
        <path d="M 2113 2584 
Q 1688 2584 1439 2293 
Q 1191 2003 1191 1497 
Q 1191 994 1439 701 
Q 1688 409 2113 409 
Q 2538 409 2786 701 
Q 3034 994 3034 1497 
Q 3034 2003 2786 2293 
Q 2538 2584 2113 2584 
z
M 3366 4563 
L 3366 3988 
Q 3128 4100 2886 4159 
Q 2644 4219 2406 4219 
Q 1781 4219 1451 3797 
Q 1122 3375 1075 2522 
Q 1259 2794 1537 2939 
Q 1816 3084 2150 3084 
Q 2853 3084 3261 2657 
Q 3669 2231 3669 1497 
Q 3669 778 3244 343 
Q 2819 -91 2113 -91 
Q 1303 -91 875 529 
Q 447 1150 447 2328 
Q 447 3434 972 4092 
Q 1497 4750 2381 4750 
Q 2619 4750 2861 4703 
Q 3103 4656 3366 4563 
z
" id="DejaVuSans-36" transform="scale(0.015625)"/>
       </defs>
       <use xlink:href="#DejaVuSans-36"/>
       <use x="63.623047" xlink:href="#DejaVuSans-30"/>
      </g>
     </g>
    </g>
    <g id="xtick_5">
     <g id="line2d_9">
      <path clip-path="url(#pa9be9906ee)" d="M 389.842495 227.93033 
L 389.842495 10.49033 
" style="fill:none;stroke:#ffffff;stroke-linecap:square;stroke-width:0.8;"/>
     </g>
     <g id="line2d_10">
      <g>
       <use style="fill:#555555;stroke:#555555;stroke-width:0.8;" x="389.842495" xlink:href="#md7ec6b3760" y="227.93033"/>
      </g>
     </g>
     <g id="text_5">
      <!-- 80 -->
      <g style="fill:#555555;" transform="translate(383.479995 242.528768)scale(0.1 -0.1)">
       <defs>
        <path d="M 2034 2216 
Q 1584 2216 1326 1975 
Q 1069 1734 1069 1313 
Q 1069 891 1326 650 
Q 1584 409 2034 409 
Q 2484 409 2743 651 
Q 3003 894 3003 1313 
Q 3003 1734 2745 1975 
Q 2488 2216 2034 2216 
z
M 1403 2484 
Q 997 2584 770 2862 
Q 544 3141 544 3541 
Q 544 4100 942 4425 
Q 1341 4750 2034 4750 
Q 2731 4750 3128 4425 
Q 3525 4100 3525 3541 
Q 3525 3141 3298 2862 
Q 3072 2584 2669 2484 
Q 3125 2378 3379 2068 
Q 3634 1759 3634 1313 
Q 3634 634 3220 271 
Q 2806 -91 2034 -91 
Q 1263 -91 848 271 
Q 434 634 434 1313 
Q 434 1759 690 2068 
Q 947 2378 1403 2484 
z
M 1172 3481 
Q 1172 3119 1398 2916 
Q 1625 2713 2034 2713 
Q 2441 2713 2670 2916 
Q 2900 3119 2900 3481 
Q 2900 3844 2670 4047 
Q 2441 4250 2034 4250 
Q 1625 4250 1398 4047 
Q 1172 3844 1172 3481 
z
" id="DejaVuSans-38" transform="scale(0.015625)"/>
       </defs>
       <use xlink:href="#DejaVuSans-38"/>
       <use x="63.623047" xlink:href="#DejaVuSans-30"/>
      </g>
     </g>
    </g>
    <g id="xtick_6">
     <g id="line2d_11">
      <path clip-path="url(#pa9be9906ee)" d="M 471.825966 227.93033 
L 471.825966 10.49033 
" style="fill:none;stroke:#ffffff;stroke-linecap:square;stroke-width:0.8;"/>
     </g>
     <g id="line2d_12">
      <g>
       <use style="fill:#555555;stroke:#555555;stroke-width:0.8;" x="471.825966" xlink:href="#md7ec6b3760" y="227.93033"/>
      </g>
     </g>
     <g id="text_6">
      <!-- 100 -->
      <g style="fill:#555555;" transform="translate(462.282216 242.528768)scale(0.1 -0.1)">
       <defs>
        <path d="M 794 531 
L 1825 531 
L 1825 4091 
L 703 3866 
L 703 4441 
L 1819 4666 
L 2450 4666 
L 2450 531 
L 3481 531 
L 3481 0 
L 794 0 
L 794 531 
z
" id="DejaVuSans-31" transform="scale(0.015625)"/>
       </defs>
       <use xlink:href="#DejaVuSans-31"/>
       <use x="63.623047" xlink:href="#DejaVuSans-30"/>
       <use x="127.246094" xlink:href="#DejaVuSans-30"/>
      </g>
     </g>
    </g>
    <g id="text_7">
     <!-- Epoch number -->
     <g style="fill:#555555;" transform="translate(225.22 257.72658)scale(0.12 -0.12)">
      <defs>
       <path d="M 628 4666 
L 3578 4666 
L 3578 4134 
L 1259 4134 
L 1259 2753 
L 3481 2753 
L 3481 2222 
L 1259 2222 
L 1259 531 
L 3634 531 
L 3634 0 
L 628 0 
L 628 4666 
z
" id="DejaVuSans-45" transform="scale(0.015625)"/>
       <path d="M 1159 525 
L 1159 -1331 
L 581 -1331 
L 581 3500 
L 1159 3500 
L 1159 2969 
Q 1341 3281 1617 3432 
Q 1894 3584 2278 3584 
Q 2916 3584 3314 3078 
Q 3713 2572 3713 1747 
Q 3713 922 3314 415 
Q 2916 -91 2278 -91 
Q 1894 -91 1617 61 
Q 1341 213 1159 525 
z
M 3116 1747 
Q 3116 2381 2855 2742 
Q 2594 3103 2138 3103 
Q 1681 3103 1420 2742 
Q 1159 2381 1159 1747 
Q 1159 1113 1420 752 
Q 1681 391 2138 391 
Q 2594 391 2855 752 
Q 3116 1113 3116 1747 
z
" id="DejaVuSans-70" transform="scale(0.015625)"/>
       <path d="M 1959 3097 
Q 1497 3097 1228 2736 
Q 959 2375 959 1747 
Q 959 1119 1226 758 
Q 1494 397 1959 397 
Q 2419 397 2687 759 
Q 2956 1122 2956 1747 
Q 2956 2369 2687 2733 
Q 2419 3097 1959 3097 
z
M 1959 3584 
Q 2709 3584 3137 3096 
Q 3566 2609 3566 1747 
Q 3566 888 3137 398 
Q 2709 -91 1959 -91 
Q 1206 -91 779 398 
Q 353 888 353 1747 
Q 353 2609 779 3096 
Q 1206 3584 1959 3584 
z
" id="DejaVuSans-6f" transform="scale(0.015625)"/>
       <path d="M 3122 3366 
L 3122 2828 
Q 2878 2963 2633 3030 
Q 2388 3097 2138 3097 
Q 1578 3097 1268 2742 
Q 959 2388 959 1747 
Q 959 1106 1268 751 
Q 1578 397 2138 397 
Q 2388 397 2633 464 
Q 2878 531 3122 666 
L 3122 134 
Q 2881 22 2623 -34 
Q 2366 -91 2075 -91 
Q 1284 -91 818 406 
Q 353 903 353 1747 
Q 353 2603 823 3093 
Q 1294 3584 2113 3584 
Q 2378 3584 2631 3529 
Q 2884 3475 3122 3366 
z
" id="DejaVuSans-63" transform="scale(0.015625)"/>
       <path d="M 3513 2113 
L 3513 0 
L 2938 0 
L 2938 2094 
Q 2938 2591 2744 2837 
Q 2550 3084 2163 3084 
Q 1697 3084 1428 2787 
Q 1159 2491 1159 1978 
L 1159 0 
L 581 0 
L 581 4863 
L 1159 4863 
L 1159 2956 
Q 1366 3272 1645 3428 
Q 1925 3584 2291 3584 
Q 2894 3584 3203 3211 
Q 3513 2838 3513 2113 
z
" id="DejaVuSans-68" transform="scale(0.015625)"/>
       <path id="DejaVuSans-20" transform="scale(0.015625)"/>
       <path d="M 3513 2113 
L 3513 0 
L 2938 0 
L 2938 2094 
Q 2938 2591 2744 2837 
Q 2550 3084 2163 3084 
Q 1697 3084 1428 2787 
Q 1159 2491 1159 1978 
L 1159 0 
L 581 0 
L 581 3500 
L 1159 3500 
L 1159 2956 
Q 1366 3272 1645 3428 
Q 1925 3584 2291 3584 
Q 2894 3584 3203 3211 
Q 3513 2838 3513 2113 
z
" id="DejaVuSans-6e" transform="scale(0.015625)"/>
       <path d="M 544 1381 
L 544 3500 
L 1119 3500 
L 1119 1403 
Q 1119 906 1312 657 
Q 1506 409 1894 409 
Q 2359 409 2629 706 
Q 2900 1003 2900 1516 
L 2900 3500 
L 3475 3500 
L 3475 0 
L 2900 0 
L 2900 538 
Q 2691 219 2414 64 
Q 2138 -91 1772 -91 
Q 1169 -91 856 284 
Q 544 659 544 1381 
z
M 1991 3584 
L 1991 3584 
z
" id="DejaVuSans-75" transform="scale(0.015625)"/>
       <path d="M 3328 2828 
Q 3544 3216 3844 3400 
Q 4144 3584 4550 3584 
Q 5097 3584 5394 3201 
Q 5691 2819 5691 2113 
L 5691 0 
L 5113 0 
L 5113 2094 
Q 5113 2597 4934 2840 
Q 4756 3084 4391 3084 
Q 3944 3084 3684 2787 
Q 3425 2491 3425 1978 
L 3425 0 
L 2847 0 
L 2847 2094 
Q 2847 2600 2669 2842 
Q 2491 3084 2119 3084 
Q 1678 3084 1418 2786 
Q 1159 2488 1159 1978 
L 1159 0 
L 581 0 
L 581 3500 
L 1159 3500 
L 1159 2956 
Q 1356 3278 1631 3431 
Q 1906 3584 2284 3584 
Q 2666 3584 2933 3390 
Q 3200 3197 3328 2828 
z
" id="DejaVuSans-6d" transform="scale(0.015625)"/>
       <path d="M 3116 1747 
Q 3116 2381 2855 2742 
Q 2594 3103 2138 3103 
Q 1681 3103 1420 2742 
Q 1159 2381 1159 1747 
Q 1159 1113 1420 752 
Q 1681 391 2138 391 
Q 2594 391 2855 752 
Q 3116 1113 3116 1747 
z
M 1159 2969 
Q 1341 3281 1617 3432 
Q 1894 3584 2278 3584 
Q 2916 3584 3314 3078 
Q 3713 2572 3713 1747 
Q 3713 922 3314 415 
Q 2916 -91 2278 -91 
Q 1894 -91 1617 61 
Q 1341 213 1159 525 
L 1159 0 
L 581 0 
L 581 4863 
L 1159 4863 
L 1159 2969 
z
" id="DejaVuSans-62" transform="scale(0.015625)"/>
       <path d="M 3597 1894 
L 3597 1613 
L 953 1613 
Q 991 1019 1311 708 
Q 1631 397 2203 397 
Q 2534 397 2845 478 
Q 3156 559 3463 722 
L 3463 178 
Q 3153 47 2828 -22 
Q 2503 -91 2169 -91 
Q 1331 -91 842 396 
Q 353 884 353 1716 
Q 353 2575 817 3079 
Q 1281 3584 2069 3584 
Q 2775 3584 3186 3129 
Q 3597 2675 3597 1894 
z
M 3022 2063 
Q 3016 2534 2758 2815 
Q 2500 3097 2075 3097 
Q 1594 3097 1305 2825 
Q 1016 2553 972 2059 
L 3022 2063 
z
" id="DejaVuSans-65" transform="scale(0.015625)"/>
       <path d="M 2631 2963 
Q 2534 3019 2420 3045 
Q 2306 3072 2169 3072 
Q 1681 3072 1420 2755 
Q 1159 2438 1159 1844 
L 1159 0 
L 581 0 
L 581 3500 
L 1159 3500 
L 1159 2956 
Q 1341 3275 1631 3429 
Q 1922 3584 2338 3584 
Q 2397 3584 2469 3576 
Q 2541 3569 2628 3553 
L 2631 2963 
z
" id="DejaVuSans-72" transform="scale(0.015625)"/>
      </defs>
      <use xlink:href="#DejaVuSans-45"/>
      <use x="63.183594" xlink:href="#DejaVuSans-70"/>
      <use x="126.660156" xlink:href="#DejaVuSans-6f"/>
      <use x="187.841797" xlink:href="#DejaVuSans-63"/>
      <use x="242.822266" xlink:href="#DejaVuSans-68"/>
      <use x="306.201172" xlink:href="#DejaVuSans-20"/>
      <use x="337.988281" xlink:href="#DejaVuSans-6e"/>
      <use x="401.367188" xlink:href="#DejaVuSans-75"/>
      <use x="464.746094" xlink:href="#DejaVuSans-6d"/>
      <use x="562.158203" xlink:href="#DejaVuSans-62"/>
      <use x="625.634766" xlink:href="#DejaVuSans-65"/>
      <use x="687.158203" xlink:href="#DejaVuSans-72"/>
     </g>
    </g>
   </g>
   <g id="matplotlib.axis_2">
    <g id="ytick_1">
     <g id="line2d_13">
      <path clip-path="url(#pa9be9906ee)" d="M 45.716875 225.566938 
L 492.116875 225.566938 
" style="fill:none;stroke:#ffffff;stroke-linecap:square;stroke-width:0.8;"/>
     </g>
     <g id="line2d_14">
      <defs>
       <path d="M 0 0 
L -3.5 0 
" id="m942a655b0d" style="stroke:#555555;stroke-width:0.8;"/>
      </defs>
      <g>
       <use style="fill:#555555;stroke:#555555;stroke-width:0.8;" x="45.716875" xlink:href="#m942a655b0d" y="225.566938"/>
      </g>
     </g>
     <g id="text_8">
      <!-- 0.2 -->
      <g style="fill:#555555;" transform="translate(22.81375 229.366157)scale(0.1 -0.1)">
       <defs>
        <path d="M 684 794 
L 1344 794 
L 1344 0 
L 684 0 
L 684 794 
z
" id="DejaVuSans-2e" transform="scale(0.015625)"/>
       </defs>
       <use xlink:href="#DejaVuSans-30"/>
       <use x="63.623047" xlink:href="#DejaVuSans-2e"/>
       <use x="95.410156" xlink:href="#DejaVuSans-32"/>
      </g>
     </g>
    </g>
    <g id="ytick_2">
     <g id="line2d_15">
      <path clip-path="url(#pa9be9906ee)" d="M 45.716875 182.653394 
L 492.116875 182.653394 
" style="fill:none;stroke:#ffffff;stroke-linecap:square;stroke-width:0.8;"/>
     </g>
     <g id="line2d_16">
      <g>
       <use style="fill:#555555;stroke:#555555;stroke-width:0.8;" x="45.716875" xlink:href="#m942a655b0d" y="182.653394"/>
      </g>
     </g>
     <g id="text_9">
      <!-- 0.4 -->
      <g style="fill:#555555;" transform="translate(22.81375 186.452613)scale(0.1 -0.1)">
       <use xlink:href="#DejaVuSans-30"/>
       <use x="63.623047" xlink:href="#DejaVuSans-2e"/>
       <use x="95.410156" xlink:href="#DejaVuSans-34"/>
      </g>
     </g>
    </g>
    <g id="ytick_3">
     <g id="line2d_17">
      <path clip-path="url(#pa9be9906ee)" d="M 45.716875 139.739851 
L 492.116875 139.739851 
" style="fill:none;stroke:#ffffff;stroke-linecap:square;stroke-width:0.8;"/>
     </g>
     <g id="line2d_18">
      <g>
       <use style="fill:#555555;stroke:#555555;stroke-width:0.8;" x="45.716875" xlink:href="#m942a655b0d" y="139.739851"/>
      </g>
     </g>
     <g id="text_10">
      <!-- 0.6 -->
      <g style="fill:#555555;" transform="translate(22.81375 143.539069)scale(0.1 -0.1)">
       <use xlink:href="#DejaVuSans-30"/>
       <use x="63.623047" xlink:href="#DejaVuSans-2e"/>
       <use x="95.410156" xlink:href="#DejaVuSans-36"/>
      </g>
     </g>
    </g>
    <g id="ytick_4">
     <g id="line2d_19">
      <path clip-path="url(#pa9be9906ee)" d="M 45.716875 96.826307 
L 492.116875 96.826307 
" style="fill:none;stroke:#ffffff;stroke-linecap:square;stroke-width:0.8;"/>
     </g>
     <g id="line2d_20">
      <g>
       <use style="fill:#555555;stroke:#555555;stroke-width:0.8;" x="45.716875" xlink:href="#m942a655b0d" y="96.826307"/>
      </g>
     </g>
     <g id="text_11">
      <!-- 0.8 -->
      <g style="fill:#555555;" transform="translate(22.81375 100.625525)scale(0.1 -0.1)">
       <use xlink:href="#DejaVuSans-30"/>
       <use x="63.623047" xlink:href="#DejaVuSans-2e"/>
       <use x="95.410156" xlink:href="#DejaVuSans-38"/>
      </g>
     </g>
    </g>
    <g id="ytick_5">
     <g id="line2d_21">
      <path clip-path="url(#pa9be9906ee)" d="M 45.716875 53.912763 
L 492.116875 53.912763 
" style="fill:none;stroke:#ffffff;stroke-linecap:square;stroke-width:0.8;"/>
     </g>
     <g id="line2d_22">
      <g>
       <use style="fill:#555555;stroke:#555555;stroke-width:0.8;" x="45.716875" xlink:href="#m942a655b0d" y="53.912763"/>
      </g>
     </g>
     <g id="text_12">
      <!-- 1.0 -->
      <g style="fill:#555555;" transform="translate(22.81375 57.711981)scale(0.1 -0.1)">
       <use xlink:href="#DejaVuSans-31"/>
       <use x="63.623047" xlink:href="#DejaVuSans-2e"/>
       <use x="95.410156" xlink:href="#DejaVuSans-30"/>
      </g>
     </g>
    </g>
    <g id="ytick_6">
     <g id="line2d_23">
      <path clip-path="url(#pa9be9906ee)" d="M 45.716875 10.999219 
L 492.116875 10.999219 
" style="fill:none;stroke:#ffffff;stroke-linecap:square;stroke-width:0.8;"/>
     </g>
     <g id="line2d_24">
      <g>
       <use style="fill:#555555;stroke:#555555;stroke-width:0.8;" x="45.716875" xlink:href="#m942a655b0d" y="10.999219"/>
      </g>
     </g>
     <g id="text_13">
      <!-- 1.2 -->
      <g style="fill:#555555;" transform="translate(22.81375 14.798438)scale(0.1 -0.1)">
       <use xlink:href="#DejaVuSans-31"/>
       <use x="63.623047" xlink:href="#DejaVuSans-2e"/>
       <use x="95.410156" xlink:href="#DejaVuSans-32"/>
      </g>
     </g>
    </g>
    <g id="text_14">
     <!-- Error -->
     <g style="fill:#555555;" transform="translate(16.318125 133.832518)rotate(-90)scale(0.12 -0.12)">
      <use xlink:href="#DejaVuSans-45"/>
      <use x="63.183594" xlink:href="#DejaVuSans-72"/>
      <use x="102.546875" xlink:href="#DejaVuSans-72"/>
      <use x="141.410156" xlink:href="#DejaVuSans-6f"/>
      <use x="202.591797" xlink:href="#DejaVuSans-72"/>
     </g>
    </g>
   </g>
   <g id="line2d_25">
    <path clip-path="url(#pa9be9906ee)" d="M 66.007784 21.194381 
L 70.106958 67.559296 
L 74.206131 92.97132 
L 78.305305 108.679895 
L 82.404478 119.825777 
L 86.503652 128.742726 
L 90.602825 134.518416 
L 94.701999 137.1112 
L 98.801173 141.334389 
L 102.900346 145.75528 
L 106.99952 147.989318 
L 111.098693 150.007033 
L 115.197867 153.211091 
L 119.29704 154.424545 
L 123.396214 154.165901 
L 127.495387 157.598337 
L 131.594561 157.592369 
L 135.693735 159.584446 
L 139.792908 160.41966 
L 143.892082 161.656331 
L 147.991255 162.701001 
L 152.090429 163.36983 
L 156.189602 164.232229 
L 160.288776 164.314713 
L 164.387949 165.932915 
L 168.487123 165.039439 
L 172.586296 166.124986 
L 176.68547 167.029603 
L 180.784644 167.451505 
L 184.883817 167.740546 
L 188.982991 168.867474 
L 193.082164 168.324623 
L 197.181338 168.878864 
L 201.280511 169.730676 
L 205.379685 170.45223 
L 209.478858 170.016502 
L 213.578032 171.509483 
L 217.677206 170.985863 
L 221.776379 170.942838 
L 225.875553 171.470829 
L 229.974726 171.599119 
L 234.0739 172.550508 
L 238.173073 172.40019 
L 242.272247 172.027541 
L 246.37142 172.04405 
L 250.470594 173.346514 
L 254.569768 173.086412 
L 258.668941 173.239369 
L 262.768115 173.737994 
L 266.867288 173.916578 
L 270.966462 174.150983 
L 275.065635 174.383361 
L 279.164809 174.214485 
L 283.263982 174.666241 
L 287.363156 174.675711 
L 291.46233 175.28687 
L 295.561503 174.10196 
L 299.660677 174.764689 
L 303.75985 174.928183 
L 307.859024 174.984007 
L 311.958197 175.814084 
L 316.057371 175.228061 
L 320.156544 175.748422 
L 324.255718 175.747986 
L 328.354892 175.995459 
L 332.454065 176.337079 
L 336.553239 176.362064 
L 340.652412 176.541744 
L 344.751586 176.556939 
L 348.850759 177.059383 
L 352.949933 176.791667 
L 357.049106 176.448519 
L 361.14828 177.043157 
L 365.247454 176.486855 
L 369.346627 177.716199 
L 373.445801 177.070173 
L 377.544974 177.490262 
L 381.644148 177.772899 
L 385.743321 177.168139 
L 389.842495 178.082958 
L 393.941668 177.960381 
L 398.040842 178.106065 
L 402.140015 177.482763 
L 406.239189 178.78756 
L 410.338363 178.231351 
L 414.437536 178.192096 
L 418.53671 178.28184 
L 422.635883 177.771102 
L 426.735057 178.753418 
L 430.83423 178.673747 
L 434.933404 178.14621 
L 439.032577 178.465312 
L 443.131751 179.036895 
L 447.230925 177.872042 
L 451.330098 178.609524 
L 455.429272 179.24598 
L 459.528445 179.237872 
L 463.627619 178.023448 
L 467.726792 179.260045 
L 471.825966 179.205413 
" style="fill:none;stroke:#ff0000;stroke-linecap:square;stroke-width:1.5;"/>
   </g>
   <g id="line2d_26">
    <path clip-path="url(#pa9be9906ee)" d="M 66.007784 60.13586 
L 70.106958 106.118548 
L 74.206131 127.979219 
L 78.305305 140.938595 
L 82.404478 151.6146 
L 86.503652 157.157174 
L 90.602825 162.767645 
L 94.701999 167.41141 
L 98.801173 170.619351 
L 102.900346 173.116696 
L 106.99952 175.585282 
L 111.098693 176.850886 
L 115.197867 179.899336 
L 119.29704 181.229653 
L 123.396214 182.600873 
L 127.495387 183.484729 
L 131.594561 184.940814 
L 135.693735 186.797859 
L 139.792908 188.033187 
L 143.892082 187.187033 
L 147.991255 189.62492 
L 152.090429 189.706008 
L 156.189602 190.583312 
L 160.288776 191.698874 
L 164.387949 191.931497 
L 168.487123 192.947413 
L 172.586296 193.723121 
L 176.68547 193.653777 
L 180.784644 194.439129 
L 184.883817 195.654173 
L 188.982991 196.188326 
L 193.082164 195.760136 
L 197.181338 196.231196 
L 201.280511 196.214799 
L 205.379685 196.673884 
L 209.478858 198.00205 
L 213.578032 198.028584 
L 217.677206 197.652654 
L 221.776379 199.238223 
L 225.875553 200.169361 
L 229.974726 199.904562 
L 234.0739 200.877001 
L 238.173073 199.603249 
L 242.272247 199.789475 
L 246.37142 201.461972 
L 250.470594 200.83586 
L 254.569768 201.000966 
L 258.668941 201.771127 
L 262.768115 201.475638 
L 266.867288 203.030918 
L 270.966462 201.49292 
L 275.065635 202.621427 
L 279.164809 202.996527 
L 283.263982 203.435539 
L 287.363156 202.821646 
L 291.46233 204.023832 
L 295.561503 203.191004 
L 299.660677 203.605243 
L 303.75985 204.696294 
L 307.859024 204.028974 
L 311.958197 204.025167 
L 316.057371 204.521877 
L 320.156544 204.415567 
L 324.255718 204.265765 
L 328.354892 205.058619 
L 332.454065 205.561948 
L 336.553239 205.394429 
L 340.652412 205.581145 
L 344.751586 204.777438 
L 348.850759 205.607351 
L 352.949933 206.102368 
L 357.049106 205.979463 
L 361.14828 206.474448 
L 365.247454 206.066529 
L 369.346627 206.767157 
L 373.445801 206.257226 
L 377.544974 207.587365 
L 381.644148 206.946142 
L 385.743321 207.17211 
L 389.842495 207.024376 
L 393.941668 206.370327 
L 398.040842 207.773211 
L 402.140015 207.284874 
L 406.239189 207.477836 
L 410.338363 206.692505 
L 414.437536 206.732206 
L 418.53671 207.866806 
L 422.635883 207.96482 
L 426.735057 207.727291 
L 430.83423 207.010016 
L 434.933404 207.297813 
L 439.032577 207.935974 
L 443.131751 208.555644 
L 447.230925 208.44396 
L 451.330098 208.684577 
L 455.429272 208.202941 
L 459.528445 208.684181 
L 463.627619 208.88682 
L 467.726792 209.146409 
L 471.825966 208.548675 
" style="fill:none;stroke:#0000ff;stroke-linecap:square;stroke-width:1.5;"/>
   </g>
   <g id="line2d_27">
    <path clip-path="url(#pa9be9906ee)" d="M 66.007784 70.280459 
L 70.106958 114.51727 
L 74.206131 136.246475 
L 78.305305 148.664995 
L 82.404478 155.741621 
L 86.503652 163.933201 
L 90.602825 167.806887 
L 94.701999 172.024205 
L 98.801173 174.138584 
L 102.900346 178.183487 
L 106.99952 181.036134 
L 111.098693 182.519372 
L 115.197867 185.115815 
L 119.29704 187.04657 
L 123.396214 188.212593 
L 127.495387 189.15159 
L 131.594561 190.868108 
L 135.693735 191.141946 
L 139.792908 193.454418 
L 143.892082 193.94289 
L 147.991255 195.518209 
L 152.090429 196.78792 
L 156.189602 197.977604 
L 160.288776 198.334838 
L 164.387949 199.236454 
L 168.487123 199.083195 
L 172.586296 200.167998 
L 176.68547 200.460012 
L 180.784644 200.241532 
L 184.883817 201.565211 
L 188.982991 201.80997 
L 193.082164 202.70517 
L 197.181338 202.838925 
L 201.280511 202.676824 
L 205.379685 204.658179 
L 209.478858 205.360912 
L 213.578032 204.823753 
L 217.677206 205.09373 
L 221.776379 206.443552 
L 225.875553 206.769403 
L 229.974726 205.958691 
L 234.0739 206.762756 
L 238.173073 207.577764 
L 242.272247 207.34944 
L 246.37142 207.934599 
L 250.470594 208.18954 
L 254.569768 208.299481 
L 258.668941 209.182388 
L 262.768115 209.060363 
L 266.867288 210.043959 
L 270.966462 210.472695 
L 275.065635 210.778235 
L 279.164809 210.067201 
L 283.263982 209.56452 
L 287.363156 210.75041 
L 291.46233 211.706314 
L 295.561503 210.778313 
L 299.660677 210.984879 
L 303.75985 211.605616 
L 307.859024 212.04616 
L 311.958197 212.280513 
L 316.057371 211.999076 
L 320.156544 211.125764 
L 324.255718 212.252745 
L 328.354892 213.06643 
L 332.454065 212.615126 
L 336.553239 213.002033 
L 340.652412 213.969193 
L 344.751586 213.492754 
L 348.850759 213.951781 
L 352.949933 213.943608 
L 357.049106 214.125681 
L 361.14828 215.238108 
L 365.247454 214.037814 
L 369.346627 215.151534 
L 373.445801 215.075745 
L 377.544974 214.066514 
L 381.644148 214.986026 
L 385.743321 216.105099 
L 389.842495 215.171112 
L 393.941668 216.053448 
L 398.040842 215.888206 
L 402.140015 215.163013 
L 406.239189 215.714007 
L 410.338363 216.028237 
L 414.437536 215.902858 
L 418.53671 215.768892 
L 422.635883 216.32697 
L 426.735057 217.083462 
L 430.83423 216.274068 
L 434.933404 216.4143 
L 439.032577 216.491092 
L 443.131751 216.151323 
L 447.230925 217.265411 
L 451.330098 216.623527 
L 455.429272 217.025752 
L 459.528445 217.096565 
L 463.627619 217.916801 
L 467.726792 218.040036 
L 471.825966 218.046694 
" style="fill:none;stroke:#800080;stroke-linecap:square;stroke-width:1.5;"/>
   </g>
   <g id="line2d_28">
    <path clip-path="url(#pa9be9906ee)" d="M 66.007784 20.373966 
L 70.106958 66.356169 
L 74.206131 90.75098 
L 78.305305 104.93343 
L 82.404478 116.203007 
L 86.503652 124.698387 
L 90.602825 130.089221 
L 94.701999 132.295204 
L 98.801173 136.084648 
L 102.900346 139.606552 
L 106.99952 141.53097 
L 111.098693 143.288131 
L 115.197867 146.246961 
L 119.29704 147.229054 
L 123.396214 147.174489 
L 127.495387 149.510677 
L 131.594561 149.563836 
L 135.693735 151.506955 
L 139.792908 151.962283 
L 143.892082 152.851456 
L 147.991255 153.88197 
L 152.090429 154.221651 
L 156.189602 154.741456 
L 160.288776 154.810566 
L 164.387949 156.482761 
L 168.487123 155.8231 
L 172.586296 156.644958 
L 176.68547 156.822252 
L 180.784644 157.513045 
L 184.883817 157.117883 
L 188.982991 157.776642 
L 193.082164 156.825316 
L 197.181338 157.802676 
L 201.280511 158.95547 
L 205.379685 159.076477 
L 209.478858 158.513783 
L 213.578032 159.706461 
L 217.677206 158.79319 
L 221.776379 159.228021 
L 225.875553 159.931938 
L 229.974726 159.866232 
L 234.0739 160.354459 
L 238.173073 160.011766 
L 242.272247 159.523755 
L 246.37142 159.588276 
L 250.470594 160.728833 
L 254.569768 160.322758 
L 258.668941 160.766255 
L 262.768115 160.763497 
L 266.867288 160.766909 
L 270.966462 160.707066 
L 275.065635 161.106586 
L 279.164809 160.74619 
L 283.263982 161.419988 
L 287.363156 161.382899 
L 291.46233 161.5509 
L 295.561503 160.847311 
L 299.660677 161.159782 
L 303.75985 161.300601 
L 307.859024 161.295591 
L 311.958197 161.957084 
L 316.057371 161.305761 
L 320.156544 161.926054 
L 324.255718 161.252576 
L 328.354892 161.349607 
L 332.454065 161.251378 
L 336.553239 162.307755 
L 340.652412 162.210006 
L 344.751586 161.38258 
L 348.850759 161.901259 
L 352.949933 161.774398 
L 357.049106 161.538461 
L 361.14828 161.804818 
L 365.247454 161.566248 
L 369.346627 162.435856 
L 373.445801 161.445139 
L 377.544974 162.023753 
L 381.644148 161.991618 
L 385.743321 161.773053 
L 389.842495 162.761301 
L 393.941668 162.676499 
L 398.040842 162.525942 
L 402.140015 161.779455 
L 406.239189 162.983639 
L 410.338363 161.931807 
L 414.437536 162.429622 
L 418.53671 161.83542 
L 422.635883 161.336371 
L 426.735057 163.060981 
L 430.83423 162.493172 
L 434.933404 161.901458 
L 439.032577 162.803026 
L 443.131751 162.671889 
L 447.230925 161.897733 
L 451.330098 161.693152 
L 455.429272 162.296126 
L 459.528445 162.334273 
L 463.627619 161.519611 
L 467.726792 162.637894 
L 471.825966 162.295138 
" style="fill:none;stroke:#808080;stroke-dasharray:5.55,2.4;stroke-dashoffset:0;stroke-width:1.5;"/>
   </g>
   <g id="line2d_29">
    <path clip-path="url(#pa9be9906ee)" d="M 66.007784 58.224372 
L 70.106958 101.534983 
L 74.206131 121.807693 
L 78.305305 132.747096 
L 82.404478 143.189981 
L 86.503652 146.034201 
L 90.602825 151.459048 
L 94.701999 154.046906 
L 98.801173 155.88288 
L 102.900346 157.066471 
L 106.99952 158.626358 
L 111.098693 159.113712 
L 115.197867 161.300408 
L 119.29704 161.547106 
L 123.396214 162.162468 
L 127.495387 162.193262 
L 131.594561 161.987529 
L 135.693735 163.828942 
L 139.792908 163.961949 
L 143.892082 163.165494 
L 147.991255 164.503985 
L 152.090429 164.424081 
L 156.189602 164.582465 
L 160.288776 164.889966 
L 164.387949 164.73479 
L 168.487123 164.633943 
L 172.586296 165.579145 
L 176.68547 164.491218 
L 180.784644 164.161906 
L 184.883817 165.835192 
L 188.982991 166.287712 
L 193.082164 164.851471 
L 197.181338 164.967404 
L 201.280511 164.798451 
L 205.379685 162.972788 
L 209.478858 166.267577 
L 213.578032 165.704764 
L 217.677206 164.651652 
L 221.776379 164.62757 
L 225.875553 166.01369 
L 229.974726 165.512615 
L 234.0739 165.406238 
L 238.173073 163.607229 
L 242.272247 163.644301 
L 246.37142 164.881326 
L 250.470594 163.943679 
L 254.569768 164.521717 
L 258.668941 164.374272 
L 262.768115 163.553881 
L 266.867288 164.439791 
L 270.966462 163.049979 
L 275.065635 163.710641 
L 279.164809 163.971344 
L 283.263982 164.246393 
L 287.363156 163.636668 
L 291.46233 163.703393 
L 295.561503 164.074296 
L 299.660677 163.371988 
L 303.75985 165.224352 
L 307.859024 164.074153 
L 311.958197 164.241981 
L 316.057371 163.453566 
L 320.156544 163.652103 
L 324.255718 162.445171 
L 328.354892 163.729992 
L 332.454065 164.297696 
L 336.553239 163.729258 
L 340.652412 163.55704 
L 344.751586 162.6135 
L 348.850759 163.100408 
L 352.949933 163.191189 
L 357.049106 162.40426 
L 361.14828 163.429632 
L 365.247454 161.919149 
L 369.346627 163.661668 
L 373.445801 162.799452 
L 377.544974 163.863231 
L 381.644148 163.078225 
L 385.743321 163.170189 
L 389.842495 162.667641 
L 393.941668 163.13411 
L 398.040842 163.1861 
L 402.140015 162.538248 
L 406.239189 162.839542 
L 410.338363 162.347558 
L 414.437536 162.727502 
L 418.53671 164.089605 
L 422.635883 162.366194 
L 426.735057 162.762175 
L 430.83423 162.503011 
L 434.933404 162.149754 
L 439.032577 161.936271 
L 443.131751 162.758664 
L 447.230925 162.617469 
L 451.330098 161.987683 
L 455.429272 161.651752 
L 459.528445 161.54175 
L 463.627619 162.168775 
L 467.726792 163.293449 
L 471.825966 161.929686 
" style="fill:none;stroke:#ffff00;stroke-dasharray:5.55,2.4;stroke-dashoffset:0;stroke-width:1.5;"/>
   </g>
   <g id="line2d_30">
    <path clip-path="url(#pa9be9906ee)" d="M 66.007784 67.324957 
L 70.106958 109.369239 
L 74.206131 128.437533 
L 78.305305 139.085138 
L 82.404478 144.595834 
L 86.503652 150.910169 
L 90.602825 153.569482 
L 94.701999 155.481563 
L 98.801173 156.177564 
L 102.900346 158.550776 
L 106.99952 160.797514 
L 111.098693 161.138082 
L 115.197867 162.193938 
L 119.29704 162.973268 
L 123.396214 163.367065 
L 127.495387 162.873502 
L 131.594561 163.302762 
L 135.693735 162.278599 
L 139.792908 163.578189 
L 143.892082 164.032551 
L 147.991255 165.695836 
L 152.090429 165.090159 
L 156.189602 164.335434 
L 160.288776 164.068795 
L 164.387949 163.681458 
L 168.487123 163.516556 
L 172.586296 163.103363 
L 176.68547 162.257905 
L 180.784644 162.072345 
L 184.883817 162.889099 
L 188.982991 162.690983 
L 193.082164 161.939179 
L 197.181338 162.335688 
L 201.280511 160.881046 
L 205.379685 162.264139 
L 209.478858 162.792413 
L 213.578032 160.992762 
L 217.677206 160.731118 
L 221.776379 162.290276 
L 225.875553 161.912462 
L 229.974726 160.457097 
L 234.0739 160.849682 
L 238.173073 159.947545 
L 242.272247 159.888285 
L 246.37142 159.933096 
L 250.470594 160.097677 
L 254.569768 158.465244 
L 258.668941 158.822086 
L 262.768115 159.306103 
L 266.867288 160.034046 
L 270.966462 160.016058 
L 275.065635 159.281016 
L 279.164809 158.743695 
L 283.263982 157.458465 
L 287.363156 157.424482 
L 291.46233 158.77687 
L 295.561503 158.14963 
L 299.660677 158.116974 
L 303.75985 157.882499 
L 307.859024 157.156229 
L 311.958197 156.923946 
L 316.057371 157.137348 
L 320.156544 156.364571 
L 324.255718 157.364787 
L 328.354892 156.702209 
L 332.454065 156.577851 
L 336.553239 156.19131 
L 340.652412 155.962756 
L 344.751586 156.318621 
L 348.850759 156.580031 
L 352.949933 154.454823 
L 357.049106 156.965474 
L 361.14828 156.569821 
L 365.247454 153.973692 
L 369.346627 156.328661 
L 373.445801 155.068742 
L 377.544974 154.664284 
L 381.644148 155.218668 
L 385.743321 155.890956 
L 389.842495 153.8337 
L 393.941668 155.49362 
L 398.040842 154.893863 
L 402.140015 152.661836 
L 406.239189 153.653022 
L 410.338363 153.473981 
L 414.437536 152.906104 
L 418.53671 151.339912 
L 422.635883 151.514353 
L 426.735057 154.0478 
L 430.83423 152.979466 
L 434.933404 151.919266 
L 439.032577 152.157269 
L 443.131751 152.038179 
L 447.230925 152.129198 
L 451.330098 150.812997 
L 455.429272 151.39325 
L 459.528445 151.484216 
L 463.627619 151.974138 
L 467.726792 151.252765 
L 471.825966 150.417262 
" style="fill:none;stroke:#008000;stroke-dasharray:5.55,2.4;stroke-dashoffset:0;stroke-width:1.5;"/>
   </g>
   <g id="patch_3">
    <path d="M 45.716875 227.93033 
L 45.716875 10.49033 
" style="fill:none;stroke:#ffffff;stroke-linecap:square;stroke-linejoin:miter;"/>
   </g>
   <g id="patch_4">
    <path d="M 492.116875 227.93033 
L 492.116875 10.49033 
" style="fill:none;stroke:#ffffff;stroke-linecap:square;stroke-linejoin:miter;"/>
   </g>
   <g id="patch_5">
    <path d="M 45.716875 227.93033 
L 492.116875 227.93033 
" style="fill:none;stroke:#ffffff;stroke-linecap:square;stroke-linejoin:miter;"/>
   </g>
   <g id="patch_6">
    <path d="M 45.716875 10.49033 
L 492.116875 10.49033 
" style="fill:none;stroke:#ffffff;stroke-linecap:square;stroke-linejoin:miter;"/>
   </g>
   <g id="legend_1">
    <g id="patch_7">
     <path d="M 356.840312 106.55908 
L 485.116875 106.55908 
Q 487.116875 106.55908 487.116875 104.55908 
L 487.116875 17.49033 
Q 487.116875 15.49033 485.116875 15.49033 
L 356.840312 15.49033 
Q 354.840312 15.49033 354.840312 17.49033 
L 354.840312 104.55908 
Q 354.840312 106.55908 356.840312 106.55908 
z
" style="fill:#e5e5e5;opacity:0.8;stroke:#cccccc;stroke-linejoin:miter;stroke-width:0.5;"/>
    </g>
    <g id="line2d_31">
     <path d="M 358.840312 23.588768 
L 378.840312 23.588768 
" style="fill:none;stroke:#ff0000;stroke-linecap:square;stroke-width:1.5;"/>
    </g>
    <g id="line2d_32"/>
    <g id="text_15">
     <!-- dropout 0.7(train) -->
     <g transform="translate(386.840312 27.088768)scale(0.1 -0.1)">
      <defs>
       <path d="M 2906 2969 
L 2906 4863 
L 3481 4863 
L 3481 0 
L 2906 0 
L 2906 525 
Q 2725 213 2448 61 
Q 2172 -91 1784 -91 
Q 1150 -91 751 415 
Q 353 922 353 1747 
Q 353 2572 751 3078 
Q 1150 3584 1784 3584 
Q 2172 3584 2448 3432 
Q 2725 3281 2906 2969 
z
M 947 1747 
Q 947 1113 1208 752 
Q 1469 391 1925 391 
Q 2381 391 2643 752 
Q 2906 1113 2906 1747 
Q 2906 2381 2643 2742 
Q 2381 3103 1925 3103 
Q 1469 3103 1208 2742 
Q 947 2381 947 1747 
z
" id="DejaVuSans-64" transform="scale(0.015625)"/>
       <path d="M 1172 4494 
L 1172 3500 
L 2356 3500 
L 2356 3053 
L 1172 3053 
L 1172 1153 
Q 1172 725 1289 603 
Q 1406 481 1766 481 
L 2356 481 
L 2356 0 
L 1766 0 
Q 1100 0 847 248 
Q 594 497 594 1153 
L 594 3053 
L 172 3053 
L 172 3500 
L 594 3500 
L 594 4494 
L 1172 4494 
z
" id="DejaVuSans-74" transform="scale(0.015625)"/>
       <path d="M 525 4666 
L 3525 4666 
L 3525 4397 
L 1831 0 
L 1172 0 
L 2766 4134 
L 525 4134 
L 525 4666 
z
" id="DejaVuSans-37" transform="scale(0.015625)"/>
       <path d="M 1984 4856 
Q 1566 4138 1362 3434 
Q 1159 2731 1159 2009 
Q 1159 1288 1364 580 
Q 1569 -128 1984 -844 
L 1484 -844 
Q 1016 -109 783 600 
Q 550 1309 550 2009 
Q 550 2706 781 3412 
Q 1013 4119 1484 4856 
L 1984 4856 
z
" id="DejaVuSans-28" transform="scale(0.015625)"/>
       <path d="M 2194 1759 
Q 1497 1759 1228 1600 
Q 959 1441 959 1056 
Q 959 750 1161 570 
Q 1363 391 1709 391 
Q 2188 391 2477 730 
Q 2766 1069 2766 1631 
L 2766 1759 
L 2194 1759 
z
M 3341 1997 
L 3341 0 
L 2766 0 
L 2766 531 
Q 2569 213 2275 61 
Q 1981 -91 1556 -91 
Q 1019 -91 701 211 
Q 384 513 384 1019 
Q 384 1609 779 1909 
Q 1175 2209 1959 2209 
L 2766 2209 
L 2766 2266 
Q 2766 2663 2505 2880 
Q 2244 3097 1772 3097 
Q 1472 3097 1187 3025 
Q 903 2953 641 2809 
L 641 3341 
Q 956 3463 1253 3523 
Q 1550 3584 1831 3584 
Q 2591 3584 2966 3190 
Q 3341 2797 3341 1997 
z
" id="DejaVuSans-61" transform="scale(0.015625)"/>
       <path d="M 603 3500 
L 1178 3500 
L 1178 0 
L 603 0 
L 603 3500 
z
M 603 4863 
L 1178 4863 
L 1178 4134 
L 603 4134 
L 603 4863 
z
" id="DejaVuSans-69" transform="scale(0.015625)"/>
       <path d="M 513 4856 
L 1013 4856 
Q 1481 4119 1714 3412 
Q 1947 2706 1947 2009 
Q 1947 1309 1714 600 
Q 1481 -109 1013 -844 
L 513 -844 
Q 928 -128 1133 580 
Q 1338 1288 1338 2009 
Q 1338 2731 1133 3434 
Q 928 4138 513 4856 
z
" id="DejaVuSans-29" transform="scale(0.015625)"/>
      </defs>
      <use xlink:href="#DejaVuSans-64"/>
      <use x="63.476562" xlink:href="#DejaVuSans-72"/>
      <use x="102.339844" xlink:href="#DejaVuSans-6f"/>
      <use x="163.521484" xlink:href="#DejaVuSans-70"/>
      <use x="226.998047" xlink:href="#DejaVuSans-6f"/>
      <use x="288.179688" xlink:href="#DejaVuSans-75"/>
      <use x="351.558594" xlink:href="#DejaVuSans-74"/>
      <use x="390.767578" xlink:href="#DejaVuSans-20"/>
      <use x="422.554688" xlink:href="#DejaVuSans-30"/>
      <use x="486.177734" xlink:href="#DejaVuSans-2e"/>
      <use x="517.964844" xlink:href="#DejaVuSans-37"/>
      <use x="581.587891" xlink:href="#DejaVuSans-28"/>
      <use x="620.601562" xlink:href="#DejaVuSans-74"/>
      <use x="659.810547" xlink:href="#DejaVuSans-72"/>
      <use x="700.923828" xlink:href="#DejaVuSans-61"/>
      <use x="762.203125" xlink:href="#DejaVuSans-69"/>
      <use x="789.986328" xlink:href="#DejaVuSans-6e"/>
      <use x="853.365234" xlink:href="#DejaVuSans-29"/>
     </g>
    </g>
    <g id="line2d_33">
     <path d="M 358.840312 38.266893 
L 378.840312 38.266893 
" style="fill:none;stroke:#0000ff;stroke-linecap:square;stroke-width:1.5;"/>
    </g>
    <g id="line2d_34"/>
    <g id="text_16">
     <!-- dropout 0.9(train) -->
     <g transform="translate(386.840312 41.766893)scale(0.1 -0.1)">
      <defs>
       <path d="M 703 97 
L 703 672 
Q 941 559 1184 500 
Q 1428 441 1663 441 
Q 2288 441 2617 861 
Q 2947 1281 2994 2138 
Q 2813 1869 2534 1725 
Q 2256 1581 1919 1581 
Q 1219 1581 811 2004 
Q 403 2428 403 3163 
Q 403 3881 828 4315 
Q 1253 4750 1959 4750 
Q 2769 4750 3195 4129 
Q 3622 3509 3622 2328 
Q 3622 1225 3098 567 
Q 2575 -91 1691 -91 
Q 1453 -91 1209 -44 
Q 966 3 703 97 
z
M 1959 2075 
Q 2384 2075 2632 2365 
Q 2881 2656 2881 3163 
Q 2881 3666 2632 3958 
Q 2384 4250 1959 4250 
Q 1534 4250 1286 3958 
Q 1038 3666 1038 3163 
Q 1038 2656 1286 2365 
Q 1534 2075 1959 2075 
z
" id="DejaVuSans-39" transform="scale(0.015625)"/>
      </defs>
      <use xlink:href="#DejaVuSans-64"/>
      <use x="63.476562" xlink:href="#DejaVuSans-72"/>
      <use x="102.339844" xlink:href="#DejaVuSans-6f"/>
      <use x="163.521484" xlink:href="#DejaVuSans-70"/>
      <use x="226.998047" xlink:href="#DejaVuSans-6f"/>
      <use x="288.179688" xlink:href="#DejaVuSans-75"/>
      <use x="351.558594" xlink:href="#DejaVuSans-74"/>
      <use x="390.767578" xlink:href="#DejaVuSans-20"/>
      <use x="422.554688" xlink:href="#DejaVuSans-30"/>
      <use x="486.177734" xlink:href="#DejaVuSans-2e"/>
      <use x="517.964844" xlink:href="#DejaVuSans-39"/>
      <use x="581.587891" xlink:href="#DejaVuSans-28"/>
      <use x="620.601562" xlink:href="#DejaVuSans-74"/>
      <use x="659.810547" xlink:href="#DejaVuSans-72"/>
      <use x="700.923828" xlink:href="#DejaVuSans-61"/>
      <use x="762.203125" xlink:href="#DejaVuSans-69"/>
      <use x="789.986328" xlink:href="#DejaVuSans-6e"/>
      <use x="853.365234" xlink:href="#DejaVuSans-29"/>
     </g>
    </g>
    <g id="line2d_35">
     <path d="M 358.840312 52.945018 
L 378.840312 52.945018 
" style="fill:none;stroke:#800080;stroke-linecap:square;stroke-width:1.5;"/>
    </g>
    <g id="line2d_36"/>
    <g id="text_17">
     <!-- dropout 0.95(train) -->
     <g transform="translate(386.840312 56.445018)scale(0.1 -0.1)">
      <defs>
       <path d="M 691 4666 
L 3169 4666 
L 3169 4134 
L 1269 4134 
L 1269 2991 
Q 1406 3038 1543 3061 
Q 1681 3084 1819 3084 
Q 2600 3084 3056 2656 
Q 3513 2228 3513 1497 
Q 3513 744 3044 326 
Q 2575 -91 1722 -91 
Q 1428 -91 1123 -41 
Q 819 9 494 109 
L 494 744 
Q 775 591 1075 516 
Q 1375 441 1709 441 
Q 2250 441 2565 725 
Q 2881 1009 2881 1497 
Q 2881 1984 2565 2268 
Q 2250 2553 1709 2553 
Q 1456 2553 1204 2497 
Q 953 2441 691 2322 
L 691 4666 
z
" id="DejaVuSans-35" transform="scale(0.015625)"/>
      </defs>
      <use xlink:href="#DejaVuSans-64"/>
      <use x="63.476562" xlink:href="#DejaVuSans-72"/>
      <use x="102.339844" xlink:href="#DejaVuSans-6f"/>
      <use x="163.521484" xlink:href="#DejaVuSans-70"/>
      <use x="226.998047" xlink:href="#DejaVuSans-6f"/>
      <use x="288.179688" xlink:href="#DejaVuSans-75"/>
      <use x="351.558594" xlink:href="#DejaVuSans-74"/>
      <use x="390.767578" xlink:href="#DejaVuSans-20"/>
      <use x="422.554688" xlink:href="#DejaVuSans-30"/>
      <use x="486.177734" xlink:href="#DejaVuSans-2e"/>
      <use x="517.964844" xlink:href="#DejaVuSans-39"/>
      <use x="581.587891" xlink:href="#DejaVuSans-35"/>
      <use x="645.210938" xlink:href="#DejaVuSans-28"/>
      <use x="684.224609" xlink:href="#DejaVuSans-74"/>
      <use x="723.433594" xlink:href="#DejaVuSans-72"/>
      <use x="764.546875" xlink:href="#DejaVuSans-61"/>
      <use x="825.826172" xlink:href="#DejaVuSans-69"/>
      <use x="853.609375" xlink:href="#DejaVuSans-6e"/>
      <use x="916.988281" xlink:href="#DejaVuSans-29"/>
     </g>
    </g>
    <g id="line2d_37">
     <path d="M 358.840312 67.623143 
L 378.840312 67.623143 
" style="fill:none;stroke:#808080;stroke-dasharray:5.55,2.4;stroke-dashoffset:0;stroke-width:1.5;"/>
    </g>
    <g id="line2d_38"/>
    <g id="text_18">
     <!-- dropout 0.7(valid) -->
     <g transform="translate(386.840312 71.123143)scale(0.1 -0.1)">
      <defs>
       <path d="M 191 3500 
L 800 3500 
L 1894 563 
L 2988 3500 
L 3597 3500 
L 2284 0 
L 1503 0 
L 191 3500 
z
" id="DejaVuSans-76" transform="scale(0.015625)"/>
       <path d="M 603 4863 
L 1178 4863 
L 1178 0 
L 603 0 
L 603 4863 
z
" id="DejaVuSans-6c" transform="scale(0.015625)"/>
      </defs>
      <use xlink:href="#DejaVuSans-64"/>
      <use x="63.476562" xlink:href="#DejaVuSans-72"/>
      <use x="102.339844" xlink:href="#DejaVuSans-6f"/>
      <use x="163.521484" xlink:href="#DejaVuSans-70"/>
      <use x="226.998047" xlink:href="#DejaVuSans-6f"/>
      <use x="288.179688" xlink:href="#DejaVuSans-75"/>
      <use x="351.558594" xlink:href="#DejaVuSans-74"/>
      <use x="390.767578" xlink:href="#DejaVuSans-20"/>
      <use x="422.554688" xlink:href="#DejaVuSans-30"/>
      <use x="486.177734" xlink:href="#DejaVuSans-2e"/>
      <use x="517.964844" xlink:href="#DejaVuSans-37"/>
      <use x="581.587891" xlink:href="#DejaVuSans-28"/>
      <use x="620.601562" xlink:href="#DejaVuSans-76"/>
      <use x="679.78125" xlink:href="#DejaVuSans-61"/>
      <use x="741.060547" xlink:href="#DejaVuSans-6c"/>
      <use x="768.84375" xlink:href="#DejaVuSans-69"/>
      <use x="796.626953" xlink:href="#DejaVuSans-64"/>
      <use x="860.103516" xlink:href="#DejaVuSans-29"/>
     </g>
    </g>
    <g id="line2d_39">
     <path d="M 358.840312 82.301268 
L 378.840312 82.301268 
" style="fill:none;stroke:#ffff00;stroke-dasharray:5.55,2.4;stroke-dashoffset:0;stroke-width:1.5;"/>
    </g>
    <g id="line2d_40"/>
    <g id="text_19">
     <!-- dropout 0.9(valid) -->
     <g transform="translate(386.840312 85.801268)scale(0.1 -0.1)">
      <use xlink:href="#DejaVuSans-64"/>
      <use x="63.476562" xlink:href="#DejaVuSans-72"/>
      <use x="102.339844" xlink:href="#DejaVuSans-6f"/>
      <use x="163.521484" xlink:href="#DejaVuSans-70"/>
      <use x="226.998047" xlink:href="#DejaVuSans-6f"/>
      <use x="288.179688" xlink:href="#DejaVuSans-75"/>
      <use x="351.558594" xlink:href="#DejaVuSans-74"/>
      <use x="390.767578" xlink:href="#DejaVuSans-20"/>
      <use x="422.554688" xlink:href="#DejaVuSans-30"/>
      <use x="486.177734" xlink:href="#DejaVuSans-2e"/>
      <use x="517.964844" xlink:href="#DejaVuSans-39"/>
      <use x="581.587891" xlink:href="#DejaVuSans-28"/>
      <use x="620.601562" xlink:href="#DejaVuSans-76"/>
      <use x="679.78125" xlink:href="#DejaVuSans-61"/>
      <use x="741.060547" xlink:href="#DejaVuSans-6c"/>
      <use x="768.84375" xlink:href="#DejaVuSans-69"/>
      <use x="796.626953" xlink:href="#DejaVuSans-64"/>
      <use x="860.103516" xlink:href="#DejaVuSans-29"/>
     </g>
    </g>
    <g id="line2d_41">
     <path d="M 358.840312 96.979393 
L 378.840312 96.979393 
" style="fill:none;stroke:#008000;stroke-dasharray:5.55,2.4;stroke-dashoffset:0;stroke-width:1.5;"/>
    </g>
    <g id="line2d_42"/>
    <g id="text_20">
     <!-- dropout 0.95(valid) -->
     <g transform="translate(386.840312 100.479393)scale(0.1 -0.1)">
      <use xlink:href="#DejaVuSans-64"/>
      <use x="63.476562" xlink:href="#DejaVuSans-72"/>
      <use x="102.339844" xlink:href="#DejaVuSans-6f"/>
      <use x="163.521484" xlink:href="#DejaVuSans-70"/>
      <use x="226.998047" xlink:href="#DejaVuSans-6f"/>
      <use x="288.179688" xlink:href="#DejaVuSans-75"/>
      <use x="351.558594" xlink:href="#DejaVuSans-74"/>
      <use x="390.767578" xlink:href="#DejaVuSans-20"/>
      <use x="422.554688" xlink:href="#DejaVuSans-30"/>
      <use x="486.177734" xlink:href="#DejaVuSans-2e"/>
      <use x="517.964844" xlink:href="#DejaVuSans-39"/>
      <use x="581.587891" xlink:href="#DejaVuSans-35"/>
      <use x="645.210938" xlink:href="#DejaVuSans-28"/>
      <use x="684.224609" xlink:href="#DejaVuSans-76"/>
      <use x="743.404297" xlink:href="#DejaVuSans-61"/>
      <use x="804.683594" xlink:href="#DejaVuSans-6c"/>
      <use x="832.466797" xlink:href="#DejaVuSans-69"/>
      <use x="860.25" xlink:href="#DejaVuSans-64"/>
      <use x="923.726562" xlink:href="#DejaVuSans-29"/>
     </g>
    </g>
   </g>
  </g>
 </g>
 <defs>
  <clipPath id="pa9be9906ee">
   <rect height="217.44" width="446.4" x="45.716875" y="10.49033"/>
  </clipPath>
 </defs>
</svg>
