<?xml version="1.0" encoding="utf-8" standalone="no"?>
<!DOCTYPE svg PUBLIC "-//W3C//DTD SVG 1.1//EN"
  "http://www.w3.org/Graphics/SVG/1.1/DTD/svg11.dtd">
<svg height="264.131875pt" version="1.1" viewBox="0 0 642.955938 264.131875" width="642.955938pt" xmlns="http://www.w3.org/2000/svg" xmlns:xlink="http://www.w3.org/1999/xlink">
 <metadata>
  <rdf:RDF xmlns:cc="http://creativecommons.org/ns#" xmlns:dc="http://purl.org/dc/elements/1.1/" xmlns:rdf="http://www.w3.org/1999/02/22-rdf-syntax-ns#">
   <cc:Work>
    <dc:type rdf:resource="http://purl.org/dc/dcmitype/StillImage"/>
    <dc:date>2021-11-04T18:06:38.516050</dc:date>
    <dc:format>image/svg+xml</dc:format>
    <dc:creator>
     <cc:Agent>
      <dc:title>Matplotlib v3.4.2, https://matplotlib.org/</dc:title>
     </cc:Agent>
    </dc:creator>
   </cc:Work>
  </rdf:RDF>
 </metadata>
 <defs>
  <style type="text/css">*{stroke-linecap:butt;stroke-linejoin:round;}</style>
 </defs>
 <g id="figure_1">
  <g id="patch_1">
   <path d="M 0 264.131875 
L 642.955938 264.131875 
L 642.955938 0 
L 0 0 
z
" style="fill:#ffffff;"/>
  </g>
  <g id="axes_1">
   <g id="patch_2">
    <path d="M 52.079375 224.64 
L 498.479375 224.64 
L 498.479375 7.2 
L 52.079375 7.2 
z
" style="fill:#e5e5e5;"/>
   </g>
   <g id="matplotlib.axis_1">
    <g id="xtick_1">
     <g id="line2d_1">
      <path clip-path="url(#p27bf81b3f1)" d="M 68.271111 224.64 
L 68.271111 7.2 
" style="fill:none;stroke:#ffffff;stroke-linecap:square;stroke-width:0.8;"/>
     </g>
     <g id="line2d_2">
      <defs>
       <path d="M 0 0 
L 0 3.5 
" id="me4fd128890" style="stroke:#555555;stroke-width:0.8;"/>
      </defs>
      <g>
       <use style="fill:#555555;stroke:#555555;stroke-width:0.8;" x="68.271111" xlink:href="#me4fd128890" y="224.64"/>
      </g>
     </g>
     <g id="text_1">
      <!-- 0 -->
      <g style="fill:#555555;" transform="translate(65.089861 239.238437)scale(0.1 -0.1)">
       <defs>
        <path d="M 2034 4250 
Q 1547 4250 1301 3770 
Q 1056 3291 1056 2328 
Q 1056 1369 1301 889 
Q 1547 409 2034 409 
Q 2525 409 2770 889 
Q 3016 1369 3016 2328 
Q 3016 3291 2770 3770 
Q 2525 4250 2034 4250 
z
M 2034 4750 
Q 2819 4750 3233 4129 
Q 3647 3509 3647 2328 
Q 3647 1150 3233 529 
Q 2819 -91 2034 -91 
Q 1250 -91 836 529 
Q 422 1150 422 2328 
Q 422 3509 836 4129 
Q 1250 4750 2034 4750 
z
" id="DejaVuSans-30" transform="scale(0.015625)"/>
       </defs>
       <use xlink:href="#DejaVuSans-30"/>
      </g>
     </g>
    </g>
    <g id="xtick_2">
     <g id="line2d_3">
      <path clip-path="url(#p27bf81b3f1)" d="M 150.254582 224.64 
L 150.254582 7.2 
" style="fill:none;stroke:#ffffff;stroke-linecap:square;stroke-width:0.8;"/>
     </g>
     <g id="line2d_4">
      <g>
       <use style="fill:#555555;stroke:#555555;stroke-width:0.8;" x="150.254582" xlink:href="#me4fd128890" y="224.64"/>
      </g>
     </g>
     <g id="text_2">
      <!-- 20 -->
      <g style="fill:#555555;" transform="translate(143.892082 239.238437)scale(0.1 -0.1)">
       <defs>
        <path d="M 1228 531 
L 3431 531 
L 3431 0 
L 469 0 
L 469 531 
Q 828 903 1448 1529 
Q 2069 2156 2228 2338 
Q 2531 2678 2651 2914 
Q 2772 3150 2772 3378 
Q 2772 3750 2511 3984 
Q 2250 4219 1831 4219 
Q 1534 4219 1204 4116 
Q 875 4013 500 3803 
L 500 4441 
Q 881 4594 1212 4672 
Q 1544 4750 1819 4750 
Q 2544 4750 2975 4387 
Q 3406 4025 3406 3419 
Q 3406 3131 3298 2873 
Q 3191 2616 2906 2266 
Q 2828 2175 2409 1742 
Q 1991 1309 1228 531 
z
" id="DejaVuSans-32" transform="scale(0.015625)"/>
       </defs>
       <use xlink:href="#DejaVuSans-32"/>
       <use x="63.623047" xlink:href="#DejaVuSans-30"/>
      </g>
     </g>
    </g>
    <g id="xtick_3">
     <g id="line2d_5">
      <path clip-path="url(#p27bf81b3f1)" d="M 232.238053 224.64 
L 232.238053 7.2 
" style="fill:none;stroke:#ffffff;stroke-linecap:square;stroke-width:0.8;"/>
     </g>
     <g id="line2d_6">
      <g>
       <use style="fill:#555555;stroke:#555555;stroke-width:0.8;" x="232.238053" xlink:href="#me4fd128890" y="224.64"/>
      </g>
     </g>
     <g id="text_3">
      <!-- 40 -->
      <g style="fill:#555555;" transform="translate(225.875553 239.238437)scale(0.1 -0.1)">
       <defs>
        <path d="M 2419 4116 
L 825 1625 
L 2419 1625 
L 2419 4116 
z
M 2253 4666 
L 3047 4666 
L 3047 1625 
L 3713 1625 
L 3713 1100 
L 3047 1100 
L 3047 0 
L 2419 0 
L 2419 1100 
L 313 1100 
L 313 1709 
L 2253 4666 
z
" id="DejaVuSans-34" transform="scale(0.015625)"/>
       </defs>
       <use xlink:href="#DejaVuSans-34"/>
       <use x="63.623047" xlink:href="#DejaVuSans-30"/>
      </g>
     </g>
    </g>
    <g id="xtick_4">
     <g id="line2d_7">
      <path clip-path="url(#p27bf81b3f1)" d="M 314.221524 224.64 
L 314.221524 7.2 
" style="fill:none;stroke:#ffffff;stroke-linecap:square;stroke-width:0.8;"/>
     </g>
     <g id="line2d_8">
      <g>
       <use style="fill:#555555;stroke:#555555;stroke-width:0.8;" x="314.221524" xlink:href="#me4fd128890" y="224.64"/>
      </g>
     </g>
     <g id="text_4">
      <!-- 60 -->
      <g style="fill:#555555;" transform="translate(307.859024 239.238437)scale(0.1 -0.1)">
       <defs>
        <path d="M 2113 2584 
Q 1688 2584 1439 2293 
Q 1191 2003 1191 1497 
Q 1191 994 1439 701 
Q 1688 409 2113 409 
Q 2538 409 2786 701 
Q 3034 994 3034 1497 
Q 3034 2003 2786 2293 
Q 2538 2584 2113 2584 
z
M 3366 4563 
L 3366 3988 
Q 3128 4100 2886 4159 
Q 2644 4219 2406 4219 
Q 1781 4219 1451 3797 
Q 1122 3375 1075 2522 
Q 1259 2794 1537 2939 
Q 1816 3084 2150 3084 
Q 2853 3084 3261 2657 
Q 3669 2231 3669 1497 
Q 3669 778 3244 343 
Q 2819 -91 2113 -91 
Q 1303 -91 875 529 
Q 447 1150 447 2328 
Q 447 3434 972 4092 
Q 1497 4750 2381 4750 
Q 2619 4750 2861 4703 
Q 3103 4656 3366 4563 
z
" id="DejaVuSans-36" transform="scale(0.015625)"/>
       </defs>
       <use xlink:href="#DejaVuSans-36"/>
       <use x="63.623047" xlink:href="#DejaVuSans-30"/>
      </g>
     </g>
    </g>
    <g id="xtick_5">
     <g id="line2d_9">
      <path clip-path="url(#p27bf81b3f1)" d="M 396.204995 224.64 
L 396.204995 7.2 
" style="fill:none;stroke:#ffffff;stroke-linecap:square;stroke-width:0.8;"/>
     </g>
     <g id="line2d_10">
      <g>
       <use style="fill:#555555;stroke:#555555;stroke-width:0.8;" x="396.204995" xlink:href="#me4fd128890" y="224.64"/>
      </g>
     </g>
     <g id="text_5">
      <!-- 80 -->
      <g style="fill:#555555;" transform="translate(389.842495 239.238437)scale(0.1 -0.1)">
       <defs>
        <path d="M 2034 2216 
Q 1584 2216 1326 1975 
Q 1069 1734 1069 1313 
Q 1069 891 1326 650 
Q 1584 409 2034 409 
Q 2484 409 2743 651 
Q 3003 894 3003 1313 
Q 3003 1734 2745 1975 
Q 2488 2216 2034 2216 
z
M 1403 2484 
Q 997 2584 770 2862 
Q 544 3141 544 3541 
Q 544 4100 942 4425 
Q 1341 4750 2034 4750 
Q 2731 4750 3128 4425 
Q 3525 4100 3525 3541 
Q 3525 3141 3298 2862 
Q 3072 2584 2669 2484 
Q 3125 2378 3379 2068 
Q 3634 1759 3634 1313 
Q 3634 634 3220 271 
Q 2806 -91 2034 -91 
Q 1263 -91 848 271 
Q 434 634 434 1313 
Q 434 1759 690 2068 
Q 947 2378 1403 2484 
z
M 1172 3481 
Q 1172 3119 1398 2916 
Q 1625 2713 2034 2713 
Q 2441 2713 2670 2916 
Q 2900 3119 2900 3481 
Q 2900 3844 2670 4047 
Q 2441 4250 2034 4250 
Q 1625 4250 1398 4047 
Q 1172 3844 1172 3481 
z
" id="DejaVuSans-38" transform="scale(0.015625)"/>
       </defs>
       <use xlink:href="#DejaVuSans-38"/>
       <use x="63.623047" xlink:href="#DejaVuSans-30"/>
      </g>
     </g>
    </g>
    <g id="xtick_6">
     <g id="line2d_11">
      <path clip-path="url(#p27bf81b3f1)" d="M 478.188466 224.64 
L 478.188466 7.2 
" style="fill:none;stroke:#ffffff;stroke-linecap:square;stroke-width:0.8;"/>
     </g>
     <g id="line2d_12">
      <g>
       <use style="fill:#555555;stroke:#555555;stroke-width:0.8;" x="478.188466" xlink:href="#me4fd128890" y="224.64"/>
      </g>
     </g>
     <g id="text_6">
      <!-- 100 -->
      <g style="fill:#555555;" transform="translate(468.644716 239.238437)scale(0.1 -0.1)">
       <defs>
        <path d="M 794 531 
L 1825 531 
L 1825 4091 
L 703 3866 
L 703 4441 
L 1819 4666 
L 2450 4666 
L 2450 531 
L 3481 531 
L 3481 0 
L 794 0 
L 794 531 
z
" id="DejaVuSans-31" transform="scale(0.015625)"/>
       </defs>
       <use xlink:href="#DejaVuSans-31"/>
       <use x="63.623047" xlink:href="#DejaVuSans-30"/>
       <use x="127.246094" xlink:href="#DejaVuSans-30"/>
      </g>
     </g>
    </g>
    <g id="text_7">
     <!-- Epoch number -->
     <g style="fill:#555555;" transform="translate(231.5825 254.43625)scale(0.12 -0.12)">
      <defs>
       <path d="M 628 4666 
L 3578 4666 
L 3578 4134 
L 1259 4134 
L 1259 2753 
L 3481 2753 
L 3481 2222 
L 1259 2222 
L 1259 531 
L 3634 531 
L 3634 0 
L 628 0 
L 628 4666 
z
" id="DejaVuSans-45" transform="scale(0.015625)"/>
       <path d="M 1159 525 
L 1159 -1331 
L 581 -1331 
L 581 3500 
L 1159 3500 
L 1159 2969 
Q 1341 3281 1617 3432 
Q 1894 3584 2278 3584 
Q 2916 3584 3314 3078 
Q 3713 2572 3713 1747 
Q 3713 922 3314 415 
Q 2916 -91 2278 -91 
Q 1894 -91 1617 61 
Q 1341 213 1159 525 
z
M 3116 1747 
Q 3116 2381 2855 2742 
Q 2594 3103 2138 3103 
Q 1681 3103 1420 2742 
Q 1159 2381 1159 1747 
Q 1159 1113 1420 752 
Q 1681 391 2138 391 
Q 2594 391 2855 752 
Q 3116 1113 3116 1747 
z
" id="DejaVuSans-70" transform="scale(0.015625)"/>
       <path d="M 1959 3097 
Q 1497 3097 1228 2736 
Q 959 2375 959 1747 
Q 959 1119 1226 758 
Q 1494 397 1959 397 
Q 2419 397 2687 759 
Q 2956 1122 2956 1747 
Q 2956 2369 2687 2733 
Q 2419 3097 1959 3097 
z
M 1959 3584 
Q 2709 3584 3137 3096 
Q 3566 2609 3566 1747 
Q 3566 888 3137 398 
Q 2709 -91 1959 -91 
Q 1206 -91 779 398 
Q 353 888 353 1747 
Q 353 2609 779 3096 
Q 1206 3584 1959 3584 
z
" id="DejaVuSans-6f" transform="scale(0.015625)"/>
       <path d="M 3122 3366 
L 3122 2828 
Q 2878 2963 2633 3030 
Q 2388 3097 2138 3097 
Q 1578 3097 1268 2742 
Q 959 2388 959 1747 
Q 959 1106 1268 751 
Q 1578 397 2138 397 
Q 2388 397 2633 464 
Q 2878 531 3122 666 
L 3122 134 
Q 2881 22 2623 -34 
Q 2366 -91 2075 -91 
Q 1284 -91 818 406 
Q 353 903 353 1747 
Q 353 2603 823 3093 
Q 1294 3584 2113 3584 
Q 2378 3584 2631 3529 
Q 2884 3475 3122 3366 
z
" id="DejaVuSans-63" transform="scale(0.015625)"/>
       <path d="M 3513 2113 
L 3513 0 
L 2938 0 
L 2938 2094 
Q 2938 2591 2744 2837 
Q 2550 3084 2163 3084 
Q 1697 3084 1428 2787 
Q 1159 2491 1159 1978 
L 1159 0 
L 581 0 
L 581 4863 
L 1159 4863 
L 1159 2956 
Q 1366 3272 1645 3428 
Q 1925 3584 2291 3584 
Q 2894 3584 3203 3211 
Q 3513 2838 3513 2113 
z
" id="DejaVuSans-68" transform="scale(0.015625)"/>
       <path id="DejaVuSans-20" transform="scale(0.015625)"/>
       <path d="M 3513 2113 
L 3513 0 
L 2938 0 
L 2938 2094 
Q 2938 2591 2744 2837 
Q 2550 3084 2163 3084 
Q 1697 3084 1428 2787 
Q 1159 2491 1159 1978 
L 1159 0 
L 581 0 
L 581 3500 
L 1159 3500 
L 1159 2956 
Q 1366 3272 1645 3428 
Q 1925 3584 2291 3584 
Q 2894 3584 3203 3211 
Q 3513 2838 3513 2113 
z
" id="DejaVuSans-6e" transform="scale(0.015625)"/>
       <path d="M 544 1381 
L 544 3500 
L 1119 3500 
L 1119 1403 
Q 1119 906 1312 657 
Q 1506 409 1894 409 
Q 2359 409 2629 706 
Q 2900 1003 2900 1516 
L 2900 3500 
L 3475 3500 
L 3475 0 
L 2900 0 
L 2900 538 
Q 2691 219 2414 64 
Q 2138 -91 1772 -91 
Q 1169 -91 856 284 
Q 544 659 544 1381 
z
M 1991 3584 
L 1991 3584 
z
" id="DejaVuSans-75" transform="scale(0.015625)"/>
       <path d="M 3328 2828 
Q 3544 3216 3844 3400 
Q 4144 3584 4550 3584 
Q 5097 3584 5394 3201 
Q 5691 2819 5691 2113 
L 5691 0 
L 5113 0 
L 5113 2094 
Q 5113 2597 4934 2840 
Q 4756 3084 4391 3084 
Q 3944 3084 3684 2787 
Q 3425 2491 3425 1978 
L 3425 0 
L 2847 0 
L 2847 2094 
Q 2847 2600 2669 2842 
Q 2491 3084 2119 3084 
Q 1678 3084 1418 2786 
Q 1159 2488 1159 1978 
L 1159 0 
L 581 0 
L 581 3500 
L 1159 3500 
L 1159 2956 
Q 1356 3278 1631 3431 
Q 1906 3584 2284 3584 
Q 2666 3584 2933 3390 
Q 3200 3197 3328 2828 
z
" id="DejaVuSans-6d" transform="scale(0.015625)"/>
       <path d="M 3116 1747 
Q 3116 2381 2855 2742 
Q 2594 3103 2138 3103 
Q 1681 3103 1420 2742 
Q 1159 2381 1159 1747 
Q 1159 1113 1420 752 
Q 1681 391 2138 391 
Q 2594 391 2855 752 
Q 3116 1113 3116 1747 
z
M 1159 2969 
Q 1341 3281 1617 3432 
Q 1894 3584 2278 3584 
Q 2916 3584 3314 3078 
Q 3713 2572 3713 1747 
Q 3713 922 3314 415 
Q 2916 -91 2278 -91 
Q 1894 -91 1617 61 
Q 1341 213 1159 525 
L 1159 0 
L 581 0 
L 581 4863 
L 1159 4863 
L 1159 2969 
z
" id="DejaVuSans-62" transform="scale(0.015625)"/>
       <path d="M 3597 1894 
L 3597 1613 
L 953 1613 
Q 991 1019 1311 708 
Q 1631 397 2203 397 
Q 2534 397 2845 478 
Q 3156 559 3463 722 
L 3463 178 
Q 3153 47 2828 -22 
Q 2503 -91 2169 -91 
Q 1331 -91 842 396 
Q 353 884 353 1716 
Q 353 2575 817 3079 
Q 1281 3584 2069 3584 
Q 2775 3584 3186 3129 
Q 3597 2675 3597 1894 
z
M 3022 2063 
Q 3016 2534 2758 2815 
Q 2500 3097 2075 3097 
Q 1594 3097 1305 2825 
Q 1016 2553 972 2059 
L 3022 2063 
z
" id="DejaVuSans-65" transform="scale(0.015625)"/>
       <path d="M 2631 2963 
Q 2534 3019 2420 3045 
Q 2306 3072 2169 3072 
Q 1681 3072 1420 2755 
Q 1159 2438 1159 1844 
L 1159 0 
L 581 0 
L 581 3500 
L 1159 3500 
L 1159 2956 
Q 1341 3275 1631 3429 
Q 1922 3584 2338 3584 
Q 2397 3584 2469 3576 
Q 2541 3569 2628 3553 
L 2631 2963 
z
" id="DejaVuSans-72" transform="scale(0.015625)"/>
      </defs>
      <use xlink:href="#DejaVuSans-45"/>
      <use x="63.183594" xlink:href="#DejaVuSans-70"/>
      <use x="126.660156" xlink:href="#DejaVuSans-6f"/>
      <use x="187.841797" xlink:href="#DejaVuSans-63"/>
      <use x="242.822266" xlink:href="#DejaVuSans-68"/>
      <use x="306.201172" xlink:href="#DejaVuSans-20"/>
      <use x="337.988281" xlink:href="#DejaVuSans-6e"/>
      <use x="401.367188" xlink:href="#DejaVuSans-75"/>
      <use x="464.746094" xlink:href="#DejaVuSans-6d"/>
      <use x="562.158203" xlink:href="#DejaVuSans-62"/>
      <use x="625.634766" xlink:href="#DejaVuSans-65"/>
      <use x="687.158203" xlink:href="#DejaVuSans-72"/>
     </g>
    </g>
   </g>
   <g id="matplotlib.axis_2">
    <g id="ytick_1">
     <g id="line2d_13">
      <path clip-path="url(#p27bf81b3f1)" d="M 52.079375 195.137885 
L 498.479375 195.137885 
" style="fill:none;stroke:#ffffff;stroke-linecap:square;stroke-width:0.8;"/>
     </g>
     <g id="line2d_14">
      <defs>
       <path d="M 0 0 
L -3.5 0 
" id="m0e2a647da9" style="stroke:#555555;stroke-width:0.8;"/>
      </defs>
      <g>
       <use style="fill:#555555;stroke:#555555;stroke-width:0.8;" x="52.079375" xlink:href="#m0e2a647da9" y="195.137885"/>
      </g>
     </g>
     <g id="text_8">
      <!-- 0.70 -->
      <g style="fill:#555555;" transform="translate(22.81375 198.937103)scale(0.1 -0.1)">
       <defs>
        <path d="M 684 794 
L 1344 794 
L 1344 0 
L 684 0 
L 684 794 
z
" id="DejaVuSans-2e" transform="scale(0.015625)"/>
        <path d="M 525 4666 
L 3525 4666 
L 3525 4397 
L 1831 0 
L 1172 0 
L 2766 4134 
L 525 4134 
L 525 4666 
z
" id="DejaVuSans-37" transform="scale(0.015625)"/>
       </defs>
       <use xlink:href="#DejaVuSans-30"/>
       <use x="63.623047" xlink:href="#DejaVuSans-2e"/>
       <use x="95.410156" xlink:href="#DejaVuSans-37"/>
       <use x="159.033203" xlink:href="#DejaVuSans-30"/>
      </g>
     </g>
    </g>
    <g id="ytick_2">
     <g id="line2d_15">
      <path clip-path="url(#p27bf81b3f1)" d="M 52.079375 153.362687 
L 498.479375 153.362687 
" style="fill:none;stroke:#ffffff;stroke-linecap:square;stroke-width:0.8;"/>
     </g>
     <g id="line2d_16">
      <g>
       <use style="fill:#555555;stroke:#555555;stroke-width:0.8;" x="52.079375" xlink:href="#m0e2a647da9" y="153.362687"/>
      </g>
     </g>
     <g id="text_9">
      <!-- 0.75 -->
      <g style="fill:#555555;" transform="translate(22.81375 157.161906)scale(0.1 -0.1)">
       <defs>
        <path d="M 691 4666 
L 3169 4666 
L 3169 4134 
L 1269 4134 
L 1269 2991 
Q 1406 3038 1543 3061 
Q 1681 3084 1819 3084 
Q 2600 3084 3056 2656 
Q 3513 2228 3513 1497 
Q 3513 744 3044 326 
Q 2575 -91 1722 -91 
Q 1428 -91 1123 -41 
Q 819 9 494 109 
L 494 744 
Q 775 591 1075 516 
Q 1375 441 1709 441 
Q 2250 441 2565 725 
Q 2881 1009 2881 1497 
Q 2881 1984 2565 2268 
Q 2250 2553 1709 2553 
Q 1456 2553 1204 2497 
Q 953 2441 691 2322 
L 691 4666 
z
" id="DejaVuSans-35" transform="scale(0.015625)"/>
       </defs>
       <use xlink:href="#DejaVuSans-30"/>
       <use x="63.623047" xlink:href="#DejaVuSans-2e"/>
       <use x="95.410156" xlink:href="#DejaVuSans-37"/>
       <use x="159.033203" xlink:href="#DejaVuSans-35"/>
      </g>
     </g>
    </g>
    <g id="ytick_3">
     <g id="line2d_17">
      <path clip-path="url(#p27bf81b3f1)" d="M 52.079375 111.587489 
L 498.479375 111.587489 
" style="fill:none;stroke:#ffffff;stroke-linecap:square;stroke-width:0.8;"/>
     </g>
     <g id="line2d_18">
      <g>
       <use style="fill:#555555;stroke:#555555;stroke-width:0.8;" x="52.079375" xlink:href="#m0e2a647da9" y="111.587489"/>
      </g>
     </g>
     <g id="text_10">
      <!-- 0.80 -->
      <g style="fill:#555555;" transform="translate(22.81375 115.386708)scale(0.1 -0.1)">
       <use xlink:href="#DejaVuSans-30"/>
       <use x="63.623047" xlink:href="#DejaVuSans-2e"/>
       <use x="95.410156" xlink:href="#DejaVuSans-38"/>
       <use x="159.033203" xlink:href="#DejaVuSans-30"/>
      </g>
     </g>
    </g>
    <g id="ytick_4">
     <g id="line2d_19">
      <path clip-path="url(#p27bf81b3f1)" d="M 52.079375 69.812291 
L 498.479375 69.812291 
" style="fill:none;stroke:#ffffff;stroke-linecap:square;stroke-width:0.8;"/>
     </g>
     <g id="line2d_20">
      <g>
       <use style="fill:#555555;stroke:#555555;stroke-width:0.8;" x="52.079375" xlink:href="#m0e2a647da9" y="69.812291"/>
      </g>
     </g>
     <g id="text_11">
      <!-- 0.85 -->
      <g style="fill:#555555;" transform="translate(22.81375 73.61151)scale(0.1 -0.1)">
       <use xlink:href="#DejaVuSans-30"/>
       <use x="63.623047" xlink:href="#DejaVuSans-2e"/>
       <use x="95.410156" xlink:href="#DejaVuSans-38"/>
       <use x="159.033203" xlink:href="#DejaVuSans-35"/>
      </g>
     </g>
    </g>
    <g id="ytick_5">
     <g id="line2d_21">
      <path clip-path="url(#p27bf81b3f1)" d="M 52.079375 28.037093 
L 498.479375 28.037093 
" style="fill:none;stroke:#ffffff;stroke-linecap:square;stroke-width:0.8;"/>
     </g>
     <g id="line2d_22">
      <g>
       <use style="fill:#555555;stroke:#555555;stroke-width:0.8;" x="52.079375" xlink:href="#m0e2a647da9" y="28.037093"/>
      </g>
     </g>
     <g id="text_12">
      <!-- 0.90 -->
      <g style="fill:#555555;" transform="translate(22.81375 31.836312)scale(0.1 -0.1)">
       <defs>
        <path d="M 703 97 
L 703 672 
Q 941 559 1184 500 
Q 1428 441 1663 441 
Q 2288 441 2617 861 
Q 2947 1281 2994 2138 
Q 2813 1869 2534 1725 
Q 2256 1581 1919 1581 
Q 1219 1581 811 2004 
Q 403 2428 403 3163 
Q 403 3881 828 4315 
Q 1253 4750 1959 4750 
Q 2769 4750 3195 4129 
Q 3622 3509 3622 2328 
Q 3622 1225 3098 567 
Q 2575 -91 1691 -91 
Q 1453 -91 1209 -44 
Q 966 3 703 97 
z
M 1959 2075 
Q 2384 2075 2632 2365 
Q 2881 2656 2881 3163 
Q 2881 3666 2632 3958 
Q 2384 4250 1959 4250 
Q 1534 4250 1286 3958 
Q 1038 3666 1038 3163 
Q 1038 2656 1286 2365 
Q 1534 2075 1959 2075 
z
" id="DejaVuSans-39" transform="scale(0.015625)"/>
       </defs>
       <use xlink:href="#DejaVuSans-30"/>
       <use x="63.623047" xlink:href="#DejaVuSans-2e"/>
       <use x="95.410156" xlink:href="#DejaVuSans-39"/>
       <use x="159.033203" xlink:href="#DejaVuSans-30"/>
      </g>
     </g>
    </g>
    <g id="text_13">
     <!-- Accuracy -->
     <g style="fill:#555555;" transform="translate(16.318125 143.31375)rotate(-90)scale(0.12 -0.12)">
      <defs>
       <path d="M 2188 4044 
L 1331 1722 
L 3047 1722 
L 2188 4044 
z
M 1831 4666 
L 2547 4666 
L 4325 0 
L 3669 0 
L 3244 1197 
L 1141 1197 
L 716 0 
L 50 0 
L 1831 4666 
z
" id="DejaVuSans-41" transform="scale(0.015625)"/>
       <path d="M 2194 1759 
Q 1497 1759 1228 1600 
Q 959 1441 959 1056 
Q 959 750 1161 570 
Q 1363 391 1709 391 
Q 2188 391 2477 730 
Q 2766 1069 2766 1631 
L 2766 1759 
L 2194 1759 
z
M 3341 1997 
L 3341 0 
L 2766 0 
L 2766 531 
Q 2569 213 2275 61 
Q 1981 -91 1556 -91 
Q 1019 -91 701 211 
Q 384 513 384 1019 
Q 384 1609 779 1909 
Q 1175 2209 1959 2209 
L 2766 2209 
L 2766 2266 
Q 2766 2663 2505 2880 
Q 2244 3097 1772 3097 
Q 1472 3097 1187 3025 
Q 903 2953 641 2809 
L 641 3341 
Q 956 3463 1253 3523 
Q 1550 3584 1831 3584 
Q 2591 3584 2966 3190 
Q 3341 2797 3341 1997 
z
" id="DejaVuSans-61" transform="scale(0.015625)"/>
       <path d="M 2059 -325 
Q 1816 -950 1584 -1140 
Q 1353 -1331 966 -1331 
L 506 -1331 
L 506 -850 
L 844 -850 
Q 1081 -850 1212 -737 
Q 1344 -625 1503 -206 
L 1606 56 
L 191 3500 
L 800 3500 
L 1894 763 
L 2988 3500 
L 3597 3500 
L 2059 -325 
z
" id="DejaVuSans-79" transform="scale(0.015625)"/>
      </defs>
      <use xlink:href="#DejaVuSans-41"/>
      <use x="66.658203" xlink:href="#DejaVuSans-63"/>
      <use x="121.638672" xlink:href="#DejaVuSans-63"/>
      <use x="176.619141" xlink:href="#DejaVuSans-75"/>
      <use x="239.998047" xlink:href="#DejaVuSans-72"/>
      <use x="281.111328" xlink:href="#DejaVuSans-61"/>
      <use x="342.390625" xlink:href="#DejaVuSans-63"/>
      <use x="397.371094" xlink:href="#DejaVuSans-79"/>
     </g>
    </g>
   </g>
   <g id="line2d_23">
    <path clip-path="url(#p27bf81b3f1)" d="M 72.370284 211.371727 
L 76.469458 168.953191 
L 80.568631 143.720971 
L 84.667805 128.832291 
L 88.766978 117.786928 
L 92.866152 110.267393 
L 96.965325 105.195884 
L 101.064499 102.739502 
L 105.163673 98.678953 
L 109.262846 94.142166 
L 113.36202 92.596484 
L 117.461193 90.240363 
L 121.560367 87.023673 
L 125.65954 86.246654 
L 129.758714 87.43307 
L 133.857887 83.765207 
L 137.957061 83.22213 
L 142.056235 81.392376 
L 146.155408 81.634672 
L 150.254582 79.403877 
L 154.353755 78.326076 
L 158.452929 78.242526 
L 162.552102 77.00598 
L 166.651276 76.137056 
L 170.750449 75.351682 
L 174.849623 75.94489 
L 178.948796 76.496323 
L 183.04797 73.521929 
L 187.147144 73.313053 
L 191.246317 74.440983 
L 195.345491 71.926116 
L 199.444664 73.496864 
L 203.543838 72.920366 
L 207.643011 72.176767 
L 211.742185 70.221688 
L 215.841358 71.859276 
L 219.940532 68.767911 
L 224.039706 69.386184 
L 228.138879 69.4948 
L 232.238053 69.361119 
L 236.337226 70.129783 
L 240.4364 69.47809 
L 244.535573 68.909947 
L 248.634747 70.004457 
L 252.73392 69.937617 
L 256.833094 67.965827 
L 260.932268 68.659296 
L 265.031441 68.283319 
L 269.130615 69.085403 
L 273.229788 66.629021 
L 277.328962 67.907342 
L 281.428135 67.030063 
L 285.527309 67.280714 
L 289.626482 66.603956 
L 293.725656 67.681756 
L 297.82483 66.687506 
L 301.924003 68.834751 
L 306.023177 67.021708 
L 310.12235 66.812832 
L 314.221524 65.994038 
L 318.320697 65.551221 
L 322.419871 66.629021 
L 326.519044 65.968973 
L 330.618218 66.161139 
L 334.717392 65.275505 
L 338.816565 65.442605 
L 342.915739 64.506841 
L 347.014912 64.707362 
L 351.114086 65.200309 
L 355.213259 64.540261 
L 359.312433 65.609706 
L 363.411606 65.793517 
L 367.51078 65.28386 
L 371.609954 66.052523 
L 375.709127 63.437396 
L 379.808301 64.932948 
L 383.907474 64.055669 
L 388.006648 64.815977 
L 392.105821 64.214415 
L 396.204995 64.264545 
L 400.304168 64.064024 
L 404.403342 63.529301 
L 408.502515 64.515196 
L 412.601689 63.21181 
L 416.700863 63.136614 
L 420.800036 63.612852 
L 424.89921 63.537656 
L 428.998383 64.515196 
L 433.097557 62.785703 
L 437.19673 63.604497 
L 441.295904 64.40658 
L 445.395077 62.986224 
L 449.494251 62.752283 
L 453.593425 65.041563 
L 457.692598 63.621207 
L 461.791772 61.983619 
L 465.890945 63.103194 
L 469.990119 64.556971 
L 474.089292 62.276045 
L 478.188466 63.094839 
" style="fill:none;stroke:#ff0000;stroke-linecap:square;stroke-width:1.5;"/>
   </g>
   <g id="line2d_24">
    <path clip-path="url(#p27bf81b3f1)" d="M 72.370284 177.333295 
L 76.469458 130.779015 
L 80.568631 111.72117 
L 84.667805 99.932209 
L 88.766978 88.059698 
L 92.866152 84.057634 
L 96.965325 77.515638 
L 101.064499 72.945431 
L 105.163673 69.269214 
L 109.262846 67.731886 
L 113.36202 63.654627 
L 117.461193 64.314675 
L 121.560367 58.875544 
L 125.65954 59.594078 
L 129.758714 57.572158 
L 133.857887 56.168511 
L 137.957061 54.388888 
L 142.056235 52.283418 
L 146.155408 51.715275 
L 150.254582 53.169052 
L 154.353755 49.793616 
L 158.452929 49.685001 
L 162.552102 49.217119 
L 166.651276 47.679791 
L 170.750449 47.846892 
L 174.849623 45.532546 
L 178.948796 45.3738 
L 183.04797 45.181634 
L 187.147144 44.471456 
L 191.246317 42.917419 
L 195.345491 42.365986 
L 199.444664 43.602532 
L 203.543838 43.560757 
L 207.643011 43.18478 
L 211.742185 41.881394 
L 215.841358 40.168611 
L 219.940532 40.527877 
L 224.039706 41.137795 
L 228.138879 39.191071 
L 232.238053 37.703874 
L 236.337226 38.397342 
L 240.4364 36.76811 
L 244.535573 39.132586 
L 248.634747 38.756609 
L 252.73392 35.606759 
L 256.833094 38.079851 
L 260.932268 36.743044 
L 265.031441 37.002051 
L 269.130615 36.400488 
L 273.229788 34.069432 
L 277.328962 36.93521 
L 281.428135 35.489789 
L 285.527309 35.347753 
L 289.626482 34.487184 
L 293.725656 35.264202 
L 297.82483 34.027657 
L 301.924003 35.189007 
L 306.023177 34.687705 
L 310.12235 32.507039 
L 314.221524 33.835491 
L 318.320697 33.810426 
L 322.419871 33.334188 
L 326.519044 33.509644 
L 330.618218 33.417739 
L 334.717392 33.016697 
L 338.816565 31.504435 
L 342.915739 32.005737 
L 347.014912 32.264743 
L 351.114086 33.334188 
L 355.213259 32.523749 
L 359.312433 31.128458 
L 363.411606 30.794256 
L 367.51078 31.504435 
L 371.609954 31.161878 
L 375.709127 29.766586 
L 379.808301 31.830281 
L 383.907474 28.989568 
L 388.006648 30.376504 
L 392.105821 30.426635 
L 396.204995 30.610445 
L 400.304168 30.55196 
L 404.403342 29.499225 
L 408.502515 30.6188 
L 412.601689 29.808362 
L 416.700863 31.755086 
L 420.800036 30.785901 
L 424.89921 29.532645 
L 428.998383 29.073118 
L 433.097557 30.050658 
L 437.19673 31.178588 
L 441.295904 31.103393 
L 445.395077 29.031343 
L 449.494251 28.287744 
L 453.593425 28.872597 
L 457.692598 28.972858 
L 461.791772 29.131603 
L 465.890945 27.861637 
L 469.990119 28.028738 
L 474.089292 27.28514 
L 478.188466 28.872597 
" style="fill:none;stroke:#0000ff;stroke-linecap:square;stroke-width:1.5;"/>
   </g>
   <g id="line2d_25">
    <path clip-path="url(#p27bf81b3f1)" d="M 72.370284 169.036741 
L 76.469458 123.292899 
L 80.568631 102.505561 
L 84.667805 89.847676 
L 88.766978 84.291575 
L 92.866152 74.93393 
L 96.965325 72.327158 
L 101.064499 67.915697 
L 105.163673 64.632167 
L 109.262846 60.981014 
L 113.36202 58.299047 
L 117.461193 57.488608 
L 121.560367 54.464083 
L 125.65954 52.116317 
L 129.758714 51.230683 
L 133.857887 49.526255 
L 137.957061 48.924692 
L 142.056235 47.938797 
L 146.155408 45.248475 
L 150.254582 45.733067 
L 154.353755 43.259975 
L 158.452929 40.536232 
L 162.552102 39.759214 
L 166.651276 39.107521 
L 170.750449 39.00726 
L 174.849623 39.416657 
L 178.948796 37.202572 
L 183.04797 37.444868 
L 187.147144 40.168611 
L 191.246317 36.300227 
L 195.345491 36.492393 
L 199.444664 35.130522 
L 203.543838 35.038616 
L 207.643011 35.598404 
L 211.742185 33.350898 
L 215.841358 31.120103 
L 219.940532 33.66839 
L 224.039706 32.883016 
L 228.138879 30.084078 
L 232.238053 30.326374 
L 236.337226 31.621405 
L 240.4364 31.730021 
L 244.535573 30.100788 
L 248.634747 30.159273 
L 252.73392 29.465805 
L 256.833094 29.148314 
L 260.932268 29.206799 
L 265.031441 28.162419 
L 269.130615 28.722206 
L 273.229788 28.296099 
L 277.328962 26.524831 
L 281.428135 25.614132 
L 285.527309 27.026133 
L 289.626482 27.719602 
L 293.725656 25.981754 
L 297.82483 24.661657 
L 301.924003 26.483056 
L 306.023177 25.455386 
L 310.12235 24.837113 
L 314.221524 24.310746 
L 318.320697 23.316496 
L 322.419871 23.901349 
L 326.519044 25.990109 
L 330.618218 24.837113 
L 334.717392 23.784378 
L 338.816565 23.542082 
L 342.915739 23.274721 
L 347.014912 21.536872 
L 351.114086 23.266366 
L 355.213259 21.353062 
L 359.312433 21.97969 
L 363.411606 21.177606 
L 367.51078 19.615213 
L 371.609954 23.149395 
L 375.709127 21.094055 
L 379.808301 21.169251 
L 383.907474 23.065845 
L 388.006648 20.835049 
L 392.105821 19.799024 
L 396.204995 21.127476 
L 400.304168 18.253342 
L 404.403342 18.86326 
L 408.502515 20.609463 
L 412.601689 20.02461 
L 416.700863 19.824089 
L 420.800036 20.333747 
L 424.89921 20.091451 
L 428.998383 19.966125 
L 433.097557 18.412088 
L 437.19673 19.414692 
L 441.295904 19.824089 
L 445.395077 19.172396 
L 449.494251 20.149936 
L 453.593425 17.977626 
L 457.692598 18.612609 
L 461.791772 18.144726 
L 465.890945 18.478928 
L 469.990119 17.292512 
L 474.089292 17.376063 
L 478.188466 17.083636 
" style="fill:none;stroke:#800080;stroke-linecap:square;stroke-width:1.5;"/>
   </g>
   <g id="line2d_26">
    <path clip-path="url(#p27bf81b3f1)" d="M 72.370284 214.756364 
L 76.469458 171.341886 
L 80.568631 146.171007 
L 84.667805 134.960448 
L 88.766978 124.014288 
L 92.866152 117.192769 
L 96.965325 112.116289 
L 101.064499 109.736689 
L 105.163673 105.559169 
L 109.262846 101.910449 
L 113.36202 100.905729 
L 117.461193 98.73765 
L 121.560367 95.72349 
L 125.65954 96.19941 
L 129.758714 96.09365 
L 133.857887 92.76221 
L 137.957061 93.55541 
L 142.056235 92.39205 
L 146.155408 92.28629 
L 150.254582 89.06061 
L 154.353755 89.16637 
L 158.452929 88.90197 
L 162.552102 86.62813 
L 166.651276 87.36845 
L 170.750449 86.78677 
L 174.849623 86.04645 
L 178.948796 87.31557 
L 183.04797 85.62341 
L 187.147144 84.77733 
L 191.246317 85.04173 
L 195.345491 83.77261 
L 199.444664 86.62813 
L 203.543838 84.35429 
L 207.643011 82.39773 
L 211.742185 82.82077 
L 215.841358 83.93125 
L 219.940532 82.76789 
L 224.039706 83.56109 
L 228.138879 81.97469 
L 232.238053 83.50821 
L 236.337226 80.864211 
L 240.4364 81.39301 
L 244.535573 81.55165 
L 248.634747 81.65741 
L 252.73392 82.66213 
L 256.833094 80.969971 
L 260.932268 82.02757 
L 265.031441 81.39301 
L 269.130615 82.82077 
L 273.229788 79.277811 
L 277.328962 80.071011 
L 281.428135 80.652691 
L 285.527309 80.018131 
L 289.626482 79.119171 
L 293.725656 80.599811 
L 297.82483 80.494051 
L 301.924003 83.03229 
L 306.023177 81.76317 
L 310.12235 79.859491 
L 314.221524 80.176771 
L 318.320697 79.647971 
L 322.419871 79.859491 
L 326.519044 79.595091 
L 330.618218 80.388291 
L 334.717392 79.277811 
L 338.816565 80.441171 
L 342.915739 80.599811 
L 347.014912 78.484611 
L 351.114086 79.965251 
L 355.213259 79.489331 
L 359.312433 81.181491 
L 363.411606 78.537491 
L 367.51078 80.071011 
L 371.609954 80.546931 
L 375.709127 79.753731 
L 379.808301 79.489331 
L 383.907474 79.330691 
L 388.006648 80.969971 
L 392.105821 78.960531 
L 396.204995 78.749011 
L 400.304168 78.643251 
L 404.403342 80.282531 
L 408.502515 80.176771 
L 412.601689 78.696131 
L 416.700863 77.585651 
L 420.800036 76.792451 
L 424.89921 78.907651 
L 428.998383 79.647971 
L 433.097557 78.114451 
L 437.19673 79.595091 
L 441.295904 80.811331 
L 445.395077 80.335411 
L 449.494251 79.066291 
L 453.593425 80.546931 
L 457.692598 80.599811 
L 461.791772 76.263651 
L 465.890945 78.590371 
L 469.990119 79.489331 
L 474.089292 80.018131 
L 478.188466 77.215491 
" style="fill:none;stroke:#808080;stroke-dasharray:5.55,2.4;stroke-dashoffset:0;stroke-width:1.5;"/>
   </g>
   <g id="line2d_27">
    <path clip-path="url(#p27bf81b3f1)" d="M 72.370284 180.384365 
L 76.469458 136.864128 
L 80.568631 117.351409 
L 84.667805 106.087969 
L 88.766978 99.84813 
L 92.866152 94.66589 
L 96.965325 88.53181 
L 101.064499 86.73389 
L 105.163673 83.77261 
L 109.262846 84.14277 
L 113.36202 82.18621 
L 117.461193 82.34485 
L 121.560367 79.912371 
L 125.65954 79.436451 
L 129.758714 78.537491 
L 133.857887 79.647971 
L 137.957061 78.325971 
L 142.056235 77.427011 
L 146.155408 75.100291 
L 150.254582 75.364691 
L 154.353755 74.624371 
L 158.452929 74.095571 
L 162.552102 79.066291 
L 166.651276 73.884051 
L 170.750449 73.936931 
L 174.849623 74.677251 
L 178.948796 73.831171 
L 183.04797 75.787731 
L 187.147144 74.783011 
L 191.246317 72.562051 
L 195.345491 72.086131 
L 199.444664 74.835891 
L 203.543838 76.580931 
L 207.643011 74.888771 
L 211.742185 75.364691 
L 215.841358 71.768851 
L 219.940532 71.557331 
L 224.039706 75.206051 
L 228.138879 73.831171 
L 232.238053 72.720691 
L 236.337226 73.355251 
L 240.4364 74.148451 
L 244.535573 76.845331 
L 248.634747 75.258931 
L 252.73392 72.139011 
L 256.833094 73.936931 
L 260.932268 74.730131 
L 265.031441 72.086131 
L 269.130615 73.408131 
L 273.229788 72.403411 
L 277.328962 73.778291 
L 281.428135 73.566771 
L 285.527309 73.989811 
L 289.626482 72.614931 
L 293.725656 71.504451 
L 297.82483 73.143731 
L 301.924003 73.196611 
L 306.023177 74.254211 
L 310.12235 70.869891 
L 314.221524 72.562051 
L 318.320697 72.720691 
L 322.419871 73.831171 
L 326.519044 74.201331 
L 330.618218 75.523331 
L 334.717392 70.711251 
L 338.816565 73.302371 
L 342.915739 73.037971 
L 347.014912 73.090851 
L 351.114086 73.513891 
L 355.213259 73.831171 
L 359.312433 74.307091 
L 363.411606 74.359971 
L 367.51078 71.874611 
L 371.609954 74.835891 
L 375.709127 72.139011 
L 379.808301 72.667811 
L 383.907474 72.244771 
L 388.006648 71.028531 
L 392.105821 72.350531 
L 396.204995 73.037971 
L 400.304168 73.513891 
L 404.403342 72.350531 
L 408.502515 72.403411 
L 412.601689 70.764131 
L 416.700863 72.509171 
L 420.800036 72.773571 
L 424.89921 70.393971 
L 428.998383 72.509171 
L 433.097557 74.148451 
L 437.19673 72.562051 
L 441.295904 73.778291 
L 445.395077 73.884051 
L 449.494251 71.874611 
L 453.593425 71.134291 
L 457.692598 71.715971 
L 461.791772 72.562051 
L 465.890945 73.408131 
L 469.990119 73.725411 
L 474.089292 72.244771 
L 478.188466 74.412851 
" style="fill:none;stroke:#ffff00;stroke-dasharray:5.55,2.4;stroke-dashoffset:0;stroke-width:1.5;"/>
   </g>
   <g id="line2d_28">
    <path clip-path="url(#p27bf81b3f1)" d="M 72.370284 171.870686 
L 76.469458 128.667728 
L 80.568631 110.371249 
L 84.667805 103.708369 
L 88.766978 96.46381 
L 92.866152 90.01245 
L 96.965325 87.73861 
L 101.064499 84.88309 
L 105.163673 84.67157 
L 109.262846 83.29669 
L 113.36202 81.022851 
L 117.461193 80.494051 
L 121.560367 77.532771 
L 125.65954 76.898211 
L 129.758714 77.003971 
L 133.857887 75.100291 
L 137.957061 77.109731 
L 142.056235 76.422291 
L 146.155408 77.268371 
L 150.254582 76.951091 
L 154.353755 74.359971 
L 158.452929 75.629091 
L 162.552102 74.677251 
L 166.651276 74.730131 
L 170.750449 75.100291 
L 174.849623 75.417571 
L 178.948796 75.470451 
L 183.04797 77.162611 
L 187.147144 78.643251 
L 191.246317 74.307091 
L 195.345491 75.946371 
L 199.444664 77.215491 
L 203.543838 75.734851 
L 207.643011 77.638531 
L 211.742185 75.629091 
L 215.841358 75.417571 
L 219.940532 74.835891 
L 224.039706 76.052131 
L 228.138879 76.210771 
L 232.238053 75.840611 
L 236.337226 74.941651 
L 240.4364 75.681971 
L 244.535573 75.893491 
L 248.634747 77.109731 
L 252.73392 75.523331 
L 256.833094 74.624371 
L 260.932268 76.316531 
L 265.031441 78.484611 
L 269.130615 77.268371 
L 273.229788 75.417571 
L 277.328962 74.835891 
L 281.428135 74.307091 
L 285.527309 74.254211 
L 289.626482 76.686691 
L 293.725656 77.427011 
L 297.82483 75.787731 
L 301.924003 77.850051 
L 306.023177 77.374131 
L 310.12235 75.576211 
L 314.221524 75.787731 
L 318.320697 75.840611 
L 322.419871 75.311811 
L 326.519044 77.638531 
L 330.618218 78.167331 
L 334.717392 77.850051 
L 338.816565 79.806611 
L 342.915739 77.797171 
L 347.014912 76.105011 
L 351.114086 78.273091 
L 355.213259 77.955811 
L 359.312433 79.119171 
L 363.411606 77.162611 
L 367.51078 73.831171 
L 371.609954 78.273091 
L 375.709127 73.831171 
L 379.808301 77.585651 
L 383.907474 78.061571 
L 388.006648 75.893491 
L 392.105821 77.162611 
L 396.204995 75.840611 
L 400.304168 76.105011 
L 404.403342 73.989811 
L 408.502515 78.960531 
L 412.601689 78.273091 
L 416.700863 77.374131 
L 420.800036 78.696131 
L 424.89921 77.955811 
L 428.998383 79.066291 
L 433.097557 77.321251 
L 437.19673 76.580931 
L 441.295904 78.167331 
L 445.395077 75.787731 
L 449.494251 78.537491 
L 453.593425 76.316531 
L 457.692598 76.845331 
L 461.791772 78.960531 
L 465.890945 80.282531 
L 469.990119 77.003971 
L 474.089292 78.537491 
L 478.188466 78.273091 
" style="fill:none;stroke:#008000;stroke-dasharray:5.55,2.4;stroke-dashoffset:0;stroke-width:1.5;"/>
   </g>
   <g id="patch_3">
    <path d="M 52.079375 224.64 
L 52.079375 7.2 
" style="fill:none;stroke:#ffffff;stroke-linecap:square;stroke-linejoin:miter;"/>
   </g>
   <g id="patch_4">
    <path d="M 498.479375 224.64 
L 498.479375 7.2 
" style="fill:none;stroke:#ffffff;stroke-linecap:square;stroke-linejoin:miter;"/>
   </g>
   <g id="patch_5">
    <path d="M 52.079375 224.64 
L 498.479375 224.64 
" style="fill:none;stroke:#ffffff;stroke-linecap:square;stroke-linejoin:miter;"/>
   </g>
   <g id="patch_6">
    <path d="M 52.079375 7.2 
L 498.479375 7.2 
" style="fill:none;stroke:#ffffff;stroke-linecap:square;stroke-linejoin:miter;"/>
   </g>
   <g id="legend_1">
    <g id="patch_7">
     <path d="M 505.479375 103.26875 
L 633.755938 103.26875 
Q 635.755938 103.26875 635.755938 101.26875 
L 635.755938 14.2 
Q 635.755938 12.2 633.755938 12.2 
L 505.479375 12.2 
Q 503.479375 12.2 503.479375 14.2 
L 503.479375 101.26875 
Q 503.479375 103.26875 505.479375 103.26875 
z
" style="fill:#e5e5e5;opacity:0.8;stroke:#cccccc;stroke-linejoin:miter;stroke-width:0.5;"/>
    </g>
    <g id="line2d_29">
     <path d="M 507.479375 20.298437 
L 527.479375 20.298437 
" style="fill:none;stroke:#ff0000;stroke-linecap:square;stroke-width:1.5;"/>
    </g>
    <g id="line2d_30"/>
    <g id="text_14">
     <!-- dropout 0.7(train) -->
     <g transform="translate(535.479375 23.798437)scale(0.1 -0.1)">
      <defs>
       <path d="M 2906 2969 
L 2906 4863 
L 3481 4863 
L 3481 0 
L 2906 0 
L 2906 525 
Q 2725 213 2448 61 
Q 2172 -91 1784 -91 
Q 1150 -91 751 415 
Q 353 922 353 1747 
Q 353 2572 751 3078 
Q 1150 3584 1784 3584 
Q 2172 3584 2448 3432 
Q 2725 3281 2906 2969 
z
M 947 1747 
Q 947 1113 1208 752 
Q 1469 391 1925 391 
Q 2381 391 2643 752 
Q 2906 1113 2906 1747 
Q 2906 2381 2643 2742 
Q 2381 3103 1925 3103 
Q 1469 3103 1208 2742 
Q 947 2381 947 1747 
z
" id="DejaVuSans-64" transform="scale(0.015625)"/>
       <path d="M 1172 4494 
L 1172 3500 
L 2356 3500 
L 2356 3053 
L 1172 3053 
L 1172 1153 
Q 1172 725 1289 603 
Q 1406 481 1766 481 
L 2356 481 
L 2356 0 
L 1766 0 
Q 1100 0 847 248 
Q 594 497 594 1153 
L 594 3053 
L 172 3053 
L 172 3500 
L 594 3500 
L 594 4494 
L 1172 4494 
z
" id="DejaVuSans-74" transform="scale(0.015625)"/>
       <path d="M 1984 4856 
Q 1566 4138 1362 3434 
Q 1159 2731 1159 2009 
Q 1159 1288 1364 580 
Q 1569 -128 1984 -844 
L 1484 -844 
Q 1016 -109 783 600 
Q 550 1309 550 2009 
Q 550 2706 781 3412 
Q 1013 4119 1484 4856 
L 1984 4856 
z
" id="DejaVuSans-28" transform="scale(0.015625)"/>
       <path d="M 603 3500 
L 1178 3500 
L 1178 0 
L 603 0 
L 603 3500 
z
M 603 4863 
L 1178 4863 
L 1178 4134 
L 603 4134 
L 603 4863 
z
" id="DejaVuSans-69" transform="scale(0.015625)"/>
       <path d="M 513 4856 
L 1013 4856 
Q 1481 4119 1714 3412 
Q 1947 2706 1947 2009 
Q 1947 1309 1714 600 
Q 1481 -109 1013 -844 
L 513 -844 
Q 928 -128 1133 580 
Q 1338 1288 1338 2009 
Q 1338 2731 1133 3434 
Q 928 4138 513 4856 
z
" id="DejaVuSans-29" transform="scale(0.015625)"/>
      </defs>
      <use xlink:href="#DejaVuSans-64"/>
      <use x="63.476562" xlink:href="#DejaVuSans-72"/>
      <use x="102.339844" xlink:href="#DejaVuSans-6f"/>
      <use x="163.521484" xlink:href="#DejaVuSans-70"/>
      <use x="226.998047" xlink:href="#DejaVuSans-6f"/>
      <use x="288.179688" xlink:href="#DejaVuSans-75"/>
      <use x="351.558594" xlink:href="#DejaVuSans-74"/>
      <use x="390.767578" xlink:href="#DejaVuSans-20"/>
      <use x="422.554688" xlink:href="#DejaVuSans-30"/>
      <use x="486.177734" xlink:href="#DejaVuSans-2e"/>
      <use x="517.964844" xlink:href="#DejaVuSans-37"/>
      <use x="581.587891" xlink:href="#DejaVuSans-28"/>
      <use x="620.601562" xlink:href="#DejaVuSans-74"/>
      <use x="659.810547" xlink:href="#DejaVuSans-72"/>
      <use x="700.923828" xlink:href="#DejaVuSans-61"/>
      <use x="762.203125" xlink:href="#DejaVuSans-69"/>
      <use x="789.986328" xlink:href="#DejaVuSans-6e"/>
      <use x="853.365234" xlink:href="#DejaVuSans-29"/>
     </g>
    </g>
    <g id="line2d_31">
     <path d="M 507.479375 34.976562 
L 527.479375 34.976562 
" style="fill:none;stroke:#0000ff;stroke-linecap:square;stroke-width:1.5;"/>
    </g>
    <g id="line2d_32"/>
    <g id="text_15">
     <!-- dropout 0.9(train) -->
     <g transform="translate(535.479375 38.476562)scale(0.1 -0.1)">
      <use xlink:href="#DejaVuSans-64"/>
      <use x="63.476562" xlink:href="#DejaVuSans-72"/>
      <use x="102.339844" xlink:href="#DejaVuSans-6f"/>
      <use x="163.521484" xlink:href="#DejaVuSans-70"/>
      <use x="226.998047" xlink:href="#DejaVuSans-6f"/>
      <use x="288.179688" xlink:href="#DejaVuSans-75"/>
      <use x="351.558594" xlink:href="#DejaVuSans-74"/>
      <use x="390.767578" xlink:href="#DejaVuSans-20"/>
      <use x="422.554688" xlink:href="#DejaVuSans-30"/>
      <use x="486.177734" xlink:href="#DejaVuSans-2e"/>
      <use x="517.964844" xlink:href="#DejaVuSans-39"/>
      <use x="581.587891" xlink:href="#DejaVuSans-28"/>
      <use x="620.601562" xlink:href="#DejaVuSans-74"/>
      <use x="659.810547" xlink:href="#DejaVuSans-72"/>
      <use x="700.923828" xlink:href="#DejaVuSans-61"/>
      <use x="762.203125" xlink:href="#DejaVuSans-69"/>
      <use x="789.986328" xlink:href="#DejaVuSans-6e"/>
      <use x="853.365234" xlink:href="#DejaVuSans-29"/>
     </g>
    </g>
    <g id="line2d_33">
     <path d="M 507.479375 49.654687 
L 527.479375 49.654687 
" style="fill:none;stroke:#800080;stroke-linecap:square;stroke-width:1.5;"/>
    </g>
    <g id="line2d_34"/>
    <g id="text_16">
     <!-- dropout 0.95(train) -->
     <g transform="translate(535.479375 53.154687)scale(0.1 -0.1)">
      <use xlink:href="#DejaVuSans-64"/>
      <use x="63.476562" xlink:href="#DejaVuSans-72"/>
      <use x="102.339844" xlink:href="#DejaVuSans-6f"/>
      <use x="163.521484" xlink:href="#DejaVuSans-70"/>
      <use x="226.998047" xlink:href="#DejaVuSans-6f"/>
      <use x="288.179688" xlink:href="#DejaVuSans-75"/>
      <use x="351.558594" xlink:href="#DejaVuSans-74"/>
      <use x="390.767578" xlink:href="#DejaVuSans-20"/>
      <use x="422.554688" xlink:href="#DejaVuSans-30"/>
      <use x="486.177734" xlink:href="#DejaVuSans-2e"/>
      <use x="517.964844" xlink:href="#DejaVuSans-39"/>
      <use x="581.587891" xlink:href="#DejaVuSans-35"/>
      <use x="645.210938" xlink:href="#DejaVuSans-28"/>
      <use x="684.224609" xlink:href="#DejaVuSans-74"/>
      <use x="723.433594" xlink:href="#DejaVuSans-72"/>
      <use x="764.546875" xlink:href="#DejaVuSans-61"/>
      <use x="825.826172" xlink:href="#DejaVuSans-69"/>
      <use x="853.609375" xlink:href="#DejaVuSans-6e"/>
      <use x="916.988281" xlink:href="#DejaVuSans-29"/>
     </g>
    </g>
    <g id="line2d_35">
     <path d="M 507.479375 64.332812 
L 527.479375 64.332812 
" style="fill:none;stroke:#808080;stroke-dasharray:5.55,2.4;stroke-dashoffset:0;stroke-width:1.5;"/>
    </g>
    <g id="line2d_36"/>
    <g id="text_17">
     <!-- dropout 0.7(valid) -->
     <g transform="translate(535.479375 67.832812)scale(0.1 -0.1)">
      <defs>
       <path d="M 191 3500 
L 800 3500 
L 1894 563 
L 2988 3500 
L 3597 3500 
L 2284 0 
L 1503 0 
L 191 3500 
z
" id="DejaVuSans-76" transform="scale(0.015625)"/>
       <path d="M 603 4863 
L 1178 4863 
L 1178 0 
L 603 0 
L 603 4863 
z
" id="DejaVuSans-6c" transform="scale(0.015625)"/>
      </defs>
      <use xlink:href="#DejaVuSans-64"/>
      <use x="63.476562" xlink:href="#DejaVuSans-72"/>
      <use x="102.339844" xlink:href="#DejaVuSans-6f"/>
      <use x="163.521484" xlink:href="#DejaVuSans-70"/>
      <use x="226.998047" xlink:href="#DejaVuSans-6f"/>
      <use x="288.179688" xlink:href="#DejaVuSans-75"/>
      <use x="351.558594" xlink:href="#DejaVuSans-74"/>
      <use x="390.767578" xlink:href="#DejaVuSans-20"/>
      <use x="422.554688" xlink:href="#DejaVuSans-30"/>
      <use x="486.177734" xlink:href="#DejaVuSans-2e"/>
      <use x="517.964844" xlink:href="#DejaVuSans-37"/>
      <use x="581.587891" xlink:href="#DejaVuSans-28"/>
      <use x="620.601562" xlink:href="#DejaVuSans-76"/>
      <use x="679.78125" xlink:href="#DejaVuSans-61"/>
      <use x="741.060547" xlink:href="#DejaVuSans-6c"/>
      <use x="768.84375" xlink:href="#DejaVuSans-69"/>
      <use x="796.626953" xlink:href="#DejaVuSans-64"/>
      <use x="860.103516" xlink:href="#DejaVuSans-29"/>
     </g>
    </g>
    <g id="line2d_37">
     <path d="M 507.479375 79.010937 
L 527.479375 79.010937 
" style="fill:none;stroke:#ffff00;stroke-dasharray:5.55,2.4;stroke-dashoffset:0;stroke-width:1.5;"/>
    </g>
    <g id="line2d_38"/>
    <g id="text_18">
     <!-- dropout 0.9(valid) -->
     <g transform="translate(535.479375 82.510937)scale(0.1 -0.1)">
      <use xlink:href="#DejaVuSans-64"/>
      <use x="63.476562" xlink:href="#DejaVuSans-72"/>
      <use x="102.339844" xlink:href="#DejaVuSans-6f"/>
      <use x="163.521484" xlink:href="#DejaVuSans-70"/>
      <use x="226.998047" xlink:href="#DejaVuSans-6f"/>
      <use x="288.179688" xlink:href="#DejaVuSans-75"/>
      <use x="351.558594" xlink:href="#DejaVuSans-74"/>
      <use x="390.767578" xlink:href="#DejaVuSans-20"/>
      <use x="422.554688" xlink:href="#DejaVuSans-30"/>
      <use x="486.177734" xlink:href="#DejaVuSans-2e"/>
      <use x="517.964844" xlink:href="#DejaVuSans-39"/>
      <use x="581.587891" xlink:href="#DejaVuSans-28"/>
      <use x="620.601562" xlink:href="#DejaVuSans-76"/>
      <use x="679.78125" xlink:href="#DejaVuSans-61"/>
      <use x="741.060547" xlink:href="#DejaVuSans-6c"/>
      <use x="768.84375" xlink:href="#DejaVuSans-69"/>
      <use x="796.626953" xlink:href="#DejaVuSans-64"/>
      <use x="860.103516" xlink:href="#DejaVuSans-29"/>
     </g>
    </g>
    <g id="line2d_39">
     <path d="M 507.479375 93.689062 
L 527.479375 93.689062 
" style="fill:none;stroke:#008000;stroke-dasharray:5.55,2.4;stroke-dashoffset:0;stroke-width:1.5;"/>
    </g>
    <g id="line2d_40"/>
    <g id="text_19">
     <!-- dropout 0.95(valid) -->
     <g transform="translate(535.479375 97.189062)scale(0.1 -0.1)">
      <use xlink:href="#DejaVuSans-64"/>
      <use x="63.476562" xlink:href="#DejaVuSans-72"/>
      <use x="102.339844" xlink:href="#DejaVuSans-6f"/>
      <use x="163.521484" xlink:href="#DejaVuSans-70"/>
      <use x="226.998047" xlink:href="#DejaVuSans-6f"/>
      <use x="288.179688" xlink:href="#DejaVuSans-75"/>
      <use x="351.558594" xlink:href="#DejaVuSans-74"/>
      <use x="390.767578" xlink:href="#DejaVuSans-20"/>
      <use x="422.554688" xlink:href="#DejaVuSans-30"/>
      <use x="486.177734" xlink:href="#DejaVuSans-2e"/>
      <use x="517.964844" xlink:href="#DejaVuSans-39"/>
      <use x="581.587891" xlink:href="#DejaVuSans-35"/>
      <use x="645.210938" xlink:href="#DejaVuSans-28"/>
      <use x="684.224609" xlink:href="#DejaVuSans-76"/>
      <use x="743.404297" xlink:href="#DejaVuSans-61"/>
      <use x="804.683594" xlink:href="#DejaVuSans-6c"/>
      <use x="832.466797" xlink:href="#DejaVuSans-69"/>
      <use x="860.25" xlink:href="#DejaVuSans-64"/>
      <use x="923.726562" xlink:href="#DejaVuSans-29"/>
     </g>
    </g>
   </g>
  </g>
 </g>
 <defs>
  <clipPath id="p27bf81b3f1">
   <rect height="217.44" width="446.4" x="52.079375" y="7.2"/>
  </clipPath>
 </defs>
</svg>
