<?xml version="1.0" encoding="utf-8" standalone="no"?>
<!DOCTYPE svg PUBLIC "-//W3C//DTD SVG 1.1//EN"
  "http://www.w3.org/Graphics/SVG/1.1/DTD/svg11.dtd">
<svg height="264.131875pt" version="1.1" viewBox="0 0 609.67 264.131875" width="609.67pt" xmlns="http://www.w3.org/2000/svg" xmlns:xlink="http://www.w3.org/1999/xlink">
 <metadata>
  <rdf:RDF xmlns:cc="http://creativecommons.org/ns#" xmlns:dc="http://purl.org/dc/elements/1.1/" xmlns:rdf="http://www.w3.org/1999/02/22-rdf-syntax-ns#">
   <cc:Work>
    <dc:type rdf:resource="http://purl.org/dc/dcmitype/StillImage"/>
    <dc:date>2021-11-04T14:44:02.776121</dc:date>
    <dc:format>image/svg+xml</dc:format>
    <dc:creator>
     <cc:Agent>
      <dc:title>Matplotlib v3.4.2, https://matplotlib.org/</dc:title>
     </cc:Agent>
    </dc:creator>
   </cc:Work>
  </rdf:RDF>
 </metadata>
 <defs>
  <style type="text/css">*{stroke-linecap:butt;stroke-linejoin:round;}</style>
 </defs>
 <g id="figure_1">
  <g id="patch_1">
   <path d="M 0 264.131875 
L 609.67 264.131875 
L 609.67 0 
L 0 0 
z
" style="fill:#ffffff;"/>
  </g>
  <g id="axes_1">
   <g id="patch_2">
    <path d="M 45.716875 224.64 
L 492.116875 224.64 
L 492.116875 7.2 
L 45.716875 7.2 
z
" style="fill:#e5e5e5;"/>
   </g>
   <g id="matplotlib.axis_1">
    <g id="xtick_1">
     <g id="line2d_1">
      <path clip-path="url(#p3bb74906a9)" d="M 61.908611 224.64 
L 61.908611 7.2 
" style="fill:none;stroke:#ffffff;stroke-linecap:square;stroke-width:0.8;"/>
     </g>
     <g id="line2d_2">
      <defs>
       <path d="M 0 0 
L 0 3.5 
" id="m87b80cef67" style="stroke:#555555;stroke-width:0.8;"/>
      </defs>
      <g>
       <use style="fill:#555555;stroke:#555555;stroke-width:0.8;" x="61.908611" xlink:href="#m87b80cef67" y="224.64"/>
      </g>
     </g>
     <g id="text_1">
      <!-- 0 -->
      <g style="fill:#555555;" transform="translate(58.727361 239.238437)scale(0.1 -0.1)">
       <defs>
        <path d="M 2034 4250 
Q 1547 4250 1301 3770 
Q 1056 3291 1056 2328 
Q 1056 1369 1301 889 
Q 1547 409 2034 409 
Q 2525 409 2770 889 
Q 3016 1369 3016 2328 
Q 3016 3291 2770 3770 
Q 2525 4250 2034 4250 
z
M 2034 4750 
Q 2819 4750 3233 4129 
Q 3647 3509 3647 2328 
Q 3647 1150 3233 529 
Q 2819 -91 2034 -91 
Q 1250 -91 836 529 
Q 422 1150 422 2328 
Q 422 3509 836 4129 
Q 1250 4750 2034 4750 
z
" id="DejaVuSans-30" transform="scale(0.015625)"/>
       </defs>
       <use xlink:href="#DejaVuSans-30"/>
      </g>
     </g>
    </g>
    <g id="xtick_2">
     <g id="line2d_3">
      <path clip-path="url(#p3bb74906a9)" d="M 143.892082 224.64 
L 143.892082 7.2 
" style="fill:none;stroke:#ffffff;stroke-linecap:square;stroke-width:0.8;"/>
     </g>
     <g id="line2d_4">
      <g>
       <use style="fill:#555555;stroke:#555555;stroke-width:0.8;" x="143.892082" xlink:href="#m87b80cef67" y="224.64"/>
      </g>
     </g>
     <g id="text_2">
      <!-- 20 -->
      <g style="fill:#555555;" transform="translate(137.529582 239.238437)scale(0.1 -0.1)">
       <defs>
        <path d="M 1228 531 
L 3431 531 
L 3431 0 
L 469 0 
L 469 531 
Q 828 903 1448 1529 
Q 2069 2156 2228 2338 
Q 2531 2678 2651 2914 
Q 2772 3150 2772 3378 
Q 2772 3750 2511 3984 
Q 2250 4219 1831 4219 
Q 1534 4219 1204 4116 
Q 875 4013 500 3803 
L 500 4441 
Q 881 4594 1212 4672 
Q 1544 4750 1819 4750 
Q 2544 4750 2975 4387 
Q 3406 4025 3406 3419 
Q 3406 3131 3298 2873 
Q 3191 2616 2906 2266 
Q 2828 2175 2409 1742 
Q 1991 1309 1228 531 
z
" id="DejaVuSans-32" transform="scale(0.015625)"/>
       </defs>
       <use xlink:href="#DejaVuSans-32"/>
       <use x="63.623047" xlink:href="#DejaVuSans-30"/>
      </g>
     </g>
    </g>
    <g id="xtick_3">
     <g id="line2d_5">
      <path clip-path="url(#p3bb74906a9)" d="M 225.875553 224.64 
L 225.875553 7.2 
" style="fill:none;stroke:#ffffff;stroke-linecap:square;stroke-width:0.8;"/>
     </g>
     <g id="line2d_6">
      <g>
       <use style="fill:#555555;stroke:#555555;stroke-width:0.8;" x="225.875553" xlink:href="#m87b80cef67" y="224.64"/>
      </g>
     </g>
     <g id="text_3">
      <!-- 40 -->
      <g style="fill:#555555;" transform="translate(219.513053 239.238437)scale(0.1 -0.1)">
       <defs>
        <path d="M 2419 4116 
L 825 1625 
L 2419 1625 
L 2419 4116 
z
M 2253 4666 
L 3047 4666 
L 3047 1625 
L 3713 1625 
L 3713 1100 
L 3047 1100 
L 3047 0 
L 2419 0 
L 2419 1100 
L 313 1100 
L 313 1709 
L 2253 4666 
z
" id="DejaVuSans-34" transform="scale(0.015625)"/>
       </defs>
       <use xlink:href="#DejaVuSans-34"/>
       <use x="63.623047" xlink:href="#DejaVuSans-30"/>
      </g>
     </g>
    </g>
    <g id="xtick_4">
     <g id="line2d_7">
      <path clip-path="url(#p3bb74906a9)" d="M 307.859024 224.64 
L 307.859024 7.2 
" style="fill:none;stroke:#ffffff;stroke-linecap:square;stroke-width:0.8;"/>
     </g>
     <g id="line2d_8">
      <g>
       <use style="fill:#555555;stroke:#555555;stroke-width:0.8;" x="307.859024" xlink:href="#m87b80cef67" y="224.64"/>
      </g>
     </g>
     <g id="text_4">
      <!-- 60 -->
      <g style="fill:#555555;" transform="translate(301.496524 239.238437)scale(0.1 -0.1)">
       <defs>
        <path d="M 2113 2584 
Q 1688 2584 1439 2293 
Q 1191 2003 1191 1497 
Q 1191 994 1439 701 
Q 1688 409 2113 409 
Q 2538 409 2786 701 
Q 3034 994 3034 1497 
Q 3034 2003 2786 2293 
Q 2538 2584 2113 2584 
z
M 3366 4563 
L 3366 3988 
Q 3128 4100 2886 4159 
Q 2644 4219 2406 4219 
Q 1781 4219 1451 3797 
Q 1122 3375 1075 2522 
Q 1259 2794 1537 2939 
Q 1816 3084 2150 3084 
Q 2853 3084 3261 2657 
Q 3669 2231 3669 1497 
Q 3669 778 3244 343 
Q 2819 -91 2113 -91 
Q 1303 -91 875 529 
Q 447 1150 447 2328 
Q 447 3434 972 4092 
Q 1497 4750 2381 4750 
Q 2619 4750 2861 4703 
Q 3103 4656 3366 4563 
z
" id="DejaVuSans-36" transform="scale(0.015625)"/>
       </defs>
       <use xlink:href="#DejaVuSans-36"/>
       <use x="63.623047" xlink:href="#DejaVuSans-30"/>
      </g>
     </g>
    </g>
    <g id="xtick_5">
     <g id="line2d_9">
      <path clip-path="url(#p3bb74906a9)" d="M 389.842495 224.64 
L 389.842495 7.2 
" style="fill:none;stroke:#ffffff;stroke-linecap:square;stroke-width:0.8;"/>
     </g>
     <g id="line2d_10">
      <g>
       <use style="fill:#555555;stroke:#555555;stroke-width:0.8;" x="389.842495" xlink:href="#m87b80cef67" y="224.64"/>
      </g>
     </g>
     <g id="text_5">
      <!-- 80 -->
      <g style="fill:#555555;" transform="translate(383.479995 239.238437)scale(0.1 -0.1)">
       <defs>
        <path d="M 2034 2216 
Q 1584 2216 1326 1975 
Q 1069 1734 1069 1313 
Q 1069 891 1326 650 
Q 1584 409 2034 409 
Q 2484 409 2743 651 
Q 3003 894 3003 1313 
Q 3003 1734 2745 1975 
Q 2488 2216 2034 2216 
z
M 1403 2484 
Q 997 2584 770 2862 
Q 544 3141 544 3541 
Q 544 4100 942 4425 
Q 1341 4750 2034 4750 
Q 2731 4750 3128 4425 
Q 3525 4100 3525 3541 
Q 3525 3141 3298 2862 
Q 3072 2584 2669 2484 
Q 3125 2378 3379 2068 
Q 3634 1759 3634 1313 
Q 3634 634 3220 271 
Q 2806 -91 2034 -91 
Q 1263 -91 848 271 
Q 434 634 434 1313 
Q 434 1759 690 2068 
Q 947 2378 1403 2484 
z
M 1172 3481 
Q 1172 3119 1398 2916 
Q 1625 2713 2034 2713 
Q 2441 2713 2670 2916 
Q 2900 3119 2900 3481 
Q 2900 3844 2670 4047 
Q 2441 4250 2034 4250 
Q 1625 4250 1398 4047 
Q 1172 3844 1172 3481 
z
" id="DejaVuSans-38" transform="scale(0.015625)"/>
       </defs>
       <use xlink:href="#DejaVuSans-38"/>
       <use x="63.623047" xlink:href="#DejaVuSans-30"/>
      </g>
     </g>
    </g>
    <g id="xtick_6">
     <g id="line2d_11">
      <path clip-path="url(#p3bb74906a9)" d="M 471.825966 224.64 
L 471.825966 7.2 
" style="fill:none;stroke:#ffffff;stroke-linecap:square;stroke-width:0.8;"/>
     </g>
     <g id="line2d_12">
      <g>
       <use style="fill:#555555;stroke:#555555;stroke-width:0.8;" x="471.825966" xlink:href="#m87b80cef67" y="224.64"/>
      </g>
     </g>
     <g id="text_6">
      <!-- 100 -->
      <g style="fill:#555555;" transform="translate(462.282216 239.238437)scale(0.1 -0.1)">
       <defs>
        <path d="M 794 531 
L 1825 531 
L 1825 4091 
L 703 3866 
L 703 4441 
L 1819 4666 
L 2450 4666 
L 2450 531 
L 3481 531 
L 3481 0 
L 794 0 
L 794 531 
z
" id="DejaVuSans-31" transform="scale(0.015625)"/>
       </defs>
       <use xlink:href="#DejaVuSans-31"/>
       <use x="63.623047" xlink:href="#DejaVuSans-30"/>
       <use x="127.246094" xlink:href="#DejaVuSans-30"/>
      </g>
     </g>
    </g>
    <g id="text_7">
     <!-- Epoch number -->
     <g style="fill:#555555;" transform="translate(225.22 254.43625)scale(0.12 -0.12)">
      <defs>
       <path d="M 628 4666 
L 3578 4666 
L 3578 4134 
L 1259 4134 
L 1259 2753 
L 3481 2753 
L 3481 2222 
L 1259 2222 
L 1259 531 
L 3634 531 
L 3634 0 
L 628 0 
L 628 4666 
z
" id="DejaVuSans-45" transform="scale(0.015625)"/>
       <path d="M 1159 525 
L 1159 -1331 
L 581 -1331 
L 581 3500 
L 1159 3500 
L 1159 2969 
Q 1341 3281 1617 3432 
Q 1894 3584 2278 3584 
Q 2916 3584 3314 3078 
Q 3713 2572 3713 1747 
Q 3713 922 3314 415 
Q 2916 -91 2278 -91 
Q 1894 -91 1617 61 
Q 1341 213 1159 525 
z
M 3116 1747 
Q 3116 2381 2855 2742 
Q 2594 3103 2138 3103 
Q 1681 3103 1420 2742 
Q 1159 2381 1159 1747 
Q 1159 1113 1420 752 
Q 1681 391 2138 391 
Q 2594 391 2855 752 
Q 3116 1113 3116 1747 
z
" id="DejaVuSans-70" transform="scale(0.015625)"/>
       <path d="M 1959 3097 
Q 1497 3097 1228 2736 
Q 959 2375 959 1747 
Q 959 1119 1226 758 
Q 1494 397 1959 397 
Q 2419 397 2687 759 
Q 2956 1122 2956 1747 
Q 2956 2369 2687 2733 
Q 2419 3097 1959 3097 
z
M 1959 3584 
Q 2709 3584 3137 3096 
Q 3566 2609 3566 1747 
Q 3566 888 3137 398 
Q 2709 -91 1959 -91 
Q 1206 -91 779 398 
Q 353 888 353 1747 
Q 353 2609 779 3096 
Q 1206 3584 1959 3584 
z
" id="DejaVuSans-6f" transform="scale(0.015625)"/>
       <path d="M 3122 3366 
L 3122 2828 
Q 2878 2963 2633 3030 
Q 2388 3097 2138 3097 
Q 1578 3097 1268 2742 
Q 959 2388 959 1747 
Q 959 1106 1268 751 
Q 1578 397 2138 397 
Q 2388 397 2633 464 
Q 2878 531 3122 666 
L 3122 134 
Q 2881 22 2623 -34 
Q 2366 -91 2075 -91 
Q 1284 -91 818 406 
Q 353 903 353 1747 
Q 353 2603 823 3093 
Q 1294 3584 2113 3584 
Q 2378 3584 2631 3529 
Q 2884 3475 3122 3366 
z
" id="DejaVuSans-63" transform="scale(0.015625)"/>
       <path d="M 3513 2113 
L 3513 0 
L 2938 0 
L 2938 2094 
Q 2938 2591 2744 2837 
Q 2550 3084 2163 3084 
Q 1697 3084 1428 2787 
Q 1159 2491 1159 1978 
L 1159 0 
L 581 0 
L 581 4863 
L 1159 4863 
L 1159 2956 
Q 1366 3272 1645 3428 
Q 1925 3584 2291 3584 
Q 2894 3584 3203 3211 
Q 3513 2838 3513 2113 
z
" id="DejaVuSans-68" transform="scale(0.015625)"/>
       <path id="DejaVuSans-20" transform="scale(0.015625)"/>
       <path d="M 3513 2113 
L 3513 0 
L 2938 0 
L 2938 2094 
Q 2938 2591 2744 2837 
Q 2550 3084 2163 3084 
Q 1697 3084 1428 2787 
Q 1159 2491 1159 1978 
L 1159 0 
L 581 0 
L 581 3500 
L 1159 3500 
L 1159 2956 
Q 1366 3272 1645 3428 
Q 1925 3584 2291 3584 
Q 2894 3584 3203 3211 
Q 3513 2838 3513 2113 
z
" id="DejaVuSans-6e" transform="scale(0.015625)"/>
       <path d="M 544 1381 
L 544 3500 
L 1119 3500 
L 1119 1403 
Q 1119 906 1312 657 
Q 1506 409 1894 409 
Q 2359 409 2629 706 
Q 2900 1003 2900 1516 
L 2900 3500 
L 3475 3500 
L 3475 0 
L 2900 0 
L 2900 538 
Q 2691 219 2414 64 
Q 2138 -91 1772 -91 
Q 1169 -91 856 284 
Q 544 659 544 1381 
z
M 1991 3584 
L 1991 3584 
z
" id="DejaVuSans-75" transform="scale(0.015625)"/>
       <path d="M 3328 2828 
Q 3544 3216 3844 3400 
Q 4144 3584 4550 3584 
Q 5097 3584 5394 3201 
Q 5691 2819 5691 2113 
L 5691 0 
L 5113 0 
L 5113 2094 
Q 5113 2597 4934 2840 
Q 4756 3084 4391 3084 
Q 3944 3084 3684 2787 
Q 3425 2491 3425 1978 
L 3425 0 
L 2847 0 
L 2847 2094 
Q 2847 2600 2669 2842 
Q 2491 3084 2119 3084 
Q 1678 3084 1418 2786 
Q 1159 2488 1159 1978 
L 1159 0 
L 581 0 
L 581 3500 
L 1159 3500 
L 1159 2956 
Q 1356 3278 1631 3431 
Q 1906 3584 2284 3584 
Q 2666 3584 2933 3390 
Q 3200 3197 3328 2828 
z
" id="DejaVuSans-6d" transform="scale(0.015625)"/>
       <path d="M 3116 1747 
Q 3116 2381 2855 2742 
Q 2594 3103 2138 3103 
Q 1681 3103 1420 2742 
Q 1159 2381 1159 1747 
Q 1159 1113 1420 752 
Q 1681 391 2138 391 
Q 2594 391 2855 752 
Q 3116 1113 3116 1747 
z
M 1159 2969 
Q 1341 3281 1617 3432 
Q 1894 3584 2278 3584 
Q 2916 3584 3314 3078 
Q 3713 2572 3713 1747 
Q 3713 922 3314 415 
Q 2916 -91 2278 -91 
Q 1894 -91 1617 61 
Q 1341 213 1159 525 
L 1159 0 
L 581 0 
L 581 4863 
L 1159 4863 
L 1159 2969 
z
" id="DejaVuSans-62" transform="scale(0.015625)"/>
       <path d="M 3597 1894 
L 3597 1613 
L 953 1613 
Q 991 1019 1311 708 
Q 1631 397 2203 397 
Q 2534 397 2845 478 
Q 3156 559 3463 722 
L 3463 178 
Q 3153 47 2828 -22 
Q 2503 -91 2169 -91 
Q 1331 -91 842 396 
Q 353 884 353 1716 
Q 353 2575 817 3079 
Q 1281 3584 2069 3584 
Q 2775 3584 3186 3129 
Q 3597 2675 3597 1894 
z
M 3022 2063 
Q 3016 2534 2758 2815 
Q 2500 3097 2075 3097 
Q 1594 3097 1305 2825 
Q 1016 2553 972 2059 
L 3022 2063 
z
" id="DejaVuSans-65" transform="scale(0.015625)"/>
       <path d="M 2631 2963 
Q 2534 3019 2420 3045 
Q 2306 3072 2169 3072 
Q 1681 3072 1420 2755 
Q 1159 2438 1159 1844 
L 1159 0 
L 581 0 
L 581 3500 
L 1159 3500 
L 1159 2956 
Q 1341 3275 1631 3429 
Q 1922 3584 2338 3584 
Q 2397 3584 2469 3576 
Q 2541 3569 2628 3553 
L 2631 2963 
z
" id="DejaVuSans-72" transform="scale(0.015625)"/>
      </defs>
      <use xlink:href="#DejaVuSans-45"/>
      <use x="63.183594" xlink:href="#DejaVuSans-70"/>
      <use x="126.660156" xlink:href="#DejaVuSans-6f"/>
      <use x="187.841797" xlink:href="#DejaVuSans-63"/>
      <use x="242.822266" xlink:href="#DejaVuSans-68"/>
      <use x="306.201172" xlink:href="#DejaVuSans-20"/>
      <use x="337.988281" xlink:href="#DejaVuSans-6e"/>
      <use x="401.367188" xlink:href="#DejaVuSans-75"/>
      <use x="464.746094" xlink:href="#DejaVuSans-6d"/>
      <use x="562.158203" xlink:href="#DejaVuSans-62"/>
      <use x="625.634766" xlink:href="#DejaVuSans-65"/>
      <use x="687.158203" xlink:href="#DejaVuSans-72"/>
     </g>
    </g>
   </g>
   <g id="matplotlib.axis_2">
    <g id="ytick_1">
     <g id="line2d_13">
      <path clip-path="url(#p3bb74906a9)" d="M 45.716875 205.076589 
L 492.116875 205.076589 
" style="fill:none;stroke:#ffffff;stroke-linecap:square;stroke-width:0.8;"/>
     </g>
     <g id="line2d_14">
      <defs>
       <path d="M 0 0 
L -3.5 0 
" id="md6fe5f4e7a" style="stroke:#555555;stroke-width:0.8;"/>
      </defs>
      <g>
       <use style="fill:#555555;stroke:#555555;stroke-width:0.8;" x="45.716875" xlink:href="#md6fe5f4e7a" y="205.076589"/>
      </g>
     </g>
     <g id="text_8">
      <!-- 0.4 -->
      <g style="fill:#555555;" transform="translate(22.81375 208.875808)scale(0.1 -0.1)">
       <defs>
        <path d="M 684 794 
L 1344 794 
L 1344 0 
L 684 0 
L 684 794 
z
" id="DejaVuSans-2e" transform="scale(0.015625)"/>
       </defs>
       <use xlink:href="#DejaVuSans-30"/>
       <use x="63.623047" xlink:href="#DejaVuSans-2e"/>
       <use x="95.410156" xlink:href="#DejaVuSans-34"/>
      </g>
     </g>
    </g>
    <g id="ytick_2">
     <g id="line2d_15">
      <path clip-path="url(#p3bb74906a9)" d="M 45.716875 165.144359 
L 492.116875 165.144359 
" style="fill:none;stroke:#ffffff;stroke-linecap:square;stroke-width:0.8;"/>
     </g>
     <g id="line2d_16">
      <g>
       <use style="fill:#555555;stroke:#555555;stroke-width:0.8;" x="45.716875" xlink:href="#md6fe5f4e7a" y="165.144359"/>
      </g>
     </g>
     <g id="text_9">
      <!-- 0.5 -->
      <g style="fill:#555555;" transform="translate(22.81375 168.943578)scale(0.1 -0.1)">
       <defs>
        <path d="M 691 4666 
L 3169 4666 
L 3169 4134 
L 1269 4134 
L 1269 2991 
Q 1406 3038 1543 3061 
Q 1681 3084 1819 3084 
Q 2600 3084 3056 2656 
Q 3513 2228 3513 1497 
Q 3513 744 3044 326 
Q 2575 -91 1722 -91 
Q 1428 -91 1123 -41 
Q 819 9 494 109 
L 494 744 
Q 775 591 1075 516 
Q 1375 441 1709 441 
Q 2250 441 2565 725 
Q 2881 1009 2881 1497 
Q 2881 1984 2565 2268 
Q 2250 2553 1709 2553 
Q 1456 2553 1204 2497 
Q 953 2441 691 2322 
L 691 4666 
z
" id="DejaVuSans-35" transform="scale(0.015625)"/>
       </defs>
       <use xlink:href="#DejaVuSans-30"/>
       <use x="63.623047" xlink:href="#DejaVuSans-2e"/>
       <use x="95.410156" xlink:href="#DejaVuSans-35"/>
      </g>
     </g>
    </g>
    <g id="ytick_3">
     <g id="line2d_17">
      <path clip-path="url(#p3bb74906a9)" d="M 45.716875 125.212129 
L 492.116875 125.212129 
" style="fill:none;stroke:#ffffff;stroke-linecap:square;stroke-width:0.8;"/>
     </g>
     <g id="line2d_18">
      <g>
       <use style="fill:#555555;stroke:#555555;stroke-width:0.8;" x="45.716875" xlink:href="#md6fe5f4e7a" y="125.212129"/>
      </g>
     </g>
     <g id="text_10">
      <!-- 0.6 -->
      <g style="fill:#555555;" transform="translate(22.81375 129.011348)scale(0.1 -0.1)">
       <use xlink:href="#DejaVuSans-30"/>
       <use x="63.623047" xlink:href="#DejaVuSans-2e"/>
       <use x="95.410156" xlink:href="#DejaVuSans-36"/>
      </g>
     </g>
    </g>
    <g id="ytick_4">
     <g id="line2d_19">
      <path clip-path="url(#p3bb74906a9)" d="M 45.716875 85.279899 
L 492.116875 85.279899 
" style="fill:none;stroke:#ffffff;stroke-linecap:square;stroke-width:0.8;"/>
     </g>
     <g id="line2d_20">
      <g>
       <use style="fill:#555555;stroke:#555555;stroke-width:0.8;" x="45.716875" xlink:href="#md6fe5f4e7a" y="85.279899"/>
      </g>
     </g>
     <g id="text_11">
      <!-- 0.7 -->
      <g style="fill:#555555;" transform="translate(22.81375 89.079118)scale(0.1 -0.1)">
       <defs>
        <path d="M 525 4666 
L 3525 4666 
L 3525 4397 
L 1831 0 
L 1172 0 
L 2766 4134 
L 525 4134 
L 525 4666 
z
" id="DejaVuSans-37" transform="scale(0.015625)"/>
       </defs>
       <use xlink:href="#DejaVuSans-30"/>
       <use x="63.623047" xlink:href="#DejaVuSans-2e"/>
       <use x="95.410156" xlink:href="#DejaVuSans-37"/>
      </g>
     </g>
    </g>
    <g id="ytick_5">
     <g id="line2d_21">
      <path clip-path="url(#p3bb74906a9)" d="M 45.716875 45.347669 
L 492.116875 45.347669 
" style="fill:none;stroke:#ffffff;stroke-linecap:square;stroke-width:0.8;"/>
     </g>
     <g id="line2d_22">
      <g>
       <use style="fill:#555555;stroke:#555555;stroke-width:0.8;" x="45.716875" xlink:href="#md6fe5f4e7a" y="45.347669"/>
      </g>
     </g>
     <g id="text_12">
      <!-- 0.8 -->
      <g style="fill:#555555;" transform="translate(22.81375 49.146888)scale(0.1 -0.1)">
       <use xlink:href="#DejaVuSans-30"/>
       <use x="63.623047" xlink:href="#DejaVuSans-2e"/>
       <use x="95.410156" xlink:href="#DejaVuSans-38"/>
      </g>
     </g>
    </g>
    <g id="text_13">
     <!-- Accuracy -->
     <g style="fill:#555555;" transform="translate(16.318125 143.31375)rotate(-90)scale(0.12 -0.12)">
      <defs>
       <path d="M 2188 4044 
L 1331 1722 
L 3047 1722 
L 2188 4044 
z
M 1831 4666 
L 2547 4666 
L 4325 0 
L 3669 0 
L 3244 1197 
L 1141 1197 
L 716 0 
L 50 0 
L 1831 4666 
z
" id="DejaVuSans-41" transform="scale(0.015625)"/>
       <path d="M 2194 1759 
Q 1497 1759 1228 1600 
Q 959 1441 959 1056 
Q 959 750 1161 570 
Q 1363 391 1709 391 
Q 2188 391 2477 730 
Q 2766 1069 2766 1631 
L 2766 1759 
L 2194 1759 
z
M 3341 1997 
L 3341 0 
L 2766 0 
L 2766 531 
Q 2569 213 2275 61 
Q 1981 -91 1556 -91 
Q 1019 -91 701 211 
Q 384 513 384 1019 
Q 384 1609 779 1909 
Q 1175 2209 1959 2209 
L 2766 2209 
L 2766 2266 
Q 2766 2663 2505 2880 
Q 2244 3097 1772 3097 
Q 1472 3097 1187 3025 
Q 903 2953 641 2809 
L 641 3341 
Q 956 3463 1253 3523 
Q 1550 3584 1831 3584 
Q 2591 3584 2966 3190 
Q 3341 2797 3341 1997 
z
" id="DejaVuSans-61" transform="scale(0.015625)"/>
       <path d="M 2059 -325 
Q 1816 -950 1584 -1140 
Q 1353 -1331 966 -1331 
L 506 -1331 
L 506 -850 
L 844 -850 
Q 1081 -850 1212 -737 
Q 1344 -625 1503 -206 
L 1606 56 
L 191 3500 
L 800 3500 
L 1894 763 
L 2988 3500 
L 3597 3500 
L 2059 -325 
z
" id="DejaVuSans-79" transform="scale(0.015625)"/>
      </defs>
      <use xlink:href="#DejaVuSans-41"/>
      <use x="66.658203" xlink:href="#DejaVuSans-63"/>
      <use x="121.638672" xlink:href="#DejaVuSans-63"/>
      <use x="176.619141" xlink:href="#DejaVuSans-75"/>
      <use x="239.998047" xlink:href="#DejaVuSans-72"/>
      <use x="281.111328" xlink:href="#DejaVuSans-61"/>
      <use x="342.390625" xlink:href="#DejaVuSans-63"/>
      <use x="397.371094" xlink:href="#DejaVuSans-79"/>
     </g>
    </g>
   </g>
   <g id="line2d_23">
    <path clip-path="url(#p3bb74906a9)" d="M 66.007784 185.98499 
L 70.106958 185.925091 
L 74.206131 198.683439 
L 78.305305 197.517418 
L 82.404478 204.253985 
L 86.503652 207.081187 
L 90.602825 205.907179 
L 94.701999 208.18731 
L 98.801173 206.981356 
L 102.900346 211.92896 
L 106.99952 205.427993 
L 111.098693 204.313883 
L 115.197867 212.567875 
L 119.29704 206.514149 
L 123.396214 205.479904 
L 127.495387 207.276855 
L 131.594561 209.481114 
L 135.693735 206.605993 
L 139.792908 205.607688 
L 143.892082 211.202193 
L 147.991255 203.862649 
L 152.090429 204.880921 
L 156.189602 206.406332 
L 160.288776 203.934527 
L 164.387949 205.875233 
L 168.487123 203.670974 
L 172.586296 206.697837 
L 176.68547 207.44457 
L 180.784644 207.472523 
L 184.883817 202.844377 
L 188.982991 204.07429 
L 193.082164 203.004106 
L 197.181338 207.708123 
L 201.280511 208.862164 
L 205.379685 203.499266 
L 209.478858 203.686947 
L 213.578032 204.122209 
L 217.677206 205.376081 
L 221.776379 203.990432 
L 225.875553 206.921458 
L 229.974726 204.126202 
L 234.0739 205.076589 
L 238.173073 204.717199 
L 242.272247 204.948806 
L 246.37142 205.284236 
L 250.470594 206.997329 
L 254.569768 206.418312 
L 258.668941 205.847281 
L 262.768115 201.462722 
L 266.867288 205.160447 
L 270.966462 203.21974 
L 275.065635 203.555171 
L 279.164809 206.701831 
L 283.263982 200.440457 
L 287.363156 206.062915 
L 291.46233 204.92884 
L 295.561503 203.079977 
L 299.660677 207.500475 
L 303.75985 202.337238 
L 307.859024 201.215142 
L 311.958197 202.237407 
L 316.057371 203.447354 
L 320.156544 203.147862 
L 324.255718 203.635035 
L 328.354892 208.215262 
L 332.454065 207.480509 
L 336.553239 204.090263 
L 340.652412 202.441062 
L 344.751586 204.30989 
L 348.850759 203.770805 
L 352.949933 205.919159 
L 357.049106 205.51185 
L 361.14828 209.832517 
L 365.247454 201.818119 
L 369.346627 202.105631 
L 373.445801 204.042344 
L 377.544974 204.665287 
L 381.644148 205.463932 
L 385.743321 203.060011 
L 389.842495 212.320295 
L 393.941668 205.667586 
L 398.040842 203.866642 
L 402.140015 206.653912 
L 406.239189 205.903186 
L 410.338363 203.279639 
L 414.437536 207.839899 
L 418.53671 206.697837 
L 422.635883 209.185615 
L 426.735057 206.146773 
L 430.83423 205.308196 
L 434.933404 199.066788 
L 439.032577 202.944208 
L 443.131751 203.986439 
L 447.230925 201.023468 
L 451.330098 205.144474 
L 455.429272 205.519837 
L 459.528445 201.67037 
L 463.627619 209.596917 
L 467.726792 200.664077 
L 471.825966 206.022983 
" style="fill:none;stroke:#ff0000;stroke-linecap:square;stroke-width:1.5;"/>
   </g>
   <g id="line2d_24">
    <path clip-path="url(#p3bb74906a9)" d="M 66.007784 132.044533 
L 70.106958 108.803976 
L 74.206131 98.864843 
L 78.305305 92.24408 
L 82.404478 86.865208 
L 86.503652 82.360853 
L 90.602825 78.802891 
L 94.701999 75.300835 
L 98.801173 71.966493 
L 102.900346 68.847786 
L 106.99952 66.699432 
L 111.098693 64.043939 
L 115.197867 61.691931 
L 119.29704 59.962865 
L 123.396214 57.798538 
L 127.495387 56.864124 
L 131.594561 54.623926 
L 135.693735 53.469884 
L 139.792908 51.956453 
L 143.892082 51.241666 
L 147.991255 50.187455 
L 152.090429 48.813786 
L 156.189602 47.515989 
L 160.288776 47.056768 
L 164.387949 45.994571 
L 168.487123 45.431526 
L 172.586296 44.421241 
L 176.68547 43.894136 
L 180.784644 43.622596 
L 184.883817 42.839925 
L 188.982991 41.869572 
L 193.082164 41.282568 
L 197.181338 41.118846 
L 201.280511 40.691571 
L 205.379685 40.040675 
L 209.478858 39.537529 
L 213.578032 39.026397 
L 217.677206 38.591135 
L 221.776379 38.639054 
L 225.875553 37.676687 
L 229.974726 37.59283 
L 234.0739 37.253406 
L 238.173073 37.073711 
L 242.272247 36.514659 
L 246.37142 36.522646 
L 250.470594 36.406842 
L 254.569768 35.564272 
L 258.668941 35.436489 
L 262.768115 34.837506 
L 266.867288 35.005221 
L 270.966462 34.621872 
L 275.065635 34.366306 
L 279.164809 34.470129 
L 283.263982 33.823227 
L 287.363156 33.487796 
L 291.46233 33.483803 
L 295.561503 33.296122 
L 299.660677 33.387966 
L 303.75985 33.1324 
L 307.859024 32.816935 
L 311.958197 32.788982 
L 316.057371 32.449558 
L 320.156544 32.174026 
L 324.255718 31.766717 
L 328.354892 32.102148 
L 332.454065 32.010304 
L 336.553239 31.363402 
L 340.652412 31.726785 
L 344.751586 31.099849 
L 348.850759 31.043944 
L 352.949933 30.81633 
L 357.049106 30.792371 
L 361.14828 31.067903 
L 365.247454 30.564757 
L 369.346627 30.476906 
L 373.445801 30.305198 
L 377.544974 30.113523 
L 381.644148 30.213354 
L 385.743321 30.417008 
L 389.842495 30.241306 
L 393.941668 29.650309 
L 398.040842 29.610377 
L 402.140015 29.654302 
L 406.239189 29.442662 
L 410.338363 29.282933 
L 414.437536 29.570445 
L 418.53671 29.50256 
L 422.635883 29.262967 
L 426.735057 29.14317 
L 430.83423 29.043339 
L 434.933404 28.735861 
L 439.032577 28.675963 
L 443.131751 28.492274 
L 447.230925 28.368485 
L 451.330098 28.675963 
L 455.429272 27.989128 
L 459.528445 28.356505 
L 463.627619 28.715895 
L 467.726792 28.272647 
L 471.825966 28.208756 
" style="fill:none;stroke:#0000ff;stroke-linecap:square;stroke-width:1.5;"/>
   </g>
   <g id="line2d_25">
    <path clip-path="url(#p3bb74906a9)" d="M 66.007784 130.423285 
L 70.106958 107.530137 
L 74.206131 96.752428 
L 78.305305 89.596573 
L 82.404478 83.730528 
L 86.503652 79.377915 
L 90.602825 74.8496 
L 94.701999 70.944228 
L 98.801173 67.470124 
L 102.900346 64.830604 
L 106.99952 62.21105 
L 111.098693 60.026757 
L 115.197867 57.742633 
L 119.29704 55.610252 
L 123.396214 53.713471 
L 127.495387 52.156114 
L 131.594561 50.211414 
L 135.693735 48.845732 
L 139.792908 47.46807 
L 143.892082 45.9187 
L 147.991255 45.243845 
L 152.090429 43.946048 
L 156.189602 42.764053 
L 160.288776 41.725816 
L 164.387949 40.835327 
L 168.487123 40.212384 
L 172.586296 39.094282 
L 176.68547 38.339562 
L 180.784644 37.900308 
L 184.883817 36.806165 
L 188.982991 36.842104 
L 193.082164 35.53632 
L 197.181338 34.853479 
L 201.280511 34.577946 
L 205.379685 33.787288 
L 209.478858 33.168339 
L 213.578032 32.489491 
L 217.677206 32.469525 
L 221.776379 31.626955 
L 225.875553 31.215653 
L 229.974726 30.556771 
L 234.0739 30.257279 
L 238.173073 30.201374 
L 242.272247 29.510546 
L 246.37142 29.035353 
L 250.470594 28.715895 
L 254.569768 28.228722 
L 258.668941 27.821413 
L 262.768115 27.477996 
L 266.867288 27.174511 
L 270.966462 27.026762 
L 275.065635 26.539588 
L 279.164809 26.771195 
L 283.263982 25.768896 
L 287.363156 26.080368 
L 291.46233 25.245784 
L 295.561503 25.437459 
L 299.660677 25.054109 
L 303.75985 24.678747 
L 307.859024 23.96396 
L 311.958197 23.920034 
L 316.057371 23.82819 
L 320.156544 23.640509 
L 324.255718 23.329037 
L 328.354892 23.017566 
L 332.454065 22.72606 
L 336.553239 22.853844 
L 340.652412 22.334725 
L 344.751586 21.935402 
L 348.850759 22.123084 
L 352.949933 21.899463 
L 357.049106 21.476182 
L 361.14828 22.027246 
L 365.247454 21.152731 
L 369.346627 21.148737 
L 373.445801 20.873205 
L 377.544974 20.637605 
L 381.644148 20.745422 
L 385.743321 20.010669 
L 389.842495 20.030635 
L 393.941668 20.014662 
L 398.040842 19.583394 
L 402.140015 19.23199 
L 406.239189 19.235984 
L 410.338363 19.391719 
L 414.437536 18.832668 
L 418.53671 18.832668 
L 422.635883 18.640993 
L 426.735057 18.860621 
L 430.83423 18.62502 
L 434.933404 18.225698 
L 439.032577 18.057983 
L 443.131751 17.814396 
L 447.230925 17.514904 
L 451.330098 17.674633 
L 455.429272 17.359169 
L 459.528445 17.490945 
L 463.627619 17.387121 
L 467.726792 17.19944 
L 471.825966 17.083636 
" style="fill:none;stroke:#800080;stroke-linecap:square;stroke-width:1.5;"/>
   </g>
   <g id="line2d_26">
    <path clip-path="url(#p3bb74906a9)" d="M 66.007784 184.984106 
L 70.106958 186.525793 
L 74.206131 199.996603 
L 78.305305 198.884566 
L 82.404478 205.632607 
L 86.503652 209.170906 
L 90.602825 206.744644 
L 94.701999 209.575283 
L 98.801173 209.170906 
L 102.900346 213.568506 
L 106.99952 206.694097 
L 111.098693 205.784249 
L 115.197867 214.756364 
L 119.29704 206.795191 
L 123.396214 206.28972 
L 127.495387 208.008322 
L 131.594561 210.586226 
L 135.693735 207.603945 
L 139.792908 207.275389 
L 143.892082 211.925725 
L 147.991255 206.213899 
L 152.090429 205.93589 
L 156.189602 206.618276 
L 160.288776 204.09092 
L 164.387949 206.138079 
L 168.487123 204.394203 
L 172.586296 208.362152 
L 176.68547 207.679766 
L 180.784644 207.224842 
L 184.883817 203.509628 
L 188.982991 205.22823 
L 193.082164 203.762364 
L 197.181338 207.325936 
L 201.280511 210.560952 
L 205.379685 203.282166 
L 209.478858 204.672212 
L 213.578032 204.596391 
L 217.677206 204.040373 
L 221.776379 203.585449 
L 225.875553 207.856681 
L 229.974726 204.419476 
L 234.0739 205.809522 
L 238.173073 204.899674 
L 242.272247 204.267835 
L 246.37142 205.809522 
L 250.470594 207.755587 
L 254.569768 206.946833 
L 258.668941 205.733702 
L 262.768115 201.563564 
L 266.867288 204.823853 
L 270.966462 203.711816 
L 275.065635 204.192014 
L 279.164809 206.112805 
L 283.263982 199.617499 
L 287.363156 206.441361 
L 291.46233 206.466635 
L 295.561503 204.621665 
L 299.660677 207.452304 
L 303.75985 202.928336 
L 307.859024 200.527347 
L 311.958197 201.841573 
L 316.057371 204.065646 
L 320.156544 203.433807 
L 324.255718 205.15241 
L 328.354892 207.831407 
L 332.454065 207.174295 
L 336.553239 205.607334 
L 340.652412 202.523959 
L 344.751586 205.632607 
L 348.850759 202.95361 
L 352.949933 206.744644 
L 357.049106 206.062258 
L 361.14828 210.409311 
L 365.247454 201.235007 
L 369.346627 203.484354 
L 373.445801 205.860069 
L 377.544974 205.000768 
L 381.644148 205.329325 
L 385.743321 203.661269 
L 389.842495 211.799357 
L 393.941668 205.809522 
L 398.040842 203.686543 
L 402.140015 207.578672 
L 406.239189 206.694097 
L 410.338363 203.787637 
L 414.437536 208.539067 
L 418.53671 207.174295 
L 422.635883 210.232396 
L 426.735057 205.278777 
L 430.83423 206.011711 
L 434.933404 199.010934 
L 439.032577 203.888731 
L 443.131751 204.672212 
L 447.230925 200.502074 
L 451.330098 205.026042 
L 455.429272 205.683154 
L 459.528445 202.018488 
L 463.627619 209.651104 
L 467.726792 201.740479 
L 471.825966 206.314993 
" style="fill:none;stroke:#808080;stroke-dasharray:5.55,2.4;stroke-dashoffset:0;stroke-width:1.5;"/>
   </g>
   <g id="line2d_27">
    <path clip-path="url(#p3bb74906a9)" d="M 66.007784 130.772313 
L 70.106958 108.379936 
L 74.206131 98.851802 
L 78.305305 92.912515 
L 82.404478 87.731434 
L 86.503652 83.156919 
L 90.602825 80.882299 
L 94.701999 76.029775 
L 98.801173 73.603513 
L 102.900346 71.10143 
L 106.99952 67.967508 
L 111.098693 66.198359 
L 115.197867 64.302841 
L 119.29704 62.710607 
L 123.396214 60.587627 
L 127.495387 59.071214 
L 131.594561 58.161365 
L 135.693735 56.265848 
L 139.792908 54.875802 
L 143.892082 54.117595 
L 147.991255 53.435209 
L 152.090429 51.969342 
L 156.189602 51.034221 
L 160.288776 51.564965 
L 164.387949 50.124372 
L 168.487123 50.048552 
L 172.586296 48.178308 
L 176.68547 48.279402 
L 180.784644 47.597016 
L 184.883817 46.864083 
L 188.982991 46.105876 
L 193.082164 45.49931 
L 197.181338 46.080602 
L 201.280511 45.094933 
L 205.379685 44.816924 
L 209.478858 44.538915 
L 213.578032 44.235632 
L 217.677206 43.098322 
L 221.776379 43.730161 
L 225.875553 42.845586 
L 229.974726 42.542303 
L 234.0739 42.845586 
L 238.173073 42.264294 
L 242.272247 41.859917 
L 246.37142 42.365388 
L 250.470594 41.885191 
L 254.569768 40.621512 
L 258.668941 40.924795 
L 262.768115 40.292956 
L 266.867288 40.848975 
L 270.966462 40.217135 
L 275.065635 39.635843 
L 279.164809 39.812758 
L 283.263982 39.939126 
L 287.363156 39.155646 
L 291.46233 39.130372 
L 295.561503 38.397439 
L 299.660677 38.54908 
L 303.75985 39.155646 
L 307.859024 38.498533 
L 311.958197 38.043609 
L 316.057371 38.19525 
L 320.156544 37.942515 
L 324.255718 37.05794 
L 328.354892 38.068883 
L 332.454065 37.790873 
L 336.553239 36.325007 
L 340.652412 37.437043 
L 344.751586 36.982119 
L 348.850759 38.018335 
L 352.949933 36.931572 
L 357.049106 36.805204 
L 361.14828 37.285402 
L 365.247454 37.361223 
L 369.346627 36.779931 
L 373.445801 36.881025 
L 377.544974 36.072271 
L 381.644148 35.99645 
L 385.743321 36.451374 
L 389.842495 36.375554 
L 393.941668 35.870083 
L 398.040842 36.299733 
L 402.140015 35.895356 
L 406.239189 36.122818 
L 410.338363 35.971177 
L 414.437536 35.667894 
L 418.53671 35.743715 
L 422.635883 35.64262 
L 426.735057 35.490979 
L 430.83423 35.288791 
L 434.933404 35.288791 
L 439.032577 35.162423 
L 443.131751 35.036055 
L 447.230925 35.010781 
L 451.330098 35.010781 
L 455.429272 34.732772 
L 459.528445 34.985508 
L 463.627619 34.581131 
L 467.726792 34.480037 
L 471.825966 34.606404 
" style="fill:none;stroke:#ffff00;stroke-dasharray:5.55,2.4;stroke-dashoffset:0;stroke-width:1.5;"/>
   </g>
   <g id="line2d_28">
    <path clip-path="url(#p3bb74906a9)" d="M 66.007784 128.548239 
L 70.106958 107.899738 
L 74.206131 97.613398 
L 78.305305 91.876299 
L 82.404478 86.594124 
L 86.503652 81.817421 
L 90.602825 77.065991 
L 94.701999 74.589182 
L 98.801173 71.354165 
L 102.900346 68.523526 
L 106.99952 66.122538 
L 111.098693 63.367719 
L 115.197867 61.168919 
L 119.29704 59.39977 
L 123.396214 57.756988 
L 127.495387 56.316395 
L 131.594561 54.825255 
L 135.693735 54.521972 
L 139.792908 52.348446 
L 143.892082 51.438598 
L 147.991255 50.402381 
L 152.090429 49.340892 
L 156.189602 48.481591 
L 160.288776 47.647563 
L 164.387949 47.748657 
L 168.487123 46.661894 
L 172.586296 45.954234 
L 176.68547 45.170754 
L 180.784644 44.816924 
L 184.883817 43.982896 
L 188.982991 44.362 
L 193.082164 42.87086 
L 197.181338 42.921407 
L 201.280511 42.036832 
L 205.379685 42.087379 
L 209.478858 41.076437 
L 213.578032 41.303899 
L 217.677206 41.278625 
L 221.776379 39.509476 
L 225.875553 40.520418 
L 229.974726 39.661117 
L 234.0739 39.762211 
L 238.173073 39.383108 
L 242.272247 38.397439 
L 246.37142 38.271071 
L 250.470594 38.19525 
L 254.569768 37.285402 
L 258.668941 37.285402 
L 262.768115 37.866694 
L 266.867288 37.41177 
L 270.966462 37.41177 
L 275.065635 36.501922 
L 279.164809 36.754657 
L 283.263982 36.982119 
L 287.363156 36.982119 
L 291.46233 35.743715 
L 295.561503 35.5668 
L 299.660677 36.299733 
L 303.75985 36.046997 
L 307.859024 35.667894 
L 311.958197 35.541526 
L 316.057371 35.440432 
L 320.156544 35.162423 
L 324.255718 36.097545 
L 328.354892 35.263517 
L 332.454065 35.389885 
L 336.553239 35.086602 
L 340.652412 35.036055 
L 344.751586 35.036055 
L 348.850759 34.808593 
L 352.949933 34.631678 
L 357.049106 34.353669 
L 361.14828 34.833866 
L 365.247454 34.126207 
L 369.346627 35.036055 
L 373.445801 34.202027 
L 377.544974 33.696556 
L 381.644148 34.202027 
L 385.743321 34.227301 
L 389.842495 34.202027 
L 393.941668 34.100933 
L 398.040842 33.848197 
L 402.140015 33.494368 
L 406.239189 33.418547 
L 410.338363 33.822924 
L 414.437536 33.418547 
L 418.53671 33.342726 
L 422.635883 33.292179 
L 426.735057 33.469094 
L 430.83423 33.140538 
L 434.933404 33.393273 
L 439.032577 33.241632 
L 443.131751 33.064717 
L 447.230925 33.368 
L 451.330098 33.368 
L 455.429272 32.913076 
L 459.528445 32.407604 
L 463.627619 33.646009 
L 467.726792 32.533972 
L 471.825966 32.887802 
" style="fill:none;stroke:#008000;stroke-dasharray:5.55,2.4;stroke-dashoffset:0;stroke-width:1.5;"/>
   </g>
   <g id="patch_3">
    <path d="M 45.716875 224.64 
L 45.716875 7.2 
" style="fill:none;stroke:#ffffff;stroke-linecap:square;stroke-linejoin:miter;"/>
   </g>
   <g id="patch_4">
    <path d="M 492.116875 224.64 
L 492.116875 7.2 
" style="fill:none;stroke:#ffffff;stroke-linecap:square;stroke-linejoin:miter;"/>
   </g>
   <g id="patch_5">
    <path d="M 45.716875 224.64 
L 492.116875 224.64 
" style="fill:none;stroke:#ffffff;stroke-linecap:square;stroke-linejoin:miter;"/>
   </g>
   <g id="patch_6">
    <path d="M 45.716875 7.2 
L 492.116875 7.2 
" style="fill:none;stroke:#ffffff;stroke-linecap:square;stroke-linejoin:miter;"/>
   </g>
   <g id="legend_1">
    <g id="patch_7">
     <path d="M 499.116875 103.26875 
L 600.47 103.26875 
Q 602.47 103.26875 602.47 101.26875 
L 602.47 14.2 
Q 602.47 12.2 600.47 12.2 
L 499.116875 12.2 
Q 497.116875 12.2 497.116875 14.2 
L 497.116875 101.26875 
Q 497.116875 103.26875 499.116875 103.26875 
z
" style="fill:#e5e5e5;opacity:0.8;stroke:#cccccc;stroke-linejoin:miter;stroke-width:0.5;"/>
    </g>
    <g id="line2d_29">
     <path d="M 501.116875 20.298437 
L 521.116875 20.298437 
" style="fill:none;stroke:#ff0000;stroke-linecap:square;stroke-width:1.5;"/>
    </g>
    <g id="line2d_30"/>
    <g id="text_14">
     <!-- L2 1e-1(train) -->
     <g transform="translate(529.116875 23.798437)scale(0.1 -0.1)">
      <defs>
       <path d="M 628 4666 
L 1259 4666 
L 1259 531 
L 3531 531 
L 3531 0 
L 628 0 
L 628 4666 
z
" id="DejaVuSans-4c" transform="scale(0.015625)"/>
       <path d="M 313 2009 
L 1997 2009 
L 1997 1497 
L 313 1497 
L 313 2009 
z
" id="DejaVuSans-2d" transform="scale(0.015625)"/>
       <path d="M 1984 4856 
Q 1566 4138 1362 3434 
Q 1159 2731 1159 2009 
Q 1159 1288 1364 580 
Q 1569 -128 1984 -844 
L 1484 -844 
Q 1016 -109 783 600 
Q 550 1309 550 2009 
Q 550 2706 781 3412 
Q 1013 4119 1484 4856 
L 1984 4856 
z
" id="DejaVuSans-28" transform="scale(0.015625)"/>
       <path d="M 1172 4494 
L 1172 3500 
L 2356 3500 
L 2356 3053 
L 1172 3053 
L 1172 1153 
Q 1172 725 1289 603 
Q 1406 481 1766 481 
L 2356 481 
L 2356 0 
L 1766 0 
Q 1100 0 847 248 
Q 594 497 594 1153 
L 594 3053 
L 172 3053 
L 172 3500 
L 594 3500 
L 594 4494 
L 1172 4494 
z
" id="DejaVuSans-74" transform="scale(0.015625)"/>
       <path d="M 603 3500 
L 1178 3500 
L 1178 0 
L 603 0 
L 603 3500 
z
M 603 4863 
L 1178 4863 
L 1178 4134 
L 603 4134 
L 603 4863 
z
" id="DejaVuSans-69" transform="scale(0.015625)"/>
       <path d="M 513 4856 
L 1013 4856 
Q 1481 4119 1714 3412 
Q 1947 2706 1947 2009 
Q 1947 1309 1714 600 
Q 1481 -109 1013 -844 
L 513 -844 
Q 928 -128 1133 580 
Q 1338 1288 1338 2009 
Q 1338 2731 1133 3434 
Q 928 4138 513 4856 
z
" id="DejaVuSans-29" transform="scale(0.015625)"/>
      </defs>
      <use xlink:href="#DejaVuSans-4c"/>
      <use x="55.712891" xlink:href="#DejaVuSans-32"/>
      <use x="119.335938" xlink:href="#DejaVuSans-20"/>
      <use x="151.123047" xlink:href="#DejaVuSans-31"/>
      <use x="214.746094" xlink:href="#DejaVuSans-65"/>
      <use x="276.269531" xlink:href="#DejaVuSans-2d"/>
      <use x="312.353516" xlink:href="#DejaVuSans-31"/>
      <use x="375.976562" xlink:href="#DejaVuSans-28"/>
      <use x="414.990234" xlink:href="#DejaVuSans-74"/>
      <use x="454.199219" xlink:href="#DejaVuSans-72"/>
      <use x="495.3125" xlink:href="#DejaVuSans-61"/>
      <use x="556.591797" xlink:href="#DejaVuSans-69"/>
      <use x="584.375" xlink:href="#DejaVuSans-6e"/>
      <use x="647.753906" xlink:href="#DejaVuSans-29"/>
     </g>
    </g>
    <g id="line2d_31">
     <path d="M 501.116875 34.976562 
L 521.116875 34.976562 
" style="fill:none;stroke:#0000ff;stroke-linecap:square;stroke-width:1.5;"/>
    </g>
    <g id="line2d_32"/>
    <g id="text_15">
     <!-- L2 1e-3(train) -->
     <g transform="translate(529.116875 38.476562)scale(0.1 -0.1)">
      <defs>
       <path d="M 2597 2516 
Q 3050 2419 3304 2112 
Q 3559 1806 3559 1356 
Q 3559 666 3084 287 
Q 2609 -91 1734 -91 
Q 1441 -91 1130 -33 
Q 819 25 488 141 
L 488 750 
Q 750 597 1062 519 
Q 1375 441 1716 441 
Q 2309 441 2620 675 
Q 2931 909 2931 1356 
Q 2931 1769 2642 2001 
Q 2353 2234 1838 2234 
L 1294 2234 
L 1294 2753 
L 1863 2753 
Q 2328 2753 2575 2939 
Q 2822 3125 2822 3475 
Q 2822 3834 2567 4026 
Q 2313 4219 1838 4219 
Q 1578 4219 1281 4162 
Q 984 4106 628 3988 
L 628 4550 
Q 988 4650 1302 4700 
Q 1616 4750 1894 4750 
Q 2613 4750 3031 4423 
Q 3450 4097 3450 3541 
Q 3450 3153 3228 2886 
Q 3006 2619 2597 2516 
z
" id="DejaVuSans-33" transform="scale(0.015625)"/>
      </defs>
      <use xlink:href="#DejaVuSans-4c"/>
      <use x="55.712891" xlink:href="#DejaVuSans-32"/>
      <use x="119.335938" xlink:href="#DejaVuSans-20"/>
      <use x="151.123047" xlink:href="#DejaVuSans-31"/>
      <use x="214.746094" xlink:href="#DejaVuSans-65"/>
      <use x="276.269531" xlink:href="#DejaVuSans-2d"/>
      <use x="312.353516" xlink:href="#DejaVuSans-33"/>
      <use x="375.976562" xlink:href="#DejaVuSans-28"/>
      <use x="414.990234" xlink:href="#DejaVuSans-74"/>
      <use x="454.199219" xlink:href="#DejaVuSans-72"/>
      <use x="495.3125" xlink:href="#DejaVuSans-61"/>
      <use x="556.591797" xlink:href="#DejaVuSans-69"/>
      <use x="584.375" xlink:href="#DejaVuSans-6e"/>
      <use x="647.753906" xlink:href="#DejaVuSans-29"/>
     </g>
    </g>
    <g id="line2d_33">
     <path d="M 501.116875 49.654687 
L 521.116875 49.654687 
" style="fill:none;stroke:#800080;stroke-linecap:square;stroke-width:1.5;"/>
    </g>
    <g id="line2d_34"/>
    <g id="text_16">
     <!-- L2 1e-4(train) -->
     <g transform="translate(529.116875 53.154687)scale(0.1 -0.1)">
      <use xlink:href="#DejaVuSans-4c"/>
      <use x="55.712891" xlink:href="#DejaVuSans-32"/>
      <use x="119.335938" xlink:href="#DejaVuSans-20"/>
      <use x="151.123047" xlink:href="#DejaVuSans-31"/>
      <use x="214.746094" xlink:href="#DejaVuSans-65"/>
      <use x="276.269531" xlink:href="#DejaVuSans-2d"/>
      <use x="312.353516" xlink:href="#DejaVuSans-34"/>
      <use x="375.976562" xlink:href="#DejaVuSans-28"/>
      <use x="414.990234" xlink:href="#DejaVuSans-74"/>
      <use x="454.199219" xlink:href="#DejaVuSans-72"/>
      <use x="495.3125" xlink:href="#DejaVuSans-61"/>
      <use x="556.591797" xlink:href="#DejaVuSans-69"/>
      <use x="584.375" xlink:href="#DejaVuSans-6e"/>
      <use x="647.753906" xlink:href="#DejaVuSans-29"/>
     </g>
    </g>
    <g id="line2d_35">
     <path d="M 501.116875 64.332812 
L 521.116875 64.332812 
" style="fill:none;stroke:#808080;stroke-dasharray:5.55,2.4;stroke-dashoffset:0;stroke-width:1.5;"/>
    </g>
    <g id="line2d_36"/>
    <g id="text_17">
     <!-- L2 1e-1(valid) -->
     <g transform="translate(529.116875 67.832812)scale(0.1 -0.1)">
      <defs>
       <path d="M 191 3500 
L 800 3500 
L 1894 563 
L 2988 3500 
L 3597 3500 
L 2284 0 
L 1503 0 
L 191 3500 
z
" id="DejaVuSans-76" transform="scale(0.015625)"/>
       <path d="M 603 4863 
L 1178 4863 
L 1178 0 
L 603 0 
L 603 4863 
z
" id="DejaVuSans-6c" transform="scale(0.015625)"/>
       <path d="M 2906 2969 
L 2906 4863 
L 3481 4863 
L 3481 0 
L 2906 0 
L 2906 525 
Q 2725 213 2448 61 
Q 2172 -91 1784 -91 
Q 1150 -91 751 415 
Q 353 922 353 1747 
Q 353 2572 751 3078 
Q 1150 3584 1784 3584 
Q 2172 3584 2448 3432 
Q 2725 3281 2906 2969 
z
M 947 1747 
Q 947 1113 1208 752 
Q 1469 391 1925 391 
Q 2381 391 2643 752 
Q 2906 1113 2906 1747 
Q 2906 2381 2643 2742 
Q 2381 3103 1925 3103 
Q 1469 3103 1208 2742 
Q 947 2381 947 1747 
z
" id="DejaVuSans-64" transform="scale(0.015625)"/>
      </defs>
      <use xlink:href="#DejaVuSans-4c"/>
      <use x="55.712891" xlink:href="#DejaVuSans-32"/>
      <use x="119.335938" xlink:href="#DejaVuSans-20"/>
      <use x="151.123047" xlink:href="#DejaVuSans-31"/>
      <use x="214.746094" xlink:href="#DejaVuSans-65"/>
      <use x="276.269531" xlink:href="#DejaVuSans-2d"/>
      <use x="312.353516" xlink:href="#DejaVuSans-31"/>
      <use x="375.976562" xlink:href="#DejaVuSans-28"/>
      <use x="414.990234" xlink:href="#DejaVuSans-76"/>
      <use x="474.169922" xlink:href="#DejaVuSans-61"/>
      <use x="535.449219" xlink:href="#DejaVuSans-6c"/>
      <use x="563.232422" xlink:href="#DejaVuSans-69"/>
      <use x="591.015625" xlink:href="#DejaVuSans-64"/>
      <use x="654.492188" xlink:href="#DejaVuSans-29"/>
     </g>
    </g>
    <g id="line2d_37">
     <path d="M 501.116875 79.010937 
L 521.116875 79.010937 
" style="fill:none;stroke:#ffff00;stroke-dasharray:5.55,2.4;stroke-dashoffset:0;stroke-width:1.5;"/>
    </g>
    <g id="line2d_38"/>
    <g id="text_18">
     <!-- L2 1e-3(valid) -->
     <g transform="translate(529.116875 82.510937)scale(0.1 -0.1)">
      <use xlink:href="#DejaVuSans-4c"/>
      <use x="55.712891" xlink:href="#DejaVuSans-32"/>
      <use x="119.335938" xlink:href="#DejaVuSans-20"/>
      <use x="151.123047" xlink:href="#DejaVuSans-31"/>
      <use x="214.746094" xlink:href="#DejaVuSans-65"/>
      <use x="276.269531" xlink:href="#DejaVuSans-2d"/>
      <use x="312.353516" xlink:href="#DejaVuSans-33"/>
      <use x="375.976562" xlink:href="#DejaVuSans-28"/>
      <use x="414.990234" xlink:href="#DejaVuSans-76"/>
      <use x="474.169922" xlink:href="#DejaVuSans-61"/>
      <use x="535.449219" xlink:href="#DejaVuSans-6c"/>
      <use x="563.232422" xlink:href="#DejaVuSans-69"/>
      <use x="591.015625" xlink:href="#DejaVuSans-64"/>
      <use x="654.492188" xlink:href="#DejaVuSans-29"/>
     </g>
    </g>
    <g id="line2d_39">
     <path d="M 501.116875 93.689062 
L 521.116875 93.689062 
" style="fill:none;stroke:#008000;stroke-dasharray:5.55,2.4;stroke-dashoffset:0;stroke-width:1.5;"/>
    </g>
    <g id="line2d_40"/>
    <g id="text_19">
     <!-- L2 1e-4(valid) -->
     <g transform="translate(529.116875 97.189062)scale(0.1 -0.1)">
      <use xlink:href="#DejaVuSans-4c"/>
      <use x="55.712891" xlink:href="#DejaVuSans-32"/>
      <use x="119.335938" xlink:href="#DejaVuSans-20"/>
      <use x="151.123047" xlink:href="#DejaVuSans-31"/>
      <use x="214.746094" xlink:href="#DejaVuSans-65"/>
      <use x="276.269531" xlink:href="#DejaVuSans-2d"/>
      <use x="312.353516" xlink:href="#DejaVuSans-34"/>
      <use x="375.976562" xlink:href="#DejaVuSans-28"/>
      <use x="414.990234" xlink:href="#DejaVuSans-76"/>
      <use x="474.169922" xlink:href="#DejaVuSans-61"/>
      <use x="535.449219" xlink:href="#DejaVuSans-6c"/>
      <use x="563.232422" xlink:href="#DejaVuSans-69"/>
      <use x="591.015625" xlink:href="#DejaVuSans-64"/>
      <use x="654.492188" xlink:href="#DejaVuSans-29"/>
     </g>
    </g>
   </g>
  </g>
 </g>
 <defs>
  <clipPath id="p3bb74906a9">
   <rect height="217.44" width="446.4" x="45.716875" y="7.2"/>
  </clipPath>
 </defs>
</svg>
