<?xml version="1.0" encoding="utf-8" standalone="no"?>
<!DOCTYPE svg PUBLIC "-//W3C//DTD SVG 1.1//EN"
  "http://www.w3.org/Graphics/SVG/1.1/DTD/svg11.dtd">
<svg height="264.131875pt" version="1.1" viewBox="0 0 609.67 264.131875" width="609.67pt" xmlns="http://www.w3.org/2000/svg" xmlns:xlink="http://www.w3.org/1999/xlink">
 <metadata>
  <rdf:RDF xmlns:cc="http://creativecommons.org/ns#" xmlns:dc="http://purl.org/dc/elements/1.1/" xmlns:rdf="http://www.w3.org/1999/02/22-rdf-syntax-ns#">
   <cc:Work>
    <dc:type rdf:resource="http://purl.org/dc/dcmitype/StillImage"/>
    <dc:date>2021-11-04T14:44:02.834562</dc:date>
    <dc:format>image/svg+xml</dc:format>
    <dc:creator>
     <cc:Agent>
      <dc:title>Matplotlib v3.4.2, https://matplotlib.org/</dc:title>
     </cc:Agent>
    </dc:creator>
   </cc:Work>
  </rdf:RDF>
 </metadata>
 <defs>
  <style type="text/css">*{stroke-linecap:butt;stroke-linejoin:round;}</style>
 </defs>
 <g id="figure_1">
  <g id="patch_1">
   <path d="M 0 264.131875 
L 609.67 264.131875 
L 609.67 0 
L 0 0 
z
" style="fill:#ffffff;"/>
  </g>
  <g id="axes_1">
   <g id="patch_2">
    <path d="M 45.716875 224.64 
L 492.116875 224.64 
L 492.116875 7.2 
L 45.716875 7.2 
z
" style="fill:#e5e5e5;"/>
   </g>
   <g id="matplotlib.axis_1">
    <g id="xtick_1">
     <g id="line2d_1">
      <path clip-path="url(#p9c76a8d400)" d="M 61.908611 224.64 
L 61.908611 7.2 
" style="fill:none;stroke:#ffffff;stroke-linecap:square;stroke-width:0.8;"/>
     </g>
     <g id="line2d_2">
      <defs>
       <path d="M 0 0 
L 0 3.5 
" id="mfd08e4ff38" style="stroke:#555555;stroke-width:0.8;"/>
      </defs>
      <g>
       <use style="fill:#555555;stroke:#555555;stroke-width:0.8;" x="61.908611" xlink:href="#mfd08e4ff38" y="224.64"/>
      </g>
     </g>
     <g id="text_1">
      <!-- 0 -->
      <g style="fill:#555555;" transform="translate(58.727361 239.238437)scale(0.1 -0.1)">
       <defs>
        <path d="M 2034 4250 
Q 1547 4250 1301 3770 
Q 1056 3291 1056 2328 
Q 1056 1369 1301 889 
Q 1547 409 2034 409 
Q 2525 409 2770 889 
Q 3016 1369 3016 2328 
Q 3016 3291 2770 3770 
Q 2525 4250 2034 4250 
z
M 2034 4750 
Q 2819 4750 3233 4129 
Q 3647 3509 3647 2328 
Q 3647 1150 3233 529 
Q 2819 -91 2034 -91 
Q 1250 -91 836 529 
Q 422 1150 422 2328 
Q 422 3509 836 4129 
Q 1250 4750 2034 4750 
z
" id="DejaVuSans-30" transform="scale(0.015625)"/>
       </defs>
       <use xlink:href="#DejaVuSans-30"/>
      </g>
     </g>
    </g>
    <g id="xtick_2">
     <g id="line2d_3">
      <path clip-path="url(#p9c76a8d400)" d="M 143.892082 224.64 
L 143.892082 7.2 
" style="fill:none;stroke:#ffffff;stroke-linecap:square;stroke-width:0.8;"/>
     </g>
     <g id="line2d_4">
      <g>
       <use style="fill:#555555;stroke:#555555;stroke-width:0.8;" x="143.892082" xlink:href="#mfd08e4ff38" y="224.64"/>
      </g>
     </g>
     <g id="text_2">
      <!-- 20 -->
      <g style="fill:#555555;" transform="translate(137.529582 239.238437)scale(0.1 -0.1)">
       <defs>
        <path d="M 1228 531 
L 3431 531 
L 3431 0 
L 469 0 
L 469 531 
Q 828 903 1448 1529 
Q 2069 2156 2228 2338 
Q 2531 2678 2651 2914 
Q 2772 3150 2772 3378 
Q 2772 3750 2511 3984 
Q 2250 4219 1831 4219 
Q 1534 4219 1204 4116 
Q 875 4013 500 3803 
L 500 4441 
Q 881 4594 1212 4672 
Q 1544 4750 1819 4750 
Q 2544 4750 2975 4387 
Q 3406 4025 3406 3419 
Q 3406 3131 3298 2873 
Q 3191 2616 2906 2266 
Q 2828 2175 2409 1742 
Q 1991 1309 1228 531 
z
" id="DejaVuSans-32" transform="scale(0.015625)"/>
       </defs>
       <use xlink:href="#DejaVuSans-32"/>
       <use x="63.623047" xlink:href="#DejaVuSans-30"/>
      </g>
     </g>
    </g>
    <g id="xtick_3">
     <g id="line2d_5">
      <path clip-path="url(#p9c76a8d400)" d="M 225.875553 224.64 
L 225.875553 7.2 
" style="fill:none;stroke:#ffffff;stroke-linecap:square;stroke-width:0.8;"/>
     </g>
     <g id="line2d_6">
      <g>
       <use style="fill:#555555;stroke:#555555;stroke-width:0.8;" x="225.875553" xlink:href="#mfd08e4ff38" y="224.64"/>
      </g>
     </g>
     <g id="text_3">
      <!-- 40 -->
      <g style="fill:#555555;" transform="translate(219.513053 239.238437)scale(0.1 -0.1)">
       <defs>
        <path d="M 2419 4116 
L 825 1625 
L 2419 1625 
L 2419 4116 
z
M 2253 4666 
L 3047 4666 
L 3047 1625 
L 3713 1625 
L 3713 1100 
L 3047 1100 
L 3047 0 
L 2419 0 
L 2419 1100 
L 313 1100 
L 313 1709 
L 2253 4666 
z
" id="DejaVuSans-34" transform="scale(0.015625)"/>
       </defs>
       <use xlink:href="#DejaVuSans-34"/>
       <use x="63.623047" xlink:href="#DejaVuSans-30"/>
      </g>
     </g>
    </g>
    <g id="xtick_4">
     <g id="line2d_7">
      <path clip-path="url(#p9c76a8d400)" d="M 307.859024 224.64 
L 307.859024 7.2 
" style="fill:none;stroke:#ffffff;stroke-linecap:square;stroke-width:0.8;"/>
     </g>
     <g id="line2d_8">
      <g>
       <use style="fill:#555555;stroke:#555555;stroke-width:0.8;" x="307.859024" xlink:href="#mfd08e4ff38" y="224.64"/>
      </g>
     </g>
     <g id="text_4">
      <!-- 60 -->
      <g style="fill:#555555;" transform="translate(301.496524 239.238437)scale(0.1 -0.1)">
       <defs>
        <path d="M 2113 2584 
Q 1688 2584 1439 2293 
Q 1191 2003 1191 1497 
Q 1191 994 1439 701 
Q 1688 409 2113 409 
Q 2538 409 2786 701 
Q 3034 994 3034 1497 
Q 3034 2003 2786 2293 
Q 2538 2584 2113 2584 
z
M 3366 4563 
L 3366 3988 
Q 3128 4100 2886 4159 
Q 2644 4219 2406 4219 
Q 1781 4219 1451 3797 
Q 1122 3375 1075 2522 
Q 1259 2794 1537 2939 
Q 1816 3084 2150 3084 
Q 2853 3084 3261 2657 
Q 3669 2231 3669 1497 
Q 3669 778 3244 343 
Q 2819 -91 2113 -91 
Q 1303 -91 875 529 
Q 447 1150 447 2328 
Q 447 3434 972 4092 
Q 1497 4750 2381 4750 
Q 2619 4750 2861 4703 
Q 3103 4656 3366 4563 
z
" id="DejaVuSans-36" transform="scale(0.015625)"/>
       </defs>
       <use xlink:href="#DejaVuSans-36"/>
       <use x="63.623047" xlink:href="#DejaVuSans-30"/>
      </g>
     </g>
    </g>
    <g id="xtick_5">
     <g id="line2d_9">
      <path clip-path="url(#p9c76a8d400)" d="M 389.842495 224.64 
L 389.842495 7.2 
" style="fill:none;stroke:#ffffff;stroke-linecap:square;stroke-width:0.8;"/>
     </g>
     <g id="line2d_10">
      <g>
       <use style="fill:#555555;stroke:#555555;stroke-width:0.8;" x="389.842495" xlink:href="#mfd08e4ff38" y="224.64"/>
      </g>
     </g>
     <g id="text_5">
      <!-- 80 -->
      <g style="fill:#555555;" transform="translate(383.479995 239.238437)scale(0.1 -0.1)">
       <defs>
        <path d="M 2034 2216 
Q 1584 2216 1326 1975 
Q 1069 1734 1069 1313 
Q 1069 891 1326 650 
Q 1584 409 2034 409 
Q 2484 409 2743 651 
Q 3003 894 3003 1313 
Q 3003 1734 2745 1975 
Q 2488 2216 2034 2216 
z
M 1403 2484 
Q 997 2584 770 2862 
Q 544 3141 544 3541 
Q 544 4100 942 4425 
Q 1341 4750 2034 4750 
Q 2731 4750 3128 4425 
Q 3525 4100 3525 3541 
Q 3525 3141 3298 2862 
Q 3072 2584 2669 2484 
Q 3125 2378 3379 2068 
Q 3634 1759 3634 1313 
Q 3634 634 3220 271 
Q 2806 -91 2034 -91 
Q 1263 -91 848 271 
Q 434 634 434 1313 
Q 434 1759 690 2068 
Q 947 2378 1403 2484 
z
M 1172 3481 
Q 1172 3119 1398 2916 
Q 1625 2713 2034 2713 
Q 2441 2713 2670 2916 
Q 2900 3119 2900 3481 
Q 2900 3844 2670 4047 
Q 2441 4250 2034 4250 
Q 1625 4250 1398 4047 
Q 1172 3844 1172 3481 
z
" id="DejaVuSans-38" transform="scale(0.015625)"/>
       </defs>
       <use xlink:href="#DejaVuSans-38"/>
       <use x="63.623047" xlink:href="#DejaVuSans-30"/>
      </g>
     </g>
    </g>
    <g id="xtick_6">
     <g id="line2d_11">
      <path clip-path="url(#p9c76a8d400)" d="M 471.825966 224.64 
L 471.825966 7.2 
" style="fill:none;stroke:#ffffff;stroke-linecap:square;stroke-width:0.8;"/>
     </g>
     <g id="line2d_12">
      <g>
       <use style="fill:#555555;stroke:#555555;stroke-width:0.8;" x="471.825966" xlink:href="#mfd08e4ff38" y="224.64"/>
      </g>
     </g>
     <g id="text_6">
      <!-- 100 -->
      <g style="fill:#555555;" transform="translate(462.282216 239.238437)scale(0.1 -0.1)">
       <defs>
        <path d="M 794 531 
L 1825 531 
L 1825 4091 
L 703 3866 
L 703 4441 
L 1819 4666 
L 2450 4666 
L 2450 531 
L 3481 531 
L 3481 0 
L 794 0 
L 794 531 
z
" id="DejaVuSans-31" transform="scale(0.015625)"/>
       </defs>
       <use xlink:href="#DejaVuSans-31"/>
       <use x="63.623047" xlink:href="#DejaVuSans-30"/>
       <use x="127.246094" xlink:href="#DejaVuSans-30"/>
      </g>
     </g>
    </g>
    <g id="text_7">
     <!-- Epoch number -->
     <g style="fill:#555555;" transform="translate(225.22 254.43625)scale(0.12 -0.12)">
      <defs>
       <path d="M 628 4666 
L 3578 4666 
L 3578 4134 
L 1259 4134 
L 1259 2753 
L 3481 2753 
L 3481 2222 
L 1259 2222 
L 1259 531 
L 3634 531 
L 3634 0 
L 628 0 
L 628 4666 
z
" id="DejaVuSans-45" transform="scale(0.015625)"/>
       <path d="M 1159 525 
L 1159 -1331 
L 581 -1331 
L 581 3500 
L 1159 3500 
L 1159 2969 
Q 1341 3281 1617 3432 
Q 1894 3584 2278 3584 
Q 2916 3584 3314 3078 
Q 3713 2572 3713 1747 
Q 3713 922 3314 415 
Q 2916 -91 2278 -91 
Q 1894 -91 1617 61 
Q 1341 213 1159 525 
z
M 3116 1747 
Q 3116 2381 2855 2742 
Q 2594 3103 2138 3103 
Q 1681 3103 1420 2742 
Q 1159 2381 1159 1747 
Q 1159 1113 1420 752 
Q 1681 391 2138 391 
Q 2594 391 2855 752 
Q 3116 1113 3116 1747 
z
" id="DejaVuSans-70" transform="scale(0.015625)"/>
       <path d="M 1959 3097 
Q 1497 3097 1228 2736 
Q 959 2375 959 1747 
Q 959 1119 1226 758 
Q 1494 397 1959 397 
Q 2419 397 2687 759 
Q 2956 1122 2956 1747 
Q 2956 2369 2687 2733 
Q 2419 3097 1959 3097 
z
M 1959 3584 
Q 2709 3584 3137 3096 
Q 3566 2609 3566 1747 
Q 3566 888 3137 398 
Q 2709 -91 1959 -91 
Q 1206 -91 779 398 
Q 353 888 353 1747 
Q 353 2609 779 3096 
Q 1206 3584 1959 3584 
z
" id="DejaVuSans-6f" transform="scale(0.015625)"/>
       <path d="M 3122 3366 
L 3122 2828 
Q 2878 2963 2633 3030 
Q 2388 3097 2138 3097 
Q 1578 3097 1268 2742 
Q 959 2388 959 1747 
Q 959 1106 1268 751 
Q 1578 397 2138 397 
Q 2388 397 2633 464 
Q 2878 531 3122 666 
L 3122 134 
Q 2881 22 2623 -34 
Q 2366 -91 2075 -91 
Q 1284 -91 818 406 
Q 353 903 353 1747 
Q 353 2603 823 3093 
Q 1294 3584 2113 3584 
Q 2378 3584 2631 3529 
Q 2884 3475 3122 3366 
z
" id="DejaVuSans-63" transform="scale(0.015625)"/>
       <path d="M 3513 2113 
L 3513 0 
L 2938 0 
L 2938 2094 
Q 2938 2591 2744 2837 
Q 2550 3084 2163 3084 
Q 1697 3084 1428 2787 
Q 1159 2491 1159 1978 
L 1159 0 
L 581 0 
L 581 4863 
L 1159 4863 
L 1159 2956 
Q 1366 3272 1645 3428 
Q 1925 3584 2291 3584 
Q 2894 3584 3203 3211 
Q 3513 2838 3513 2113 
z
" id="DejaVuSans-68" transform="scale(0.015625)"/>
       <path id="DejaVuSans-20" transform="scale(0.015625)"/>
       <path d="M 3513 2113 
L 3513 0 
L 2938 0 
L 2938 2094 
Q 2938 2591 2744 2837 
Q 2550 3084 2163 3084 
Q 1697 3084 1428 2787 
Q 1159 2491 1159 1978 
L 1159 0 
L 581 0 
L 581 3500 
L 1159 3500 
L 1159 2956 
Q 1366 3272 1645 3428 
Q 1925 3584 2291 3584 
Q 2894 3584 3203 3211 
Q 3513 2838 3513 2113 
z
" id="DejaVuSans-6e" transform="scale(0.015625)"/>
       <path d="M 544 1381 
L 544 3500 
L 1119 3500 
L 1119 1403 
Q 1119 906 1312 657 
Q 1506 409 1894 409 
Q 2359 409 2629 706 
Q 2900 1003 2900 1516 
L 2900 3500 
L 3475 3500 
L 3475 0 
L 2900 0 
L 2900 538 
Q 2691 219 2414 64 
Q 2138 -91 1772 -91 
Q 1169 -91 856 284 
Q 544 659 544 1381 
z
M 1991 3584 
L 1991 3584 
z
" id="DejaVuSans-75" transform="scale(0.015625)"/>
       <path d="M 3328 2828 
Q 3544 3216 3844 3400 
Q 4144 3584 4550 3584 
Q 5097 3584 5394 3201 
Q 5691 2819 5691 2113 
L 5691 0 
L 5113 0 
L 5113 2094 
Q 5113 2597 4934 2840 
Q 4756 3084 4391 3084 
Q 3944 3084 3684 2787 
Q 3425 2491 3425 1978 
L 3425 0 
L 2847 0 
L 2847 2094 
Q 2847 2600 2669 2842 
Q 2491 3084 2119 3084 
Q 1678 3084 1418 2786 
Q 1159 2488 1159 1978 
L 1159 0 
L 581 0 
L 581 3500 
L 1159 3500 
L 1159 2956 
Q 1356 3278 1631 3431 
Q 1906 3584 2284 3584 
Q 2666 3584 2933 3390 
Q 3200 3197 3328 2828 
z
" id="DejaVuSans-6d" transform="scale(0.015625)"/>
       <path d="M 3116 1747 
Q 3116 2381 2855 2742 
Q 2594 3103 2138 3103 
Q 1681 3103 1420 2742 
Q 1159 2381 1159 1747 
Q 1159 1113 1420 752 
Q 1681 391 2138 391 
Q 2594 391 2855 752 
Q 3116 1113 3116 1747 
z
M 1159 2969 
Q 1341 3281 1617 3432 
Q 1894 3584 2278 3584 
Q 2916 3584 3314 3078 
Q 3713 2572 3713 1747 
Q 3713 922 3314 415 
Q 2916 -91 2278 -91 
Q 1894 -91 1617 61 
Q 1341 213 1159 525 
L 1159 0 
L 581 0 
L 581 4863 
L 1159 4863 
L 1159 2969 
z
" id="DejaVuSans-62" transform="scale(0.015625)"/>
       <path d="M 3597 1894 
L 3597 1613 
L 953 1613 
Q 991 1019 1311 708 
Q 1631 397 2203 397 
Q 2534 397 2845 478 
Q 3156 559 3463 722 
L 3463 178 
Q 3153 47 2828 -22 
Q 2503 -91 2169 -91 
Q 1331 -91 842 396 
Q 353 884 353 1716 
Q 353 2575 817 3079 
Q 1281 3584 2069 3584 
Q 2775 3584 3186 3129 
Q 3597 2675 3597 1894 
z
M 3022 2063 
Q 3016 2534 2758 2815 
Q 2500 3097 2075 3097 
Q 1594 3097 1305 2825 
Q 1016 2553 972 2059 
L 3022 2063 
z
" id="DejaVuSans-65" transform="scale(0.015625)"/>
       <path d="M 2631 2963 
Q 2534 3019 2420 3045 
Q 2306 3072 2169 3072 
Q 1681 3072 1420 2755 
Q 1159 2438 1159 1844 
L 1159 0 
L 581 0 
L 581 3500 
L 1159 3500 
L 1159 2956 
Q 1341 3275 1631 3429 
Q 1922 3584 2338 3584 
Q 2397 3584 2469 3576 
Q 2541 3569 2628 3553 
L 2631 2963 
z
" id="DejaVuSans-72" transform="scale(0.015625)"/>
      </defs>
      <use xlink:href="#DejaVuSans-45"/>
      <use x="63.183594" xlink:href="#DejaVuSans-70"/>
      <use x="126.660156" xlink:href="#DejaVuSans-6f"/>
      <use x="187.841797" xlink:href="#DejaVuSans-63"/>
      <use x="242.822266" xlink:href="#DejaVuSans-68"/>
      <use x="306.201172" xlink:href="#DejaVuSans-20"/>
      <use x="337.988281" xlink:href="#DejaVuSans-6e"/>
      <use x="401.367188" xlink:href="#DejaVuSans-75"/>
      <use x="464.746094" xlink:href="#DejaVuSans-6d"/>
      <use x="562.158203" xlink:href="#DejaVuSans-62"/>
      <use x="625.634766" xlink:href="#DejaVuSans-65"/>
      <use x="687.158203" xlink:href="#DejaVuSans-72"/>
     </g>
    </g>
   </g>
   <g id="matplotlib.axis_2">
    <g id="ytick_1">
     <g id="line2d_13">
      <path clip-path="url(#p9c76a8d400)" d="M 45.716875 207.539152 
L 492.116875 207.539152 
" style="fill:none;stroke:#ffffff;stroke-linecap:square;stroke-width:0.8;"/>
     </g>
     <g id="line2d_14">
      <defs>
       <path d="M 0 0 
L -3.5 0 
" id="mee74741339" style="stroke:#555555;stroke-width:0.8;"/>
      </defs>
      <g>
       <use style="fill:#555555;stroke:#555555;stroke-width:0.8;" x="45.716875" xlink:href="#mee74741339" y="207.539152"/>
      </g>
     </g>
     <g id="text_8">
      <!-- 0.5 -->
      <g style="fill:#555555;" transform="translate(22.81375 211.338371)scale(0.1 -0.1)">
       <defs>
        <path d="M 684 794 
L 1344 794 
L 1344 0 
L 684 0 
L 684 794 
z
" id="DejaVuSans-2e" transform="scale(0.015625)"/>
        <path d="M 691 4666 
L 3169 4666 
L 3169 4134 
L 1269 4134 
L 1269 2991 
Q 1406 3038 1543 3061 
Q 1681 3084 1819 3084 
Q 2600 3084 3056 2656 
Q 3513 2228 3513 1497 
Q 3513 744 3044 326 
Q 2575 -91 1722 -91 
Q 1428 -91 1123 -41 
Q 819 9 494 109 
L 494 744 
Q 775 591 1075 516 
Q 1375 441 1709 441 
Q 2250 441 2565 725 
Q 2881 1009 2881 1497 
Q 2881 1984 2565 2268 
Q 2250 2553 1709 2553 
Q 1456 2553 1204 2497 
Q 953 2441 691 2322 
L 691 4666 
z
" id="DejaVuSans-35" transform="scale(0.015625)"/>
       </defs>
       <use xlink:href="#DejaVuSans-30"/>
       <use x="63.623047" xlink:href="#DejaVuSans-2e"/>
       <use x="95.410156" xlink:href="#DejaVuSans-35"/>
      </g>
     </g>
    </g>
    <g id="ytick_2">
     <g id="line2d_15">
      <path clip-path="url(#p9c76a8d400)" d="M 45.716875 169.201805 
L 492.116875 169.201805 
" style="fill:none;stroke:#ffffff;stroke-linecap:square;stroke-width:0.8;"/>
     </g>
     <g id="line2d_16">
      <g>
       <use style="fill:#555555;stroke:#555555;stroke-width:0.8;" x="45.716875" xlink:href="#mee74741339" y="169.201805"/>
      </g>
     </g>
     <g id="text_9">
      <!-- 1.0 -->
      <g style="fill:#555555;" transform="translate(22.81375 173.001024)scale(0.1 -0.1)">
       <use xlink:href="#DejaVuSans-31"/>
       <use x="63.623047" xlink:href="#DejaVuSans-2e"/>
       <use x="95.410156" xlink:href="#DejaVuSans-30"/>
      </g>
     </g>
    </g>
    <g id="ytick_3">
     <g id="line2d_17">
      <path clip-path="url(#p9c76a8d400)" d="M 45.716875 130.864459 
L 492.116875 130.864459 
" style="fill:none;stroke:#ffffff;stroke-linecap:square;stroke-width:0.8;"/>
     </g>
     <g id="line2d_18">
      <g>
       <use style="fill:#555555;stroke:#555555;stroke-width:0.8;" x="45.716875" xlink:href="#mee74741339" y="130.864459"/>
      </g>
     </g>
     <g id="text_10">
      <!-- 1.5 -->
      <g style="fill:#555555;" transform="translate(22.81375 134.663677)scale(0.1 -0.1)">
       <use xlink:href="#DejaVuSans-31"/>
       <use x="63.623047" xlink:href="#DejaVuSans-2e"/>
       <use x="95.410156" xlink:href="#DejaVuSans-35"/>
      </g>
     </g>
    </g>
    <g id="ytick_4">
     <g id="line2d_19">
      <path clip-path="url(#p9c76a8d400)" d="M 45.716875 92.527112 
L 492.116875 92.527112 
" style="fill:none;stroke:#ffffff;stroke-linecap:square;stroke-width:0.8;"/>
     </g>
     <g id="line2d_20">
      <g>
       <use style="fill:#555555;stroke:#555555;stroke-width:0.8;" x="45.716875" xlink:href="#mee74741339" y="92.527112"/>
      </g>
     </g>
     <g id="text_11">
      <!-- 2.0 -->
      <g style="fill:#555555;" transform="translate(22.81375 96.326331)scale(0.1 -0.1)">
       <use xlink:href="#DejaVuSans-32"/>
       <use x="63.623047" xlink:href="#DejaVuSans-2e"/>
       <use x="95.410156" xlink:href="#DejaVuSans-30"/>
      </g>
     </g>
    </g>
    <g id="ytick_5">
     <g id="line2d_21">
      <path clip-path="url(#p9c76a8d400)" d="M 45.716875 54.189766 
L 492.116875 54.189766 
" style="fill:none;stroke:#ffffff;stroke-linecap:square;stroke-width:0.8;"/>
     </g>
     <g id="line2d_22">
      <g>
       <use style="fill:#555555;stroke:#555555;stroke-width:0.8;" x="45.716875" xlink:href="#mee74741339" y="54.189766"/>
      </g>
     </g>
     <g id="text_12">
      <!-- 2.5 -->
      <g style="fill:#555555;" transform="translate(22.81375 57.988984)scale(0.1 -0.1)">
       <use xlink:href="#DejaVuSans-32"/>
       <use x="63.623047" xlink:href="#DejaVuSans-2e"/>
       <use x="95.410156" xlink:href="#DejaVuSans-35"/>
      </g>
     </g>
    </g>
    <g id="ytick_6">
     <g id="line2d_23">
      <path clip-path="url(#p9c76a8d400)" d="M 45.716875 15.852419 
L 492.116875 15.852419 
" style="fill:none;stroke:#ffffff;stroke-linecap:square;stroke-width:0.8;"/>
     </g>
     <g id="line2d_24">
      <g>
       <use style="fill:#555555;stroke:#555555;stroke-width:0.8;" x="45.716875" xlink:href="#mee74741339" y="15.852419"/>
      </g>
     </g>
     <g id="text_13">
      <!-- 3.0 -->
      <g style="fill:#555555;" transform="translate(22.81375 19.651638)scale(0.1 -0.1)">
       <defs>
        <path d="M 2597 2516 
Q 3050 2419 3304 2112 
Q 3559 1806 3559 1356 
Q 3559 666 3084 287 
Q 2609 -91 1734 -91 
Q 1441 -91 1130 -33 
Q 819 25 488 141 
L 488 750 
Q 750 597 1062 519 
Q 1375 441 1716 441 
Q 2309 441 2620 675 
Q 2931 909 2931 1356 
Q 2931 1769 2642 2001 
Q 2353 2234 1838 2234 
L 1294 2234 
L 1294 2753 
L 1863 2753 
Q 2328 2753 2575 2939 
Q 2822 3125 2822 3475 
Q 2822 3834 2567 4026 
Q 2313 4219 1838 4219 
Q 1578 4219 1281 4162 
Q 984 4106 628 3988 
L 628 4550 
Q 988 4650 1302 4700 
Q 1616 4750 1894 4750 
Q 2613 4750 3031 4423 
Q 3450 4097 3450 3541 
Q 3450 3153 3228 2886 
Q 3006 2619 2597 2516 
z
" id="DejaVuSans-33" transform="scale(0.015625)"/>
       </defs>
       <use xlink:href="#DejaVuSans-33"/>
       <use x="63.623047" xlink:href="#DejaVuSans-2e"/>
       <use x="95.410156" xlink:href="#DejaVuSans-30"/>
      </g>
     </g>
    </g>
    <g id="text_14">
     <!-- Error -->
     <g style="fill:#555555;" transform="translate(16.318125 130.542187)rotate(-90)scale(0.12 -0.12)">
      <use xlink:href="#DejaVuSans-45"/>
      <use x="63.183594" xlink:href="#DejaVuSans-72"/>
      <use x="102.546875" xlink:href="#DejaVuSans-72"/>
      <use x="141.410156" xlink:href="#DejaVuSans-6f"/>
      <use x="202.591797" xlink:href="#DejaVuSans-72"/>
     </g>
    </g>
   </g>
   <g id="line2d_25">
    <path clip-path="url(#p9c76a8d400)" d="M 66.007784 17.119898 
L 70.106958 23.241273 
L 74.206131 23.149992 
L 78.305305 22.954815 
L 82.404478 23.206422 
L 86.503652 23.607307 
L 90.602825 23.780046 
L 94.701999 24.528895 
L 98.801173 24.812311 
L 102.900346 25.48075 
L 106.99952 25.783527 
L 111.098693 25.893517 
L 115.197867 26.7148 
L 119.29704 26.526123 
L 123.396214 26.970483 
L 127.495387 27.198764 
L 131.594561 27.500021 
L 135.693735 27.928001 
L 139.792908 28.078159 
L 143.892082 28.583009 
L 147.991255 28.491857 
L 152.090429 28.689294 
L 156.189602 28.79651 
L 160.288776 28.834201 
L 164.387949 29.246918 
L 168.487123 29.374503 
L 172.586296 29.357558 
L 176.68547 29.653759 
L 180.784644 29.648333 
L 184.883817 29.989577 
L 188.982991 30.273031 
L 193.082164 30.093005 
L 197.181338 30.266025 
L 201.280511 30.417658 
L 205.379685 30.389798 
L 209.478858 30.322578 
L 213.578032 30.556175 
L 217.677206 30.453786 
L 221.776379 30.622162 
L 225.875553 30.818705 
L 229.974726 30.380919 
L 234.0739 30.790949 
L 238.173073 30.834849 
L 242.272247 30.897399 
L 246.37142 31.007038 
L 250.470594 31.187385 
L 254.569768 31.145898 
L 258.668941 31.327345 
L 262.768115 31.027201 
L 266.867288 31.069261 
L 270.966462 31.451846 
L 275.065635 31.136039 
L 279.164809 31.07904 
L 283.263982 31.309039 
L 287.363156 31.066977 
L 291.46233 31.330336 
L 295.561503 31.321295 
L 299.660677 31.429022 
L 303.75985 31.577628 
L 307.859024 31.583859 
L 311.958197 31.554905 
L 316.057371 31.653367 
L 320.156544 31.492896 
L 324.255718 31.517799 
L 328.354892 31.823523 
L 332.454065 31.829734 
L 336.553239 31.566695 
L 340.652412 31.630591 
L 344.751586 31.612644 
L 348.850759 31.646505 
L 352.949933 31.835896 
L 357.049106 31.81973 
L 361.14828 31.659276 
L 365.247454 31.594024 
L 369.346627 31.969087 
L 373.445801 31.866438 
L 377.544974 31.69305 
L 381.644148 31.9436 
L 385.743321 31.847101 
L 389.842495 31.899547 
L 393.941668 31.420817 
L 398.040842 31.94602 
L 402.140015 31.901849 
L 406.239189 31.714933 
L 410.338363 31.819706 
L 414.437536 31.865155 
L 418.53671 31.758959 
L 422.635883 31.886457 
L 426.735057 31.893137 
L 430.83423 32.196287 
L 434.933404 31.80591 
L 439.032577 31.864417 
L 443.131751 32.165347 
L 447.230925 31.998702 
L 451.330098 32.33532 
L 455.429272 32.113702 
L 459.528445 32.042383 
L 463.627619 31.946757 
L 467.726792 32.018006 
L 471.825966 31.989338 
" style="fill:none;stroke:#ff0000;stroke-linecap:square;stroke-width:1.5;"/>
   </g>
   <g id="line2d_26">
    <path clip-path="url(#p9c76a8d400)" d="M 66.007784 122.385085 
L 70.106958 144.411394 
L 74.206131 152.694725 
L 78.305305 157.736161 
L 82.404478 161.71158 
L 86.503652 164.906557 
L 90.602825 167.622386 
L 94.701999 170.245111 
L 98.801173 172.586882 
L 102.900346 174.697547 
L 106.99952 176.532674 
L 111.098693 178.33196 
L 115.197867 179.965008 
L 119.29704 181.400545 
L 123.396214 182.805418 
L 127.495387 184.054461 
L 131.594561 185.188167 
L 135.693735 186.209695 
L 139.792908 187.237348 
L 143.892082 188.13349 
L 147.991255 188.900105 
L 152.090429 189.782066 
L 156.189602 190.573578 
L 160.288776 191.163099 
L 164.387949 191.824845 
L 168.487123 192.39748 
L 172.586296 192.982594 
L 176.68547 193.521209 
L 180.784644 193.930408 
L 184.883817 194.456476 
L 188.982991 194.947303 
L 193.082164 195.30657 
L 197.181338 195.704568 
L 201.280511 196.051382 
L 205.379685 196.454674 
L 209.478858 196.814715 
L 213.578032 197.190859 
L 217.677206 197.521918 
L 221.776379 197.70626 
L 225.875553 198.108483 
L 229.974726 198.289524 
L 234.0739 198.476024 
L 238.173073 198.791333 
L 242.272247 199.068115 
L 246.37142 199.204235 
L 250.470594 199.373505 
L 254.569768 199.694532 
L 258.668941 199.960452 
L 262.768115 200.120688 
L 266.867288 200.282004 
L 270.966462 200.541637 
L 275.065635 200.76624 
L 279.164809 200.907106 
L 283.263982 201.050487 
L 287.363156 201.214637 
L 291.46233 201.298294 
L 295.561503 201.520812 
L 299.660677 201.654412 
L 303.75985 201.755177 
L 307.859024 201.932967 
L 311.958197 201.995413 
L 316.057371 202.176483 
L 320.156544 202.376583 
L 324.255718 202.544097 
L 328.354892 202.599544 
L 332.454065 202.641098 
L 336.553239 202.861819 
L 340.652412 202.866597 
L 344.751586 203.11237 
L 348.850759 203.196886 
L 352.949933 203.21025 
L 357.049106 203.3084 
L 361.14828 203.398523 
L 365.247454 203.60539 
L 369.346627 203.636955 
L 373.445801 203.764715 
L 377.544974 203.752039 
L 381.644148 203.938697 
L 385.743321 203.953828 
L 389.842495 204.021403 
L 393.941668 204.194748 
L 398.040842 204.251714 
L 402.140015 204.304517 
L 406.239189 204.455999 
L 410.338363 204.482648 
L 414.437536 204.512192 
L 418.53671 204.55824 
L 422.635883 204.7263 
L 426.735057 204.791463 
L 430.83423 204.807256 
L 434.933404 204.932671 
L 439.032577 204.967905 
L 443.131751 205.090457 
L 447.230925 205.098999 
L 451.330098 205.103154 
L 455.429272 205.218434 
L 459.528445 205.203245 
L 463.627619 205.164774 
L 467.726792 205.299387 
L 471.825966 205.470323 
" style="fill:none;stroke:#0000ff;stroke-linecap:square;stroke-width:1.5;"/>
   </g>
   <g id="line2d_27">
    <path clip-path="url(#p9c76a8d400)" d="M 66.007784 122.342673 
L 70.106958 144.736232 
L 74.206131 153.586119 
L 78.305305 159.119297 
L 82.404478 163.474141 
L 86.503652 167.132533 
L 90.602825 170.495731 
L 94.701999 173.468625 
L 98.801173 175.914006 
L 102.900346 178.229981 
L 106.99952 180.380083 
L 111.098693 182.208066 
L 115.197867 183.915734 
L 119.29704 185.44723 
L 123.396214 186.967725 
L 127.495387 188.170199 
L 131.594561 189.600469 
L 135.693735 190.636443 
L 139.792908 191.734886 
L 143.892082 192.808772 
L 147.991255 193.54912 
L 152.090429 194.507519 
L 156.189602 195.330748 
L 160.288776 196.123707 
L 164.387949 196.725963 
L 168.487123 197.379872 
L 172.586296 198.173412 
L 176.68547 198.848412 
L 180.784644 199.315873 
L 184.883817 199.933267 
L 188.982991 200.277603 
L 193.082164 200.993954 
L 197.181338 201.396805 
L 201.280511 201.872661 
L 205.379685 202.286603 
L 209.478858 202.78313 
L 213.578032 203.216178 
L 217.677206 203.518597 
L 221.776379 203.955661 
L 225.875553 204.354808 
L 229.974726 204.700202 
L 234.0739 204.974638 
L 238.173073 205.187479 
L 242.272247 205.613749 
L 246.37142 205.898882 
L 250.470594 206.130703 
L 254.569768 206.494943 
L 258.668941 206.709784 
L 262.768115 207.00045 
L 266.867288 207.292109 
L 270.966462 207.49519 
L 275.065635 207.786311 
L 279.164809 207.939276 
L 283.263982 208.227379 
L 287.363156 208.406974 
L 291.46233 208.696635 
L 295.561503 208.905159 
L 299.660677 209.004121 
L 303.75985 209.295888 
L 307.859024 209.576256 
L 311.958197 209.719288 
L 316.057371 209.884689 
L 320.156544 210.093447 
L 324.255718 210.213262 
L 328.354892 210.435872 
L 332.454065 210.58036 
L 336.553239 210.660989 
L 340.652412 210.938588 
L 344.751586 211.045936 
L 348.850759 211.167058 
L 352.949933 211.265245 
L 357.049106 211.546761 
L 361.14828 211.465862 
L 365.247454 211.768891 
L 369.346627 211.869523 
L 373.445801 212.110309 
L 377.544974 212.22804 
L 381.644148 212.30085 
L 385.743321 212.47038 
L 389.842495 212.65013 
L 393.941668 212.674235 
L 398.040842 212.829741 
L 402.140015 213.018394 
L 406.239189 213.080366 
L 410.338363 213.163357 
L 414.437536 213.386208 
L 418.53671 213.442379 
L 422.635883 213.628193 
L 426.735057 213.612565 
L 430.83423 213.658942 
L 434.933404 213.839239 
L 439.032577 213.893274 
L 443.131751 214.085444 
L 447.230925 214.219719 
L 451.330098 214.209058 
L 455.429272 214.345371 
L 459.528445 214.487088 
L 463.627619 214.535534 
L 467.726792 214.682185 
L 471.825966 214.756364 
" style="fill:none;stroke:#800080;stroke-linecap:square;stroke-width:1.5;"/>
   </g>
   <g id="line2d_28">
    <path clip-path="url(#p9c76a8d400)" d="M 66.007784 17.083636 
L 70.106958 23.134534 
L 74.206131 23.016608 
L 78.305305 22.873711 
L 82.404478 23.13962 
L 86.503652 23.482379 
L 90.602825 23.697593 
L 94.701999 24.403893 
L 98.801173 24.75436 
L 102.900346 25.345789 
L 106.99952 25.649038 
L 111.098693 25.811144 
L 115.197867 26.647678 
L 119.29704 26.504399 
L 123.396214 26.821944 
L 127.495387 27.108315 
L 131.594561 27.395203 
L 135.693735 27.785327 
L 139.792908 27.898959 
L 143.892082 28.440003 
L 147.991255 28.347881 
L 152.090429 28.545347 
L 156.189602 28.69326 
L 160.288776 28.713926 
L 164.387949 29.17774 
L 168.487123 29.281944 
L 172.586296 29.301773 
L 176.68547 29.564135 
L 180.784644 29.499328 
L 184.883817 29.886978 
L 188.982991 30.141765 
L 193.082164 29.985295 
L 197.181338 30.225294 
L 201.280511 30.310044 
L 205.379685 30.31216 
L 209.478858 30.291713 
L 213.578032 30.42898 
L 217.677206 30.400963 
L 221.776379 30.633924 
L 225.875553 30.738902 
L 229.974726 30.264513 
L 234.0739 30.685078 
L 238.173073 30.733242 
L 242.272247 30.847815 
L 246.37142 30.934465 
L 250.470594 31.168553 
L 254.569768 31.102084 
L 258.668941 31.264856 
L 262.768115 30.925057 
L 266.867288 31.044534 
L 270.966462 31.415295 
L 275.065635 31.073151 
L 279.164809 31.067652 
L 283.263982 31.272691 
L 287.363156 31.041589 
L 291.46233 31.2764 
L 295.561503 31.270518 
L 299.660677 31.355559 
L 303.75985 31.531355 
L 307.859024 31.582504 
L 311.958197 31.460311 
L 316.057371 31.653263 
L 320.156544 31.476162 
L 324.255718 31.497968 
L 328.354892 31.771525 
L 332.454065 31.740432 
L 336.553239 31.519883 
L 340.652412 31.608197 
L 344.751586 31.534885 
L 348.850759 31.615889 
L 352.949933 31.830214 
L 357.049106 31.794273 
L 361.14828 31.660087 
L 365.247454 31.54684 
L 369.346627 31.946004 
L 373.445801 31.75206 
L 377.544974 31.64046 
L 381.644148 31.893332 
L 385.743321 31.818096 
L 389.842495 31.83328 
L 393.941668 31.336684 
L 398.040842 31.986075 
L 402.140015 31.886403 
L 406.239189 31.637495 
L 410.338363 31.695829 
L 414.437536 31.835492 
L 418.53671 31.742728 
L 422.635883 31.757394 
L 426.735057 31.824638 
L 430.83423 32.211401 
L 434.933404 31.778255 
L 439.032577 31.886196 
L 443.131751 32.102663 
L 447.230925 31.999549 
L 451.330098 32.306697 
L 455.429272 32.00018 
L 459.528445 32.060652 
L 463.627619 31.907273 
L 467.726792 31.934917 
L 471.825966 31.947072 
" style="fill:none;stroke:#808080;stroke-dasharray:5.55,2.4;stroke-dashoffset:0;stroke-width:1.5;"/>
   </g>
   <g id="line2d_29">
    <path clip-path="url(#p9c76a8d400)" d="M 66.007784 122.669824 
L 70.106958 144.501873 
L 74.206131 152.282901 
L 78.305305 157.258419 
L 82.404478 161.024742 
L 86.503652 164.085019 
L 90.602825 166.638225 
L 94.701999 169.141348 
L 98.801173 171.351563 
L 102.900346 173.421981 
L 106.99952 175.192628 
L 111.098693 176.871018 
L 115.197867 178.382787 
L 119.29704 179.812845 
L 123.396214 181.094809 
L 127.495387 182.314718 
L 131.594561 183.354353 
L 135.693735 184.311666 
L 139.792908 185.257477 
L 143.892082 186.150068 
L 147.991255 186.812444 
L 152.090429 187.665563 
L 156.189602 188.401484 
L 160.288776 188.821016 
L 164.387949 189.487888 
L 168.487123 190.092792 
L 172.586296 190.617808 
L 176.68547 191.062583 
L 180.784644 191.407822 
L 184.883817 191.894103 
L 188.982991 192.359489 
L 193.082164 192.719014 
L 197.181338 193.023888 
L 201.280511 193.365151 
L 205.379685 193.715149 
L 209.478858 194.046035 
L 213.578032 194.440958 
L 217.677206 194.799137 
L 221.776379 194.917943 
L 225.875553 195.30001 
L 229.974726 195.466044 
L 234.0739 195.639201 
L 238.173073 195.936084 
L 242.272247 196.170479 
L 246.37142 196.271003 
L 250.470594 196.475268 
L 254.569768 196.790964 
L 258.668941 196.952065 
L 262.768115 197.21728 
L 266.867288 197.311196 
L 270.966462 197.633133 
L 275.065635 197.79658 
L 279.164809 197.873412 
L 283.263982 198.020761 
L 287.363156 198.211718 
L 291.46233 198.318336 
L 295.561503 198.498227 
L 299.660677 198.626376 
L 303.75985 198.762895 
L 307.859024 198.928831 
L 311.958197 198.956972 
L 316.057371 199.092653 
L 320.156544 199.269565 
L 324.255718 199.475906 
L 328.354892 199.504377 
L 332.454065 199.614596 
L 336.553239 199.848105 
L 340.652412 199.745239 
L 344.751586 199.931777 
L 348.850759 200.026504 
L 352.949933 200.061822 
L 357.049106 200.137214 
L 361.14828 200.229382 
L 365.247454 200.383921 
L 369.346627 200.416974 
L 373.445801 200.528448 
L 377.544974 200.58454 
L 381.644148 200.739468 
L 385.743321 200.705718 
L 389.842495 200.773859 
L 393.941668 200.970993 
L 398.040842 200.962758 
L 402.140015 201.011243 
L 406.239189 201.164342 
L 410.338363 201.291532 
L 414.437536 201.228427 
L 418.53671 201.284572 
L 422.635883 201.400419 
L 426.735057 201.456733 
L 430.83423 201.541256 
L 434.933404 201.674855 
L 439.032577 201.669733 
L 443.131751 201.768538 
L 447.230925 201.727242 
L 451.330098 201.817987 
L 455.429272 201.886279 
L 459.528445 201.88204 
L 463.627619 201.833342 
L 467.726792 202.130661 
L 471.825966 202.152205 
" style="fill:none;stroke:#ffff00;stroke-dasharray:5.55,2.4;stroke-dashoffset:0;stroke-width:1.5;"/>
   </g>
   <g id="line2d_30">
    <path clip-path="url(#p9c76a8d400)" d="M 66.007784 122.789267 
L 70.106958 144.683123 
L 74.206131 153.219317 
L 78.305305 158.365768 
L 82.404478 162.59072 
L 86.503652 166.049493 
L 90.602825 169.174618 
L 94.701999 171.919428 
L 98.801173 174.197163 
L 102.900346 176.311539 
L 106.99952 178.423831 
L 111.098693 180.006866 
L 115.197867 181.686106 
L 119.29704 183.10524 
L 123.396214 184.459238 
L 127.495387 185.523136 
L 131.594561 186.871749 
L 135.693735 187.755974 
L 139.792908 188.804976 
L 143.892082 189.805982 
L 147.991255 190.463453 
L 152.090429 191.298371 
L 156.189602 192.040349 
L 160.288776 192.787401 
L 164.387949 193.166789 
L 168.487123 193.887516 
L 172.586296 194.474387 
L 176.68547 195.083103 
L 180.784644 195.511877 
L 184.883817 195.946462 
L 188.982991 196.213187 
L 193.082164 196.847802 
L 197.181338 197.215977 
L 201.280511 197.559703 
L 205.379685 197.880549 
L 209.478858 198.238135 
L 213.578032 198.649868 
L 217.677206 198.845094 
L 221.776379 199.292074 
L 225.875553 199.534462 
L 229.974726 199.794647 
L 234.0739 199.960712 
L 238.173073 200.144813 
L 242.272247 200.46747 
L 246.37142 200.690392 
L 250.470594 200.81191 
L 254.569768 201.08385 
L 258.668941 201.163104 
L 262.768115 201.492609 
L 266.867288 201.63375 
L 270.966462 201.693092 
L 275.065635 201.959723 
L 279.164809 202.120753 
L 283.263982 202.211314 
L 287.363156 202.353373 
L 291.46233 202.552513 
L 295.561503 202.693107 
L 299.660677 202.66073 
L 303.75985 202.908304 
L 307.859024 203.165764 
L 311.958197 203.195319 
L 316.057371 203.34387 
L 320.156544 203.447072 
L 324.255718 203.446425 
L 328.354892 203.640135 
L 332.454065 203.700127 
L 336.553239 203.677891 
L 340.652412 203.869496 
L 344.751586 204.000243 
L 348.850759 204.036376 
L 352.949933 204.089055 
L 357.049106 204.300714 
L 361.14828 204.113756 
L 365.247454 204.301191 
L 369.346627 204.373577 
L 373.445801 204.5348 
L 377.544974 204.581201 
L 381.644148 204.677742 
L 385.743321 204.727653 
L 389.842495 204.839802 
L 393.941668 204.803716 
L 398.040842 204.902266 
L 402.140015 205.002736 
L 406.239189 205.060922 
L 410.338363 205.064768 
L 414.437536 205.28261 
L 418.53671 205.202137 
L 422.635883 205.373123 
L 426.735057 205.180687 
L 430.83423 205.288963 
L 434.933404 205.352114 
L 439.032577 205.461831 
L 443.131751 205.536544 
L 447.230925 205.626691 
L 451.330098 205.564759 
L 455.429272 205.63385 
L 459.528445 205.769086 
L 463.627619 205.738656 
L 467.726792 205.782068 
L 471.825966 205.906341 
" style="fill:none;stroke:#008000;stroke-dasharray:5.55,2.4;stroke-dashoffset:0;stroke-width:1.5;"/>
   </g>
   <g id="patch_3">
    <path d="M 45.716875 224.64 
L 45.716875 7.2 
" style="fill:none;stroke:#ffffff;stroke-linecap:square;stroke-linejoin:miter;"/>
   </g>
   <g id="patch_4">
    <path d="M 492.116875 224.64 
L 492.116875 7.2 
" style="fill:none;stroke:#ffffff;stroke-linecap:square;stroke-linejoin:miter;"/>
   </g>
   <g id="patch_5">
    <path d="M 45.716875 224.64 
L 492.116875 224.64 
" style="fill:none;stroke:#ffffff;stroke-linecap:square;stroke-linejoin:miter;"/>
   </g>
   <g id="patch_6">
    <path d="M 45.716875 7.2 
L 492.116875 7.2 
" style="fill:none;stroke:#ffffff;stroke-linecap:square;stroke-linejoin:miter;"/>
   </g>
   <g id="legend_1">
    <g id="patch_7">
     <path d="M 499.116875 103.26875 
L 600.47 103.26875 
Q 602.47 103.26875 602.47 101.26875 
L 602.47 14.2 
Q 602.47 12.2 600.47 12.2 
L 499.116875 12.2 
Q 497.116875 12.2 497.116875 14.2 
L 497.116875 101.26875 
Q 497.116875 103.26875 499.116875 103.26875 
z
" style="fill:#e5e5e5;opacity:0.8;stroke:#cccccc;stroke-linejoin:miter;stroke-width:0.5;"/>
    </g>
    <g id="line2d_31">
     <path d="M 501.116875 20.298437 
L 521.116875 20.298437 
" style="fill:none;stroke:#ff0000;stroke-linecap:square;stroke-width:1.5;"/>
    </g>
    <g id="line2d_32"/>
    <g id="text_15">
     <!-- L2 1e-1(train) -->
     <g transform="translate(529.116875 23.798437)scale(0.1 -0.1)">
      <defs>
       <path d="M 628 4666 
L 1259 4666 
L 1259 531 
L 3531 531 
L 3531 0 
L 628 0 
L 628 4666 
z
" id="DejaVuSans-4c" transform="scale(0.015625)"/>
       <path d="M 313 2009 
L 1997 2009 
L 1997 1497 
L 313 1497 
L 313 2009 
z
" id="DejaVuSans-2d" transform="scale(0.015625)"/>
       <path d="M 1984 4856 
Q 1566 4138 1362 3434 
Q 1159 2731 1159 2009 
Q 1159 1288 1364 580 
Q 1569 -128 1984 -844 
L 1484 -844 
Q 1016 -109 783 600 
Q 550 1309 550 2009 
Q 550 2706 781 3412 
Q 1013 4119 1484 4856 
L 1984 4856 
z
" id="DejaVuSans-28" transform="scale(0.015625)"/>
       <path d="M 1172 4494 
L 1172 3500 
L 2356 3500 
L 2356 3053 
L 1172 3053 
L 1172 1153 
Q 1172 725 1289 603 
Q 1406 481 1766 481 
L 2356 481 
L 2356 0 
L 1766 0 
Q 1100 0 847 248 
Q 594 497 594 1153 
L 594 3053 
L 172 3053 
L 172 3500 
L 594 3500 
L 594 4494 
L 1172 4494 
z
" id="DejaVuSans-74" transform="scale(0.015625)"/>
       <path d="M 2194 1759 
Q 1497 1759 1228 1600 
Q 959 1441 959 1056 
Q 959 750 1161 570 
Q 1363 391 1709 391 
Q 2188 391 2477 730 
Q 2766 1069 2766 1631 
L 2766 1759 
L 2194 1759 
z
M 3341 1997 
L 3341 0 
L 2766 0 
L 2766 531 
Q 2569 213 2275 61 
Q 1981 -91 1556 -91 
Q 1019 -91 701 211 
Q 384 513 384 1019 
Q 384 1609 779 1909 
Q 1175 2209 1959 2209 
L 2766 2209 
L 2766 2266 
Q 2766 2663 2505 2880 
Q 2244 3097 1772 3097 
Q 1472 3097 1187 3025 
Q 903 2953 641 2809 
L 641 3341 
Q 956 3463 1253 3523 
Q 1550 3584 1831 3584 
Q 2591 3584 2966 3190 
Q 3341 2797 3341 1997 
z
" id="DejaVuSans-61" transform="scale(0.015625)"/>
       <path d="M 603 3500 
L 1178 3500 
L 1178 0 
L 603 0 
L 603 3500 
z
M 603 4863 
L 1178 4863 
L 1178 4134 
L 603 4134 
L 603 4863 
z
" id="DejaVuSans-69" transform="scale(0.015625)"/>
       <path d="M 513 4856 
L 1013 4856 
Q 1481 4119 1714 3412 
Q 1947 2706 1947 2009 
Q 1947 1309 1714 600 
Q 1481 -109 1013 -844 
L 513 -844 
Q 928 -128 1133 580 
Q 1338 1288 1338 2009 
Q 1338 2731 1133 3434 
Q 928 4138 513 4856 
z
" id="DejaVuSans-29" transform="scale(0.015625)"/>
      </defs>
      <use xlink:href="#DejaVuSans-4c"/>
      <use x="55.712891" xlink:href="#DejaVuSans-32"/>
      <use x="119.335938" xlink:href="#DejaVuSans-20"/>
      <use x="151.123047" xlink:href="#DejaVuSans-31"/>
      <use x="214.746094" xlink:href="#DejaVuSans-65"/>
      <use x="276.269531" xlink:href="#DejaVuSans-2d"/>
      <use x="312.353516" xlink:href="#DejaVuSans-31"/>
      <use x="375.976562" xlink:href="#DejaVuSans-28"/>
      <use x="414.990234" xlink:href="#DejaVuSans-74"/>
      <use x="454.199219" xlink:href="#DejaVuSans-72"/>
      <use x="495.3125" xlink:href="#DejaVuSans-61"/>
      <use x="556.591797" xlink:href="#DejaVuSans-69"/>
      <use x="584.375" xlink:href="#DejaVuSans-6e"/>
      <use x="647.753906" xlink:href="#DejaVuSans-29"/>
     </g>
    </g>
    <g id="line2d_33">
     <path d="M 501.116875 34.976562 
L 521.116875 34.976562 
" style="fill:none;stroke:#0000ff;stroke-linecap:square;stroke-width:1.5;"/>
    </g>
    <g id="line2d_34"/>
    <g id="text_16">
     <!-- L2 1e-3(train) -->
     <g transform="translate(529.116875 38.476562)scale(0.1 -0.1)">
      <use xlink:href="#DejaVuSans-4c"/>
      <use x="55.712891" xlink:href="#DejaVuSans-32"/>
      <use x="119.335938" xlink:href="#DejaVuSans-20"/>
      <use x="151.123047" xlink:href="#DejaVuSans-31"/>
      <use x="214.746094" xlink:href="#DejaVuSans-65"/>
      <use x="276.269531" xlink:href="#DejaVuSans-2d"/>
      <use x="312.353516" xlink:href="#DejaVuSans-33"/>
      <use x="375.976562" xlink:href="#DejaVuSans-28"/>
      <use x="414.990234" xlink:href="#DejaVuSans-74"/>
      <use x="454.199219" xlink:href="#DejaVuSans-72"/>
      <use x="495.3125" xlink:href="#DejaVuSans-61"/>
      <use x="556.591797" xlink:href="#DejaVuSans-69"/>
      <use x="584.375" xlink:href="#DejaVuSans-6e"/>
      <use x="647.753906" xlink:href="#DejaVuSans-29"/>
     </g>
    </g>
    <g id="line2d_35">
     <path d="M 501.116875 49.654687 
L 521.116875 49.654687 
" style="fill:none;stroke:#800080;stroke-linecap:square;stroke-width:1.5;"/>
    </g>
    <g id="line2d_36"/>
    <g id="text_17">
     <!-- L2 1e-4(train) -->
     <g transform="translate(529.116875 53.154687)scale(0.1 -0.1)">
      <use xlink:href="#DejaVuSans-4c"/>
      <use x="55.712891" xlink:href="#DejaVuSans-32"/>
      <use x="119.335938" xlink:href="#DejaVuSans-20"/>
      <use x="151.123047" xlink:href="#DejaVuSans-31"/>
      <use x="214.746094" xlink:href="#DejaVuSans-65"/>
      <use x="276.269531" xlink:href="#DejaVuSans-2d"/>
      <use x="312.353516" xlink:href="#DejaVuSans-34"/>
      <use x="375.976562" xlink:href="#DejaVuSans-28"/>
      <use x="414.990234" xlink:href="#DejaVuSans-74"/>
      <use x="454.199219" xlink:href="#DejaVuSans-72"/>
      <use x="495.3125" xlink:href="#DejaVuSans-61"/>
      <use x="556.591797" xlink:href="#DejaVuSans-69"/>
      <use x="584.375" xlink:href="#DejaVuSans-6e"/>
      <use x="647.753906" xlink:href="#DejaVuSans-29"/>
     </g>
    </g>
    <g id="line2d_37">
     <path d="M 501.116875 64.332812 
L 521.116875 64.332812 
" style="fill:none;stroke:#808080;stroke-dasharray:5.55,2.4;stroke-dashoffset:0;stroke-width:1.5;"/>
    </g>
    <g id="line2d_38"/>
    <g id="text_18">
     <!-- L2 1e-1(valid) -->
     <g transform="translate(529.116875 67.832812)scale(0.1 -0.1)">
      <defs>
       <path d="M 191 3500 
L 800 3500 
L 1894 563 
L 2988 3500 
L 3597 3500 
L 2284 0 
L 1503 0 
L 191 3500 
z
" id="DejaVuSans-76" transform="scale(0.015625)"/>
       <path d="M 603 4863 
L 1178 4863 
L 1178 0 
L 603 0 
L 603 4863 
z
" id="DejaVuSans-6c" transform="scale(0.015625)"/>
       <path d="M 2906 2969 
L 2906 4863 
L 3481 4863 
L 3481 0 
L 2906 0 
L 2906 525 
Q 2725 213 2448 61 
Q 2172 -91 1784 -91 
Q 1150 -91 751 415 
Q 353 922 353 1747 
Q 353 2572 751 3078 
Q 1150 3584 1784 3584 
Q 2172 3584 2448 3432 
Q 2725 3281 2906 2969 
z
M 947 1747 
Q 947 1113 1208 752 
Q 1469 391 1925 391 
Q 2381 391 2643 752 
Q 2906 1113 2906 1747 
Q 2906 2381 2643 2742 
Q 2381 3103 1925 3103 
Q 1469 3103 1208 2742 
Q 947 2381 947 1747 
z
" id="DejaVuSans-64" transform="scale(0.015625)"/>
      </defs>
      <use xlink:href="#DejaVuSans-4c"/>
      <use x="55.712891" xlink:href="#DejaVuSans-32"/>
      <use x="119.335938" xlink:href="#DejaVuSans-20"/>
      <use x="151.123047" xlink:href="#DejaVuSans-31"/>
      <use x="214.746094" xlink:href="#DejaVuSans-65"/>
      <use x="276.269531" xlink:href="#DejaVuSans-2d"/>
      <use x="312.353516" xlink:href="#DejaVuSans-31"/>
      <use x="375.976562" xlink:href="#DejaVuSans-28"/>
      <use x="414.990234" xlink:href="#DejaVuSans-76"/>
      <use x="474.169922" xlink:href="#DejaVuSans-61"/>
      <use x="535.449219" xlink:href="#DejaVuSans-6c"/>
      <use x="563.232422" xlink:href="#DejaVuSans-69"/>
      <use x="591.015625" xlink:href="#DejaVuSans-64"/>
      <use x="654.492188" xlink:href="#DejaVuSans-29"/>
     </g>
    </g>
    <g id="line2d_39">
     <path d="M 501.116875 79.010937 
L 521.116875 79.010937 
" style="fill:none;stroke:#ffff00;stroke-dasharray:5.55,2.4;stroke-dashoffset:0;stroke-width:1.5;"/>
    </g>
    <g id="line2d_40"/>
    <g id="text_19">
     <!-- L2 1e-3(valid) -->
     <g transform="translate(529.116875 82.510937)scale(0.1 -0.1)">
      <use xlink:href="#DejaVuSans-4c"/>
      <use x="55.712891" xlink:href="#DejaVuSans-32"/>
      <use x="119.335938" xlink:href="#DejaVuSans-20"/>
      <use x="151.123047" xlink:href="#DejaVuSans-31"/>
      <use x="214.746094" xlink:href="#DejaVuSans-65"/>
      <use x="276.269531" xlink:href="#DejaVuSans-2d"/>
      <use x="312.353516" xlink:href="#DejaVuSans-33"/>
      <use x="375.976562" xlink:href="#DejaVuSans-28"/>
      <use x="414.990234" xlink:href="#DejaVuSans-76"/>
      <use x="474.169922" xlink:href="#DejaVuSans-61"/>
      <use x="535.449219" xlink:href="#DejaVuSans-6c"/>
      <use x="563.232422" xlink:href="#DejaVuSans-69"/>
      <use x="591.015625" xlink:href="#DejaVuSans-64"/>
      <use x="654.492188" xlink:href="#DejaVuSans-29"/>
     </g>
    </g>
    <g id="line2d_41">
     <path d="M 501.116875 93.689062 
L 521.116875 93.689062 
" style="fill:none;stroke:#008000;stroke-dasharray:5.55,2.4;stroke-dashoffset:0;stroke-width:1.5;"/>
    </g>
    <g id="line2d_42"/>
    <g id="text_20">
     <!-- L2 1e-4(valid) -->
     <g transform="translate(529.116875 97.189062)scale(0.1 -0.1)">
      <use xlink:href="#DejaVuSans-4c"/>
      <use x="55.712891" xlink:href="#DejaVuSans-32"/>
      <use x="119.335938" xlink:href="#DejaVuSans-20"/>
      <use x="151.123047" xlink:href="#DejaVuSans-31"/>
      <use x="214.746094" xlink:href="#DejaVuSans-65"/>
      <use x="276.269531" xlink:href="#DejaVuSans-2d"/>
      <use x="312.353516" xlink:href="#DejaVuSans-34"/>
      <use x="375.976562" xlink:href="#DejaVuSans-28"/>
      <use x="414.990234" xlink:href="#DejaVuSans-76"/>
      <use x="474.169922" xlink:href="#DejaVuSans-61"/>
      <use x="535.449219" xlink:href="#DejaVuSans-6c"/>
      <use x="563.232422" xlink:href="#DejaVuSans-69"/>
      <use x="591.015625" xlink:href="#DejaVuSans-64"/>
      <use x="654.492188" xlink:href="#DejaVuSans-29"/>
     </g>
    </g>
   </g>
  </g>
 </g>
 <defs>
  <clipPath id="p9c76a8d400">
   <rect height="217.44" width="446.4" x="45.716875" y="7.2"/>
  </clipPath>
 </defs>
</svg>
